<?xml version="1.0" encoding="UTF-8" standalone="no"?><svg xmlns="http://www.w3.org/2000/svg" xmlns:xlink="http://www.w3.org/1999/xlink" contentScriptType="application/ecmascript" contentStyleType="text/css" height="307px" preserveAspectRatio="none" style="width:473px;height:307px;" version="1.1" viewBox="0 0 473 307" width="473px" zoomAndPan="magnify"><defs><style type="text/css"><![CDATA[path:hover { stroke: #0000FF !important;}]]></style><filter height="300%" id="f1xlc28vid9o39" width="300%" x="-1" y="-1"><feGaussianBlur result="blurOut" stdDeviation="2.0"/><feColorMatrix in="blurOut" result="blurOut2" type="matrix" values="0 0 0 0 0 0 0 0 0 0 0 0 0 0 0 0 0 0 .4 0"/><feOffset dx="4.0" dy="4.0" in="blurOut2" result="blurOut3"/><feBlend in="SourceGraphic" in2="blurOut3" mode="normal"/></filter></defs><g><a target="_top" xlink:actuate="onRequest" xlink:href="../index.svg?sanitize=true" xlink:show="new" xlink:title="../index.svg?sanitize=true" xlink:type="simple"><text fill="#0000FF" font-family="sans-serif" font-size="24" lengthAdjust="spacingAndGlyphs" text-decoration="underline" textLength="90" x="10" y="34.9141">⌂ Home</text><line style="stroke: #0000FF; stroke-width: 1.0;" x1="10" x2="100" y1="36.9141" y2="36.9141"/></a><rect fill="#EEE8AA" height="40.1875" rx="10" ry="10" style="stroke: #000080; stroke-width: 1.5;" width="97" x="186.5" y="42.1875"/><text fill="#000080" font-family="sans-serif" font-size="24" lengthAdjust="spacingAndGlyphs" textLength="81" x="194.5" y="72.1016">Finding</text><ellipse cx="235.5" cy="95.375" fill="#CCFFCC" filter="url(#f1xlc28vid9o39)" rx="10" ry="10" style="stroke: none; stroke-width: 1.0;"/><a target="_top" xlink:actuate="onRequest" xlink:href="https://www.loopnet.com/" xlink:show="new" xlink:title="https://www.loopnet.com/" xlink:type="simple"><rect fill="#87CEFA" filter="url(#f1xlc28vid9o39)" height="35.0938" rx="12.5" ry="12.5" style="stroke: #6495ED; stroke-width: 1.0;" width="74" x="198.5" y="125.375"/><path d="M213.5,139.4688 C211.29,139.4688 209.5,141.2588 209.5,143.4688 C209.5,145.6788 211.29,147.4688 213.5,147.4688 C215.71,147.4688 217.5,145.6788 217.5,143.4688 C217.5,141.2588 215.71,139.4688 213.5,139.4688 M213.5,140.4688 C213.833,140.4688 214.137,140.5548 214.438,140.6568 C214.224,140.8538 213.988,141.0398 214.032,141.2198 C214.072,141.3998 214.72,141.3498 214.72,141.7198 C214.72,141.9898 214.295,142.0658 214.595,142.3758 C214.945,142.7258 213.959,143.3538 213.939,143.8138 C213.909,144.6438 214.78,144.7828 215.47,144.7828 C215.894,144.7828 215.973,144.9778 215.939,145.2208 C215.393,145.9788 214.501,146.4708 213.501,146.4708 C213.123,146.4708 212.772,146.3808 212.438,146.2518 C212.662,145.8098 212.125,144.9078 211.657,144.6268 C211.431,144.4008 210.968,144.5128 210.688,144.4078 C210.596,144.1368 210.51,143.8628 210.5,143.5638 C210.531,143.5138 210.581,143.4698 210.656,143.4698 C210.846,143.4698 211.11,143.8438 211.25,143.8138 C211.43,143.7738 210.508,142.5008 210.937,142.2508 C211.137,142.1308 211.546,142.6448 211.406,142.0948 C211.286,141.5848 211.772,141.8188 212.062,141.6888 C212.322,141.5788 212.517,141.2748 212.187,141.0948 L211.968,140.9068 C212.418,140.6368 212.94,140.4688 213.499,140.4688 M215.812,141.5628 C215.996,141.7848 216.135,142.0438 216.25,142.3128 L216.062,142.5318 C215.772,142.8018 215.735,142.3198 215.624,142.2188 C215.494,142.1088 214.986,142.2438 214.936,142.0938 C214.859,141.9128 215.435,141.6758 215.811,141.5628 " fill="#696969" style="stroke: ; stroke-width: 0.0; stroke-dasharray: ;"/><text fill="#696969" font-family="sans-serif" font-size="12" lengthAdjust="spacingAndGlyphs" textLength="41" x="221.5" y="147.832">loopnet</text></a><rect fill="#FFFFF0" filter="url(#f1xlc28vid9o39)" height="60.1875" rx="12.5" ry="12.5" style="stroke: #6495ED; stroke-width: 1.0;" width="84" x="193.5" y="180.4688"/><text fill="#696969" font-family="sans-serif" font-size="12" lengthAdjust="spacingAndGlyphs" textLength="21" x="203.5" y="202.9258">visit</text><line style="stroke: #6495ED; stroke-width: 1.0;" x1="193.5" x2="277.5" y1="210.5625" y2="210.5625"/><text fill="#696969" font-family="sans-serif" font-size="12" lengthAdjust="spacingAndGlyphs" textLength="64" x="203.5" y="228.0195">go at 7 p.m.</text><ellipse cx="235.5" cy="270.6563" fill="#FFFFFF" filter="url(#f1xlc28vid9o39)" rx="10" ry="10" style="stroke: #FF7F50; stroke-width: 1.5;"/><line style="stroke: #FF7F50; stroke-width: 2.5;" x1="229.3128" x2="241.6872" y1="264.4691" y2="276.8434"/><line style="stroke: #FF7F50; stroke-width: 2.5;" x1="241.6872" x2="229.3128" y1="264.4691" y2="276.8434"/><line style="stroke: #696969; stroke-width: 1.5;" x1="235.5" x2="235.5" y1="105.375" y2="125.375"/><polygon fill="#696969" points="231.5,115.375,235.5,125.375,239.5,115.375,235.5,119.375" style="stroke: #696969; stroke-width: 1.0;"/><line style="stroke: #696969; stroke-width: 1.5;" x1="235.5" x2="235.5" y1="160.4688" y2="180.4688"/><polygon fill="#696969" points="231.5,170.4688,235.5,180.4688,239.5,170.4688,235.5,174.4688" style="stroke: #696969; stroke-width: 1.0;"/><line style="stroke: #696969; stroke-width: 1.5;" x1="235.5" x2="235.5" y1="240.6563" y2="260.6563"/><polygon fill="#696969" points="231.5,250.6563,235.5,260.6563,239.5,250.6563,235.5,254.6563" style="stroke: #696969; stroke-width: 1.0;"/><text fill="#000080" font-family="sans-serif" font-size="14" lengthAdjust="spacingAndGlyphs" textLength="42" x="10" y="294.1895">©2019</text><a target="_top" xlink:actuate="onRequest" xlink:href="http://www.lifestylesunlimited.com" xlink:show="new" xlink:title="http://www.lifestylesunlimited.com" xlink:type="simple"><text fill="#0000FF" font-family="sans-serif" font-size="14" lengthAdjust="spacingAndGlyphs" text-decoration="underline" textLength="122" x="56" y="294.1895">LifeStyles Unlimited</text><line style="stroke: #0000FF; stroke-width: 1.0;" x1="56" x2="178" y1="296.1895" y2="296.1895"/></a><text fill="#000080" font-family="sans-serif" font-size="14" lengthAdjust="spacingAndGlyphs" textLength="279" x="182" y="294.1895">| Generated Sat May 18 14:00:35 CDT 2019</text><!--
@startuml finding


skinparam {
  BorderColor Red
  PathHoverColor Blue
}

skinparam Title {
  FontColor Navy
  BackgroundColor PaleGoldenRod
  BorderColor Navy
  BorderRoundCorner 20
  FontSize 24
}

skinparam activity {
  BackgroundColor Ivory
  BorderColor CornflowerBlue
  BorderThickness 1
  FontColor DimGray
  

  Arrow {
    Color dimgray
    FontColor dimgray
  }

  Start {
    Color PHYSICAL
  }

  End {
    Color Coral
  }

  Diamond {
    BackgroundColor Ivory
    BorderColor CornflowerBlue
    FontColor DarkGray
  }

  BackgroundColor<< Exception >> Red
	BorderColor<< Exception >> White
}

skinparam Swimlane {
  BorderColor CornflowerBlue 
}

skinparam Partition {
  BackgroundColor Ivory
  BorderColor CornflowerBlue
  BorderThickness 1
  FontColor CornflowerBlue
  FontSize 16
  BorderRoundCorner 20
}

skinparam Note {
  BackgroundColor LightSteelBlue
  BorderColor CornflowerBlue
  FontColor White
}

skinparam Legend {
  BackgroundColor LightSteelBlue
  BorderColor CornflowerBlue
  FontColor White
}

skinparam Footer {
  FontColor Navy
}


left header 
	<font color=Navy size=24>[[../index.svg?sanitize=true ⌂ Home]]</font>
endheader


	Title Finding

	start
	[[https://www.loopnet.com/]]#LightSkyBlue:<&globe> loopnet;
	:visit
	- - - -
	go at 7 p.m.;
	end


left footer 
	<font size=14>©2019 [[http://www.lifestylesunlimited.com LifeStyles Unlimited]] | Generated Sat May 18 14:00:35 CDT 2019</font>
endfooter


@enduml

PlantUML version 1.2019.03(Sun Mar 10 06:04:44 CDT 2019)
(GPL source distribution)
Java Runtime: Java(TM) SE Runtime Environment
JVM: Java HotSpot(TM) 64-Bit Server VM
Java Version: 1.8.0_111-b14
Operating System: Windows 10
OS Version: 10.0
Default Encoding: Cp1252
Language: en
Country: US
--></g></svg>