<?xml version="1.0" encoding="UTF-8" standalone="no"?><svg xmlns="http://www.w3.org/2000/svg" xmlns:xlink="http://www.w3.org/1999/xlink" contentScriptType="application/ecmascript" contentStyleType="text/css" height="307px" preserveAspectRatio="none" style="width:325px;height:307px;" version="1.1" viewBox="0 0 325 307" width="325px" zoomAndPan="magnify"><defs><style type="text/css"><![CDATA[path:hover { stroke: #0000FF !important;}]]></style><filter height="300%" id="f1lpsn3fqfi1fn" width="300%" x="-1" y="-1"><feGaussianBlur result="blurOut" stdDeviation="2.0"/><feColorMatrix in="blurOut" result="blurOut2" type="matrix" values="0 0 0 0 0 0 0 0 0 0 0 0 0 0 0 0 0 0 .4 0"/><feOffset dx="4.0" dy="4.0" in="blurOut2" result="blurOut3"/><feBlend in="SourceGraphic" in2="blurOut3" mode="normal"/></filter></defs><g><a href="../index.svg?sanitize=true" target="_top" xlink:actuate="onRequest" xlink:show="new" xlink:title="../index.svg?sanitize=true" xlink:type="simple"><text fill="#0000FF" font-family="sans-serif" font-size="24" lengthAdjust="spacingAndGlyphs" text-decoration="underline" textLength="90" x="10" y="34.9141">⌂ Home</text></a><rect fill="#EEE8AA" height="40.1875" rx="10" ry="10" style="stroke: #000080; stroke-width: 1.5;" width="97" x="112.5" y="42.1875"/><text fill="#000080" font-family="sans-serif" font-size="24" lengthAdjust="spacingAndGlyphs" textLength="81" x="120.5" y="72.1016">Finding</text><ellipse cx="161.5" cy="95.375" fill="#CCFFCC" filter="url(#f1lpsn3fqfi1fn)" rx="10" ry="10" style="stroke: none; stroke-width: 1.0;"/><a href="https://www.loopnet.com/" target="_top" xlink:actuate="onRequest" xlink:show="new" xlink:title="https://www.loopnet.com/" xlink:type="simple"><rect fill="#87CEFA" filter="url(#f1lpsn3fqfi1fn)" height="35.0938" rx="12.5" ry="12.5" style="stroke: #6495ED; stroke-width: 1.0;" width="74" x="124.5" y="125.375"/><path d="M139.5,139.4688 C137.29,139.4688 135.5,141.2588 135.5,143.4688 C135.5,145.6788 137.29,147.4688 139.5,147.4688 C141.71,147.4688 143.5,145.6788 143.5,143.4688 C143.5,141.2588 141.71,139.4688 139.5,139.4688 M139.5,140.4688 C139.833,140.4688 140.137,140.5548 140.438,140.6568 C140.224,140.8538 139.988,141.0398 140.032,141.2198 C140.072,141.3998 140.72,141.3498 140.72,141.7198 C140.72,141.9898 140.295,142.0658 140.595,142.3758 C140.945,142.7258 139.959,143.3538 139.939,143.8138 C139.909,144.6438 140.78,144.7828 141.47,144.7828 C141.894,144.7828 141.973,144.9778 141.939,145.2208 C141.393,145.9788 140.501,146.4708 139.501,146.4708 C139.123,146.4708 138.772,146.3808 138.438,146.2518 C138.662,145.8098 138.125,144.9078 137.657,144.6268 C137.431,144.4008 136.968,144.5128 136.688,144.4078 C136.596,144.1368 136.51,143.8628 136.5,143.5638 C136.531,143.5138 136.581,143.4698 136.656,143.4698 C136.846,143.4698 137.11,143.8438 137.25,143.8138 C137.43,143.7738 136.508,142.5008 136.937,142.2508 C137.137,142.1308 137.546,142.6448 137.406,142.0948 C137.286,141.5848 137.772,141.8188 138.062,141.6888 C138.322,141.5788 138.517,141.2748 138.187,141.0948 L137.968,140.9068 C138.418,140.6368 138.94,140.4688 139.499,140.4688 M141.812,141.5628 C141.996,141.7848 142.135,142.0438 142.25,142.3128 L142.062,142.5318 C141.772,142.8018 141.735,142.3198 141.624,142.2188 C141.494,142.1088 140.986,142.2438 140.936,142.0938 C140.859,141.9128 141.435,141.6758 141.811,141.5628 " fill="#696969" style="stroke: ; stroke-width: 0.0; stroke-dasharray: ;"/><text fill="#696969" font-family="sans-serif" font-size="12" lengthAdjust="spacingAndGlyphs" textLength="41" x="147.5" y="147.832">loopnet</text></a><rect fill="#FFFFF0" filter="url(#f1lpsn3fqfi1fn)" height="60.1875" rx="12.5" ry="12.5" style="stroke: #6495ED; stroke-width: 1.0;" width="84" x="119.5" y="180.4688"/><text fill="#696969" font-family="sans-serif" font-size="12" lengthAdjust="spacingAndGlyphs" textLength="21" x="129.5" y="202.9258">visit</text><line style="stroke: #6495ED; stroke-width: 1.0;" x1="119.5" x2="203.5" y1="210.5625" y2="210.5625"/><text fill="#696969" font-family="sans-serif" font-size="12" lengthAdjust="spacingAndGlyphs" textLength="64" x="129.5" y="228.0195">go at 7 p.m.</text><ellipse cx="161.5" cy="270.6563" fill="#FFFFFF" filter="url(#f1lpsn3fqfi1fn)" rx="10" ry="10" style="stroke: #FF7F50; stroke-width: 1.5;"/><line style="stroke: #FF7F50; stroke-width: 2.5;" x1="155.3128" x2="167.6872" y1="264.4691" y2="276.8434"/><line style="stroke: #FF7F50; stroke-width: 2.5;" x1="167.6872" x2="155.3128" y1="264.4691" y2="276.8434"/><line style="stroke: #696969; stroke-width: 1.5;" x1="161.5" x2="161.5" y1="105.375" y2="125.375"/><polygon fill="#696969" points="157.5,115.375,161.5,125.375,165.5,115.375,161.5,119.375" style="stroke: #696969; stroke-width: 1.0;"/><line style="stroke: #696969; stroke-width: 1.5;" x1="161.5" x2="161.5" y1="160.4688" y2="180.4688"/><polygon fill="#696969" points="157.5,170.4688,161.5,180.4688,165.5,170.4688,161.5,174.4688" style="stroke: #696969; stroke-width: 1.0;"/><line style="stroke: #696969; stroke-width: 1.5;" x1="161.5" x2="161.5" y1="240.6563" y2="260.6563"/><polygon fill="#696969" points="157.5,250.6563,161.5,260.6563,165.5,250.6563,161.5,254.6563" style="stroke: #696969; stroke-width: 1.0;"/><text fill="#000080" font-family="sans-serif" font-size="14" lengthAdjust="spacingAndGlyphs" textLength="42" x="10" y="294.1895">©2019</text><a href="http://www.lifestylesunlimited.com" target="_top" xlink:actuate="onRequest" xlink:show="new" xlink:title="http://www.lifestylesunlimited.com" xlink:type="simple"><text fill="#0000FF" font-family="sans-serif" font-size="14" lengthAdjust="spacingAndGlyphs" text-decoration="underline" textLength="122" x="56" y="294.1895">LifeStyles Unlimited</text></a><text fill="#000080" font-family="sans-serif" font-size="14" lengthAdjust="spacingAndGlyphs" textLength="131" x="182" y="294.1895">| Generated %date%</text><!--
@startuml finding


skinparam {
  BorderColor Red
  PathHoverColor Blue
}

skinparam Title {
  FontColor Navy
  BackgroundColor PaleGoldenRod
  BorderColor Navy
  BorderRoundCorner 20
  FontSize 24
}

skinparam activity {
  BackgroundColor Ivory
  BorderColor CornflowerBlue
  BorderThickness 1
  FontColor DimGray
  

  Arrow {
    Color dimgray
    FontColor dimgray
  }

  Start {
    Color PHYSICAL
  }

  End {
    Color Coral
  }

  Diamond {
    BackgroundColor Ivory
    BorderColor CornflowerBlue
    FontColor DarkGray
  }

  BackgroundColor<< Exception >> Red
	BorderColor<< Exception >> White
}

skinparam Swimlane {
  BorderColor CornflowerBlue 
}

skinparam Partition {
  BackgroundColor Ivory
  BorderColor CornflowerBlue
  BorderThickness 1
  FontColor CornflowerBlue
  FontSize 16
  BorderRoundCorner 20
}

skinparam Note {
  BackgroundColor LightSteelBlue
  BorderColor CornflowerBlue
  FontColor White
}

skinparam Legend {
  BackgroundColor LightSteelBlue
  BorderColor CornflowerBlue
  FontColor White
}

skinparam Footer {
  FontColor Navy
}


left header 
	<font color=Navy size=24>[[../index.svg?sanitize=true ⌂ Home]]</font>
endheader


	Title Finding

	start
	[[https://www.loopnet.com/]]#LightSkyBlue:<&globe> loopnet;
	:visit
	- - - -
	go at 7 p.m.;
	end


left footer 
	<font size=14>©2019 [[http://www.lifestylesunlimited.com LifeStyles Unlimited]] | Generated %date%</font>
endfooter


@enduml

PlantUML version 1.2019.06(Fri May 24 12:10:25 CDT 2019)
(GPL source distribution)
Java Runtime: Java(TM) SE Runtime Environment
JVM: Java HotSpot(TM) Client VM
Java Version: 1.8.0_211-b12
Operating System: Windows 10
OS Version: 10.0
Default Encoding: Cp1252
Language: en
Country: US
--></g></svg>