<?xml version="1.0" encoding="UTF-8" standalone="no"?><svg xmlns="http://www.w3.org/2000/svg" xmlns:xlink="http://www.w3.org/1999/xlink" contentScriptType="application/ecmascript" contentStyleType="text/css" height="307px" preserveAspectRatio="none" style="width:477px;height:307px;" version="1.1" viewBox="0 0 477 307" width="477px" zoomAndPan="magnify"><defs><style type="text/css"><![CDATA[path:hover { stroke: #0000FF !important;}]]></style><filter height="300%" id="f15m0pfm19qw54" width="300%" x="-1" y="-1"><feGaussianBlur result="blurOut" stdDeviation="2.0"/><feColorMatrix in="blurOut" result="blurOut2" type="matrix" values="0 0 0 0 0 0 0 0 0 0 0 0 0 0 0 0 0 0 .4 0"/><feOffset dx="4.0" dy="4.0" in="blurOut2" result="blurOut3"/><feBlend in="SourceGraphic" in2="blurOut3" mode="normal"/></filter></defs><g><a target="_top" xlink:actuate="onRequest" xlink:href="../index.svg?sanitize=true" xlink:show="new" xlink:title="../index.svg?sanitize=true" xlink:type="simple"><text fill="#0000FF" font-family="sans-serif" font-size="24" lengthAdjust="spacingAndGlyphs" text-decoration="underline" textLength="90" x="10" y="34.9141">⌂ Home</text><line style="stroke: #0000FF; stroke-width: 1.0;" x1="10" x2="100" y1="36.9141" y2="36.9141"/></a><rect fill="#EEE8AA" height="40.1875" rx="10" ry="10" style="stroke: #000080; stroke-width: 1.5;" width="97" x="188.5" y="42.1875"/><text fill="#000080" font-family="sans-serif" font-size="24" lengthAdjust="spacingAndGlyphs" textLength="81" x="196.5" y="72.1016">Finding</text><ellipse cx="237.5" cy="95.375" fill="#CCFFCC" filter="url(#f15m0pfm19qw54)" rx="10" ry="10" style="stroke: none; stroke-width: 1.0;"/><a target="_top" xlink:actuate="onRequest" xlink:href="https://www.loopnet.com/" xlink:show="new" xlink:title="https://www.loopnet.com/" xlink:type="simple"><rect fill="#87CEFA" filter="url(#f15m0pfm19qw54)" height="35.0938" rx="12.5" ry="12.5" style="stroke: #6495ED; stroke-width: 1.0;" width="74" x="200.5" y="125.375"/><path d="M215.5,139.4688 C213.29,139.4688 211.5,141.2588 211.5,143.4688 C211.5,145.6788 213.29,147.4688 215.5,147.4688 C217.71,147.4688 219.5,145.6788 219.5,143.4688 C219.5,141.2588 217.71,139.4688 215.5,139.4688 M215.5,140.4688 C215.833,140.4688 216.137,140.5548 216.438,140.6568 C216.224,140.8538 215.988,141.0398 216.032,141.2198 C216.072,141.3998 216.72,141.3498 216.72,141.7198 C216.72,141.9898 216.295,142.0658 216.595,142.3758 C216.945,142.7258 215.959,143.3538 215.939,143.8138 C215.909,144.6438 216.78,144.7828 217.47,144.7828 C217.894,144.7828 217.973,144.9778 217.939,145.2208 C217.393,145.9788 216.501,146.4708 215.501,146.4708 C215.123,146.4708 214.772,146.3808 214.438,146.2518 C214.662,145.8098 214.125,144.9078 213.657,144.6268 C213.431,144.4008 212.968,144.5128 212.688,144.4078 C212.596,144.1368 212.51,143.8628 212.5,143.5638 C212.531,143.5138 212.581,143.4698 212.656,143.4698 C212.846,143.4698 213.11,143.8438 213.25,143.8138 C213.43,143.7738 212.508,142.5008 212.937,142.2508 C213.137,142.1308 213.546,142.6448 213.406,142.0948 C213.286,141.5848 213.772,141.8188 214.062,141.6888 C214.322,141.5788 214.517,141.2748 214.187,141.0948 L213.968,140.9068 C214.418,140.6368 214.94,140.4688 215.499,140.4688 M217.812,141.5628 C217.996,141.7848 218.135,142.0438 218.25,142.3128 L218.062,142.5318 C217.772,142.8018 217.735,142.3198 217.624,142.2188 C217.494,142.1088 216.986,142.2438 216.936,142.0938 C216.859,141.9128 217.435,141.6758 217.811,141.5628 " fill="#696969" style="stroke: ; stroke-width: 0.0; stroke-dasharray: ;"/><text fill="#696969" font-family="sans-serif" font-size="12" lengthAdjust="spacingAndGlyphs" textLength="41" x="223.5" y="147.832">loopnet</text></a><rect fill="#FFFFF0" filter="url(#f15m0pfm19qw54)" height="60.1875" rx="12.5" ry="12.5" style="stroke: #6495ED; stroke-width: 1.0;" width="84" x="195.5" y="180.4688"/><text fill="#696969" font-family="sans-serif" font-size="12" lengthAdjust="spacingAndGlyphs" textLength="21" x="205.5" y="202.9258">visit</text><line style="stroke: #6495ED; stroke-width: 1.0;" x1="195.5" x2="279.5" y1="210.5625" y2="210.5625"/><text fill="#696969" font-family="sans-serif" font-size="12" lengthAdjust="spacingAndGlyphs" textLength="64" x="205.5" y="228.0195">go at 7 p.m.</text><ellipse cx="237.5" cy="270.6563" fill="#FFFFFF" filter="url(#f15m0pfm19qw54)" rx="10" ry="10" style="stroke: #FF7F50; stroke-width: 1.5;"/><line style="stroke: #FF7F50; stroke-width: 2.5;" x1="231.3128" x2="243.6872" y1="264.4691" y2="276.8434"/><line style="stroke: #FF7F50; stroke-width: 2.5;" x1="243.6872" x2="231.3128" y1="264.4691" y2="276.8434"/><line style="stroke: #696969; stroke-width: 1.5;" x1="237.5" x2="237.5" y1="105.375" y2="125.375"/><polygon fill="#696969" points="233.5,115.375,237.5,125.375,241.5,115.375,237.5,119.375" style="stroke: #696969; stroke-width: 1.0;"/><line style="stroke: #696969; stroke-width: 1.5;" x1="237.5" x2="237.5" y1="160.4688" y2="180.4688"/><polygon fill="#696969" points="233.5,170.4688,237.5,180.4688,241.5,170.4688,237.5,174.4688" style="stroke: #696969; stroke-width: 1.0;"/><line style="stroke: #696969; stroke-width: 1.5;" x1="237.5" x2="237.5" y1="240.6563" y2="260.6563"/><polygon fill="#696969" points="233.5,250.6563,237.5,260.6563,241.5,250.6563,237.5,254.6563" style="stroke: #696969; stroke-width: 1.0;"/><text fill="#000080" font-family="sans-serif" font-size="14" lengthAdjust="spacingAndGlyphs" textLength="42" x="10" y="294.1895">©2019</text><a target="_top" xlink:actuate="onRequest" xlink:href="http://www.lifestylesunlimited.com" xlink:show="new" xlink:title="http://www.lifestylesunlimited.com" xlink:type="simple"><text fill="#0000FF" font-family="sans-serif" font-size="14" lengthAdjust="spacingAndGlyphs" text-decoration="underline" textLength="122" x="56" y="294.1895">LifeStyles Unlimited</text><line style="stroke: #0000FF; stroke-width: 1.0;" x1="56" x2="178" y1="296.1895" y2="296.1895"/></a><text fill="#000080" font-family="sans-serif" font-size="14" lengthAdjust="spacingAndGlyphs" textLength="283" x="182" y="294.1895">| Generated Sun May 12 17:24:13 CDT 2019</text><!--
@startuml finding


skinparam {
  BorderColor Red
  PathHoverColor Blue
}

skinparam Title {
  FontColor Navy
  BackgroundColor PaleGoldenRod
  BorderColor Navy
  BorderRoundCorner 20
  FontSize 24
}

skinparam activity {
  BackgroundColor Ivory
  BorderColor CornflowerBlue
  BorderThickness 1
  FontColor DimGray
  

  Arrow {
    Color dimgray
    FontColor dimgray
  }

  Start {
    Color PHYSICAL
  }

  End {
    Color Coral
  }

  Diamond {
    BackgroundColor Ivory
    BorderColor CornflowerBlue
    FontColor DarkGray
  }

  BackgroundColor<< Exception >> Red
	BorderColor<< Exception >> White
}

skinparam Swimlane {
  BorderColor CornflowerBlue 
}

skinparam Partition {
  BackgroundColor Ivory
  BorderColor CornflowerBlue
  BorderThickness 1
  FontColor CornflowerBlue
  FontSize 16
  BorderRoundCorner 20
}

skinparam Note {
  BackgroundColor LightSteelBlue
  BorderColor CornflowerBlue
  FontColor White
}

skinparam Legend {
  BackgroundColor LightSteelBlue
  BorderColor CornflowerBlue
  FontColor White
}

skinparam Footer {
  FontColor Navy
}


left header 
	<font color=Navy size=24>[[../index.svg?sanitize=true ⌂ Home]]</font>
endheader


	Title Finding

	start
	[[https://www.loopnet.com/]]#LightSkyBlue:<&globe> loopnet;
	:visit
	- - - -
	go at 7 p.m.;
	end


left footer 
	<font size=14>©2019 [[http://www.lifestylesunlimited.com LifeStyles Unlimited]] | Generated Sun May 12 17:24:13 CDT 2019</font>
endfooter


@enduml

PlantUML version 1.2019.03(Sun Mar 10 06:04:44 CDT 2019)
(GPL source distribution)
Java Runtime: Java(TM) SE Runtime Environment
JVM: Java HotSpot(TM) 64-Bit Server VM
Java Version: 1.8.0_111-b14
Operating System: Windows 10
OS Version: 10.0
Default Encoding: Cp1252
Language: en
Country: US
--></g></svg>