<?xml version="1.0" encoding="UTF-8" standalone="no"?><svg xmlns="http://www.w3.org/2000/svg" xmlns:xlink="http://www.w3.org/1999/xlink" contentScriptType="application/ecmascript" contentStyleType="text/css" height="1028px" preserveAspectRatio="none" style="width:721px;height:1028px;" version="1.1" viewBox="0 0 721 1028" width="721px" zoomAndPan="magnify"><defs><style type="text/css"><![CDATA[path:hover { stroke: #0000FF !important;}]]></style><filter height="300%" id="fuasb3302sa58" width="300%" x="-1" y="-1"><feGaussianBlur result="blurOut" stdDeviation="2.0"/><feColorMatrix in="blurOut" result="blurOut2" type="matrix" values="0 0 0 0 0 0 0 0 0 0 0 0 0 0 0 0 0 0 .4 0"/><feOffset dx="4.0" dy="4.0" in="blurOut2" result="blurOut3"/><feBlend in="SourceGraphic" in2="blurOut3" mode="normal"/></filter></defs><g><a href="../index.svg?sanitize=true" target="_top" xlink:actuate="onRequest" xlink:show="new" xlink:title="../index.svg?sanitize=true" xlink:type="simple"><text fill="#0000FF" font-family="sans-serif" font-size="24" lengthAdjust="spacingAndGlyphs" text-decoration="underline" textLength="90" x="10" y="34.9141">⌂ Home</text></a><rect fill="#EEE8AA" height="40.1875" rx="10" ry="10" style="stroke: #000080; stroke-width: 1.5;" width="259" x="229.5" y="42.1875"/><text fill="#000080" font-family="sans-serif" font-size="24" lengthAdjust="spacingAndGlyphs" textLength="243" x="237.5" y="72.1016">Lead Investor Program</text><ellipse cx="343.5" cy="95.375" fill="#CCFFCC" filter="url(#fuasb3302sa58)" rx="10" ry="10" style="stroke: none; stroke-width: 1.0;"/><a href="preferred-investor-group-program.svg?sanitize=true" target="_top" xlink:actuate="onRequest" xlink:show="new" xlink:title="preferred-investor-group-program.svg?sanitize=true" xlink:type="simple"><rect fill="#87CEFA" filter="url(#fuasb3302sa58)" height="60.1875" rx="12.5" ry="12.5" style="stroke: #6495ED; stroke-width: 1.0;" width="151" x="268" y="125.375"/><text fill="#696969" font-family="sans-serif" font-size="12" lengthAdjust="spacingAndGlyphs" textLength="131" x="278" y="147.832">preferred investor group</text><line style="stroke: #6495ED; stroke-width: 1.0;" x1="268" x2="419" y1="155.4688" y2="155.4688"/><text fill="#696969" font-family="sans-serif" font-size="12" lengthAdjust="spacingAndGlyphs" textLength="105" x="278" y="172.9258">active membership</text></a><rect fill="#CCFFCC" filter="url(#fuasb3302sa58)" height="35.0938" style="stroke: #6495ED; stroke-width: 1.0;" width="163" x="262" y="205.5625"/><path d="M276,219.6563 L276,220.6563 L275.25,220.6563 C274.564,220.6563 274,221.2203 274,221.9063 L274,222.4063 C274,223.0843 274.437,223.6483 275.094,223.8123 L277.657,224.4683 C277.8,224.5043 278.001,224.7643 278.001,224.9063 L278.001,225.4063 C278.001,225.5403 277.885,225.6563 277.751,225.6563 L275.251,225.6563 C275.135,225.6563 275.039,225.6193 275.001,225.5933 L275.001,224.6553 L274.001,224.6553 L274.001,225.6553 C274.001,225.9973 274.204,226.2823 274.439,226.4363 C274.673,226.5913 274.957,226.6553 275.252,226.6553 L276.002,226.6553 L276.002,227.6553 L277.002,227.6553 L277.002,226.6553 L277.752,226.6553 C278.438,226.6553 279.002,226.0913 279.002,225.4053 L279.002,224.9053 C279.002,224.2273 278.565,223.6633 277.908,223.4993 L275.345,222.8433 C275.202,222.8073 275.001,222.5473 275.001,222.4053 L275.001,221.9053 C275.001,221.7713 275.117,221.6553 275.251,221.6553 L277.751,221.6553 C277.867,221.6553 277.963,221.6923 278.001,221.7183 L278.001,222.6563 L279.001,222.6563 L279.001,221.6563 C279.001,221.3143 278.798,221.0293 278.563,220.8753 C278.329,220.7203 278.045,220.6563 277.75,220.6563 L277,220.6563 L277,219.6563 L276,219.6563 " fill="#696969" style="stroke: ; stroke-width: 0.0; stroke-dasharray: ;"/><text fill="#696969" font-family="sans-serif" font-size="12" lengthAdjust="spacingAndGlyphs" textLength="130" x="285" y="228.0195">Certification Fee 10,000</text><rect fill="#FFFFF0" filter="url(#fuasb3302sa58)" height="35.0938" rx="12.5" ry="12.5" style="stroke: #6495ED; stroke-width: 1.0;" width="51" x="318" y="326.4912"/><text fill="#696969" font-family="sans-serif" font-size="12" lengthAdjust="spacingAndGlyphs" textLength="31" x="328" y="348.9482">active</text><rect fill="#000000" filter="url(#fuasb3302sa58)" height="6" rx="2.5" ry="2.5" style="stroke: #000000; stroke-width: 1.0;" width="673" x="10" y="381.585"/><rect fill="#FFFFF0" filter="url(#fuasb3302sa58)" height="35.0938" style="stroke: #6495ED; stroke-width: 1.0;" width="76" x="22" y="564.3662"/><text fill="#696969" font-family="sans-serif" font-size="12" lengthAdjust="spacingAndGlyphs" textLength="56" x="32" y="586.8232">SEC rules</text><rect fill="#FFFFF0" filter="url(#fuasb3302sa58)" height="35.0938" style="stroke: #6495ED; stroke-width: 1.0;" width="84" x="108" y="564.3662"/><text fill="#696969" font-family="sans-serif" font-size="12" lengthAdjust="spacingAndGlyphs" textLength="64" x="118" y="586.8232">white paper</text><rect fill="#FFFFF0" filter="url(#fuasb3302sa58)" height="50.1875" style="stroke: #6495ED; stroke-width: 1.0;" width="109" x="202" y="556.8193"/><text fill="#696969" font-family="sans-serif" font-size="12" lengthAdjust="spacingAndGlyphs" textLength="89" x="212" y="579.2764">passive investor</text><text fill="#696969" font-family="sans-serif" font-size="12" lengthAdjust="spacingAndGlyphs" textLength="48" x="212" y="594.3701">checklist</text><rect fill="#FFFFF0" filter="url(#fuasb3302sa58)" height="65.2813" rx="12.5" ry="12.5" style="stroke: #6495ED; stroke-width: 1.0;" width="111" x="339" y="549.2725"/><text fill="#696969" font-family="sans-serif" font-size="12" lengthAdjust="spacingAndGlyphs" textLength="70" x="349" y="571.7295">lead investor</text><text fill="#696969" font-family="sans-serif" font-size="12" lengthAdjust="spacingAndGlyphs" textLength="91" x="349" y="586.8232">certification track</text><text fill="#696969" font-family="sans-serif" font-size="12" lengthAdjust="spacingAndGlyphs" textLength="44" x="349" y="601.917">classes</text><rect fill="#FFFFF0" filter="url(#fuasb3302sa58)" height="65.2813" style="stroke: #6495ED; stroke-width: 1.0;" width="104" x="460.5" y="451.585"/><text fill="#696969" font-family="sans-serif" font-size="12" lengthAdjust="spacingAndGlyphs" textLength="70" x="470.5" y="474.042">lead investor</text><text fill="#696969" font-family="sans-serif" font-size="12" lengthAdjust="spacingAndGlyphs" textLength="62" x="470.5" y="489.1357">certification</text><text fill="#696969" font-family="sans-serif" font-size="12" lengthAdjust="spacingAndGlyphs" textLength="84" x="470.5" y="504.2295">study materials</text><rect fill="#FFFFF0" filter="url(#fuasb3302sa58)" height="50.1875" style="stroke: #6495ED; stroke-width: 1.0;" width="105" x="460" y="536.8662"/><text fill="#696969" font-family="sans-serif" font-size="12" lengthAdjust="spacingAndGlyphs" textLength="70" x="470" y="559.3232">lead investor</text><text fill="#696969" font-family="sans-serif" font-size="12" lengthAdjust="spacingAndGlyphs" textLength="85" x="470" y="574.417">certification test</text><rect fill="#FFFFF0" filter="url(#fuasb3302sa58)" height="35.0938" rx="12.5" ry="12.5" style="stroke: #6495ED; stroke-width: 1.0;" width="66" x="479.5" y="622.0537"/><text fill="#696969" font-family="sans-serif" font-size="12" lengthAdjust="spacingAndGlyphs" textLength="46" x="489.5" y="644.5107">take test</text><polygon fill="#FFFFF0" filter="url(#fuasb3302sa58)" points="512.5,407.585,524.5,419.585,512.5,431.585,500.5,419.585,512.5,407.585" style="stroke: #6495ED; stroke-width: 1.0;"/><polygon fill="#FFFFF0" filter="url(#fuasb3302sa58)" points="473,677.1475,552,677.1475,564,689.1475,552,701.1475,473,701.1475,461,689.1475,473,677.1475" style="stroke: #6495ED; stroke-width: 1.0;"/><text fill="#A9A9A9" font-family="sans-serif" font-size="11" lengthAdjust="spacingAndGlyphs" textLength="79" x="473" y="693.6484">pass with 100%</text><rect fill="#FFFFF0" filter="url(#fuasb3302sa58)" height="35.0938" rx="12.5" ry="12.5" style="stroke: #6495ED; stroke-width: 1.0;" width="63" x="481" y="721.1475"/><text fill="#696969" font-family="sans-serif" font-size="12" lengthAdjust="spacingAndGlyphs" textLength="43" x="491" y="743.6045">certified</text><polygon fill="#FFFFF0" filter="url(#fuasb3302sa58)" points="603,564.3662,669,564.3662,679,581.9131,669,599.46,603,599.46" style="stroke: #6495ED; stroke-width: 1.0;"/><path d="M618,578.46 C615.797,578.46 614,580.257 614,582.46 C614,584.663 615.797,586.46 618,586.46 C620.203,586.46 622,584.663 622,582.46 C622,580.257 620.203,578.46 618,578.46 M618,579.46 C619.663,579.46 621,580.797 621,582.46 C621,584.123 619.663,585.46 618,585.46 C616.337,585.46 615,584.123 615,582.46 C615,580.797 616.337,579.46 618,579.46 M617.5,580.46 L617.5,582.679 L617.656,582.804 L618.156,583.304 L618.5,583.679 L619.219,582.96 L618.844,582.616 L618.5,582.272 L618.5,580.459 L617.5,580.459 " fill="#696969" style="stroke: ; stroke-width: 0.0; stroke-dasharray: ;"/><text fill="#696969" font-family="sans-serif" font-size="12" lengthAdjust="spacingAndGlyphs" textLength="33" x="626" y="586.8232">1 year</text><rect fill="#000000" filter="url(#fuasb3302sa58)" height="6" rx="2.5" ry="2.5" style="stroke: #000000; stroke-width: 1.0;" width="673" x="10" y="776.2412"/><rect fill="#FFFFF0" filter="url(#fuasb3302sa58)" height="35.0938" rx="12.5" ry="12.5" style="stroke: #6495ED; stroke-width: 1.0;" width="61" x="313" y="802.2412"/><text fill="#696969" font-family="sans-serif" font-size="12" lengthAdjust="spacingAndGlyphs" textLength="41" x="323" y="824.6982">inactive</text><rect fill="#CCFFCC" filter="url(#fuasb3302sa58)" height="60.1875" style="stroke: #6495ED; stroke-width: 1.0;" width="173" x="257" y="857.335"/><path d="M271,871.4287 L271,872.4287 L270.25,872.4287 C269.564,872.4287 269,872.9927 269,873.6787 L269,874.1787 C269,874.8567 269.437,875.4207 270.094,875.5847 L272.657,876.2407 C272.8,876.2767 273.001,876.5367 273.001,876.6787 L273.001,877.1787 C273.001,877.3127 272.885,877.4287 272.751,877.4287 L270.251,877.4287 C270.135,877.4287 270.039,877.3917 270.001,877.3657 L270.001,876.4277 L269.001,876.4277 L269.001,877.4277 C269.001,877.7697 269.204,878.0547 269.439,878.2087 C269.673,878.3637 269.957,878.4277 270.252,878.4277 L271.002,878.4277 L271.002,879.4277 L272.002,879.4277 L272.002,878.4277 L272.752,878.4277 C273.438,878.4277 274.002,877.8637 274.002,877.1777 L274.002,876.6777 C274.002,875.9997 273.565,875.4357 272.908,875.2717 L270.345,874.6157 C270.202,874.5797 270.001,874.3197 270.001,874.1777 L270.001,873.6777 C270.001,873.5437 270.117,873.4277 270.251,873.4277 L272.751,873.4277 C272.867,873.4277 272.963,873.4647 273.001,873.4907 L273.001,874.4287 L274.001,874.4287 L274.001,873.4287 C274.001,873.0867 273.798,872.8017 273.563,872.6477 C273.329,872.4927 273.045,872.4287 272.75,872.4287 L272,872.4287 L272,871.4287 L271,871.4287 " fill="#696969" style="stroke: ; stroke-width: 0.0; stroke-dasharray: ;"/><text fill="#696969" font-family="sans-serif" font-size="12" lengthAdjust="spacingAndGlyphs" textLength="124" x="280" y="879.792">Annual Renewal 5,000</text><line style="stroke: #6495ED; stroke-width: 1.0;" x1="257" x2="430" y1="887.4287" y2="887.4287"/><text fill="#696969" font-family="sans-serif" font-size="12" font-style="italic" lengthAdjust="spacingAndGlyphs" textLength="153" x="267" y="904.8857">this covers the PIG Renewal</text><polygon fill="#FFFFF0" filter="url(#fuasb3302sa58)" points="343.5,260.6563,355.5,272.6563,343.5,284.6563,331.5,272.6563,343.5,260.6563" style="stroke: #6495ED; stroke-width: 1.0;"/><polygon fill="#FFFFF0" filter="url(#fuasb3302sa58)" points="343.5,937.5225,343.5,937.5225,355.5,949.5225,343.5,961.5225,343.5,961.5225,331.5,949.5225,343.5,937.5225" style="stroke: #6495ED; stroke-width: 1.0;"/><ellipse cx="343.5" cy="991.5225" fill="#FFFFFF" filter="url(#fuasb3302sa58)" rx="10" ry="10" style="stroke: #FF7F50; stroke-width: 1.5;"/><line style="stroke: #FF7F50; stroke-width: 2.5;" x1="337.3128" x2="349.6872" y1="985.3353" y2="997.7096"/><line style="stroke: #FF7F50; stroke-width: 2.5;" x1="349.6872" x2="337.3128" y1="985.3353" y2="997.7096"/><line style="stroke: #696969; stroke-width: 1.5;" x1="343.5" x2="343.5" y1="105.375" y2="125.375"/><polygon fill="#696969" points="339.5,115.375,343.5,125.375,347.5,115.375,343.5,119.375" style="stroke: #696969; stroke-width: 1.0;"/><line style="stroke: #696969; stroke-width: 1.5;" x1="343.5" x2="343.5" y1="185.5625" y2="205.5625"/><polygon fill="#696969" points="339.5,195.5625,343.5,205.5625,347.5,195.5625,343.5,199.5625" style="stroke: #696969; stroke-width: 1.0;"/><line style="stroke: #696969; stroke-width: 1.5;" x1="512.5" x2="512.5" y1="516.8662" y2="536.8662"/><polygon fill="#696969" points="508.5,526.8662,512.5,536.8662,516.5,526.8662,512.5,530.8662" style="stroke: #696969; stroke-width: 1.0;"/><line style="stroke: #696969; stroke-width: 1.5;" x1="512.5" x2="512.5" y1="587.0537" y2="622.0537"/><polygon fill="#696969" points="508.5,612.0537,512.5,622.0537,516.5,612.0537,512.5,616.0537" style="stroke: #696969; stroke-width: 1.0;"/><line style="stroke: #696969; stroke-width: 1.5;" x1="512.5" x2="512.5" y1="431.585" y2="451.585"/><polygon fill="#696969" points="508.5,441.585,512.5,451.585,516.5,441.585,512.5,445.585" style="stroke: #696969; stroke-width: 1.0;"/><line style="stroke: #696969; stroke-width: 1.5;" x1="564" x2="577" y1="689.1475" y2="689.1475"/><polygon fill="#696969" points="573,556.8662,577,546.8662,581,556.8662,577,552.8662" style="stroke: #696969; stroke-width: 1.5;"/><line style="stroke: #696969; stroke-width: 1.5;" x1="577" x2="577" y1="419.585" y2="689.1475"/><line style="stroke: #696969; stroke-width: 1.5;" x1="577" x2="524.5" y1="419.585" y2="419.585"/><polygon fill="#696969" points="534.5,415.585,524.5,419.585,534.5,423.585,530.5,419.585" style="stroke: #696969; stroke-width: 1.0;"/><text fill="#696969" font-family="sans-serif" font-size="11" lengthAdjust="spacingAndGlyphs" textLength="12" x="581" y="693.6484">no</text><line style="stroke: #696969; stroke-width: 1.5;" x1="512.5" x2="512.5" y1="657.1475" y2="677.1475"/><polygon fill="#696969" points="508.5,667.1475,512.5,677.1475,516.5,667.1475,512.5,671.1475" style="stroke: #696969; stroke-width: 1.0;"/><line style="stroke: #696969; stroke-width: 1.5;" x1="512.5" x2="512.5" y1="701.1475" y2="721.1475"/><polygon fill="#696969" points="508.5,711.1475,512.5,721.1475,516.5,711.1475,512.5,715.1475" style="stroke: #696969; stroke-width: 1.0;"/><line style="stroke: #696969; stroke-width: 1.5;" x1="60" x2="60" y1="387.585" y2="564.3662"/><polygon fill="#696969" points="56,554.3662,60,564.3662,64,554.3662,60,558.3662" style="stroke: #696969; stroke-width: 1.0;"/><line style="stroke: #696969; stroke-width: 1.5;" x1="150" x2="150" y1="387.585" y2="564.3662"/><polygon fill="#696969" points="146,554.3662,150,564.3662,154,554.3662,150,558.3662" style="stroke: #696969; stroke-width: 1.0;"/><line style="stroke: #696969; stroke-width: 1.5;" x1="256.5" x2="256.5" y1="387.585" y2="556.8193"/><polygon fill="#696969" points="252.5,546.8193,256.5,556.8193,260.5,546.8193,256.5,550.8193" style="stroke: #696969; stroke-width: 1.0;"/><line style="stroke: #696969; stroke-width: 1.5;" x1="394.5" x2="394.5" y1="387.585" y2="549.2725"/><polygon fill="#696969" points="390.5,539.2725,394.5,549.2725,398.5,539.2725,394.5,543.2725" style="stroke: #696969; stroke-width: 1.0;"/><line style="stroke: #696969; stroke-width: 1.5;" x1="512.5" x2="512.5" y1="387.585" y2="407.585"/><polygon fill="#696969" points="508.5,397.585,512.5,407.585,516.5,397.585,512.5,401.585" style="stroke: #696969; stroke-width: 1.0;"/><line style="stroke: #696969; stroke-width: 1.5;" x1="636" x2="636" y1="387.585" y2="564.3662"/><polygon fill="#696969" points="632,554.3662,636,564.3662,640,554.3662,636,558.3662" style="stroke: #696969; stroke-width: 1.0;"/><line style="stroke: #696969; stroke-width: 1.5;" x1="60" x2="60" y1="599.46" y2="776.2412"/><polygon fill="#696969" points="56,766.2412,60,776.2412,64,766.2412,60,770.2412" style="stroke: #696969; stroke-width: 1.0;"/><line style="stroke: #696969; stroke-width: 1.5;" x1="150" x2="150" y1="599.46" y2="776.2412"/><polygon fill="#696969" points="146,766.2412,150,776.2412,154,766.2412,150,770.2412" style="stroke: #696969; stroke-width: 1.0;"/><line style="stroke: #696969; stroke-width: 1.5;" x1="256.5" x2="256.5" y1="607.0068" y2="776.2412"/><polygon fill="#696969" points="252.5,766.2412,256.5,776.2412,260.5,766.2412,256.5,770.2412" style="stroke: #696969; stroke-width: 1.0;"/><line style="stroke: #696969; stroke-width: 1.5;" x1="394.5" x2="394.5" y1="614.5537" y2="776.2412"/><polygon fill="#696969" points="390.5,766.2412,394.5,776.2412,398.5,766.2412,394.5,770.2412" style="stroke: #696969; stroke-width: 1.0;"/><line style="stroke: #696969; stroke-width: 1.5;" x1="512.5" x2="512.5" y1="756.2412" y2="776.2412"/><polygon fill="#696969" points="508.5,766.2412,512.5,776.2412,516.5,766.2412,512.5,770.2412" style="stroke: #696969; stroke-width: 1.0;"/><line style="stroke: #696969; stroke-width: 1.5;" x1="636" x2="636" y1="599.46" y2="776.2412"/><polygon fill="#696969" points="632,766.2412,636,776.2412,640,766.2412,636,770.2412" style="stroke: #696969; stroke-width: 1.0;"/><line style="stroke: #696969; stroke-width: 1.5;" x1="343.5" x2="343.5" y1="361.585" y2="381.585"/><polygon fill="#696969" points="339.5,371.585,343.5,381.585,347.5,371.585,343.5,375.585" style="stroke: #696969; stroke-width: 1.0;"/><line style="stroke: #696969; stroke-width: 1.5;" x1="343.5" x2="343.5" y1="782.2412" y2="802.2412"/><polygon fill="#696969" points="339.5,792.2412,343.5,802.2412,347.5,792.2412,343.5,796.2412" style="stroke: #696969; stroke-width: 1.0;"/><line style="stroke: #696969; stroke-width: 1.5;" x1="343.5" x2="343.5" y1="837.335" y2="857.335"/><polygon fill="#696969" points="339.5,847.335,343.5,857.335,347.5,847.335,343.5,851.335" style="stroke: #696969; stroke-width: 1.0;"/><line style="stroke: #696969; stroke-width: 1.5;" x1="343.5" x2="343.5" y1="284.6563" y2="326.4912"/><polygon fill="#696969" points="339.5,316.4912,343.5,326.4912,347.5,316.4912,343.5,320.4912" style="stroke: #696969; stroke-width: 1.0;"/><text fill="#696969" font-family="sans-serif" font-size="11" lengthAdjust="spacingAndGlyphs" textLength="20" x="347.5" y="306.9922">paid</text><line style="stroke: #696969; stroke-width: 1.5;" x1="355.5" x2="695" y1="949.5225" y2="949.5225"/><polygon fill="#696969" points="691,639.5068,695,629.5068,699,639.5068,695,635.5068" style="stroke: #696969; stroke-width: 1.5;"/><line style="stroke: #696969; stroke-width: 1.5;" x1="695" x2="695" y1="272.6563" y2="949.5225"/><line style="stroke: #696969; stroke-width: 1.5;" x1="695" x2="355.5" y1="272.6563" y2="272.6563"/><polygon fill="#696969" points="365.5,268.6563,355.5,272.6563,365.5,276.6563,361.5,272.6563" style="stroke: #696969; stroke-width: 1.0;"/><line style="stroke: #696969; stroke-width: 1.5;" x1="343.5" x2="343.5" y1="917.5225" y2="937.5225"/><polygon fill="#696969" points="339.5,927.5225,343.5,937.5225,347.5,927.5225,343.5,931.5225" style="stroke: #696969; stroke-width: 1.0;"/><line style="stroke: #696969; stroke-width: 1.5;" x1="343.5" x2="343.5" y1="240.6563" y2="260.6563"/><polygon fill="#696969" points="339.5,250.6563,343.5,260.6563,347.5,250.6563,343.5,254.6563" style="stroke: #696969; stroke-width: 1.0;"/><line style="stroke: #696969; stroke-width: 1.5;" x1="343.5" x2="343.5" y1="961.5225" y2="981.5225"/><polygon fill="#696969" points="339.5,971.5225,343.5,981.5225,347.5,971.5225,343.5,975.5225" style="stroke: #696969; stroke-width: 1.0;"/><text fill="#000080" font-family="sans-serif" font-size="14" lengthAdjust="spacingAndGlyphs" textLength="42" x="10" y="1015.0557">©2019</text><a href="http://www.lifestylesunlimited.com" target="_top" xlink:actuate="onRequest" xlink:show="new" xlink:title="http://www.lifestylesunlimited.com" xlink:type="simple"><text fill="#0000FF" font-family="sans-serif" font-size="14" lengthAdjust="spacingAndGlyphs" text-decoration="underline" textLength="122" x="56" y="1015.0557">LifeStyles Unlimited</text></a><text fill="#000080" font-family="sans-serif" font-size="14" lengthAdjust="spacingAndGlyphs" textLength="131" x="182" y="1015.0557">| Generated %date%</text><!--
@startuml lead-investor-program


skinparam {
  BorderColor Red
  PathHoverColor Blue
}

skinparam Title {
  FontColor Navy
  BackgroundColor PaleGoldenRod
  BorderColor Navy
  BorderRoundCorner 20
  FontSize 24
}

skinparam activity {
  BackgroundColor Ivory
  BorderColor CornflowerBlue
  BorderThickness 1
  FontColor DimGray
  

  Arrow {
    Color dimgray
    FontColor dimgray
  }

  Start {
    Color PHYSICAL
  }

  End {
    Color Coral
  }

  Diamond {
    BackgroundColor Ivory
    BorderColor CornflowerBlue
    FontColor DarkGray
  }

  BackgroundColor<< Exception >> Red
	BorderColor<< Exception >> White
}

skinparam Swimlane {
  BorderColor CornflowerBlue 
}

skinparam Partition {
  BackgroundColor Ivory
  BorderColor CornflowerBlue
  BorderThickness 1
  FontColor CornflowerBlue
  FontSize 16
  BorderRoundCorner 20
}

skinparam Note {
  BackgroundColor LightSteelBlue
  BorderColor CornflowerBlue
  FontColor White
}

skinparam Legend {
  BackgroundColor LightSteelBlue
  BorderColor CornflowerBlue
  FontColor White
}

skinparam Footer {
  FontColor Navy
}


left header 
	<font color=Navy size=24>[[../index.svg?sanitize=true ⌂ Home]]</font>
endheader


	Title Lead Investor Program

	start

	[[preferred-investor-group-program.svg?sanitize=true]]#LightSkyBlue:preferred investor group\n- - - -\nactive membership;		
	#PHYSICAL:<&dollar> Certification Fee 10,000]

	repeat
		->paid;
		:active;
		fork
			:SEC rules]
		fork again
			:white paper]
		fork again
			:passive investor\nchecklist]
		fork again
			:lead investor\ncertification track\nclasses;
		fork again
			repeat
			:lead investor\ncertification\nstudy materials]
			:lead investor\ncertification test]
			:take test;
			repeat while (pass with 100%)->no
			:certified;
		fork again
			:<&clock> 1 year>
		end fork

		:inactive;

		#PHYSICAL:<&dollar> Annual Renewal 5,000
		- - - -
		<i>this covers the PIG Renewal]
	repeat while ()


	end


left footer 
	<font size=14>©2019 [[http://www.lifestylesunlimited.com LifeStyles Unlimited]] | Generated %date%</font>
endfooter


@enduml

PlantUML version 1.2019.06(Fri May 24 12:10:25 CDT 2019)
(GPL source distribution)
Java Runtime: Java(TM) SE Runtime Environment
JVM: Java HotSpot(TM) Client VM
Java Version: 1.8.0_211-b12
Operating System: Windows 10
OS Version: 10.0
Default Encoding: Cp1252
Language: en
Country: US
--></g></svg>