<?xml version="1.0" encoding="UTF-8" standalone="no"?><svg xmlns="http://www.w3.org/2000/svg" xmlns:xlink="http://www.w3.org/1999/xlink" contentScriptType="application/ecmascript" contentStyleType="text/css" height="794px" preserveAspectRatio="none" style="width:1272px;height:794px;" version="1.1" viewBox="0 0 1272 794" width="1272px" zoomAndPan="magnify"><defs><style type="text/css"><![CDATA[path:hover { stroke: #0000FF !important;}]]></style><filter height="300%" id="f1e2aanuxgz53h" width="300%" x="-1" y="-1"><feGaussianBlur result="blurOut" stdDeviation="2.0"/><feColorMatrix in="blurOut" result="blurOut2" type="matrix" values="0 0 0 0 0 0 0 0 0 0 0 0 0 0 0 0 0 0 .4 0"/><feOffset dx="4.0" dy="4.0" in="blurOut2" result="blurOut3"/><feBlend in="SourceGraphic" in2="blurOut3" mode="normal"/></filter></defs><g><a target="_top" xlink:actuate="onRequest" xlink:href="../index.svg?sanitize=true" xlink:show="new" xlink:title="../index.svg?sanitize=true" xlink:type="simple"><text fill="#0000FF" font-family="sans-serif" font-size="24" lengthAdjust="spacingAndGlyphs" text-decoration="underline" textLength="90" x="10" y="34.9141">⌂ Home</text><line style="stroke: #0000FF; stroke-width: 1.0;" x1="10" x2="100" y1="36.9141" y2="36.9141"/></a><rect fill="#EEE8AA" height="100.5625" rx="10" ry="10" style="stroke: #000080; stroke-width: 1.5;" width="399" x="435" y="42.1875"/><text fill="#000080" font-family="sans-serif" font-size="24" lengthAdjust="spacingAndGlyphs" textLength="330" x="469.5" y="72.1016">Preferred Investor Group (PIG)</text><text fill="#000080" font-family="sans-serif" font-size="24" lengthAdjust="spacingAndGlyphs" textLength="344" x="462.5" y="102.2891">Education &amp; Mentoring Program</text><text fill="#000080" font-family="sans-serif" font-size="24" lengthAdjust="spacingAndGlyphs" textLength="383" x="443" y="132.4766">(Single-Family and/or  Multi-Family)</text><ellipse cx="622" cy="155.75" fill="#CCFFCC" filter="url(#f1e2aanuxgz53h)" rx="10" ry="10" style="stroke: none; stroke-width: 1.0;"/><rect fill="#CCFFCC" filter="url(#f1e2aanuxgz53h)" height="35.0938" style="stroke: #6495ED; stroke-width: 1.0;" width="170" x="537" y="185.75"/><path d="M551,199.8438 L551,200.8438 L550.25,200.8438 C549.564,200.8438 549,201.4078 549,202.0938 L549,202.5938 C549,203.2718 549.437,203.8358 550.094,203.9998 L552.657,204.6558 C552.8,204.6918 553.001,204.9518 553.001,205.0938 L553.001,205.5938 C553.001,205.7278 552.885,205.8438 552.751,205.8438 L550.251,205.8438 C550.135,205.8438 550.039,205.8068 550.001,205.7808 L550.001,204.8428 L549.001,204.8428 L549.001,205.8428 C549.001,206.1848 549.204,206.4698 549.439,206.6238 C549.673,206.7788 549.957,206.8428 550.252,206.8428 L551.002,206.8428 L551.002,207.8428 L552.002,207.8428 L552.002,206.8428 L552.752,206.8428 C553.438,206.8428 554.002,206.2788 554.002,205.5928 L554.002,205.0928 C554.002,204.4148 553.565,203.8508 552.908,203.6868 L550.345,203.0308 C550.202,202.9948 550.001,202.7348 550.001,202.5928 L550.001,202.0928 C550.001,201.9588 550.117,201.8428 550.251,201.8428 L552.751,201.8428 C552.867,201.8428 552.963,201.8798 553.001,201.9058 L553.001,202.8438 L554.001,202.8438 L554.001,201.8438 C554.001,201.5018 553.798,201.2168 553.563,201.0628 C553.329,200.9078 553.045,200.8438 552.75,200.8438 L552,200.8438 L552,199.8438 L551,199.8438 " fill="#696969" style="stroke: ; stroke-width: 0.0; stroke-dasharray: ;"/><text fill="#696969" font-family="sans-serif" font-size="12" lengthAdjust="spacingAndGlyphs" textLength="137" x="560" y="208.207">Commitment Fee 18,000</text><rect fill="#CCFFCC" filter="url(#f1e2aanuxgz53h)" height="35.0938" style="stroke: #6495ED; stroke-width: 1.0;" width="175" x="534.5" y="289.7617"/><path d="M548.5,303.8555 L548.5,304.8555 L547.75,304.8555 C547.064,304.8555 546.5,305.4195 546.5,306.1055 L546.5,306.6055 C546.5,307.2835 546.937,307.8475 547.594,308.0115 L550.157,308.6675 C550.3,308.7035 550.501,308.9635 550.501,309.1055 L550.501,309.6055 C550.501,309.7395 550.385,309.8555 550.251,309.8555 L547.751,309.8555 C547.635,309.8555 547.539,309.8185 547.501,309.7925 L547.501,308.8545 L546.501,308.8545 L546.501,309.8545 C546.501,310.1965 546.704,310.4815 546.939,310.6355 C547.173,310.7905 547.457,310.8545 547.752,310.8545 L548.502,310.8545 L548.502,311.8545 L549.502,311.8545 L549.502,310.8545 L550.252,310.8545 C550.938,310.8545 551.502,310.2905 551.502,309.6045 L551.502,309.1045 C551.502,308.4265 551.065,307.8625 550.408,307.6985 L547.845,307.0425 C547.702,307.0065 547.501,306.7465 547.501,306.6045 L547.501,306.1045 C547.501,305.9705 547.617,305.8545 547.751,305.8545 L550.251,305.8545 C550.367,305.8545 550.463,305.8915 550.501,305.9175 L550.501,306.8555 L551.501,306.8555 L551.501,305.8555 C551.501,305.5135 551.298,305.2285 551.063,305.0745 C550.829,304.9195 550.545,304.8555 550.25,304.8555 L549.5,304.8555 L549.5,303.8555 L548.5,303.8555 " fill="#696969" style="stroke: ; stroke-width: 0.0; stroke-dasharray: ;"/><text fill="#696969" font-family="sans-serif" font-size="12" lengthAdjust="spacingAndGlyphs" textLength="142" x="557.5" y="312.2188">Challenge Refund (7,000)</text><polygon fill="#FFFFF0" filter="url(#f1e2aanuxgz53h)" points="578.5,240.8438,665.5,240.8438,677.5,252.8438,665.5,264.8438,578.5,264.8438,566.5,252.8438,578.5,240.8438" style="stroke: #6495ED; stroke-width: 1.0;"/><text fill="#696969" font-family="sans-serif" font-size="11" lengthAdjust="spacingAndGlyphs" textLength="18" x="626" y="276.2627">yes</text><text fill="#A9A9A9" font-family="sans-serif" font-size="11" lengthAdjust="spacingAndGlyphs" textLength="87" x="578.5" y="257.3447">challenge member</text><text fill="#696969" font-family="sans-serif" font-size="11" lengthAdjust="spacingAndGlyphs" textLength="12" x="677.5" y="250.4268">no</text><polygon fill="#FFFFF0" filter="url(#f1e2aanuxgz53h)" points="622,344.8555,634,356.8555,622,368.8555,610,356.8555,622,344.8555" style="stroke: #6495ED; stroke-width: 1.0;"/><rect fill="#FFFFF0" filter="url(#f1e2aanuxgz53h)" height="35.0938" rx="12.5" ry="12.5" style="stroke: #6495ED; stroke-width: 1.0;" width="51" x="596.5" y="454.6904"/><text fill="#696969" font-family="sans-serif" font-size="12" lengthAdjust="spacingAndGlyphs" textLength="31" x="606.5" y="477.1475">active</text><rect fill="#000000" filter="url(#f1e2aanuxgz53h)" height="6" rx="2.5" ry="2.5" style="stroke: #000000; stroke-width: 1.0;" width="1224" x="10" y="509.7842"/><a target="_top" xlink:actuate="onRequest" xlink:href="../single-family/challenge-program.svg?sanitize=true" xlink:show="new" xlink:title="../single-family/challenge-program.svg?sanitize=true" xlink:type="simple"><rect fill="#87CEFA" filter="url(#f1e2aanuxgz53h)" height="50.1875" rx="12.5" ry="12.5" style="stroke: #6495ED; stroke-width: 1.0;" width="124" x="24" y="535.7842"/><text fill="#696969" font-family="sans-serif" font-size="12" lengthAdjust="spacingAndGlyphs" textLength="104" x="34" y="558.2412">challenge program</text><text fill="#696969" font-family="sans-serif" font-size="12" lengthAdjust="spacingAndGlyphs" textLength="44" x="34" y="573.335">benefits</text></a><rect fill="#FFFFF0" filter="url(#f1e2aanuxgz53h)" height="50.1875" rx="12.5" ry="12.5" style="stroke: #6495ED; stroke-width: 1.0;" width="116" x="176" y="535.7842"/><text fill="#696969" font-family="sans-serif" font-size="12" lengthAdjust="spacingAndGlyphs" textLength="71" x="186" y="558.2412">personalized</text><text fill="#696969" font-family="sans-serif" font-size="12" lengthAdjust="spacingAndGlyphs" textLength="96" x="186" y="573.335">planning session</text><rect fill="#FFFFF0" filter="url(#f1e2aanuxgz53h)" height="50.1875" rx="12.5" ry="12.5" style="stroke: #6495ED; stroke-width: 1.0;" width="116" x="320" y="535.7842"/><text fill="#696969" font-family="sans-serif" font-size="12" lengthAdjust="spacingAndGlyphs" textLength="63" x="330" y="558.2412">multi-family</text><text fill="#696969" font-family="sans-serif" font-size="12" lengthAdjust="spacingAndGlyphs" textLength="96" x="330" y="573.335">1-on-1 consulting</text><rect fill="#FFFFF0" filter="url(#f1e2aanuxgz53h)" height="50.1875" rx="12.5" ry="12.5" style="stroke: #6495ED; stroke-width: 1.0;" width="83" x="464" y="535.7842"/><text fill="#696969" font-family="sans-serif" font-size="12" lengthAdjust="spacingAndGlyphs" textLength="63" x="474" y="558.2412">multi-family</text><text fill="#696969" font-family="sans-serif" font-size="12" lengthAdjust="spacingAndGlyphs" textLength="42" x="474" y="573.335">realtors</text><rect fill="#FFFFF0" filter="url(#f1e2aanuxgz53h)" height="50.1875" rx="12.5" ry="12.5" style="stroke: #6495ED; stroke-width: 1.0;" width="83" x="575" y="535.7842"/><text fill="#696969" font-family="sans-serif" font-size="12" lengthAdjust="spacingAndGlyphs" textLength="63" x="585" y="558.2412">multi-family</text><text fill="#696969" font-family="sans-serif" font-size="12" lengthAdjust="spacingAndGlyphs" textLength="52" x="585" y="573.335">road trips</text><rect fill="#FFFFF0" filter="url(#f1e2aanuxgz53h)" height="50.1875" style="stroke: #6495ED; stroke-width: 1.0;" width="139" x="686" y="535.7842"/><text fill="#696969" font-family="sans-serif" font-size="12" lengthAdjust="spacingAndGlyphs" textLength="63" x="696" y="558.2412">multi-family</text><text fill="#696969" font-family="sans-serif" font-size="12" lengthAdjust="spacingAndGlyphs" textLength="119" x="696" y="573.335">specialized education</text><rect fill="#FFFFF0" filter="url(#f1e2aanuxgz53h)" height="50.1875" rx="12.5" ry="12.5" style="stroke: #6495ED; stroke-width: 1.0;" width="126" x="853" y="535.7842"/><text fill="#696969" font-family="sans-serif" font-size="12" lengthAdjust="spacingAndGlyphs" textLength="63" x="863" y="558.2412">multi-family</text><text fill="#696969" font-family="sans-serif" font-size="12" lengthAdjust="spacingAndGlyphs" textLength="106" x="863" y="573.335">operator consultant</text><rect fill="#FFFFF0" filter="url(#f1e2aanuxgz53h)" height="50.1875" rx="12.5" ry="12.5" style="stroke: #6495ED; stroke-width: 1.0;" width="119" x="1007" y="535.7842"/><text fill="#696969" font-family="sans-serif" font-size="12" lengthAdjust="spacingAndGlyphs" textLength="96" x="1017" y="558.2412">preferred investor</text><text fill="#696969" font-family="sans-serif" font-size="12" lengthAdjust="spacingAndGlyphs" textLength="99" x="1017" y="573.335">networking events</text><polygon fill="#FFFFF0" filter="url(#f1e2aanuxgz53h)" points="1154,543.3311,1220,543.3311,1230,560.8779,1220,578.4248,1154,578.4248" style="stroke: #6495ED; stroke-width: 1.0;"/><path d="M1169,557.4248 C1166.797,557.4248 1165,559.2218 1165,561.4248 C1165,563.6278 1166.797,565.4248 1169,565.4248 C1171.203,565.4248 1173,563.6278 1173,561.4248 C1173,559.2218 1171.203,557.4248 1169,557.4248 M1169,558.4248 C1170.663,558.4248 1172,559.7618 1172,561.4248 C1172,563.0878 1170.663,564.4248 1169,564.4248 C1167.337,564.4248 1166,563.0878 1166,561.4248 C1166,559.7618 1167.337,558.4248 1169,558.4248 M1168.5,559.4248 L1168.5,561.6438 L1168.656,561.7688 L1169.156,562.2688 L1169.5,562.6438 L1170.219,561.9248 L1169.844,561.5808 L1169.5,561.2368 L1169.5,559.4238 L1168.5,559.4238 " fill="#696969" style="stroke: ; stroke-width: 0.0; stroke-dasharray: ;"/><text fill="#696969" font-family="sans-serif" font-size="12" lengthAdjust="spacingAndGlyphs" textLength="33" x="1177" y="565.7881">1 year</text><rect fill="#000000" filter="url(#f1e2aanuxgz53h)" height="6" rx="2.5" ry="2.5" style="stroke: #000000; stroke-width: 1.0;" width="1224" x="10" y="605.9717"/><rect fill="#FFFFF0" filter="url(#f1e2aanuxgz53h)" height="35.0938" rx="12.5" ry="12.5" style="stroke: #6495ED; stroke-width: 1.0;" width="61" x="591.5" y="631.9717"/><text fill="#696969" font-family="sans-serif" font-size="12" lengthAdjust="spacingAndGlyphs" textLength="41" x="601.5" y="654.4287">inactive</text><rect fill="#CCFFCC" filter="url(#f1e2aanuxgz53h)" height="35.0938" style="stroke: #6495ED; stroke-width: 1.0;" width="157" x="543.5" y="687.0654"/><path d="M557.5,701.1592 L557.5,702.1592 L556.75,702.1592 C556.064,702.1592 555.5,702.7232 555.5,703.4092 L555.5,703.9092 C555.5,704.5872 555.937,705.1512 556.594,705.3152 L559.157,705.9712 C559.3,706.0072 559.501,706.2672 559.501,706.4092 L559.501,706.9092 C559.501,707.0432 559.385,707.1592 559.251,707.1592 L556.751,707.1592 C556.635,707.1592 556.539,707.1222 556.501,707.0962 L556.501,706.1582 L555.501,706.1582 L555.501,707.1582 C555.501,707.5002 555.704,707.7852 555.939,707.9392 C556.173,708.0942 556.457,708.1582 556.752,708.1582 L557.502,708.1582 L557.502,709.1582 L558.502,709.1582 L558.502,708.1582 L559.252,708.1582 C559.938,708.1582 560.502,707.5942 560.502,706.9082 L560.502,706.4082 C560.502,705.7302 560.065,705.1662 559.408,705.0022 L556.845,704.3462 C556.702,704.3102 556.501,704.0502 556.501,703.9082 L556.501,703.4082 C556.501,703.2742 556.617,703.1582 556.751,703.1582 L559.251,703.1582 C559.367,703.1582 559.463,703.1952 559.501,703.2212 L559.501,704.1592 L560.501,704.1592 L560.501,703.1592 C560.501,702.8172 560.298,702.5322 560.063,702.3782 C559.829,702.2232 559.545,702.1592 559.25,702.1592 L558.5,702.1592 L558.5,701.1592 L557.5,701.1592 " fill="#696969" style="stroke: ; stroke-width: 0.0; stroke-dasharray: ;"/><text fill="#696969" font-family="sans-serif" font-size="12" lengthAdjust="spacingAndGlyphs" textLength="124" x="566.5" y="709.5225">Annual Renewal 3,000</text><polygon fill="#FFFFF0" filter="url(#f1e2aanuxgz53h)" points="622,388.8555,634,400.8555,622,412.8555,610,400.8555,622,388.8555" style="stroke: #6495ED; stroke-width: 1.0;"/><polygon fill="#FFFFF0" filter="url(#f1e2aanuxgz53h)" points="610,742.1592,634,742.1592,646,754.1592,634,766.1592,610,766.1592,598,754.1592,610,742.1592" style="stroke: #6495ED; stroke-width: 1.0;"/><path d="M623.8333,750.4925 L623.8333,751.4092 L619.25,751.4092 C618.7422,751.4092 618.3333,751.818 618.3333,752.3258 L618.3333,753.2425 L619.25,753.2425 L619.25,752.3258 L623.8333,752.3258 L623.8333,753.2425 L625.6667,751.8675 L623.8333,750.4925 M620.1667,754.1592 L618.3333,755.5342 L620.1667,756.9092 L620.1667,755.9925 L624.75,755.9925 C625.2468,755.9925 625.6667,755.5727 625.6667,755.0758 L625.6667,754.1592 L624.75,754.1592 L624.75,755.0758 L620.1667,755.0758 L620.1667,754.1592 " fill="#A9A9A9" style="stroke: ; stroke-width: 0.0; stroke-dasharray: ;"/><line style="stroke: #696969; stroke-width: 1.5;" x1="622" x2="622" y1="165.75" y2="185.75"/><polygon fill="#696969" points="618,175.75,622,185.75,626,175.75,622,179.75" style="stroke: #696969; stroke-width: 1.0;"/><line style="stroke: #696969; stroke-width: 1.5;" x1="622" x2="622" y1="264.8438" y2="289.7617"/><polygon fill="#696969" points="618,279.7617,622,289.7617,626,279.7617,622,283.7617" style="stroke: #696969; stroke-width: 1.0;"/><line style="stroke: #696969; stroke-width: 1.5;" x1="677.5" x2="719.5" y1="252.8438" y2="252.8438"/><polygon fill="#696969" points="715.5,297.3086,719.5,307.3086,723.5,297.3086,719.5,301.3086" style="stroke: #696969; stroke-width: 1.5;"/><line style="stroke: #696969; stroke-width: 1.5;" x1="719.5" x2="719.5" y1="252.8438" y2="356.8555"/><line style="stroke: #696969; stroke-width: 1.5;" x1="719.5" x2="634" y1="356.8555" y2="356.8555"/><polygon fill="#696969" points="644,352.8555,634,356.8555,644,360.8555,640,356.8555" style="stroke: #696969; stroke-width: 1.0;"/><line style="stroke: #696969; stroke-width: 1.5;" x1="622" x2="622" y1="324.8555" y2="344.8555"/><polygon fill="#696969" points="618,334.8555,622,344.8555,626,334.8555,622,338.8555" style="stroke: #696969; stroke-width: 1.0;"/><line style="stroke: #696969; stroke-width: 1.5;" x1="622" x2="622" y1="220.8438" y2="240.8438"/><polygon fill="#696969" points="618,230.8438,622,240.8438,626,230.8438,622,234.8438" style="stroke: #696969; stroke-width: 1.0;"/><line style="stroke: #696969; stroke-width: 1.5;" x1="86" x2="86" y1="515.7842" y2="535.7842"/><polygon fill="#696969" points="82,525.7842,86,535.7842,90,525.7842,86,529.7842" style="stroke: #696969; stroke-width: 1.0;"/><line style="stroke: #696969; stroke-width: 1.5;" x1="234" x2="234" y1="515.7842" y2="535.7842"/><polygon fill="#696969" points="230,525.7842,234,535.7842,238,525.7842,234,529.7842" style="stroke: #696969; stroke-width: 1.0;"/><line style="stroke: #696969; stroke-width: 1.5;" x1="378" x2="378" y1="515.7842" y2="535.7842"/><polygon fill="#696969" points="374,525.7842,378,535.7842,382,525.7842,378,529.7842" style="stroke: #696969; stroke-width: 1.0;"/><line style="stroke: #696969; stroke-width: 1.5;" x1="505.5" x2="505.5" y1="515.7842" y2="535.7842"/><polygon fill="#696969" points="501.5,525.7842,505.5,535.7842,509.5,525.7842,505.5,529.7842" style="stroke: #696969; stroke-width: 1.0;"/><line style="stroke: #696969; stroke-width: 1.5;" x1="616.5" x2="616.5" y1="515.7842" y2="535.7842"/><polygon fill="#696969" points="612.5,525.7842,616.5,535.7842,620.5,525.7842,616.5,529.7842" style="stroke: #696969; stroke-width: 1.0;"/><line style="stroke: #696969; stroke-width: 1.5;" x1="755.5" x2="755.5" y1="515.7842" y2="535.7842"/><polygon fill="#696969" points="751.5,525.7842,755.5,535.7842,759.5,525.7842,755.5,529.7842" style="stroke: #696969; stroke-width: 1.0;"/><line style="stroke: #696969; stroke-width: 1.5;" x1="916" x2="916" y1="515.7842" y2="535.7842"/><polygon fill="#696969" points="912,525.7842,916,535.7842,920,525.7842,916,529.7842" style="stroke: #696969; stroke-width: 1.0;"/><line style="stroke: #696969; stroke-width: 1.5;" x1="1066.5" x2="1066.5" y1="515.7842" y2="535.7842"/><polygon fill="#696969" points="1062.5,525.7842,1066.5,535.7842,1070.5,525.7842,1066.5,529.7842" style="stroke: #696969; stroke-width: 1.0;"/><line style="stroke: #696969; stroke-width: 1.5;" x1="1187" x2="1187" y1="515.7842" y2="543.3311"/><polygon fill="#696969" points="1183,533.3311,1187,543.3311,1191,533.3311,1187,537.3311" style="stroke: #696969; stroke-width: 1.0;"/><line style="stroke: #696969; stroke-width: 1.5;" x1="86" x2="86" y1="585.9717" y2="605.9717"/><polygon fill="#696969" points="82,595.9717,86,605.9717,90,595.9717,86,599.9717" style="stroke: #696969; stroke-width: 1.0;"/><line style="stroke: #696969; stroke-width: 1.5;" x1="234" x2="234" y1="585.9717" y2="605.9717"/><polygon fill="#696969" points="230,595.9717,234,605.9717,238,595.9717,234,599.9717" style="stroke: #696969; stroke-width: 1.0;"/><line style="stroke: #696969; stroke-width: 1.5;" x1="378" x2="378" y1="585.9717" y2="605.9717"/><polygon fill="#696969" points="374,595.9717,378,605.9717,382,595.9717,378,599.9717" style="stroke: #696969; stroke-width: 1.0;"/><line style="stroke: #696969; stroke-width: 1.5;" x1="505.5" x2="505.5" y1="585.9717" y2="605.9717"/><polygon fill="#696969" points="501.5,595.9717,505.5,605.9717,509.5,595.9717,505.5,599.9717" style="stroke: #696969; stroke-width: 1.0;"/><line style="stroke: #696969; stroke-width: 1.5;" x1="616.5" x2="616.5" y1="585.9717" y2="605.9717"/><polygon fill="#696969" points="612.5,595.9717,616.5,605.9717,620.5,595.9717,616.5,599.9717" style="stroke: #696969; stroke-width: 1.0;"/><line style="stroke: #696969; stroke-width: 1.5;" x1="755.5" x2="755.5" y1="585.9717" y2="605.9717"/><polygon fill="#696969" points="751.5,595.9717,755.5,605.9717,759.5,595.9717,755.5,599.9717" style="stroke: #696969; stroke-width: 1.0;"/><line style="stroke: #696969; stroke-width: 1.5;" x1="916" x2="916" y1="585.9717" y2="605.9717"/><polygon fill="#696969" points="912,595.9717,916,605.9717,920,595.9717,916,599.9717" style="stroke: #696969; stroke-width: 1.0;"/><line style="stroke: #696969; stroke-width: 1.5;" x1="1066.5" x2="1066.5" y1="585.9717" y2="605.9717"/><polygon fill="#696969" points="1062.5,595.9717,1066.5,605.9717,1070.5,595.9717,1066.5,599.9717" style="stroke: #696969; stroke-width: 1.0;"/><line style="stroke: #696969; stroke-width: 1.5;" x1="1187" x2="1187" y1="578.4248" y2="605.9717"/><polygon fill="#696969" points="1183,595.9717,1187,605.9717,1191,595.9717,1187,599.9717" style="stroke: #696969; stroke-width: 1.0;"/><line style="stroke: #696969; stroke-width: 1.5;" x1="622" x2="622" y1="489.7842" y2="509.7842"/><polygon fill="#696969" points="618,499.7842,622,509.7842,626,499.7842,622,503.7842" style="stroke: #696969; stroke-width: 1.0;"/><line style="stroke: #696969; stroke-width: 1.5;" x1="622" x2="622" y1="611.9717" y2="631.9717"/><polygon fill="#696969" points="618,621.9717,622,631.9717,626,621.9717,622,625.9717" style="stroke: #696969; stroke-width: 1.0;"/><line style="stroke: #696969; stroke-width: 1.5;" x1="622" x2="622" y1="667.0654" y2="687.0654"/><polygon fill="#696969" points="618,677.0654,622,687.0654,626,677.0654,622,681.0654" style="stroke: #696969; stroke-width: 1.0;"/><line style="stroke: #696969; stroke-width: 1.5;" x1="622" x2="622" y1="412.8555" y2="454.6904"/><polygon fill="#696969" points="618,444.6904,622,454.6904,626,444.6904,622,448.6904" style="stroke: #696969; stroke-width: 1.0;"/><text fill="#696969" font-family="sans-serif" font-size="11" lengthAdjust="spacingAndGlyphs" textLength="20" x="626" y="435.1914">paid</text><line style="stroke: #696969; stroke-width: 1.5;" x1="646" x2="1246" y1="754.1592" y2="754.1592"/><polygon fill="#696969" points="1242,605.9248,1246,595.9248,1250,605.9248,1246,601.9248" style="stroke: #696969; stroke-width: 1.5;"/><line style="stroke: #696969; stroke-width: 1.5;" x1="1246" x2="1246" y1="400.8555" y2="754.1592"/><line style="stroke: #696969; stroke-width: 1.5;" x1="1246" x2="634" y1="400.8555" y2="400.8555"/><polygon fill="#696969" points="644,396.8555,634,400.8555,644,404.8555,640,400.8555" style="stroke: #696969; stroke-width: 1.0;"/><line style="stroke: #696969; stroke-width: 1.5;" x1="622" x2="622" y1="722.1592" y2="742.1592"/><polygon fill="#696969" points="618,732.1592,622,742.1592,626,732.1592,622,736.1592" style="stroke: #696969; stroke-width: 1.0;"/><line style="stroke: #696969; stroke-width: 1.5;" x1="622" x2="622" y1="368.8555" y2="388.8555"/><polygon fill="#696969" points="618,378.8555,622,388.8555,626,378.8555,622,382.8555" style="stroke: #696969; stroke-width: 1.0;"/><text fill="#000080" font-family="sans-serif" font-size="14" lengthAdjust="spacingAndGlyphs" textLength="42" x="10" y="780.6924">©2019</text><a target="_top" xlink:actuate="onRequest" xlink:href="http://www.lifestylesunlimited.com" xlink:show="new" xlink:title="http://www.lifestylesunlimited.com" xlink:type="simple"><text fill="#0000FF" font-family="sans-serif" font-size="14" lengthAdjust="spacingAndGlyphs" text-decoration="underline" textLength="122" x="56" y="780.6924">LifeStyles Unlimited</text><line style="stroke: #0000FF; stroke-width: 1.0;" x1="56" x2="178" y1="782.6924" y2="782.6924"/></a><text fill="#000080" font-family="sans-serif" font-size="14" lengthAdjust="spacingAndGlyphs" textLength="283" x="182" y="780.6924">| Generated Sun May 12 17:24:17 CDT 2019</text><!--
@startuml preferred-investor-group-program


skinparam {
  BorderColor Red
  PathHoverColor Blue
}

skinparam Title {
  FontColor Navy
  BackgroundColor PaleGoldenRod
  BorderColor Navy
  BorderRoundCorner 20
  FontSize 24
}

skinparam activity {
  BackgroundColor Ivory
  BorderColor CornflowerBlue
  BorderThickness 1
  FontColor DimGray
  

  Arrow {
    Color dimgray
    FontColor dimgray
  }

  Start {
    Color PHYSICAL
  }

  End {
    Color Coral
  }

  Diamond {
    BackgroundColor Ivory
    BorderColor CornflowerBlue
    FontColor DarkGray
  }

  BackgroundColor<< Exception >> Red
	BorderColor<< Exception >> White
}

skinparam Swimlane {
  BorderColor CornflowerBlue 
}

skinparam Partition {
  BackgroundColor Ivory
  BorderColor CornflowerBlue
  BorderThickness 1
  FontColor CornflowerBlue
  FontSize 16
  BorderRoundCorner 20
}

skinparam Note {
  BackgroundColor LightSteelBlue
  BorderColor CornflowerBlue
  FontColor White
}

skinparam Legend {
  BackgroundColor LightSteelBlue
  BorderColor CornflowerBlue
  FontColor White
}

skinparam Footer {
  FontColor Navy
}


left header 
	<font color=Navy size=24>[[../index.svg?sanitize=true ⌂ Home]]</font>
endheader


	Title Preferred Investor Group (PIG)\nEducation & Mentoring Program\n(Single-Family and/or  Multi-Family)

	start

	#PHYSICAL:<&dollar> Commitment Fee 18,000]
	if(challenge member) then (yes)
		#PHYSICAL:<&dollar> Challenge Refund (7,000)]
	else (no)
	endif

	repeat
		->paid;
		:active;
		fork
			[[../single-family/challenge-program.svg?sanitize=true]]#LightSkyBlue:challenge program\nbenefits;
		fork again
			:personalized\nplanning session;
		fork again
			:multi-family\n1-on-1 consulting;
		fork again
			:multi-family\nrealtors;
		fork again
			:multi-family\nroad trips;
		fork again
			:multi-family\nspecialized education]
		fork again
			:multi-family\noperator consultant;
		fork again
			:preferred investor\nnetworking events;
		fork again
		:<&clock> 1 year>
		end fork
		:inactive;

		#PHYSICAL:<&dollar> Annual Renewal 3,000]
	repeat while (<&loop>)


left footer 
	<font size=14>©2019 [[http://www.lifestylesunlimited.com LifeStyles Unlimited]] | Generated Sun May 12 17:24:17 CDT 2019</font>
endfooter


@enduml

PlantUML version 1.2019.03(Sun Mar 10 06:04:44 CDT 2019)
(GPL source distribution)
Java Runtime: Java(TM) SE Runtime Environment
JVM: Java HotSpot(TM) 64-Bit Server VM
Java Version: 1.8.0_111-b14
Operating System: Windows 10
OS Version: 10.0
Default Encoding: Cp1252
Language: en
Country: US
--></g></svg>