<?xml version="1.0" encoding="UTF-8" standalone="no"?><svg xmlns="http://www.w3.org/2000/svg" xmlns:xlink="http://www.w3.org/1999/xlink" contentScriptType="application/ecmascript" contentStyleType="text/css" height="794px" preserveAspectRatio="none" style="width:1162px;height:794px;" version="1.1" viewBox="0 0 1162 794" width="1162px" zoomAndPan="magnify"><defs><style type="text/css"><![CDATA[path:hover { stroke: #0000FF !important;}]]></style><filter height="300%" id="f2z6uxch4qu5o" width="300%" x="-1" y="-1"><feGaussianBlur result="blurOut" stdDeviation="2.0"/><feColorMatrix in="blurOut" result="blurOut2" type="matrix" values="0 0 0 0 0 0 0 0 0 0 0 0 0 0 0 0 0 0 .4 0"/><feOffset dx="4.0" dy="4.0" in="blurOut2" result="blurOut3"/><feBlend in="SourceGraphic" in2="blurOut3" mode="normal"/></filter></defs><g><a href="../index.svg?sanitize=true" target="_top" xlink:actuate="onRequest" xlink:show="new" xlink:title="../index.svg?sanitize=true" xlink:type="simple"><text fill="#0000FF" font-family="sans-serif" font-size="24" lengthAdjust="spacingAndGlyphs" text-decoration="underline" textLength="90" x="10" y="34.9141">⌂ Home</text></a><rect fill="#EEE8AA" height="100.5625" rx="10" ry="10" style="stroke: #000080; stroke-width: 1.5;" width="399" x="380" y="42.1875"/><text fill="#000080" font-family="sans-serif" font-size="24" lengthAdjust="spacingAndGlyphs" textLength="330" x="414.5" y="72.1016">Preferred Investor Group (PIG)</text><text fill="#000080" font-family="sans-serif" font-size="24" lengthAdjust="spacingAndGlyphs" textLength="344" x="407.5" y="102.2891">Education &amp; Mentoring Program</text><text fill="#000080" font-family="sans-serif" font-size="24" lengthAdjust="spacingAndGlyphs" textLength="383" x="388" y="132.4766">(Single-Family and/or  Multi-Family)</text><ellipse cx="566" cy="155.75" fill="#CCFFCC" filter="url(#f2z6uxch4qu5o)" rx="10" ry="10" style="stroke: none; stroke-width: 1.0;"/><rect fill="#CCFFCC" filter="url(#f2z6uxch4qu5o)" height="35.0938" style="stroke: #6495ED; stroke-width: 1.0;" width="170" x="481" y="185.75"/><path d="M495,199.8438 L495,200.8438 L494.25,200.8438 C493.564,200.8438 493,201.4078 493,202.0938 L493,202.5938 C493,203.2718 493.437,203.8358 494.094,203.9998 L496.657,204.6558 C496.8,204.6918 497.001,204.9518 497.001,205.0938 L497.001,205.5938 C497.001,205.7278 496.885,205.8438 496.751,205.8438 L494.251,205.8438 C494.135,205.8438 494.039,205.8068 494.001,205.7808 L494.001,204.8428 L493.001,204.8428 L493.001,205.8428 C493.001,206.1848 493.204,206.4698 493.439,206.6238 C493.673,206.7788 493.957,206.8428 494.252,206.8428 L495.002,206.8428 L495.002,207.8428 L496.002,207.8428 L496.002,206.8428 L496.752,206.8428 C497.438,206.8428 498.002,206.2788 498.002,205.5928 L498.002,205.0928 C498.002,204.4148 497.565,203.8508 496.908,203.6868 L494.345,203.0308 C494.202,202.9948 494.001,202.7348 494.001,202.5928 L494.001,202.0928 C494.001,201.9588 494.117,201.8428 494.251,201.8428 L496.751,201.8428 C496.867,201.8428 496.963,201.8798 497.001,201.9058 L497.001,202.8438 L498.001,202.8438 L498.001,201.8438 C498.001,201.5018 497.798,201.2168 497.563,201.0628 C497.329,200.9078 497.045,200.8438 496.75,200.8438 L496,200.8438 L496,199.8438 L495,199.8438 " fill="#696969" style="stroke: ; stroke-width: 0.0; stroke-dasharray: ;"/><text fill="#696969" font-family="sans-serif" font-size="12" lengthAdjust="spacingAndGlyphs" textLength="137" x="504" y="208.207">Commitment Fee 18,000</text><rect fill="#CCFFCC" filter="url(#f2z6uxch4qu5o)" height="35.0938" style="stroke: #6495ED; stroke-width: 1.0;" width="175" x="478.5" y="289.7617"/><path d="M492.5,303.8555 L492.5,304.8555 L491.75,304.8555 C491.064,304.8555 490.5,305.4195 490.5,306.1055 L490.5,306.6055 C490.5,307.2835 490.937,307.8475 491.594,308.0115 L494.157,308.6675 C494.3,308.7035 494.501,308.9635 494.501,309.1055 L494.501,309.6055 C494.501,309.7395 494.385,309.8555 494.251,309.8555 L491.751,309.8555 C491.635,309.8555 491.539,309.8185 491.501,309.7925 L491.501,308.8545 L490.501,308.8545 L490.501,309.8545 C490.501,310.1965 490.704,310.4815 490.939,310.6355 C491.173,310.7905 491.457,310.8545 491.752,310.8545 L492.502,310.8545 L492.502,311.8545 L493.502,311.8545 L493.502,310.8545 L494.252,310.8545 C494.938,310.8545 495.502,310.2905 495.502,309.6045 L495.502,309.1045 C495.502,308.4265 495.065,307.8625 494.408,307.6985 L491.845,307.0425 C491.702,307.0065 491.501,306.7465 491.501,306.6045 L491.501,306.1045 C491.501,305.9705 491.617,305.8545 491.751,305.8545 L494.251,305.8545 C494.367,305.8545 494.463,305.8915 494.501,305.9175 L494.501,306.8555 L495.501,306.8555 L495.501,305.8555 C495.501,305.5135 495.298,305.2285 495.063,305.0745 C494.829,304.9195 494.545,304.8555 494.25,304.8555 L493.5,304.8555 L493.5,303.8555 L492.5,303.8555 " fill="#696969" style="stroke: ; stroke-width: 0.0; stroke-dasharray: ;"/><text fill="#696969" font-family="sans-serif" font-size="12" lengthAdjust="spacingAndGlyphs" textLength="142" x="501.5" y="312.2188">Challenge Refund (7,000)</text><polygon fill="#FFFFF0" filter="url(#f2z6uxch4qu5o)" points="522.5,240.8438,609.5,240.8438,621.5,252.8438,609.5,264.8438,522.5,264.8438,510.5,252.8438,522.5,240.8438" style="stroke: #6495ED; stroke-width: 1.0;"/><text fill="#696969" font-family="sans-serif" font-size="11" lengthAdjust="spacingAndGlyphs" textLength="18" x="570" y="276.2627">yes</text><text fill="#A9A9A9" font-family="sans-serif" font-size="11" lengthAdjust="spacingAndGlyphs" textLength="87" x="522.5" y="257.3447">challenge member</text><text fill="#696969" font-family="sans-serif" font-size="11" lengthAdjust="spacingAndGlyphs" textLength="12" x="621.5" y="250.4268">no</text><polygon fill="#FFFFF0" filter="url(#f2z6uxch4qu5o)" points="566,344.8555,578,356.8555,566,368.8555,554,356.8555,566,344.8555" style="stroke: #6495ED; stroke-width: 1.0;"/><rect fill="#FFFFF0" filter="url(#f2z6uxch4qu5o)" height="35.0938" rx="12.5" ry="12.5" style="stroke: #6495ED; stroke-width: 1.0;" width="51" x="540.5" y="454.6904"/><text fill="#696969" font-family="sans-serif" font-size="12" lengthAdjust="spacingAndGlyphs" textLength="31" x="550.5" y="477.1475">active</text><rect fill="#000000" filter="url(#f2z6uxch4qu5o)" height="6" rx="2.5" ry="2.5" style="stroke: #000000; stroke-width: 1.0;" width="1114" x="10" y="509.7842"/><a href="../single-family/challenge-program.svg?sanitize=true" target="_top" xlink:actuate="onRequest" xlink:show="new" xlink:title="../single-family/challenge-program.svg?sanitize=true" xlink:type="simple"><rect fill="#87CEFA" filter="url(#f2z6uxch4qu5o)" height="50.1875" rx="12.5" ry="12.5" style="stroke: #6495ED; stroke-width: 1.0;" width="124" x="22" y="535.7842"/><text fill="#696969" font-family="sans-serif" font-size="12" lengthAdjust="spacingAndGlyphs" textLength="104" x="32" y="558.2412">challenge program</text><text fill="#696969" font-family="sans-serif" font-size="12" lengthAdjust="spacingAndGlyphs" textLength="44" x="32" y="573.335">benefits</text></a><rect fill="#FFFFF0" filter="url(#f2z6uxch4qu5o)" height="50.1875" rx="12.5" ry="12.5" style="stroke: #6495ED; stroke-width: 1.0;" width="116" x="156" y="535.7842"/><text fill="#696969" font-family="sans-serif" font-size="12" lengthAdjust="spacingAndGlyphs" textLength="71" x="166" y="558.2412">personalized</text><text fill="#696969" font-family="sans-serif" font-size="12" lengthAdjust="spacingAndGlyphs" textLength="96" x="166" y="573.335">planning session</text><rect fill="#FFFFF0" filter="url(#f2z6uxch4qu5o)" height="50.1875" rx="12.5" ry="12.5" style="stroke: #6495ED; stroke-width: 1.0;" width="116" x="282" y="535.7842"/><text fill="#696969" font-family="sans-serif" font-size="12" lengthAdjust="spacingAndGlyphs" textLength="63" x="292" y="558.2412">multi-family</text><text fill="#696969" font-family="sans-serif" font-size="12" lengthAdjust="spacingAndGlyphs" textLength="96" x="292" y="573.335">1-on-1 consulting</text><rect fill="#FFFFF0" filter="url(#f2z6uxch4qu5o)" height="50.1875" rx="12.5" ry="12.5" style="stroke: #6495ED; stroke-width: 1.0;" width="83" x="408" y="535.7842"/><text fill="#696969" font-family="sans-serif" font-size="12" lengthAdjust="spacingAndGlyphs" textLength="63" x="418" y="558.2412">multi-family</text><text fill="#696969" font-family="sans-serif" font-size="12" lengthAdjust="spacingAndGlyphs" textLength="42" x="418" y="573.335">realtors</text><rect fill="#FFFFF0" filter="url(#f2z6uxch4qu5o)" height="50.1875" rx="12.5" ry="12.5" style="stroke: #6495ED; stroke-width: 1.0;" width="83" x="519" y="535.7842"/><text fill="#696969" font-family="sans-serif" font-size="12" lengthAdjust="spacingAndGlyphs" textLength="63" x="529" y="558.2412">multi-family</text><text fill="#696969" font-family="sans-serif" font-size="12" lengthAdjust="spacingAndGlyphs" textLength="52" x="529" y="573.335">road trips</text><rect fill="#FFFFF0" filter="url(#f2z6uxch4qu5o)" height="50.1875" style="stroke: #6495ED; stroke-width: 1.0;" width="139" x="630" y="535.7842"/><text fill="#696969" font-family="sans-serif" font-size="12" lengthAdjust="spacingAndGlyphs" textLength="63" x="640" y="558.2412">multi-family</text><text fill="#696969" font-family="sans-serif" font-size="12" lengthAdjust="spacingAndGlyphs" textLength="119" x="640" y="573.335">specialized education</text><rect fill="#FFFFF0" filter="url(#f2z6uxch4qu5o)" height="50.1875" rx="12.5" ry="12.5" style="stroke: #6495ED; stroke-width: 1.0;" width="126" x="779" y="535.7842"/><text fill="#696969" font-family="sans-serif" font-size="12" lengthAdjust="spacingAndGlyphs" textLength="63" x="789" y="558.2412">multi-family</text><text fill="#696969" font-family="sans-serif" font-size="12" lengthAdjust="spacingAndGlyphs" textLength="106" x="789" y="573.335">operator consultant</text><rect fill="#FFFFF0" filter="url(#f2z6uxch4qu5o)" height="50.1875" rx="12.5" ry="12.5" style="stroke: #6495ED; stroke-width: 1.0;" width="119" x="915" y="535.7842"/><text fill="#696969" font-family="sans-serif" font-size="12" lengthAdjust="spacingAndGlyphs" textLength="96" x="925" y="558.2412">preferred investor</text><text fill="#696969" font-family="sans-serif" font-size="12" lengthAdjust="spacingAndGlyphs" textLength="99" x="925" y="573.335">networking events</text><polygon fill="#FFFFF0" filter="url(#f2z6uxch4qu5o)" points="1044,543.3311,1110,543.3311,1120,560.8779,1110,578.4248,1044,578.4248" style="stroke: #6495ED; stroke-width: 1.0;"/><path d="M1059,557.4248 C1056.797,557.4248 1055,559.2218 1055,561.4248 C1055,563.6278 1056.797,565.4248 1059,565.4248 C1061.203,565.4248 1063,563.6278 1063,561.4248 C1063,559.2218 1061.203,557.4248 1059,557.4248 M1059,558.4248 C1060.663,558.4248 1062,559.7618 1062,561.4248 C1062,563.0878 1060.663,564.4248 1059,564.4248 C1057.337,564.4248 1056,563.0878 1056,561.4248 C1056,559.7618 1057.337,558.4248 1059,558.4248 M1058.5,559.4248 L1058.5,561.6438 L1058.656,561.7688 L1059.156,562.2688 L1059.5,562.6438 L1060.219,561.9248 L1059.844,561.5808 L1059.5,561.2368 L1059.5,559.4238 L1058.5,559.4238 " fill="#696969" style="stroke: ; stroke-width: 0.0; stroke-dasharray: ;"/><text fill="#696969" font-family="sans-serif" font-size="12" lengthAdjust="spacingAndGlyphs" textLength="33" x="1067" y="565.7881">1 year</text><rect fill="#000000" filter="url(#f2z6uxch4qu5o)" height="6" rx="2.5" ry="2.5" style="stroke: #000000; stroke-width: 1.0;" width="1114" x="10" y="605.9717"/><rect fill="#FFFFF0" filter="url(#f2z6uxch4qu5o)" height="35.0938" rx="12.5" ry="12.5" style="stroke: #6495ED; stroke-width: 1.0;" width="61" x="535.5" y="631.9717"/><text fill="#696969" font-family="sans-serif" font-size="12" lengthAdjust="spacingAndGlyphs" textLength="41" x="545.5" y="654.4287">inactive</text><rect fill="#CCFFCC" filter="url(#f2z6uxch4qu5o)" height="35.0938" style="stroke: #6495ED; stroke-width: 1.0;" width="157" x="487.5" y="687.0654"/><path d="M501.5,701.1592 L501.5,702.1592 L500.75,702.1592 C500.064,702.1592 499.5,702.7232 499.5,703.4092 L499.5,703.9092 C499.5,704.5872 499.937,705.1512 500.594,705.3152 L503.157,705.9712 C503.3,706.0072 503.501,706.2672 503.501,706.4092 L503.501,706.9092 C503.501,707.0432 503.385,707.1592 503.251,707.1592 L500.751,707.1592 C500.635,707.1592 500.539,707.1222 500.501,707.0962 L500.501,706.1582 L499.501,706.1582 L499.501,707.1582 C499.501,707.5002 499.704,707.7852 499.939,707.9392 C500.173,708.0942 500.457,708.1582 500.752,708.1582 L501.502,708.1582 L501.502,709.1582 L502.502,709.1582 L502.502,708.1582 L503.252,708.1582 C503.938,708.1582 504.502,707.5942 504.502,706.9082 L504.502,706.4082 C504.502,705.7302 504.065,705.1662 503.408,705.0022 L500.845,704.3462 C500.702,704.3102 500.501,704.0502 500.501,703.9082 L500.501,703.4082 C500.501,703.2742 500.617,703.1582 500.751,703.1582 L503.251,703.1582 C503.367,703.1582 503.463,703.1952 503.501,703.2212 L503.501,704.1592 L504.501,704.1592 L504.501,703.1592 C504.501,702.8172 504.298,702.5322 504.063,702.3782 C503.829,702.2232 503.545,702.1592 503.25,702.1592 L502.5,702.1592 L502.5,701.1592 L501.5,701.1592 " fill="#696969" style="stroke: ; stroke-width: 0.0; stroke-dasharray: ;"/><text fill="#696969" font-family="sans-serif" font-size="12" lengthAdjust="spacingAndGlyphs" textLength="124" x="510.5" y="709.5225">Annual Renewal 3,000</text><polygon fill="#FFFFF0" filter="url(#f2z6uxch4qu5o)" points="566,388.8555,578,400.8555,566,412.8555,554,400.8555,566,388.8555" style="stroke: #6495ED; stroke-width: 1.0;"/><polygon fill="#FFFFF0" filter="url(#f2z6uxch4qu5o)" points="554,742.1592,578,742.1592,590,754.1592,578,766.1592,554,766.1592,542,754.1592,554,742.1592" style="stroke: #6495ED; stroke-width: 1.0;"/><path d="M567.8333,750.4925 L567.8333,751.4092 L563.25,751.4092 C562.7422,751.4092 562.3333,751.818 562.3333,752.3258 L562.3333,753.2425 L563.25,753.2425 L563.25,752.3258 L567.8333,752.3258 L567.8333,753.2425 L569.6667,751.8675 L567.8333,750.4925 M564.1667,754.1592 L562.3333,755.5342 L564.1667,756.9092 L564.1667,755.9925 L568.75,755.9925 C569.2468,755.9925 569.6667,755.5727 569.6667,755.0758 L569.6667,754.1592 L568.75,754.1592 L568.75,755.0758 L564.1667,755.0758 L564.1667,754.1592 " fill="#A9A9A9" style="stroke: ; stroke-width: 0.0; stroke-dasharray: ;"/><line style="stroke: #696969; stroke-width: 1.5;" x1="566" x2="566" y1="165.75" y2="185.75"/><polygon fill="#696969" points="562,175.75,566,185.75,570,175.75,566,179.75" style="stroke: #696969; stroke-width: 1.0;"/><line style="stroke: #696969; stroke-width: 1.5;" x1="566" x2="566" y1="264.8438" y2="289.7617"/><polygon fill="#696969" points="562,279.7617,566,289.7617,570,279.7617,566,283.7617" style="stroke: #696969; stroke-width: 1.0;"/><line style="stroke: #696969; stroke-width: 1.5;" x1="621.5" x2="663.5" y1="252.8438" y2="252.8438"/><polygon fill="#696969" points="659.5,297.3086,663.5,307.3086,667.5,297.3086,663.5,301.3086" style="stroke: #696969; stroke-width: 1.5;"/><line style="stroke: #696969; stroke-width: 1.5;" x1="663.5" x2="663.5" y1="252.8438" y2="356.8555"/><line style="stroke: #696969; stroke-width: 1.5;" x1="663.5" x2="578" y1="356.8555" y2="356.8555"/><polygon fill="#696969" points="588,352.8555,578,356.8555,588,360.8555,584,356.8555" style="stroke: #696969; stroke-width: 1.0;"/><line style="stroke: #696969; stroke-width: 1.5;" x1="566" x2="566" y1="324.8555" y2="344.8555"/><polygon fill="#696969" points="562,334.8555,566,344.8555,570,334.8555,566,338.8555" style="stroke: #696969; stroke-width: 1.0;"/><line style="stroke: #696969; stroke-width: 1.5;" x1="566" x2="566" y1="220.8438" y2="240.8438"/><polygon fill="#696969" points="562,230.8438,566,240.8438,570,230.8438,566,234.8438" style="stroke: #696969; stroke-width: 1.0;"/><line style="stroke: #696969; stroke-width: 1.5;" x1="84" x2="84" y1="515.7842" y2="535.7842"/><polygon fill="#696969" points="80,525.7842,84,535.7842,88,525.7842,84,529.7842" style="stroke: #696969; stroke-width: 1.0;"/><line style="stroke: #696969; stroke-width: 1.5;" x1="214" x2="214" y1="515.7842" y2="535.7842"/><polygon fill="#696969" points="210,525.7842,214,535.7842,218,525.7842,214,529.7842" style="stroke: #696969; stroke-width: 1.0;"/><line style="stroke: #696969; stroke-width: 1.5;" x1="340" x2="340" y1="515.7842" y2="535.7842"/><polygon fill="#696969" points="336,525.7842,340,535.7842,344,525.7842,340,529.7842" style="stroke: #696969; stroke-width: 1.0;"/><line style="stroke: #696969; stroke-width: 1.5;" x1="449.5" x2="449.5" y1="515.7842" y2="535.7842"/><polygon fill="#696969" points="445.5,525.7842,449.5,535.7842,453.5,525.7842,449.5,529.7842" style="stroke: #696969; stroke-width: 1.0;"/><line style="stroke: #696969; stroke-width: 1.5;" x1="560.5" x2="560.5" y1="515.7842" y2="535.7842"/><polygon fill="#696969" points="556.5,525.7842,560.5,535.7842,564.5,525.7842,560.5,529.7842" style="stroke: #696969; stroke-width: 1.0;"/><line style="stroke: #696969; stroke-width: 1.5;" x1="699.5" x2="699.5" y1="515.7842" y2="535.7842"/><polygon fill="#696969" points="695.5,525.7842,699.5,535.7842,703.5,525.7842,699.5,529.7842" style="stroke: #696969; stroke-width: 1.0;"/><line style="stroke: #696969; stroke-width: 1.5;" x1="842" x2="842" y1="515.7842" y2="535.7842"/><polygon fill="#696969" points="838,525.7842,842,535.7842,846,525.7842,842,529.7842" style="stroke: #696969; stroke-width: 1.0;"/><line style="stroke: #696969; stroke-width: 1.5;" x1="974.5" x2="974.5" y1="515.7842" y2="535.7842"/><polygon fill="#696969" points="970.5,525.7842,974.5,535.7842,978.5,525.7842,974.5,529.7842" style="stroke: #696969; stroke-width: 1.0;"/><line style="stroke: #696969; stroke-width: 1.5;" x1="1077" x2="1077" y1="515.7842" y2="543.3311"/><polygon fill="#696969" points="1073,533.3311,1077,543.3311,1081,533.3311,1077,537.3311" style="stroke: #696969; stroke-width: 1.0;"/><line style="stroke: #696969; stroke-width: 1.5;" x1="84" x2="84" y1="585.9717" y2="605.9717"/><polygon fill="#696969" points="80,595.9717,84,605.9717,88,595.9717,84,599.9717" style="stroke: #696969; stroke-width: 1.0;"/><line style="stroke: #696969; stroke-width: 1.5;" x1="214" x2="214" y1="585.9717" y2="605.9717"/><polygon fill="#696969" points="210,595.9717,214,605.9717,218,595.9717,214,599.9717" style="stroke: #696969; stroke-width: 1.0;"/><line style="stroke: #696969; stroke-width: 1.5;" x1="340" x2="340" y1="585.9717" y2="605.9717"/><polygon fill="#696969" points="336,595.9717,340,605.9717,344,595.9717,340,599.9717" style="stroke: #696969; stroke-width: 1.0;"/><line style="stroke: #696969; stroke-width: 1.5;" x1="449.5" x2="449.5" y1="585.9717" y2="605.9717"/><polygon fill="#696969" points="445.5,595.9717,449.5,605.9717,453.5,595.9717,449.5,599.9717" style="stroke: #696969; stroke-width: 1.0;"/><line style="stroke: #696969; stroke-width: 1.5;" x1="560.5" x2="560.5" y1="585.9717" y2="605.9717"/><polygon fill="#696969" points="556.5,595.9717,560.5,605.9717,564.5,595.9717,560.5,599.9717" style="stroke: #696969; stroke-width: 1.0;"/><line style="stroke: #696969; stroke-width: 1.5;" x1="699.5" x2="699.5" y1="585.9717" y2="605.9717"/><polygon fill="#696969" points="695.5,595.9717,699.5,605.9717,703.5,595.9717,699.5,599.9717" style="stroke: #696969; stroke-width: 1.0;"/><line style="stroke: #696969; stroke-width: 1.5;" x1="842" x2="842" y1="585.9717" y2="605.9717"/><polygon fill="#696969" points="838,595.9717,842,605.9717,846,595.9717,842,599.9717" style="stroke: #696969; stroke-width: 1.0;"/><line style="stroke: #696969; stroke-width: 1.5;" x1="974.5" x2="974.5" y1="585.9717" y2="605.9717"/><polygon fill="#696969" points="970.5,595.9717,974.5,605.9717,978.5,595.9717,974.5,599.9717" style="stroke: #696969; stroke-width: 1.0;"/><line style="stroke: #696969; stroke-width: 1.5;" x1="1077" x2="1077" y1="578.4248" y2="605.9717"/><polygon fill="#696969" points="1073,595.9717,1077,605.9717,1081,595.9717,1077,599.9717" style="stroke: #696969; stroke-width: 1.0;"/><line style="stroke: #696969; stroke-width: 1.5;" x1="566" x2="566" y1="489.7842" y2="509.7842"/><polygon fill="#696969" points="562,499.7842,566,509.7842,570,499.7842,566,503.7842" style="stroke: #696969; stroke-width: 1.0;"/><line style="stroke: #696969; stroke-width: 1.5;" x1="566" x2="566" y1="611.9717" y2="631.9717"/><polygon fill="#696969" points="562,621.9717,566,631.9717,570,621.9717,566,625.9717" style="stroke: #696969; stroke-width: 1.0;"/><line style="stroke: #696969; stroke-width: 1.5;" x1="566" x2="566" y1="667.0654" y2="687.0654"/><polygon fill="#696969" points="562,677.0654,566,687.0654,570,677.0654,566,681.0654" style="stroke: #696969; stroke-width: 1.0;"/><line style="stroke: #696969; stroke-width: 1.5;" x1="566" x2="566" y1="412.8555" y2="454.6904"/><polygon fill="#696969" points="562,444.6904,566,454.6904,570,444.6904,566,448.6904" style="stroke: #696969; stroke-width: 1.0;"/><text fill="#696969" font-family="sans-serif" font-size="11" lengthAdjust="spacingAndGlyphs" textLength="20" x="570" y="435.1914">paid</text><line style="stroke: #696969; stroke-width: 1.5;" x1="590" x2="1136" y1="754.1592" y2="754.1592"/><polygon fill="#696969" points="1132,605.9248,1136,595.9248,1140,605.9248,1136,601.9248" style="stroke: #696969; stroke-width: 1.5;"/><line style="stroke: #696969; stroke-width: 1.5;" x1="1136" x2="1136" y1="400.8555" y2="754.1592"/><line style="stroke: #696969; stroke-width: 1.5;" x1="1136" x2="578" y1="400.8555" y2="400.8555"/><polygon fill="#696969" points="588,396.8555,578,400.8555,588,404.8555,584,400.8555" style="stroke: #696969; stroke-width: 1.0;"/><line style="stroke: #696969; stroke-width: 1.5;" x1="566" x2="566" y1="722.1592" y2="742.1592"/><polygon fill="#696969" points="562,732.1592,566,742.1592,570,732.1592,566,736.1592" style="stroke: #696969; stroke-width: 1.0;"/><line style="stroke: #696969; stroke-width: 1.5;" x1="566" x2="566" y1="368.8555" y2="388.8555"/><polygon fill="#696969" points="562,378.8555,566,388.8555,570,378.8555,566,382.8555" style="stroke: #696969; stroke-width: 1.0;"/><text fill="#000080" font-family="sans-serif" font-size="14" lengthAdjust="spacingAndGlyphs" textLength="42" x="10" y="780.6924">©2019</text><a href="http://www.lifestylesunlimited.com" target="_top" xlink:actuate="onRequest" xlink:show="new" xlink:title="http://www.lifestylesunlimited.com" xlink:type="simple"><text fill="#0000FF" font-family="sans-serif" font-size="14" lengthAdjust="spacingAndGlyphs" text-decoration="underline" textLength="122" x="56" y="780.6924">LifeStyles Unlimited</text></a><text fill="#000080" font-family="sans-serif" font-size="14" lengthAdjust="spacingAndGlyphs" textLength="131" x="182" y="780.6924">| Generated %date%</text><!--
@startuml preferred-investor-group-program


skinparam {
  BorderColor Red
  PathHoverColor Blue
}

skinparam Title {
  FontColor Navy
  BackgroundColor PaleGoldenRod
  BorderColor Navy
  BorderRoundCorner 20
  FontSize 24
}

skinparam activity {
  BackgroundColor Ivory
  BorderColor CornflowerBlue
  BorderThickness 1
  FontColor DimGray
  

  Arrow {
    Color dimgray
    FontColor dimgray
  }

  Start {
    Color PHYSICAL
  }

  End {
    Color Coral
  }

  Diamond {
    BackgroundColor Ivory
    BorderColor CornflowerBlue
    FontColor DarkGray
  }

  BackgroundColor<< Exception >> Red
	BorderColor<< Exception >> White
}

skinparam Swimlane {
  BorderColor CornflowerBlue 
}

skinparam Partition {
  BackgroundColor Ivory
  BorderColor CornflowerBlue
  BorderThickness 1
  FontColor CornflowerBlue
  FontSize 16
  BorderRoundCorner 20
}

skinparam Note {
  BackgroundColor LightSteelBlue
  BorderColor CornflowerBlue
  FontColor White
}

skinparam Legend {
  BackgroundColor LightSteelBlue
  BorderColor CornflowerBlue
  FontColor White
}

skinparam Footer {
  FontColor Navy
}


left header 
	<font color=Navy size=24>[[../index.svg?sanitize=true ⌂ Home]]</font>
endheader


	Title Preferred Investor Group (PIG)\nEducation & Mentoring Program\n(Single-Family and/or  Multi-Family)

	start

	#PHYSICAL:<&dollar> Commitment Fee 18,000]
	if(challenge member) then (yes)
		#PHYSICAL:<&dollar> Challenge Refund (7,000)]
	else (no)
	endif

	repeat
		->paid;
		:active;
		fork
			[[../single-family/challenge-program.svg?sanitize=true]]#LightSkyBlue:challenge program\nbenefits;
		fork again
			:personalized\nplanning session;
		fork again
			:multi-family\n1-on-1 consulting;
		fork again
			:multi-family\nrealtors;
		fork again
			:multi-family\nroad trips;
		fork again
			:multi-family\nspecialized education]
		fork again
			:multi-family\noperator consultant;
		fork again
			:preferred investor\nnetworking events;
		fork again
		:<&clock> 1 year>
		end fork
		:inactive;

		#PHYSICAL:<&dollar> Annual Renewal 3,000]
	repeat while (<&loop>)


left footer 
	<font size=14>©2019 [[http://www.lifestylesunlimited.com LifeStyles Unlimited]] | Generated %date%</font>
endfooter


@enduml

PlantUML version 1.2019.06(Fri May 24 12:10:25 CDT 2019)
(GPL source distribution)
Java Runtime: Java(TM) SE Runtime Environment
JVM: Java HotSpot(TM) Client VM
Java Version: 1.8.0_211-b12
Operating System: Windows 10
OS Version: 10.0
Default Encoding: Cp1252
Language: en
Country: US
--></g></svg>