<?xml version="1.0" encoding="UTF-8" standalone="no"?><svg xmlns="http://www.w3.org/2000/svg" xmlns:xlink="http://www.w3.org/1999/xlink" contentScriptType="application/ecmascript" contentStyleType="text/css" height="602px" preserveAspectRatio="none" style="width:1510px;height:602px;" version="1.1" viewBox="0 0 1510 602" width="1510px" zoomAndPan="magnify"><defs><style type="text/css"><![CDATA[path:hover { stroke: #0000FF !important;}]]></style><filter height="300%" id="fq44mue5442ky" width="300%" x="-1" y="-1"><feGaussianBlur result="blurOut" stdDeviation="2.0"/><feColorMatrix in="blurOut" result="blurOut2" type="matrix" values="0 0 0 0 0 0 0 0 0 0 0 0 0 0 0 0 0 0 .4 0"/><feOffset dx="4.0" dy="4.0" in="blurOut2" result="blurOut3"/><feBlend in="SourceGraphic" in2="blurOut3" mode="normal"/></filter></defs><g><a target="_top" xlink:actuate="onRequest" xlink:href="../index.svg?sanitize=true" xlink:show="new" xlink:title="../index.svg?sanitize=true" xlink:type="simple"><text fill="#0000FF" font-family="sans-serif" font-size="24" lengthAdjust="spacingAndGlyphs" text-decoration="underline" textLength="90" x="10" y="34.9141">⌂ Home</text><line style="stroke: #0000FF; stroke-width: 1.0;" x1="10" x2="100" y1="36.9141" y2="36.9141"/></a><rect fill="#EEE8AA" height="70.375" rx="10" ry="10" style="stroke: #000080; stroke-width: 1.5;" width="381" x="563" y="42.1875"/><text fill="#000080" font-family="sans-serif" font-size="24" lengthAdjust="spacingAndGlyphs" textLength="365" x="571" y="72.1016">Preferred Investor Group Program</text><text fill="#000080" font-family="sans-serif" font-size="24" lengthAdjust="spacingAndGlyphs" textLength="244" x="631.5" y="102.2891">(Single &amp; Multi-Family)</text><ellipse cx="741" cy="125.5625" fill="#CCFFCC" filter="url(#fq44mue5442ky)" rx="10" ry="10" style="stroke: none; stroke-width: 1.0;"/><rect fill="#CCFFCC" filter="url(#fq44mue5442ky)" height="35.0938" style="stroke: #6495ED; stroke-width: 1.0;" width="68" x="707" y="155.5625"/><path d="M721,169.6563 L721,170.6563 L720.25,170.6563 C719.564,170.6563 719,171.2203 719,171.9063 L719,172.4063 C719,173.0843 719.437,173.6483 720.094,173.8123 L722.657,174.4683 C722.8,174.5043 723.001,174.7643 723.001,174.9063 L723.001,175.4063 C723.001,175.5403 722.885,175.6563 722.751,175.6563 L720.251,175.6563 C720.135,175.6563 720.039,175.6193 720.001,175.5933 L720.001,174.6553 L719.001,174.6553 L719.001,175.6553 C719.001,175.9973 719.204,176.2823 719.439,176.4363 C719.673,176.5913 719.957,176.6553 720.252,176.6553 L721.002,176.6553 L721.002,177.6553 L722.002,177.6553 L722.002,176.6553 L722.752,176.6553 C723.438,176.6553 724.002,176.0913 724.002,175.4053 L724.002,174.9053 C724.002,174.2273 723.565,173.6633 722.908,173.4993 L720.345,172.8433 C720.202,172.8073 720.001,172.5473 720.001,172.4053 L720.001,171.9053 C720.001,171.7713 720.117,171.6553 720.251,171.6553 L722.751,171.6553 C722.867,171.6553 722.963,171.6923 723.001,171.7183 L723.001,172.6563 L724.001,172.6563 L724.001,171.6563 C724.001,171.3143 723.798,171.0293 723.563,170.8753 C723.329,170.7203 723.045,170.6563 722.75,170.6563 L722,170.6563 L722,169.6563 L721,169.6563 " fill="#696969" style="stroke: ; stroke-width: 0.0; stroke-dasharray: ;"/><text fill="#696969" font-family="sans-serif" font-size="12" lengthAdjust="spacingAndGlyphs" textLength="35" x="730" y="178.0195">18000</text><rect fill="#FFFFF0" filter="url(#fq44mue5442ky)" height="35.0938" rx="12.5" ry="12.5" style="stroke: #6495ED; stroke-width: 1.0;" width="51" x="715.5" y="276.4912"/><text fill="#696969" font-family="sans-serif" font-size="12" lengthAdjust="spacingAndGlyphs" textLength="31" x="725.5" y="298.9482">active</text><rect fill="#000000" filter="url(#fq44mue5442ky)" height="6" rx="2.5" ry="2.5" style="stroke: #000000; stroke-width: 1.0;" width="1462" x="10" y="331.585"/><a target="_top" xlink:actuate="onRequest" xlink:href="../single-family/challenge-program.svg?sanitize=true" xlink:show="new" xlink:title="../single-family/challenge-program.svg?sanitize=true" xlink:type="simple"><rect fill="#87CEFA" filter="url(#fq44mue5442ky)" height="35.0938" rx="12.5" ry="12.5" style="stroke: #6495ED; stroke-width: 1.0;" width="124" x="24" y="357.585"/><text fill="#696969" font-family="sans-serif" font-size="12" lengthAdjust="spacingAndGlyphs" textLength="104" x="34" y="380.042">challenge program</text></a><rect fill="#FFFFF0" filter="url(#fq44mue5442ky)" height="35.0938" rx="12.5" ry="12.5" style="stroke: #6495ED; stroke-width: 1.0;" width="190" x="176" y="357.585"/><text fill="#696969" font-family="sans-serif" font-size="12" lengthAdjust="spacingAndGlyphs" textLength="170" x="186" y="380.042">personalized planning session</text><rect fill="#FFFFF0" filter="url(#fq44mue5442ky)" height="35.0938" rx="12.5" ry="12.5" style="stroke: #6495ED; stroke-width: 1.0;" width="182" x="394" y="357.585"/><text fill="#696969" font-family="sans-serif" font-size="12" lengthAdjust="spacingAndGlyphs" textLength="162" x="404" y="380.042">multi-family 1-on-1 consulting</text><rect fill="#FFFFF0" filter="url(#fq44mue5442ky)" height="35.0938" rx="12.5" ry="12.5" style="stroke: #6495ED; stroke-width: 1.0;" width="128" x="604" y="357.585"/><text fill="#696969" font-family="sans-serif" font-size="12" lengthAdjust="spacingAndGlyphs" textLength="108" x="614" y="380.042">multi-family realtors</text><rect fill="#FFFFF0" filter="url(#fq44mue5442ky)" height="35.0938" rx="12.5" ry="12.5" style="stroke: #6495ED; stroke-width: 1.0;" width="138" x="760" y="357.585"/><text fill="#696969" font-family="sans-serif" font-size="12" lengthAdjust="spacingAndGlyphs" textLength="118" x="770" y="380.042">multi-family road trips</text><rect fill="#FFFFF0" filter="url(#fq44mue5442ky)" height="35.0938" rx="12.5" ry="12.5" style="stroke: #6495ED; stroke-width: 1.0;" width="205" x="926" y="357.585"/><text fill="#696969" font-family="sans-serif" font-size="12" lengthAdjust="spacingAndGlyphs" textLength="185" x="936" y="380.042">multi-family specialized education</text><rect fill="#FFFFF0" filter="url(#fq44mue5442ky)" height="35.0938" rx="12.5" ry="12.5" style="stroke: #6495ED; stroke-width: 1.0;" width="218" x="1159" y="357.585"/><text fill="#696969" font-family="sans-serif" font-size="12" lengthAdjust="spacingAndGlyphs" textLength="198" x="1169" y="380.042">preferred investor networking events</text><polygon fill="#FFFFF0" filter="url(#fq44mue5442ky)" points="1405,357.585,1458,357.585,1468,375.1318,1458,392.6787,1405,392.6787" style="stroke: #6495ED; stroke-width: 1.0;"/><text fill="#696969" font-family="sans-serif" font-size="12" lengthAdjust="spacingAndGlyphs" textLength="33" x="1415" y="380.042">1 year</text><rect fill="#000000" filter="url(#fq44mue5442ky)" height="6" rx="2.5" ry="2.5" style="stroke: #000000; stroke-width: 1.0;" width="1462" x="10" y="412.6787"/><rect fill="#FFFFF0" filter="url(#fq44mue5442ky)" height="35.0938" rx="12.5" ry="12.5" style="stroke: #6495ED; stroke-width: 1.0;" width="61" x="710.5" y="440.1787"/><text fill="#696969" font-family="sans-serif" font-size="12" lengthAdjust="spacingAndGlyphs" textLength="41" x="720.5" y="462.6357">inactive</text><rect fill="#CCFFCC" filter="url(#fq44mue5442ky)" height="35.0938" style="stroke: #6495ED; stroke-width: 1.0;" width="61" x="710.5" y="495.2725"/><path d="M724.5,509.3662 L724.5,510.3662 L723.75,510.3662 C723.064,510.3662 722.5,510.9302 722.5,511.6162 L722.5,512.1162 C722.5,512.7942 722.937,513.3582 723.594,513.5222 L726.157,514.1782 C726.3,514.2142 726.501,514.4742 726.501,514.6162 L726.501,515.1162 C726.501,515.2502 726.385,515.3662 726.251,515.3662 L723.751,515.3662 C723.635,515.3662 723.539,515.3292 723.501,515.3032 L723.501,514.3652 L722.501,514.3652 L722.501,515.3652 C722.501,515.7072 722.704,515.9922 722.939,516.1462 C723.173,516.3012 723.457,516.3652 723.752,516.3652 L724.502,516.3652 L724.502,517.3652 L725.502,517.3652 L725.502,516.3652 L726.252,516.3652 C726.938,516.3652 727.502,515.8012 727.502,515.1152 L727.502,514.6152 C727.502,513.9372 727.065,513.3732 726.408,513.2092 L723.845,512.5532 C723.702,512.5172 723.501,512.2572 723.501,512.1152 L723.501,511.6152 C723.501,511.4812 723.617,511.3652 723.751,511.3652 L726.251,511.3652 C726.367,511.3652 726.463,511.4022 726.501,511.4282 L726.501,512.3662 L727.501,512.3662 L727.501,511.3662 C727.501,511.0242 727.298,510.7392 727.063,510.5852 C726.829,510.4302 726.545,510.3662 726.25,510.3662 L725.5,510.3662 L725.5,509.3662 L724.5,509.3662 " fill="#696969" style="stroke: ; stroke-width: 0.0; stroke-dasharray: ;"/><text fill="#696969" font-family="sans-serif" font-size="12" lengthAdjust="spacingAndGlyphs" textLength="28" x="733.5" y="517.7295">3000</text><polygon fill="#FFFFF0" filter="url(#fq44mue5442ky)" points="741,210.6563,753,222.6563,741,234.6563,729,222.6563,741,210.6563" style="stroke: #6495ED; stroke-width: 1.0;"/><polygon fill="#FFFFF0" filter="url(#fq44mue5442ky)" points="741,550.3662,741,550.3662,753,562.3662,741,574.3662,741,574.3662,729,562.3662,741,550.3662" style="stroke: #6495ED; stroke-width: 1.0;"/><line style="stroke: #696969; stroke-width: 1.5;" x1="741" x2="741" y1="135.5625" y2="155.5625"/><polygon fill="#696969" points="737,145.5625,741,155.5625,745,145.5625,741,149.5625" style="stroke: #696969; stroke-width: 1.0;"/><line style="stroke: #696969; stroke-width: 1.5;" x1="86" x2="86" y1="337.585" y2="357.585"/><polygon fill="#696969" points="82,347.585,86,357.585,90,347.585,86,351.585" style="stroke: #696969; stroke-width: 1.0;"/><line style="stroke: #696969; stroke-width: 1.5;" x1="271" x2="271" y1="337.585" y2="357.585"/><polygon fill="#696969" points="267,347.585,271,357.585,275,347.585,271,351.585" style="stroke: #696969; stroke-width: 1.0;"/><line style="stroke: #696969; stroke-width: 1.5;" x1="485" x2="485" y1="337.585" y2="357.585"/><polygon fill="#696969" points="481,347.585,485,357.585,489,347.585,485,351.585" style="stroke: #696969; stroke-width: 1.0;"/><line style="stroke: #696969; stroke-width: 1.5;" x1="668" x2="668" y1="337.585" y2="357.585"/><polygon fill="#696969" points="664,347.585,668,357.585,672,347.585,668,351.585" style="stroke: #696969; stroke-width: 1.0;"/><line style="stroke: #696969; stroke-width: 1.5;" x1="829" x2="829" y1="337.585" y2="357.585"/><polygon fill="#696969" points="825,347.585,829,357.585,833,347.585,829,351.585" style="stroke: #696969; stroke-width: 1.0;"/><line style="stroke: #696969; stroke-width: 1.5;" x1="1028.5" x2="1028.5" y1="337.585" y2="357.585"/><polygon fill="#696969" points="1024.5,347.585,1028.5,357.585,1032.5,347.585,1028.5,351.585" style="stroke: #696969; stroke-width: 1.0;"/><line style="stroke: #696969; stroke-width: 1.5;" x1="1268" x2="1268" y1="337.585" y2="357.585"/><polygon fill="#696969" points="1264,347.585,1268,357.585,1272,347.585,1268,351.585" style="stroke: #696969; stroke-width: 1.0;"/><line style="stroke: #696969; stroke-width: 1.5;" x1="1431.5" x2="1431.5" y1="337.585" y2="357.585"/><polygon fill="#696969" points="1427.5,347.585,1431.5,357.585,1435.5,347.585,1431.5,351.585" style="stroke: #696969; stroke-width: 1.0;"/><line style="stroke: #696969; stroke-width: 1.5;" x1="86" x2="86" y1="392.6787" y2="412.6787"/><polygon fill="#696969" points="82,402.6787,86,412.6787,90,402.6787,86,406.6787" style="stroke: #696969; stroke-width: 1.0;"/><line style="stroke: #696969; stroke-width: 1.5;" x1="271" x2="271" y1="392.6787" y2="412.6787"/><polygon fill="#696969" points="267,402.6787,271,412.6787,275,402.6787,271,406.6787" style="stroke: #696969; stroke-width: 1.0;"/><line style="stroke: #696969; stroke-width: 1.5;" x1="485" x2="485" y1="392.6787" y2="412.6787"/><polygon fill="#696969" points="481,402.6787,485,412.6787,489,402.6787,485,406.6787" style="stroke: #696969; stroke-width: 1.0;"/><line style="stroke: #696969; stroke-width: 1.5;" x1="668" x2="668" y1="392.6787" y2="412.6787"/><polygon fill="#696969" points="664,402.6787,668,412.6787,672,402.6787,668,406.6787" style="stroke: #696969; stroke-width: 1.0;"/><line style="stroke: #696969; stroke-width: 1.5;" x1="829" x2="829" y1="392.6787" y2="412.6787"/><polygon fill="#696969" points="825,402.6787,829,412.6787,833,402.6787,829,406.6787" style="stroke: #696969; stroke-width: 1.0;"/><line style="stroke: #696969; stroke-width: 1.5;" x1="1028.5" x2="1028.5" y1="392.6787" y2="412.6787"/><polygon fill="#696969" points="1024.5,402.6787,1028.5,412.6787,1032.5,402.6787,1028.5,406.6787" style="stroke: #696969; stroke-width: 1.0;"/><line style="stroke: #696969; stroke-width: 1.5;" x1="1268" x2="1268" y1="392.6787" y2="412.6787"/><polygon fill="#696969" points="1264,402.6787,1268,412.6787,1272,402.6787,1268,406.6787" style="stroke: #696969; stroke-width: 1.0;"/><line style="stroke: #696969; stroke-width: 1.5;" x1="1431.5" x2="1431.5" y1="392.6787" y2="412.6787"/><polygon fill="#696969" points="1427.5,402.6787,1431.5,412.6787,1435.5,402.6787,1431.5,406.6787" style="stroke: #696969; stroke-width: 1.0;"/><line style="stroke: #696969; stroke-width: 1.5;" x1="741" x2="741" y1="311.585" y2="331.585"/><polygon fill="#696969" points="737,321.585,741,331.585,745,321.585,741,325.585" style="stroke: #696969; stroke-width: 1.0;"/><line style="stroke: #696969; stroke-width: 1.5;" x1="741" x2="741" y1="418.6787" y2="440.1787"/><polygon fill="#696969" points="737,430.1787,741,440.1787,745,430.1787,741,434.1787" style="stroke: #696969; stroke-width: 1.0;"/><line style="stroke: #696969; stroke-width: 1.5;" x1="741" x2="741" y1="475.2725" y2="495.2725"/><polygon fill="#696969" points="737,485.2725,741,495.2725,745,485.2725,741,489.2725" style="stroke: #696969; stroke-width: 1.0;"/><line style="stroke: #696969; stroke-width: 1.5;" x1="741" x2="741" y1="234.6563" y2="276.4912"/><polygon fill="#696969" points="737,266.4912,741,276.4912,745,266.4912,741,270.4912" style="stroke: #696969; stroke-width: 1.0;"/><text fill="#696969" font-family="sans-serif" font-size="11" lengthAdjust="spacingAndGlyphs" textLength="20" x="745" y="256.9922">paid</text><line style="stroke: #696969; stroke-width: 1.5;" x1="753" x2="1484" y1="562.3662" y2="562.3662"/><polygon fill="#696969" points="1480,420.1787,1484,410.1787,1488,420.1787,1484,416.1787" style="stroke: #696969; stroke-width: 1.5;"/><line style="stroke: #696969; stroke-width: 1.5;" x1="1484" x2="1484" y1="222.6563" y2="562.3662"/><line style="stroke: #696969; stroke-width: 1.5;" x1="1484" x2="753" y1="222.6563" y2="222.6563"/><polygon fill="#696969" points="763,218.6563,753,222.6563,763,226.6563,759,222.6563" style="stroke: #696969; stroke-width: 1.0;"/><line style="stroke: #696969; stroke-width: 1.5;" x1="741" x2="741" y1="530.3662" y2="550.3662"/><polygon fill="#696969" points="737,540.3662,741,550.3662,745,540.3662,741,544.3662" style="stroke: #696969; stroke-width: 1.0;"/><line style="stroke: #696969; stroke-width: 1.5;" x1="741" x2="741" y1="190.6563" y2="210.6563"/><polygon fill="#696969" points="737,200.6563,741,210.6563,745,200.6563,741,204.6563" style="stroke: #696969; stroke-width: 1.0;"/><text fill="#000080" font-family="sans-serif" font-size="14" lengthAdjust="spacingAndGlyphs" textLength="42" x="10" y="588.8994">©2019</text><a target="_top" xlink:actuate="onRequest" xlink:href="http://www.lifestylesunlimited.com" xlink:show="new" xlink:title="http://www.lifestylesunlimited.com" xlink:type="simple"><text fill="#0000FF" font-family="sans-serif" font-size="14" lengthAdjust="spacingAndGlyphs" text-decoration="underline" textLength="122" x="56" y="588.8994">LifeStyles Unlimited</text><line style="stroke: #0000FF; stroke-width: 1.0;" x1="56" x2="178" y1="590.8994" y2="590.8994"/></a><text fill="#000080" font-family="sans-serif" font-size="14" lengthAdjust="spacingAndGlyphs" textLength="279" x="182" y="588.8994">| Generated Sun Apr 28 21:11:08 CDT 2019</text><!--
@startuml preferred-investor-group-program


skinparam {
  BorderColor Red
  PathHoverColor Blue
}

skinparam Title {
  FontColor Navy
  BackgroundColor PaleGoldenRod
  BorderColor Navy
  BorderRoundCorner 20
  FontSize 24
}

skinparam activity {
  BackgroundColor Ivory
  BorderColor CornflowerBlue
  BorderThickness 1
  FontColor DimGray
  

  Arrow {
    Color dimgray
    FontColor dimgray
  }

  Start {
    Color PHYSICAL
  }

  End {
    Color Coral
  }

  Diamond {
    BackgroundColor Ivory
    BorderColor CornflowerBlue
    FontColor DarkGray
  }

  BackgroundColor<< Exception >> Red
	BorderColor<< Exception >> White
}

skinparam Swimlane {
  BorderColor CornflowerBlue 
}

skinparam Partition {
  BackgroundColor Ivory
  BorderColor CornflowerBlue
  BorderThickness 1
  FontColor CornflowerBlue
  FontSize 16
  BorderRoundCorner 20
}

skinparam Note {
  BackgroundColor LightSteelBlue
  BorderColor CornflowerBlue
  FontColor White
}

skinparam Legend {
  BackgroundColor LightSteelBlue
  BorderColor CornflowerBlue
  FontColor White
}

skinparam Footer {
  FontColor Navy
}


left header 
	<font color=Navy size=24>[[../index.svg?sanitize=true ⌂ Home]]</font>
endheader


	Title Preferred Investor Group Program\n(Single & Multi-Family)

	start

	#PHYSICAL:<&dollar> 18000]

	repeat
		->paid;
		:active;
		fork
			[[../single-family/challenge-program.svg?sanitize=true]]#LightSkyBlue:challenge program;
		fork again
			:personalized planning session;
		fork again
			:multi-family 1-on-1 consulting;
		fork again
			:multi-family realtors;
		fork again
			:multi-family road trips;
		fork again
			:multi-family specialized education;
		fork again
			:preferred investor networking events;
		fork again
		:1 year>
		end fork
		:inactive;

		#PHYSICAL:<&dollar> 3000]
	repeat while ()


left footer 
	<font size=14>©2019 [[http://www.lifestylesunlimited.com LifeStyles Unlimited]] | Generated Sun Apr 28 21:11:08 CDT 2019</font>
endfooter


@enduml

PlantUML version 1.2019.03(Sun Mar 10 06:04:44 CDT 2019)
(GPL source distribution)
Java Runtime: Java(TM) SE Runtime Environment
JVM: Java HotSpot(TM) 64-Bit Server VM
Java Version: 1.8.0_111-b14
Operating System: Windows 10
OS Version: 10.0
Default Encoding: Cp1252
Language: en
Country: US
--></g></svg>