<?xml version="1.0" encoding="UTF-8" standalone="no"?><svg xmlns="http://www.w3.org/2000/svg" xmlns:xlink="http://www.w3.org/1999/xlink" contentScriptType="application/ecmascript" contentStyleType="text/css" height="799px" preserveAspectRatio="none" style="width:1081px;height:799px;" version="1.1" viewBox="0 0 1081 799" width="1081px" zoomAndPan="magnify"><defs><filter height="300%" id="fgu9emuiwnfjl" width="300%" x="-1" y="-1"><feGaussianBlur result="blurOut" stdDeviation="2.0"/><feColorMatrix in="blurOut" result="blurOut2" type="matrix" values="0 0 0 0 0 0 0 0 0 0 0 0 0 0 0 0 0 0 .4 0"/><feOffset dx="4.0" dy="4.0" in="blurOut2" result="blurOut3"/><feBlend in="SourceGraphic" in2="blurOut3" mode="normal"/></filter></defs><g><rect fill="#EEE8AA" height="32.6406" rx="10" ry="10" style="stroke: #000080; stroke-width: 1.5;" width="113" x="482.5" y="12"/><text fill="#000080" font-family="sans-serif" font-size="18" lengthAdjust="spacingAndGlyphs" textLength="97" x="490.5" y="35.6855">Investor Life</text><ellipse cx="526.5" cy="57.6406" fill="#000080" filter="url(#fgu9emuiwnfjl)" rx="10" ry="10" style="stroke: none; stroke-width: 1.0;"/><rect fill="#000000" filter="url(#fgu9emuiwnfjl)" height="6" rx="2.5" ry="2.5" style="stroke: #000000; stroke-width: 1.0;" width="1033" x="10" y="131.6406"/><rect fill="#FFFFF0" filter="url(#fgu9emuiwnfjl)" height="35.0938" rx="12.5" ry="12.5" style="stroke: #6495ED; stroke-width: 1.5;" width="96" x="24" y="291.7813"/><text fill="#A9A9A9" font-family="sans-serif" font-size="12" lengthAdjust="spacingAndGlyphs" textLength="76" x="34" y="314.2383">learn process</text><rect fill="#FFFFF0" filter="url(#fgu9emuiwnfjl)" height="35.0938" rx="12.5" ry="12.5" style="stroke: #6495ED; stroke-width: 1.5;" width="176" x="148" y="256.7344"/><text fill="#A9A9A9" font-family="sans-serif" font-size="12" lengthAdjust="spacingAndGlyphs" textLength="156" x="158" y="279.1914">conventional prequalification</text><rect fill="#FFFFF0" filter="url(#fgu9emuiwnfjl)" height="35.0938" rx="12.5" ry="12.5" style="stroke: #6495ED; stroke-width: 1.5;" width="172" x="150" y="326.8281"/><text fill="#A9A9A9" font-family="sans-serif" font-size="12" lengthAdjust="spacingAndGlyphs" textLength="152" x="160" y="349.2852">hard money prequalification</text><rect fill="#FFFFF0" filter="url(#fgu9emuiwnfjl)" height="35.0938" rx="12.5" ry="12.5" style="stroke: #6495ED; stroke-width: 1.5;" width="78" x="377.5" y="256.7344"/><text fill="#A9A9A9" font-family="sans-serif" font-size="12" lengthAdjust="spacingAndGlyphs" textLength="58" x="387.5" y="279.1914">build team</text><rect fill="#FFFFF0" filter="url(#fgu9emuiwnfjl)" height="35.0938" rx="12.5" ry="12.5" style="stroke: #6495ED; stroke-width: 1.5;" width="129" x="352" y="326.8281"/><text fill="#A9A9A9" font-family="sans-serif" font-size="12" lengthAdjust="spacingAndGlyphs" textLength="109" x="362" y="349.2852">build alternate team</text><a target="_top" xlink:actuate="onRequest" xlink:href="http://plantuml.com" xlink:show="new" xlink:title="http://plantuml.com" xlink:type="simple"><rect fill="#FFFFF0" filter="url(#fgu9emuiwnfjl)" height="35.0938" rx="12.5" ry="12.5" style="stroke: #6495ED; stroke-width: 1.5;" width="46" x="734" y="201.6406"/><text fill="#A9A9A9" font-family="sans-serif" font-size="12" lengthAdjust="spacingAndGlyphs" textLength="26" x="744" y="224.0977">work</text></a><rect fill="#FFFFF0" filter="url(#fgu9emuiwnfjl)" height="35.0938" rx="12.5" ry="12.5" style="stroke: #6495ED; stroke-width: 1.5;" width="71" x="721.5" y="265.7813"/><text fill="#A9A9A9" font-family="sans-serif" font-size="12" lengthAdjust="spacingAndGlyphs" textLength="51" x="731.5" y="288.2383">paycheck</text><rect fill="#000000" filter="url(#fgu9emuiwnfjl)" height="6" rx="2.5" ry="2.5" style="stroke: #000000; stroke-width: 1.0;" width="496" x="509" y="335.875"/><rect fill="#FFFFF0" filter="url(#fgu9emuiwnfjl)" height="35.0938" rx="12.5" ry="12.5" style="stroke: #6495ED; stroke-width: 1.5;" width="156" x="523" y="361.875"/><text fill="#A9A9A9" font-family="sans-serif" font-size="12" lengthAdjust="spacingAndGlyphs" textLength="136" x="533" y="384.332">save &gt;= 60% of earnings</text><path d="M707,366.2461 L707,392.5977 L807,392.5977 L807,376.2461 L797,366.2461 L707,366.2461 " fill="#B0C4DE" filter="url(#fgu9emuiwnfjl)" style="stroke: #6495ED; stroke-width: 1.0;"/><path d="M797,366.2461 L797,376.2461 L807,376.2461 L797,366.2461 " fill="#B0C4DE" style="stroke: #6495ED; stroke-width: 1.0;"/><text fill="#FFFFFF" font-family="sans-serif" font-size="13" font-style="italic" lengthAdjust="spacingAndGlyphs" textLength="79" x="713" y="384.7412">act your wage</text><rect fill="#FFFFF0" filter="url(#fgu9emuiwnfjl)" height="35.0938" rx="12.5" ry="12.5" style="stroke: #6495ED; stroke-width: 1.5;" width="164" x="827" y="361.875"/><text fill="#A9A9A9" font-family="sans-serif" font-size="12" lengthAdjust="spacingAndGlyphs" textLength="144" x="837" y="384.332">live off &lt;= 40% of earnings</text><rect fill="#000000" filter="url(#fgu9emuiwnfjl)" height="6" rx="2.5" ry="2.5" style="stroke: #000000; stroke-width: 1.0;" width="496" x="509" y="416.9688"/><polygon fill="#FFFFF0" filter="url(#fgu9emuiwnfjl)" points="757,157.6406,769,169.6406,757,181.6406,745,169.6406,757,157.6406" style="stroke: #6495ED; stroke-width: 1.5;"/><polygon fill="#FFFFF0" filter="url(#fgu9emuiwnfjl)" points="707.5,442.9688,806.5,442.9688,818.5,454.9688,806.5,466.9688,707.5,466.9688,695.5,454.9688,707.5,442.9688" style="stroke: #6495ED; stroke-width: 1.5;"/><text fill="#A9A9A9" font-family="sans-serif" font-size="11" lengthAdjust="spacingAndGlyphs" textLength="99" x="707.5" y="459.4697">have money for deal</text><rect fill="#000000" filter="url(#fgu9emuiwnfjl)" height="6" rx="2.5" ry="2.5" style="stroke: #000000; stroke-width: 1.0;" width="1033" x="10" y="486.9688"/><rect fill="#FFFFF0" filter="url(#fgu9emuiwnfjl)" height="35.0938" rx="12.5" ry="12.5" style="stroke: #6495ED; stroke-width: 1.5;" width="114" x="469.5" y="512.9688"/><text fill="#A9A9A9" font-family="sans-serif" font-size="12" lengthAdjust="spacingAndGlyphs" textLength="94" x="479.5" y="535.4258">do (another) deal</text><rect fill="#FFFFF0" filter="url(#fgu9emuiwnfjl)" height="35.0938" rx="12.5" ry="12.5" style="stroke: #6495ED; stroke-width: 1.5;" width="103" x="475" y="568.0625"/><text fill="#A9A9A9" font-family="sans-serif" font-size="12" lengthAdjust="spacingAndGlyphs" textLength="83" x="485" y="590.5195">review process</text><polygon fill="#FFFFF0" filter="url(#fgu9emuiwnfjl)" points="526.5,87.6406,538.5,99.6406,526.5,111.6406,514.5,99.6406,526.5,87.6406" style="stroke: #6495ED; stroke-width: 1.5;"/><polygon fill="#FFFFF0" filter="url(#fgu9emuiwnfjl)" points="460.5,623.1563,592.5,623.1563,604.5,635.1563,592.5,647.1563,460.5,647.1563,448.5,635.1563,460.5,623.1563" style="stroke: #6495ED; stroke-width: 1.5;"/><text fill="#A9A9A9" font-family="sans-serif" font-size="11" lengthAdjust="spacingAndGlyphs" textLength="132" x="460.5" y="639.6572">can live off passive income</text><rect fill="#FFFFF0" filter="url(#fgu9emuiwnfjl)" height="35.0938" rx="12.5" ry="12.5" style="stroke: #6495ED; stroke-width: 1.5;" width="60" x="496.5" y="689.4092"/><text fill="#A9A9A9" font-family="sans-serif" font-size="12" lengthAdjust="spacingAndGlyphs" textLength="40" x="506.5" y="711.8662">quit job</text><ellipse cx="526.5" cy="754.5029" fill="#FFFFFF" filter="url(#fgu9emuiwnfjl)" rx="10" ry="10" style="stroke: #FF0000; stroke-width: 1.5;"/><line style="stroke: #FF0000; stroke-width: 2.5;" x1="520.3128" x2="532.6872" y1="748.3157" y2="760.6901"/><line style="stroke: #FF0000; stroke-width: 2.5;" x1="532.6872" x2="520.3128" y1="748.3157" y2="760.6901"/><line style="stroke: #696969; stroke-width: 1.5;" x1="236" x2="236" y1="291.8281" y2="326.8281"/><polygon fill="#696969" points="232,316.8281,236,326.8281,240,316.8281,236,320.8281" style="stroke: #696969; stroke-width: 1.0;"/><line style="stroke: #696969; stroke-width: 1.5;" x1="416.5" x2="416.5" y1="291.8281" y2="326.8281"/><polygon fill="#696969" points="412.5,316.8281,416.5,326.8281,420.5,316.8281,416.5,320.8281" style="stroke: #696969; stroke-width: 1.0;"/><line style="stroke: #696969; stroke-width: 1.5;" x1="757" x2="757" y1="236.7344" y2="265.7813"/><polygon fill="#696969" points="753,255.7813,757,265.7813,761,255.7813,757,259.7813" style="stroke: #696969; stroke-width: 1.0;"/><line style="stroke: #696969; stroke-width: 1.5;" x1="601" x2="601" y1="341.875" y2="361.875"/><polygon fill="#696969" points="597,351.875,601,361.875,605,351.875,601,355.875" style="stroke: #696969; stroke-width: 1.0;"/><line style="stroke: #696969; stroke-width: 1.5;" x1="909" x2="909" y1="341.875" y2="361.875"/><polygon fill="#696969" points="905,351.875,909,361.875,913,351.875,909,355.875" style="stroke: #696969; stroke-width: 1.0;"/><line style="stroke: #696969; stroke-width: 1.5;" x1="601" x2="601" y1="396.9688" y2="416.9688"/><polygon fill="#696969" points="597,406.9688,601,416.9688,605,406.9688,601,410.9688" style="stroke: #696969; stroke-width: 1.0;"/><line style="stroke: #696969; stroke-width: 1.5;" x1="909" x2="909" y1="396.9688" y2="416.9688"/><polygon fill="#696969" points="905,406.9688,909,416.9688,913,406.9688,909,410.9688" style="stroke: #696969; stroke-width: 1.0;"/><line style="stroke: #696969; stroke-width: 1.5;" x1="757" x2="757" y1="300.875" y2="335.875"/><polygon fill="#696969" points="753,325.875,757,335.875,761,325.875,757,329.875" style="stroke: #696969; stroke-width: 1.0;"/><line style="stroke: #696969; stroke-width: 1.5;" x1="757" x2="757" y1="181.6406" y2="201.6406"/><polygon fill="#696969" points="753,191.6406,757,201.6406,761,191.6406,757,195.6406" style="stroke: #696969; stroke-width: 1.0;"/><line style="stroke: #696969; stroke-width: 1.5;" x1="818.5" x2="1017" y1="454.9688" y2="454.9688"/><polygon fill="#696969" points="1013,319.3281,1017,309.3281,1021,319.3281,1017,315.3281" style="stroke: #696969; stroke-width: 1.5;"/><line style="stroke: #696969; stroke-width: 1.5;" x1="1017" x2="1017" y1="169.6406" y2="454.9688"/><line style="stroke: #696969; stroke-width: 1.5;" x1="1017" x2="769" y1="169.6406" y2="169.6406"/><polygon fill="#696969" points="779,165.6406,769,169.6406,779,173.6406,775,169.6406" style="stroke: #696969; stroke-width: 1.0;"/><line style="stroke: #696969; stroke-width: 1.5;" x1="757" x2="757" y1="422.9688" y2="442.9688"/><polygon fill="#696969" points="753,432.9688,757,442.9688,761,432.9688,757,436.9688" style="stroke: #696969; stroke-width: 1.0;"/><line style="stroke: #696969; stroke-width: 1.5;" x1="72" x2="72" y1="137.6406" y2="291.7813"/><polygon fill="#696969" points="68,281.7813,72,291.7813,76,281.7813,72,285.7813" style="stroke: #696969; stroke-width: 1.0;"/><line style="stroke: #696969; stroke-width: 1.5;" x1="236" x2="236" y1="137.6406" y2="256.7344"/><polygon fill="#696969" points="232,246.7344,236,256.7344,240,246.7344,236,250.7344" style="stroke: #696969; stroke-width: 1.0;"/><line style="stroke: #696969; stroke-width: 1.5;" x1="416.5" x2="416.5" y1="137.6406" y2="256.7344"/><polygon fill="#696969" points="412.5,246.7344,416.5,256.7344,420.5,246.7344,416.5,250.7344" style="stroke: #696969; stroke-width: 1.0;"/><line style="stroke: #696969; stroke-width: 1.5;" x1="757" x2="757" y1="137.6406" y2="157.6406"/><polygon fill="#696969" points="753,147.6406,757,157.6406,761,147.6406,757,151.6406" style="stroke: #696969; stroke-width: 1.0;"/><line style="stroke: #696969; stroke-width: 1.5;" x1="72" x2="72" y1="326.875" y2="486.9688"/><polygon fill="#696969" points="68,476.9688,72,486.9688,76,476.9688,72,480.9688" style="stroke: #696969; stroke-width: 1.0;"/><line style="stroke: #696969; stroke-width: 1.5;" x1="236" x2="236" y1="361.9219" y2="486.9688"/><polygon fill="#696969" points="232,476.9688,236,486.9688,240,476.9688,236,480.9688" style="stroke: #696969; stroke-width: 1.0;"/><line style="stroke: #696969; stroke-width: 1.5;" x1="416.5" x2="416.5" y1="361.9219" y2="486.9688"/><polygon fill="#696969" points="412.5,476.9688,416.5,486.9688,420.5,476.9688,416.5,480.9688" style="stroke: #696969; stroke-width: 1.0;"/><line style="stroke: #696969; stroke-width: 1.5;" x1="757" x2="757" y1="466.9688" y2="486.9688"/><polygon fill="#696969" points="753,476.9688,757,486.9688,761,476.9688,757,480.9688" style="stroke: #696969; stroke-width: 1.0;"/><text fill="#696969" font-family="sans-serif" font-size="11" lengthAdjust="spacingAndGlyphs" textLength="18" x="761" y="481.4697">yes</text><line style="stroke: #696969; stroke-width: 1.5;" x1="526.5" x2="526.5" y1="492.9688" y2="512.9688"/><polygon fill="#696969" points="522.5,502.9688,526.5,512.9688,530.5,502.9688,526.5,506.9688" style="stroke: #696969; stroke-width: 1.0;"/><line style="stroke: #696969; stroke-width: 1.5;" x1="526.5" x2="526.5" y1="548.0625" y2="568.0625"/><polygon fill="#696969" points="522.5,558.0625,526.5,568.0625,530.5,558.0625,526.5,562.0625" style="stroke: #696969; stroke-width: 1.0;"/><line style="stroke: #696969; stroke-width: 1.5;" x1="526.5" x2="526.5" y1="111.6406" y2="131.6406"/><polygon fill="#696969" points="522.5,121.6406,526.5,131.6406,530.5,121.6406,526.5,125.6406" style="stroke: #696969; stroke-width: 1.0;"/><line style="stroke: #696969; stroke-width: 1.5;" x1="604.5" x2="1055" y1="635.1563" y2="635.1563"/><polygon fill="#696969" points="1051,389.4219,1055,379.4219,1059,389.4219,1055,385.4219" style="stroke: #696969; stroke-width: 1.5;"/><line style="stroke: #696969; stroke-width: 1.5;" x1="1055" x2="1055" y1="99.6406" y2="635.1563"/><line style="stroke: #696969; stroke-width: 1.5;" x1="1055" x2="538.5" y1="99.6406" y2="99.6406"/><polygon fill="#696969" points="548.5,95.6406,538.5,99.6406,548.5,103.6406,544.5,99.6406" style="stroke: #696969; stroke-width: 1.0;"/><line style="stroke: #696969; stroke-width: 1.5;" x1="526.5" x2="526.5" y1="603.1563" y2="623.1563"/><polygon fill="#696969" points="522.5,613.1563,526.5,623.1563,530.5,613.1563,526.5,617.1563" style="stroke: #696969; stroke-width: 1.0;"/><line style="stroke: #696969; stroke-width: 1.5;" x1="526.5" x2="526.5" y1="67.6406" y2="87.6406"/><polygon fill="#696969" points="522.5,77.6406,526.5,87.6406,530.5,77.6406,526.5,81.6406" style="stroke: #696969; stroke-width: 1.0;"/><line style="stroke: #696969; stroke-width: 1.5;" x1="526.5" x2="526.5" y1="647.1563" y2="689.4092"/><polygon fill="#696969" points="522.5,679.4092,526.5,689.4092,530.5,679.4092,526.5,683.4092" style="stroke: #696969; stroke-width: 1.0;"/><text fill="#696969" font-family="sans-serif" font-size="11" lengthAdjust="spacingAndGlyphs" textLength="18" x="530.5" y="669.4922">yes</text><line style="stroke: #696969; stroke-width: 1.5;" x1="526.5" x2="526.5" y1="724.5029" y2="744.5029"/><polygon fill="#696969" points="522.5,734.5029,526.5,744.5029,530.5,734.5029,526.5,738.5029" style="stroke: #696969; stroke-width: 1.0;"/><text fill="#888888" font-family="sans-serif" font-size="10" lengthAdjust="spacingAndGlyphs" textLength="199" x="440" y="773.8838">Generated Sat Apr 13 18:09:02 CDT 2019</text><text fill="#888888" font-family="sans-serif" font-size="10" lengthAdjust="spacingAndGlyphs" textLength="129" x="475" y="786.4619">©2019 LifeStyles Unlimited</text><!--
@startuml investor-life


skinparam {
  BorderColor red
  
}

skinparam Title {
  FontColor Navy
  BackgroundColor PaleGoldenRod
  BorderColor Navy
  BorderRoundCorner 20
}

skinparam activity {
  BackgroundColor Ivory
  BorderColor CornflowerBlue
  FontColor DarkGray

  Arrow {
    Color dimgray
    FontColor dimgray
  }

  Start {
    Color Navy
  }

  End {
    Color Red
  }

  Diamond {
    BackgroundColor Ivory
    BorderColor CornflowerBlue
    FontColor DarkGray
  }

  BackgroundColor<< Exception >> Red
	BorderColor<< Exception >> White
}

skinparam Swimlane {
  BorderColor CornflowerBlue 
}

skinparam Partition {
  BackgroundColor DarkSeaGreen
  BorderColor CornflowerBlue
  BorderThickness 1
  FontColor White
  FontSize 16
}
skinparam Note {
  BackgroundColor LightSteelBlue
  BorderColor CornflowerBlue
  FontColor White
}


	Title Investor Life

	start

		repeat

			fork
				:learn process;
			fork again
				:conventional prequalification;
				:hard money prequalification;
			fork again
				:build team;
				:build alternate team;
			fork again
				repeat
					[[http://plantuml.com]]:work;
					:paycheck;
					fork
					:save >= 60% of earnings;
					fork again
					:live off <= 40% of earnings;
					floating note left:<i>act your wage
					end fork

				repeat while (have money for deal)
				->yes;
			end fork
			:do (another) deal;
			:review process;
		repeat while (can live off passive income)
		->yes;
		:quit job;



	end

footer 
Generated Sat Apr 13 18:09:02 CDT 2019
©2019 LifeStyles Unlimited
endfooter

@enduml

PlantUML version 1.2019.03(Sun Mar 10 06:04:44 CDT 2019)
(GPL source distribution)
Java Runtime: Java(TM) SE Runtime Environment
JVM: Java HotSpot(TM) 64-Bit Server VM
Java Version: 1.8.0_111-b14
Operating System: Windows 10
OS Version: 10.0
Default Encoding: Cp1252
Language: en
Country: US
--></g></svg>