<?xml version="1.0" encoding="UTF-8" standalone="no"?><svg xmlns="http://www.w3.org/2000/svg" xmlns:xlink="http://www.w3.org/1999/xlink" contentScriptType="application/ecmascript" contentStyleType="text/css" height="618px" preserveAspectRatio="none" style="width:602px;height:618px;" version="1.1" viewBox="0 0 602 618" width="602px" zoomAndPan="magnify"><defs><style type="text/css"><![CDATA[path:hover { stroke: #0000FF !important;}]]></style><filter height="300%" id="f1c7n2xw3nrz81" width="300%" x="-1" y="-1"><feGaussianBlur result="blurOut" stdDeviation="2.0"/><feColorMatrix in="blurOut" result="blurOut2" type="matrix" values="0 0 0 0 0 0 0 0 0 0 0 0 0 0 0 0 0 0 .4 0"/><feOffset dx="4.0" dy="4.0" in="blurOut2" result="blurOut3"/><feBlend in="SourceGraphic" in2="blurOut3" mode="normal"/></filter></defs><g><a href="../index.svg?sanitize=true" target="_top" xlink:actuate="onRequest" xlink:show="new" xlink:title="../index.svg?sanitize=true" xlink:type="simple"><text fill="#0000FF" font-family="sans-serif" font-size="24" lengthAdjust="spacingAndGlyphs" text-decoration="underline" textLength="90" x="10" y="34.9141">⌂ Home</text></a><rect fill="#EEE8AA" height="40.1875" rx="10" ry="10" style="stroke: #000080; stroke-width: 1.5;" width="208" x="195.5" y="42.1875"/><text fill="#000080" font-family="sans-serif" font-size="24" lengthAdjust="spacingAndGlyphs" textLength="192" x="203.5" y="72.1016">Guide to Symbols</text><ellipse cx="300" cy="95.375" fill="#CCFFCC" filter="url(#f1c7n2xw3nrz81)" rx="10" ry="10" style="stroke: none; stroke-width: 1.0;"/><rect fill="#FFFFF0" filter="url(#f1c7n2xw3nrz81)" height="35.0938" rx="12.5" ry="12.5" style="stroke: #6495ED; stroke-width: 1.0;" width="55" x="272.5" y="147.6279"/><text fill="#696969" font-family="sans-serif" font-size="12" lengthAdjust="spacingAndGlyphs" textLength="35" x="282.5" y="170.085">activity</text><polygon fill="#FFFFF0" filter="url(#f1c7n2xw3nrz81)" points="280,202.7217,320,202.7217,332,214.7217,320,226.7217,280,226.7217,268,214.7217,280,202.7217" style="stroke: #6495ED; stroke-width: 1.0;"/><text fill="#A9A9A9" font-family="sans-serif" font-size="11" lengthAdjust="spacingAndGlyphs" textLength="40" x="280" y="219.2227">decision</text><text fill="#696969" font-family="sans-serif" font-size="11" lengthAdjust="spacingAndGlyphs" textLength="21" x="332" y="212.3047">stop</text><ellipse cx="375" cy="214.7217" fill="#FFFFFF" filter="url(#f1c7n2xw3nrz81)" rx="11" ry="11" style="stroke: #FF7F50; stroke-width: 1.0;"/><ellipse cx="375" cy="214.7217" fill="#FF7F50" rx="6" ry="6" style="stroke: #FFBFA7; stroke-width: 1.0;"/><rect fill="#000000" filter="url(#f1c7n2xw3nrz81)" height="6" rx="2.5" ry="2.5" style="stroke: #000000; stroke-width: 1.0;" width="574" x="10" y="246.7217"/><path d="M126,303.9639 L126,346.667 L316,346.667 L316,313.9639 L306,303.9639 L126,303.9639 " fill="#B0C4DE" filter="url(#f1c7n2xw3nrz81)" style="stroke: #6495ED; stroke-width: 1.0;"/><path d="M306,303.9639 L306,313.9639 L316,313.9639 L306,303.9639 " fill="#B0C4DE" style="stroke: #6495ED; stroke-width: 1.0;"/><text fill="#FFFFFF" font-family="sans-serif" font-size="13" lengthAdjust="spacingAndGlyphs" textLength="169" x="132" y="322.459">two things happening at once</text><text fill="#FFFFFF" font-family="sans-serif" font-size="13" lengthAdjust="spacingAndGlyphs" textLength="91" x="132" y="338.8105">or an alternative</text><rect fill="#CCFFCC" filter="url(#f1c7n2xw3nrz81)" height="35.0938" style="stroke: #6495ED; stroke-width: 1.0;" width="94" x="22" y="307.7686"/><path d="M36,321.8623 L36,322.8623 L35.25,322.8623 C34.564,322.8623 34,323.4263 34,324.1123 L34,324.6123 C34,325.2903 34.437,325.8543 35.094,326.0183 L37.657,326.6743 C37.8,326.7103 38.001,326.9703 38.001,327.1123 L38.001,327.6123 C38.001,327.7463 37.885,327.8623 37.751,327.8623 L35.251,327.8623 C35.135,327.8623 35.039,327.8253 35.001,327.7993 L35.001,326.8613 L34.001,326.8613 L34.001,327.8613 C34.001,328.2033 34.204,328.4883 34.439,328.6423 C34.673,328.7973 34.957,328.8613 35.252,328.8613 L36.002,328.8613 L36.002,329.8613 L37.002,329.8613 L37.002,328.8613 L37.752,328.8613 C38.438,328.8613 39.002,328.2973 39.002,327.6113 L39.002,327.1113 C39.002,326.4333 38.565,325.8693 37.908,325.7053 L35.345,325.0493 C35.202,325.0133 35.001,324.7533 35.001,324.6113 L35.001,324.1113 C35.001,323.9773 35.117,323.8613 35.251,323.8613 L37.751,323.8613 C37.867,323.8613 37.963,323.8983 38.001,323.9243 L38.001,324.8623 L39.001,324.8623 L39.001,323.8623 C39.001,323.5203 38.798,323.2353 38.563,323.0813 C38.329,322.9263 38.045,322.8623 37.75,322.8623 L37,322.8623 L37,321.8623 L36,321.8623 " fill="#696969" style="stroke: ; stroke-width: 0.0; stroke-dasharray: ;"/><text fill="#696969" font-family="sans-serif" font-size="12" lengthAdjust="spacingAndGlyphs" textLength="61" x="45" y="330.2256">money 150</text><rect fill="#FFB6C1" filter="url(#f1c7n2xw3nrz81)" height="35.0938" rx="12.5" ry="12.5" style="stroke: #6495ED; stroke-width: 1.0;" width="67" x="35.5" y="381.667"/><text fill="#696969" font-family="sans-serif" font-size="12" lengthAdjust="spacingAndGlyphs" textLength="47" x="45.5" y="404.124">Problem</text><rect fill="#FFFFF0" filter="url(#f1c7n2xw3nrz81)" height="35.0938" style="stroke: #6495ED; stroke-width: 1.0;" width="75" x="367" y="272.7217"/><text fill="#696969" font-family="sans-serif" font-size="12" lengthAdjust="spacingAndGlyphs" textLength="55" x="377" y="295.1787">document</text><rect fill="#87CEFA" filter="url(#f1c7n2xw3nrz81)" height="35.0938" style="stroke: #6495ED; stroke-width: 1.0;" width="120" x="344.5" y="342.8154"/><text fill="#696969" font-family="sans-serif" font-size="12" lengthAdjust="spacingAndGlyphs" textLength="100" x="354.5" y="365.2725">link to a document</text><rect fill="#87CEFA" filter="url(#f1c7n2xw3nrz81)" height="35.0938" rx="12.5" ry="12.5" style="stroke: #6495ED; stroke-width: 1.0;" width="121" x="344" y="412.9092"/><path d="M359,427.0029 C356.79,427.0029 355,428.7929 355,431.0029 C355,433.2129 356.79,435.0029 359,435.0029 C361.21,435.0029 363,433.2129 363,431.0029 C363,428.7929 361.21,427.0029 359,427.0029 M359,428.0029 C359.333,428.0029 359.637,428.0889 359.938,428.1909 C359.724,428.3879 359.488,428.5739 359.532,428.7539 C359.572,428.9339 360.22,428.8839 360.22,429.2539 C360.22,429.5239 359.795,429.5999 360.095,429.9099 C360.445,430.2599 359.459,430.8879 359.439,431.3479 C359.409,432.1779 360.28,432.3169 360.97,432.3169 C361.394,432.3169 361.473,432.5119 361.439,432.7549 C360.893,433.5129 360.001,434.0049 359.001,434.0049 C358.623,434.0049 358.272,433.9149 357.938,433.7859 C358.162,433.3439 357.625,432.4419 357.157,432.1609 C356.931,431.9349 356.468,432.0469 356.188,431.9419 C356.096,431.6709 356.01,431.3969 356,431.0979 C356.031,431.0479 356.081,431.0039 356.156,431.0039 C356.346,431.0039 356.61,431.3779 356.75,431.3479 C356.93,431.3079 356.008,430.0349 356.437,429.7849 C356.637,429.6649 357.046,430.1789 356.906,429.6289 C356.786,429.1189 357.272,429.3529 357.562,429.2229 C357.822,429.1129 358.017,428.8089 357.687,428.6289 L357.468,428.4409 C357.918,428.1709 358.44,428.0029 358.999,428.0029 M361.312,429.0969 C361.496,429.3189 361.635,429.5779 361.75,429.8469 L361.562,430.0659 C361.272,430.3359 361.235,429.8539 361.124,429.7529 C360.994,429.6429 360.486,429.7779 360.436,429.6279 C360.359,429.4469 360.935,429.2099 361.311,429.0969 " fill="#696969" style="stroke: ; stroke-width: 0.0; stroke-dasharray: ;"/><text fill="#696969" font-family="sans-serif" font-size="12" lengthAdjust="spacingAndGlyphs" textLength="88" x="367" y="435.3662">link to a website</text><polygon fill="#FFFFF0" filter="url(#f1c7n2xw3nrz81)" points="475,307.7686,570,307.7686,580,325.3154,570,342.8623,475,342.8623" style="stroke: #6495ED; stroke-width: 1.0;"/><path d="M490,321.8623 C487.797,321.8623 486,323.6593 486,325.8623 C486,328.0653 487.797,329.8623 490,329.8623 C492.203,329.8623 494,328.0653 494,325.8623 C494,323.6593 492.203,321.8623 490,321.8623 M490,322.8623 C491.663,322.8623 493,324.1993 493,325.8623 C493,327.5253 491.663,328.8623 490,328.8623 C488.337,328.8623 487,327.5253 487,325.8623 C487,324.1993 488.337,322.8623 490,322.8623 M489.5,323.8623 L489.5,326.0813 L489.656,326.2063 L490.156,326.7063 L490.5,327.0813 L491.219,326.3623 L490.844,326.0183 L490.5,325.6743 L490.5,323.8613 L489.5,323.8613 " fill="#696969" style="stroke: ; stroke-width: 0.0; stroke-dasharray: ;"/><text fill="#696969" font-family="sans-serif" font-size="12" lengthAdjust="spacingAndGlyphs" textLength="62" x="498" y="330.2256">time period</text><rect fill="#FFB6C1" filter="url(#f1c7n2xw3nrz81)" height="35.0938" rx="12.5" ry="12.5" style="stroke: #6495ED; stroke-width: 1.0;" width="81" x="482" y="377.8623"/><text fill="#696969" font-family="sans-serif" font-size="12" lengthAdjust="spacingAndGlyphs" textLength="61" x="492" y="400.3193">Time is out</text><rect fill="#000000" filter="url(#f1c7n2xw3nrz81)" height="6" rx="2.5" ry="2.5" style="stroke: #000000; stroke-width: 1.0;" width="574" x="10" y="468.0029"/><rect fill="#87CEFA" filter="url(#f1c7n2xw3nrz81)" height="35.0938" rx="12.5" ry="12.5" style="stroke: #6495ED; stroke-width: 1.0;" width="152" x="224" y="494.0029"/><text fill="#696969" font-family="sans-serif" font-size="12" lengthAdjust="spacingAndGlyphs" textLength="132" x="234" y="516.46">link to another flow chart</text><ellipse cx="300" cy="581.3496" fill="#FFFFFF" filter="url(#f1c7n2xw3nrz81)" rx="10" ry="10" style="stroke: #FF7F50; stroke-width: 1.5;"/><line style="stroke: #FF7F50; stroke-width: 2.5;" x1="293.8128" x2="306.1872" y1="575.1624" y2="587.5368"/><line style="stroke: #FF7F50; stroke-width: 2.5;" x1="306.1872" x2="293.8128" y1="575.1624" y2="587.5368"/><line style="stroke: #696969; stroke-width: 1.5;" x1="300" x2="300" y1="105.375" y2="147.6279"/><polygon fill="#696969" points="296,137.6279,300,147.6279,304,137.6279,300,141.6279" style="stroke: #696969; stroke-width: 1.0;"/><text fill="#696969" font-family="sans-serif" font-size="11" lengthAdjust="spacingAndGlyphs" textLength="22" x="304" y="127.7109">start</text><line style="stroke: #696969; stroke-width: 1.5;" x1="300" x2="300" y1="226.7217" y2="246.7217"/><polygon fill="#696969" points="296,236.7217,300,246.7217,304,236.7217,300,240.7217" style="stroke: #696969; stroke-width: 1.0;"/><line style="stroke: #696969; stroke-width: 1.5;" x1="332" x2="364" y1="214.7217" y2="214.7217"/><polygon fill="#696969" points="354,210.7217,364,214.7217,354,218.7217,358,214.7217" style="stroke: #696969; stroke-width: 1.0;"/><line style="stroke: #696969; stroke-width: 1.5;" x1="300" x2="300" y1="182.7217" y2="202.7217"/><polygon fill="#696969" points="296,192.7217,300,202.7217,304,192.7217,300,196.7217" style="stroke: #696969; stroke-width: 1.0;"/><line style="stroke: #696969; stroke-width: 1.5;" x1="69" x2="69" y1="342.8623" y2="381.667"/><polygon fill="#696969" points="65,371.667,69,381.667,73,371.667,69,375.667" style="stroke: #696969; stroke-width: 1.0;"/><line style="stroke: #696969; stroke-width: 1.5;" x1="404.5" x2="404.5" y1="307.8154" y2="342.8154"/><polygon fill="#696969" points="400.5,332.8154,404.5,342.8154,408.5,332.8154,404.5,336.8154" style="stroke: #696969; stroke-width: 1.0;"/><line style="stroke: #696969; stroke-width: 1.5;" x1="404.5" x2="404.5" y1="377.9092" y2="412.9092"/><polygon fill="#696969" points="400.5,402.9092,404.5,412.9092,408.5,402.9092,404.5,406.9092" style="stroke: #696969; stroke-width: 1.0;"/><line style="stroke: #696969; stroke-width: 1.5;" x1="522.5" x2="522.5" y1="342.8623" y2="377.8623"/><polygon fill="#696969" points="518.5,367.8623,522.5,377.8623,526.5,367.8623,522.5,371.8623" style="stroke: #696969; stroke-width: 1.0;"/><line style="stroke: #696969; stroke-width: 1.5;" x1="69" x2="69" y1="252.7217" y2="307.7686"/><polygon fill="#696969" points="65,297.7686,69,307.7686,73,297.7686,69,301.7686" style="stroke: #696969; stroke-width: 1.0;"/><line style="stroke: #696969; stroke-width: 1.5;" x1="404.5" x2="404.5" y1="252.7217" y2="272.7217"/><polygon fill="#696969" points="400.5,262.7217,404.5,272.7217,408.5,262.7217,404.5,266.7217" style="stroke: #696969; stroke-width: 1.0;"/><line style="stroke: #696969; stroke-width: 1.5;" x1="522.5" x2="522.5" y1="252.7217" y2="307.7686"/><polygon fill="#696969" points="518.5,297.7686,522.5,307.7686,526.5,297.7686,522.5,301.7686" style="stroke: #696969; stroke-width: 1.0;"/><line style="stroke: #696969; stroke-width: 1.5;" x1="69" x2="69" y1="416.7607" y2="468.0029"/><polygon fill="#696969" points="65,458.0029,69,468.0029,73,458.0029,69,462.0029" style="stroke: #696969; stroke-width: 1.0;"/><line style="stroke: #696969; stroke-width: 1.5;" x1="404.5" x2="404.5" y1="448.0029" y2="468.0029"/><polygon fill="#696969" points="400.5,458.0029,404.5,468.0029,408.5,458.0029,404.5,462.0029" style="stroke: #696969; stroke-width: 1.0;"/><line style="stroke: #696969; stroke-width: 1.5;" x1="522.5" x2="522.5" y1="412.9561" y2="468.0029"/><polygon fill="#696969" points="518.5,458.0029,522.5,468.0029,526.5,458.0029,522.5,462.0029" style="stroke: #696969; stroke-width: 1.0;"/><line style="stroke: #696969; stroke-width: 1.5;" x1="300" x2="300" y1="474.0029" y2="494.0029"/><polygon fill="#696969" points="296,484.0029,300,494.0029,304,484.0029,300,488.0029" style="stroke: #696969; stroke-width: 1.0;"/><line style="stroke: #696969; stroke-width: 1.5;" x1="300" x2="300" y1="529.0967" y2="571.3496"/><polygon fill="#696969" points="296,561.3496,300,571.3496,304,561.3496,300,565.3496" style="stroke: #696969; stroke-width: 1.0;"/><text fill="#696969" font-family="sans-serif" font-size="11" lengthAdjust="spacingAndGlyphs" textLength="18" x="304" y="551.4326">end</text><text fill="#000080" font-family="sans-serif" font-size="14" lengthAdjust="spacingAndGlyphs" textLength="42" x="10" y="604.8828">©2019</text><a href="http://www.lifestylesunlimited.com" target="_top" xlink:actuate="onRequest" xlink:show="new" xlink:title="http://www.lifestylesunlimited.com" xlink:type="simple"><text fill="#0000FF" font-family="sans-serif" font-size="14" lengthAdjust="spacingAndGlyphs" text-decoration="underline" textLength="122" x="56" y="604.8828">LifeStyles Unlimited</text></a><text fill="#000080" font-family="sans-serif" font-size="14" lengthAdjust="spacingAndGlyphs" textLength="131" x="182" y="604.8828">| Generated %date%</text><!--
@startuml symbol-guide


skinparam {
  BorderColor Red
  PathHoverColor Blue
}

skinparam Title {
  FontColor Navy
  BackgroundColor PaleGoldenRod
  BorderColor Navy
  BorderRoundCorner 20
  FontSize 24
}

skinparam activity {
  BackgroundColor Ivory
  BorderColor CornflowerBlue
  BorderThickness 1
  FontColor DimGray
  

  Arrow {
    Color dimgray
    FontColor dimgray
  }

  Start {
    Color PHYSICAL
  }

  End {
    Color Coral
  }

  Diamond {
    BackgroundColor Ivory
    BorderColor CornflowerBlue
    FontColor DarkGray
  }

  BackgroundColor<< Exception >> Red
	BorderColor<< Exception >> White
}

skinparam Swimlane {
  BorderColor CornflowerBlue 
}

skinparam Partition {
  BackgroundColor Ivory
  BorderColor CornflowerBlue
  BorderThickness 1
  FontColor CornflowerBlue
  FontSize 16
  BorderRoundCorner 20
}

skinparam Note {
  BackgroundColor LightSteelBlue
  BorderColor CornflowerBlue
  FontColor White
}

skinparam Legend {
  BackgroundColor LightSteelBlue
  BorderColor CornflowerBlue
  FontColor White
}

skinparam Footer {
  FontColor Navy
}


left header 
	<font color=Navy size=24>[[../index.svg?sanitize=true ⌂ Home]]</font>
endheader


	Title Guide to Symbols

	start
	->start;
	:activity;
	if(decision) 
	else
		->stop;
		stop
	endif
	fork
		#PHYSICAL:<&dollar> money 150]
		floating note right:two things happening at once\nor an alternative
		#LightPink:Problem;
	fork again
		:document]
		#LightSkyBlue:link to a document]
		#LightSkyBlue:<&globe> link to a website;
	fork again
		:<&clock> time period>
		#LightPink:Time is out;
	end fork
	#LightSkyBlue:link to another flow chart;
	->end;
	end


left footer 
	<font size=14>©2019 [[http://www.lifestylesunlimited.com LifeStyles Unlimited]] | Generated %date%</font>
endfooter


@enduml

PlantUML version 1.2019.06(Fri May 24 12:10:25 CDT 2019)
(GPL source distribution)
Java Runtime: Java(TM) SE Runtime Environment
JVM: Java HotSpot(TM) Client VM
Java Version: 1.8.0_211-b12
Operating System: Windows 10
OS Version: 10.0
Default Encoding: Cp1252
Language: en
Country: US
--></g></svg>