<?xml version="1.0" encoding="UTF-8" standalone="no"?><svg xmlns="http://www.w3.org/2000/svg" xmlns:xlink="http://www.w3.org/1999/xlink" contentScriptType="application/ecmascript" contentStyleType="text/css" height="618px" preserveAspectRatio="none" style="width:632px;height:618px;" version="1.1" viewBox="0 0 632 618" width="632px" zoomAndPan="magnify"><defs><style type="text/css"><![CDATA[path:hover { stroke: #0000FF !important;}]]></style><filter height="300%" id="f172rznniqn3w5" width="300%" x="-1" y="-1"><feGaussianBlur result="blurOut" stdDeviation="2.0"/><feColorMatrix in="blurOut" result="blurOut2" type="matrix" values="0 0 0 0 0 0 0 0 0 0 0 0 0 0 0 0 0 0 .4 0"/><feOffset dx="4.0" dy="4.0" in="blurOut2" result="blurOut3"/><feBlend in="SourceGraphic" in2="blurOut3" mode="normal"/></filter></defs><g><a target="_top" xlink:actuate="onRequest" xlink:href="../index.svg?sanitize=true" xlink:show="new" xlink:title="../index.svg?sanitize=true" xlink:type="simple"><text fill="#0000FF" font-family="sans-serif" font-size="24" lengthAdjust="spacingAndGlyphs" text-decoration="underline" textLength="90" x="10" y="34.9141">⌂ Home</text><line style="stroke: #0000FF; stroke-width: 1.0;" x1="10" x2="100" y1="36.9141" y2="36.9141"/></a><rect fill="#EEE8AA" height="40.1875" rx="10" ry="10" style="stroke: #000080; stroke-width: 1.5;" width="208" x="210.5" y="42.1875"/><text fill="#000080" font-family="sans-serif" font-size="24" lengthAdjust="spacingAndGlyphs" textLength="192" x="218.5" y="72.1016">Guide to Symbols</text><ellipse cx="312" cy="95.375" fill="#CCFFCC" filter="url(#f172rznniqn3w5)" rx="10" ry="10" style="stroke: none; stroke-width: 1.0;"/><rect fill="#FFFFF0" filter="url(#f172rznniqn3w5)" height="35.0938" rx="12.5" ry="12.5" style="stroke: #6495ED; stroke-width: 1.0;" width="55" x="284.5" y="147.6279"/><text fill="#696969" font-family="sans-serif" font-size="12" lengthAdjust="spacingAndGlyphs" textLength="35" x="294.5" y="170.085">activity</text><polygon fill="#FFFFF0" filter="url(#f172rznniqn3w5)" points="292,202.7217,332,202.7217,344,214.7217,332,226.7217,292,226.7217,280,214.7217,292,202.7217" style="stroke: #6495ED; stroke-width: 1.0;"/><text fill="#A9A9A9" font-family="sans-serif" font-size="11" lengthAdjust="spacingAndGlyphs" textLength="40" x="292" y="219.2227">decision</text><text fill="#696969" font-family="sans-serif" font-size="11" lengthAdjust="spacingAndGlyphs" textLength="21" x="344" y="212.3047">stop</text><ellipse cx="387" cy="214.7217" fill="#FFFFFF" filter="url(#f172rznniqn3w5)" rx="11" ry="11" style="stroke: #FF7F50; stroke-width: 1.0;"/><ellipse cx="387" cy="214.7217" fill="#FF7F50" rx="6" ry="6" style="stroke: #FFBFA7; stroke-width: 1.0;"/><rect fill="#000000" filter="url(#f172rznniqn3w5)" height="6" rx="2.5" ry="2.5" style="stroke: #000000; stroke-width: 1.0;" width="604" x="10" y="246.7217"/><path d="M138,303.9639 L138,346.667 L328,346.667 L328,313.9639 L318,303.9639 L138,303.9639 " fill="#B0C4DE" filter="url(#f172rznniqn3w5)" style="stroke: #6495ED; stroke-width: 1.0;"/><path d="M318,303.9639 L318,313.9639 L328,313.9639 L318,303.9639 " fill="#B0C4DE" style="stroke: #6495ED; stroke-width: 1.0;"/><text fill="#FFFFFF" font-family="sans-serif" font-size="13" lengthAdjust="spacingAndGlyphs" textLength="169" x="144" y="322.459">two things happening at once</text><text fill="#FFFFFF" font-family="sans-serif" font-size="13" lengthAdjust="spacingAndGlyphs" textLength="91" x="144" y="338.8105">or an alternative</text><rect fill="#CCFFCC" filter="url(#f172rznniqn3w5)" height="35.0938" style="stroke: #6495ED; stroke-width: 1.0;" width="94" x="24" y="307.7686"/><path d="M38,321.8623 L38,322.8623 L37.25,322.8623 C36.564,322.8623 36,323.4263 36,324.1123 L36,324.6123 C36,325.2903 36.437,325.8543 37.094,326.0183 L39.657,326.6743 C39.8,326.7103 40.001,326.9703 40.001,327.1123 L40.001,327.6123 C40.001,327.7463 39.885,327.8623 39.751,327.8623 L37.251,327.8623 C37.135,327.8623 37.039,327.8253 37.001,327.7993 L37.001,326.8613 L36.001,326.8613 L36.001,327.8613 C36.001,328.2033 36.204,328.4883 36.439,328.6423 C36.673,328.7973 36.957,328.8613 37.252,328.8613 L38.002,328.8613 L38.002,329.8613 L39.002,329.8613 L39.002,328.8613 L39.752,328.8613 C40.438,328.8613 41.002,328.2973 41.002,327.6113 L41.002,327.1113 C41.002,326.4333 40.565,325.8693 39.908,325.7053 L37.345,325.0493 C37.202,325.0133 37.001,324.7533 37.001,324.6113 L37.001,324.1113 C37.001,323.9773 37.117,323.8613 37.251,323.8613 L39.751,323.8613 C39.867,323.8613 39.963,323.8983 40.001,323.9243 L40.001,324.8623 L41.001,324.8623 L41.001,323.8623 C41.001,323.5203 40.798,323.2353 40.563,323.0813 C40.329,322.9263 40.045,322.8623 39.75,322.8623 L39,322.8623 L39,321.8623 L38,321.8623 " fill="#696969" style="stroke: ; stroke-width: 0.0; stroke-dasharray: ;"/><text fill="#696969" font-family="sans-serif" font-size="12" lengthAdjust="spacingAndGlyphs" textLength="61" x="47" y="330.2256">money 150</text><rect fill="#FFB6C1" filter="url(#f172rznniqn3w5)" height="35.0938" rx="12.5" ry="12.5" style="stroke: #6495ED; stroke-width: 1.0;" width="67" x="37.5" y="381.667"/><text fill="#696969" font-family="sans-serif" font-size="12" lengthAdjust="spacingAndGlyphs" textLength="47" x="47.5" y="404.124">Problem</text><rect fill="#FFFFF0" filter="url(#f172rznniqn3w5)" height="35.0938" style="stroke: #6495ED; stroke-width: 1.0;" width="75" x="379" y="272.7217"/><text fill="#696969" font-family="sans-serif" font-size="12" lengthAdjust="spacingAndGlyphs" textLength="55" x="389" y="295.1787">document</text><rect fill="#87CEFA" filter="url(#f172rznniqn3w5)" height="35.0938" style="stroke: #6495ED; stroke-width: 1.0;" width="120" x="356.5" y="342.8154"/><text fill="#696969" font-family="sans-serif" font-size="12" lengthAdjust="spacingAndGlyphs" textLength="100" x="366.5" y="365.2725">link to a document</text><rect fill="#87CEFA" filter="url(#f172rznniqn3w5)" height="35.0938" rx="12.5" ry="12.5" style="stroke: #6495ED; stroke-width: 1.0;" width="121" x="356" y="412.9092"/><path d="M371,427.0029 C368.79,427.0029 367,428.7929 367,431.0029 C367,433.2129 368.79,435.0029 371,435.0029 C373.21,435.0029 375,433.2129 375,431.0029 C375,428.7929 373.21,427.0029 371,427.0029 M371,428.0029 C371.333,428.0029 371.637,428.0889 371.938,428.1909 C371.724,428.3879 371.488,428.5739 371.532,428.7539 C371.572,428.9339 372.22,428.8839 372.22,429.2539 C372.22,429.5239 371.795,429.5999 372.095,429.9099 C372.445,430.2599 371.459,430.8879 371.439,431.3479 C371.409,432.1779 372.28,432.3169 372.97,432.3169 C373.394,432.3169 373.473,432.5119 373.439,432.7549 C372.893,433.5129 372.001,434.0049 371.001,434.0049 C370.623,434.0049 370.272,433.9149 369.938,433.7859 C370.162,433.3439 369.625,432.4419 369.157,432.1609 C368.931,431.9349 368.468,432.0469 368.188,431.9419 C368.096,431.6709 368.01,431.3969 368,431.0979 C368.031,431.0479 368.081,431.0039 368.156,431.0039 C368.346,431.0039 368.61,431.3779 368.75,431.3479 C368.93,431.3079 368.008,430.0349 368.437,429.7849 C368.637,429.6649 369.046,430.1789 368.906,429.6289 C368.786,429.1189 369.272,429.3529 369.562,429.2229 C369.822,429.1129 370.017,428.8089 369.687,428.6289 L369.468,428.4409 C369.918,428.1709 370.44,428.0029 370.999,428.0029 M373.312,429.0969 C373.496,429.3189 373.635,429.5779 373.75,429.8469 L373.562,430.0659 C373.272,430.3359 373.235,429.8539 373.124,429.7529 C372.994,429.6429 372.486,429.7779 372.436,429.6279 C372.359,429.4469 372.935,429.2099 373.311,429.0969 " fill="#696969" style="stroke: ; stroke-width: 0.0; stroke-dasharray: ;"/><text fill="#696969" font-family="sans-serif" font-size="12" lengthAdjust="spacingAndGlyphs" textLength="88" x="379" y="435.3662">link to a website</text><polygon fill="#FFFFF0" filter="url(#f172rznniqn3w5)" points="505,307.7686,600,307.7686,610,325.3154,600,342.8623,505,342.8623" style="stroke: #6495ED; stroke-width: 1.0;"/><path d="M520,321.8623 C517.797,321.8623 516,323.6593 516,325.8623 C516,328.0653 517.797,329.8623 520,329.8623 C522.203,329.8623 524,328.0653 524,325.8623 C524,323.6593 522.203,321.8623 520,321.8623 M520,322.8623 C521.663,322.8623 523,324.1993 523,325.8623 C523,327.5253 521.663,328.8623 520,328.8623 C518.337,328.8623 517,327.5253 517,325.8623 C517,324.1993 518.337,322.8623 520,322.8623 M519.5,323.8623 L519.5,326.0813 L519.656,326.2063 L520.156,326.7063 L520.5,327.0813 L521.219,326.3623 L520.844,326.0183 L520.5,325.6743 L520.5,323.8613 L519.5,323.8613 " fill="#696969" style="stroke: ; stroke-width: 0.0; stroke-dasharray: ;"/><text fill="#696969" font-family="sans-serif" font-size="12" lengthAdjust="spacingAndGlyphs" textLength="62" x="528" y="330.2256">time period</text><rect fill="#FFB6C1" filter="url(#f172rznniqn3w5)" height="35.0938" rx="12.5" ry="12.5" style="stroke: #6495ED; stroke-width: 1.0;" width="81" x="512" y="377.8623"/><text fill="#696969" font-family="sans-serif" font-size="12" lengthAdjust="spacingAndGlyphs" textLength="61" x="522" y="400.3193">Time is out</text><rect fill="#000000" filter="url(#f172rznniqn3w5)" height="6" rx="2.5" ry="2.5" style="stroke: #000000; stroke-width: 1.0;" width="604" x="10" y="468.0029"/><rect fill="#87CEFA" filter="url(#f172rznniqn3w5)" height="35.0938" rx="12.5" ry="12.5" style="stroke: #6495ED; stroke-width: 1.0;" width="152" x="236" y="494.0029"/><text fill="#696969" font-family="sans-serif" font-size="12" lengthAdjust="spacingAndGlyphs" textLength="132" x="246" y="516.46">link to another flow chart</text><ellipse cx="312" cy="581.3496" fill="#FFFFFF" filter="url(#f172rznniqn3w5)" rx="10" ry="10" style="stroke: #FF7F50; stroke-width: 1.5;"/><line style="stroke: #FF7F50; stroke-width: 2.5;" x1="305.8128" x2="318.1872" y1="575.1624" y2="587.5368"/><line style="stroke: #FF7F50; stroke-width: 2.5;" x1="318.1872" x2="305.8128" y1="575.1624" y2="587.5368"/><line style="stroke: #696969; stroke-width: 1.5;" x1="312" x2="312" y1="105.375" y2="147.6279"/><polygon fill="#696969" points="308,137.6279,312,147.6279,316,137.6279,312,141.6279" style="stroke: #696969; stroke-width: 1.0;"/><text fill="#696969" font-family="sans-serif" font-size="11" lengthAdjust="spacingAndGlyphs" textLength="22" x="316" y="127.7109">start</text><line style="stroke: #696969; stroke-width: 1.5;" x1="312" x2="312" y1="226.7217" y2="246.7217"/><polygon fill="#696969" points="308,236.7217,312,246.7217,316,236.7217,312,240.7217" style="stroke: #696969; stroke-width: 1.0;"/><line style="stroke: #696969; stroke-width: 1.5;" x1="344" x2="376" y1="214.7217" y2="214.7217"/><polygon fill="#696969" points="366,210.7217,376,214.7217,366,218.7217,370,214.7217" style="stroke: #696969; stroke-width: 1.0;"/><line style="stroke: #696969; stroke-width: 1.5;" x1="312" x2="312" y1="182.7217" y2="202.7217"/><polygon fill="#696969" points="308,192.7217,312,202.7217,316,192.7217,312,196.7217" style="stroke: #696969; stroke-width: 1.0;"/><line style="stroke: #696969; stroke-width: 1.5;" x1="71" x2="71" y1="342.8623" y2="381.667"/><polygon fill="#696969" points="67,371.667,71,381.667,75,371.667,71,375.667" style="stroke: #696969; stroke-width: 1.0;"/><line style="stroke: #696969; stroke-width: 1.5;" x1="416.5" x2="416.5" y1="307.8154" y2="342.8154"/><polygon fill="#696969" points="412.5,332.8154,416.5,342.8154,420.5,332.8154,416.5,336.8154" style="stroke: #696969; stroke-width: 1.0;"/><line style="stroke: #696969; stroke-width: 1.5;" x1="416.5" x2="416.5" y1="377.9092" y2="412.9092"/><polygon fill="#696969" points="412.5,402.9092,416.5,412.9092,420.5,402.9092,416.5,406.9092" style="stroke: #696969; stroke-width: 1.0;"/><line style="stroke: #696969; stroke-width: 1.5;" x1="552.5" x2="552.5" y1="342.8623" y2="377.8623"/><polygon fill="#696969" points="548.5,367.8623,552.5,377.8623,556.5,367.8623,552.5,371.8623" style="stroke: #696969; stroke-width: 1.0;"/><line style="stroke: #696969; stroke-width: 1.5;" x1="71" x2="71" y1="252.7217" y2="307.7686"/><polygon fill="#696969" points="67,297.7686,71,307.7686,75,297.7686,71,301.7686" style="stroke: #696969; stroke-width: 1.0;"/><line style="stroke: #696969; stroke-width: 1.5;" x1="416.5" x2="416.5" y1="252.7217" y2="272.7217"/><polygon fill="#696969" points="412.5,262.7217,416.5,272.7217,420.5,262.7217,416.5,266.7217" style="stroke: #696969; stroke-width: 1.0;"/><line style="stroke: #696969; stroke-width: 1.5;" x1="552.5" x2="552.5" y1="252.7217" y2="307.7686"/><polygon fill="#696969" points="548.5,297.7686,552.5,307.7686,556.5,297.7686,552.5,301.7686" style="stroke: #696969; stroke-width: 1.0;"/><line style="stroke: #696969; stroke-width: 1.5;" x1="71" x2="71" y1="416.7607" y2="468.0029"/><polygon fill="#696969" points="67,458.0029,71,468.0029,75,458.0029,71,462.0029" style="stroke: #696969; stroke-width: 1.0;"/><line style="stroke: #696969; stroke-width: 1.5;" x1="416.5" x2="416.5" y1="448.0029" y2="468.0029"/><polygon fill="#696969" points="412.5,458.0029,416.5,468.0029,420.5,458.0029,416.5,462.0029" style="stroke: #696969; stroke-width: 1.0;"/><line style="stroke: #696969; stroke-width: 1.5;" x1="552.5" x2="552.5" y1="412.9561" y2="468.0029"/><polygon fill="#696969" points="548.5,458.0029,552.5,468.0029,556.5,458.0029,552.5,462.0029" style="stroke: #696969; stroke-width: 1.0;"/><line style="stroke: #696969; stroke-width: 1.5;" x1="312" x2="312" y1="474.0029" y2="494.0029"/><polygon fill="#696969" points="308,484.0029,312,494.0029,316,484.0029,312,488.0029" style="stroke: #696969; stroke-width: 1.0;"/><line style="stroke: #696969; stroke-width: 1.5;" x1="312" x2="312" y1="529.0967" y2="571.3496"/><polygon fill="#696969" points="308,561.3496,312,571.3496,316,561.3496,312,565.3496" style="stroke: #696969; stroke-width: 1.0;"/><text fill="#696969" font-family="sans-serif" font-size="11" lengthAdjust="spacingAndGlyphs" textLength="18" x="316" y="551.4326">end</text><text fill="#000080" font-family="sans-serif" font-size="14" lengthAdjust="spacingAndGlyphs" textLength="42" x="10" y="604.8828">©2019</text><a target="_top" xlink:actuate="onRequest" xlink:href="http://www.lifestylesunlimited.com" xlink:show="new" xlink:title="http://www.lifestylesunlimited.com" xlink:type="simple"><text fill="#0000FF" font-family="sans-serif" font-size="14" lengthAdjust="spacingAndGlyphs" text-decoration="underline" textLength="122" x="56" y="604.8828">LifeStyles Unlimited</text><line style="stroke: #0000FF; stroke-width: 1.0;" x1="56" x2="178" y1="606.8828" y2="606.8828"/></a><text fill="#000080" font-family="sans-serif" font-size="14" lengthAdjust="spacingAndGlyphs" textLength="279" x="182" y="604.8828">| Generated Sat May 18 14:00:33 CDT 2019</text><!--
@startuml symbol-guide


skinparam {
  BorderColor Red
  PathHoverColor Blue
}

skinparam Title {
  FontColor Navy
  BackgroundColor PaleGoldenRod
  BorderColor Navy
  BorderRoundCorner 20
  FontSize 24
}

skinparam activity {
  BackgroundColor Ivory
  BorderColor CornflowerBlue
  BorderThickness 1
  FontColor DimGray
  

  Arrow {
    Color dimgray
    FontColor dimgray
  }

  Start {
    Color PHYSICAL
  }

  End {
    Color Coral
  }

  Diamond {
    BackgroundColor Ivory
    BorderColor CornflowerBlue
    FontColor DarkGray
  }

  BackgroundColor<< Exception >> Red
	BorderColor<< Exception >> White
}

skinparam Swimlane {
  BorderColor CornflowerBlue 
}

skinparam Partition {
  BackgroundColor Ivory
  BorderColor CornflowerBlue
  BorderThickness 1
  FontColor CornflowerBlue
  FontSize 16
  BorderRoundCorner 20
}

skinparam Note {
  BackgroundColor LightSteelBlue
  BorderColor CornflowerBlue
  FontColor White
}

skinparam Legend {
  BackgroundColor LightSteelBlue
  BorderColor CornflowerBlue
  FontColor White
}

skinparam Footer {
  FontColor Navy
}


left header 
	<font color=Navy size=24>[[../index.svg?sanitize=true ⌂ Home]]</font>
endheader


	Title Guide to Symbols

	start
	->start;
	:activity;
	if(decision) 
	else
		->stop;
		stop
	endif
	fork
		#PHYSICAL:<&dollar> money 150]
		floating note right:two things happening at once\nor an alternative
		#LightPink:Problem;
	fork again
		:document]
		#LightSkyBlue:link to a document]
		#LightSkyBlue:<&globe> link to a website;
	fork again
		:<&clock> time period>
		#LightPink:Time is out;
	end fork
	#LightSkyBlue:link to another flow chart;
	->end;
	end


left footer 
	<font size=14>©2019 [[http://www.lifestylesunlimited.com LifeStyles Unlimited]] | Generated Sat May 18 14:00:33 CDT 2019</font>
endfooter


@enduml

PlantUML version 1.2019.03(Sun Mar 10 06:04:44 CDT 2019)
(GPL source distribution)
Java Runtime: Java(TM) SE Runtime Environment
JVM: Java HotSpot(TM) 64-Bit Server VM
Java Version: 1.8.0_111-b14
Operating System: Windows 10
OS Version: 10.0
Default Encoding: Cp1252
Language: en
Country: US
--></g></svg>