<?xml version="1.0" encoding="UTF-8" standalone="no"?><svg xmlns="http://www.w3.org/2000/svg" xmlns:xlink="http://www.w3.org/1999/xlink" contentScriptType="application/ecmascript" contentStyleType="text/css" height="548px" preserveAspectRatio="none" style="width:515px;height:548px;" version="1.1" viewBox="0 0 515 548" width="515px" zoomAndPan="magnify"><defs><style type="text/css"><![CDATA[path:hover { stroke: #0000FF !important;}]]></style><filter height="300%" id="fx8xnpiukcd3l" width="300%" x="-1" y="-1"><feGaussianBlur result="blurOut" stdDeviation="2.0"/><feColorMatrix in="blurOut" result="blurOut2" type="matrix" values="0 0 0 0 0 0 0 0 0 0 0 0 0 0 0 0 0 0 .4 0"/><feOffset dx="4.0" dy="4.0" in="blurOut2" result="blurOut3"/><feBlend in="SourceGraphic" in2="blurOut3" mode="normal"/></filter></defs><g><a target="_top" xlink:actuate="onRequest" xlink:href="../index.svg" xlink:show="new" xlink:title="../index.svg" xlink:type="simple"><text fill="#0000FF" font-family="sans-serif" font-size="24" lengthAdjust="spacingAndGlyphs" text-decoration="underline" textLength="90" x="10" y="34.9141">⌂ Home</text><line style="stroke: #0000FF; stroke-width: 1.0;" x1="10" x2="100" y1="36.9141" y2="36.9141"/></a><rect fill="#EEE8AA" height="40.1875" rx="10" ry="10" style="stroke: #000080; stroke-width: 1.5;" width="208" x="152" y="42.1875"/><text fill="#000080" font-family="sans-serif" font-size="24" lengthAdjust="spacingAndGlyphs" textLength="192" x="160" y="72.1016">Guide to Symbols</text><ellipse cx="257" cy="95.375" fill="#CCFFCC" filter="url(#fx8xnpiukcd3l)" rx="10" ry="10" style="stroke: none; stroke-width: 1.0;"/><rect fill="#FFFFF0" filter="url(#fx8xnpiukcd3l)" height="35.0938" rx="12.5" ry="12.5" style="stroke: #6495ED; stroke-width: 1.0;" width="55" x="229.5" y="147.6279"/><text fill="#696969" font-family="sans-serif" font-size="12" lengthAdjust="spacingAndGlyphs" textLength="35" x="239.5" y="170.085">activity</text><polygon fill="#FFFFF0" filter="url(#fx8xnpiukcd3l)" points="237,202.7217,277,202.7217,289,214.7217,277,226.7217,237,226.7217,225,214.7217,237,202.7217" style="stroke: #6495ED; stroke-width: 1.0;"/><text fill="#A9A9A9" font-family="sans-serif" font-size="11" lengthAdjust="spacingAndGlyphs" textLength="40" x="237" y="219.2227">decision</text><text fill="#696969" font-family="sans-serif" font-size="11" lengthAdjust="spacingAndGlyphs" textLength="21" x="289" y="212.3047">stop</text><ellipse cx="332" cy="214.7217" fill="#FFFFFF" filter="url(#fx8xnpiukcd3l)" rx="11" ry="11" style="stroke: #FF7F50; stroke-width: 1.0;"/><ellipse cx="332" cy="214.7217" fill="#FF7F50" rx="6" ry="6" style="stroke: #FFBFA7; stroke-width: 1.0;"/><rect fill="#000000" filter="url(#fx8xnpiukcd3l)" height="6" rx="2.5" ry="2.5" style="stroke: #000000; stroke-width: 1.0;" width="494" x="10" y="246.7217"/><path d="M152,303.9639 L152,346.667 L342,346.667 L342,313.9639 L332,303.9639 L152,303.9639 " fill="#B0C4DE" filter="url(#fx8xnpiukcd3l)" style="stroke: #6495ED; stroke-width: 1.0;"/><path d="M332,303.9639 L332,313.9639 L342,313.9639 L332,303.9639 " fill="#B0C4DE" style="stroke: #6495ED; stroke-width: 1.0;"/><text fill="#FFFFFF" font-family="sans-serif" font-size="13" lengthAdjust="spacingAndGlyphs" textLength="169" x="158" y="322.459">two things happening at once</text><text fill="#FFFFFF" font-family="sans-serif" font-size="13" lengthAdjust="spacingAndGlyphs" textLength="91" x="158" y="338.8105">or an alternative</text><rect fill="#CCFFCC" filter="url(#fx8xnpiukcd3l)" height="35.0938" style="stroke: #6495ED; stroke-width: 1.0;" width="108" x="24" y="307.7686"/><path d="M38,321.8623 L38,322.8623 L37.25,322.8623 C36.564,322.8623 36,323.4263 36,324.1123 L36,324.6123 C36,325.2903 36.437,325.8543 37.094,326.0183 L39.657,326.6743 C39.8,326.7103 40.001,326.9703 40.001,327.1123 L40.001,327.6123 C40.001,327.7463 39.885,327.8623 39.751,327.8623 L37.251,327.8623 C37.135,327.8623 37.039,327.8253 37.001,327.7993 L37.001,326.8613 L36.001,326.8613 L36.001,327.8613 C36.001,328.2033 36.204,328.4883 36.439,328.6423 C36.673,328.7973 36.957,328.8613 37.252,328.8613 L38.002,328.8613 L38.002,329.8613 L39.002,329.8613 L39.002,328.8613 L39.752,328.8613 C40.438,328.8613 41.002,328.2973 41.002,327.6113 L41.002,327.1113 C41.002,326.4333 40.565,325.8693 39.908,325.7053 L37.345,325.0493 C37.202,325.0133 37.001,324.7533 37.001,324.6113 L37.001,324.1113 C37.001,323.9773 37.117,323.8613 37.251,323.8613 L39.751,323.8613 C39.867,323.8613 39.963,323.8983 40.001,323.9243 L40.001,324.8623 L41.001,324.8623 L41.001,323.8623 C41.001,323.5203 40.798,323.2353 40.563,323.0813 C40.329,322.9263 40.045,322.8623 39.75,322.8623 L39,322.8623 L39,321.8623 L38,321.8623 " fill="#696969" style="stroke: ; stroke-width: 0.0; stroke-dasharray: ;"/><text fill="#696969" font-family="sans-serif" font-size="12" lengthAdjust="spacingAndGlyphs" textLength="75" x="47" y="330.2256">money activity</text><rect fill="#FFFFF0" filter="url(#fx8xnpiukcd3l)" height="35.0938" style="stroke: #6495ED; stroke-width: 1.0;" width="75" x="392.5" y="272.7217"/><text fill="#696969" font-family="sans-serif" font-size="12" lengthAdjust="spacingAndGlyphs" textLength="55" x="402.5" y="295.1787">document</text><rect fill="#87CEFA" filter="url(#fx8xnpiukcd3l)" height="35.0938" style="stroke: #6495ED; stroke-width: 1.0;" width="120" x="370" y="342.8154"/><text fill="#696969" font-family="sans-serif" font-size="12" lengthAdjust="spacingAndGlyphs" textLength="100" x="380" y="365.2725">link to a document</text><rect fill="#000000" filter="url(#fx8xnpiukcd3l)" height="6" rx="2.5" ry="2.5" style="stroke: #000000; stroke-width: 1.0;" width="494" x="10" y="397.9092"/><rect fill="#87CEFA" filter="url(#fx8xnpiukcd3l)" height="35.0938" rx="12.5" ry="12.5" style="stroke: #6495ED; stroke-width: 1.0;" width="152" x="181" y="423.9092"/><text fill="#696969" font-family="sans-serif" font-size="12" lengthAdjust="spacingAndGlyphs" textLength="132" x="191" y="446.3662">link to another flow chart</text><ellipse cx="257" cy="511.2559" fill="#FFFFFF" filter="url(#fx8xnpiukcd3l)" rx="10" ry="10" style="stroke: #FF7F50; stroke-width: 1.5;"/><line style="stroke: #FF7F50; stroke-width: 2.5;" x1="250.8128" x2="263.1872" y1="505.0687" y2="517.443"/><line style="stroke: #FF7F50; stroke-width: 2.5;" x1="263.1872" x2="250.8128" y1="505.0687" y2="517.443"/><line style="stroke: #696969; stroke-width: 1.5;" x1="257" x2="257" y1="105.375" y2="147.6279"/><polygon fill="#696969" points="253,137.6279,257,147.6279,261,137.6279,257,141.6279" style="stroke: #696969; stroke-width: 1.0;"/><text fill="#696969" font-family="sans-serif" font-size="11" lengthAdjust="spacingAndGlyphs" textLength="22" x="261" y="127.7109">start</text><line style="stroke: #696969; stroke-width: 1.5;" x1="257" x2="257" y1="226.7217" y2="246.7217"/><polygon fill="#696969" points="253,236.7217,257,246.7217,261,236.7217,257,240.7217" style="stroke: #696969; stroke-width: 1.0;"/><line style="stroke: #696969; stroke-width: 1.5;" x1="289" x2="321" y1="214.7217" y2="214.7217"/><polygon fill="#696969" points="311,210.7217,321,214.7217,311,218.7217,315,214.7217" style="stroke: #696969; stroke-width: 1.0;"/><line style="stroke: #696969; stroke-width: 1.5;" x1="257" x2="257" y1="182.7217" y2="202.7217"/><polygon fill="#696969" points="253,192.7217,257,202.7217,261,192.7217,257,196.7217" style="stroke: #696969; stroke-width: 1.0;"/><line style="stroke: #696969; stroke-width: 1.5;" x1="430" x2="430" y1="307.8154" y2="342.8154"/><polygon fill="#696969" points="426,332.8154,430,342.8154,434,332.8154,430,336.8154" style="stroke: #696969; stroke-width: 1.0;"/><line style="stroke: #696969; stroke-width: 1.5;" x1="78" x2="78" y1="252.7217" y2="307.7686"/><polygon fill="#696969" points="74,297.7686,78,307.7686,82,297.7686,78,301.7686" style="stroke: #696969; stroke-width: 1.0;"/><line style="stroke: #696969; stroke-width: 1.5;" x1="430" x2="430" y1="252.7217" y2="272.7217"/><polygon fill="#696969" points="426,262.7217,430,272.7217,434,262.7217,430,266.7217" style="stroke: #696969; stroke-width: 1.0;"/><line style="stroke: #696969; stroke-width: 1.5;" x1="78" x2="78" y1="342.8623" y2="397.9092"/><polygon fill="#696969" points="74,387.9092,78,397.9092,82,387.9092,78,391.9092" style="stroke: #696969; stroke-width: 1.0;"/><line style="stroke: #696969; stroke-width: 1.5;" x1="430" x2="430" y1="377.9092" y2="397.9092"/><polygon fill="#696969" points="426,387.9092,430,397.9092,434,387.9092,430,391.9092" style="stroke: #696969; stroke-width: 1.0;"/><line style="stroke: #696969; stroke-width: 1.5;" x1="257" x2="257" y1="403.9092" y2="423.9092"/><polygon fill="#696969" points="253,413.9092,257,423.9092,261,413.9092,257,417.9092" style="stroke: #696969; stroke-width: 1.0;"/><line style="stroke: #696969; stroke-width: 1.5;" x1="257" x2="257" y1="459.0029" y2="501.2559"/><polygon fill="#696969" points="253,491.2559,257,501.2559,261,491.2559,257,495.2559" style="stroke: #696969; stroke-width: 1.0;"/><text fill="#696969" font-family="sans-serif" font-size="11" lengthAdjust="spacingAndGlyphs" textLength="18" x="261" y="481.3389">end</text><text fill="#000080" font-family="sans-serif" font-size="14" lengthAdjust="spacingAndGlyphs" textLength="42" x="10" y="534.7891">©2019</text><a target="_top" xlink:actuate="onRequest" xlink:href="http://www.lifestylesunlimited.com" xlink:show="new" xlink:title="http://www.lifestylesunlimited.com" xlink:type="simple"><text fill="#0000FF" font-family="sans-serif" font-size="14" lengthAdjust="spacingAndGlyphs" text-decoration="underline" textLength="122" x="56" y="534.7891">LifeStyles Unlimited</text><line style="stroke: #0000FF; stroke-width: 1.0;" x1="56" x2="178" y1="536.7891" y2="536.7891"/></a><text fill="#000080" font-family="sans-serif" font-size="14" lengthAdjust="spacingAndGlyphs" textLength="279" x="182" y="534.7891">| Generated Sun Apr 28 19:55:34 CDT 2019</text><!--
@startuml symbol-guide


skinparam {
  BorderColor Red
  PathHoverColor Blue
}

skinparam Title {
  FontColor Navy
  BackgroundColor PaleGoldenRod
  BorderColor Navy
  BorderRoundCorner 20
  FontSize 24
}

skinparam activity {
  BackgroundColor Ivory
  BorderColor CornflowerBlue
  BorderThickness 1
  FontColor DimGray
  

  Arrow {
    Color dimgray
    FontColor dimgray
  }

  Start {
    Color PHYSICAL
  }

  End {
    Color Coral
  }

  Diamond {
    BackgroundColor Ivory
    BorderColor CornflowerBlue
    FontColor DarkGray
  }

  BackgroundColor<< Exception >> Red
	BorderColor<< Exception >> White
}

skinparam Swimlane {
  BorderColor CornflowerBlue 
}

skinparam Partition {
  BackgroundColor Ivory
  BorderColor CornflowerBlue
  BorderThickness 1
  FontColor CornflowerBlue
  FontSize 16
  BorderRoundCorner 20
}

skinparam Note {
  BackgroundColor LightSteelBlue
  BorderColor CornflowerBlue
  FontColor White
}

skinparam Legend {
  BackgroundColor LightSteelBlue
  BorderColor CornflowerBlue
  FontColor White
}

skinparam Footer {
  FontColor Navy
}


left header 
	<font color=Navy size=24>[[../index.svg ⌂ Home]]</font>
endheader


	Title Guide to Symbols

	start
	->start;
	:activity;
	if(decision) 
	else
		->stop;
		stop
	endif
	fork
		#PHYSICAL:<&dollar> money activity]
		floating note right:two things happening at once\nor an alternative
	fork again
		:document]
		#LightSkyBlue:link to a document]
	end fork
	#LightSkyBlue:link to another flow chart;
	->end;
	end


left footer 
	<font size=14>©2019 [[http://www.lifestylesunlimited.com LifeStyles Unlimited]] | Generated Sun Apr 28 19:55:34 CDT 2019</font>
endfooter


@enduml

PlantUML version 1.2019.03(Sun Mar 10 06:04:44 CDT 2019)
(GPL source distribution)
Java Runtime: Java(TM) SE Runtime Environment
JVM: Java HotSpot(TM) 64-Bit Server VM
Java Version: 1.8.0_111-b14
Operating System: Windows 10
OS Version: 10.0
Default Encoding: Cp1252
Language: en
Country: US
--></g></svg>