<?xml version="1.0" encoding="UTF-8" standalone="no"?><svg xmlns="http://www.w3.org/2000/svg" xmlns:xlink="http://www.w3.org/1999/xlink" contentScriptType="application/ecmascript" contentStyleType="text/css" height="1102px" preserveAspectRatio="none" style="width:1068px;height:1102px;" version="1.1" viewBox="0 0 1068 1102" width="1068px" zoomAndPan="magnify"><defs><style type="text/css"><![CDATA[path:hover { stroke: #0000FF !important;}]]></style><filter height="300%" id="f1gvw1dq9wdliu" width="300%" x="-1" y="-1"><feGaussianBlur result="blurOut" stdDeviation="2.0"/><feColorMatrix in="blurOut" result="blurOut2" type="matrix" values="0 0 0 0 0 0 0 0 0 0 0 0 0 0 0 0 0 0 .4 0"/><feOffset dx="4.0" dy="4.0" in="blurOut2" result="blurOut3"/><feBlend in="SourceGraphic" in2="blurOut3" mode="normal"/></filter></defs><g><a target="_top" xlink:actuate="onRequest" xlink:href="../index.svg" xlink:show="new" xlink:title="../index.svg" xlink:type="simple"><text fill="#0000FF" font-family="sans-serif" font-size="10" lengthAdjust="spacingAndGlyphs" text-decoration="underline" textLength="39" x="10" y="20.3809">⌂ Home</text><line style="stroke: #0000FF; stroke-width: 1.0;" x1="10" x2="49" y1="22.3809" y2="22.3809"/></a><rect fill="#EEE8AA" height="32.6406" rx="10" ry="10" style="stroke: #000080; stroke-width: 1.5;" width="104" x="480.5" y="24.5781"/><text fill="#000080" font-family="sans-serif" font-size="18" lengthAdjust="spacingAndGlyphs" textLength="88" x="488.5" y="48.2637">Advertising</text><ellipse cx="533.5" cy="70.2188" fill="#CCFFCC" filter="url(#f1gvw1dq9wdliu)" rx="10" ry="10" style="stroke: none; stroke-width: 1.0;"/><rect fill="#000000" filter="url(#f1gvw1dq9wdliu)" height="6" rx="2.5" ry="2.5" style="stroke: #000000; stroke-width: 1.0;" width="1047" x="10" y="122.4717"/><rect fill="#FFFFF0" filter="url(#f1gvw1dq9wdliu)" height="60.1875" rx="12.5" ry="12.5" style="stroke: #6495ED; stroke-width: 1.5;" width="279" x="24" y="218.5654"/><path d="M36.188,232.6592 C36.078,232.6592 36,232.7362 36,232.8472 L36,240.4722 C36,240.5822 36.077,240.6602 36.188,240.6602 L40.813,240.6602 C40.923,240.6602 41.001,240.5832 41.001,240.4722 L41.001,232.8472 C41.001,232.7372 40.924,232.6592 40.813,232.6592 L36.188,232.6592 M37.001,233.6592 L40.001,233.6592 L40.001,238.6592 L37.001,238.6592 L37.001,233.6592 M38.501,239.1592 C38.781,239.1592 39.001,239.3792 39.001,239.6592 C39.001,239.9392 38.781,240.1592 38.501,240.1592 C38.221,240.1592 38.001,239.9392 38.001,239.6592 C38.001,239.3792 38.221,239.1592 38.501,239.1592 " fill="#696969" style="stroke: ; stroke-width: 0.0; stroke-dasharray: ;"/><text fill="#696969" font-family="sans-serif" font-size="12" lengthAdjust="spacingAndGlyphs" textLength="135" x="47" y="241.0225">get google voice number</text><line style="stroke: #6495ED; stroke-width: 1.0;" x1="24" x2="303" y1="248.6592" y2="248.6592"/><text fill="#696969" font-family="sans-serif" font-size="12" lengthAdjust="spacingAndGlyphs" textLength="259" x="34" y="266.1162">don't want people having your personal number</text><rect fill="#FFFFF0" filter="url(#f1gvw1dq9wdliu)" height="60.1875" rx="12.5" ry="12.5" style="stroke: #6495ED; stroke-width: 1.5;" width="134" x="331" y="218.5654"/><path d="M342,233.6592 L342,234.6592 L346,236.6592 L350,234.6592 L350,233.6592 L342,233.6592 M342,235.6592 L342,239.6592 L350,239.6592 L350,235.6592 L346,237.6592 L342,235.6592 " fill="#696969" style="stroke: ; stroke-width: 0.0; stroke-dasharray: ;"/><text fill="#696969" font-family="sans-serif" font-size="12" lengthAdjust="spacingAndGlyphs" textLength="90" x="354" y="241.0225">get inquiry email</text><line style="stroke: #6495ED; stroke-width: 1.0;" x1="331" x2="465" y1="248.6592" y2="248.6592"/><text fill="#696969" font-family="sans-serif" font-size="12" font-style="italic" lengthAdjust="spacingAndGlyphs" textLength="114" x="341" y="266.1162">address@gmail.com</text><rect fill="#FFFFF0" filter="url(#f1gvw1dq9wdliu)" height="60.1875" rx="12.5" ry="12.5" style="stroke: #6495ED; stroke-width: 1.5;" width="168" x="493" y="218.5654"/><path d="M504,233.6592 L504,234.6592 L508,236.6592 L512,234.6592 L512,233.6592 L504,233.6592 M504,235.6592 L504,239.6592 L512,239.6592 L512,235.6592 L508,237.6592 L504,235.6592 " fill="#696969" style="stroke: ; stroke-width: 0.0; stroke-dasharray: ;"/><text fill="#696969" font-family="sans-serif" font-size="12" lengthAdjust="spacingAndGlyphs" textLength="114" x="516" y="241.0225">get application email</text><line style="stroke: #6495ED; stroke-width: 1.0;" x1="493" x2="661" y1="248.6592" y2="248.6592"/><text fill="#696969" font-family="sans-serif" font-size="12" font-style="italic" lengthAdjust="spacingAndGlyphs" textLength="148" x="503" y="266.1162">address_apps@gmail.com</text><rect fill="#FFFFF0" filter="url(#f1gvw1dq9wdliu)" height="35.0938" rx="12.5" ry="12.5" style="stroke: #6495ED; stroke-width: 1.5;" width="135" x="697.5" y="183.5186"/><path d="M713,198.6123 C711.79,198.6123 710.73,199.4723 710.5,200.6123 C709.4,200.6123 708.5,201.5123 708.5,202.6123 C708.5,203.7123 709.4,204.6123 710.5,204.6123 L715,204.6123 C715.83,204.6123 716.5,203.9423 716.5,203.1123 C716.5,202.4623 716.08,201.8223 715.5,201.6123 L715.5,201.1123 C715.5,199.7323 714.38,198.6123 713,198.6123 " fill="#696969" style="stroke: ; stroke-width: 0.0; stroke-dasharray: ;"/><text fill="#696969" font-family="sans-serif" font-size="12" lengthAdjust="spacingAndGlyphs" textLength="102" x="720.5" y="205.9756">get paypal account</text><rect fill="#FFFFF0" filter="url(#f1gvw1dq9wdliu)" height="60.1875" rx="12.5" ry="12.5" style="stroke: #6495ED; stroke-width: 1.5;" width="152" x="689" y="253.6123"/><path d="M700,268.7061 L700,269.7061 L704,271.7061 L708,269.7061 L708,268.7061 L700,268.7061 M700,270.7061 L700,274.7061 L708,274.7061 L708,270.7061 L704,272.7061 L700,270.7061 " fill="#696969" style="stroke: ; stroke-width: 0.0; stroke-dasharray: ;"/><text fill="#696969" font-family="sans-serif" font-size="12" lengthAdjust="spacingAndGlyphs" textLength="119" x="712" y="276.0693">paypal email address</text><line style="stroke: #6495ED; stroke-width: 1.0;" x1="689" x2="841" y1="283.7061" y2="283.7061"/><text fill="#696969" font-family="sans-serif" font-size="12" font-style="italic" lengthAdjust="spacingAndGlyphs" textLength="121" x="699" y="301.1631">property@paypal.com</text><rect fill="#FFFFF0" filter="url(#f1gvw1dq9wdliu)" height="35.0938" rx="12.5" ry="12.5" style="stroke: #6495ED; stroke-width: 1.5;" width="142" x="885" y="148.4717"/><path d="M900.5,163.5654 C899.29,163.5654 898.23,164.4254 898,165.5654 C896.9,165.5654 896,166.4654 896,167.5654 C896,168.6654 896.9,169.5654 898,169.5654 L902.5,169.5654 C903.33,169.5654 904,168.8954 904,168.0654 C904,167.4154 903.58,166.7754 903,166.5654 L903,166.0654 C903,164.6854 901.88,163.5654 900.5,163.5654 " fill="#696969" style="stroke: ; stroke-width: 0.0; stroke-dasharray: ;"/><text fill="#696969" font-family="sans-serif" font-size="12" lengthAdjust="spacingAndGlyphs" textLength="109" x="908" y="170.9287">get youtube account</text><rect fill="#FFFFF0" filter="url(#f1gvw1dq9wdliu)" height="60.1875" rx="12.5" ry="12.5" style="stroke: #6495ED; stroke-width: 1.5;" width="143" x="884.5" y="218.5654"/><path d="M896.5,232.6592 L896.5,233.6592 C899.82,233.6592 902.5,236.3392 902.5,239.6592 L903.5,239.6592 C903.5,235.7992 900.36,232.6592 896.5,232.6592 M896.5,234.6592 L896.5,235.6592 C898.721,235.6592 900.5,237.4382 900.5,239.6592 L901.5,239.6592 C901.5,236.9002 899.259,234.6592 896.5,234.6592 M896.5,236.6592 L896.5,237.6592 C897.609,237.6592 898.5,238.5502 898.5,239.6592 L899.5,239.6592 C899.5,238.0082 898.151,236.6592 896.5,236.6592 M896.5,238.6592 C895.948,238.6592 895.5,239.1072 895.5,239.6592 C895.5,240.2112 895.948,240.6592 896.5,240.6592 C897.052,240.6592 897.5,240.2112 897.5,239.6592 C897.5,239.1072 897.052,238.6592 896.5,238.6592 " fill="#696969" style="stroke: ; stroke-width: 0.0; stroke-dasharray: ;"/><text fill="#696969" font-family="sans-serif" font-size="12" lengthAdjust="spacingAndGlyphs" textLength="110" x="907.5" y="241.0225">get youtube channel</text><line style="stroke: #6495ED; stroke-width: 1.0;" x1="884.5" x2="1027.5" y1="248.6592" y2="248.6592"/><text fill="#696969" font-family="sans-serif" font-size="12" lengthAdjust="spacingAndGlyphs" textLength="0" x="897.5" y="266.1162"/><text fill="#696969" font-family="sans-serif" font-size="12" font-style="italic" lengthAdjust="spacingAndGlyphs" textLength="110" x="897.5" y="266.1162">user name: property</text><rect fill="#FFFFF0" filter="url(#f1gvw1dq9wdliu)" height="35.0938" rx="12.5" ry="12.5" style="stroke: #6495ED; stroke-width: 1.5;" width="174" x="869" y="313.7529"/><path d="M880.5,328.8467 C880.22,328.8467 880,329.0667 880,329.3467 L880,333.3467 C880,333.6267 880.22,333.8467 880.5,333.8467 L885.5,333.8467 C885.78,333.8467 886,333.6267 886,333.3467 L886,331.8467 L887,332.8467 L888,332.8467 L888,329.8467 L887,329.8467 L886,330.8467 L886,329.3467 C886,329.0667 885.78,328.8467 885.5,328.8467 L880.5,328.8467 " fill="#696969" style="stroke: ; stroke-width: 0.0; stroke-dasharray: ;"/><text fill="#696969" font-family="sans-serif" font-size="12" lengthAdjust="spacingAndGlyphs" textLength="141" x="892" y="336.21">upload property tour video</text><rect fill="#000000" filter="url(#f1gvw1dq9wdliu)" height="6" rx="2.5" ry="2.5" style="stroke: #000000; stroke-width: 1.0;" width="1047" x="10" y="368.8467"/><rect fill="#FFFFF0" filter="url(#f1gvw1dq9wdliu)" height="165.8438" rx="12.5" ry="12.5" style="stroke: #6495ED; stroke-width: 1.5;" width="230" x="418.5" y="394.8467"/><text fill="#696969" font-family="sans-serif" font-size="12" lengthAdjust="spacingAndGlyphs" textLength="127" x="428.5" y="417.3037">set up the inquiry email</text><text fill="#696969" font-family="sans-serif" font-size="12" font-style="italic" lengthAdjust="spacingAndGlyphs" textLength="127" x="428.5" y="432.3975">auto-respond message</text><line style="stroke: #6495ED; stroke-width: 1.0;" x1="418.5" x2="648.5" y1="440.0342" y2="440.0342"/><path d="M433.5,449.1279 L429.5,451.1279 L429.5,457.1279 L437.5,457.1279 L437.5,451.1279 L433.5,449.1279 M433.5,450.2529 L436.5,451.7529 L436.5,453.6279 L433.5,455.1279 L430.5,453.6279 L430.5,451.7529 L433.5,450.2529 M431.5,452.1279 L431.5,453.1279 L433.5,454.1279 L435.5,453.1279 L435.5,452.1279 L431.5,452.1279 " fill="#696969" style="stroke: ; stroke-width: 0.0; stroke-dasharray: ;"/><text fill="#696969" font-family="sans-serif" font-size="12" lengthAdjust="spacingAndGlyphs" textLength="197" x="441.5" y="457.4912">reply-to: address_apps@gmail.com</text><path d="M435.5,464.2217 L434.5,465.2217 L436.5,467.2217 L437.5,466.2217 L435.5,464.2217 M433.5,466.2217 L429.5,470.2217 L429.5,472.2217 L431.5,472.2217 L435.5,468.2217 L433.5,466.2217 " fill="#696969" style="stroke: ; stroke-width: 0.0; stroke-dasharray: ;"/><text fill="#696969" font-family="sans-serif" font-size="12" lengthAdjust="spacingAndGlyphs" textLength="0" x="441.5" y="472.585"/><text fill="#FFA500" font-family="sans-serif" font-size="12" lengthAdjust="spacingAndGlyphs" textLength="108" x="444.5" y="472.585">thank you message</text><path d="M435.375,479.3464 C435.191,479.3564 435.021,479.3764 434.844,479.4404 C434.574,479.5354 434.313,479.6904 434.094,479.9094 A0.5,0.5 0 1 0 434.782,480.5974 C434.883,480.4964 435.027,480.4244 435.157,480.3784 C435.509,480.2524 435.937,480.3144 436.22,480.5974 C436.615,480.9864 436.62,481.6344 436.22,482.0354 L434.72,483.5354 C434.286,483.9694 433.921,484.0184 433.657,484.0044 C433.393,483.9894 433.251,483.8794 433.251,483.8794 A0.504,0.504 0 1 0 432.751,484.7544 C433.091,484.9764 433.091,484.9764 433.595,485.0044 C434.099,485.0324 434.792,484.8394 435.408,484.2234 L436.908,482.7234 C437.688,481.9434 437.693,480.6824 436.908,479.9104 C436.629,479.6314 436.302,479.4584 435.939,479.3794 C435.758,479.3404 435.56,479.3384 435.376,479.3484 M433.376,481.6614 C432.875,481.6424 432.19,481.8164 431.595,482.4114 L430.095,483.9114 C429.315,484.6914 429.31,485.9524 430.095,486.7244 C430.652,487.2814 431.45,487.4464 432.158,487.1934 C432.428,487.0984 432.689,486.9434 432.908,486.7244 A0.5,0.5 0 1 0 432.22,486.0364 C432.119,486.1374 431.975,486.2094 431.845,486.2554 C431.493,486.3814 431.065,486.3194 430.782,486.0364 C430.387,485.6474 430.382,484.9994 430.782,484.5984 L432.282,483.0984 C432.687,482.6934 433.034,482.6504 433.313,482.6604 C433.592,482.6714 433.782,482.7544 433.782,482.7544 A0.5,0.5 0 1 0 434.22,481.8794 C433.877,481.6804 433.877,481.6804 433.376,481.6604 " fill="#696969" style="stroke: ; stroke-width: 0.0; stroke-dasharray: ;"/><text fill="#696969" font-family="sans-serif" font-size="12" lengthAdjust="spacingAndGlyphs" textLength="0" x="441.5" y="487.6787"/><text fill="#6495ED" font-family="sans-serif" font-size="12" lengthAdjust="spacingAndGlyphs" textLength="99" x="444.5" y="487.6787">youtube tour video</text><path d="M434.5,494.4092 C433.986,494.4092 433.479,494.6102 433.094,495.0032 L430.313,497.7222 C429.243,498.7922 429.243,500.5272 430.313,501.5972 C431.383,502.6672 433.118,502.6672 434.188,501.5972 L435.438,500.3472 L434.75,499.6592 L433.844,500.5342 L433.5,500.9092 C432.81,501.5992 431.69,501.5992 431,500.9092 C430.318,500.2272 430.332,499.1312 431,498.4402 L433.781,495.7212 L433.781,495.6902 C434.17,495.2952 434.818,495.2902 435.219,495.6902 C435.607,496.0712 435.597,496.6962 435.219,497.0962 L432.719,499.5652 C432.624,499.6602 432.439,499.6602 432.344,499.5652 C432.249,499.4702 432.249,499.2852 432.344,499.1902 L432.719,498.8462 L433.313,498.2212 L432.625,497.5332 L431.75,498.4082 L431.656,498.5022 C431.171,498.9872 431.171,499.7672 431.656,500.2522 C432.141,500.7372 432.921,500.7372 433.406,500.2522 L435.906,497.8142 C436.686,497.0342 436.691,495.7732 435.906,495.0012 C435.516,494.6112 435.013,494.4072 434.5,494.4072 " fill="#696969" style="stroke: ; stroke-width: 0.0; stroke-dasharray: ;"/><text fill="#696969" font-family="sans-serif" font-size="12" lengthAdjust="spacingAndGlyphs" textLength="60" x="441.5" y="502.7725">application</text><path d="M434.5,509.5029 C433.986,509.5029 433.479,509.7039 433.094,510.0969 L430.313,512.8159 C429.243,513.8859 429.243,515.6209 430.313,516.6909 C431.383,517.7609 433.118,517.7609 434.188,516.6909 L435.438,515.4409 L434.75,514.7529 L433.844,515.6279 L433.5,516.0029 C432.81,516.6929 431.69,516.6929 431,516.0029 C430.318,515.3209 430.332,514.2249 431,513.5339 L433.781,510.8149 L433.781,510.7839 C434.17,510.3889 434.818,510.3839 435.219,510.7839 C435.607,511.1649 435.597,511.7899 435.219,512.1899 L432.719,514.6589 C432.624,514.7539 432.439,514.7539 432.344,514.6589 C432.249,514.5639 432.249,514.3789 432.344,514.2839 L432.719,513.9399 L433.313,513.3149 L432.625,512.6269 L431.75,513.5019 L431.656,513.5959 C431.171,514.0809 431.171,514.8609 431.656,515.3459 C432.141,515.8309 432.921,515.8309 433.406,515.3459 L435.906,512.9079 C436.686,512.1279 436.691,510.8669 435.906,510.0949 C435.516,509.7049 435.013,509.5009 434.5,509.5009 " fill="#696969" style="stroke: ; stroke-width: 0.0; stroke-dasharray: ;"/><text fill="#696969" font-family="sans-serif" font-size="12" lengthAdjust="spacingAndGlyphs" textLength="177" x="441.5" y="517.8662">credit / criminal permission from</text><text fill="#696969" font-family="sans-serif" font-size="12" lengthAdjust="spacingAndGlyphs" textLength="0" x="431.5" y="532.96"/><text fill="#696969" font-family="sans-serif" font-size="12" lengthAdjust="spacingAndGlyphs" textLength="0" x="431.5" y="548.0537"/><rect fill="#000000" filter="url(#f1gvw1dq9wdliu)" height="6" rx="2.5" ry="2.5" style="stroke: #000000; stroke-width: 1.0;" width="694" x="186.5" y="580.6904"/><rect fill="#FFFFF0" filter="url(#f1gvw1dq9wdliu)" height="180.9375" rx="12.5" ry="12.5" style="stroke: #6495ED; stroke-width: 1.5;" width="131" x="200.5" y="606.6904"/><text fill="#696969" font-family="sans-serif" font-size="12" lengthAdjust="spacingAndGlyphs" textLength="98" x="210.5" y="629.1475">put info in window</text><line style="stroke: #6495ED; stroke-width: 1.0;" x1="200.5" x2="331.5" y1="636.7842" y2="636.7842"/><line style="stroke: #6495ED; stroke-width: 1.0;" x1="200.5" x2="331.5" y1="638.7842" y2="638.7842"/><ellipse cx="216" cy="649.3779" fill="#696969" rx="2.5" ry="2.5" style="stroke: #696969; stroke-width: 0.0;"/><text fill="#696969" font-family="sans-serif" font-size="12" lengthAdjust="spacingAndGlyphs" textLength="96" x="221.5" y="654.2412">pictures of rooms</text><rect fill="#696969" height="3.5" style="stroke: #696969; stroke-width: 0.0;" width="3.5" x="227.5" y="663.9717"/><text fill="#696969" font-family="sans-serif" font-size="12" lengthAdjust="spacingAndGlyphs" textLength="24" x="232.5" y="669.335">front</text><rect fill="#696969" height="3.5" style="stroke: #696969; stroke-width: 0.0;" width="3.5" x="227.5" y="679.0654"/><text fill="#696969" font-family="sans-serif" font-size="12" lengthAdjust="spacingAndGlyphs" textLength="24" x="232.5" y="684.4287">bath</text><rect fill="#696969" height="3.5" style="stroke: #696969; stroke-width: 0.0;" width="3.5" x="227.5" y="694.1592"/><text fill="#696969" font-family="sans-serif" font-size="12" lengthAdjust="spacingAndGlyphs" textLength="39" x="232.5" y="699.5225">kitchen</text><rect fill="#696969" height="3.5" style="stroke: #696969; stroke-width: 0.0;" width="3.5" x="227.5" y="709.2529"/><text fill="#696969" font-family="sans-serif" font-size="12" lengthAdjust="spacingAndGlyphs" textLength="28" x="232.5" y="714.6162">living</text><ellipse cx="216" cy="724.8467" fill="#696969" rx="2.5" ry="2.5" style="stroke: #696969; stroke-width: 0.0;"/><text fill="#696969" font-family="sans-serif" font-size="12" lengthAdjust="spacingAndGlyphs" textLength="55" x="221.5" y="729.71">amenities</text><ellipse cx="216" cy="739.9404" fill="#696969" rx="2.5" ry="2.5" style="stroke: #696969; stroke-width: 0.0;"/><text fill="#696969" font-family="sans-serif" font-size="12" lengthAdjust="spacingAndGlyphs" textLength="76" x="221.5" y="744.8037">crime for area</text><ellipse cx="216" cy="755.0342" fill="#696969" rx="2.5" ry="2.5" style="stroke: #696969; stroke-width: 0.0;"/><text fill="#696969" font-family="sans-serif" font-size="12" lengthAdjust="spacingAndGlyphs" textLength="100" x="221.5" y="759.8975">application criteria</text><text fill="#696969" font-family="sans-serif" font-size="12" lengthAdjust="spacingAndGlyphs" textLength="0" x="213.5" y="774.9912"/><rect fill="#FF00FF" filter="url(#f1gvw1dq9wdliu)" height="154.75" style="stroke: #6495ED; stroke-width: 1.5;" width="198" x="359.5" y="619.7842"/><text fill="#696969" font-family="sans-serif" font-size="12" lengthAdjust="spacingAndGlyphs" textLength="90" x="369.5" y="642.2412">sign in front yard</text><text fill="#696969" font-family="sans-serif" font-size="12" font-style="italic" lengthAdjust="spacingAndGlyphs" textLength="129" x="369.5" y="657.335">neon pink from walmart</text><text fill="#696969" font-family="sans-serif" font-size="12" font-style="italic" lengthAdjust="spacingAndGlyphs" textLength="113" x="369.5" y="672.4287">written with a sharpie</text><line style="stroke: #6495ED; stroke-width: 1.0;" x1="359.5" x2="557.5" y1="680.0654" y2="680.0654"/><line style="stroke: #6495ED; stroke-width: 1.0;" x1="359.5" x2="557.5" y1="682.0654" y2="682.0654"/><text fill="#696969" font-family="sans-serif" font-size="12" font-weight="bold" lengthAdjust="spacingAndGlyphs" textLength="29" x="372.5" y="699.5225">3-2-2</text><text fill="#696969" font-family="sans-serif" font-size="12" font-weight="bold" lengthAdjust="spacingAndGlyphs" textLength="28" x="463.5" y="699.5225">$875</text><text fill="#696969" font-family="sans-serif" font-size="12" lengthAdjust="spacingAndGlyphs" textLength="54" x="372.5" y="714.6162">1680 sq ft</text><text fill="#696969" font-family="sans-serif" font-size="12" lengthAdjust="spacingAndGlyphs" textLength="81" x="463.5" y="714.6162">ready 4/1/2019</text><text fill="#696969" font-family="sans-serif" font-size="12" lengthAdjust="spacingAndGlyphs" textLength="69" x="372.5" y="729.71">All New Blah</text><text fill="#696969" font-family="sans-serif" font-size="12" lengthAdjust="spacingAndGlyphs" textLength="69" x="463.5" y="729.71">All New Blah</text><text fill="#696969" font-family="sans-serif" font-size="12" lengthAdjust="spacingAndGlyphs" textLength="85" x="372.5" y="744.8037">(214) 555-1212</text><text fill="#696969" font-family="sans-serif" font-size="12" lengthAdjust="spacingAndGlyphs" textLength="47" x="463.5" y="744.8037">call Fred</text><line style="stroke: #696969; stroke-width: 1.5;" x1="369.5" x2="547.5" y1="687.0654" y2="687.0654"/><line style="stroke: #696969; stroke-width: 1.5;" x1="369.5" x2="547.5" y1="702.1592" y2="702.1592"/><line style="stroke: #696969; stroke-width: 1.5;" x1="369.5" x2="547.5" y1="717.2529" y2="717.2529"/><line style="stroke: #696969; stroke-width: 1.5;" x1="369.5" x2="547.5" y1="732.3467" y2="732.3467"/><line style="stroke: #696969; stroke-width: 1.5;" x1="369.5" x2="547.5" y1="747.4404" y2="747.4404"/><line style="stroke: #696969; stroke-width: 1.5;" x1="369.5" x2="369.5" y1="687.0654" y2="747.4404"/><line style="stroke: #696969; stroke-width: 1.5;" x1="460.5" x2="460.5" y1="687.0654" y2="747.4404"/><line style="stroke: #696969; stroke-width: 1.5;" x1="547.5" x2="547.5" y1="687.0654" y2="747.4404"/><text fill="#696969" font-family="sans-serif" font-size="12" lengthAdjust="spacingAndGlyphs" textLength="0" x="372.5" y="761.8975"/><a target="_top" xlink:actuate="onRequest" xlink:href="https://dallas.craigslist.org" xlink:show="new" xlink:title="https://dallas.craigslist.org" xlink:type="simple"><rect fill="#87CEFA" filter="url(#f1gvw1dq9wdliu)" height="35.0938" rx="12.5" ry="12.5" style="stroke: #6495ED; stroke-width: 1.5;" width="88" x="585.5" y="679.6123"/><path d="M600.5,693.7061 C598.29,693.7061 596.5,695.4961 596.5,697.7061 C596.5,699.9161 598.29,701.7061 600.5,701.7061 C602.71,701.7061 604.5,699.9161 604.5,697.7061 C604.5,695.4961 602.71,693.7061 600.5,693.7061 M600.5,694.7061 C600.833,694.7061 601.137,694.7921 601.438,694.8941 C601.224,695.0911 600.988,695.2771 601.032,695.4571 C601.072,695.6371 601.72,695.5871 601.72,695.9571 C601.72,696.2271 601.295,696.3031 601.595,696.6131 C601.945,696.9631 600.959,697.5911 600.939,698.0511 C600.909,698.8811 601.78,699.0201 602.47,699.0201 C602.894,699.0201 602.973,699.2151 602.939,699.4581 C602.393,700.2161 601.501,700.7081 600.501,700.7081 C600.123,700.7081 599.772,700.6181 599.438,700.4891 C599.662,700.0471 599.125,699.1451 598.657,698.8641 C598.431,698.6381 597.968,698.7501 597.688,698.6451 C597.596,698.3741 597.51,698.1001 597.5,697.8011 C597.531,697.7511 597.581,697.7071 597.656,697.7071 C597.846,697.7071 598.11,698.0811 598.25,698.0511 C598.43,698.0111 597.508,696.7381 597.937,696.4881 C598.137,696.3681 598.546,696.8821 598.406,696.3321 C598.286,695.8221 598.772,696.0561 599.062,695.9261 C599.322,695.8161 599.517,695.5121 599.187,695.3321 L598.968,695.1441 C599.418,694.8741 599.94,694.7061 600.499,694.7061 M602.812,695.8001 C602.996,696.0221 603.135,696.2811 603.25,696.5501 L603.062,696.7691 C602.772,697.0391 602.735,696.5571 602.624,696.4561 C602.494,696.3461 601.986,696.4811 601.936,696.3311 C601.859,696.1501 602.435,695.9131 602.811,695.8001 " fill="#696969" style="stroke: ; stroke-width: 0.0; stroke-dasharray: ;"/><text fill="#696969" font-family="sans-serif" font-size="12" lengthAdjust="spacingAndGlyphs" textLength="55" x="608.5" y="702.0693">craig's list</text></a><a target="_top" xlink:actuate="onRequest" xlink:href="https://postless.com" xlink:show="new" xlink:title="https://postless.com" xlink:type="simple"><rect fill="#87CEFA" filter="url(#f1gvw1dq9wdliu)" height="35.0938" rx="12.5" ry="12.5" style="stroke: #6495ED; stroke-width: 1.5;" width="81" x="701.5" y="679.6123"/><path d="M716.5,693.7061 C714.29,693.7061 712.5,695.4961 712.5,697.7061 C712.5,699.9161 714.29,701.7061 716.5,701.7061 C718.71,701.7061 720.5,699.9161 720.5,697.7061 C720.5,695.4961 718.71,693.7061 716.5,693.7061 M716.5,694.7061 C716.833,694.7061 717.137,694.7921 717.438,694.8941 C717.224,695.0911 716.988,695.2771 717.032,695.4571 C717.072,695.6371 717.72,695.5871 717.72,695.9571 C717.72,696.2271 717.295,696.3031 717.595,696.6131 C717.945,696.9631 716.959,697.5911 716.939,698.0511 C716.909,698.8811 717.78,699.0201 718.47,699.0201 C718.894,699.0201 718.973,699.2151 718.939,699.4581 C718.393,700.2161 717.501,700.7081 716.501,700.7081 C716.123,700.7081 715.772,700.6181 715.438,700.4891 C715.662,700.0471 715.125,699.1451 714.657,698.8641 C714.431,698.6381 713.968,698.7501 713.688,698.6451 C713.596,698.3741 713.51,698.1001 713.5,697.8011 C713.531,697.7511 713.581,697.7071 713.656,697.7071 C713.846,697.7071 714.11,698.0811 714.25,698.0511 C714.43,698.0111 713.508,696.7381 713.937,696.4881 C714.137,696.3681 714.546,696.8821 714.406,696.3321 C714.286,695.8221 714.772,696.0561 715.062,695.9261 C715.322,695.8161 715.517,695.5121 715.187,695.3321 L714.968,695.1441 C715.418,694.8741 715.94,694.7061 716.499,694.7061 M718.812,695.8001 C718.996,696.0221 719.135,696.2811 719.25,696.5501 L719.062,696.7691 C718.772,697.0391 718.735,696.5571 718.624,696.4561 C718.494,696.3461 717.986,696.4811 717.936,696.3311 C717.859,696.1501 718.435,695.9131 718.811,695.8001 " fill="#696969" style="stroke: ; stroke-width: 0.0; stroke-dasharray: ;"/><text fill="#696969" font-family="sans-serif" font-size="12" lengthAdjust="spacingAndGlyphs" textLength="48" x="724.5" y="702.0693">postless</text></a><a target="_top" xlink:actuate="onRequest" xlink:href="https://cozy.co" xlink:show="new" xlink:title="https://cozy.co" xlink:type="simple"><rect fill="#87CEFA" filter="url(#f1gvw1dq9wdliu)" height="35.0938" rx="12.5" ry="12.5" style="stroke: #6495ED; stroke-width: 1.5;" width="56" x="810.5" y="679.6123"/><path d="M825.5,693.7061 C823.29,693.7061 821.5,695.4961 821.5,697.7061 C821.5,699.9161 823.29,701.7061 825.5,701.7061 C827.71,701.7061 829.5,699.9161 829.5,697.7061 C829.5,695.4961 827.71,693.7061 825.5,693.7061 M825.5,694.7061 C825.833,694.7061 826.137,694.7921 826.438,694.8941 C826.224,695.0911 825.988,695.2771 826.032,695.4571 C826.072,695.6371 826.72,695.5871 826.72,695.9571 C826.72,696.2271 826.295,696.3031 826.595,696.6131 C826.945,696.9631 825.959,697.5911 825.939,698.0511 C825.909,698.8811 826.78,699.0201 827.47,699.0201 C827.894,699.0201 827.973,699.2151 827.939,699.4581 C827.393,700.2161 826.501,700.7081 825.501,700.7081 C825.123,700.7081 824.772,700.6181 824.438,700.4891 C824.662,700.0471 824.125,699.1451 823.657,698.8641 C823.431,698.6381 822.968,698.7501 822.688,698.6451 C822.596,698.3741 822.51,698.1001 822.5,697.8011 C822.531,697.7511 822.581,697.7071 822.656,697.7071 C822.846,697.7071 823.11,698.0811 823.25,698.0511 C823.43,698.0111 822.508,696.7381 822.937,696.4881 C823.137,696.3681 823.546,696.8821 823.406,696.3321 C823.286,695.8221 823.772,696.0561 824.062,695.9261 C824.322,695.8161 824.517,695.5121 824.187,695.3321 L823.968,695.1441 C824.418,694.8741 824.94,694.7061 825.499,694.7061 M827.812,695.8001 C827.996,696.0221 828.135,696.2811 828.25,696.5501 L828.062,696.7691 C827.772,697.0391 827.735,696.5571 827.624,696.4561 C827.494,696.3461 826.986,696.4811 826.936,696.3311 C826.859,696.1501 827.435,695.9131 827.811,695.8001 " fill="#696969" style="stroke: ; stroke-width: 0.0; stroke-dasharray: ;"/><text fill="#696969" font-family="sans-serif" font-size="12" lengthAdjust="spacingAndGlyphs" textLength="23" x="833.5" y="702.0693">cozy</text></a><rect fill="#000000" filter="url(#f1gvw1dq9wdliu)" height="6" rx="2.5" ry="2.5" style="stroke: #000000; stroke-width: 1.0;" width="694" x="186.5" y="807.6279"/><rect fill="#000000" filter="url(#f1gvw1dq9wdliu)" height="6" rx="2.5" ry="2.5" style="stroke: #000000; stroke-width: 1.0;" width="421" x="323" y="877.6279"/><a target="_top" xlink:actuate="onRequest" xlink:href="leasing.svg?sanitize=true" xlink:show="new" xlink:title="leasing.svg?sanitize=true" xlink:type="simple"><rect fill="#87CEFA" filter="url(#f1gvw1dq9wdliu)" height="85.2813" rx="12.5" ry="12.5" style="stroke: #6495ED; stroke-width: 1.5;" width="153" x="337" y="913.5811"/><text fill="#696969" font-family="sans-serif" font-size="12" lengthAdjust="spacingAndGlyphs" textLength="115" x="347" y="936.0381">process applications</text><line style="stroke: #6495ED; stroke-width: 1.0;" x1="337" x2="490" y1="943.6748" y2="943.6748"/><line style="stroke: #6495ED; stroke-width: 1.0;" x1="337" x2="490" y1="945.6748" y2="945.6748"/><path d="M353.5,952.7686 C352.99,952.7686 352.551,953.1236 352.281,953.6436 C352.731,954.1836 353,954.9186 353,955.7686 C353,956.0586 352.966,956.3426 352.906,956.6126 C353.086,956.7226 353.28,956.7686 353.5,956.7686 C354.33,956.7686 355,955.8686 355,954.7686 C355,953.6686 354.33,952.7686 353.5,952.7686 M350.5,953.7686 C349.672,953.7686 349,954.6636 349,955.7686 C349,956.8736 349.672,957.7686 350.5,957.7686 C351.328,957.7686 352,956.8736 352,955.7686 C352,954.6636 351.328,953.7686 350.5,953.7686 M355.25,956.9246 C354.82,957.4346 354.232,957.7486 353.562,957.7686 C353.832,958.1486 354,958.6126 354,959.1126 L354,959.7686 L356,959.7686 L356,958.1126 C356,957.5926 355.69,957.1446 355.25,956.9246 M348.75,957.9246 C348.31,958.1446 348,958.5926 348,959.1126 L348,960.7686 L353,960.7686 L353,959.1126 C353,958.5926 352.69,958.1446 352.25,957.9246 C351.81,958.4546 351.19,958.7686 350.5,958.7686 C349.81,958.7686 349.19,958.4546 348.75,957.9246 " fill="#696969" style="stroke: ; stroke-width: 0.0; stroke-dasharray: ;"/><text fill="#696969" font-family="sans-serif" font-size="12" lengthAdjust="spacingAndGlyphs" textLength="120" x="360" y="961.1318">first come, first served</text><line style="stroke: #6495ED; stroke-width: 1.0;" x1="337" x2="490" y1="968.7686" y2="968.7686"/><text fill="#696969" font-family="sans-serif" font-size="12" font-style="italic" lengthAdjust="spacingAndGlyphs" textLength="63" x="347" y="986.2256">see leasing</text><path d="M419,978.8623 L419,980.8623 L414,980.8623 L414,982.8623 L419,982.8623 L419,984.8623 L422,981.8313 L419,978.8623 " fill="#696969" style="stroke: ; stroke-width: 0.0; stroke-dasharray: ;"/></a><rect fill="#FFFFF0" filter="url(#f1gvw1dq9wdliu)" height="35.0938" rx="12.5" ry="12.5" style="stroke: #6495ED; stroke-width: 1.5;" width="122" x="563" y="903.6279"/><text fill="#696969" font-family="sans-serif" font-size="12" lengthAdjust="spacingAndGlyphs" textLength="102" x="573" y="926.085">schedule tour date</text><rect fill="#FFFFF0" filter="url(#f1gvw1dq9wdliu)" height="35.0938" rx="12.5" ry="12.5" style="stroke: #6495ED; stroke-width: 1.5;" width="212" x="518" y="973.7217"/><text fill="#696969" font-family="sans-serif" font-size="12" lengthAdjust="spacingAndGlyphs" textLength="192" x="528" y="996.1787">give tour to next group of applicants</text><rect fill="#000000" filter="url(#f1gvw1dq9wdliu)" height="6" rx="2.5" ry="2.5" style="stroke: #000000; stroke-width: 1.0;" width="421" x="323" y="1028.8154"/><polygon fill="#FFFFF0" filter="url(#f1gvw1dq9wdliu)" points="533.5,833.6279,545.5,845.6279,533.5,857.6279,521.5,845.6279,533.5,833.6279" style="stroke: #6495ED; stroke-width: 1.5;"/><polygon fill="#FFFFF0" filter="url(#f1gvw1dq9wdliu)" points="517.5,1054.8154,549.5,1054.8154,561.5,1066.8154,549.5,1078.8154,517.5,1078.8154,505.5,1066.8154,517.5,1054.8154" style="stroke: #6495ED; stroke-width: 1.5;"/><text fill="#A9A9A9" font-family="sans-serif" font-size="11" lengthAdjust="spacingAndGlyphs" textLength="32" x="517.5" y="1071.3164">leased</text><line style="stroke: #696969; stroke-width: 1.5;" x1="765" x2="765" y1="218.6123" y2="253.6123"/><polygon fill="#696969" points="761,243.6123,765,253.6123,769,243.6123,765,247.6123" style="stroke: #696969; stroke-width: 1.0;"/><line style="stroke: #696969; stroke-width: 1.5;" x1="956" x2="956" y1="183.5654" y2="218.5654"/><polygon fill="#696969" points="952,208.5654,956,218.5654,960,208.5654,956,212.5654" style="stroke: #696969; stroke-width: 1.0;"/><line style="stroke: #696969; stroke-width: 1.5;" x1="956" x2="956" y1="278.7529" y2="313.7529"/><polygon fill="#696969" points="952,303.7529,956,313.7529,960,303.7529,956,307.7529" style="stroke: #696969; stroke-width: 1.0;"/><line style="stroke: #696969; stroke-width: 1.5;" x1="163.5" x2="163.5" y1="128.4717" y2="218.5654"/><polygon fill="#696969" points="159.5,208.5654,163.5,218.5654,167.5,208.5654,163.5,212.5654" style="stroke: #696969; stroke-width: 1.0;"/><line style="stroke: #696969; stroke-width: 1.5;" x1="398" x2="398" y1="128.4717" y2="218.5654"/><polygon fill="#696969" points="394,208.5654,398,218.5654,402,208.5654,398,212.5654" style="stroke: #696969; stroke-width: 1.0;"/><line style="stroke: #696969; stroke-width: 1.5;" x1="577" x2="577" y1="128.4717" y2="218.5654"/><polygon fill="#696969" points="573,208.5654,577,218.5654,581,208.5654,577,212.5654" style="stroke: #696969; stroke-width: 1.0;"/><line style="stroke: #696969; stroke-width: 1.5;" x1="765" x2="765" y1="128.4717" y2="183.5186"/><polygon fill="#696969" points="761,173.5186,765,183.5186,769,173.5186,765,177.5186" style="stroke: #696969; stroke-width: 1.0;"/><line style="stroke: #696969; stroke-width: 1.5;" x1="956" x2="956" y1="128.4717" y2="148.4717"/><polygon fill="#696969" points="952,138.4717,956,148.4717,960,138.4717,956,142.4717" style="stroke: #696969; stroke-width: 1.0;"/><line style="stroke: #696969; stroke-width: 1.5;" x1="163.5" x2="163.5" y1="278.7529" y2="368.8467"/><polygon fill="#696969" points="159.5,358.8467,163.5,368.8467,167.5,358.8467,163.5,362.8467" style="stroke: #696969; stroke-width: 1.0;"/><line style="stroke: #696969; stroke-width: 1.5;" x1="398" x2="398" y1="278.7529" y2="368.8467"/><polygon fill="#696969" points="394,358.8467,398,368.8467,402,358.8467,398,362.8467" style="stroke: #696969; stroke-width: 1.0;"/><line style="stroke: #696969; stroke-width: 1.5;" x1="577" x2="577" y1="278.7529" y2="368.8467"/><polygon fill="#696969" points="573,358.8467,577,368.8467,581,358.8467,577,362.8467" style="stroke: #696969; stroke-width: 1.0;"/><line style="stroke: #696969; stroke-width: 1.5;" x1="765" x2="765" y1="313.7998" y2="368.8467"/><polygon fill="#696969" points="761,358.8467,765,368.8467,769,358.8467,765,362.8467" style="stroke: #696969; stroke-width: 1.0;"/><line style="stroke: #696969; stroke-width: 1.5;" x1="956" x2="956" y1="348.8467" y2="368.8467"/><polygon fill="#696969" points="952,358.8467,956,368.8467,960,358.8467,956,362.8467" style="stroke: #696969; stroke-width: 1.0;"/><line style="stroke: #696969; stroke-width: 1.5;" x1="533.5" x2="533.5" y1="80.2188" y2="122.4717"/><polygon fill="#696969" points="529.5,112.4717,533.5,122.4717,537.5,112.4717,533.5,116.4717" style="stroke: #696969; stroke-width: 1.0;"/><path d="M540.3333,94.8883 L540.3333,95.805 L541.25,95.805 L541.25,95.8334 C539.6944,96.0543 538.5,97.3982 538.5,99.0133 C538.5,100.7816 539.9401,102.2217 541.7083,102.2217 C543.4766,102.2217 544.9167,100.7816 544.9167,99.0133 C544.9167,98.6008 544.8378,98.2122 544.7159,97.8675 L543.8561,98.1828 C543.9542,98.4615 543.9991,98.7292 543.9991,99.0133 C543.9991,100.2884 542.9825,101.305 541.7074,101.305 C540.4323,101.305 539.4158,100.2884 539.4158,99.0133 C539.4158,97.7383 540.4323,96.7217 541.7074,96.7217 C541.9806,96.7217 542.2437,96.7684 542.5095,96.8647 L542.8248,96.0048 C542.6223,95.9306 542.3931,95.8958 542.1658,95.8618 L542.1658,95.8041 L543.0824,95.8041 L543.0824,94.8874 L540.3324,94.8874 M544.9158,95.9187 C541.547,98.4853 541.547,98.4853 541.3637,98.6687 C541.1803,98.852 541.1803,99.1444 541.3637,99.3278 C541.547,99.5111 541.8394,99.5111 542.0228,99.3278 C542.2061,99.1536 544.9158,95.9187 544.9158,95.9187 " fill="#696969" style="stroke: ; stroke-width: 0.0; stroke-dasharray: ;"/><text fill="#696969" font-family="sans-serif" font-size="11" lengthAdjust="spacingAndGlyphs" textLength="118" x="549.8333" y="102.5547">wait until property funds</text><line style="stroke: #696969; stroke-width: 1.5;" x1="533.5" x2="533.5" y1="374.8467" y2="394.8467"/><polygon fill="#696969" points="529.5,384.8467,533.5,394.8467,537.5,384.8467,533.5,388.8467" style="stroke: #696969; stroke-width: 1.0;"/><line style="stroke: #696969; stroke-width: 1.5;" x1="266" x2="266" y1="586.6904" y2="606.6904"/><polygon fill="#696969" points="262,596.6904,266,606.6904,270,596.6904,266,600.6904" style="stroke: #696969; stroke-width: 1.0;"/><line style="stroke: #696969; stroke-width: 1.5;" x1="458.5" x2="458.5" y1="586.6904" y2="619.7842"/><polygon fill="#696969" points="454.5,609.7842,458.5,619.7842,462.5,609.7842,458.5,613.7842" style="stroke: #696969; stroke-width: 1.0;"/><line style="stroke: #696969; stroke-width: 1.5;" x1="629.5" x2="629.5" y1="586.6904" y2="679.6123"/><polygon fill="#696969" points="625.5,669.6123,629.5,679.6123,633.5,669.6123,629.5,673.6123" style="stroke: #696969; stroke-width: 1.0;"/><line style="stroke: #696969; stroke-width: 1.5;" x1="742" x2="742" y1="586.6904" y2="679.6123"/><polygon fill="#696969" points="738,669.6123,742,679.6123,746,669.6123,742,673.6123" style="stroke: #696969; stroke-width: 1.0;"/><line style="stroke: #696969; stroke-width: 1.5;" x1="838.5" x2="838.5" y1="586.6904" y2="679.6123"/><polygon fill="#696969" points="834.5,669.6123,838.5,679.6123,842.5,669.6123,838.5,673.6123" style="stroke: #696969; stroke-width: 1.0;"/><line style="stroke: #696969; stroke-width: 1.5;" x1="266" x2="266" y1="787.6279" y2="807.6279"/><polygon fill="#696969" points="262,797.6279,266,807.6279,270,797.6279,266,801.6279" style="stroke: #696969; stroke-width: 1.0;"/><line style="stroke: #696969; stroke-width: 1.5;" x1="458.5" x2="458.5" y1="774.5342" y2="807.6279"/><polygon fill="#696969" points="454.5,797.6279,458.5,807.6279,462.5,797.6279,458.5,801.6279" style="stroke: #696969; stroke-width: 1.0;"/><line style="stroke: #696969; stroke-width: 1.5;" x1="629.5" x2="629.5" y1="714.7061" y2="807.6279"/><polygon fill="#696969" points="625.5,797.6279,629.5,807.6279,633.5,797.6279,629.5,801.6279" style="stroke: #696969; stroke-width: 1.0;"/><line style="stroke: #696969; stroke-width: 1.5;" x1="742" x2="742" y1="714.7061" y2="807.6279"/><polygon fill="#696969" points="738,797.6279,742,807.6279,746,797.6279,742,801.6279" style="stroke: #696969; stroke-width: 1.0;"/><line style="stroke: #696969; stroke-width: 1.5;" x1="838.5" x2="838.5" y1="714.7061" y2="807.6279"/><polygon fill="#696969" points="834.5,797.6279,838.5,807.6279,842.5,797.6279,838.5,801.6279" style="stroke: #696969; stroke-width: 1.0;"/><line style="stroke: #696969; stroke-width: 1.5;" x1="533.5" x2="533.5" y1="560.6904" y2="580.6904"/><polygon fill="#696969" points="529.5,570.6904,533.5,580.6904,537.5,570.6904,533.5,574.6904" style="stroke: #696969; stroke-width: 1.0;"/><line style="stroke: #696969; stroke-width: 1.5;" x1="624" x2="624" y1="938.7217" y2="973.7217"/><polygon fill="#696969" points="620,963.7217,624,973.7217,628,963.7217,624,967.7217" style="stroke: #696969; stroke-width: 1.0;"/><line style="stroke: #696969; stroke-width: 1.5;" x1="413.5" x2="413.5" y1="883.6279" y2="913.5811"/><polygon fill="#696969" points="409.5,903.5811,413.5,913.5811,417.5,903.5811,413.5,907.5811" style="stroke: #696969; stroke-width: 1.0;"/><line style="stroke: #696969; stroke-width: 1.5;" x1="624" x2="624" y1="883.6279" y2="903.6279"/><polygon fill="#696969" points="620,893.6279,624,903.6279,628,893.6279,624,897.6279" style="stroke: #696969; stroke-width: 1.0;"/><path d="M630.8333,890.4626 L630.8333,891.3792 L631.75,891.3792 L631.75,891.4076 C630.1944,891.6286 629,892.9724 629,894.5876 C629,896.3558 630.4401,897.7959 632.2083,897.7959 C633.9766,897.7959 635.4167,896.3558 635.4167,894.5876 C635.4167,894.1751 635.3378,893.7864 635.2159,893.4417 L634.3561,893.7571 C634.4542,894.0357 634.4991,894.3034 634.4991,894.5876 C634.4991,895.8626 633.4825,896.8792 632.2074,896.8792 C630.9323,896.8792 629.9158,895.8626 629.9158,894.5876 C629.9158,893.3125 630.9323,892.2959 632.2074,892.2959 C632.4806,892.2959 632.7437,892.3426 633.0095,892.4389 L633.3248,891.5791 C633.1223,891.5048 632.8931,891.47 632.6658,891.4361 L632.6658,891.3783 L633.5824,891.3783 L633.5824,890.4616 L630.8324,890.4616 M635.4158,891.4929 C632.047,894.0596 632.047,894.0596 631.8637,894.2429 C631.6803,894.4262 631.6803,894.7186 631.8637,894.902 C632.047,895.0853 632.3394,895.0853 632.5228,894.902 C632.7061,894.7278 635.4158,891.4929 635.4158,891.4929 " fill="#696969" style="stroke: ; stroke-width: 0.0; stroke-dasharray: ;"/><text fill="#696969" font-family="sans-serif" font-size="11" lengthAdjust="spacingAndGlyphs" textLength="110" x="640.3333" y="898.1289">wait for a tour demand</text><line style="stroke: #696969; stroke-width: 1.5;" x1="413.5" x2="413.5" y1="998.8623" y2="1028.8154"/><polygon fill="#696969" points="409.5,1018.8154,413.5,1028.8154,417.5,1018.8154,413.5,1022.8154" style="stroke: #696969; stroke-width: 1.0;"/><line style="stroke: #696969; stroke-width: 1.5;" x1="624" x2="624" y1="1008.8154" y2="1028.8154"/><polygon fill="#696969" points="620,1018.8154,624,1028.8154,628,1018.8154,624,1022.8154" style="stroke: #696969; stroke-width: 1.0;"/><line style="stroke: #696969; stroke-width: 1.5;" x1="533.5" x2="533.5" y1="857.6279" y2="877.6279"/><polygon fill="#696969" points="529.5,867.6279,533.5,877.6279,537.5,867.6279,533.5,871.6279" style="stroke: #696969; stroke-width: 1.0;"/><line style="stroke: #696969; stroke-width: 1.5;" x1="561.5" x2="756" y1="1066.8154" y2="1066.8154"/><polygon fill="#696969" points="752,966.2217,756,956.2217,760,966.2217,756,962.2217" style="stroke: #696969; stroke-width: 1.5;"/><line style="stroke: #696969; stroke-width: 1.5;" x1="756" x2="756" y1="845.6279" y2="1066.8154"/><line style="stroke: #696969; stroke-width: 1.5;" x1="756" x2="545.5" y1="845.6279" y2="845.6279"/><polygon fill="#696969" points="555.5,841.6279,545.5,845.6279,555.5,849.6279,551.5,845.6279" style="stroke: #696969; stroke-width: 1.0;"/><text fill="#696969" font-family="sans-serif" font-size="11" lengthAdjust="spacingAndGlyphs" textLength="12" x="760" y="1071.3164">no</text><line style="stroke: #696969; stroke-width: 1.5;" x1="533.5" x2="533.5" y1="1034.8154" y2="1054.8154"/><polygon fill="#696969" points="529.5,1044.8154,533.5,1054.8154,537.5,1044.8154,533.5,1048.8154" style="stroke: #696969; stroke-width: 1.0;"/><line style="stroke: #696969; stroke-width: 1.5;" x1="533.5" x2="533.5" y1="813.6279" y2="833.6279"/><polygon fill="#696969" points="529.5,823.6279,533.5,833.6279,537.5,823.6279,533.5,827.6279" style="stroke: #696969; stroke-width: 1.0;"/><text fill="#000080" font-family="sans-serif" font-size="10" lengthAdjust="spacingAndGlyphs" textLength="31" x="10" y="1089.1963">©2019</text><a target="_top" xlink:actuate="onRequest" xlink:href="http://www.lifestylesunlimited.com" xlink:show="new" xlink:title="http://www.lifestylesunlimited.com" xlink:type="simple"><text fill="#0000FF" font-family="sans-serif" font-size="10" lengthAdjust="spacingAndGlyphs" text-decoration="underline" textLength="95" x="44" y="1089.1963">LifeStyles Unlimited</text><line style="stroke: #0000FF; stroke-width: 1.0;" x1="44" x2="139" y1="1091.1963" y2="1091.1963"/></a><text fill="#000080" font-family="sans-serif" font-size="10" lengthAdjust="spacingAndGlyphs" textLength="205" x="142" y="1089.1963">| Generated Sat Apr 20 19:28:12 CDT 2019</text><!--
@startuml advertising


skinparam {
  BorderColor Red
  PathHoverColor Blue
}

skinparam Title {
  FontColor Navy
  BackgroundColor PaleGoldenRod
  BorderColor Navy
  BorderRoundCorner 20
}

skinparam activity {
  BackgroundColor Ivory
  BorderColor CornflowerBlue
  FontColor DimGray
  

  Arrow {
    Color dimgray
    FontColor dimgray
  }

  Start {
    Color PHYSICAL
  }

  End {
    Color Coral
  }

  Diamond {
    BackgroundColor Ivory
    BorderColor CornflowerBlue
    FontColor DarkGray
  }

  BackgroundColor<< Exception >> Red
	BorderColor<< Exception >> White
}

skinparam Swimlane {
  BorderColor CornflowerBlue 
}

skinparam Partition {
  BackgroundColor Ivory
  BorderColor CornflowerBlue
  BorderThickness 1
  FontColor CornflowerBlue
  FontSize 16
  BorderRoundCorner 20
}

skinparam Note {
  BackgroundColor LightSteelBlue
  BorderColor CornflowerBlue
  FontColor White
}

skinparam Legend {
  BackgroundColor LightSteelBlue
  BorderColor CornflowerBlue
  FontColor White
}

skinparam Footer {
  FontColor Navy
}


left header 
	<font color=Navy>[[../index.svg ⌂ Home]]</font>
endheader


	Title Advertising

	start

	-><&timer> wait until property funds;

	fork
		:<&phone> get google voice number
		- - - -
		don't want people having your personal number;
	fork again
		:<&envelope-closed> get inquiry email
		- - - -
		<i>address@gmail.com;
	fork again
		:<&envelope-closed> get application email
		- - - -
		<i>address_apps@gmail.com;
	fork again
		:<&cloud> get paypal account;
		:<&envelope-closed> paypal email address
		- - - -
		<i>property@paypal.com;
	fork again
		:<&cloud> get youtube account;
		:<&rss> get youtube channel
		- - - -
		<&user> <i>user name: property;
		:<&video> upload property tour video;
	end fork

	:set up the inquiry email
	<i>auto-respond message
	- - - -
	<&envelope-open> reply-to: address_apps@gmail.com
	<&pencil> <color:orange> thank you message
	<&link-intact> <color:cornflowerblue> youtube tour video
	<&paperclip> application
	<&paperclip> credit / criminal permission from
	
	;

	fork
		:put info in window
		====
		* pictures of rooms
		** front
		** bath
		** kitchen
		** living
		* amenities
		* crime for area
		* application criteria
		;
	fork again
		#Magenta:sign in front yard
		<i>neon pink from walmart
		<i>written with a sharpie
		====
		| 3-2-2 | $875 |
		| 1680 sq ft | ready 4/1/2019 |
		| All New Blah | All New Blah |
		| (214) 555-1212 | call Fred |
		]
	fork again
		[[https://dallas.craigslist.org]]#LightSkyBlue:<&globe> craig's list;
	fork again
		[[https://postless.com]]#LightSkyBlue:<&globe> postless;
	fork again
		[[https://cozy.co]]#LightSkyBlue:<&globe> cozy;
	end fork

		repeat
			fork
				[[leasing.svg?sanitize=true]]#LightSkyBlue:process applications\n====\n<&people> first come, first served\n- - - -\n<i>see leasing <&arrow-thick-right>;
			fork again
				-><&timer> wait for a tour demand;
				:schedule tour date;
				:give tour to next group of applicants;
			end fork
		repeat while (leased)->no




left footer 
	©2019 [[http://www.lifestylesunlimited.com LifeStyles Unlimited]] | Generated Sat Apr 20 19:28:12 CDT 2019
endfooter


@enduml

PlantUML version 1.2019.03(Sun Mar 10 06:04:44 CDT 2019)
(GPL source distribution)
Java Runtime: Java(TM) SE Runtime Environment
JVM: Java HotSpot(TM) 64-Bit Server VM
Java Version: 1.8.0_111-b14
Operating System: Windows 10
OS Version: 10.0
Default Encoding: Cp1252
Language: en
Country: US
--></g></svg>