<?xml version="1.0" encoding="UTF-8" standalone="no"?><svg xmlns="http://www.w3.org/2000/svg" xmlns:xlink="http://www.w3.org/1999/xlink" contentScriptType="application/ecmascript" contentStyleType="text/css" height="853px" preserveAspectRatio="none" style="width:1225px;height:853px;" version="1.1" viewBox="0 0 1225 853" width="1225px" zoomAndPan="magnify"><defs><style type="text/css"><![CDATA[path:hover { stroke: #0000FF !important;}]]></style><filter height="300%" id="f10wtkm0wf023m" width="300%" x="-1" y="-1"><feGaussianBlur result="blurOut" stdDeviation="2.0"/><feColorMatrix in="blurOut" result="blurOut2" type="matrix" values="0 0 0 0 0 0 0 0 0 0 0 0 0 0 0 0 0 0 .4 0"/><feOffset dx="4.0" dy="4.0" in="blurOut2" result="blurOut3"/><feBlend in="SourceGraphic" in2="blurOut3" mode="normal"/></filter></defs><g><a target="_top" xlink:actuate="onRequest" xlink:href="../index.svg?sanitize=true" xlink:show="new" xlink:title="../index.svg?sanitize=true" xlink:type="simple"><text fill="#0000FF" font-family="sans-serif" font-size="24" lengthAdjust="spacingAndGlyphs" text-decoration="underline" textLength="90" x="10" y="34.9141">⌂ Home</text><line style="stroke: #0000FF; stroke-width: 1.0;" x1="10" x2="100" y1="36.9141" y2="36.9141"/></a><rect fill="#EEE8AA" height="70.375" rx="10" ry="10" style="stroke: #000080; stroke-width: 1.5;" width="477" x="372.5" y="42.1875"/><text fill="#000080" font-family="sans-serif" font-size="24" lengthAdjust="spacingAndGlyphs" textLength="461" x="380.5" y="72.1016">Challenge Education &amp; Mentoring Program</text><text fill="#000080" font-family="sans-serif" font-size="24" lengthAdjust="spacingAndGlyphs" textLength="162" x="530" y="102.2891">(Single Family)</text><ellipse cx="598.5" cy="125.5625" fill="#CCFFCC" filter="url(#f10wtkm0wf023m)" rx="10" ry="10" style="stroke: none; stroke-width: 1.0;"/><rect fill="#CCFFCC" filter="url(#f10wtkm0wf023m)" height="35.0938" style="stroke: #6495ED; stroke-width: 1.0;" width="151" x="523" y="155.5625"/><path d="M537,169.6563 L537,170.6563 L536.25,170.6563 C535.564,170.6563 535,171.2203 535,171.9063 L535,172.4063 C535,173.0843 535.437,173.6483 536.094,173.8123 L538.657,174.4683 C538.8,174.5043 539.001,174.7643 539.001,174.9063 L539.001,175.4063 C539.001,175.5403 538.885,175.6563 538.751,175.6563 L536.251,175.6563 C536.135,175.6563 536.039,175.6193 536.001,175.5933 L536.001,174.6553 L535.001,174.6553 L535.001,175.6553 C535.001,175.9973 535.204,176.2823 535.439,176.4363 C535.673,176.5913 535.957,176.6553 536.252,176.6553 L537.002,176.6553 L537.002,177.6553 L538.002,177.6553 L538.002,176.6553 L538.752,176.6553 C539.438,176.6553 540.002,176.0913 540.002,175.4053 L540.002,174.9053 C540.002,174.2273 539.565,173.6633 538.908,173.4993 L536.345,172.8433 C536.202,172.8073 536.001,172.5473 536.001,172.4053 L536.001,171.9053 C536.001,171.7713 536.117,171.6553 536.251,171.6553 L538.751,171.6553 C538.867,171.6553 538.963,171.6923 539.001,171.7183 L539.001,172.6563 L540.001,172.6563 L540.001,171.6563 C540.001,171.3143 539.798,171.0293 539.563,170.8753 C539.329,170.7203 539.045,170.6563 538.75,170.6563 L538,170.6563 L538,169.6563 L537,169.6563 " fill="#696969" style="stroke: ; stroke-width: 0.0; stroke-dasharray: ;"/><text fill="#696969" font-family="sans-serif" font-size="12" lengthAdjust="spacingAndGlyphs" textLength="118" x="546" y="178.0195">Enrollment Fee 7,000</text><rect fill="#FFFFF0" filter="url(#f10wtkm0wf023m)" height="35.0938" rx="12.5" ry="12.5" style="stroke: #6495ED; stroke-width: 1.0;" width="51" x="573" y="276.4912"/><text fill="#696969" font-family="sans-serif" font-size="12" lengthAdjust="spacingAndGlyphs" textLength="31" x="583" y="298.9482">active</text><rect fill="#000000" filter="url(#f10wtkm0wf023m)" height="6" rx="2.5" ry="2.5" style="stroke: #000000; stroke-width: 1.0;" width="1177" x="10" y="331.585"/><a target="_top" xlink:actuate="onRequest" xlink:href="../unlimited-lifestyle/financial-freedom-program.svg?sanitize=true" xlink:show="new" xlink:title="../unlimited-lifestyle/financial-freedom-program.svg?sanitize=true" xlink:type="simple"><rect fill="#87CEFA" filter="url(#f10wtkm0wf023m)" height="35.0938" rx="12.5" ry="12.5" style="stroke: #6495ED; stroke-width: 1.0;" width="165" x="24" y="425.2256"/><text fill="#696969" font-family="sans-serif" font-size="12" lengthAdjust="spacingAndGlyphs" textLength="145" x="34" y="447.6826">financial freedom program</text></a><rect fill="#FFFFF0" filter="url(#f10wtkm0wf023m)" height="35.0938" rx="12.5" ry="12.5" style="stroke: #6495ED; stroke-width: 1.0;" width="66" x="217" y="425.2256"/><text fill="#696969" font-family="sans-serif" font-size="12" lengthAdjust="spacingAndGlyphs" textLength="46" x="227" y="447.6826">mentors</text><rect fill="#FFFFF0" filter="url(#f10wtkm0wf023m)" height="35.0938" rx="12.5" ry="12.5" style="stroke: #6495ED; stroke-width: 1.0;" width="116" x="311" y="425.2256"/><text fill="#696969" font-family="sans-serif" font-size="12" lengthAdjust="spacingAndGlyphs" textLength="96" x="321" y="447.6826">1-on-1 consulting</text><rect fill="#FFFFF0" filter="url(#f10wtkm0wf023m)" height="35.0938" rx="12.5" ry="12.5" style="stroke: #6495ED; stroke-width: 1.0;" width="117" x="455" y="425.2256"/><text fill="#696969" font-family="sans-serif" font-size="12" lengthAdjust="spacingAndGlyphs" textLength="97" x="465" y="447.6826">Lifestyles realtors</text><rect fill="#FFFFF0" filter="url(#f10wtkm0wf023m)" height="35.0938" rx="12.5" ry="12.5" style="stroke: #6495ED; stroke-width: 1.0;" width="84" x="616" y="357.585"/><text fill="#696969" font-family="sans-serif" font-size="12" lengthAdjust="spacingAndGlyphs" textLength="61" x="629" y="380.042">email blast</text><rect fill="#FFFFF0" filter="url(#f10wtkm0wf023m)" height="35.0938" rx="12.5" ry="12.5" style="stroke: #6495ED; stroke-width: 1.0;" width="116" x="600" y="425.2256"/><text fill="#696969" font-family="sans-serif" font-size="12" lengthAdjust="spacingAndGlyphs" textLength="93" x="613" y="447.6826">reply for package</text><rect fill="#FFFFF0" filter="url(#f10wtkm0wf023m)" height="35.0938" style="stroke: #6495ED; stroke-width: 1.0;" width="67" x="624.5" y="495.3193"/><text fill="#696969" font-family="sans-serif" font-size="12" lengthAdjust="spacingAndGlyphs" textLength="47" x="634.5" y="517.7764">package</text><rect fill="#FFFFF0" filter="url(#f10wtkm0wf023m)" height="60.1875" rx="12.5" ry="12.5" style="stroke: #6495ED; stroke-width: 1.0;" width="134" x="744" y="412.6787"/><text fill="#696969" font-family="sans-serif" font-size="12" lengthAdjust="spacingAndGlyphs" textLength="52" x="754" y="435.1357">road trips</text><line style="stroke: #6495ED; stroke-width: 1.0;" x1="744" x2="878" y1="442.7725" y2="442.7725"/><text fill="#696969" font-family="sans-serif" font-size="12" font-style="italic" lengthAdjust="spacingAndGlyphs" textLength="114" x="754" y="460.2295">may include vendors</text><rect fill="#FFFFF0" filter="url(#f10wtkm0wf023m)" height="35.0938" rx="12.5" ry="12.5" style="stroke: #6495ED; stroke-width: 1.0;" width="186" x="906" y="425.2256"/><text fill="#696969" font-family="sans-serif" font-size="12" lengthAdjust="spacingAndGlyphs" textLength="166" x="916" y="447.6826">specialized education classes</text><polygon fill="#FFFFF0" filter="url(#f10wtkm0wf023m)" points="1120,425.2256,1173,425.2256,1183,442.7725,1173,460.3193,1120,460.3193" style="stroke: #6495ED; stroke-width: 1.0;"/><text fill="#696969" font-family="sans-serif" font-size="12" lengthAdjust="spacingAndGlyphs" textLength="33" x="1130" y="447.6826">1 year</text><rect fill="#000000" filter="url(#f10wtkm0wf023m)" height="6" rx="2.5" ry="2.5" style="stroke: #000000; stroke-width: 1.0;" width="1177" x="10" y="550.4131"/><rect fill="#FFFFF0" filter="url(#f10wtkm0wf023m)" height="35.0938" rx="12.5" ry="12.5" style="stroke: #6495ED; stroke-width: 1.0;" width="61" x="568" y="576.4131"/><text fill="#696969" font-family="sans-serif" font-size="12" lengthAdjust="spacingAndGlyphs" textLength="41" x="578" y="598.8701">inactive</text><rect fill="#CCFFCC" filter="url(#f10wtkm0wf023m)" height="35.0938" style="stroke: #6495ED; stroke-width: 1.0;" width="157" x="520" y="631.5068"/><path d="M534,645.6006 L534,646.6006 L533.25,646.6006 C532.564,646.6006 532,647.1646 532,647.8506 L532,648.3506 C532,649.0286 532.437,649.5926 533.094,649.7566 L535.657,650.4126 C535.8,650.4486 536.001,650.7086 536.001,650.8506 L536.001,651.3506 C536.001,651.4846 535.885,651.6006 535.751,651.6006 L533.251,651.6006 C533.135,651.6006 533.039,651.5636 533.001,651.5376 L533.001,650.5996 L532.001,650.5996 L532.001,651.5996 C532.001,651.9416 532.204,652.2266 532.439,652.3806 C532.673,652.5356 532.957,652.5996 533.252,652.5996 L534.002,652.5996 L534.002,653.5996 L535.002,653.5996 L535.002,652.5996 L535.752,652.5996 C536.438,652.5996 537.002,652.0356 537.002,651.3496 L537.002,650.8496 C537.002,650.1716 536.565,649.6076 535.908,649.4436 L533.345,648.7876 C533.202,648.7516 533.001,648.4916 533.001,648.3496 L533.001,647.8496 C533.001,647.7156 533.117,647.5996 533.251,647.5996 L535.751,647.5996 C535.867,647.5996 535.963,647.6366 536.001,647.6626 L536.001,648.6006 L537.001,648.6006 L537.001,647.6006 C537.001,647.2586 536.798,646.9736 536.563,646.8196 C536.329,646.6646 536.045,646.6006 535.75,646.6006 L535,646.6006 L535,645.6006 L534,645.6006 " fill="#696969" style="stroke: ; stroke-width: 0.0; stroke-dasharray: ;"/><text fill="#696969" font-family="sans-serif" font-size="12" lengthAdjust="spacingAndGlyphs" textLength="124" x="543" y="653.9639">Annual Renewal 2,000</text><polygon fill="#FFFFF0" filter="url(#f10wtkm0wf023m)" points="598.5,210.6563,610.5,222.6563,598.5,234.6563,586.5,222.6563,598.5,210.6563" style="stroke: #6495ED; stroke-width: 1.0;"/><polygon fill="#FFFFF0" filter="url(#f10wtkm0wf023m)" points="598.5,686.6006,598.5,686.6006,610.5,698.6006,598.5,710.6006,598.5,710.6006,586.5,698.6006,598.5,686.6006" style="stroke: #6495ED; stroke-width: 1.0;"/><line style="stroke: #696969; stroke-width: 1.5;" x1="598.5" x2="598.5" y1="135.5625" y2="155.5625"/><polygon fill="#696969" points="594.5,145.5625,598.5,155.5625,602.5,145.5625,598.5,149.5625" style="stroke: #696969; stroke-width: 1.0;"/><line style="stroke: #696969; stroke-width: 1.5;" x1="658" x2="658" y1="392.6787" y2="425.2256"/><polygon fill="#696969" points="654,415.2256,658,425.2256,662,415.2256,658,419.2256" style="stroke: #696969; stroke-width: 1.0;"/><line style="stroke: #696969; stroke-width: 1.5;" x1="658" x2="658" y1="460.3193" y2="495.3193"/><polygon fill="#696969" points="654,485.3193,658,495.3193,662,485.3193,658,489.3193" style="stroke: #696969; stroke-width: 1.0;"/><line style="stroke: #696969; stroke-width: 1.5;" x1="106.5" x2="106.5" y1="337.585" y2="425.2256"/><polygon fill="#696969" points="102.5,415.2256,106.5,425.2256,110.5,415.2256,106.5,419.2256" style="stroke: #696969; stroke-width: 1.0;"/><line style="stroke: #696969; stroke-width: 1.5;" x1="250" x2="250" y1="337.585" y2="425.2256"/><polygon fill="#696969" points="246,415.2256,250,425.2256,254,415.2256,250,419.2256" style="stroke: #696969; stroke-width: 1.0;"/><line style="stroke: #696969; stroke-width: 1.5;" x1="369" x2="369" y1="337.585" y2="425.2256"/><polygon fill="#696969" points="365,415.2256,369,425.2256,373,415.2256,369,419.2256" style="stroke: #696969; stroke-width: 1.0;"/><line style="stroke: #696969; stroke-width: 1.5;" x1="513.5" x2="513.5" y1="337.585" y2="425.2256"/><polygon fill="#696969" points="509.5,415.2256,513.5,425.2256,517.5,415.2256,513.5,419.2256" style="stroke: #696969; stroke-width: 1.0;"/><line style="stroke: #696969; stroke-width: 1.5;" x1="658" x2="658" y1="337.585" y2="357.585"/><polygon fill="#696969" points="654,347.585,658,357.585,662,347.585,658,351.585" style="stroke: #696969; stroke-width: 1.0;"/><line style="stroke: #696969; stroke-width: 1.5;" x1="811" x2="811" y1="337.585" y2="412.6787"/><polygon fill="#696969" points="807,402.6787,811,412.6787,815,402.6787,811,406.6787" style="stroke: #696969; stroke-width: 1.0;"/><line style="stroke: #696969; stroke-width: 1.5;" x1="999" x2="999" y1="337.585" y2="425.2256"/><polygon fill="#696969" points="995,415.2256,999,425.2256,1003,415.2256,999,419.2256" style="stroke: #696969; stroke-width: 1.0;"/><line style="stroke: #696969; stroke-width: 1.5;" x1="1146.5" x2="1146.5" y1="337.585" y2="425.2256"/><polygon fill="#696969" points="1142.5,415.2256,1146.5,425.2256,1150.5,415.2256,1146.5,419.2256" style="stroke: #696969; stroke-width: 1.0;"/><line style="stroke: #696969; stroke-width: 1.5;" x1="106.5" x2="106.5" y1="460.3193" y2="550.4131"/><polygon fill="#696969" points="102.5,540.4131,106.5,550.4131,110.5,540.4131,106.5,544.4131" style="stroke: #696969; stroke-width: 1.0;"/><line style="stroke: #696969; stroke-width: 1.5;" x1="250" x2="250" y1="460.3193" y2="550.4131"/><polygon fill="#696969" points="246,540.4131,250,550.4131,254,540.4131,250,544.4131" style="stroke: #696969; stroke-width: 1.0;"/><line style="stroke: #696969; stroke-width: 1.5;" x1="369" x2="369" y1="460.3193" y2="550.4131"/><polygon fill="#696969" points="365,540.4131,369,550.4131,373,540.4131,369,544.4131" style="stroke: #696969; stroke-width: 1.0;"/><line style="stroke: #696969; stroke-width: 1.5;" x1="513.5" x2="513.5" y1="460.3193" y2="550.4131"/><polygon fill="#696969" points="509.5,540.4131,513.5,550.4131,517.5,540.4131,513.5,544.4131" style="stroke: #696969; stroke-width: 1.0;"/><line style="stroke: #696969; stroke-width: 1.5;" x1="658" x2="658" y1="530.4131" y2="550.4131"/><polygon fill="#696969" points="654,540.4131,658,550.4131,662,540.4131,658,544.4131" style="stroke: #696969; stroke-width: 1.0;"/><line style="stroke: #696969; stroke-width: 1.5;" x1="811" x2="811" y1="472.8662" y2="550.4131"/><polygon fill="#696969" points="807,540.4131,811,550.4131,815,540.4131,811,544.4131" style="stroke: #696969; stroke-width: 1.0;"/><line style="stroke: #696969; stroke-width: 1.5;" x1="999" x2="999" y1="460.3193" y2="550.4131"/><polygon fill="#696969" points="995,540.4131,999,550.4131,1003,540.4131,999,544.4131" style="stroke: #696969; stroke-width: 1.0;"/><line style="stroke: #696969; stroke-width: 1.5;" x1="1146.5" x2="1146.5" y1="460.3193" y2="550.4131"/><polygon fill="#696969" points="1142.5,540.4131,1146.5,550.4131,1150.5,540.4131,1146.5,544.4131" style="stroke: #696969; stroke-width: 1.0;"/><line style="stroke: #696969; stroke-width: 1.5;" x1="598.5" x2="598.5" y1="311.585" y2="331.585"/><polygon fill="#696969" points="594.5,321.585,598.5,331.585,602.5,321.585,598.5,325.585" style="stroke: #696969; stroke-width: 1.0;"/><line style="stroke: #696969; stroke-width: 1.5;" x1="598.5" x2="598.5" y1="556.4131" y2="576.4131"/><polygon fill="#696969" points="594.5,566.4131,598.5,576.4131,602.5,566.4131,598.5,570.4131" style="stroke: #696969; stroke-width: 1.0;"/><line style="stroke: #696969; stroke-width: 1.5;" x1="598.5" x2="598.5" y1="611.5068" y2="631.5068"/><polygon fill="#696969" points="594.5,621.5068,598.5,631.5068,602.5,621.5068,598.5,625.5068" style="stroke: #696969; stroke-width: 1.0;"/><line style="stroke: #696969; stroke-width: 1.5;" x1="598.5" x2="598.5" y1="234.6563" y2="276.4912"/><polygon fill="#696969" points="594.5,266.4912,598.5,276.4912,602.5,266.4912,598.5,270.4912" style="stroke: #696969; stroke-width: 1.0;"/><text fill="#696969" font-family="sans-serif" font-size="11" lengthAdjust="spacingAndGlyphs" textLength="20" x="602.5" y="256.9922">paid</text><line style="stroke: #696969; stroke-width: 1.5;" x1="610.5" x2="1199" y1="698.6006" y2="698.6006"/><polygon fill="#696969" points="1195,487.8193,1199,477.8193,1203,487.8193,1199,483.8193" style="stroke: #696969; stroke-width: 1.5;"/><line style="stroke: #696969; stroke-width: 1.5;" x1="1199" x2="1199" y1="222.6563" y2="698.6006"/><line style="stroke: #696969; stroke-width: 1.5;" x1="1199" x2="610.5" y1="222.6563" y2="222.6563"/><polygon fill="#696969" points="620.5,218.6563,610.5,222.6563,620.5,226.6563,616.5,222.6563" style="stroke: #696969; stroke-width: 1.0;"/><line style="stroke: #696969; stroke-width: 1.5;" x1="598.5" x2="598.5" y1="666.6006" y2="686.6006"/><polygon fill="#696969" points="594.5,676.6006,598.5,686.6006,602.5,676.6006,598.5,680.6006" style="stroke: #696969; stroke-width: 1.0;"/><line style="stroke: #696969; stroke-width: 1.5;" x1="598.5" x2="598.5" y1="190.6563" y2="210.6563"/><polygon fill="#696969" points="594.5,200.6563,598.5,210.6563,602.5,200.6563,598.5,204.6563" style="stroke: #696969; stroke-width: 1.0;"/><rect fill="#B0C4DE" height="98.0469" rx="5" ry="5" style="stroke: #6495ED; stroke-width: 1.0;" width="221" x="500.5" y="718.6006"/><text fill="#FFFFFF" font-family="sans-serif" font-size="14" lengthAdjust="spacingAndGlyphs" textLength="136" x="506.5" y="738.1338">ready to buy program</text><text fill="#FFFFFF" font-family="sans-serif" font-size="14" lengthAdjust="spacingAndGlyphs" textLength="0" x="510.5" y="755.7432"/><text fill="#FFFFFF" font-family="sans-serif" font-size="14" lengthAdjust="spacingAndGlyphs" textLength="108" x="506.5" y="773.3525">for new members</text><text fill="#FFFFFF" font-family="sans-serif" font-size="14" lengthAdjust="spacingAndGlyphs" textLength="183" x="506.5" y="790.9619">mentors find deal just for you</text><text fill="#FFFFFF" font-family="sans-serif" font-size="14" lengthAdjust="spacingAndGlyphs" textLength="209" x="506.5" y="808.5713">goal: get 1st property &lt;= 30 days</text><text fill="#000080" font-family="sans-serif" font-size="14" lengthAdjust="spacingAndGlyphs" textLength="42" x="10" y="840.1807">©2019</text><a target="_top" xlink:actuate="onRequest" xlink:href="http://www.lifestylesunlimited.com" xlink:show="new" xlink:title="http://www.lifestylesunlimited.com" xlink:type="simple"><text fill="#0000FF" font-family="sans-serif" font-size="14" lengthAdjust="spacingAndGlyphs" text-decoration="underline" textLength="122" x="56" y="840.1807">LifeStyles Unlimited</text><line style="stroke: #0000FF; stroke-width: 1.0;" x1="56" x2="178" y1="842.1807" y2="842.1807"/></a><text fill="#000080" font-family="sans-serif" font-size="14" lengthAdjust="spacingAndGlyphs" textLength="283" x="182" y="840.1807">| Generated Sun May 12 17:24:19 CDT 2019</text><!--
@startuml challenge-program


skinparam {
  BorderColor Red
  PathHoverColor Blue
}

skinparam Title {
  FontColor Navy
  BackgroundColor PaleGoldenRod
  BorderColor Navy
  BorderRoundCorner 20
  FontSize 24
}

skinparam activity {
  BackgroundColor Ivory
  BorderColor CornflowerBlue
  BorderThickness 1
  FontColor DimGray
  

  Arrow {
    Color dimgray
    FontColor dimgray
  }

  Start {
    Color PHYSICAL
  }

  End {
    Color Coral
  }

  Diamond {
    BackgroundColor Ivory
    BorderColor CornflowerBlue
    FontColor DarkGray
  }

  BackgroundColor<< Exception >> Red
	BorderColor<< Exception >> White
}

skinparam Swimlane {
  BorderColor CornflowerBlue 
}

skinparam Partition {
  BackgroundColor Ivory
  BorderColor CornflowerBlue
  BorderThickness 1
  FontColor CornflowerBlue
  FontSize 16
  BorderRoundCorner 20
}

skinparam Note {
  BackgroundColor LightSteelBlue
  BorderColor CornflowerBlue
  FontColor White
}

skinparam Legend {
  BackgroundColor LightSteelBlue
  BorderColor CornflowerBlue
  FontColor White
}

skinparam Footer {
  FontColor Navy
}


left header 
	<font color=Navy size=24>[[../index.svg?sanitize=true ⌂ Home]]</font>
endheader


	Title Challenge Education & Mentoring Program\n(Single Family)

	start

	#PHYSICAL:<&dollar> Enrollment Fee 7,000]

	repeat
		->paid;
		:active;
		fork
			[[../unlimited-lifestyle/financial-freedom-program.svg?sanitize=true]]#LightSkyBlue:financial freedom program;
		fork again
			:mentors;
		fork again
			:1-on-1 consulting;
		fork again
			:Lifestyles realtors;
		fork again
			:<&email> email blast;
			:<&email> reply for package;
			:package]
		fork again
			:road trips
			- - - -
			<i>may include vendors;

		fork again
			:specialized education classes;

		fork again
			:1 year>
		end fork
		:inactive;

		#PHYSICAL:<&dollar> Annual Renewal 2,000]
	repeat while ()

	legend 
		ready to buy program
		
		for new members
		mentors find deal just for you
		goal: get 1st property <= 30 days
	end legend



left footer 
	<font size=14>©2019 [[http://www.lifestylesunlimited.com LifeStyles Unlimited]] | Generated Sun May 12 17:24:19 CDT 2019</font>
endfooter


@enduml

PlantUML version 1.2019.03(Sun Mar 10 06:04:44 CDT 2019)
(GPL source distribution)
Java Runtime: Java(TM) SE Runtime Environment
JVM: Java HotSpot(TM) 64-Bit Server VM
Java Version: 1.8.0_111-b14
Operating System: Windows 10
OS Version: 10.0
Default Encoding: Cp1252
Language: en
Country: US
--></g></svg>