<?xml version="1.0" encoding="UTF-8" standalone="no"?><svg xmlns="http://www.w3.org/2000/svg" xmlns:xlink="http://www.w3.org/1999/xlink" contentScriptType="application/ecmascript" contentStyleType="text/css" height="393px" preserveAspectRatio="none" style="width:359px;height:393px;" version="1.1" viewBox="0 0 359 393" width="359px" zoomAndPan="magnify"><defs><style type="text/css"><![CDATA[path:hover { stroke: #0000FF !important;}]]></style><filter height="300%" id="fx85494veqiwe" width="300%" x="-1" y="-1"><feGaussianBlur result="blurOut" stdDeviation="2.0"/><feColorMatrix in="blurOut" result="blurOut2" type="matrix" values="0 0 0 0 0 0 0 0 0 0 0 0 0 0 0 0 0 0 .4 0"/><feOffset dx="4.0" dy="4.0" in="blurOut2" result="blurOut3"/><feBlend in="SourceGraphic" in2="blurOut3" mode="normal"/></filter></defs><g><a target="_top" xlink:actuate="onRequest" xlink:href="../index.svg" xlink:show="new" xlink:title="../index.svg" xlink:type="simple"><text fill="#0000FF" font-family="sans-serif" font-size="10" lengthAdjust="spacingAndGlyphs" text-decoration="underline" textLength="39" x="10" y="20.3809">⌂ Home</text><line style="stroke: #0000FF; stroke-width: 1.0;" x1="10" x2="49" y1="22.3809" y2="22.3809"/></a><rect fill="#EEE8AA" height="32.6406" rx="10" ry="10" style="stroke: #000080; stroke-width: 1.5;" width="170" x="93" y="24.5781"/><text fill="#000080" font-family="sans-serif" font-size="18" lengthAdjust="spacingAndGlyphs" textLength="154" x="101" y="48.2637">Challenge Program</text><ellipse cx="165.5" cy="70.2188" fill="#CCFFCC" filter="url(#fx85494veqiwe)" rx="10" ry="10" style="stroke: none; stroke-width: 1.0;"/><rect fill="#FFFFF0" filter="url(#fx85494veqiwe)" height="35.0938" rx="12.5" ry="12.5" style="stroke: #6495ED; stroke-width: 1.5;" width="55" x="138" y="100.2188"/><text fill="#696969" font-family="sans-serif" font-size="12" lengthAdjust="spacingAndGlyphs" textLength="35" x="148" y="122.6758">$7000</text><rect fill="#000000" filter="url(#fx85494veqiwe)" height="6" rx="2.5" ry="2.5" style="stroke: #000000; stroke-width: 1.0;" width="230" x="50.5" y="199.3125"/><rect fill="#FFFFF0" filter="url(#fx85494veqiwe)" height="35.0938" rx="12.5" ry="12.5" style="stroke: #6495ED; stroke-width: 1.5;" width="121" x="64.5" y="225.3125"/><text fill="#696969" font-family="sans-serif" font-size="12" lengthAdjust="spacingAndGlyphs" textLength="101" x="74.5" y="247.7695">work with coaches</text><polygon fill="#FFFFF0" filter="url(#fx85494veqiwe)" points="213.5,225.3125,266.5,225.3125,276.5,242.8594,266.5,260.4063,213.5,260.4063" style="stroke: #6495ED; stroke-width: 1.5;"/><text fill="#696969" font-family="sans-serif" font-size="12" lengthAdjust="spacingAndGlyphs" textLength="33" x="223.5" y="247.7695">1 year</text><rect fill="#000000" filter="url(#fx85494veqiwe)" height="6" rx="2.5" ry="2.5" style="stroke: #000000; stroke-width: 1.0;" width="230" x="50.5" y="280.4063"/><polygon fill="#FFFFF0" filter="url(#fx85494veqiwe)" points="165.5,155.3125,177.5,167.3125,165.5,179.3125,153.5,167.3125,165.5,155.3125" style="stroke: #6495ED; stroke-width: 1.5;"/><polygon fill="#FFFFF0" filter="url(#fx85494veqiwe)" points="150.5,306.4063,180.5,306.4063,192.5,318.4063,180.5,330.4063,150.5,330.4063,138.5,318.4063,150.5,306.4063" style="stroke: #6495ED; stroke-width: 1.5;"/><text fill="#A9A9A9" font-family="sans-serif" font-size="11" lengthAdjust="spacingAndGlyphs" textLength="30" x="150.5" y="322.9072">$2000</text><ellipse cx="165.5" cy="360.4063" fill="#FFFFFF" filter="url(#fx85494veqiwe)" rx="10" ry="10" style="stroke: #FF7F50; stroke-width: 1.5;"/><line style="stroke: #FF7F50; stroke-width: 2.5;" x1="159.3128" x2="171.6872" y1="354.2191" y2="366.5934"/><line style="stroke: #FF7F50; stroke-width: 2.5;" x1="171.6872" x2="159.3128" y1="354.2191" y2="366.5934"/><line style="stroke: #696969; stroke-width: 1.5;" x1="165.5" x2="165.5" y1="80.2188" y2="100.2188"/><polygon fill="#696969" points="161.5,90.2188,165.5,100.2188,169.5,90.2188,165.5,94.2188" style="stroke: #696969; stroke-width: 1.0;"/><line style="stroke: #696969; stroke-width: 1.5;" x1="125" x2="125" y1="205.3125" y2="225.3125"/><polygon fill="#696969" points="121,215.3125,125,225.3125,129,215.3125,125,219.3125" style="stroke: #696969; stroke-width: 1.0;"/><line style="stroke: #696969; stroke-width: 1.5;" x1="240" x2="240" y1="205.3125" y2="225.3125"/><polygon fill="#696969" points="236,215.3125,240,225.3125,244,215.3125,240,219.3125" style="stroke: #696969; stroke-width: 1.0;"/><line style="stroke: #696969; stroke-width: 1.5;" x1="125" x2="125" y1="260.4063" y2="280.4063"/><polygon fill="#696969" points="121,270.4063,125,280.4063,129,270.4063,125,274.4063" style="stroke: #696969; stroke-width: 1.0;"/><line style="stroke: #696969; stroke-width: 1.5;" x1="240" x2="240" y1="260.4063" y2="280.4063"/><polygon fill="#696969" points="236,270.4063,240,280.4063,244,270.4063,240,274.4063" style="stroke: #696969; stroke-width: 1.0;"/><line style="stroke: #696969; stroke-width: 1.5;" x1="165.5" x2="165.5" y1="179.3125" y2="199.3125"/><polygon fill="#696969" points="161.5,189.3125,165.5,199.3125,169.5,189.3125,165.5,193.3125" style="stroke: #696969; stroke-width: 1.0;"/><line style="stroke: #696969; stroke-width: 1.5;" x1="192.5" x2="292.5" y1="318.4063" y2="318.4063"/><polygon fill="#696969" points="288.5,252.8594,292.5,242.8594,296.5,252.8594,292.5,248.8594" style="stroke: #696969; stroke-width: 1.5;"/><line style="stroke: #696969; stroke-width: 1.5;" x1="292.5" x2="292.5" y1="167.3125" y2="318.4063"/><line style="stroke: #696969; stroke-width: 1.5;" x1="292.5" x2="177.5" y1="167.3125" y2="167.3125"/><polygon fill="#696969" points="187.5,163.3125,177.5,167.3125,187.5,171.3125,183.5,167.3125" style="stroke: #696969; stroke-width: 1.0;"/><line style="stroke: #696969; stroke-width: 1.5;" x1="165.5" x2="165.5" y1="286.4063" y2="306.4063"/><polygon fill="#696969" points="161.5,296.4063,165.5,306.4063,169.5,296.4063,165.5,300.4063" style="stroke: #696969; stroke-width: 1.0;"/><line style="stroke: #696969; stroke-width: 1.5;" x1="165.5" x2="165.5" y1="135.3125" y2="155.3125"/><polygon fill="#696969" points="161.5,145.3125,165.5,155.3125,169.5,145.3125,165.5,149.3125" style="stroke: #696969; stroke-width: 1.0;"/><line style="stroke: #696969; stroke-width: 1.5;" x1="165.5" x2="165.5" y1="330.4063" y2="350.4063"/><polygon fill="#696969" points="161.5,340.4063,165.5,350.4063,169.5,340.4063,165.5,344.4063" style="stroke: #696969; stroke-width: 1.0;"/><text fill="#000080" font-family="sans-serif" font-size="10" lengthAdjust="spacingAndGlyphs" textLength="31" x="10" y="379.7871">©2019</text><a target="_top" xlink:actuate="onRequest" xlink:href="http://www.lifestylesunlimited.com" xlink:show="new" xlink:title="http://www.lifestylesunlimited.com" xlink:type="simple"><text fill="#0000FF" font-family="sans-serif" font-size="10" lengthAdjust="spacingAndGlyphs" text-decoration="underline" textLength="95" x="44" y="379.7871">LifeStyles Unlimited</text><line style="stroke: #0000FF; stroke-width: 1.0;" x1="44" x2="139" y1="381.7871" y2="381.7871"/></a><text fill="#000080" font-family="sans-serif" font-size="10" lengthAdjust="spacingAndGlyphs" textLength="205" x="142" y="379.7871">| Generated Sat Apr 20 19:28:13 CDT 2019</text><!--
@startuml challenge-program


skinparam {
  BorderColor Red
  PathHoverColor Blue
}

skinparam Title {
  FontColor Navy
  BackgroundColor PaleGoldenRod
  BorderColor Navy
  BorderRoundCorner 20
}

skinparam activity {
  BackgroundColor Ivory
  BorderColor CornflowerBlue
  FontColor DimGray
  

  Arrow {
    Color dimgray
    FontColor dimgray
  }

  Start {
    Color PHYSICAL
  }

  End {
    Color Coral
  }

  Diamond {
    BackgroundColor Ivory
    BorderColor CornflowerBlue
    FontColor DarkGray
  }

  BackgroundColor<< Exception >> Red
	BorderColor<< Exception >> White
}

skinparam Swimlane {
  BorderColor CornflowerBlue 
}

skinparam Partition {
  BackgroundColor Ivory
  BorderColor CornflowerBlue
  BorderThickness 1
  FontColor CornflowerBlue
  FontSize 16
  BorderRoundCorner 20
}

skinparam Note {
  BackgroundColor LightSteelBlue
  BorderColor CornflowerBlue
  FontColor White
}

skinparam Legend {
  BackgroundColor LightSteelBlue
  BorderColor CornflowerBlue
  FontColor White
}

skinparam Footer {
  FontColor Navy
}


left header 
	<font color=Navy>[[../index.svg ⌂ Home]]</font>
endheader


	Title Challenge Program

	start

		:$7000;

		repeat
			fork
			:work with coaches;
			fork again
			:1 year>
			end fork
		repeat while ($2000)

	end


left footer 
	©2019 [[http://www.lifestylesunlimited.com LifeStyles Unlimited]] | Generated Sat Apr 20 19:28:13 CDT 2019
endfooter


@enduml

PlantUML version 1.2019.03(Sun Mar 10 06:04:44 CDT 2019)
(GPL source distribution)
Java Runtime: Java(TM) SE Runtime Environment
JVM: Java HotSpot(TM) 64-Bit Server VM
Java Version: 1.8.0_111-b14
Operating System: Windows 10
OS Version: 10.0
Default Encoding: Cp1252
Language: en
Country: US
--></g></svg>