<?xml version="1.0" encoding="UTF-8" standalone="no"?><svg xmlns="http://www.w3.org/2000/svg" xmlns:xlink="http://www.w3.org/1999/xlink" contentScriptType="application/ecmascript" contentStyleType="text/css" height="572px" preserveAspectRatio="none" style="width:1135px;height:572px;" version="1.1" viewBox="0 0 1135 572" width="1135px" zoomAndPan="magnify"><defs><style type="text/css"><![CDATA[path:hover { stroke: #0000FF !important;}]]></style><filter height="300%" id="fer4h4scd75cb" width="300%" x="-1" y="-1"><feGaussianBlur result="blurOut" stdDeviation="2.0"/><feColorMatrix in="blurOut" result="blurOut2" type="matrix" values="0 0 0 0 0 0 0 0 0 0 0 0 0 0 0 0 0 0 .4 0"/><feOffset dx="4.0" dy="4.0" in="blurOut2" result="blurOut3"/><feBlend in="SourceGraphic" in2="blurOut3" mode="normal"/></filter></defs><g><a target="_top" xlink:actuate="onRequest" xlink:href="../index.svg?sanitize=true" xlink:show="new" xlink:title="../index.svg?sanitize=true" xlink:type="simple"><text fill="#0000FF" font-family="sans-serif" font-size="24" lengthAdjust="spacingAndGlyphs" text-decoration="underline" textLength="90" x="10" y="34.9141">⌂ Home</text><line style="stroke: #0000FF; stroke-width: 1.0;" x1="10" x2="100" y1="36.9141" y2="36.9141"/></a><rect fill="#EEE8AA" height="40.1875" rx="10" ry="10" style="stroke: #000080; stroke-width: 1.5;" width="394" x="369" y="42.1875"/><text fill="#000080" font-family="sans-serif" font-size="24" lengthAdjust="spacingAndGlyphs" textLength="378" x="377" y="72.1016">Challenge Program (Single Family)</text><ellipse cx="553.5" cy="95.375" fill="#CCFFCC" filter="url(#fer4h4scd75cb)" rx="10" ry="10" style="stroke: none; stroke-width: 1.0;"/><rect fill="#CCFFCC" filter="url(#fer4h4scd75cb)" height="35.0938" style="stroke: #6495ED; stroke-width: 1.0;" width="61" x="523" y="125.375"/><path d="M537,139.4688 L537,140.4688 L536.25,140.4688 C535.564,140.4688 535,141.0328 535,141.7188 L535,142.2188 C535,142.8968 535.437,143.4608 536.094,143.6248 L538.657,144.2808 C538.8,144.3168 539.001,144.5768 539.001,144.7188 L539.001,145.2188 C539.001,145.3528 538.885,145.4688 538.751,145.4688 L536.251,145.4688 C536.135,145.4688 536.039,145.4318 536.001,145.4058 L536.001,144.4678 L535.001,144.4678 L535.001,145.4678 C535.001,145.8098 535.204,146.0948 535.439,146.2488 C535.673,146.4038 535.957,146.4678 536.252,146.4678 L537.002,146.4678 L537.002,147.4678 L538.002,147.4678 L538.002,146.4678 L538.752,146.4678 C539.438,146.4678 540.002,145.9038 540.002,145.2178 L540.002,144.7178 C540.002,144.0398 539.565,143.4758 538.908,143.3118 L536.345,142.6558 C536.202,142.6198 536.001,142.3598 536.001,142.2178 L536.001,141.7178 C536.001,141.5838 536.117,141.4678 536.251,141.4678 L538.751,141.4678 C538.867,141.4678 538.963,141.5048 539.001,141.5308 L539.001,142.4688 L540.001,142.4688 L540.001,141.4688 C540.001,141.1268 539.798,140.8418 539.563,140.6878 C539.329,140.5328 539.045,140.4688 538.75,140.4688 L538,140.4688 L538,139.4688 L537,139.4688 " fill="#696969" style="stroke: ; stroke-width: 0.0; stroke-dasharray: ;"/><text fill="#696969" font-family="sans-serif" font-size="12" lengthAdjust="spacingAndGlyphs" textLength="28" x="546" y="147.832">7000</text><rect fill="#FFFFF0" filter="url(#fer4h4scd75cb)" height="35.0938" rx="12.5" ry="12.5" style="stroke: #6495ED; stroke-width: 1.0;" width="51" x="528" y="246.3037"/><text fill="#696969" font-family="sans-serif" font-size="12" lengthAdjust="spacingAndGlyphs" textLength="31" x="538" y="268.7607">active</text><rect fill="#000000" filter="url(#fer4h4scd75cb)" height="6" rx="2.5" ry="2.5" style="stroke: #000000; stroke-width: 1.0;" width="1087" x="10" y="301.3975"/><a target="_top" xlink:actuate="onRequest" xlink:href="../unlimited-lifestyle/financial-freedom-program.svg?sanitize=true" xlink:show="new" xlink:title="../unlimited-lifestyle/financial-freedom-program.svg?sanitize=true" xlink:type="simple"><rect fill="#87CEFA" filter="url(#fer4h4scd75cb)" height="35.0938" rx="12.5" ry="12.5" style="stroke: #6495ED; stroke-width: 1.0;" width="165" x="24" y="327.3975"/><text fill="#696969" font-family="sans-serif" font-size="12" lengthAdjust="spacingAndGlyphs" textLength="145" x="34" y="349.8545">financial freedom program</text></a><rect fill="#FFFFF0" filter="url(#fer4h4scd75cb)" height="35.0938" rx="12.5" ry="12.5" style="stroke: #6495ED; stroke-width: 1.0;" width="66" x="217" y="327.3975"/><text fill="#696969" font-family="sans-serif" font-size="12" lengthAdjust="spacingAndGlyphs" textLength="46" x="227" y="349.8545">mentors</text><rect fill="#FFFFF0" filter="url(#fer4h4scd75cb)" height="35.0938" rx="12.5" ry="12.5" style="stroke: #6495ED; stroke-width: 1.0;" width="116" x="311" y="327.3975"/><text fill="#696969" font-family="sans-serif" font-size="12" lengthAdjust="spacingAndGlyphs" textLength="96" x="321" y="349.8545">1-on-1 consulting</text><rect fill="#FFFFF0" filter="url(#fer4h4scd75cb)" height="35.0938" rx="12.5" ry="12.5" style="stroke: #6495ED; stroke-width: 1.0;" width="117" x="455" y="327.3975"/><text fill="#696969" font-family="sans-serif" font-size="12" lengthAdjust="spacingAndGlyphs" textLength="97" x="465" y="349.8545">Lifestyles realtors</text><rect fill="#FFFFF0" filter="url(#fer4h4scd75cb)" height="35.0938" rx="12.5" ry="12.5" style="stroke: #6495ED; stroke-width: 1.0;" width="88" x="600" y="327.3975"/><text fill="#696969" font-family="sans-serif" font-size="12" lengthAdjust="spacingAndGlyphs" textLength="68" x="610" y="349.8545">email blasts</text><rect fill="#FFFFF0" filter="url(#fer4h4scd75cb)" height="35.0938" rx="12.5" ry="12.5" style="stroke: #6495ED; stroke-width: 1.0;" width="72" x="716" y="327.3975"/><text fill="#696969" font-family="sans-serif" font-size="12" lengthAdjust="spacingAndGlyphs" textLength="52" x="726" y="349.8545">road trips</text><rect fill="#FFFFF0" filter="url(#fer4h4scd75cb)" height="35.0938" rx="12.5" ry="12.5" style="stroke: #6495ED; stroke-width: 1.0;" width="186" x="816" y="327.3975"/><text fill="#696969" font-family="sans-serif" font-size="12" lengthAdjust="spacingAndGlyphs" textLength="166" x="826" y="349.8545">specialized education classes</text><polygon fill="#FFFFF0" filter="url(#fer4h4scd75cb)" points="1030,327.3975,1083,327.3975,1093,344.9443,1083,362.4912,1030,362.4912" style="stroke: #6495ED; stroke-width: 1.0;"/><text fill="#696969" font-family="sans-serif" font-size="12" lengthAdjust="spacingAndGlyphs" textLength="33" x="1040" y="349.8545">1 year</text><rect fill="#000000" filter="url(#fer4h4scd75cb)" height="6" rx="2.5" ry="2.5" style="stroke: #000000; stroke-width: 1.0;" width="1087" x="10" y="382.4912"/><rect fill="#FFFFF0" filter="url(#fer4h4scd75cb)" height="35.0938" rx="12.5" ry="12.5" style="stroke: #6495ED; stroke-width: 1.0;" width="61" x="523" y="409.9912"/><text fill="#696969" font-family="sans-serif" font-size="12" lengthAdjust="spacingAndGlyphs" textLength="41" x="533" y="432.4482">inactive</text><rect fill="#CCFFCC" filter="url(#fer4h4scd75cb)" height="35.0938" style="stroke: #6495ED; stroke-width: 1.0;" width="61" x="523" y="465.085"/><path d="M537,479.1787 L537,480.1787 L536.25,480.1787 C535.564,480.1787 535,480.7427 535,481.4287 L535,481.9287 C535,482.6067 535.437,483.1707 536.094,483.3347 L538.657,483.9907 C538.8,484.0267 539.001,484.2867 539.001,484.4287 L539.001,484.9287 C539.001,485.0627 538.885,485.1787 538.751,485.1787 L536.251,485.1787 C536.135,485.1787 536.039,485.1417 536.001,485.1157 L536.001,484.1777 L535.001,484.1777 L535.001,485.1777 C535.001,485.5197 535.204,485.8047 535.439,485.9587 C535.673,486.1137 535.957,486.1777 536.252,486.1777 L537.002,486.1777 L537.002,487.1777 L538.002,487.1777 L538.002,486.1777 L538.752,486.1777 C539.438,486.1777 540.002,485.6137 540.002,484.9277 L540.002,484.4277 C540.002,483.7497 539.565,483.1857 538.908,483.0217 L536.345,482.3657 C536.202,482.3297 536.001,482.0697 536.001,481.9277 L536.001,481.4277 C536.001,481.2937 536.117,481.1777 536.251,481.1777 L538.751,481.1777 C538.867,481.1777 538.963,481.2147 539.001,481.2407 L539.001,482.1787 L540.001,482.1787 L540.001,481.1787 C540.001,480.8367 539.798,480.5517 539.563,480.3977 C539.329,480.2427 539.045,480.1787 538.75,480.1787 L538,480.1787 L538,479.1787 L537,479.1787 " fill="#696969" style="stroke: ; stroke-width: 0.0; stroke-dasharray: ;"/><text fill="#696969" font-family="sans-serif" font-size="12" lengthAdjust="spacingAndGlyphs" textLength="28" x="546" y="487.542">2000</text><polygon fill="#FFFFF0" filter="url(#fer4h4scd75cb)" points="553.5,180.4688,565.5,192.4688,553.5,204.4688,541.5,192.4688,553.5,180.4688" style="stroke: #6495ED; stroke-width: 1.0;"/><polygon fill="#FFFFF0" filter="url(#fer4h4scd75cb)" points="553.5,520.1787,553.5,520.1787,565.5,532.1787,553.5,544.1787,553.5,544.1787,541.5,532.1787,553.5,520.1787" style="stroke: #6495ED; stroke-width: 1.0;"/><line style="stroke: #696969; stroke-width: 1.5;" x1="553.5" x2="553.5" y1="105.375" y2="125.375"/><polygon fill="#696969" points="549.5,115.375,553.5,125.375,557.5,115.375,553.5,119.375" style="stroke: #696969; stroke-width: 1.0;"/><line style="stroke: #696969; stroke-width: 1.5;" x1="106.5" x2="106.5" y1="307.3975" y2="327.3975"/><polygon fill="#696969" points="102.5,317.3975,106.5,327.3975,110.5,317.3975,106.5,321.3975" style="stroke: #696969; stroke-width: 1.0;"/><line style="stroke: #696969; stroke-width: 1.5;" x1="250" x2="250" y1="307.3975" y2="327.3975"/><polygon fill="#696969" points="246,317.3975,250,327.3975,254,317.3975,250,321.3975" style="stroke: #696969; stroke-width: 1.0;"/><line style="stroke: #696969; stroke-width: 1.5;" x1="369" x2="369" y1="307.3975" y2="327.3975"/><polygon fill="#696969" points="365,317.3975,369,327.3975,373,317.3975,369,321.3975" style="stroke: #696969; stroke-width: 1.0;"/><line style="stroke: #696969; stroke-width: 1.5;" x1="513.5" x2="513.5" y1="307.3975" y2="327.3975"/><polygon fill="#696969" points="509.5,317.3975,513.5,327.3975,517.5,317.3975,513.5,321.3975" style="stroke: #696969; stroke-width: 1.0;"/><line style="stroke: #696969; stroke-width: 1.5;" x1="644" x2="644" y1="307.3975" y2="327.3975"/><polygon fill="#696969" points="640,317.3975,644,327.3975,648,317.3975,644,321.3975" style="stroke: #696969; stroke-width: 1.0;"/><line style="stroke: #696969; stroke-width: 1.5;" x1="752" x2="752" y1="307.3975" y2="327.3975"/><polygon fill="#696969" points="748,317.3975,752,327.3975,756,317.3975,752,321.3975" style="stroke: #696969; stroke-width: 1.0;"/><line style="stroke: #696969; stroke-width: 1.5;" x1="909" x2="909" y1="307.3975" y2="327.3975"/><polygon fill="#696969" points="905,317.3975,909,327.3975,913,317.3975,909,321.3975" style="stroke: #696969; stroke-width: 1.0;"/><line style="stroke: #696969; stroke-width: 1.5;" x1="1056.5" x2="1056.5" y1="307.3975" y2="327.3975"/><polygon fill="#696969" points="1052.5,317.3975,1056.5,327.3975,1060.5,317.3975,1056.5,321.3975" style="stroke: #696969; stroke-width: 1.0;"/><line style="stroke: #696969; stroke-width: 1.5;" x1="106.5" x2="106.5" y1="362.4912" y2="382.4912"/><polygon fill="#696969" points="102.5,372.4912,106.5,382.4912,110.5,372.4912,106.5,376.4912" style="stroke: #696969; stroke-width: 1.0;"/><line style="stroke: #696969; stroke-width: 1.5;" x1="250" x2="250" y1="362.4912" y2="382.4912"/><polygon fill="#696969" points="246,372.4912,250,382.4912,254,372.4912,250,376.4912" style="stroke: #696969; stroke-width: 1.0;"/><line style="stroke: #696969; stroke-width: 1.5;" x1="369" x2="369" y1="362.4912" y2="382.4912"/><polygon fill="#696969" points="365,372.4912,369,382.4912,373,372.4912,369,376.4912" style="stroke: #696969; stroke-width: 1.0;"/><line style="stroke: #696969; stroke-width: 1.5;" x1="513.5" x2="513.5" y1="362.4912" y2="382.4912"/><polygon fill="#696969" points="509.5,372.4912,513.5,382.4912,517.5,372.4912,513.5,376.4912" style="stroke: #696969; stroke-width: 1.0;"/><line style="stroke: #696969; stroke-width: 1.5;" x1="644" x2="644" y1="362.4912" y2="382.4912"/><polygon fill="#696969" points="640,372.4912,644,382.4912,648,372.4912,644,376.4912" style="stroke: #696969; stroke-width: 1.0;"/><line style="stroke: #696969; stroke-width: 1.5;" x1="752" x2="752" y1="362.4912" y2="382.4912"/><polygon fill="#696969" points="748,372.4912,752,382.4912,756,372.4912,752,376.4912" style="stroke: #696969; stroke-width: 1.0;"/><line style="stroke: #696969; stroke-width: 1.5;" x1="909" x2="909" y1="362.4912" y2="382.4912"/><polygon fill="#696969" points="905,372.4912,909,382.4912,913,372.4912,909,376.4912" style="stroke: #696969; stroke-width: 1.0;"/><line style="stroke: #696969; stroke-width: 1.5;" x1="1056.5" x2="1056.5" y1="362.4912" y2="382.4912"/><polygon fill="#696969" points="1052.5,372.4912,1056.5,382.4912,1060.5,372.4912,1056.5,376.4912" style="stroke: #696969; stroke-width: 1.0;"/><line style="stroke: #696969; stroke-width: 1.5;" x1="553.5" x2="553.5" y1="281.3975" y2="301.3975"/><polygon fill="#696969" points="549.5,291.3975,553.5,301.3975,557.5,291.3975,553.5,295.3975" style="stroke: #696969; stroke-width: 1.0;"/><line style="stroke: #696969; stroke-width: 1.5;" x1="553.5" x2="553.5" y1="388.4912" y2="409.9912"/><polygon fill="#696969" points="549.5,399.9912,553.5,409.9912,557.5,399.9912,553.5,403.9912" style="stroke: #696969; stroke-width: 1.0;"/><line style="stroke: #696969; stroke-width: 1.5;" x1="553.5" x2="553.5" y1="445.085" y2="465.085"/><polygon fill="#696969" points="549.5,455.085,553.5,465.085,557.5,455.085,553.5,459.085" style="stroke: #696969; stroke-width: 1.0;"/><line style="stroke: #696969; stroke-width: 1.5;" x1="553.5" x2="553.5" y1="204.4688" y2="246.3037"/><polygon fill="#696969" points="549.5,236.3037,553.5,246.3037,557.5,236.3037,553.5,240.3037" style="stroke: #696969; stroke-width: 1.0;"/><text fill="#696969" font-family="sans-serif" font-size="11" lengthAdjust="spacingAndGlyphs" textLength="20" x="557.5" y="226.8047">paid</text><line style="stroke: #696969; stroke-width: 1.5;" x1="565.5" x2="1109" y1="532.1787" y2="532.1787"/><polygon fill="#696969" points="1105,389.9912,1109,379.9912,1113,389.9912,1109,385.9912" style="stroke: #696969; stroke-width: 1.5;"/><line style="stroke: #696969; stroke-width: 1.5;" x1="1109" x2="1109" y1="192.4688" y2="532.1787"/><line style="stroke: #696969; stroke-width: 1.5;" x1="1109" x2="565.5" y1="192.4688" y2="192.4688"/><polygon fill="#696969" points="575.5,188.4688,565.5,192.4688,575.5,196.4688,571.5,192.4688" style="stroke: #696969; stroke-width: 1.0;"/><line style="stroke: #696969; stroke-width: 1.5;" x1="553.5" x2="553.5" y1="500.1787" y2="520.1787"/><polygon fill="#696969" points="549.5,510.1787,553.5,520.1787,557.5,510.1787,553.5,514.1787" style="stroke: #696969; stroke-width: 1.0;"/><line style="stroke: #696969; stroke-width: 1.5;" x1="553.5" x2="553.5" y1="160.4688" y2="180.4688"/><polygon fill="#696969" points="549.5,170.4688,553.5,180.4688,557.5,170.4688,553.5,174.4688" style="stroke: #696969; stroke-width: 1.0;"/><text fill="#000080" font-family="sans-serif" font-size="14" lengthAdjust="spacingAndGlyphs" textLength="42" x="10" y="558.7119">©2019</text><a target="_top" xlink:actuate="onRequest" xlink:href="http://www.lifestylesunlimited.com" xlink:show="new" xlink:title="http://www.lifestylesunlimited.com" xlink:type="simple"><text fill="#0000FF" font-family="sans-serif" font-size="14" lengthAdjust="spacingAndGlyphs" text-decoration="underline" textLength="122" x="56" y="558.7119">LifeStyles Unlimited</text><line style="stroke: #0000FF; stroke-width: 1.0;" x1="56" x2="178" y1="560.7119" y2="560.7119"/></a><text fill="#000080" font-family="sans-serif" font-size="14" lengthAdjust="spacingAndGlyphs" textLength="279" x="182" y="558.7119">| Generated Sun Apr 28 21:18:58 CDT 2019</text><!--
@startuml challenge-program


skinparam {
  BorderColor Red
  PathHoverColor Blue
}

skinparam Title {
  FontColor Navy
  BackgroundColor PaleGoldenRod
  BorderColor Navy
  BorderRoundCorner 20
  FontSize 24
}

skinparam activity {
  BackgroundColor Ivory
  BorderColor CornflowerBlue
  BorderThickness 1
  FontColor DimGray
  

  Arrow {
    Color dimgray
    FontColor dimgray
  }

  Start {
    Color PHYSICAL
  }

  End {
    Color Coral
  }

  Diamond {
    BackgroundColor Ivory
    BorderColor CornflowerBlue
    FontColor DarkGray
  }

  BackgroundColor<< Exception >> Red
	BorderColor<< Exception >> White
}

skinparam Swimlane {
  BorderColor CornflowerBlue 
}

skinparam Partition {
  BackgroundColor Ivory
  BorderColor CornflowerBlue
  BorderThickness 1
  FontColor CornflowerBlue
  FontSize 16
  BorderRoundCorner 20
}

skinparam Note {
  BackgroundColor LightSteelBlue
  BorderColor CornflowerBlue
  FontColor White
}

skinparam Legend {
  BackgroundColor LightSteelBlue
  BorderColor CornflowerBlue
  FontColor White
}

skinparam Footer {
  FontColor Navy
}


left header 
	<font color=Navy size=24>[[../index.svg?sanitize=true ⌂ Home]]</font>
endheader


	Title Challenge Program (Single Family)

	start

	#PHYSICAL:<&dollar> 7000]

	repeat
		->paid;
		:active;
		fork
			[[../unlimited-lifestyle/financial-freedom-program.svg?sanitize=true]]#LightSkyBlue:financial freedom program;
		fork again
			:mentors;
		fork again
			:1-on-1 consulting;
		fork again
			:Lifestyles realtors;
		fork again
			:email blasts;
		fork again
			:road trips;
		fork again
			:specialized education classes;

		fork again
			:1 year>
		end fork
		:inactive;

		#PHYSICAL:<&dollar> 2000]
	repeat while ()



left footer 
	<font size=14>©2019 [[http://www.lifestylesunlimited.com LifeStyles Unlimited]] | Generated Sun Apr 28 21:18:58 CDT 2019</font>
endfooter


@enduml

PlantUML version 1.2019.03(Sun Mar 10 06:04:44 CDT 2019)
(GPL source distribution)
Java Runtime: Java(TM) SE Runtime Environment
JVM: Java HotSpot(TM) 64-Bit Server VM
Java Version: 1.8.0_111-b14
Operating System: Windows 10
OS Version: 10.0
Default Encoding: Cp1252
Language: en
Country: US
--></g></svg>