<?xml version="1.0" encoding="UTF-8" standalone="no"?><svg xmlns="http://www.w3.org/2000/svg" xmlns:xlink="http://www.w3.org/1999/xlink" contentScriptType="application/ecmascript" contentStyleType="text/css" height="407px" preserveAspectRatio="none" style="width:475px;height:407px;" version="1.1" viewBox="0 0 475 407" width="475px" zoomAndPan="magnify"><defs><style type="text/css"><![CDATA[path:hover { stroke: #0000FF !important;}]]></style><filter height="300%" id="fxoyp4ygaksz8" width="300%" x="-1" y="-1"><feGaussianBlur result="blurOut" stdDeviation="2.0"/><feColorMatrix in="blurOut" result="blurOut2" type="matrix" values="0 0 0 0 0 0 0 0 0 0 0 0 0 0 0 0 0 0 .4 0"/><feOffset dx="4.0" dy="4.0" in="blurOut2" result="blurOut3"/><feBlend in="SourceGraphic" in2="blurOut3" mode="normal"/></filter></defs><g><a target="_top" xlink:actuate="onRequest" xlink:href="../index.svg" xlink:show="new" xlink:title="../index.svg" xlink:type="simple"><text fill="#0000FF" font-family="sans-serif" font-size="18" lengthAdjust="spacingAndGlyphs" text-decoration="underline" textLength="67" x="10" y="28.6855">⌂ Home</text><line style="stroke: #0000FF; stroke-width: 1.0;" x1="10" x2="77" y1="30.6855" y2="30.6855"/></a><rect fill="#EEE8AA" height="32.6406" rx="10" ry="10" style="stroke: #000080; stroke-width: 1.5;" width="170" x="151" y="34.6406"/><text fill="#000080" font-family="sans-serif" font-size="18" lengthAdjust="spacingAndGlyphs" textLength="154" x="159" y="58.3262">Challenge Program</text><ellipse cx="223.5" cy="80.2813" fill="#CCFFCC" filter="url(#fxoyp4ygaksz8)" rx="10" ry="10" style="stroke: none; stroke-width: 1.0;"/><rect fill="#FFFFF0" filter="url(#fxoyp4ygaksz8)" height="35.0938" rx="12.5" ry="12.5" style="stroke: #6495ED; stroke-width: 1.5;" width="55" x="196" y="110.2813"/><text fill="#696969" font-family="sans-serif" font-size="12" lengthAdjust="spacingAndGlyphs" textLength="35" x="206" y="132.7383">$7000</text><rect fill="#000000" filter="url(#fxoyp4ygaksz8)" height="6" rx="2.5" ry="2.5" style="stroke: #000000; stroke-width: 1.0;" width="230" x="108.5" y="209.375"/><rect fill="#FFFFF0" filter="url(#fxoyp4ygaksz8)" height="35.0938" rx="12.5" ry="12.5" style="stroke: #6495ED; stroke-width: 1.5;" width="121" x="122.5" y="235.375"/><text fill="#696969" font-family="sans-serif" font-size="12" lengthAdjust="spacingAndGlyphs" textLength="101" x="132.5" y="257.832">work with coaches</text><polygon fill="#FFFFF0" filter="url(#fxoyp4ygaksz8)" points="271.5,235.375,324.5,235.375,334.5,252.9219,324.5,270.4688,271.5,270.4688" style="stroke: #6495ED; stroke-width: 1.5;"/><text fill="#696969" font-family="sans-serif" font-size="12" lengthAdjust="spacingAndGlyphs" textLength="33" x="281.5" y="257.832">1 year</text><rect fill="#000000" filter="url(#fxoyp4ygaksz8)" height="6" rx="2.5" ry="2.5" style="stroke: #000000; stroke-width: 1.0;" width="230" x="108.5" y="290.4688"/><polygon fill="#FFFFF0" filter="url(#fxoyp4ygaksz8)" points="223.5,165.375,235.5,177.375,223.5,189.375,211.5,177.375,223.5,165.375" style="stroke: #6495ED; stroke-width: 1.5;"/><polygon fill="#FFFFF0" filter="url(#fxoyp4ygaksz8)" points="208.5,316.4688,238.5,316.4688,250.5,328.4688,238.5,340.4688,208.5,340.4688,196.5,328.4688,208.5,316.4688" style="stroke: #6495ED; stroke-width: 1.5;"/><text fill="#A9A9A9" font-family="sans-serif" font-size="11" lengthAdjust="spacingAndGlyphs" textLength="30" x="208.5" y="332.9697">$2000</text><ellipse cx="223.5" cy="370.4688" fill="#FFFFFF" filter="url(#fxoyp4ygaksz8)" rx="10" ry="10" style="stroke: #FF7F50; stroke-width: 1.5;"/><line style="stroke: #FF7F50; stroke-width: 2.5;" x1="217.3128" x2="229.6872" y1="364.2816" y2="376.6559"/><line style="stroke: #FF7F50; stroke-width: 2.5;" x1="229.6872" x2="217.3128" y1="364.2816" y2="376.6559"/><line style="stroke: #696969; stroke-width: 1.5;" x1="223.5" x2="223.5" y1="90.2813" y2="110.2813"/><polygon fill="#696969" points="219.5,100.2813,223.5,110.2813,227.5,100.2813,223.5,104.2813" style="stroke: #696969; stroke-width: 1.0;"/><line style="stroke: #696969; stroke-width: 1.5;" x1="183" x2="183" y1="215.375" y2="235.375"/><polygon fill="#696969" points="179,225.375,183,235.375,187,225.375,183,229.375" style="stroke: #696969; stroke-width: 1.0;"/><line style="stroke: #696969; stroke-width: 1.5;" x1="298" x2="298" y1="215.375" y2="235.375"/><polygon fill="#696969" points="294,225.375,298,235.375,302,225.375,298,229.375" style="stroke: #696969; stroke-width: 1.0;"/><line style="stroke: #696969; stroke-width: 1.5;" x1="183" x2="183" y1="270.4688" y2="290.4688"/><polygon fill="#696969" points="179,280.4688,183,290.4688,187,280.4688,183,284.4688" style="stroke: #696969; stroke-width: 1.0;"/><line style="stroke: #696969; stroke-width: 1.5;" x1="298" x2="298" y1="270.4688" y2="290.4688"/><polygon fill="#696969" points="294,280.4688,298,290.4688,302,280.4688,298,284.4688" style="stroke: #696969; stroke-width: 1.0;"/><line style="stroke: #696969; stroke-width: 1.5;" x1="223.5" x2="223.5" y1="189.375" y2="209.375"/><polygon fill="#696969" points="219.5,199.375,223.5,209.375,227.5,199.375,223.5,203.375" style="stroke: #696969; stroke-width: 1.0;"/><line style="stroke: #696969; stroke-width: 1.5;" x1="250.5" x2="350.5" y1="328.4688" y2="328.4688"/><polygon fill="#696969" points="346.5,262.9219,350.5,252.9219,354.5,262.9219,350.5,258.9219" style="stroke: #696969; stroke-width: 1.5;"/><line style="stroke: #696969; stroke-width: 1.5;" x1="350.5" x2="350.5" y1="177.375" y2="328.4688"/><line style="stroke: #696969; stroke-width: 1.5;" x1="350.5" x2="235.5" y1="177.375" y2="177.375"/><polygon fill="#696969" points="245.5,173.375,235.5,177.375,245.5,181.375,241.5,177.375" style="stroke: #696969; stroke-width: 1.0;"/><line style="stroke: #696969; stroke-width: 1.5;" x1="223.5" x2="223.5" y1="296.4688" y2="316.4688"/><polygon fill="#696969" points="219.5,306.4688,223.5,316.4688,227.5,306.4688,223.5,310.4688" style="stroke: #696969; stroke-width: 1.0;"/><line style="stroke: #696969; stroke-width: 1.5;" x1="223.5" x2="223.5" y1="145.375" y2="165.375"/><polygon fill="#696969" points="219.5,155.375,223.5,165.375,227.5,155.375,223.5,159.375" style="stroke: #696969; stroke-width: 1.0;"/><line style="stroke: #696969; stroke-width: 1.5;" x1="223.5" x2="223.5" y1="340.4688" y2="360.4688"/><polygon fill="#696969" points="219.5,350.4688,223.5,360.4688,227.5,350.4688,223.5,354.4688" style="stroke: #696969; stroke-width: 1.0;"/><text fill="#000080" font-family="sans-serif" font-size="14" lengthAdjust="spacingAndGlyphs" textLength="42" x="10" y="394.002">©2019</text><a target="_top" xlink:actuate="onRequest" xlink:href="http://www.lifestylesunlimited.com" xlink:show="new" xlink:title="http://www.lifestylesunlimited.com" xlink:type="simple"><text fill="#0000FF" font-family="sans-serif" font-size="14" lengthAdjust="spacingAndGlyphs" text-decoration="underline" textLength="122" x="56" y="394.002">LifeStyles Unlimited</text><line style="stroke: #0000FF; stroke-width: 1.0;" x1="56" x2="178" y1="396.002" y2="396.002"/></a><text fill="#000080" font-family="sans-serif" font-size="14" lengthAdjust="spacingAndGlyphs" textLength="281" x="182" y="394.002">| Generated Mon Apr 22 08:25:48 CDT 2019</text><!--
@startuml challenge-program


skinparam {
  BorderColor Red
  PathHoverColor Blue
}

skinparam Title {
  FontColor Navy
  BackgroundColor PaleGoldenRod
  BorderColor Navy
  BorderRoundCorner 20
}

skinparam activity {
  BackgroundColor Ivory
  BorderColor CornflowerBlue
  FontColor DimGray
  

  Arrow {
    Color dimgray
    FontColor dimgray
  }

  Start {
    Color PHYSICAL
  }

  End {
    Color Coral
  }

  Diamond {
    BackgroundColor Ivory
    BorderColor CornflowerBlue
    FontColor DarkGray
  }

  BackgroundColor<< Exception >> Red
	BorderColor<< Exception >> White
}

skinparam Swimlane {
  BorderColor CornflowerBlue 
}

skinparam Partition {
  BackgroundColor Ivory
  BorderColor CornflowerBlue
  BorderThickness 1
  FontColor CornflowerBlue
  FontSize 16
  BorderRoundCorner 20
}

skinparam Note {
  BackgroundColor LightSteelBlue
  BorderColor CornflowerBlue
  FontColor White
}

skinparam Legend {
  BackgroundColor LightSteelBlue
  BorderColor CornflowerBlue
  FontColor White
}

skinparam Footer {
  FontColor Navy
}


left header 
	<font color=Navy size=18>[[../index.svg ⌂ Home]]</font>
endheader


	Title Challenge Program

	start

		:$7000;

		repeat
			fork
			:work with coaches;
			fork again
			:1 year>
			end fork
		repeat while ($2000)

	end


left footer 
	<font size=14>©2019 [[http://www.lifestylesunlimited.com LifeStyles Unlimited]] | Generated Mon Apr 22 08:25:48 CDT 2019</font>
endfooter


@enduml

PlantUML version 1.2019.03(Sun Mar 10 06:04:44 CDT 2019)
(GPL source distribution)
Java Runtime: Java(TM) SE Runtime Environment
JVM: Java HotSpot(TM) 64-Bit Server VM
Java Version: 1.8.0_111-b14
Operating System: Windows 10
OS Version: 10.0
Default Encoding: Cp1252
Language: en
Country: US
--></g></svg>