<?xml version="1.0" encoding="UTF-8" standalone="no"?><svg xmlns="http://www.w3.org/2000/svg" xmlns:xlink="http://www.w3.org/1999/xlink" contentScriptType="application/ecmascript" contentStyleType="text/css" height="853px" preserveAspectRatio="none" style="width:1115px;height:853px;" version="1.1" viewBox="0 0 1115 853" width="1115px" zoomAndPan="magnify"><defs><style type="text/css"><![CDATA[path:hover { stroke: #0000FF !important;}]]></style><filter height="300%" id="f5o1uwuxq1ilf" width="300%" x="-1" y="-1"><feGaussianBlur result="blurOut" stdDeviation="2.0"/><feColorMatrix in="blurOut" result="blurOut2" type="matrix" values="0 0 0 0 0 0 0 0 0 0 0 0 0 0 0 0 0 0 .4 0"/><feOffset dx="4.0" dy="4.0" in="blurOut2" result="blurOut3"/><feBlend in="SourceGraphic" in2="blurOut3" mode="normal"/></filter></defs><g><a href="../index.svg?sanitize=true" target="_top" xlink:actuate="onRequest" xlink:show="new" xlink:title="../index.svg?sanitize=true" xlink:type="simple"><text fill="#0000FF" font-family="sans-serif" font-size="24" lengthAdjust="spacingAndGlyphs" text-decoration="underline" textLength="90" x="10" y="34.9141">⌂ Home</text></a><rect fill="#EEE8AA" height="70.375" rx="10" ry="10" style="stroke: #000080; stroke-width: 1.5;" width="477" x="317.5" y="42.1875"/><text fill="#000080" font-family="sans-serif" font-size="24" lengthAdjust="spacingAndGlyphs" textLength="461" x="325.5" y="72.1016">Challenge Education &amp; Mentoring Program</text><text fill="#000080" font-family="sans-serif" font-size="24" lengthAdjust="spacingAndGlyphs" textLength="162" x="475" y="102.2891">(Single Family)</text><ellipse cx="542.5" cy="125.5625" fill="#CCFFCC" filter="url(#f5o1uwuxq1ilf)" rx="10" ry="10" style="stroke: none; stroke-width: 1.0;"/><rect fill="#CCFFCC" filter="url(#f5o1uwuxq1ilf)" height="35.0938" style="stroke: #6495ED; stroke-width: 1.0;" width="151" x="467" y="155.5625"/><path d="M481,169.6563 L481,170.6563 L480.25,170.6563 C479.564,170.6563 479,171.2203 479,171.9063 L479,172.4063 C479,173.0843 479.437,173.6483 480.094,173.8123 L482.657,174.4683 C482.8,174.5043 483.001,174.7643 483.001,174.9063 L483.001,175.4063 C483.001,175.5403 482.885,175.6563 482.751,175.6563 L480.251,175.6563 C480.135,175.6563 480.039,175.6193 480.001,175.5933 L480.001,174.6553 L479.001,174.6553 L479.001,175.6553 C479.001,175.9973 479.204,176.2823 479.439,176.4363 C479.673,176.5913 479.957,176.6553 480.252,176.6553 L481.002,176.6553 L481.002,177.6553 L482.002,177.6553 L482.002,176.6553 L482.752,176.6553 C483.438,176.6553 484.002,176.0913 484.002,175.4053 L484.002,174.9053 C484.002,174.2273 483.565,173.6633 482.908,173.4993 L480.345,172.8433 C480.202,172.8073 480.001,172.5473 480.001,172.4053 L480.001,171.9053 C480.001,171.7713 480.117,171.6553 480.251,171.6553 L482.751,171.6553 C482.867,171.6553 482.963,171.6923 483.001,171.7183 L483.001,172.6563 L484.001,172.6563 L484.001,171.6563 C484.001,171.3143 483.798,171.0293 483.563,170.8753 C483.329,170.7203 483.045,170.6563 482.75,170.6563 L482,170.6563 L482,169.6563 L481,169.6563 " fill="#696969" style="stroke: ; stroke-width: 0.0; stroke-dasharray: ;"/><text fill="#696969" font-family="sans-serif" font-size="12" lengthAdjust="spacingAndGlyphs" textLength="118" x="490" y="178.0195">Enrollment Fee 7,000</text><rect fill="#FFFFF0" filter="url(#f5o1uwuxq1ilf)" height="35.0938" rx="12.5" ry="12.5" style="stroke: #6495ED; stroke-width: 1.0;" width="51" x="517" y="276.4912"/><text fill="#696969" font-family="sans-serif" font-size="12" lengthAdjust="spacingAndGlyphs" textLength="31" x="527" y="298.9482">active</text><rect fill="#000000" filter="url(#f5o1uwuxq1ilf)" height="6" rx="2.5" ry="2.5" style="stroke: #000000; stroke-width: 1.0;" width="1067" x="10" y="331.585"/><a href="../unlimited-lifestyle/financial-freedom-program.svg?sanitize=true" target="_top" xlink:actuate="onRequest" xlink:show="new" xlink:title="../unlimited-lifestyle/financial-freedom-program.svg?sanitize=true" xlink:type="simple"><rect fill="#87CEFA" filter="url(#f5o1uwuxq1ilf)" height="35.0938" rx="12.5" ry="12.5" style="stroke: #6495ED; stroke-width: 1.0;" width="165" x="22" y="425.2256"/><text fill="#696969" font-family="sans-serif" font-size="12" lengthAdjust="spacingAndGlyphs" textLength="145" x="32" y="447.6826">financial freedom program</text></a><rect fill="#FFFFF0" filter="url(#f5o1uwuxq1ilf)" height="35.0938" rx="12.5" ry="12.5" style="stroke: #6495ED; stroke-width: 1.0;" width="66" x="197" y="425.2256"/><text fill="#696969" font-family="sans-serif" font-size="12" lengthAdjust="spacingAndGlyphs" textLength="46" x="207" y="447.6826">mentors</text><rect fill="#FFFFF0" filter="url(#f5o1uwuxq1ilf)" height="35.0938" rx="12.5" ry="12.5" style="stroke: #6495ED; stroke-width: 1.0;" width="116" x="273" y="425.2256"/><text fill="#696969" font-family="sans-serif" font-size="12" lengthAdjust="spacingAndGlyphs" textLength="96" x="283" y="447.6826">1-on-1 consulting</text><rect fill="#FFFFF0" filter="url(#f5o1uwuxq1ilf)" height="35.0938" rx="12.5" ry="12.5" style="stroke: #6495ED; stroke-width: 1.0;" width="117" x="399" y="425.2256"/><text fill="#696969" font-family="sans-serif" font-size="12" lengthAdjust="spacingAndGlyphs" textLength="97" x="409" y="447.6826">Lifestyles realtors</text><rect fill="#FFFFF0" filter="url(#f5o1uwuxq1ilf)" height="35.0938" rx="12.5" ry="12.5" style="stroke: #6495ED; stroke-width: 1.0;" width="84" x="560" y="357.585"/><text fill="#696969" font-family="sans-serif" font-size="12" lengthAdjust="spacingAndGlyphs" textLength="61" x="573" y="380.042">email blast</text><rect fill="#FFFFF0" filter="url(#f5o1uwuxq1ilf)" height="35.0938" rx="12.5" ry="12.5" style="stroke: #6495ED; stroke-width: 1.0;" width="116" x="544" y="425.2256"/><text fill="#696969" font-family="sans-serif" font-size="12" lengthAdjust="spacingAndGlyphs" textLength="93" x="557" y="447.6826">reply for package</text><rect fill="#FFFFF0" filter="url(#f5o1uwuxq1ilf)" height="35.0938" style="stroke: #6495ED; stroke-width: 1.0;" width="67" x="568.5" y="495.3193"/><text fill="#696969" font-family="sans-serif" font-size="12" lengthAdjust="spacingAndGlyphs" textLength="47" x="578.5" y="517.7764">package</text><rect fill="#FFFFF0" filter="url(#f5o1uwuxq1ilf)" height="60.1875" rx="12.5" ry="12.5" style="stroke: #6495ED; stroke-width: 1.0;" width="134" x="670" y="412.6787"/><text fill="#696969" font-family="sans-serif" font-size="12" lengthAdjust="spacingAndGlyphs" textLength="52" x="680" y="435.1357">road trips</text><line style="stroke: #6495ED; stroke-width: 1.0;" x1="670" x2="804" y1="442.7725" y2="442.7725"/><text fill="#696969" font-family="sans-serif" font-size="12" font-style="italic" lengthAdjust="spacingAndGlyphs" textLength="114" x="680" y="460.2295">may include vendors</text><rect fill="#FFFFF0" filter="url(#f5o1uwuxq1ilf)" height="35.0938" rx="12.5" ry="12.5" style="stroke: #6495ED; stroke-width: 1.0;" width="186" x="814" y="425.2256"/><text fill="#696969" font-family="sans-serif" font-size="12" lengthAdjust="spacingAndGlyphs" textLength="166" x="824" y="447.6826">specialized education classes</text><polygon fill="#FFFFF0" filter="url(#f5o1uwuxq1ilf)" points="1010,425.2256,1063,425.2256,1073,442.7725,1063,460.3193,1010,460.3193" style="stroke: #6495ED; stroke-width: 1.0;"/><text fill="#696969" font-family="sans-serif" font-size="12" lengthAdjust="spacingAndGlyphs" textLength="33" x="1020" y="447.6826">1 year</text><rect fill="#000000" filter="url(#f5o1uwuxq1ilf)" height="6" rx="2.5" ry="2.5" style="stroke: #000000; stroke-width: 1.0;" width="1067" x="10" y="550.4131"/><rect fill="#FFFFF0" filter="url(#f5o1uwuxq1ilf)" height="35.0938" rx="12.5" ry="12.5" style="stroke: #6495ED; stroke-width: 1.0;" width="61" x="512" y="576.4131"/><text fill="#696969" font-family="sans-serif" font-size="12" lengthAdjust="spacingAndGlyphs" textLength="41" x="522" y="598.8701">inactive</text><rect fill="#CCFFCC" filter="url(#f5o1uwuxq1ilf)" height="35.0938" style="stroke: #6495ED; stroke-width: 1.0;" width="157" x="464" y="631.5068"/><path d="M478,645.6006 L478,646.6006 L477.25,646.6006 C476.564,646.6006 476,647.1646 476,647.8506 L476,648.3506 C476,649.0286 476.437,649.5926 477.094,649.7566 L479.657,650.4126 C479.8,650.4486 480.001,650.7086 480.001,650.8506 L480.001,651.3506 C480.001,651.4846 479.885,651.6006 479.751,651.6006 L477.251,651.6006 C477.135,651.6006 477.039,651.5636 477.001,651.5376 L477.001,650.5996 L476.001,650.5996 L476.001,651.5996 C476.001,651.9416 476.204,652.2266 476.439,652.3806 C476.673,652.5356 476.957,652.5996 477.252,652.5996 L478.002,652.5996 L478.002,653.5996 L479.002,653.5996 L479.002,652.5996 L479.752,652.5996 C480.438,652.5996 481.002,652.0356 481.002,651.3496 L481.002,650.8496 C481.002,650.1716 480.565,649.6076 479.908,649.4436 L477.345,648.7876 C477.202,648.7516 477.001,648.4916 477.001,648.3496 L477.001,647.8496 C477.001,647.7156 477.117,647.5996 477.251,647.5996 L479.751,647.5996 C479.867,647.5996 479.963,647.6366 480.001,647.6626 L480.001,648.6006 L481.001,648.6006 L481.001,647.6006 C481.001,647.2586 480.798,646.9736 480.563,646.8196 C480.329,646.6646 480.045,646.6006 479.75,646.6006 L479,646.6006 L479,645.6006 L478,645.6006 " fill="#696969" style="stroke: ; stroke-width: 0.0; stroke-dasharray: ;"/><text fill="#696969" font-family="sans-serif" font-size="12" lengthAdjust="spacingAndGlyphs" textLength="124" x="487" y="653.9639">Annual Renewal 2,000</text><polygon fill="#FFFFF0" filter="url(#f5o1uwuxq1ilf)" points="542.5,210.6563,554.5,222.6563,542.5,234.6563,530.5,222.6563,542.5,210.6563" style="stroke: #6495ED; stroke-width: 1.0;"/><polygon fill="#FFFFF0" filter="url(#f5o1uwuxq1ilf)" points="542.5,686.6006,542.5,686.6006,554.5,698.6006,542.5,710.6006,542.5,710.6006,530.5,698.6006,542.5,686.6006" style="stroke: #6495ED; stroke-width: 1.0;"/><line style="stroke: #696969; stroke-width: 1.5;" x1="542.5" x2="542.5" y1="135.5625" y2="155.5625"/><polygon fill="#696969" points="538.5,145.5625,542.5,155.5625,546.5,145.5625,542.5,149.5625" style="stroke: #696969; stroke-width: 1.0;"/><line style="stroke: #696969; stroke-width: 1.5;" x1="602" x2="602" y1="392.6787" y2="425.2256"/><polygon fill="#696969" points="598,415.2256,602,425.2256,606,415.2256,602,419.2256" style="stroke: #696969; stroke-width: 1.0;"/><line style="stroke: #696969; stroke-width: 1.5;" x1="602" x2="602" y1="460.3193" y2="495.3193"/><polygon fill="#696969" points="598,485.3193,602,495.3193,606,485.3193,602,489.3193" style="stroke: #696969; stroke-width: 1.0;"/><line style="stroke: #696969; stroke-width: 1.5;" x1="104.5" x2="104.5" y1="337.585" y2="425.2256"/><polygon fill="#696969" points="100.5,415.2256,104.5,425.2256,108.5,415.2256,104.5,419.2256" style="stroke: #696969; stroke-width: 1.0;"/><line style="stroke: #696969; stroke-width: 1.5;" x1="230" x2="230" y1="337.585" y2="425.2256"/><polygon fill="#696969" points="226,415.2256,230,425.2256,234,415.2256,230,419.2256" style="stroke: #696969; stroke-width: 1.0;"/><line style="stroke: #696969; stroke-width: 1.5;" x1="331" x2="331" y1="337.585" y2="425.2256"/><polygon fill="#696969" points="327,415.2256,331,425.2256,335,415.2256,331,419.2256" style="stroke: #696969; stroke-width: 1.0;"/><line style="stroke: #696969; stroke-width: 1.5;" x1="457.5" x2="457.5" y1="337.585" y2="425.2256"/><polygon fill="#696969" points="453.5,415.2256,457.5,425.2256,461.5,415.2256,457.5,419.2256" style="stroke: #696969; stroke-width: 1.0;"/><line style="stroke: #696969; stroke-width: 1.5;" x1="602" x2="602" y1="337.585" y2="357.585"/><polygon fill="#696969" points="598,347.585,602,357.585,606,347.585,602,351.585" style="stroke: #696969; stroke-width: 1.0;"/><line style="stroke: #696969; stroke-width: 1.5;" x1="737" x2="737" y1="337.585" y2="412.6787"/><polygon fill="#696969" points="733,402.6787,737,412.6787,741,402.6787,737,406.6787" style="stroke: #696969; stroke-width: 1.0;"/><line style="stroke: #696969; stroke-width: 1.5;" x1="907" x2="907" y1="337.585" y2="425.2256"/><polygon fill="#696969" points="903,415.2256,907,425.2256,911,415.2256,907,419.2256" style="stroke: #696969; stroke-width: 1.0;"/><line style="stroke: #696969; stroke-width: 1.5;" x1="1036.5" x2="1036.5" y1="337.585" y2="425.2256"/><polygon fill="#696969" points="1032.5,415.2256,1036.5,425.2256,1040.5,415.2256,1036.5,419.2256" style="stroke: #696969; stroke-width: 1.0;"/><line style="stroke: #696969; stroke-width: 1.5;" x1="104.5" x2="104.5" y1="460.3193" y2="550.4131"/><polygon fill="#696969" points="100.5,540.4131,104.5,550.4131,108.5,540.4131,104.5,544.4131" style="stroke: #696969; stroke-width: 1.0;"/><line style="stroke: #696969; stroke-width: 1.5;" x1="230" x2="230" y1="460.3193" y2="550.4131"/><polygon fill="#696969" points="226,540.4131,230,550.4131,234,540.4131,230,544.4131" style="stroke: #696969; stroke-width: 1.0;"/><line style="stroke: #696969; stroke-width: 1.5;" x1="331" x2="331" y1="460.3193" y2="550.4131"/><polygon fill="#696969" points="327,540.4131,331,550.4131,335,540.4131,331,544.4131" style="stroke: #696969; stroke-width: 1.0;"/><line style="stroke: #696969; stroke-width: 1.5;" x1="457.5" x2="457.5" y1="460.3193" y2="550.4131"/><polygon fill="#696969" points="453.5,540.4131,457.5,550.4131,461.5,540.4131,457.5,544.4131" style="stroke: #696969; stroke-width: 1.0;"/><line style="stroke: #696969; stroke-width: 1.5;" x1="602" x2="602" y1="530.4131" y2="550.4131"/><polygon fill="#696969" points="598,540.4131,602,550.4131,606,540.4131,602,544.4131" style="stroke: #696969; stroke-width: 1.0;"/><line style="stroke: #696969; stroke-width: 1.5;" x1="737" x2="737" y1="472.8662" y2="550.4131"/><polygon fill="#696969" points="733,540.4131,737,550.4131,741,540.4131,737,544.4131" style="stroke: #696969; stroke-width: 1.0;"/><line style="stroke: #696969; stroke-width: 1.5;" x1="907" x2="907" y1="460.3193" y2="550.4131"/><polygon fill="#696969" points="903,540.4131,907,550.4131,911,540.4131,907,544.4131" style="stroke: #696969; stroke-width: 1.0;"/><line style="stroke: #696969; stroke-width: 1.5;" x1="1036.5" x2="1036.5" y1="460.3193" y2="550.4131"/><polygon fill="#696969" points="1032.5,540.4131,1036.5,550.4131,1040.5,540.4131,1036.5,544.4131" style="stroke: #696969; stroke-width: 1.0;"/><line style="stroke: #696969; stroke-width: 1.5;" x1="542.5" x2="542.5" y1="311.585" y2="331.585"/><polygon fill="#696969" points="538.5,321.585,542.5,331.585,546.5,321.585,542.5,325.585" style="stroke: #696969; stroke-width: 1.0;"/><line style="stroke: #696969; stroke-width: 1.5;" x1="542.5" x2="542.5" y1="556.4131" y2="576.4131"/><polygon fill="#696969" points="538.5,566.4131,542.5,576.4131,546.5,566.4131,542.5,570.4131" style="stroke: #696969; stroke-width: 1.0;"/><line style="stroke: #696969; stroke-width: 1.5;" x1="542.5" x2="542.5" y1="611.5068" y2="631.5068"/><polygon fill="#696969" points="538.5,621.5068,542.5,631.5068,546.5,621.5068,542.5,625.5068" style="stroke: #696969; stroke-width: 1.0;"/><line style="stroke: #696969; stroke-width: 1.5;" x1="542.5" x2="542.5" y1="234.6563" y2="276.4912"/><polygon fill="#696969" points="538.5,266.4912,542.5,276.4912,546.5,266.4912,542.5,270.4912" style="stroke: #696969; stroke-width: 1.0;"/><text fill="#696969" font-family="sans-serif" font-size="11" lengthAdjust="spacingAndGlyphs" textLength="20" x="546.5" y="256.9922">paid</text><line style="stroke: #696969; stroke-width: 1.5;" x1="554.5" x2="1089" y1="698.6006" y2="698.6006"/><polygon fill="#696969" points="1085,487.8193,1089,477.8193,1093,487.8193,1089,483.8193" style="stroke: #696969; stroke-width: 1.5;"/><line style="stroke: #696969; stroke-width: 1.5;" x1="1089" x2="1089" y1="222.6563" y2="698.6006"/><line style="stroke: #696969; stroke-width: 1.5;" x1="1089" x2="554.5" y1="222.6563" y2="222.6563"/><polygon fill="#696969" points="564.5,218.6563,554.5,222.6563,564.5,226.6563,560.5,222.6563" style="stroke: #696969; stroke-width: 1.0;"/><line style="stroke: #696969; stroke-width: 1.5;" x1="542.5" x2="542.5" y1="666.6006" y2="686.6006"/><polygon fill="#696969" points="538.5,676.6006,542.5,686.6006,546.5,676.6006,542.5,680.6006" style="stroke: #696969; stroke-width: 1.0;"/><line style="stroke: #696969; stroke-width: 1.5;" x1="542.5" x2="542.5" y1="190.6563" y2="210.6563"/><polygon fill="#696969" points="538.5,200.6563,542.5,210.6563,546.5,200.6563,542.5,204.6563" style="stroke: #696969; stroke-width: 1.0;"/><rect fill="#B0C4DE" height="98.0469" rx="5" ry="5" style="stroke: #6495ED; stroke-width: 1.0;" width="221" x="445.5" y="718.6006"/><text fill="#FFFFFF" font-family="sans-serif" font-size="14" lengthAdjust="spacingAndGlyphs" textLength="136" x="451.5" y="738.1338">ready to buy program</text><text fill="#FFFFFF" font-family="sans-serif" font-size="14" lengthAdjust="spacingAndGlyphs" textLength="0" x="455.5" y="755.7432"/><text fill="#FFFFFF" font-family="sans-serif" font-size="14" lengthAdjust="spacingAndGlyphs" textLength="108" x="451.5" y="773.3525">for new members</text><text fill="#FFFFFF" font-family="sans-serif" font-size="14" lengthAdjust="spacingAndGlyphs" textLength="183" x="451.5" y="790.9619">mentors find deal just for you</text><text fill="#FFFFFF" font-family="sans-serif" font-size="14" lengthAdjust="spacingAndGlyphs" textLength="209" x="451.5" y="808.5713">goal: get 1st property &lt;= 30 days</text><text fill="#000080" font-family="sans-serif" font-size="14" lengthAdjust="spacingAndGlyphs" textLength="42" x="10" y="840.1807">©2019</text><a href="http://www.lifestylesunlimited.com" target="_top" xlink:actuate="onRequest" xlink:show="new" xlink:title="http://www.lifestylesunlimited.com" xlink:type="simple"><text fill="#0000FF" font-family="sans-serif" font-size="14" lengthAdjust="spacingAndGlyphs" text-decoration="underline" textLength="122" x="56" y="840.1807">LifeStyles Unlimited</text></a><text fill="#000080" font-family="sans-serif" font-size="14" lengthAdjust="spacingAndGlyphs" textLength="131" x="182" y="840.1807">| Generated %date%</text><!--
@startuml challenge-program


skinparam {
  BorderColor Red
  PathHoverColor Blue
}

skinparam Title {
  FontColor Navy
  BackgroundColor PaleGoldenRod
  BorderColor Navy
  BorderRoundCorner 20
  FontSize 24
}

skinparam activity {
  BackgroundColor Ivory
  BorderColor CornflowerBlue
  BorderThickness 1
  FontColor DimGray
  

  Arrow {
    Color dimgray
    FontColor dimgray
  }

  Start {
    Color PHYSICAL
  }

  End {
    Color Coral
  }

  Diamond {
    BackgroundColor Ivory
    BorderColor CornflowerBlue
    FontColor DarkGray
  }

  BackgroundColor<< Exception >> Red
	BorderColor<< Exception >> White
}

skinparam Swimlane {
  BorderColor CornflowerBlue 
}

skinparam Partition {
  BackgroundColor Ivory
  BorderColor CornflowerBlue
  BorderThickness 1
  FontColor CornflowerBlue
  FontSize 16
  BorderRoundCorner 20
}

skinparam Note {
  BackgroundColor LightSteelBlue
  BorderColor CornflowerBlue
  FontColor White
}

skinparam Legend {
  BackgroundColor LightSteelBlue
  BorderColor CornflowerBlue
  FontColor White
}

skinparam Footer {
  FontColor Navy
}


left header 
	<font color=Navy size=24>[[../index.svg?sanitize=true ⌂ Home]]</font>
endheader


	Title Challenge Education & Mentoring Program\n(Single Family)

	start

	#PHYSICAL:<&dollar> Enrollment Fee 7,000]

	repeat
		->paid;
		:active;
		fork
			[[../unlimited-lifestyle/financial-freedom-program.svg?sanitize=true]]#LightSkyBlue:financial freedom program;
		fork again
			:mentors;
		fork again
			:1-on-1 consulting;
		fork again
			:Lifestyles realtors;
		fork again
			:<&email> email blast;
			:<&email> reply for package;
			:package]
		fork again
			:road trips
			- - - -
			<i>may include vendors;

		fork again
			:specialized education classes;

		fork again
			:1 year>
		end fork
		:inactive;

		#PHYSICAL:<&dollar> Annual Renewal 2,000]
	repeat while ()

	legend 
		ready to buy program
		
		for new members
		mentors find deal just for you
		goal: get 1st property <= 30 days
	end legend



left footer 
	<font size=14>©2019 [[http://www.lifestylesunlimited.com LifeStyles Unlimited]] | Generated %date%</font>
endfooter


@enduml

PlantUML version 1.2019.06(Fri May 24 12:10:25 CDT 2019)
(GPL source distribution)
Java Runtime: Java(TM) SE Runtime Environment
JVM: Java HotSpot(TM) Client VM
Java Version: 1.8.0_211-b12
Operating System: Windows 10
OS Version: 10.0
Default Encoding: Cp1252
Language: en
Country: US
--></g></svg>