<?xml version="1.0" encoding="UTF-8" standalone="no"?><svg xmlns="http://www.w3.org/2000/svg" xmlns:xlink="http://www.w3.org/1999/xlink" contentScriptType="application/ecmascript" contentStyleType="text/css" height="393px" preserveAspectRatio="none" style="width:364px;height:393px;" version="1.1" viewBox="0 0 364 393" width="364px" zoomAndPan="magnify"><defs><style type="text/css"><![CDATA[path:hover { stroke: #0000FF !important;}]]></style><filter height="300%" id="fdr3ybxwb1zwi" width="300%" x="-1" y="-1"><feGaussianBlur result="blurOut" stdDeviation="2.0"/><feColorMatrix in="blurOut" result="blurOut2" type="matrix" values="0 0 0 0 0 0 0 0 0 0 0 0 0 0 0 0 0 0 .4 0"/><feOffset dx="4.0" dy="4.0" in="blurOut2" result="blurOut3"/><feBlend in="SourceGraphic" in2="blurOut3" mode="normal"/></filter></defs><g><a target="_top" xlink:actuate="onRequest" xlink:href="../index.svg" xlink:show="new" xlink:title="../index.svg" xlink:type="simple"><text fill="#0000FF" font-family="sans-serif" font-size="10" lengthAdjust="spacingAndGlyphs" text-decoration="underline" textLength="39" x="10" y="20.3809">⌂ Home</text><line style="stroke: #0000FF; stroke-width: 1.0;" x1="10" x2="49" y1="22.3809" y2="22.3809"/></a><rect fill="#EEE8AA" height="32.6406" rx="10" ry="10" style="stroke: #000080; stroke-width: 1.5;" width="170" x="95.5" y="24.5781"/><text fill="#000080" font-family="sans-serif" font-size="18" lengthAdjust="spacingAndGlyphs" textLength="154" x="103.5" y="48.2637">Challenge Program</text><ellipse cx="168" cy="70.2188" fill="#000080" filter="url(#fdr3ybxwb1zwi)" rx="10" ry="10" style="stroke: none; stroke-width: 1.0;"/><rect fill="#FFFFF0" filter="url(#fdr3ybxwb1zwi)" height="35.0938" rx="12.5" ry="12.5" style="stroke: #6495ED; stroke-width: 1.5;" width="55" x="140.5" y="100.2188"/><text fill="#A9A9A9" font-family="sans-serif" font-size="12" lengthAdjust="spacingAndGlyphs" textLength="35" x="150.5" y="122.6758">$7000</text><rect fill="#000000" filter="url(#fdr3ybxwb1zwi)" height="6" rx="2.5" ry="2.5" style="stroke: #000000; stroke-width: 1.0;" width="230" x="53" y="199.3125"/><rect fill="#FFFFF0" filter="url(#fdr3ybxwb1zwi)" height="35.0938" rx="12.5" ry="12.5" style="stroke: #6495ED; stroke-width: 1.5;" width="121" x="67" y="225.3125"/><text fill="#A9A9A9" font-family="sans-serif" font-size="12" lengthAdjust="spacingAndGlyphs" textLength="101" x="77" y="247.7695">work with coaches</text><polygon fill="#FFFFF0" filter="url(#fdr3ybxwb1zwi)" points="216,225.3125,269,225.3125,279,242.8594,269,260.4063,216,260.4063" style="stroke: #6495ED; stroke-width: 1.5;"/><text fill="#A9A9A9" font-family="sans-serif" font-size="12" lengthAdjust="spacingAndGlyphs" textLength="33" x="226" y="247.7695">1 year</text><rect fill="#000000" filter="url(#fdr3ybxwb1zwi)" height="6" rx="2.5" ry="2.5" style="stroke: #000000; stroke-width: 1.0;" width="230" x="53" y="280.4063"/><polygon fill="#FFFFF0" filter="url(#fdr3ybxwb1zwi)" points="168,155.3125,180,167.3125,168,179.3125,156,167.3125,168,155.3125" style="stroke: #6495ED; stroke-width: 1.5;"/><polygon fill="#FFFFF0" filter="url(#fdr3ybxwb1zwi)" points="153,306.4063,183,306.4063,195,318.4063,183,330.4063,153,330.4063,141,318.4063,153,306.4063" style="stroke: #6495ED; stroke-width: 1.5;"/><text fill="#A9A9A9" font-family="sans-serif" font-size="11" lengthAdjust="spacingAndGlyphs" textLength="30" x="153" y="322.9072">$2000</text><ellipse cx="168" cy="360.4063" fill="#FFFFFF" filter="url(#fdr3ybxwb1zwi)" rx="10" ry="10" style="stroke: #FF0000; stroke-width: 1.5;"/><line style="stroke: #FF0000; stroke-width: 2.5;" x1="161.8128" x2="174.1872" y1="354.2191" y2="366.5934"/><line style="stroke: #FF0000; stroke-width: 2.5;" x1="174.1872" x2="161.8128" y1="354.2191" y2="366.5934"/><line style="stroke: #696969; stroke-width: 1.5;" x1="168" x2="168" y1="80.2188" y2="100.2188"/><polygon fill="#696969" points="164,90.2188,168,100.2188,172,90.2188,168,94.2188" style="stroke: #696969; stroke-width: 1.0;"/><line style="stroke: #696969; stroke-width: 1.5;" x1="127.5" x2="127.5" y1="205.3125" y2="225.3125"/><polygon fill="#696969" points="123.5,215.3125,127.5,225.3125,131.5,215.3125,127.5,219.3125" style="stroke: #696969; stroke-width: 1.0;"/><line style="stroke: #696969; stroke-width: 1.5;" x1="242.5" x2="242.5" y1="205.3125" y2="225.3125"/><polygon fill="#696969" points="238.5,215.3125,242.5,225.3125,246.5,215.3125,242.5,219.3125" style="stroke: #696969; stroke-width: 1.0;"/><line style="stroke: #696969; stroke-width: 1.5;" x1="127.5" x2="127.5" y1="260.4063" y2="280.4063"/><polygon fill="#696969" points="123.5,270.4063,127.5,280.4063,131.5,270.4063,127.5,274.4063" style="stroke: #696969; stroke-width: 1.0;"/><line style="stroke: #696969; stroke-width: 1.5;" x1="242.5" x2="242.5" y1="260.4063" y2="280.4063"/><polygon fill="#696969" points="238.5,270.4063,242.5,280.4063,246.5,270.4063,242.5,274.4063" style="stroke: #696969; stroke-width: 1.0;"/><line style="stroke: #696969; stroke-width: 1.5;" x1="168" x2="168" y1="179.3125" y2="199.3125"/><polygon fill="#696969" points="164,189.3125,168,199.3125,172,189.3125,168,193.3125" style="stroke: #696969; stroke-width: 1.0;"/><line style="stroke: #696969; stroke-width: 1.5;" x1="195" x2="295" y1="318.4063" y2="318.4063"/><polygon fill="#696969" points="291,252.8594,295,242.8594,299,252.8594,295,248.8594" style="stroke: #696969; stroke-width: 1.5;"/><line style="stroke: #696969; stroke-width: 1.5;" x1="295" x2="295" y1="167.3125" y2="318.4063"/><line style="stroke: #696969; stroke-width: 1.5;" x1="295" x2="180" y1="167.3125" y2="167.3125"/><polygon fill="#696969" points="190,163.3125,180,167.3125,190,171.3125,186,167.3125" style="stroke: #696969; stroke-width: 1.0;"/><line style="stroke: #696969; stroke-width: 1.5;" x1="168" x2="168" y1="286.4063" y2="306.4063"/><polygon fill="#696969" points="164,296.4063,168,306.4063,172,296.4063,168,300.4063" style="stroke: #696969; stroke-width: 1.0;"/><line style="stroke: #696969; stroke-width: 1.5;" x1="168" x2="168" y1="135.3125" y2="155.3125"/><polygon fill="#696969" points="164,145.3125,168,155.3125,172,145.3125,168,149.3125" style="stroke: #696969; stroke-width: 1.0;"/><line style="stroke: #696969; stroke-width: 1.5;" x1="168" x2="168" y1="330.4063" y2="350.4063"/><polygon fill="#696969" points="164,340.4063,168,350.4063,172,340.4063,168,344.4063" style="stroke: #696969; stroke-width: 1.0;"/><text fill="#000080" font-family="sans-serif" font-size="10" lengthAdjust="spacingAndGlyphs" textLength="31" x="10" y="379.7871">©2019</text><a target="_top" xlink:actuate="onRequest" xlink:href="http://www.lifestylesunlimited.com" xlink:show="new" xlink:title="http://www.lifestylesunlimited.com" xlink:type="simple"><text fill="#0000FF" font-family="sans-serif" font-size="10" lengthAdjust="spacingAndGlyphs" text-decoration="underline" textLength="95" x="44" y="379.7871">LifeStyles Unlimited</text><line style="stroke: #0000FF; stroke-width: 1.0;" x1="44" x2="139" y1="381.7871" y2="381.7871"/></a><text fill="#000080" font-family="sans-serif" font-size="10" lengthAdjust="spacingAndGlyphs" textLength="210" x="142" y="379.7871">| Generated Mon Apr 15 12:34:01 CDT 2019</text><!--
@startuml challenge-program


skinparam {
  BorderColor Red
  PathHoverColor Blue
}

skinparam Title {
  FontColor Navy
  BackgroundColor PaleGoldenRod
  BorderColor Navy
  BorderRoundCorner 20
}

skinparam activity {
  BackgroundColor Ivory
  BorderColor CornflowerBlue
  FontColor DarkGray

  Arrow {
    Color dimgray
    FontColor dimgray
  }

  Start {
    Color Navy
  }

  End {
    Color Red
  }

  Diamond {
    BackgroundColor Ivory
    BorderColor CornflowerBlue
    FontColor DarkGray
  }

  BackgroundColor<< Exception >> Red
	BorderColor<< Exception >> White
}

skinparam Swimlane {
  BorderColor CornflowerBlue 
}

skinparam Partition {
  BackgroundColor DarkSeaGreen
  BorderColor CornflowerBlue
  BorderThickness 1
  FontColor White
  FontSize 16
}
skinparam Note {
  BackgroundColor LightSteelBlue
  BorderColor CornflowerBlue
  FontColor White
}

skinparam Footer {
  FontColor Navy
}


left header 
	<font color=Navy>[[../index.svg ⌂ Home]]</font>
endheader


	Title Challenge Program

	start

		:$7000;

		repeat
			fork
			:work with coaches;
			fork again
			:1 year>
			end fork
		repeat while ($2000)

	end

left footer 
	©2019 [[http://www.lifestylesunlimited.com LifeStyles Unlimited]] | Generated Mon Apr 15 12:34:01 CDT 2019
endfooter


@enduml

PlantUML version 1.2019.03(Sun Mar 10 06:04:44 CDT 2019)
(GPL source distribution)
Java Runtime: Java(TM) SE Runtime Environment
JVM: Java HotSpot(TM) 64-Bit Server VM
Java Version: 1.8.0_201-b09
Operating System: Windows 10
OS Version: 10.0
Default Encoding: Cp1252
Language: en
Country: US
--></g></svg>