<?xml version="1.0" encoding="UTF-8" standalone="no"?><svg xmlns="http://www.w3.org/2000/svg" xmlns:xlink="http://www.w3.org/1999/xlink" contentScriptType="application/ecmascript" contentStyleType="text/css" height="507px" preserveAspectRatio="none" style="width:473px;height:507px;" version="1.1" viewBox="0 0 473 507" width="473px" zoomAndPan="magnify"><defs><style type="text/css"><![CDATA[path:hover { stroke: #0000FF !important;}]]></style><filter height="300%" id="f1v7kacjxppzwp" width="300%" x="-1" y="-1"><feGaussianBlur result="blurOut" stdDeviation="2.0"/><feColorMatrix in="blurOut" result="blurOut2" type="matrix" values="0 0 0 0 0 0 0 0 0 0 0 0 0 0 0 0 0 0 .4 0"/><feOffset dx="4.0" dy="4.0" in="blurOut2" result="blurOut3"/><feBlend in="SourceGraphic" in2="blurOut3" mode="normal"/></filter></defs><g><a target="_top" xlink:actuate="onRequest" xlink:href="../index.svg?sanitize=true" xlink:show="new" xlink:title="../index.svg?sanitize=true" xlink:type="simple"><text fill="#0000FF" font-family="sans-serif" font-size="24" lengthAdjust="spacingAndGlyphs" text-decoration="underline" textLength="90" x="10" y="34.9141">⌂ Home</text><line style="stroke: #0000FF; stroke-width: 1.0;" x1="10" x2="100" y1="36.9141" y2="36.9141"/></a><rect fill="#EEE8AA" height="40.1875" rx="10" ry="10" style="stroke: #000080; stroke-width: 1.5;" width="97" x="186.5" y="42.1875"/><text fill="#000080" font-family="sans-serif" font-size="24" lengthAdjust="spacingAndGlyphs" textLength="81" x="194.5" y="72.1016">Closing</text><ellipse cx="236" cy="95.375" fill="#CCFFCC" filter="url(#f1v7kacjxppzwp)" rx="10" ry="10" style="stroke: none; stroke-width: 1.0;"/><rect fill="#000000" filter="url(#f1v7kacjxppzwp)" height="6" rx="2.5" ry="2.5" style="stroke: #000000; stroke-width: 1.0;" width="345" x="63.5" y="125.375"/><rect fill="#FFFFF0" filter="url(#f1v7kacjxppzwp)" height="75.2813" rx="12.5" ry="12.5" style="stroke: #6495ED; stroke-width: 1.0;" width="140" x="77.5" y="163.9219"/><text fill="#696969" font-family="sans-serif" font-size="12" lengthAdjust="spacingAndGlyphs" textLength="120" x="87.5" y="186.3789">Fannie Mae Purchase</text><text fill="#696969" font-family="sans-serif" font-size="12" lengthAdjust="spacingAndGlyphs" textLength="89" x="87.5" y="201.4727">Money Mortgage</text><line style="stroke: #6495ED; stroke-width: 1.0;" x1="77.5" x2="217.5" y1="209.1094" y2="209.1094"/><line style="stroke: #6495ED; stroke-width: 1.0;" x1="77.5" x2="217.5" y1="211.1094" y2="211.1094"/><text fill="#696969" font-family="sans-serif" font-size="12" lengthAdjust="spacingAndGlyphs" textLength="43" x="87.5" y="226.5664">75-80%</text><rect fill="#FFFFF0" filter="url(#f1v7kacjxppzwp)" height="100.375" rx="12.5" ry="12.5" style="stroke: #6495ED; stroke-width: 1.0;" width="149" x="245.5" y="151.375"/><text fill="#696969" font-family="sans-serif" font-size="12" lengthAdjust="spacingAndGlyphs" textLength="96" x="255.5" y="173.832">Hard Money Loan</text><text fill="#696969" font-family="sans-serif" font-size="12" lengthAdjust="spacingAndGlyphs" textLength="129" x="255.5" y="188.9258">Private Money Mortgage</text><line style="stroke: #6495ED; stroke-width: 1.0;" x1="245.5" x2="394.5" y1="196.5625" y2="196.5625"/><line style="stroke: #6495ED; stroke-width: 1.0;" x1="245.5" x2="394.5" y1="198.5625" y2="198.5625"/><text fill="#696969" font-family="sans-serif" font-size="12" lengthAdjust="spacingAndGlyphs" textLength="69" x="255.5" y="214.0195">70-75% ARV</text><line style="stroke: #6495ED; stroke-width: 1.0;" x1="245.5" x2="394.5" y1="221.6563" y2="221.6563"/><line style="stroke: #6495ED; stroke-width: 1.0;" x1="245.5" x2="394.5" y1="223.6563" y2="223.6563"/><text fill="#696969" font-family="sans-serif" font-size="12" lengthAdjust="spacingAndGlyphs" textLength="90" x="255.5" y="239.1133">6-16.5% Interest</text><rect fill="#000000" filter="url(#f1v7kacjxppzwp)" height="6" rx="2.5" ry="2.5" style="stroke: #000000; stroke-width: 1.0;" width="345" x="63.5" y="271.75"/><rect fill="#FFFFF0" filter="url(#f1v7kacjxppzwp)" height="50.1875" rx="12.5" ry="12.5" style="stroke: #6495ED; stroke-width: 1.0;" width="109" x="181.5" y="346.668"/><text fill="#696969" font-family="sans-serif" font-size="12" lengthAdjust="spacingAndGlyphs" textLength="76" x="191.5" y="369.125">seller pays all</text><text fill="#696969" font-family="sans-serif" font-size="12" lengthAdjust="spacingAndGlyphs" textLength="89" x="191.5" y="384.2188">RE commission</text><polygon fill="#FFFFF0" filter="url(#f1v7kacjxppzwp)" points="202,297.75,270,297.75,282,309.75,270,321.75,202,321.75,190,309.75,202,297.75" style="stroke: #6495ED; stroke-width: 1.0;"/><text fill="#696969" font-family="sans-serif" font-size="11" lengthAdjust="spacingAndGlyphs" textLength="18" x="240" y="333.1689">yes</text><text fill="#A9A9A9" font-family="sans-serif" font-size="11" lengthAdjust="spacingAndGlyphs" textLength="68" x="202" y="314.251">used agent(s)</text><polygon fill="#FFFFF0" filter="url(#f1v7kacjxppzwp)" points="236,416.8555,248,428.8555,236,440.8555,224,428.8555,236,416.8555" style="stroke: #6495ED; stroke-width: 1.0;"/><ellipse cx="236" cy="470.8555" fill="#FFFFFF" filter="url(#f1v7kacjxppzwp)" rx="10" ry="10" style="stroke: #FF7F50; stroke-width: 1.5;"/><line style="stroke: #FF7F50; stroke-width: 2.5;" x1="229.8128" x2="242.1872" y1="464.6683" y2="477.0427"/><line style="stroke: #FF7F50; stroke-width: 2.5;" x1="242.1872" x2="229.8128" y1="464.6683" y2="477.0427"/><line style="stroke: #696969; stroke-width: 1.5;" x1="147.5" x2="147.5" y1="131.375" y2="163.9219"/><polygon fill="#696969" points="143.5,153.9219,147.5,163.9219,151.5,153.9219,147.5,157.9219" style="stroke: #696969; stroke-width: 1.0;"/><line style="stroke: #696969; stroke-width: 1.5;" x1="320" x2="320" y1="131.375" y2="151.375"/><polygon fill="#696969" points="316,141.375,320,151.375,324,141.375,320,145.375" style="stroke: #696969; stroke-width: 1.0;"/><line style="stroke: #696969; stroke-width: 1.5;" x1="147.5" x2="147.5" y1="239.2031" y2="271.75"/><polygon fill="#696969" points="143.5,261.75,147.5,271.75,151.5,261.75,147.5,265.75" style="stroke: #696969; stroke-width: 1.0;"/><line style="stroke: #696969; stroke-width: 1.5;" x1="320" x2="320" y1="251.75" y2="271.75"/><polygon fill="#696969" points="316,261.75,320,271.75,324,261.75,320,265.75" style="stroke: #696969; stroke-width: 1.0;"/><line style="stroke: #696969; stroke-width: 1.5;" x1="236" x2="236" y1="105.375" y2="125.375"/><polygon fill="#696969" points="232,115.375,236,125.375,240,115.375,236,119.375" style="stroke: #696969; stroke-width: 1.0;"/><line style="stroke: #696969; stroke-width: 1.5;" x1="236" x2="236" y1="321.75" y2="346.668"/><polygon fill="#696969" points="232,336.668,236,346.668,240,336.668,236,340.668" style="stroke: #696969; stroke-width: 1.0;"/><line style="stroke: #696969; stroke-width: 1.5;" x1="282" x2="300.5" y1="309.75" y2="309.75"/><polygon fill="#696969" points="296.5,361.7617,300.5,371.7617,304.5,361.7617,300.5,365.7617" style="stroke: #696969; stroke-width: 1.5;"/><line style="stroke: #696969; stroke-width: 1.5;" x1="300.5" x2="300.5" y1="309.75" y2="428.8555"/><line style="stroke: #696969; stroke-width: 1.5;" x1="300.5" x2="248" y1="428.8555" y2="428.8555"/><polygon fill="#696969" points="258,424.8555,248,428.8555,258,432.8555,254,428.8555" style="stroke: #696969; stroke-width: 1.0;"/><line style="stroke: #696969; stroke-width: 1.5;" x1="236" x2="236" y1="396.8555" y2="416.8555"/><polygon fill="#696969" points="232,406.8555,236,416.8555,240,406.8555,236,410.8555" style="stroke: #696969; stroke-width: 1.0;"/><line style="stroke: #696969; stroke-width: 1.5;" x1="236" x2="236" y1="277.75" y2="297.75"/><polygon fill="#696969" points="232,287.75,236,297.75,240,287.75,236,291.75" style="stroke: #696969; stroke-width: 1.0;"/><line style="stroke: #696969; stroke-width: 1.5;" x1="236" x2="236" y1="440.8555" y2="460.8555"/><polygon fill="#696969" points="232,450.8555,236,460.8555,240,450.8555,236,454.8555" style="stroke: #696969; stroke-width: 1.0;"/><text fill="#000080" font-family="sans-serif" font-size="14" lengthAdjust="spacingAndGlyphs" textLength="42" x="10" y="494.3887">©2019</text><a target="_top" xlink:actuate="onRequest" xlink:href="http://www.lifestylesunlimited.com" xlink:show="new" xlink:title="http://www.lifestylesunlimited.com" xlink:type="simple"><text fill="#0000FF" font-family="sans-serif" font-size="14" lengthAdjust="spacingAndGlyphs" text-decoration="underline" textLength="122" x="56" y="494.3887">LifeStyles Unlimited</text><line style="stroke: #0000FF; stroke-width: 1.0;" x1="56" x2="178" y1="496.3887" y2="496.3887"/></a><text fill="#000080" font-family="sans-serif" font-size="14" lengthAdjust="spacingAndGlyphs" textLength="279" x="182" y="494.3887">| Generated Sat May 18 14:00:42 CDT 2019</text><!--
@startuml closing


skinparam {
  BorderColor Red
  PathHoverColor Blue
}

skinparam Title {
  FontColor Navy
  BackgroundColor PaleGoldenRod
  BorderColor Navy
  BorderRoundCorner 20
  FontSize 24
}

skinparam activity {
  BackgroundColor Ivory
  BorderColor CornflowerBlue
  BorderThickness 1
  FontColor DimGray
  

  Arrow {
    Color dimgray
    FontColor dimgray
  }

  Start {
    Color PHYSICAL
  }

  End {
    Color Coral
  }

  Diamond {
    BackgroundColor Ivory
    BorderColor CornflowerBlue
    FontColor DarkGray
  }

  BackgroundColor<< Exception >> Red
	BorderColor<< Exception >> White
}

skinparam Swimlane {
  BorderColor CornflowerBlue 
}

skinparam Partition {
  BackgroundColor Ivory
  BorderColor CornflowerBlue
  BorderThickness 1
  FontColor CornflowerBlue
  FontSize 16
  BorderRoundCorner 20
}

skinparam Note {
  BackgroundColor LightSteelBlue
  BorderColor CornflowerBlue
  FontColor White
}

skinparam Legend {
  BackgroundColor LightSteelBlue
  BorderColor CornflowerBlue
  FontColor White
}

skinparam Footer {
  FontColor Navy
}


left header 
	<font color=Navy size=24>[[../index.svg?sanitize=true ⌂ Home]]</font>
endheader


	Title Closing

	start

		fork
			:Fannie Mae Purchase
			Money Mortgage
			====
			75-80%;
		fork again
			:Hard Money Loan
			Private Money Mortgage
			====
			70-75% ARV
			====
			6-16.5% Interest;
		end fork

		if(used agent(s)) then (yes)
			:seller pays all
			RE commission;
		endif

	end


left footer 
	<font size=14>©2019 [[http://www.lifestylesunlimited.com LifeStyles Unlimited]] | Generated Sat May 18 14:00:42 CDT 2019</font>
endfooter


@enduml

PlantUML version 1.2019.03(Sun Mar 10 06:04:44 CDT 2019)
(GPL source distribution)
Java Runtime: Java(TM) SE Runtime Environment
JVM: Java HotSpot(TM) 64-Bit Server VM
Java Version: 1.8.0_111-b14
Operating System: Windows 10
OS Version: 10.0
Default Encoding: Cp1252
Language: en
Country: US
--></g></svg>