<?xml version="1.0" encoding="UTF-8" standalone="no"?><svg xmlns="http://www.w3.org/2000/svg" xmlns:xlink="http://www.w3.org/1999/xlink" contentScriptType="application/ecmascript" contentStyleType="text/css" height="1331px" preserveAspectRatio="none" style="width:1318px;height:1331px;" version="1.1" viewBox="0 0 1318 1331" width="1318px" zoomAndPan="magnify"><defs><style type="text/css"><![CDATA[path:hover { stroke: #0000FF !important;}]]></style><filter height="300%" id="f15vzaeg0kuo4n" width="300%" x="-1" y="-1"><feGaussianBlur result="blurOut" stdDeviation="2.0"/><feColorMatrix in="blurOut" result="blurOut2" type="matrix" values="0 0 0 0 0 0 0 0 0 0 0 0 0 0 0 0 0 0 .4 0"/><feOffset dx="4.0" dy="4.0" in="blurOut2" result="blurOut3"/><feBlend in="SourceGraphic" in2="blurOut3" mode="normal"/></filter></defs><g><a href="../index.svg?sanitize=true" target="_top" xlink:actuate="onRequest" xlink:show="new" xlink:title="../index.svg?sanitize=true" xlink:type="simple"><text fill="#0000FF" font-family="sans-serif" font-size="24" lengthAdjust="spacingAndGlyphs" text-decoration="underline" textLength="90" x="10" y="34.9141">⌂ Home</text></a><rect fill="#EEE8AA" height="40.1875" rx="10" ry="10" style="stroke: #000080; stroke-width: 1.5;" width="97" x="609.25" y="42.1875"/><text fill="#000080" font-family="sans-serif" font-size="24" lengthAdjust="spacingAndGlyphs" textLength="81" x="617.25" y="72.1016">Closing</text><ellipse cx="657.75" cy="95.375" fill="#CCFFCC" filter="url(#f15vzaeg0kuo4n)" rx="10" ry="10" style="stroke: none; stroke-width: 1.0;"/><rect fill="#000000" filter="url(#f15vzaeg0kuo4n)" height="6" rx="2.5" ry="2.5" style="stroke: #000000; stroke-width: 1.0;" width="1297.5" x="10" y="125.375"/><rect fill="#FFFFF0" filter="url(#f15vzaeg0kuo4n)" height="432.625" style="stroke: #6495ED; stroke-width: 1.0;" width="384.5" x="22" y="340.6289"/><path d="M219,341.6289 L219,373.8789 L209,383.8789 L22,383.8789 " fill="none" style="stroke: #6495ED; stroke-width: 1.0;"/><text fill="#6495ED" font-family="sans-serif" font-size="16" lengthAdjust="spacingAndGlyphs" textLength="83" x="25" y="358.2383">Fannie Mae</text><text fill="#6495ED" font-family="sans-serif" font-size="16" lengthAdjust="spacingAndGlyphs" textLength="187" x="25" y="378.3633">Purchase Money Mortgage</text><path d="M258.5,423.7031 L258.5,450.0547 L396.5,450.0547 L396.5,433.7031 L386.5,423.7031 L258.5,423.7031 " fill="#B0C4DE" filter="url(#f15vzaeg0kuo4n)" style="stroke: #6495ED; stroke-width: 1.0;"/><path d="M386.5,423.7031 L386.5,433.7031 L396.5,433.7031 L386.5,423.7031 " fill="#B0C4DE" style="stroke: #6495ED; stroke-width: 1.0;"/><text fill="#FFFFFF" font-family="sans-serif" font-size="13" lengthAdjust="spacingAndGlyphs" textLength="117" x="264.5" y="442.1982">most expensive way</text><polygon fill="#FFFFF0" filter="url(#f15vzaeg0kuo4n)" points="66.5,400.8789,191.5,400.8789,203.5,412.8789,191.5,424.8789,66.5,424.8789,54.5,412.8789,66.5,400.8789" style="stroke: #6495ED; stroke-width: 1.0;"/><text fill="#A9A9A9" font-family="sans-serif" font-size="11" lengthAdjust="spacingAndGlyphs" textLength="125" x="66.5" y="417.3799">house in perfect condition</text><text fill="#696969" font-family="sans-serif" font-size="11" lengthAdjust="spacingAndGlyphs" textLength="12" x="203.5" y="410.4619">no</text><ellipse cx="237.5" cy="412.8789" fill="#FFFFFF" filter="url(#f15vzaeg0kuo4n)" rx="11" ry="11" style="stroke: #FF7F50; stroke-width: 1.0;"/><ellipse cx="237.5" cy="412.8789" fill="#FF7F50" rx="6" ry="6" style="stroke: #FFBFA7; stroke-width: 1.0;"/><path d="M66.5,507.8789 L61.5,525.4258 L66.5,542.9727 M191.5,507.8789 L196.5,525.4258 L191.5,542.9727 " fill="#FFFFF0" filter="url(#f15vzaeg0kuo4n)" style="stroke: #6495ED; stroke-width: 1.0;"/><text fill="#696969" font-family="sans-serif" font-size="12" lengthAdjust="spacingAndGlyphs" textLength="115" x="71.5" y="530.3359">75-80% loan to value</text><path d="M69,577.9727 L64,595.5195 L69,613.0664 M189,577.9727 L194,595.5195 L189,613.0664 " fill="#FFFFF0" filter="url(#f15vzaeg0kuo4n)" style="stroke: #6495ED; stroke-width: 1.0;"/><text fill="#696969" font-family="sans-serif" font-size="12" lengthAdjust="spacingAndGlyphs" textLength="110" x="74" y="600.4297">30 year amortization</text><path d="M37,648.0664 L32,665.6133 L37,683.1602 M221,648.0664 L226,665.6133 L221,683.1602 " fill="#FFFFF0" filter="url(#f15vzaeg0kuo4n)" style="stroke: #6495ED; stroke-width: 1.0;"/><text fill="#696969" font-family="sans-serif" font-size="12" lengthAdjust="spacingAndGlyphs" textLength="174" x="42" y="670.5234">20-25% down + rehab + closing</text><path d="M93,718.1602 L88,735.707 L93,753.2539 M165,718.1602 L170,735.707 L165,753.2539 " fill="#FFFFF0" filter="url(#f15vzaeg0kuo4n)" style="stroke: #6495ED; stroke-width: 1.0;"/><text fill="#696969" font-family="sans-serif" font-size="12" lengthAdjust="spacingAndGlyphs" textLength="62" x="98" y="740.6172">2% reserve</text><rect fill="#FFFFF0" filter="url(#f15vzaeg0kuo4n)" height="372.5234" style="stroke: #6495ED; stroke-width: 1.0;" width="232" x="444.5" y="142.3906"/><path d="M624.5,143.3906 L624.5,175.6406 L614.5,185.6406 L444.5,185.6406 " fill="none" style="stroke: #6495ED; stroke-width: 1.0;"/><text fill="#6495ED" font-family="sans-serif" font-size="16" lengthAdjust="spacingAndGlyphs" textLength="123" x="447.5" y="160">Hard Money Loan</text><text fill="#6495ED" font-family="sans-serif" font-size="16" lengthAdjust="spacingAndGlyphs" textLength="170" x="447.5" y="180.125">Private Money Mortgage</text><path d="M570.5,201.8359 L570.5,219.1875 L550.5,223.1875 L570.5,227.1875 L570.5,244.5391 A0,0 0 0 0 570.5,244.5391 L666.5,244.5391 A0,0 0 0 0 666.5,244.5391 L666.5,211.8359 L656.5,201.8359 L570.5,201.8359 A0,0 0 0 0 570.5,201.8359 " fill="#B0C4DE" filter="url(#f15vzaeg0kuo4n)" style="stroke: #6495ED; stroke-width: 1.0;"/><path d="M656.5,201.8359 L656.5,211.8359 L666.5,211.8359 L656.5,201.8359 " fill="#B0C4DE" style="stroke: #6495ED; stroke-width: 1.0;"/><text fill="#FFFFFF" font-family="sans-serif" font-size="13" lengthAdjust="spacingAndGlyphs" textLength="75" x="576.5" y="220.3311">don't do 75%</text><text fill="#FFFFFF" font-family="sans-serif" font-size="13" lengthAdjust="spacingAndGlyphs" textLength="45" x="576.5" y="236.6826">until refi</text><path d="M484.5,205.6406 L479.5,223.1875 L484.5,240.7344 M545.5,205.6406 L550.5,223.1875 L545.5,240.7344 " fill="#FFFFF0" filter="url(#f15vzaeg0kuo4n)" style="stroke: #6495ED; stroke-width: 1.0;"/><text fill="#696969" font-family="sans-serif" font-size="12" lengthAdjust="spacingAndGlyphs" textLength="51" x="489.5" y="228.0977">70% ARV</text><path d="M465,264.5391 L460,282.0859 L465,299.6328 M565,264.5391 L570,282.0859 L565,299.6328 " fill="#FFFFF0" filter="url(#f15vzaeg0kuo4n)" style="stroke: #6495ED; stroke-width: 1.0;"/><text fill="#696969" font-family="sans-serif" font-size="12" lengthAdjust="spacingAndGlyphs" textLength="90" x="470" y="286.9961">6-16.5% interest</text><path d="M468,319.6328 L463,337.1797 L468,354.7266 M562,319.6328 L567,337.1797 L562,354.7266 " fill="#FFFFF0" filter="url(#f15vzaeg0kuo4n)" style="stroke: #6495ED; stroke-width: 1.0;"/><text fill="#696969" font-family="sans-serif" font-size="12" lengthAdjust="spacingAndGlyphs" textLength="84" x="473" y="342.0898">2-4 month term</text><path d="M465.5,389.7266 L460.5,407.2734 L465.5,424.8203 M564.5,389.7266 L569.5,407.2734 L564.5,424.8203 " fill="#FFFFF0" filter="url(#f15vzaeg0kuo4n)" style="stroke: #6495ED; stroke-width: 1.0;"/><text fill="#696969" font-family="sans-serif" font-size="12" lengthAdjust="spacingAndGlyphs" textLength="89" x="470.5" y="412.1836">closes in 3 days</text><path d="M459.5,459.8203 L454.5,477.3672 L459.5,494.9141 M570.5,459.8203 L575.5,477.3672 L570.5,494.9141 " fill="#FFFFF0" filter="url(#f15vzaeg0kuo4n)" style="stroke: #6495ED; stroke-width: 1.0;"/><text fill="#696969" font-family="sans-serif" font-size="12" lengthAdjust="spacingAndGlyphs" textLength="101" x="464.5" y="482.2773">will loan to anyone</text><rect fill="#FFFFF0" filter="url(#f15vzaeg0kuo4n)" height="400.6211" style="stroke: #6495ED; stroke-width: 1.0;" width="415" x="416.5" y="549.9141"/><path d="M642.5,550.9141 L642.5,583.1641 L632.5,593.1641 L416.5,593.1641 " fill="none" style="stroke: #6495ED; stroke-width: 1.0;"/><text fill="#6495ED" font-family="sans-serif" font-size="16" lengthAdjust="spacingAndGlyphs" textLength="83" x="419.5" y="567.5234">Fannie Mae</text><text fill="#6495ED" font-family="sans-serif" font-size="16" lengthAdjust="spacingAndGlyphs" textLength="216" x="419.5" y="587.6484">Rate and Term Refinance Loan</text><path d="M623.5,610.1641 L623.5,652.043 L603.5,656.043 L623.5,660.043 L623.5,701.9219 A0,0 0 0 0 623.5,701.9219 L821.5,701.9219 A0,0 0 0 0 821.5,701.9219 L821.5,620.1641 L811.5,610.1641 L623.5,610.1641 A0,0 0 0 0 623.5,610.1641 " fill="#B0C4DE" filter="url(#f15vzaeg0kuo4n)" style="stroke: #6495ED; stroke-width: 1.0;"/><path d="M811.5,610.1641 L811.5,620.1641 L821.5,620.1641 L811.5,610.1641 " fill="#B0C4DE" style="stroke: #6495ED; stroke-width: 1.0;"/><text fill="#FFFFFF" font-family="sans-serif" font-size="13" lengthAdjust="spacingAndGlyphs" textLength="115" x="629.5" y="628.6592">they don't call loans</text><text fill="#FFFFFF" font-family="sans-serif" font-size="13" lengthAdjust="spacingAndGlyphs" textLength="139" x="629.5" y="645.0107">the interest rate is lower</text><text fill="#FFFFFF" font-family="sans-serif" font-size="13" lengthAdjust="spacingAndGlyphs" textLength="160" x="629.5" y="661.3623">del said on first 2 properties</text><text fill="#FFFFFF" font-family="sans-serif" font-size="13" lengthAdjust="spacingAndGlyphs" textLength="177" x="629.5" y="677.7139">80 without mortgage insurance</text><text fill="#FFFFFF" font-family="sans-serif" font-size="13" lengthAdjust="spacingAndGlyphs" textLength="159" x="629.5" y="694.0654">85 with mortgage insurance</text><path d="M431.5,638.4961 L426.5,656.043 L431.5,673.5898 M598.5,638.4961 L603.5,656.043 L598.5,673.5898 " fill="#FFFFF0" filter="url(#f15vzaeg0kuo4n)" style="stroke: #6495ED; stroke-width: 1.0;"/><text fill="#696969" font-family="sans-serif" font-size="12" lengthAdjust="spacingAndGlyphs" textLength="157" x="436.5" y="660.9531">how to get out of hard money</text><path d="M497.5,736.9219 L492.5,754.4688 L497.5,772.0156 M532.5,736.9219 L537.5,754.4688 L532.5,772.0156 " fill="#FFFFF0" filter="url(#f15vzaeg0kuo4n)" style="stroke: #6495ED; stroke-width: 1.0;"/><text fill="#696969" font-family="sans-serif" font-size="12" lengthAdjust="spacingAndGlyphs" textLength="25" x="502.5" y="759.3789">75%</text><path d="M468.5,793.2539 L463.5,810.8008 L468.5,828.3477 M561.5,793.2539 L566.5,810.8008 L561.5,828.3477 " fill="#FFFFF0" filter="url(#f15vzaeg0kuo4n)" style="stroke: #6495ED; stroke-width: 1.0;"/><text fill="#696969" font-family="sans-serif" font-size="12" lengthAdjust="spacingAndGlyphs" textLength="83" x="473.5" y="815.7109">4-4.5% interest</text><path d="M455,848.3477 L450,865.8945 L455,883.4414 M575,848.3477 L580,865.8945 L575,883.4414 " fill="#FFFFF0" filter="url(#f15vzaeg0kuo4n)" style="stroke: #6495ED; stroke-width: 1.0;"/><text fill="#696969" font-family="sans-serif" font-size="12" lengthAdjust="spacingAndGlyphs" textLength="110" x="460" y="870.8047">30 year amortization</text><rect fill="#DDA0DD" filter="url(#f15vzaeg0kuo4n)" height="35.0938" rx="12.5" ry="12.5" style="stroke: #6495ED; stroke-width: 1.0;" width="145" x="442.5" y="903.4414"/><text fill="#696969" font-family="sans-serif" font-size="12" lengthAdjust="spacingAndGlyphs" textLength="125" x="452.5" y="925.8984">no more out of pocket?</text><path d="M1116,371.4414 L1116,388.793 L1096,392.793 L1116,396.793 L1116,414.1445 A0,0 0 0 0 1116,414.1445 L1195,414.1445 A0,0 0 0 0 1195,414.1445 L1195,381.4414 L1185,371.4414 L1116,371.4414 A0,0 0 0 0 1116,371.4414 " fill="#B0C4DE" filter="url(#f15vzaeg0kuo4n)" style="stroke: #6495ED; stroke-width: 1.0;"/><path d="M1185,371.4414 L1185,381.4414 L1195,381.4414 L1185,371.4414 " fill="#B0C4DE" style="stroke: #6495ED; stroke-width: 1.0;"/><text fill="#FFFFFF" font-family="sans-serif" font-size="13" lengthAdjust="spacingAndGlyphs" textLength="46" x="1122" y="389.9365">can buy</text><text fill="#FFFFFF" font-family="sans-serif" font-size="13" lengthAdjust="spacingAndGlyphs" textLength="58" x="1122" y="406.2881">1 per year</text><rect fill="#CCFFCC" filter="url(#f15vzaeg0kuo4n)" height="35.0938" style="stroke: #6495ED; stroke-width: 1.0;" width="60" x="1036" y="375.2461"/><path d="M1050,389.3398 L1050,390.3398 L1049.25,390.3398 C1048.564,390.3398 1048,390.9038 1048,391.5898 L1048,392.0898 C1048,392.7678 1048.437,393.3318 1049.094,393.4958 L1051.657,394.1518 C1051.8,394.1878 1052.001,394.4478 1052.001,394.5898 L1052.001,395.0898 C1052.001,395.2238 1051.885,395.3398 1051.751,395.3398 L1049.251,395.3398 C1049.135,395.3398 1049.039,395.3028 1049.001,395.2768 L1049.001,394.3388 L1048.001,394.3388 L1048.001,395.3388 C1048.001,395.6808 1048.204,395.9658 1048.439,396.1198 C1048.673,396.2748 1048.957,396.3388 1049.252,396.3388 L1050.002,396.3388 L1050.002,397.3388 L1051.002,397.3388 L1051.002,396.3388 L1051.752,396.3388 C1052.438,396.3388 1053.002,395.7748 1053.002,395.0888 L1053.002,394.5888 C1053.002,393.9108 1052.565,393.3468 1051.908,393.1828 L1049.345,392.5268 C1049.202,392.4908 1049.001,392.2308 1049.001,392.0888 L1049.001,391.5888 C1049.001,391.4548 1049.117,391.3388 1049.251,391.3388 L1051.751,391.3388 C1051.867,391.3388 1051.963,391.3758 1052.001,391.4018 L1052.001,392.3398 L1053.001,392.3398 L1053.001,391.3398 C1053.001,390.9978 1052.798,390.7128 1052.563,390.5588 C1052.329,390.4038 1052.045,390.3398 1051.75,390.3398 L1051,390.3398 L1051,389.3398 L1050,389.3398 " fill="#696969" style="stroke: ; stroke-width: 0.0; stroke-dasharray: ;"/><text fill="#696969" font-family="sans-serif" font-size="12" lengthAdjust="spacingAndGlyphs" textLength="27" x="1059" y="397.7031">cash</text><polygon fill="#FFFFF0" filter="url(#f15vzaeg0kuo4n)" points="1015,449.1445,1117,449.1445,1129,462.9805,1117,476.8164,1015,476.8164,1003,462.9805,1015,449.1445" style="stroke: #6495ED; stroke-width: 1.0;"/><text fill="#A9A9A9" font-family="sans-serif" font-size="11" lengthAdjust="spacingAndGlyphs" textLength="102" x="1015" y="460.5635">6 months since close</text><text fill="#A9A9A9" font-family="sans-serif" font-size="11" lengthAdjust="spacingAndGlyphs" textLength="81" x="1015" y="474.3994">and property 1-6</text><text fill="#696969" font-family="sans-serif" font-size="11" lengthAdjust="spacingAndGlyphs" textLength="18" x="985" y="460.5635">yes</text><text fill="#696969" font-family="sans-serif" font-size="11" lengthAdjust="spacingAndGlyphs" textLength="12" x="1129" y="460.5635">no</text><rect fill="#FFFFF0" filter="url(#f15vzaeg0kuo4n)" height="225.625" style="stroke: #6495ED; stroke-width: 1.0;" width="212" x="841.5" y="486.8164"/><path d="M1029.5,487.8164 L1029.5,520.0664 L1019.5,530.0664 L841.5,530.0664 " fill="none" style="stroke: #6495ED; stroke-width: 1.0;"/><text fill="#6495ED" font-family="sans-serif" font-size="16" lengthAdjust="spacingAndGlyphs" textLength="83" x="844.5" y="504.4258">Fannie Mae</text><text fill="#6495ED" font-family="sans-serif" font-size="16" lengthAdjust="spacingAndGlyphs" textLength="178" x="844.5" y="524.5508">Cash Out Refinance Loan</text><path d="M866,547.0664 L861,577.1602 L866,607.2539 M1029,547.0664 L1034,577.1602 L1029,607.2539 " fill="#FFFFF0" filter="url(#f15vzaeg0kuo4n)" style="stroke: #6495ED; stroke-width: 1.0;"/><text fill="#696969" font-family="sans-serif" font-size="12" lengthAdjust="spacingAndGlyphs" textLength="153" x="871" y="569.5234">6-12 months of "seasoning"</text><line style="stroke: #6495ED; stroke-width: 1.0;" x1="861" x2="1034" y1="577.1602" y2="577.1602"/><line style="stroke: #6495ED; stroke-width: 1.0;" x1="861" x2="1034" y1="579.1602" y2="579.1602"/><text fill="#696969" font-family="sans-serif" font-size="12" lengthAdjust="spacingAndGlyphs" textLength="97" x="871" y="594.6172">(being rented out)</text><path d="M856.5,642.2539 L851.5,667.3477 L856.5,692.4414 M1038.5,642.2539 L1043.5,667.3477 L1038.5,692.4414 " fill="#FFFFF0" filter="url(#f15vzaeg0kuo4n)" style="stroke: #6495ED; stroke-width: 1.0;"/><text fill="#696969" font-family="sans-serif" font-size="12" lengthAdjust="spacingAndGlyphs" textLength="172" x="861.5" y="664.7109">pull out 75% of appraised value</text><text fill="#696969" font-family="sans-serif" font-size="12" lengthAdjust="spacingAndGlyphs" textLength="133" x="861.5" y="679.8047">(this is pulling out more)</text><rect fill="#FFFFF0" filter="url(#f15vzaeg0kuo4n)" height="215.625" style="stroke: #6495ED; stroke-width: 1.0;" width="222" x="1073.5" y="486.8164"/><path d="M1213.5,487.8164 L1213.5,520.0664 L1203.5,530.0664 L1073.5,530.0664 " fill="none" style="stroke: #6495ED; stroke-width: 1.0;"/><text fill="#6495ED" font-family="sans-serif" font-size="16" lengthAdjust="spacingAndGlyphs" textLength="83" x="1076.5" y="504.4258">Fannie Mae</text><text fill="#6495ED" font-family="sans-serif" font-size="16" lengthAdjust="spacingAndGlyphs" textLength="130" x="1076.5" y="524.5508">Delayed Financing</text><path d="M1106,547.0664 L1101,579.707 L1106,612.3477 M1263,547.0664 L1268,579.707 L1263,612.3477 " fill="#FFFFF0" filter="url(#f15vzaeg0kuo4n)" style="stroke: #6495ED; stroke-width: 1.0;"/><text fill="#696969" font-family="sans-serif" font-size="12" lengthAdjust="spacingAndGlyphs" textLength="147" x="1111" y="569.5234">75-80% of appraised value</text><text fill="#696969" font-family="sans-serif" font-size="12" lengthAdjust="spacingAndGlyphs" textLength="69" x="1111" y="584.6172">or all in cost,</text><text fill="#696969" font-family="sans-serif" font-size="12" lengthAdjust="spacingAndGlyphs" textLength="95" x="1111" y="599.7109">whichever is less</text><path d="M1088.5,647.3477 L1083.5,664.8945 L1088.5,682.4414 M1280.5,647.3477 L1285.5,664.8945 L1280.5,682.4414 " fill="#FFFFF0" filter="url(#f15vzaeg0kuo4n)" style="stroke: #6495ED; stroke-width: 1.0;"/><text fill="#696969" font-family="sans-serif" font-size="12" lengthAdjust="spacingAndGlyphs" textLength="182" x="1093.5" y="669.8047">get all money back minus repairs</text><polygon fill="#FFFFF0" filter="url(#f15vzaeg0kuo4n)" points="1066,718.4414,1078,730.4414,1066,742.4414,1054,730.4414,1066,718.4414" style="stroke: #6495ED; stroke-width: 1.0;"/><rect fill="#000000" filter="url(#f15vzaeg0kuo4n)" height="6" rx="2.5" ry="2.5" style="stroke: #000000; stroke-width: 1.0;" width="1297.5" x="10" y="970.5352"/><rect fill="#FFFFF0" filter="url(#f15vzaeg0kuo4n)" height="50.1875" rx="12.5" ry="12.5" style="stroke: #6495ED; stroke-width: 1.0;" width="109" x="603.25" y="1045.4531"/><text fill="#696969" font-family="sans-serif" font-size="12" lengthAdjust="spacingAndGlyphs" textLength="76" x="613.25" y="1067.9102">seller pays all</text><text fill="#696969" font-family="sans-serif" font-size="12" lengthAdjust="spacingAndGlyphs" textLength="89" x="613.25" y="1083.0039">RE commission</text><polygon fill="#FFFFF0" filter="url(#f15vzaeg0kuo4n)" points="623.75,996.5352,691.75,996.5352,703.75,1008.5352,691.75,1020.5352,623.75,1020.5352,611.75,1008.5352,623.75,996.5352" style="stroke: #6495ED; stroke-width: 1.0;"/><text fill="#696969" font-family="sans-serif" font-size="11" lengthAdjust="spacingAndGlyphs" textLength="18" x="661.75" y="1031.9541">yes</text><text fill="#A9A9A9" font-family="sans-serif" font-size="11" lengthAdjust="spacingAndGlyphs" textLength="68" x="623.75" y="1013.0361">used agent(s)</text><polygon fill="#FFFFF0" filter="url(#f15vzaeg0kuo4n)" points="657.75,1115.6406,669.75,1127.6406,657.75,1139.6406,645.75,1127.6406,657.75,1115.6406" style="stroke: #6495ED; stroke-width: 1.0;"/><rect fill="#FFFFF0" filter="url(#f15vzaeg0kuo4n)" height="35.0938" style="stroke: #6495ED; stroke-width: 1.0;" width="167" x="574.25" y="1159.6406"/><text fill="#696969" font-family="sans-serif" font-size="12" lengthAdjust="spacingAndGlyphs" textLength="147" x="584.25" y="1182.0977">take selfie in front of house</text><rect fill="#FFFFF0" filter="url(#f15vzaeg0kuo4n)" height="50.1875" rx="12.5" ry="12.5" style="stroke: #6495ED; stroke-width: 1.0;" width="135" x="590.25" y="1214.7344"/><text fill="#696969" font-family="sans-serif" font-size="12" lengthAdjust="spacingAndGlyphs" textLength="77" x="600.25" y="1237.1914">email selfie to</text><text fill="#696969" font-family="sans-serif" font-size="12" lengthAdjust="spacingAndGlyphs" textLength="115" x="600.25" y="1252.2852">all real estate agents</text><ellipse cx="657.75" cy="1294.9219" fill="#FFFFFF" filter="url(#f15vzaeg0kuo4n)" rx="10" ry="10" style="stroke: #FF7F50; stroke-width: 1.5;"/><line style="stroke: #FF7F50; stroke-width: 2.5;" x1="651.5628" x2="663.9372" y1="1288.7347" y2="1301.1091"/><line style="stroke: #FF7F50; stroke-width: 2.5;" x1="663.9372" x2="651.5628" y1="1288.7347" y2="1301.1091"/><line style="stroke: #696969; stroke-width: 1.5;" x1="129" x2="129" y1="424.8789" y2="507.8789"/><polygon fill="#696969" points="125,497.8789,129,507.8789,133,497.8789,129,501.8789" style="stroke: #696969; stroke-width: 1.0;"/><line style="stroke: #696969; stroke-width: 1.5;" x1="203.5" x2="226.5" y1="412.8789" y2="412.8789"/><polygon fill="#696969" points="216.5,408.8789,226.5,412.8789,216.5,416.8789,220.5,412.8789" style="stroke: #696969; stroke-width: 1.0;"/><line style="stroke: #696969; stroke-width: 1.5;" x1="129" x2="129" y1="542.9727" y2="577.9727"/><polygon fill="#696969" points="125,567.9727,129,577.9727,133,567.9727,129,571.9727" style="stroke: #696969; stroke-width: 1.0;"/><line style="stroke: #696969; stroke-width: 1.5;" x1="129" x2="129" y1="613.0664" y2="648.0664"/><polygon fill="#696969" points="125,638.0664,129,648.0664,133,638.0664,129,642.0664" style="stroke: #696969; stroke-width: 1.0;"/><line style="stroke: #696969; stroke-width: 1.5;" x1="129" x2="129" y1="683.1602" y2="718.1602"/><polygon fill="#696969" points="125,708.1602,129,718.1602,133,708.1602,129,712.1602" style="stroke: #696969; stroke-width: 1.0;"/><line style="stroke: #696969; stroke-width: 1.5;" x1="515" x2="515" y1="240.7344" y2="264.5391"/><polygon fill="#696969" points="511,254.5391,515,264.5391,519,254.5391,515,258.5391" style="stroke: #696969; stroke-width: 1.0;"/><line style="stroke: #696969; stroke-width: 1.5;" x1="515" x2="515" y1="299.6328" y2="319.6328"/><polygon fill="#696969" points="511,309.6328,515,319.6328,519,309.6328,515,313.6328" style="stroke: #696969; stroke-width: 1.0;"/><line style="stroke: #696969; stroke-width: 1.5;" x1="515" x2="515" y1="354.7266" y2="389.7266"/><polygon fill="#696969" points="511,379.7266,515,389.7266,519,379.7266,515,383.7266" style="stroke: #696969; stroke-width: 1.0;"/><line style="stroke: #696969; stroke-width: 1.5;" x1="515" x2="515" y1="424.8203" y2="459.8203"/><polygon fill="#696969" points="511,449.8203,515,459.8203,519,449.8203,515,453.8203" style="stroke: #696969; stroke-width: 1.0;"/><line style="stroke: #696969; stroke-width: 1.5;" x1="515" x2="515" y1="673.5898" y2="736.9219"/><polygon fill="#696969" points="511,726.9219,515,736.9219,519,726.9219,515,730.9219" style="stroke: #696969; stroke-width: 1.0;"/><line style="stroke: #696969; stroke-width: 1.5;" x1="515" x2="515" y1="772.0156" y2="793.2539"/><polygon fill="#696969" points="511,783.2539,515,793.2539,519,783.2539,515,787.2539" style="stroke: #696969; stroke-width: 1.0;"/><line style="stroke: #696969; stroke-width: 1.5;" x1="515" x2="515" y1="828.3477" y2="848.3477"/><polygon fill="#696969" points="511,838.3477,515,848.3477,519,838.3477,515,842.3477" style="stroke: #696969; stroke-width: 1.0;"/><line style="stroke: #696969; stroke-width: 1.5;" x1="515" x2="515" y1="883.4414" y2="903.4414"/><polygon fill="#696969" points="511,893.4414,515,903.4414,519,893.4414,515,897.4414" style="stroke: #696969; stroke-width: 1.0;"/><line style="stroke: #696969; stroke-width: 1.5;" x1="515" x2="515" y1="494.9141" y2="638.4961"/><polygon fill="#696969" points="511,628.4961,515,638.4961,519,628.4961,515,632.4961" style="stroke: #696969; stroke-width: 1.0;"/><line style="stroke: #696969; stroke-width: 1.5;" x1="947.5" x2="947.5" y1="607.2539" y2="642.2539"/><polygon fill="#696969" points="943.5,632.2539,947.5,642.2539,951.5,632.2539,947.5,636.2539" style="stroke: #696969; stroke-width: 1.0;"/><line style="stroke: #696969; stroke-width: 1.5;" x1="1184.5" x2="1184.5" y1="612.3477" y2="647.3477"/><polygon fill="#696969" points="1180.5,637.3477,1184.5,647.3477,1188.5,637.3477,1184.5,641.3477" style="stroke: #696969; stroke-width: 1.0;"/><line style="stroke: #696969; stroke-width: 1.5;" x1="1003" x2="947.5" y1="462.9805" y2="462.9805"/><line style="stroke: #696969; stroke-width: 1.5;" x1="947.5" x2="947.5" y1="462.9805" y2="547.0664"/><polygon fill="#696969" points="943.5,537.0664,947.5,547.0664,951.5,537.0664,947.5,541.0664" style="stroke: #696969; stroke-width: 1.0;"/><line style="stroke: #696969; stroke-width: 1.5;" x1="1129" x2="1184.5" y1="462.9805" y2="462.9805"/><line style="stroke: #696969; stroke-width: 1.5;" x1="1184.5" x2="1184.5" y1="462.9805" y2="547.0664"/><polygon fill="#696969" points="1180.5,537.0664,1184.5,547.0664,1188.5,537.0664,1184.5,541.0664" style="stroke: #696969; stroke-width: 1.0;"/><line style="stroke: #696969; stroke-width: 1.5;" x1="947.5" x2="947.5" y1="692.4414" y2="730.4414"/><line style="stroke: #696969; stroke-width: 1.5;" x1="947.5" x2="1054" y1="730.4414" y2="730.4414"/><polygon fill="#696969" points="1044,726.4414,1054,730.4414,1044,734.4414,1048,730.4414" style="stroke: #696969; stroke-width: 1.0;"/><line style="stroke: #696969; stroke-width: 1.5;" x1="1184.5" x2="1184.5" y1="682.4414" y2="730.4414"/><line style="stroke: #696969; stroke-width: 1.5;" x1="1184.5" x2="1078" y1="730.4414" y2="730.4414"/><polygon fill="#696969" points="1088,726.4414,1078,730.4414,1088,734.4414,1084,730.4414" style="stroke: #696969; stroke-width: 1.0;"/><line style="stroke: #696969; stroke-width: 1.5;" x1="1066" x2="1066" y1="410.3398" y2="449.1445"/><polygon fill="#696969" points="1062,439.1445,1066,449.1445,1070,439.1445,1066,443.1445" style="stroke: #696969; stroke-width: 1.0;"/><line style="stroke: #696969; stroke-width: 1.5;" x1="129" x2="129" y1="131.375" y2="400.8789"/><polygon fill="#696969" points="125,390.8789,129,400.8789,133,390.8789,129,394.8789" style="stroke: #696969; stroke-width: 1.0;"/><line style="stroke: #696969; stroke-width: 1.5;" x1="515" x2="515" y1="131.375" y2="205.6406"/><polygon fill="#696969" points="511,195.6406,515,205.6406,519,195.6406,515,199.6406" style="stroke: #696969; stroke-width: 1.0;"/><line style="stroke: #696969; stroke-width: 1.5;" x1="1066" x2="1066" y1="131.375" y2="375.2461"/><polygon fill="#696969" points="1062,365.2461,1066,375.2461,1070,365.2461,1066,369.2461" style="stroke: #696969; stroke-width: 1.0;"/><line style="stroke: #696969; stroke-width: 1.5;" x1="129" x2="129" y1="753.2539" y2="970.5352"/><polygon fill="#696969" points="125,960.5352,129,970.5352,133,960.5352,129,964.5352" style="stroke: #696969; stroke-width: 1.0;"/><line style="stroke: #696969; stroke-width: 1.5;" x1="515" x2="515" y1="938.5352" y2="970.5352"/><polygon fill="#696969" points="511,960.5352,515,970.5352,519,960.5352,515,964.5352" style="stroke: #696969; stroke-width: 1.0;"/><line style="stroke: #696969; stroke-width: 1.5;" x1="1066" x2="1066" y1="742.4414" y2="970.5352"/><polygon fill="#696969" points="1062,960.5352,1066,970.5352,1070,960.5352,1066,964.5352" style="stroke: #696969; stroke-width: 1.0;"/><line style="stroke: #696969; stroke-width: 1.5;" x1="657.75" x2="657.75" y1="105.375" y2="125.375"/><polygon fill="#696969" points="653.75,115.375,657.75,125.375,661.75,115.375,657.75,119.375" style="stroke: #696969; stroke-width: 1.0;"/><line style="stroke: #696969; stroke-width: 1.5;" x1="657.75" x2="657.75" y1="1020.5352" y2="1045.4531"/><polygon fill="#696969" points="653.75,1035.4531,657.75,1045.4531,661.75,1035.4531,657.75,1039.4531" style="stroke: #696969; stroke-width: 1.0;"/><line style="stroke: #696969; stroke-width: 1.5;" x1="703.75" x2="722.25" y1="1008.5352" y2="1008.5352"/><polygon fill="#696969" points="718.25,1060.5469,722.25,1070.5469,726.25,1060.5469,722.25,1064.5469" style="stroke: #696969; stroke-width: 1.5;"/><line style="stroke: #696969; stroke-width: 1.5;" x1="722.25" x2="722.25" y1="1008.5352" y2="1127.6406"/><line style="stroke: #696969; stroke-width: 1.5;" x1="722.25" x2="669.75" y1="1127.6406" y2="1127.6406"/><polygon fill="#696969" points="679.75,1123.6406,669.75,1127.6406,679.75,1131.6406,675.75,1127.6406" style="stroke: #696969; stroke-width: 1.0;"/><line style="stroke: #696969; stroke-width: 1.5;" x1="657.75" x2="657.75" y1="1095.6406" y2="1115.6406"/><polygon fill="#696969" points="653.75,1105.6406,657.75,1115.6406,661.75,1105.6406,657.75,1109.6406" style="stroke: #696969; stroke-width: 1.0;"/><line style="stroke: #696969; stroke-width: 1.5;" x1="657.75" x2="657.75" y1="976.5352" y2="996.5352"/><polygon fill="#696969" points="653.75,986.5352,657.75,996.5352,661.75,986.5352,657.75,990.5352" style="stroke: #696969; stroke-width: 1.0;"/><line style="stroke: #696969; stroke-width: 1.5;" x1="657.75" x2="657.75" y1="1139.6406" y2="1159.6406"/><polygon fill="#696969" points="653.75,1149.6406,657.75,1159.6406,661.75,1149.6406,657.75,1153.6406" style="stroke: #696969; stroke-width: 1.0;"/><line style="stroke: #696969; stroke-width: 1.5;" x1="657.75" x2="657.75" y1="1194.7344" y2="1214.7344"/><polygon fill="#696969" points="653.75,1204.7344,657.75,1214.7344,661.75,1204.7344,657.75,1208.7344" style="stroke: #696969; stroke-width: 1.0;"/><line style="stroke: #696969; stroke-width: 1.5;" x1="657.75" x2="657.75" y1="1264.9219" y2="1284.9219"/><polygon fill="#696969" points="653.75,1274.9219,657.75,1284.9219,661.75,1274.9219,657.75,1278.9219" style="stroke: #696969; stroke-width: 1.0;"/><text fill="#000080" font-family="sans-serif" font-size="14" lengthAdjust="spacingAndGlyphs" textLength="42" x="10" y="1318.4551">©2019</text><a href="http://www.lifestylesunlimited.com" target="_top" xlink:actuate="onRequest" xlink:show="new" xlink:title="http://www.lifestylesunlimited.com" xlink:type="simple"><text fill="#0000FF" font-family="sans-serif" font-size="14" lengthAdjust="spacingAndGlyphs" text-decoration="underline" textLength="122" x="56" y="1318.4551">LifeStyles Unlimited</text></a><text fill="#000080" font-family="sans-serif" font-size="14" lengthAdjust="spacingAndGlyphs" textLength="131" x="182" y="1318.4551">| Generated %date%</text><!--
@startuml closing


skinparam {
  BorderColor Red
  PathHoverColor Blue
}

skinparam Title {
  FontColor Navy
  BackgroundColor PaleGoldenRod
  BorderColor Navy
  BorderRoundCorner 20
  FontSize 24
}

skinparam activity {
  BackgroundColor Ivory
  BorderColor CornflowerBlue
  BorderThickness 1
  FontColor DimGray
  

  Arrow {
    Color dimgray
    FontColor dimgray
  }

  Start {
    Color PHYSICAL
  }

  End {
    Color Coral
  }

  Diamond {
    BackgroundColor Ivory
    BorderColor CornflowerBlue
    FontColor DarkGray
  }

  BackgroundColor<< Exception >> Red
	BorderColor<< Exception >> White
}

skinparam Swimlane {
  BorderColor CornflowerBlue 
}

skinparam Partition {
  BackgroundColor Ivory
  BorderColor CornflowerBlue
  BorderThickness 1
  FontColor CornflowerBlue
  FontSize 16
  BorderRoundCorner 20
}

skinparam Note {
  BackgroundColor LightSteelBlue
  BorderColor CornflowerBlue
  FontColor White
}

skinparam Legend {
  BackgroundColor LightSteelBlue
  BorderColor CornflowerBlue
  FontColor White
}

skinparam Footer {
  FontColor Navy
}


left header 
	<font color=Navy size=24>[[../index.svg?sanitize=true ⌂ Home]]</font>
endheader


	Title Closing

	start

  fork

    partition "Fannie Mae\nPurchase Money Mortgage" {
      if(house in perfect condition) then (no)
        stop
      endif
      note right
        most expensive way
      end note
      :75-80% loan to value}
      :30 year amortization}
      :20-25% down + rehab + closing}
      :2% reserve}
    }
    
  fork again
    partition "Hard Money Loan\nPrivate Money Mortgage" {
      :70% ARV}
      note right: don't do 75%\nuntil refi
      :6-16.5% interest}
      :2-4 month term}
      :closes in 3 days}
      :will loan to anyone}
    }

    partition "Fannie Mae\nRate and Term Refinance Loan" {
      :how to get out of hard money}
      note right
        they don't call loans
        the interest rate is lower
        del said on first 2 properties
        80 without mortgage insurance
        85 with mortgage insurance
      end note
      :75%}
      :4-4.5% interest}
      :30 year amortization}
      #Plum:no more out of pocket?;
    }

  fork again
    #PHYSICAL:<&dollar> cash]
    note right
      can buy 
      1 per year
    end note

    if(6 months since close\nand property 1-6) then (yes)
			partition "Fannie Mae\nCash Out Refinance Loan" {
				:6-12 months of "seasoning"\n====\n(being rented out)}
				:pull out 75% of appraised value
				(this is pulling out more)}
			}
    else (no)
      partition "Fannie Mae\nDelayed Financing" {
        :75-80% of appraised value 
        or all in cost,
        whichever is less}
        :get all money back minus repairs}
      }
    endif
  end fork

	if(used agent(s)) then (yes)
		:seller pays all
		RE commission;
	endif

	:take selfie in front of house]
	:email selfie to
	all real estate agents;


	end


left footer 
	<font size=14>©2019 [[http://www.lifestylesunlimited.com LifeStyles Unlimited]] | Generated %date%</font>
endfooter


@enduml

PlantUML version 1.2019.06(Fri May 24 12:10:25 CDT 2019)
(GPL source distribution)
Java Runtime: Java(TM) SE Runtime Environment
JVM: Java HotSpot(TM) Client VM
Java Version: 1.8.0_211-b12
Operating System: Windows 10
OS Version: 10.0
Default Encoding: Cp1252
Language: en
Country: US
--></g></svg>