<?xml version="1.0" encoding="UTF-8" standalone="no"?><svg xmlns="http://www.w3.org/2000/svg" xmlns:xlink="http://www.w3.org/1999/xlink" contentScriptType="application/ecmascript" contentStyleType="text/css" height="973px" preserveAspectRatio="none" style="width:795px;height:973px;" version="1.1" viewBox="0 0 795 973" width="795px" zoomAndPan="magnify"><defs><style type="text/css"><![CDATA[path:hover { stroke: #0000FF !important;}]]></style><filter height="300%" id="f8w2bm7ji9rso" width="300%" x="-1" y="-1"><feGaussianBlur result="blurOut" stdDeviation="2.0"/><feColorMatrix in="blurOut" result="blurOut2" type="matrix" values="0 0 0 0 0 0 0 0 0 0 0 0 0 0 0 0 0 0 .4 0"/><feOffset dx="4.0" dy="4.0" in="blurOut2" result="blurOut3"/><feBlend in="SourceGraphic" in2="blurOut3" mode="normal"/></filter></defs><g><a target="_top" xlink:actuate="onRequest" xlink:href="../index.svg" xlink:show="new" xlink:title="../index.svg" xlink:type="simple"><text fill="#0000FF" font-family="sans-serif" font-size="18" lengthAdjust="spacingAndGlyphs" text-decoration="underline" textLength="67" x="10" y="28.6855">⌂ Home</text><line style="stroke: #0000FF; stroke-width: 1.0;" x1="10" x2="77" y1="30.6855" y2="30.6855"/></a><rect fill="#EEE8AA" height="32.6406" rx="10" ry="10" style="stroke: #000080; stroke-width: 1.5;" width="226" x="283.25" y="34.6406"/><text fill="#000080" font-family="sans-serif" font-size="18" lengthAdjust="spacingAndGlyphs" textLength="210" x="291.25" y="58.3262">Due Diligence (Inspection)</text><ellipse cx="395" cy="80.2813" fill="#CCFFCC" filter="url(#f8w2bm7ji9rso)" rx="10" ry="10" style="stroke: none; stroke-width: 1.0;"/><rect fill="#000000" filter="url(#f8w2bm7ji9rso)" height="6" rx="2.5" ry="2.5" style="stroke: #000000; stroke-width: 1.0;" width="770" x="10" y="110.2813"/><rect fill="#000000" filter="url(#f8w2bm7ji9rso)" height="6" rx="2.5" ry="2.5" style="stroke: #000000; stroke-width: 1.0;" width="357" x="162" y="136.2813"/><rect fill="#FFFFF0" filter="url(#f8w2bm7ji9rso)" height="35.0938" rx="12.5" ry="12.5" style="stroke: #6495ED; stroke-width: 1.5;" width="100" x="176" y="162.2813"/><text fill="#696969" font-family="sans-serif" font-size="12" lengthAdjust="spacingAndGlyphs" textLength="80" x="186" y="184.7383">turn on electric</text><rect fill="#FFFFF0" filter="url(#f8w2bm7ji9rso)" height="35.0938" rx="12.5" ry="12.5" style="stroke: #6495ED; stroke-width: 1.5;" width="82" x="304" y="162.2813"/><text fill="#696969" font-family="sans-serif" font-size="12" lengthAdjust="spacingAndGlyphs" textLength="62" x="314" y="184.7383">turn on gas</text><rect fill="#FFFFF0" filter="url(#f8w2bm7ji9rso)" height="35.0938" rx="12.5" ry="12.5" style="stroke: #6495ED; stroke-width: 1.5;" width="91" x="414" y="162.2813"/><text fill="#696969" font-family="sans-serif" font-size="12" lengthAdjust="spacingAndGlyphs" textLength="71" x="424" y="184.7383">turn on water</text><rect fill="#000000" filter="url(#f8w2bm7ji9rso)" height="6" rx="2.5" ry="2.5" style="stroke: #000000; stroke-width: 1.0;" width="357" x="162" y="217.375"/><rect fill="#FFFFF0" filter="url(#f8w2bm7ji9rso)" height="376.1133" style="stroke: #6495ED; stroke-width: 1.0;" width="633" x="24" y="234.3906"/><path d="M98,235.3906 L98,247.5156 L88,257.5156 L24,257.5156 " fill="none" style="stroke: #6495ED; stroke-width: 1.0;"/><text fill="#6495ED" font-family="sans-serif" font-size="16" lengthAdjust="spacingAndGlyphs" textLength="64" x="27" y="252">FreeStuff</text><rect fill="#000000" filter="url(#f8w2bm7ji9rso)" height="6" rx="2.5" ry="2.5" style="stroke: #000000; stroke-width: 1.0;" width="613" x="34" y="274.5156"/><rect fill="#FFFFF0" filter="url(#f8w2bm7ji9rso)" height="35.0938" rx="12.5" ry="12.5" style="stroke: #6495ED; stroke-width: 1.5;" width="195" x="48" y="314.3867"/><text fill="#696969" font-family="sans-serif" font-size="12" lengthAdjust="spacingAndGlyphs" textLength="175" x="58" y="336.8438">generate detailed scope of work</text><rect fill="#FFFFF0" filter="url(#f8w2bm7ji9rso)" height="35.0938" rx="12.5" ry="12.5" style="stroke: #6495ED; stroke-width: 1.5;" width="189" x="51" y="383.3516"/><text fill="#696969" font-family="sans-serif" font-size="12" lengthAdjust="spacingAndGlyphs" textLength="169" x="61" y="405.8086">general contractor 1 inspection</text><rect fill="#FFFFF0" filter="url(#f8w2bm7ji9rso)" height="35.0938" rx="12.5" ry="12.5" style="stroke: #6495ED; stroke-width: 1.5;" width="189" x="51" y="453.4453"/><text fill="#696969" font-family="sans-serif" font-size="12" lengthAdjust="spacingAndGlyphs" textLength="169" x="61" y="475.9023">general contractor 2 inspection</text><rect fill="#FFFFF0" filter="url(#f8w2bm7ji9rso)" height="35.0938" rx="12.5" ry="12.5" style="stroke: #6495ED; stroke-width: 1.5;" width="189" x="51" y="523.5391"/><text fill="#696969" font-family="sans-serif" font-size="12" lengthAdjust="spacingAndGlyphs" textLength="169" x="61" y="545.9961">general contractor 3 inspection</text><rect fill="#FFFFF0" filter="url(#f8w2bm7ji9rso)" height="35.0938" rx="12.5" ry="12.5" style="stroke: #6495ED; stroke-width: 1.5;" width="112" x="286" y="300.5156"/><text fill="#696969" font-family="sans-serif" font-size="12" lengthAdjust="spacingAndGlyphs" textLength="92" x="296" y="322.9727">roofer inspection</text><rect fill="#FFFFF0" filter="url(#f8w2bm7ji9rso)" height="35.0938" rx="12.5" ry="12.5" style="stroke: #6495ED; stroke-width: 1.5;" width="122" x="281" y="418.3984"/><text fill="#696969" font-family="sans-serif" font-size="12" lengthAdjust="spacingAndGlyphs" textLength="102" x="291" y="440.8555">roofer 2 inspection</text><rect fill="#FFFFF0" filter="url(#f8w2bm7ji9rso)" height="35.0938" rx="12.5" ry="12.5" style="stroke: #6495ED; stroke-width: 1.5;" width="122" x="281" y="488.4922"/><text fill="#696969" font-family="sans-serif" font-size="12" lengthAdjust="spacingAndGlyphs" textLength="102" x="291" y="510.9492">roofer 3 inspection</text><polygon fill="#FFFFF0" filter="url(#f8w2bm7ji9rso)" points="330,369.4805,354,369.4805,366,381.4805,354,393.4805,330,393.4805,318,381.4805,330,369.4805" style="stroke: #6495ED; stroke-width: 1.5;"/><text fill="#696969" font-family="sans-serif" font-size="11" lengthAdjust="spacingAndGlyphs" textLength="18" x="346" y="404.8994">yes</text><text fill="#A9A9A9" font-family="sans-serif" font-size="11" lengthAdjust="spacingAndGlyphs" textLength="18" x="333" y="385.9814">bad</text><polygon fill="#FFFFF0" filter="url(#f8w2bm7ji9rso)" points="342,548.5039,354,560.5039,342,572.5039,330,560.5039,342,548.5039" style="stroke: #6495ED; stroke-width: 1.5;"/><rect fill="#FFFFF0" filter="url(#f8w2bm7ji9rso)" height="35.0938" rx="12.5" ry="12.5" style="stroke: #6495ED; stroke-width: 1.5;" width="138" x="468" y="301.4336"/><text fill="#696969" font-family="sans-serif" font-size="12" lengthAdjust="spacingAndGlyphs" textLength="118" x="478" y="323.8906">foundation inspection</text><rect fill="#FFFFF0" filter="url(#f8w2bm7ji9rso)" height="35.0938" rx="12.5" ry="12.5" style="stroke: #6495ED; stroke-width: 1.5;" width="148" x="463" y="418.3984"/><text fill="#696969" font-family="sans-serif" font-size="12" lengthAdjust="spacingAndGlyphs" textLength="128" x="473" y="440.8555">foundation 2 inspection</text><rect fill="#FFFFF0" filter="url(#f8w2bm7ji9rso)" height="35.0938" rx="12.5" ry="12.5" style="stroke: #6495ED; stroke-width: 1.5;" width="148" x="463" y="488.4922"/><text fill="#696969" font-family="sans-serif" font-size="12" lengthAdjust="spacingAndGlyphs" textLength="128" x="473" y="510.9492">foundation 3 inspection</text><polygon fill="#FFFFF0" filter="url(#f8w2bm7ji9rso)" points="525,370.3984,549,370.3984,561,382.3984,549,394.3984,525,394.3984,513,382.3984,525,370.3984" style="stroke: #6495ED; stroke-width: 1.5;"/><text fill="#A9A9A9" font-family="sans-serif" font-size="11" lengthAdjust="spacingAndGlyphs" textLength="18" x="528" y="386.8994">bad</text><polygon fill="#FFFFF0" filter="url(#f8w2bm7ji9rso)" points="537,547.5859,549,559.5859,537,571.5859,525,559.5859,537,547.5859" style="stroke: #6495ED; stroke-width: 1.5;"/><rect fill="#000000" filter="url(#f8w2bm7ji9rso)" height="6" rx="2.5" ry="2.5" style="stroke: #000000; stroke-width: 1.0;" width="613" x="34" y="592.5039"/><path d="M440.5,626.6992 L440.5,644.0508 L420.5,648.0508 L440.5,652.0508 L440.5,669.4023 A0,0 0 0 0 440.5,669.4023 L598.5,669.4023 A0,0 0 0 0 598.5,669.4023 L598.5,636.6992 L588.5,626.6992 L440.5,626.6992 A0,0 0 0 0 440.5,626.6992 " fill="#B0C4DE" filter="url(#f8w2bm7ji9rso)" style="stroke: #6495ED; stroke-width: 1.0;"/><path d="M588.5,626.6992 L588.5,636.6992 L598.5,636.6992 L588.5,626.6992 " fill="#B0C4DE" style="stroke: #6495ED; stroke-width: 1.0;"/><text fill="#FFFFFF" font-family="sans-serif" font-size="13" lengthAdjust="spacingAndGlyphs" textLength="86" x="446.5" y="645.1943">what is failure?</text><text fill="#FFFFFF" font-family="sans-serif" font-size="13" lengthAdjust="spacingAndGlyphs" textLength="137" x="446.5" y="661.5459">what to do upon failure?</text><rect fill="#FFFFF0" filter="url(#f8w2bm7ji9rso)" height="35.0938" rx="12.5" ry="12.5" style="stroke: #6495ED; stroke-width: 1.5;" width="160" x="260.5" y="630.5039"/><text fill="#696969" font-family="sans-serif" font-size="12" lengthAdjust="spacingAndGlyphs" textLength="140" x="270.5" y="652.9609">plumber static test ($150)</text><path d="M448,685.5977 L448,702.9492 L428,706.9492 L448,710.9492 L448,728.3008 A0,0 0 0 0 448,728.3008 L606,728.3008 A0,0 0 0 0 606,728.3008 L606,695.5977 L596,685.5977 L448,685.5977 A0,0 0 0 0 448,685.5977 " fill="#B0C4DE" filter="url(#f8w2bm7ji9rso)" style="stroke: #6495ED; stroke-width: 1.0;"/><path d="M596,685.5977 L596,695.5977 L606,695.5977 L596,685.5977 " fill="#B0C4DE" style="stroke: #6495ED; stroke-width: 1.0;"/><text fill="#FFFFFF" font-family="sans-serif" font-size="13" lengthAdjust="spacingAndGlyphs" textLength="86" x="454" y="704.0928">what is failure?</text><text fill="#FFFFFF" font-family="sans-serif" font-size="13" lengthAdjust="spacingAndGlyphs" textLength="137" x="454" y="720.4443">what to do upon failure?</text><rect fill="#FFFFF0" filter="url(#f8w2bm7ji9rso)" height="35.0938" rx="12.5" ry="12.5" style="stroke: #6495ED; stroke-width: 1.5;" width="175" x="253" y="689.4023"/><text fill="#696969" font-family="sans-serif" font-size="12" lengthAdjust="spacingAndGlyphs" textLength="155" x="263" y="711.8594">termite inspection ($75-100)</text><path d="M415.5,744.4961 L415.5,761.8477 L395.5,765.8477 L415.5,769.8477 L415.5,787.1992 A0,0 0 0 0 415.5,787.1992 L573.5,787.1992 A0,0 0 0 0 573.5,787.1992 L573.5,754.4961 L563.5,744.4961 L415.5,744.4961 A0,0 0 0 0 415.5,744.4961 " fill="#B0C4DE" filter="url(#f8w2bm7ji9rso)" style="stroke: #6495ED; stroke-width: 1.0;"/><path d="M563.5,744.4961 L563.5,754.4961 L573.5,754.4961 L563.5,744.4961 " fill="#B0C4DE" style="stroke: #6495ED; stroke-width: 1.0;"/><text fill="#FFFFFF" font-family="sans-serif" font-size="13" lengthAdjust="spacingAndGlyphs" textLength="86" x="421.5" y="762.9912">what is failure?</text><text fill="#FFFFFF" font-family="sans-serif" font-size="13" lengthAdjust="spacingAndGlyphs" textLength="137" x="421.5" y="779.3428">what to do upon failure?</text><rect fill="#FFFFF0" filter="url(#f8w2bm7ji9rso)" height="35.0938" rx="12.5" ry="12.5" style="stroke: #6495ED; stroke-width: 1.5;" width="110" x="285.5" y="748.3008"/><text fill="#696969" font-family="sans-serif" font-size="12" lengthAdjust="spacingAndGlyphs" textLength="90" x="295.5" y="770.7578">inspector ($200)</text><polygon fill="#FFFFF0" filter="url(#f8w2bm7ji9rso)" points="687.5,428.7969,763.5,428.7969,773.5,446.3438,763.5,463.8906,687.5,463.8906" style="stroke: #6495ED; stroke-width: 1.5;"/><text fill="#696969" font-family="sans-serif" font-size="12" lengthAdjust="spacingAndGlyphs" textLength="56" x="697.5" y="451.2539">7-10 Days</text><rect fill="#FFB6C1" filter="url(#f8w2bm7ji9rso)" height="35.0938" rx="12.5" ry="12.5" style="stroke: #6495ED; stroke-width: 1.5;" width="81" x="685" y="498.8906"/><text fill="#696969" font-family="sans-serif" font-size="12" lengthAdjust="spacingAndGlyphs" textLength="61" x="695" y="521.3477">Time is out</text><rect fill="#000000" filter="url(#f8w2bm7ji9rso)" height="6" rx="2.5" ry="2.5" style="stroke: #000000; stroke-width: 1.0;" width="770" x="10" y="807.1992"/><path d="M477,823.1992 L477,858.7266 L457,862.7266 L477,866.7266 L477,902.2539 A0,0 0 0 0 477,902.2539 L619,902.2539 A0,0 0 0 0 619,902.2539 L619,833.1992 L609,823.1992 L477,823.1992 A0,0 0 0 0 477,823.1992 " fill="#B0C4DE" filter="url(#f8w2bm7ji9rso)" style="stroke: #6495ED; stroke-width: 1.0;"/><path d="M609,823.1992 L609,833.1992 L619,833.1992 L609,823.1992 " fill="#B0C4DE" style="stroke: #6495ED; stroke-width: 1.0;"/><text fill="#FFFFFF" font-family="sans-serif" font-size="13" lengthAdjust="spacingAndGlyphs" textLength="121" x="483" y="841.6943">San Antonio $15-25k</text><line style="stroke: #6495ED; stroke-width: 1.0;" x1="477" x2="619" y1="849.5508" y2="849.5508"/><line style="stroke: #6495ED; stroke-width: 1.0;" x1="477" x2="619" y1="851.5508" y2="851.5508"/><text fill="#FFFFFF" font-family="sans-serif" font-size="13" lengthAdjust="spacingAndGlyphs" textLength="66" x="483" y="868.0459">Houston $k</text><line style="stroke: #6495ED; stroke-width: 1.0;" x1="477" x2="619" y1="875.9023" y2="875.9023"/><line style="stroke: #6495ED; stroke-width: 1.0;" x1="477" x2="619" y1="877.9023" y2="877.9023"/><text fill="#FFFFFF" font-family="sans-serif" font-size="13" lengthAdjust="spacingAndGlyphs" textLength="62" x="483" y="894.3975">DFW $30k</text><rect fill="#FFFFF0" filter="url(#f8w2bm7ji9rso)" height="35.0938" rx="12.5" ry="12.5" style="stroke: #6495ED; stroke-width: 1.5;" width="124" x="333" y="845.1797"/><text fill="#696969" font-family="sans-serif" font-size="12" lengthAdjust="spacingAndGlyphs" textLength="104" x="343" y="867.6367">get final repair cost</text><path d="M425,919.0781 L425,928.2539 L405,932.2539 L425,936.2539 L425,945.4297 A0,0 0 0 0 425,945.4297 L491,945.4297 A0,0 0 0 0 491,945.4297 L491,929.0781 L481,919.0781 L425,919.0781 A0,0 0 0 0 425,919.0781 " fill="#B0C4DE" filter="url(#f8w2bm7ji9rso)" style="stroke: #6495ED; stroke-width: 1.0;"/><path d="M481,919.0781 L481,929.0781 L491,929.0781 L481,919.0781 " fill="#B0C4DE" style="stroke: #6495ED; stroke-width: 1.0;"/><text fill="#FFFFFF" font-family="sans-serif" font-size="13" lengthAdjust="spacingAndGlyphs" textLength="45" x="431" y="937.5732">analyse</text><ellipse cx="395" cy="932.2539" fill="#FFFFF0" filter="url(#f8w2bm7ji9rso)" rx="10" ry="10" style="stroke: #6495ED; stroke-width: 1.5;"/><path d="M391.5469,933.9883 L392.6094,933.8945 Q392.6875,934.5508 392.9688,934.957 Q393.25,935.3633 393.8359,935.6211 Q394.4219,935.8789 395.1563,935.8789 Q395.7969,935.8789 396.2969,935.6836 Q396.7969,935.4883 397.0391,935.1523 Q397.2813,934.8164 397.2813,934.4258 Q397.2813,934.0195 397.0469,933.7148 Q396.8125,933.4102 396.2813,933.207 Q395.9219,933.0664 394.7422,932.7852 Q393.5625,932.5039 393.0938,932.2539 Q392.4688,931.9258 392.1719,931.4492 Q391.875,930.9727 391.875,930.3789 Q391.875,929.7383 392.2422,929.168 Q392.6094,928.5977 393.3203,928.3086 Q394.0313,928.0195 394.8906,928.0195 Q395.8438,928.0195 396.5781,928.3242 Q397.3125,928.6289 397.7031,929.2305 Q398.0938,929.832 398.125,930.582 L397.0313,930.6602 Q396.9375,929.8477 396.4297,929.4336 Q395.9219,929.0195 394.9375,929.0195 Q393.9063,929.0195 393.4375,929.3945 Q392.9688,929.7695 392.9688,930.3008 Q392.9688,930.7695 393.2969,931.0664 Q393.625,931.3633 395.0078,931.6758 Q396.3906,931.9883 396.9063,932.2227 Q397.6563,932.582 398.0156,933.1055 Q398.375,933.6289 398.375,934.332 Q398.375,935.0195 397.9844,935.6211 Q397.5938,936.2227 396.8594,936.5586 Q396.125,936.8945 395.2031,936.8945 Q394.0313,936.8945 393.2422,936.5586 Q392.4531,936.2227 392.0078,935.5352 Q391.5625,934.8477 391.5469,933.9883 Z "/><line style="stroke: #696969; stroke-width: 1.5;" x1="226" x2="226" y1="142.2813" y2="162.2813"/><polygon fill="#696969" points="222,152.2813,226,162.2813,230,152.2813,226,156.2813" style="stroke: #696969; stroke-width: 1.0;"/><line style="stroke: #696969; stroke-width: 1.5;" x1="345" x2="345" y1="142.2813" y2="162.2813"/><polygon fill="#696969" points="341,152.2813,345,162.2813,349,152.2813,345,156.2813" style="stroke: #696969; stroke-width: 1.0;"/><line style="stroke: #696969; stroke-width: 1.5;" x1="459.5" x2="459.5" y1="142.2813" y2="162.2813"/><polygon fill="#696969" points="455.5,152.2813,459.5,162.2813,463.5,152.2813,459.5,156.2813" style="stroke: #696969; stroke-width: 1.0;"/><line style="stroke: #696969; stroke-width: 1.5;" x1="226" x2="226" y1="197.375" y2="217.375"/><polygon fill="#696969" points="222,207.375,226,217.375,230,207.375,226,211.375" style="stroke: #696969; stroke-width: 1.0;"/><line style="stroke: #696969; stroke-width: 1.5;" x1="345" x2="345" y1="197.375" y2="217.375"/><polygon fill="#696969" points="341,207.375,345,217.375,349,207.375,345,211.375" style="stroke: #696969; stroke-width: 1.0;"/><line style="stroke: #696969; stroke-width: 1.5;" x1="459.5" x2="459.5" y1="197.375" y2="217.375"/><polygon fill="#696969" points="455.5,207.375,459.5,217.375,463.5,207.375,459.5,211.375" style="stroke: #696969; stroke-width: 1.0;"/><line style="stroke: #696969; stroke-width: 1.5;" x1="145.5" x2="145.5" y1="349.4805" y2="383.3516"/><polygon fill="#696969" points="141.5,373.3516,145.5,383.3516,149.5,373.3516,145.5,377.3516" style="stroke: #696969; stroke-width: 1.0;"/><line style="stroke: #696969; stroke-width: 1.5;" x1="145.5" x2="145.5" y1="418.4453" y2="453.4453"/><polygon fill="#696969" points="141.5,443.4453,145.5,453.4453,149.5,443.4453,145.5,447.4453" style="stroke: #696969; stroke-width: 1.0;"/><line style="stroke: #696969; stroke-width: 1.5;" x1="145.5" x2="145.5" y1="488.5391" y2="523.5391"/><polygon fill="#696969" points="141.5,513.5391,145.5,523.5391,149.5,513.5391,145.5,517.5391" style="stroke: #696969; stroke-width: 1.0;"/><line style="stroke: #696969; stroke-width: 1.5;" x1="342" x2="342" y1="453.4922" y2="488.4922"/><polygon fill="#696969" points="338,478.4922,342,488.4922,346,478.4922,342,482.4922" style="stroke: #696969; stroke-width: 1.0;"/><line style="stroke: #696969; stroke-width: 1.5;" x1="342" x2="342" y1="393.4805" y2="418.3984"/><polygon fill="#696969" points="338,408.3984,342,418.3984,346,408.3984,342,412.3984" style="stroke: #696969; stroke-width: 1.0;"/><line style="stroke: #696969; stroke-width: 1.5;" x1="366" x2="413" y1="381.4805" y2="381.4805"/><polygon fill="#696969" points="409,460.9922,413,470.9922,417,460.9922,413,464.9922" style="stroke: #696969; stroke-width: 1.5;"/><line style="stroke: #696969; stroke-width: 1.5;" x1="413" x2="413" y1="381.4805" y2="560.5039"/><line style="stroke: #696969; stroke-width: 1.5;" x1="413" x2="354" y1="560.5039" y2="560.5039"/><polygon fill="#696969" points="364,556.5039,354,560.5039,364,564.5039,360,560.5039" style="stroke: #696969; stroke-width: 1.0;"/><line style="stroke: #696969; stroke-width: 1.5;" x1="342" x2="342" y1="523.5859" y2="548.5039"/><polygon fill="#696969" points="338,538.5039,342,548.5039,346,538.5039,342,542.5039" style="stroke: #696969; stroke-width: 1.0;"/><line style="stroke: #696969; stroke-width: 1.5;" x1="342" x2="342" y1="335.6094" y2="369.4805"/><polygon fill="#696969" points="338,359.4805,342,369.4805,346,359.4805,342,363.4805" style="stroke: #696969; stroke-width: 1.0;"/><line style="stroke: #696969; stroke-width: 1.5;" x1="537" x2="537" y1="453.4922" y2="488.4922"/><polygon fill="#696969" points="533,478.4922,537,488.4922,541,478.4922,537,482.4922" style="stroke: #696969; stroke-width: 1.0;"/><line style="stroke: #696969; stroke-width: 1.5;" x1="537" x2="537" y1="394.3984" y2="418.3984"/><polygon fill="#696969" points="533,408.3984,537,418.3984,541,408.3984,537,412.3984" style="stroke: #696969; stroke-width: 1.0;"/><line style="stroke: #696969; stroke-width: 1.5;" x1="561" x2="621" y1="382.3984" y2="382.3984"/><polygon fill="#696969" points="617,460.9922,621,470.9922,625,460.9922,621,464.9922" style="stroke: #696969; stroke-width: 1.5;"/><line style="stroke: #696969; stroke-width: 1.5;" x1="621" x2="621" y1="382.3984" y2="559.5859"/><line style="stroke: #696969; stroke-width: 1.5;" x1="621" x2="549" y1="559.5859" y2="559.5859"/><polygon fill="#696969" points="559,555.5859,549,559.5859,559,563.5859,555,559.5859" style="stroke: #696969; stroke-width: 1.0;"/><line style="stroke: #696969; stroke-width: 1.5;" x1="537" x2="537" y1="523.5859" y2="547.5859"/><polygon fill="#696969" points="533,537.5859,537,547.5859,541,537.5859,537,541.5859" style="stroke: #696969; stroke-width: 1.0;"/><line style="stroke: #696969; stroke-width: 1.5;" x1="537" x2="537" y1="336.5273" y2="370.3984"/><polygon fill="#696969" points="533,360.3984,537,370.3984,541,360.3984,537,364.3984" style="stroke: #696969; stroke-width: 1.0;"/><line style="stroke: #696969; stroke-width: 1.5;" x1="145.5" x2="145.5" y1="280.5156" y2="314.3867"/><polygon fill="#696969" points="141.5,304.3867,145.5,314.3867,149.5,304.3867,145.5,308.3867" style="stroke: #696969; stroke-width: 1.0;"/><line style="stroke: #696969; stroke-width: 1.5;" x1="342" x2="342" y1="280.5156" y2="300.5156"/><polygon fill="#696969" points="338,290.5156,342,300.5156,346,290.5156,342,294.5156" style="stroke: #696969; stroke-width: 1.0;"/><line style="stroke: #696969; stroke-width: 1.5;" x1="537" x2="537" y1="280.5156" y2="301.4336"/><polygon fill="#696969" points="533,291.4336,537,301.4336,541,291.4336,537,295.4336" style="stroke: #696969; stroke-width: 1.0;"/><line style="stroke: #696969; stroke-width: 1.5;" x1="145.5" x2="145.5" y1="558.6328" y2="592.5039"/><polygon fill="#696969" points="141.5,582.5039,145.5,592.5039,149.5,582.5039,145.5,586.5039" style="stroke: #696969; stroke-width: 1.0;"/><line style="stroke: #696969; stroke-width: 1.5;" x1="342" x2="342" y1="572.5039" y2="592.5039"/><polygon fill="#696969" points="338,582.5039,342,592.5039,346,582.5039,342,586.5039" style="stroke: #696969; stroke-width: 1.0;"/><line style="stroke: #696969; stroke-width: 1.5;" x1="537" x2="537" y1="571.5859" y2="592.5039"/><polygon fill="#696969" points="533,582.5039,537,592.5039,541,582.5039,537,586.5039" style="stroke: #696969; stroke-width: 1.0;"/><line style="stroke: #696969; stroke-width: 1.5;" x1="340.5" x2="340.5" y1="223.375" y2="274.5156"/><polygon fill="#696969" points="336.5,264.5156,340.5,274.5156,344.5,264.5156,340.5,268.5156" style="stroke: #696969; stroke-width: 1.0;"/><line style="stroke: #696969; stroke-width: 1.5;" x1="340.5" x2="340.5" y1="598.5039" y2="630.5039"/><polygon fill="#696969" points="336.5,620.5039,340.5,630.5039,344.5,620.5039,340.5,624.5039" style="stroke: #696969; stroke-width: 1.0;"/><line style="stroke: #696969; stroke-width: 1.5;" x1="340.5" x2="340.5" y1="665.5977" y2="689.4023"/><polygon fill="#696969" points="336.5,679.4023,340.5,689.4023,344.5,679.4023,340.5,683.4023" style="stroke: #696969; stroke-width: 1.0;"/><line style="stroke: #696969; stroke-width: 1.5;" x1="340.5" x2="340.5" y1="724.4961" y2="748.3008"/><polygon fill="#696969" points="336.5,738.3008,340.5,748.3008,344.5,738.3008,340.5,742.3008" style="stroke: #696969; stroke-width: 1.0;"/><line style="stroke: #696969; stroke-width: 1.5;" x1="725.5" x2="725.5" y1="463.8906" y2="498.8906"/><polygon fill="#696969" points="721.5,488.8906,725.5,498.8906,729.5,488.8906,725.5,492.8906" style="stroke: #696969; stroke-width: 1.0;"/><line style="stroke: #696969; stroke-width: 1.5;" x1="340.5" x2="340.5" y1="116.2813" y2="136.2813"/><polygon fill="#696969" points="336.5,126.2813,340.5,136.2813,344.5,126.2813,340.5,130.2813" style="stroke: #696969; stroke-width: 1.0;"/><line style="stroke: #696969; stroke-width: 1.5;" x1="725.5" x2="725.5" y1="116.2813" y2="428.7969"/><polygon fill="#696969" points="721.5,418.7969,725.5,428.7969,729.5,418.7969,725.5,422.7969" style="stroke: #696969; stroke-width: 1.0;"/><line style="stroke: #696969; stroke-width: 1.5;" x1="340.5" x2="340.5" y1="783.3945" y2="807.1992"/><polygon fill="#696969" points="336.5,797.1992,340.5,807.1992,344.5,797.1992,340.5,801.1992" style="stroke: #696969; stroke-width: 1.0;"/><line style="stroke: #696969; stroke-width: 1.5;" x1="725.5" x2="725.5" y1="533.9844" y2="807.1992"/><polygon fill="#696969" points="721.5,797.1992,725.5,807.1992,729.5,797.1992,725.5,801.1992" style="stroke: #696969; stroke-width: 1.0;"/><line style="stroke: #696969; stroke-width: 1.5;" x1="395" x2="395" y1="90.2813" y2="110.2813"/><polygon fill="#696969" points="391,100.2813,395,110.2813,399,100.2813,395,104.2813" style="stroke: #696969; stroke-width: 1.0;"/><line style="stroke: #696969; stroke-width: 1.5;" x1="395" x2="395" y1="813.1992" y2="845.1797"/><polygon fill="#696969" points="391,835.1797,395,845.1797,399,835.1797,395,839.1797" style="stroke: #696969; stroke-width: 1.0;"/><line style="stroke: #696969; stroke-width: 1.5;" x1="395" x2="395" y1="880.2734" y2="922.2539"/><polygon fill="#696969" points="391,912.2539,395,922.2539,399,912.2539,395,916.2539" style="stroke: #696969; stroke-width: 1.0;"/><text fill="#000080" font-family="sans-serif" font-size="14" lengthAdjust="spacingAndGlyphs" textLength="42" x="10" y="959.9629">©2019</text><a target="_top" xlink:actuate="onRequest" xlink:href="http://www.lifestylesunlimited.com" xlink:show="new" xlink:title="http://www.lifestylesunlimited.com" xlink:type="simple"><text fill="#0000FF" font-family="sans-serif" font-size="14" lengthAdjust="spacingAndGlyphs" text-decoration="underline" textLength="122" x="56" y="959.9629">LifeStyles Unlimited</text><line style="stroke: #0000FF; stroke-width: 1.0;" x1="56" x2="178" y1="961.9629" y2="961.9629"/></a><text fill="#000080" font-family="sans-serif" font-size="14" lengthAdjust="spacingAndGlyphs" textLength="281" x="182" y="959.9629">| Generated Mon Apr 22 08:25:52 CDT 2019</text><!--
@startuml due-diligence


skinparam {
  BorderColor Red
  PathHoverColor Blue
}

skinparam Title {
  FontColor Navy
  BackgroundColor PaleGoldenRod
  BorderColor Navy
  BorderRoundCorner 20
}

skinparam activity {
  BackgroundColor Ivory
  BorderColor CornflowerBlue
  FontColor DimGray
  

  Arrow {
    Color dimgray
    FontColor dimgray
  }

  Start {
    Color PHYSICAL
  }

  End {
    Color Coral
  }

  Diamond {
    BackgroundColor Ivory
    BorderColor CornflowerBlue
    FontColor DarkGray
  }

  BackgroundColor<< Exception >> Red
	BorderColor<< Exception >> White
}

skinparam Swimlane {
  BorderColor CornflowerBlue 
}

skinparam Partition {
  BackgroundColor Ivory
  BorderColor CornflowerBlue
  BorderThickness 1
  FontColor CornflowerBlue
  FontSize 16
  BorderRoundCorner 20
}

skinparam Note {
  BackgroundColor LightSteelBlue
  BorderColor CornflowerBlue
  FontColor White
}

skinparam Legend {
  BackgroundColor LightSteelBlue
  BorderColor CornflowerBlue
  FontColor White
}

skinparam Footer {
  FontColor Navy
}


left header 
	<font color=Navy size=18>[[../index.svg ⌂ Home]]</font>
endheader


	Title Due Diligence (Inspection)


	start

	fork 
		fork
			:turn on electric;
			fork again
			:turn on gas;
			fork again
			:turn on water;
		end fork
		partition FreeStuff {
			fork
				:generate detailed scope of work;
				:general contractor 1 inspection;
				:general contractor 2 inspection;
				:general contractor 3 inspection;
				fork again
				:roofer inspection;
				if (bad) then (yes)
					:roofer 2 inspection;
					:roofer 3 inspection;
				endif
				fork again
				:foundation inspection;
				if (bad)
					:foundation 2 inspection;
					:foundation 3 inspection;
				endif
			end fork
		}
		:plumber static test ($150);
		note right
			what is failure?
			what to do upon failure?
		end note
		:termite inspection ($75-100);
		note right
			what is failure?
			what to do upon failure?
		end note
		:inspector ($200);
		note right
			what is failure?
			what to do upon failure?
		end note
		fork again
			:7-10 Days>
			#LightPink:Time is out;
		
	end fork
	:get final repair cost;
	note right
		San Antonio $15-25k
		====
		Houston $k
		====
		DFW $30k
	end note
	(S)
	note right: analyse
	


left footer 
	<font size=14>©2019 [[http://www.lifestylesunlimited.com LifeStyles Unlimited]] | Generated Mon Apr 22 08:25:52 CDT 2019</font>
endfooter


@enduml

PlantUML version 1.2019.03(Sun Mar 10 06:04:44 CDT 2019)
(GPL source distribution)
Java Runtime: Java(TM) SE Runtime Environment
JVM: Java HotSpot(TM) 64-Bit Server VM
Java Version: 1.8.0_111-b14
Operating System: Windows 10
OS Version: 10.0
Default Encoding: Cp1252
Language: en
Country: US
--></g></svg>