<?xml version="1.0" encoding="UTF-8" standalone="no"?><svg xmlns="http://www.w3.org/2000/svg" xmlns:xlink="http://www.w3.org/1999/xlink" contentScriptType="application/ecmascript" contentStyleType="text/css" height="1305px" preserveAspectRatio="none" style="width:832px;height:1305px;" version="1.1" viewBox="0 0 832 1305" width="832px" zoomAndPan="magnify"><defs><style type="text/css"><![CDATA[path:hover { stroke: #0000FF !important;}]]></style><filter height="300%" id="f387u77pw2q14" width="300%" x="-1" y="-1"><feGaussianBlur result="blurOut" stdDeviation="2.0"/><feColorMatrix in="blurOut" result="blurOut2" type="matrix" values="0 0 0 0 0 0 0 0 0 0 0 0 0 0 0 0 0 0 .4 0"/><feOffset dx="4.0" dy="4.0" in="blurOut2" result="blurOut3"/><feBlend in="SourceGraphic" in2="blurOut3" mode="normal"/></filter></defs><g><a href="../index.svg?sanitize=true" target="_top" xlink:actuate="onRequest" xlink:show="new" xlink:title="../index.svg?sanitize=true" xlink:type="simple"><text fill="#0000FF" font-family="sans-serif" font-size="24" lengthAdjust="spacingAndGlyphs" text-decoration="underline" textLength="90" x="10" y="34.9141">⌂ Home</text></a><rect fill="#EEE8AA" height="70.375" rx="10" ry="10" style="stroke: #000080; stroke-width: 1.5;" width="166" x="331.75" y="42.1875"/><text fill="#000080" font-family="sans-serif" font-size="24" lengthAdjust="spacingAndGlyphs" textLength="150" x="339.75" y="72.1016">Due Diligence</text><text fill="#000080" font-family="sans-serif" font-size="24" lengthAdjust="spacingAndGlyphs" textLength="126" x="351.75" y="102.2891">(Inspection)</text><ellipse cx="426" cy="125.5625" fill="#CCFFCC" filter="url(#f387u77pw2q14)" rx="10" ry="10" style="stroke: none; stroke-width: 1.0;"/><rect fill="#000000" filter="url(#f387u77pw2q14)" height="6" rx="2.5" ry="2.5" style="stroke: #000000; stroke-width: 1.0;" width="807" x="10" y="155.5625"/><rect fill="#000000" filter="url(#f387u77pw2q14)" height="6" rx="2.5" ry="2.5" style="stroke: #000000; stroke-width: 1.0;" width="357" x="193" y="181.5625"/><rect fill="#FFFFF0" filter="url(#f387u77pw2q14)" height="35.0938" rx="12.5" ry="12.5" style="stroke: #6495ED; stroke-width: 1.0;" width="100" x="207" y="207.5625"/><text fill="#696969" font-family="sans-serif" font-size="12" lengthAdjust="spacingAndGlyphs" textLength="80" x="217" y="230.0195">turn on electric</text><rect fill="#FFFFF0" filter="url(#f387u77pw2q14)" height="35.0938" rx="12.5" ry="12.5" style="stroke: #6495ED; stroke-width: 1.0;" width="82" x="335" y="207.5625"/><text fill="#696969" font-family="sans-serif" font-size="12" lengthAdjust="spacingAndGlyphs" textLength="62" x="345" y="230.0195">turn on gas</text><rect fill="#FFFFF0" filter="url(#f387u77pw2q14)" height="35.0938" rx="12.5" ry="12.5" style="stroke: #6495ED; stroke-width: 1.0;" width="91" x="445" y="207.5625"/><text fill="#696969" font-family="sans-serif" font-size="12" lengthAdjust="spacingAndGlyphs" textLength="71" x="455" y="230.0195">turn on water</text><rect fill="#000000" filter="url(#f387u77pw2q14)" height="6" rx="2.5" ry="2.5" style="stroke: #000000; stroke-width: 1.0;" width="357" x="193" y="262.6563"/><rect fill="#FFFFF0" filter="url(#f387u77pw2q14)" height="431.3984" style="stroke: #6495ED; stroke-width: 1.0;" width="690" x="22" y="279.6719"/><path d="M148,280.6719 L148,292.7969 L138,302.7969 L22,302.7969 " fill="none" style="stroke: #6495ED; stroke-width: 1.0;"/><text fill="#6495ED" font-family="sans-serif" font-size="16" lengthAdjust="spacingAndGlyphs" textLength="116" x="25" y="297.2813">Cost-Free Steps</text><rect fill="#000000" filter="url(#f387u77pw2q14)" height="6" rx="2.5" ry="2.5" style="stroke: #000000; stroke-width: 1.0;" width="670" x="32" y="319.7969"/><path d="M215,341.9922 L215,359.3438 L195,363.3438 L215,367.3438 L215,384.6953 A0,0 0 0 0 215,384.6953 L307,384.6953 A0,0 0 0 0 307,384.6953 L307,351.9922 L297,341.9922 L215,341.9922 A0,0 0 0 0 215,341.9922 " fill="#B0C4DE" filter="url(#f387u77pw2q14)" style="stroke: #6495ED; stroke-width: 1.0;"/><path d="M297,341.9922 L297,351.9922 L307,351.9922 L297,341.9922 " fill="#B0C4DE" style="stroke: #6495ED; stroke-width: 1.0;"/><text fill="#FFFFFF" font-family="sans-serif" font-size="13" lengthAdjust="spacingAndGlyphs" textLength="50" x="221" y="360.4873">see form</text><text fill="#FFFFFF" font-family="sans-serif" font-size="13" lengthAdjust="spacingAndGlyphs" textLength="71" x="221" y="376.8389">very specific</text><rect fill="#FFFFF0" filter="url(#f387u77pw2q14)" height="35.0938" style="stroke: #6495ED; stroke-width: 1.0;" width="109" x="86" y="345.7969"/><path d="M102,360.8906 L102,362.8906 L97,362.8906 L97,364.8906 L102,364.8906 L102,366.8906 L105,363.8596 L102,360.8906 " fill="#696969" style="stroke: ; stroke-width: 0.0; stroke-dasharray: ;"/><text fill="#696969" font-family="sans-serif" font-size="12" lengthAdjust="spacingAndGlyphs" textLength="76" x="109" y="368.2539">scope of work</text><rect fill="#FFFFF0" filter="url(#f387u77pw2q14)" height="35.0938" rx="12.5" ry="12.5" style="stroke: #6495ED; stroke-width: 1.0;" width="189" x="46" y="419.6953"/><text fill="#696969" font-family="sans-serif" font-size="12" lengthAdjust="spacingAndGlyphs" textLength="169" x="56" y="442.1523">general contractor 1 inspection</text><rect fill="#FFFFF0" filter="url(#f387u77pw2q14)" height="35.0938" style="stroke: #6495ED; stroke-width: 1.0;" width="113" x="84" y="489.7891"/><path d="M98,504.8828 L95,507.9138 L98,510.8828 L98,508.8828 L103,508.8828 L103,506.8828 L98,506.8828 L98,504.8828 " fill="#696969" style="stroke: ; stroke-width: 0.0; stroke-dasharray: ;"/><text fill="#696969" font-family="sans-serif" font-size="12" lengthAdjust="spacingAndGlyphs" textLength="80" x="107" y="512.2461">client estimate</text><rect fill="#FFFFF0" filter="url(#f387u77pw2q14)" height="35.0938" rx="12.5" ry="12.5" style="stroke: #6495ED; stroke-width: 1.0;" width="189" x="46" y="559.8828"/><text fill="#696969" font-family="sans-serif" font-size="12" lengthAdjust="spacingAndGlyphs" textLength="169" x="56" y="582.3398">general contractor 2 inspection</text><rect fill="#FFFFF0" filter="url(#f387u77pw2q14)" height="35.0938" rx="12.5" ry="12.5" style="stroke: #6495ED; stroke-width: 1.0;" width="189" x="46" y="629.9766"/><text fill="#696969" font-family="sans-serif" font-size="12" lengthAdjust="spacingAndGlyphs" textLength="169" x="56" y="652.4336">general contractor 3 inspection</text><rect fill="#FFFFF0" filter="url(#f387u77pw2q14)" height="35.0938" rx="12.5" ry="12.5" style="stroke: #6495ED; stroke-width: 1.0;" width="112" x="350" y="366.9727"/><text fill="#696969" font-family="sans-serif" font-size="12" lengthAdjust="spacingAndGlyphs" textLength="92" x="360" y="389.4297">roofer inspection</text><rect fill="#FFFFF0" filter="url(#f387u77pw2q14)" height="35.0938" rx="12.5" ry="12.5" style="stroke: #6495ED; stroke-width: 1.0;" width="122" x="345" y="485.9844"/><text fill="#696969" font-family="sans-serif" font-size="12" lengthAdjust="spacingAndGlyphs" textLength="102" x="355" y="508.4414">roofer 2 inspection</text><rect fill="#FFFFF0" filter="url(#f387u77pw2q14)" height="35.0938" rx="12.5" ry="12.5" style="stroke: #6495ED; stroke-width: 1.0;" width="122" x="345" y="556.0781"/><text fill="#696969" font-family="sans-serif" font-size="12" lengthAdjust="spacingAndGlyphs" textLength="102" x="355" y="578.5352">roofer 3 inspection</text><polygon fill="#FFFFF0" filter="url(#f387u77pw2q14)" points="394,437.0664,418,437.0664,430,449.0664,418,461.0664,394,461.0664,382,449.0664,394,437.0664" style="stroke: #6495ED; stroke-width: 1.0;"/><text fill="#696969" font-family="sans-serif" font-size="11" lengthAdjust="spacingAndGlyphs" textLength="18" x="410" y="472.4854">yes</text><text fill="#A9A9A9" font-family="sans-serif" font-size="11" lengthAdjust="spacingAndGlyphs" textLength="18" x="397" y="453.5674">bad</text><polygon fill="#FFFFF0" filter="url(#f387u77pw2q14)" points="406,616.0898,418,628.0898,406,640.0898,394,628.0898,406,616.0898" style="stroke: #6495ED; stroke-width: 1.0;"/><rect fill="#FFFFF0" filter="url(#f387u77pw2q14)" height="35.0938" rx="12.5" ry="12.5" style="stroke: #6495ED; stroke-width: 1.0;" width="138" x="532" y="367.8906"/><text fill="#696969" font-family="sans-serif" font-size="12" lengthAdjust="spacingAndGlyphs" textLength="118" x="542" y="390.3477">foundation inspection</text><rect fill="#FFFFF0" filter="url(#f387u77pw2q14)" height="35.0938" rx="12.5" ry="12.5" style="stroke: #6495ED; stroke-width: 1.0;" width="148" x="527" y="485.9844"/><text fill="#696969" font-family="sans-serif" font-size="12" lengthAdjust="spacingAndGlyphs" textLength="128" x="537" y="508.4414">foundation 2 inspection</text><rect fill="#FFFFF0" filter="url(#f387u77pw2q14)" height="35.0938" rx="12.5" ry="12.5" style="stroke: #6495ED; stroke-width: 1.0;" width="148" x="527" y="556.0781"/><text fill="#696969" font-family="sans-serif" font-size="12" lengthAdjust="spacingAndGlyphs" textLength="128" x="537" y="578.5352">foundation 3 inspection</text><polygon fill="#FFFFF0" filter="url(#f387u77pw2q14)" points="589,437.9844,613,437.9844,625,449.9844,613,461.9844,589,461.9844,577,449.9844,589,437.9844" style="stroke: #6495ED; stroke-width: 1.0;"/><text fill="#A9A9A9" font-family="sans-serif" font-size="11" lengthAdjust="spacingAndGlyphs" textLength="18" x="592" y="454.4854">bad</text><polygon fill="#FFFFF0" filter="url(#f387u77pw2q14)" points="601,615.1719,613,627.1719,601,639.1719,589,627.1719,601,615.1719" style="stroke: #6495ED; stroke-width: 1.0;"/><rect fill="#000000" filter="url(#f387u77pw2q14)" height="6" rx="2.5" ry="2.5" style="stroke: #000000; stroke-width: 1.0;" width="670" x="32" y="685.0703"/><polygon fill="#FFFFF0" filter="url(#f387u77pw2q14)" points="337.5,731.0703,405.5,731.0703,417.5,743.0703,405.5,755.0703,337.5,755.0703,325.5,743.0703,337.5,731.0703" style="stroke: #6495ED; stroke-width: 1.0;"/><text fill="#A9A9A9" font-family="sans-serif" font-size="11" lengthAdjust="spacingAndGlyphs" textLength="68" x="337.5" y="747.5713">too expensive</text><ellipse cx="450.5" cy="743.0703" fill="#FFFFFF" filter="url(#f387u77pw2q14)" rx="11" ry="11" style="stroke: #FF7F50; stroke-width: 1.0;"/><ellipse cx="450.5" cy="743.0703" fill="#FF7F50" rx="6" ry="6" style="stroke: #FFBFA7; stroke-width: 1.0;"/><path d="M483,765.0703 L483,803.7734 L463,807.7734 L483,811.7734 L483,850.4766 A0,0 0 0 0 483,850.4766 L654,850.4766 A0,0 0 0 0 654,850.4766 L654,775.0703 L644,765.0703 L483,765.0703 A0,0 0 0 0 483,765.0703 " fill="#B0C4DE" filter="url(#f387u77pw2q14)" style="stroke: #6495ED; stroke-width: 1.0;"/><path d="M644,765.0703 L644,775.0703 L654,775.0703 L644,765.0703 " fill="#B0C4DE" style="stroke: #6495ED; stroke-width: 1.0;"/><text fill="#FFFFFF" font-family="sans-serif" font-size="13" lengthAdjust="spacingAndGlyphs" textLength="80" x="489" y="783.5654">leakdown test</text><text fill="#FFFFFF" font-family="sans-serif" font-size="13" lengthAdjust="spacingAndGlyphs" textLength="75" x="489" y="799.917">uses camera</text><line style="stroke: #6495ED; stroke-width: 1.0;" x1="483" x2="654" y1="807.7734" y2="807.7734"/><ellipse cx="494.5" cy="821.625" fill="#FFFFFF" rx="2.5" ry="2.5" style="stroke: #FFFFFF; stroke-width: 0.0;"/><text fill="#FFFFFF" font-family="sans-serif" font-size="13" lengthAdjust="spacingAndGlyphs" textLength="86" x="502" y="826.2686">what is failure?</text><ellipse cx="494.5" cy="837.9766" fill="#FFFFFF" rx="2.5" ry="2.5" style="stroke: #FFFFFF; stroke-width: 0.0;"/><text fill="#FFFFFF" font-family="sans-serif" font-size="13" lengthAdjust="spacingAndGlyphs" textLength="137" x="502" y="842.6201">what to do upon failure?</text><rect fill="#CCFFCC" filter="url(#f387u77pw2q14)" height="35.0938" rx="12.5" ry="12.5" style="stroke: #6495ED; stroke-width: 1.0;" width="183" x="280" y="790.2266"/><path d="M294,804.3203 L294,805.3203 L293.25,805.3203 C292.564,805.3203 292,805.8843 292,806.5703 L292,807.0703 C292,807.7483 292.437,808.3123 293.094,808.4763 L295.657,809.1323 C295.8,809.1683 296.001,809.4283 296.001,809.5703 L296.001,810.0703 C296.001,810.2043 295.885,810.3203 295.751,810.3203 L293.251,810.3203 C293.135,810.3203 293.039,810.2833 293.001,810.2573 L293.001,809.3193 L292.001,809.3193 L292.001,810.3193 C292.001,810.6613 292.204,810.9463 292.439,811.1003 C292.673,811.2553 292.957,811.3193 293.252,811.3193 L294.002,811.3193 L294.002,812.3193 L295.002,812.3193 L295.002,811.3193 L295.752,811.3193 C296.438,811.3193 297.002,810.7553 297.002,810.0693 L297.002,809.5693 C297.002,808.8913 296.565,808.3273 295.908,808.1633 L293.345,807.5073 C293.202,807.4713 293.001,807.2113 293.001,807.0693 L293.001,806.5693 C293.001,806.4353 293.117,806.3193 293.251,806.3193 L295.751,806.3193 C295.867,806.3193 295.963,806.3563 296.001,806.3823 L296.001,807.3203 L297.001,807.3203 L297.001,806.3203 C297.001,805.9783 296.798,805.6933 296.563,805.5393 C296.329,805.3843 296.045,805.3203 295.75,805.3203 L295,805.3203 L295,804.3203 L294,804.3203 " fill="#696969" style="stroke: ; stroke-width: 0.0; stroke-dasharray: ;"/><text fill="#696969" font-family="sans-serif" font-size="12" lengthAdjust="spacingAndGlyphs" textLength="150" x="303" y="812.6836">plumber static test 150-200</text><path d="M469,866.6719 L469,884.0234 L449,888.0234 L469,892.0234 L469,909.375 A0,0 0 0 0 469,909.375 L640,909.375 A0,0 0 0 0 640,909.375 L640,876.6719 L630,866.6719 L469,866.6719 A0,0 0 0 0 469,866.6719 " fill="#B0C4DE" filter="url(#f387u77pw2q14)" style="stroke: #6495ED; stroke-width: 1.0;"/><path d="M630,866.6719 L630,876.6719 L640,876.6719 L630,866.6719 " fill="#B0C4DE" style="stroke: #6495ED; stroke-width: 1.0;"/><ellipse cx="480.5" cy="880.5234" fill="#FFFFFF" rx="2.5" ry="2.5" style="stroke: #FFFFFF; stroke-width: 0.0;"/><text fill="#FFFFFF" font-family="sans-serif" font-size="13" lengthAdjust="spacingAndGlyphs" textLength="86" x="488" y="885.167">what is failure?</text><ellipse cx="480.5" cy="896.875" fill="#FFFFFF" rx="2.5" ry="2.5" style="stroke: #FFFFFF; stroke-width: 0.0;"/><text fill="#FFFFFF" font-family="sans-serif" font-size="13" lengthAdjust="spacingAndGlyphs" textLength="137" x="488" y="901.5186">what to do upon failure?</text><rect fill="#CCFFCC" filter="url(#f387u77pw2q14)" height="35.0938" rx="12.5" ry="12.5" style="stroke: #6495ED; stroke-width: 1.0;" width="155" x="294" y="870.4766"/><path d="M308,884.5703 L308,885.5703 L307.25,885.5703 C306.564,885.5703 306,886.1343 306,886.8203 L306,887.3203 C306,887.9983 306.437,888.5623 307.094,888.7263 L309.657,889.3823 C309.8,889.4183 310.001,889.6783 310.001,889.8203 L310.001,890.3203 C310.001,890.4543 309.885,890.5703 309.751,890.5703 L307.251,890.5703 C307.135,890.5703 307.039,890.5333 307.001,890.5073 L307.001,889.5693 L306.001,889.5693 L306.001,890.5693 C306.001,890.9113 306.204,891.1963 306.439,891.3503 C306.673,891.5053 306.957,891.5693 307.252,891.5693 L308.002,891.5693 L308.002,892.5693 L309.002,892.5693 L309.002,891.5693 L309.752,891.5693 C310.438,891.5693 311.002,891.0053 311.002,890.3193 L311.002,889.8193 C311.002,889.1413 310.565,888.5773 309.908,888.4133 L307.345,887.7573 C307.202,887.7213 307.001,887.4613 307.001,887.3193 L307.001,886.8193 C307.001,886.6853 307.117,886.5693 307.251,886.5693 L309.751,886.5693 C309.867,886.5693 309.963,886.6063 310.001,886.6323 L310.001,887.5703 L311.001,887.5703 L311.001,886.5703 C311.001,886.2283 310.798,885.9433 310.563,885.7893 C310.329,885.6343 310.045,885.5703 309.75,885.5703 L309,885.5703 L309,884.5703 L308,884.5703 " fill="#696969" style="stroke: ; stroke-width: 0.0; stroke-dasharray: ;"/><text fill="#696969" font-family="sans-serif" font-size="12" lengthAdjust="spacingAndGlyphs" textLength="122" x="317" y="892.9336">termite inspection 300</text><path d="M445.5,919.375 L445.5,966.2539 L425.5,970.2539 L445.5,974.2539 L445.5,1021.1328 A0,0 0 0 0 445.5,1021.1328 L659.5,1021.1328 A0,0 0 0 0 659.5,1021.1328 L659.5,929.375 L649.5,919.375 L445.5,919.375 A0,0 0 0 0 445.5,919.375 " fill="#B0C4DE" filter="url(#f387u77pw2q14)" style="stroke: #6495ED; stroke-width: 1.0;"/><path d="M649.5,919.375 L649.5,929.375 L659.5,929.375 L649.5,919.375 " fill="#B0C4DE" style="stroke: #6495ED; stroke-width: 1.0;"/><text fill="#FFFFFF" font-family="sans-serif" font-size="13" lengthAdjust="spacingAndGlyphs" textLength="106" x="451.5" y="937.8701">gives work needed</text><text fill="#FFFFFF" font-family="sans-serif" font-size="13" lengthAdjust="spacingAndGlyphs" textLength="171" x="451.5" y="954.2217">to bring up to this year's code</text><text fill="#FFFFFF" font-family="sans-serif" font-size="13" lengthAdjust="spacingAndGlyphs" textLength="193" x="451.5" y="970.5732">some things are grand-fathered in</text><line style="stroke: #6495ED; stroke-width: 1.0;" x1="445.5" x2="659.5" y1="978.4297" y2="978.4297"/><ellipse cx="457" cy="992.2813" fill="#FFFFFF" rx="2.5" ry="2.5" style="stroke: #FFFFFF; stroke-width: 0.0;"/><text fill="#FFFFFF" font-family="sans-serif" font-size="13" lengthAdjust="spacingAndGlyphs" textLength="86" x="464.5" y="996.9248">what is failure?</text><ellipse cx="457" cy="1008.6328" fill="#FFFFFF" rx="2.5" ry="2.5" style="stroke: #FFFFFF; stroke-width: 0.0;"/><text fill="#FFFFFF" font-family="sans-serif" font-size="13" lengthAdjust="spacingAndGlyphs" textLength="137" x="464.5" y="1013.2764">what to do upon failure?</text><rect fill="#CCFFCC" filter="url(#f387u77pw2q14)" height="35.0938" rx="12.5" ry="12.5" style="stroke: #6495ED; stroke-width: 1.0;" width="108" x="317.5" y="952.707"/><path d="M331.5,966.8008 L331.5,967.8008 L330.75,967.8008 C330.064,967.8008 329.5,968.3648 329.5,969.0508 L329.5,969.5508 C329.5,970.2288 329.937,970.7928 330.594,970.9568 L333.157,971.6128 C333.3,971.6488 333.501,971.9088 333.501,972.0508 L333.501,972.5508 C333.501,972.6848 333.385,972.8008 333.251,972.8008 L330.751,972.8008 C330.635,972.8008 330.539,972.7638 330.501,972.7378 L330.501,971.7998 L329.501,971.7998 L329.501,972.7998 C329.501,973.1418 329.704,973.4268 329.939,973.5808 C330.173,973.7358 330.457,973.7998 330.752,973.7998 L331.502,973.7998 L331.502,974.7998 L332.502,974.7998 L332.502,973.7998 L333.252,973.7998 C333.938,973.7998 334.502,973.2358 334.502,972.5498 L334.502,972.0498 C334.502,971.3718 334.065,970.8078 333.408,970.6438 L330.845,969.9878 C330.702,969.9518 330.501,969.6918 330.501,969.5498 L330.501,969.0498 C330.501,968.9158 330.617,968.7998 330.751,968.7998 L333.251,968.7998 C333.367,968.7998 333.463,968.8368 333.501,968.8628 L333.501,969.8008 L334.501,969.8008 L334.501,968.8008 C334.501,968.4588 334.298,968.1738 334.063,968.0198 C333.829,967.8648 333.545,967.8008 333.25,967.8008 L332.5,967.8008 L332.5,966.8008 L331.5,966.8008 " fill="#696969" style="stroke: ; stroke-width: 0.0; stroke-dasharray: ;"/><text fill="#696969" font-family="sans-serif" font-size="12" lengthAdjust="spacingAndGlyphs" textLength="75" x="340.5" y="975.1641">inspector 200</text><polygon fill="#FFFFF0" filter="url(#f387u77pw2q14)" points="724.5,600.7617,800.5,600.7617,810.5,618.3086,800.5,635.8555,724.5,635.8555" style="stroke: #6495ED; stroke-width: 1.0;"/><text fill="#696969" font-family="sans-serif" font-size="12" lengthAdjust="spacingAndGlyphs" textLength="56" x="734.5" y="623.2188">7-10 Days</text><rect fill="#FFB6C1" filter="url(#f387u77pw2q14)" height="35.0938" rx="12.5" ry="12.5" style="stroke: #6495ED; stroke-width: 1.0;" width="81" x="722" y="670.8555"/><text fill="#696969" font-family="sans-serif" font-size="12" lengthAdjust="spacingAndGlyphs" textLength="61" x="732" y="693.3125">Time is out</text><rect fill="#000000" filter="url(#f387u77pw2q14)" height="6" rx="2.5" ry="2.5" style="stroke: #000000; stroke-width: 1.0;" width="807" x="10" y="1041.1328"/><path d="M179,1067.3086 L179,1142.7148 L354,1142.7148 L354,1077.3086 L344,1067.3086 L179,1067.3086 " fill="#B0C4DE" filter="url(#f387u77pw2q14)" style="stroke: #6495ED; stroke-width: 1.0;"/><path d="M344,1067.3086 L344,1077.3086 L354,1077.3086 L344,1067.3086 " fill="#B0C4DE" style="stroke: #6495ED; stroke-width: 1.0;"/><text fill="#FFFFFF" font-family="sans-serif" font-size="13" lengthAdjust="spacingAndGlyphs" textLength="103" x="185" y="1085.8037">that's ~ 10 people</text><text fill="#FFFFFF" font-family="sans-serif" font-size="13" lengthAdjust="spacingAndGlyphs" textLength="144" x="185" y="1102.1553">the realtor needs to let in</text><text fill="#FFFFFF" font-family="sans-serif" font-size="13" lengthAdjust="spacingAndGlyphs" textLength="85" x="185" y="1118.5068">too much work</text><text fill="#FFFFFF" font-family="sans-serif" font-size="13" lengthAdjust="spacingAndGlyphs" textLength="154" x="185" y="1134.8584">they will quit after this deal</text><path d="M498,1057.1328 L498,1152.8906 L690,1152.8906 L690,1067.1328 L680,1057.1328 L498,1057.1328 " fill="#B0C4DE" filter="url(#f387u77pw2q14)" style="stroke: #6495ED; stroke-width: 1.0;"/><path d="M680,1057.1328 L680,1067.1328 L690,1067.1328 L680,1057.1328 " fill="#B0C4DE" style="stroke: #6495ED; stroke-width: 1.0;"/><text fill="#FFFFFF" font-family="sans-serif" font-size="13" font-weight="bold" lengthAdjust="spacingAndGlyphs" textLength="24" x="508" y="1077.6279">City</text><text fill="#FFFFFF" font-family="sans-serif" font-size="13" font-weight="bold" lengthAdjust="spacingAndGlyphs" textLength="48" x="587" y="1077.6279">Repairs</text><text fill="#FFFFFF" font-family="sans-serif" font-size="13" lengthAdjust="spacingAndGlyphs" textLength="71" x="508" y="1093.9795">San Antonio</text><text fill="#FFFFFF" font-family="sans-serif" font-size="13" lengthAdjust="spacingAndGlyphs" textLength="46" x="587" y="1093.9795">$15-25k</text><text fill="#FFFFFF" font-family="sans-serif" font-size="13" lengthAdjust="spacingAndGlyphs" textLength="48" x="508" y="1110.3311">Houston</text><text fill="#FFFFFF" font-family="sans-serif" font-size="13" lengthAdjust="spacingAndGlyphs" textLength="14" x="587" y="1110.3311">$k</text><text fill="#FFFFFF" font-family="sans-serif" font-size="13" lengthAdjust="spacingAndGlyphs" textLength="30" x="508" y="1126.6826">DFW</text><text fill="#FFFFFF" font-family="sans-serif" font-size="13" lengthAdjust="spacingAndGlyphs" textLength="28" x="587" y="1126.6826">$30k</text><line style="stroke: #FFFFFF; stroke-width: 1.0;" x1="504" x2="639" y1="1064.1328" y2="1064.1328"/><line style="stroke: #FFFFFF; stroke-width: 1.0;" x1="504" x2="639" y1="1080.4844" y2="1080.4844"/><line style="stroke: #FFFFFF; stroke-width: 1.0;" x1="504" x2="639" y1="1096.8359" y2="1096.8359"/><line style="stroke: #FFFFFF; stroke-width: 1.0;" x1="504" x2="639" y1="1113.1875" y2="1113.1875"/><line style="stroke: #FFFFFF; stroke-width: 1.0;" x1="504" x2="639" y1="1129.5391" y2="1129.5391"/><line style="stroke: #FFFFFF; stroke-width: 1.0;" x1="504" x2="504" y1="1064.1328" y2="1129.5391"/><line style="stroke: #FFFFFF; stroke-width: 1.0;" x1="583" x2="583" y1="1064.1328" y2="1129.5391"/><line style="stroke: #FFFFFF; stroke-width: 1.0;" x1="639" x2="639" y1="1064.1328" y2="1129.5391"/><text fill="#FFFFFF" font-family="sans-serif" font-size="13" lengthAdjust="spacingAndGlyphs" textLength="171" x="504" y="1145.0342">Is this correct or is this all in?</text><rect fill="#FFFFF0" filter="url(#f387u77pw2q14)" height="35.0938" rx="12.5" ry="12.5" style="stroke: #6495ED; stroke-width: 1.0;" width="124" x="364" y="1087.4648"/><text fill="#696969" font-family="sans-serif" font-size="12" lengthAdjust="spacingAndGlyphs" textLength="104" x="374" y="1109.9219">get final repair cost</text><path d="M521,1177.2617 L521,1186.4375 L501,1190.4375 L521,1194.4375 L521,1203.6133 A0,0 0 0 0 521,1203.6133 L619,1203.6133 A0,0 0 0 0 619,1203.6133 L619,1187.2617 L609,1177.2617 L521,1177.2617 A0,0 0 0 0 521,1177.2617 " fill="#B0C4DE" filter="url(#f387u77pw2q14)" style="stroke: #6495ED; stroke-width: 1.0;"/><path d="M609,1177.2617 L609,1187.2617 L619,1187.2617 L609,1177.2617 " fill="#B0C4DE" style="stroke: #6495ED; stroke-width: 1.0;"/><text fill="#FFFFFF" font-family="sans-serif" font-size="13" lengthAdjust="spacingAndGlyphs" textLength="77" x="527" y="1195.7568">holding costs</text><rect fill="#FFFFF0" filter="url(#f387u77pw2q14)" height="35.0938" rx="12.5" ry="12.5" style="stroke: #6495ED; stroke-width: 1.0;" width="150" x="351" y="1172.8906"/><text fill="#696969" font-family="sans-serif" font-size="12" lengthAdjust="spacingAndGlyphs" textLength="130" x="361" y="1195.3477">get repair time estimate</text><path d="M479,1217.9844 L479,1243.5117 L459,1247.5117 L479,1251.5117 L479,1277.0391 A0,0 0 0 0 479,1277.0391 L610,1277.0391 A0,0 0 0 0 610,1277.0391 L610,1227.9844 L600,1217.9844 L479,1217.9844 A0,0 0 0 0 479,1217.9844 " fill="#B0C4DE" filter="url(#f387u77pw2q14)" style="stroke: #6495ED; stroke-width: 1.0;"/><path d="M600,1217.9844 L600,1227.9844 L610,1227.9844 L600,1217.9844 " fill="#B0C4DE" style="stroke: #6495ED; stroke-width: 1.0;"/><text fill="#FFFFFF" font-family="sans-serif" font-size="13" lengthAdjust="spacingAndGlyphs" textLength="58" x="485" y="1236.4795">analyse &amp;</text><text fill="#FFFFFF" font-family="sans-serif" font-size="13" lengthAdjust="spacingAndGlyphs" textLength="87" x="485" y="1252.8311">make new offer</text><text fill="#FFFFFF" font-family="sans-serif" font-size="13" lengthAdjust="spacingAndGlyphs" textLength="110" x="485" y="1269.1826">based on damages</text><a href="evaluating.svg?sanitize=true" target="_top" xlink:actuate="onRequest" xlink:show="new" xlink:title="evaluating.svg?sanitize=true" xlink:type="simple"><rect fill="#87CEFA" filter="url(#f387u77pw2q14)" height="35.0938" rx="12.5" ry="12.5" style="stroke: #6495ED; stroke-width: 1.0;" width="66" x="393" y="1229.9648"/><text fill="#696969" font-family="sans-serif" font-size="12" lengthAdjust="spacingAndGlyphs" textLength="46" x="403" y="1252.4219">evaluate</text></a><line style="stroke: #696969; stroke-width: 1.5;" x1="257" x2="257" y1="187.5625" y2="207.5625"/><polygon fill="#696969" points="253,197.5625,257,207.5625,261,197.5625,257,201.5625" style="stroke: #696969; stroke-width: 1.0;"/><line style="stroke: #696969; stroke-width: 1.5;" x1="376" x2="376" y1="187.5625" y2="207.5625"/><polygon fill="#696969" points="372,197.5625,376,207.5625,380,197.5625,376,201.5625" style="stroke: #696969; stroke-width: 1.0;"/><line style="stroke: #696969; stroke-width: 1.5;" x1="490.5" x2="490.5" y1="187.5625" y2="207.5625"/><polygon fill="#696969" points="486.5,197.5625,490.5,207.5625,494.5,197.5625,490.5,201.5625" style="stroke: #696969; stroke-width: 1.0;"/><line style="stroke: #696969; stroke-width: 1.5;" x1="257" x2="257" y1="242.6563" y2="262.6563"/><polygon fill="#696969" points="253,252.6563,257,262.6563,261,252.6563,257,256.6563" style="stroke: #696969; stroke-width: 1.0;"/><line style="stroke: #696969; stroke-width: 1.5;" x1="376" x2="376" y1="242.6563" y2="262.6563"/><polygon fill="#696969" points="372,252.6563,376,262.6563,380,252.6563,376,256.6563" style="stroke: #696969; stroke-width: 1.0;"/><line style="stroke: #696969; stroke-width: 1.5;" x1="490.5" x2="490.5" y1="242.6563" y2="262.6563"/><polygon fill="#696969" points="486.5,252.6563,490.5,262.6563,494.5,252.6563,490.5,256.6563" style="stroke: #696969; stroke-width: 1.0;"/><line style="stroke: #696969; stroke-width: 1.5;" x1="140.5" x2="140.5" y1="380.8906" y2="419.6953"/><polygon fill="#696969" points="136.5,409.6953,140.5,419.6953,144.5,409.6953,140.5,413.6953" style="stroke: #696969; stroke-width: 1.0;"/><line style="stroke: #696969; stroke-width: 1.5;" x1="140.5" x2="140.5" y1="454.7891" y2="489.7891"/><polygon fill="#696969" points="136.5,479.7891,140.5,489.7891,144.5,479.7891,140.5,483.7891" style="stroke: #696969; stroke-width: 1.0;"/><line style="stroke: #696969; stroke-width: 1.5;" x1="140.5" x2="140.5" y1="524.8828" y2="559.8828"/><polygon fill="#696969" points="136.5,549.8828,140.5,559.8828,144.5,549.8828,140.5,553.8828" style="stroke: #696969; stroke-width: 1.0;"/><line style="stroke: #696969; stroke-width: 1.5;" x1="140.5" x2="140.5" y1="594.9766" y2="629.9766"/><polygon fill="#696969" points="136.5,619.9766,140.5,629.9766,144.5,619.9766,140.5,623.9766" style="stroke: #696969; stroke-width: 1.0;"/><line style="stroke: #696969; stroke-width: 1.5;" x1="406" x2="406" y1="521.0781" y2="556.0781"/><polygon fill="#696969" points="402,546.0781,406,556.0781,410,546.0781,406,550.0781" style="stroke: #696969; stroke-width: 1.0;"/><line style="stroke: #696969; stroke-width: 1.5;" x1="406" x2="406" y1="461.0664" y2="485.9844"/><polygon fill="#696969" points="402,475.9844,406,485.9844,410,475.9844,406,479.9844" style="stroke: #696969; stroke-width: 1.0;"/><line style="stroke: #696969; stroke-width: 1.5;" x1="430" x2="477" y1="449.0664" y2="449.0664"/><polygon fill="#696969" points="473,528.5781,477,538.5781,481,528.5781,477,532.5781" style="stroke: #696969; stroke-width: 1.5;"/><line style="stroke: #696969; stroke-width: 1.5;" x1="477" x2="477" y1="449.0664" y2="628.0898"/><line style="stroke: #696969; stroke-width: 1.5;" x1="477" x2="418" y1="628.0898" y2="628.0898"/><polygon fill="#696969" points="428,624.0898,418,628.0898,428,632.0898,424,628.0898" style="stroke: #696969; stroke-width: 1.0;"/><line style="stroke: #696969; stroke-width: 1.5;" x1="406" x2="406" y1="591.1719" y2="616.0898"/><polygon fill="#696969" points="402,606.0898,406,616.0898,410,606.0898,406,610.0898" style="stroke: #696969; stroke-width: 1.0;"/><line style="stroke: #696969; stroke-width: 1.5;" x1="406" x2="406" y1="402.0664" y2="437.0664"/><polygon fill="#696969" points="402,427.0664,406,437.0664,410,427.0664,406,431.0664" style="stroke: #696969; stroke-width: 1.0;"/><line style="stroke: #696969; stroke-width: 1.5;" x1="601" x2="601" y1="521.0781" y2="556.0781"/><polygon fill="#696969" points="597,546.0781,601,556.0781,605,546.0781,601,550.0781" style="stroke: #696969; stroke-width: 1.0;"/><line style="stroke: #696969; stroke-width: 1.5;" x1="601" x2="601" y1="461.9844" y2="485.9844"/><polygon fill="#696969" points="597,475.9844,601,485.9844,605,475.9844,601,479.9844" style="stroke: #696969; stroke-width: 1.0;"/><line style="stroke: #696969; stroke-width: 1.5;" x1="625" x2="685" y1="449.9844" y2="449.9844"/><polygon fill="#696969" points="681,528.5781,685,538.5781,689,528.5781,685,532.5781" style="stroke: #696969; stroke-width: 1.5;"/><line style="stroke: #696969; stroke-width: 1.5;" x1="685" x2="685" y1="449.9844" y2="627.1719"/><line style="stroke: #696969; stroke-width: 1.5;" x1="685" x2="613" y1="627.1719" y2="627.1719"/><polygon fill="#696969" points="623,623.1719,613,627.1719,623,631.1719,619,627.1719" style="stroke: #696969; stroke-width: 1.0;"/><line style="stroke: #696969; stroke-width: 1.5;" x1="601" x2="601" y1="591.1719" y2="615.1719"/><polygon fill="#696969" points="597,605.1719,601,615.1719,605,605.1719,601,609.1719" style="stroke: #696969; stroke-width: 1.0;"/><line style="stroke: #696969; stroke-width: 1.5;" x1="601" x2="601" y1="402.9844" y2="437.9844"/><polygon fill="#696969" points="597,427.9844,601,437.9844,605,427.9844,601,431.9844" style="stroke: #696969; stroke-width: 1.0;"/><line style="stroke: #696969; stroke-width: 1.5;" x1="140.5" x2="140.5" y1="325.7969" y2="345.7969"/><polygon fill="#696969" points="136.5,335.7969,140.5,345.7969,144.5,335.7969,140.5,339.7969" style="stroke: #696969; stroke-width: 1.0;"/><line style="stroke: #696969; stroke-width: 1.5;" x1="406" x2="406" y1="325.7969" y2="366.9727"/><polygon fill="#696969" points="402,356.9727,406,366.9727,410,356.9727,406,360.9727" style="stroke: #696969; stroke-width: 1.0;"/><line style="stroke: #696969; stroke-width: 1.5;" x1="601" x2="601" y1="325.7969" y2="367.8906"/><polygon fill="#696969" points="597,357.8906,601,367.8906,605,357.8906,601,361.8906" style="stroke: #696969; stroke-width: 1.0;"/><line style="stroke: #696969; stroke-width: 1.5;" x1="140.5" x2="140.5" y1="665.0703" y2="685.0703"/><polygon fill="#696969" points="136.5,675.0703,140.5,685.0703,144.5,675.0703,140.5,679.0703" style="stroke: #696969; stroke-width: 1.0;"/><line style="stroke: #696969; stroke-width: 1.5;" x1="406" x2="406" y1="640.0898" y2="685.0703"/><polygon fill="#696969" points="402,675.0703,406,685.0703,410,675.0703,406,679.0703" style="stroke: #696969; stroke-width: 1.0;"/><line style="stroke: #696969; stroke-width: 1.5;" x1="601" x2="601" y1="639.1719" y2="685.0703"/><polygon fill="#696969" points="597,675.0703,601,685.0703,605,675.0703,601,679.0703" style="stroke: #696969; stroke-width: 1.0;"/><line style="stroke: #696969; stroke-width: 1.5;" x1="371.5" x2="371.5" y1="268.6563" y2="319.7969"/><polygon fill="#696969" points="367.5,309.7969,371.5,319.7969,375.5,309.7969,371.5,313.7969" style="stroke: #696969; stroke-width: 1.0;"/><line style="stroke: #696969; stroke-width: 1.5;" x1="371.5" x2="371.5" y1="755.0703" y2="790.2266"/><polygon fill="#696969" points="367.5,780.2266,371.5,790.2266,375.5,780.2266,371.5,784.2266" style="stroke: #696969; stroke-width: 1.0;"/><line style="stroke: #696969; stroke-width: 1.5;" x1="417.5" x2="439.5" y1="743.0703" y2="743.0703"/><polygon fill="#696969" points="429.5,739.0703,439.5,743.0703,429.5,747.0703,433.5,743.0703" style="stroke: #696969; stroke-width: 1.0;"/><line style="stroke: #696969; stroke-width: 1.5;" x1="371.5" x2="371.5" y1="691.0703" y2="731.0703"/><polygon fill="#696969" points="367.5,721.0703,371.5,731.0703,375.5,721.0703,371.5,725.0703" style="stroke: #696969; stroke-width: 1.0;"/><line style="stroke: #696969; stroke-width: 1.5;" x1="371.5" x2="371.5" y1="825.3203" y2="870.4766"/><polygon fill="#696969" points="367.5,860.4766,371.5,870.4766,375.5,860.4766,371.5,864.4766" style="stroke: #696969; stroke-width: 1.0;"/><line style="stroke: #696969; stroke-width: 1.5;" x1="371.5" x2="371.5" y1="905.5703" y2="952.707"/><polygon fill="#696969" points="367.5,942.707,371.5,952.707,375.5,942.707,371.5,946.707" style="stroke: #696969; stroke-width: 1.0;"/><line style="stroke: #696969; stroke-width: 1.5;" x1="762.5" x2="762.5" y1="635.8555" y2="670.8555"/><polygon fill="#696969" points="758.5,660.8555,762.5,670.8555,766.5,660.8555,762.5,664.8555" style="stroke: #696969; stroke-width: 1.0;"/><line style="stroke: #696969; stroke-width: 1.5;" x1="371.5" x2="371.5" y1="161.5625" y2="181.5625"/><polygon fill="#696969" points="367.5,171.5625,371.5,181.5625,375.5,171.5625,371.5,175.5625" style="stroke: #696969; stroke-width: 1.0;"/><line style="stroke: #696969; stroke-width: 1.5;" x1="762.5" x2="762.5" y1="161.5625" y2="600.7617"/><polygon fill="#696969" points="758.5,590.7617,762.5,600.7617,766.5,590.7617,762.5,594.7617" style="stroke: #696969; stroke-width: 1.0;"/><line style="stroke: #696969; stroke-width: 1.5;" x1="371.5" x2="371.5" y1="987.8008" y2="1041.1328"/><polygon fill="#696969" points="367.5,1031.1328,371.5,1041.1328,375.5,1031.1328,371.5,1035.1328" style="stroke: #696969; stroke-width: 1.0;"/><line style="stroke: #696969; stroke-width: 1.5;" x1="762.5" x2="762.5" y1="705.9492" y2="1041.1328"/><polygon fill="#696969" points="758.5,1031.1328,762.5,1041.1328,766.5,1031.1328,762.5,1035.1328" style="stroke: #696969; stroke-width: 1.0;"/><line style="stroke: #696969; stroke-width: 1.5;" x1="426" x2="426" y1="135.5625" y2="155.5625"/><polygon fill="#696969" points="422,145.5625,426,155.5625,430,145.5625,426,149.5625" style="stroke: #696969; stroke-width: 1.0;"/><line style="stroke: #696969; stroke-width: 1.5;" x1="426" x2="426" y1="1047.1328" y2="1087.4648"/><polygon fill="#696969" points="422,1077.4648,426,1087.4648,430,1077.4648,426,1081.4648" style="stroke: #696969; stroke-width: 1.0;"/><line style="stroke: #696969; stroke-width: 1.5;" x1="426" x2="426" y1="1122.5586" y2="1172.8906"/><polygon fill="#696969" points="422,1162.8906,426,1172.8906,430,1162.8906,426,1166.8906" style="stroke: #696969; stroke-width: 1.0;"/><line style="stroke: #696969; stroke-width: 1.5;" x1="426" x2="426" y1="1207.9844" y2="1229.9648"/><polygon fill="#696969" points="422,1219.9648,426,1229.9648,430,1219.9648,426,1223.9648" style="stroke: #696969; stroke-width: 1.0;"/><text fill="#000080" font-family="sans-serif" font-size="14" lengthAdjust="spacingAndGlyphs" textLength="42" x="10" y="1291.5723">©2019</text><a href="http://www.lifestylesunlimited.com" target="_top" xlink:actuate="onRequest" xlink:show="new" xlink:title="http://www.lifestylesunlimited.com" xlink:type="simple"><text fill="#0000FF" font-family="sans-serif" font-size="14" lengthAdjust="spacingAndGlyphs" text-decoration="underline" textLength="122" x="56" y="1291.5723">LifeStyles Unlimited</text></a><text fill="#000080" font-family="sans-serif" font-size="14" lengthAdjust="spacingAndGlyphs" textLength="131" x="182" y="1291.5723">| Generated %date%</text><!--
@startuml due-diligence


skinparam {
  BorderColor Red
  PathHoverColor Blue
}

skinparam Title {
  FontColor Navy
  BackgroundColor PaleGoldenRod
  BorderColor Navy
  BorderRoundCorner 20
  FontSize 24
}

skinparam activity {
  BackgroundColor Ivory
  BorderColor CornflowerBlue
  BorderThickness 1
  FontColor DimGray
  

  Arrow {
    Color dimgray
    FontColor dimgray
  }

  Start {
    Color PHYSICAL
  }

  End {
    Color Coral
  }

  Diamond {
    BackgroundColor Ivory
    BorderColor CornflowerBlue
    FontColor DarkGray
  }

  BackgroundColor<< Exception >> Red
	BorderColor<< Exception >> White
}

skinparam Swimlane {
  BorderColor CornflowerBlue 
}

skinparam Partition {
  BackgroundColor Ivory
  BorderColor CornflowerBlue
  BorderThickness 1
  FontColor CornflowerBlue
  FontSize 16
  BorderRoundCorner 20
}

skinparam Note {
  BackgroundColor LightSteelBlue
  BorderColor CornflowerBlue
  FontColor White
}

skinparam Legend {
  BackgroundColor LightSteelBlue
  BorderColor CornflowerBlue
  FontColor White
}

skinparam Footer {
  FontColor Navy
}


left header 
	<font color=Navy size=24>[[../index.svg?sanitize=true ⌂ Home]]</font>
endheader


	Title Due Diligence\n(Inspection)


	start

	fork 
		fork
			:turn on electric;
			fork again
			:turn on gas;
			fork again
			:turn on water;
		end fork
		partition "Cost-Free Steps" {
			fork
				:<&arrow-thick-right> scope of work]
				note right
					see form
					very specific
				end note
				:general contractor 1 inspection;
				:<&arrow-thick-left> client estimate]
				:general contractor 2 inspection;
				:general contractor 3 inspection;
				fork again
				:roofer inspection;
				if (bad) then (yes)
					:roofer 2 inspection;
					:roofer 3 inspection;
				endif
				fork again
				:foundation inspection;
				if (bad)
					:foundation 2 inspection;
					:foundation 3 inspection;
				endif
			end fork
		}
		if(too expensive)
			stop
		endif
		#PHYSICAL:<&dollar> plumber static test 150-200;
		note right
			leakdown test
			uses camera
			- - - -
			* what is failure?
			* what to do upon failure?
		end note
		#PHYSICAL:<&dollar> termite inspection 300;
		note right
			* what is failure?
			* what to do upon failure?
		end note
		#PHYSICAL:<&dollar> inspector 200;
		note right
			gives work needed 
			to bring up to this year's code
			some things are grand-fathered in
			- - - -
			* what is failure?
			* what to do upon failure?
		end note
		fork again
			:7-10 Days>
			#LightPink:Time is out;
		
	end fork
	:get final repair cost;
	note right
		|| City || Repairs ||
		| San Antonio | $15-25k |
		| Houston | $k |
		| DFW | $30k |
		Is this correct or is this all in?
	end note
	note left
		that's ~ 10 people
		the realtor needs to let in
		too much work
		they will quit after this deal
	end note
	:get repair time estimate;
	note right
		holding costs
	end note
	[[evaluating.svg?sanitize=true]]#LightSkyBlue:evaluate;
	note right
		analyse & 
		make new offer
		based on damages
	end note
	


left footer 
	<font size=14>©2019 [[http://www.lifestylesunlimited.com LifeStyles Unlimited]] | Generated %date%</font>
endfooter


@enduml

PlantUML version 1.2019.06(Fri May 24 12:10:25 CDT 2019)
(GPL source distribution)
Java Runtime: Java(TM) SE Runtime Environment
JVM: Java HotSpot(TM) Client VM
Java Version: 1.8.0_211-b12
Operating System: Windows 10
OS Version: 10.0
Default Encoding: Cp1252
Language: en
Country: US
--></g></svg>