<?xml version="1.0" encoding="UTF-8" standalone="no"?><svg xmlns="http://www.w3.org/2000/svg" xmlns:xlink="http://www.w3.org/1999/xlink" contentScriptType="application/ecmascript" contentStyleType="text/css" height="1043px" preserveAspectRatio="none" style="width:795px;height:1043px;" version="1.1" viewBox="0 0 795 1043" width="795px" zoomAndPan="magnify"><defs><style type="text/css"><![CDATA[path:hover { stroke: #0000FF !important;}]]></style><filter height="300%" id="fy3et1lo4xbyw" width="300%" x="-1" y="-1"><feGaussianBlur result="blurOut" stdDeviation="2.0"/><feColorMatrix in="blurOut" result="blurOut2" type="matrix" values="0 0 0 0 0 0 0 0 0 0 0 0 0 0 0 0 0 0 .4 0"/><feOffset dx="4.0" dy="4.0" in="blurOut2" result="blurOut3"/><feBlend in="SourceGraphic" in2="blurOut3" mode="normal"/></filter></defs><g><a target="_top" xlink:actuate="onRequest" xlink:href="../index.svg?sanitize=true" xlink:show="new" xlink:title="../index.svg?sanitize=true" xlink:type="simple"><text fill="#0000FF" font-family="sans-serif" font-size="24" lengthAdjust="spacingAndGlyphs" text-decoration="underline" textLength="90" x="10" y="34.9141">⌂ Home</text><line style="stroke: #0000FF; stroke-width: 1.0;" x1="10" x2="100" y1="36.9141" y2="36.9141"/></a><rect fill="#EEE8AA" height="40.1875" rx="10" ry="10" style="stroke: #000080; stroke-width: 1.5;" width="299" x="246.75" y="42.1875"/><text fill="#000080" font-family="sans-serif" font-size="24" lengthAdjust="spacingAndGlyphs" textLength="283" x="254.75" y="72.1016">Due Diligence (Inspection)</text><ellipse cx="395" cy="95.375" fill="#CCFFCC" filter="url(#fy3et1lo4xbyw)" rx="10" ry="10" style="stroke: none; stroke-width: 1.0;"/><rect fill="#000000" filter="url(#fy3et1lo4xbyw)" height="6" rx="2.5" ry="2.5" style="stroke: #000000; stroke-width: 1.0;" width="770" x="10" y="125.375"/><rect fill="#000000" filter="url(#fy3et1lo4xbyw)" height="6" rx="2.5" ry="2.5" style="stroke: #000000; stroke-width: 1.0;" width="357" x="162" y="151.375"/><rect fill="#FFFFF0" filter="url(#fy3et1lo4xbyw)" height="35.0938" rx="12.5" ry="12.5" style="stroke: #6495ED; stroke-width: 1.0;" width="100" x="176" y="177.375"/><text fill="#696969" font-family="sans-serif" font-size="12" lengthAdjust="spacingAndGlyphs" textLength="80" x="186" y="199.832">turn on electric</text><rect fill="#FFFFF0" filter="url(#fy3et1lo4xbyw)" height="35.0938" rx="12.5" ry="12.5" style="stroke: #6495ED; stroke-width: 1.0;" width="82" x="304" y="177.375"/><text fill="#696969" font-family="sans-serif" font-size="12" lengthAdjust="spacingAndGlyphs" textLength="62" x="314" y="199.832">turn on gas</text><rect fill="#FFFFF0" filter="url(#fy3et1lo4xbyw)" height="35.0938" rx="12.5" ry="12.5" style="stroke: #6495ED; stroke-width: 1.0;" width="91" x="414" y="177.375"/><text fill="#696969" font-family="sans-serif" font-size="12" lengthAdjust="spacingAndGlyphs" textLength="71" x="424" y="199.832">turn on water</text><rect fill="#000000" filter="url(#fy3et1lo4xbyw)" height="6" rx="2.5" ry="2.5" style="stroke: #000000; stroke-width: 1.0;" width="357" x="162" y="232.4688"/><rect fill="#FFFFF0" filter="url(#fy3et1lo4xbyw)" height="376.1133" style="stroke: #6495ED; stroke-width: 1.0;" width="633" x="24" y="249.4844"/><path d="M150,250.4844 L150,262.6094 L140,272.6094 L24,272.6094 " fill="none" style="stroke: #6495ED; stroke-width: 1.0;"/><text fill="#6495ED" font-family="sans-serif" font-size="16" lengthAdjust="spacingAndGlyphs" textLength="116" x="27" y="267.0938">Cost-Free Steps</text><rect fill="#000000" filter="url(#fy3et1lo4xbyw)" height="6" rx="2.5" ry="2.5" style="stroke: #000000; stroke-width: 1.0;" width="613" x="34" y="289.6094"/><rect fill="#FFFFF0" filter="url(#fy3et1lo4xbyw)" height="35.0938" rx="12.5" ry="12.5" style="stroke: #6495ED; stroke-width: 1.0;" width="195" x="48" y="329.4805"/><text fill="#696969" font-family="sans-serif" font-size="12" lengthAdjust="spacingAndGlyphs" textLength="175" x="58" y="351.9375">generate detailed scope of work</text><rect fill="#FFFFF0" filter="url(#fy3et1lo4xbyw)" height="35.0938" rx="12.5" ry="12.5" style="stroke: #6495ED; stroke-width: 1.0;" width="189" x="51" y="398.4453"/><text fill="#696969" font-family="sans-serif" font-size="12" lengthAdjust="spacingAndGlyphs" textLength="169" x="61" y="420.9023">general contractor 1 inspection</text><rect fill="#FFFFF0" filter="url(#fy3et1lo4xbyw)" height="35.0938" rx="12.5" ry="12.5" style="stroke: #6495ED; stroke-width: 1.0;" width="189" x="51" y="468.5391"/><text fill="#696969" font-family="sans-serif" font-size="12" lengthAdjust="spacingAndGlyphs" textLength="169" x="61" y="490.9961">general contractor 2 inspection</text><rect fill="#FFFFF0" filter="url(#fy3et1lo4xbyw)" height="35.0938" rx="12.5" ry="12.5" style="stroke: #6495ED; stroke-width: 1.0;" width="189" x="51" y="538.6328"/><text fill="#696969" font-family="sans-serif" font-size="12" lengthAdjust="spacingAndGlyphs" textLength="169" x="61" y="561.0898">general contractor 3 inspection</text><rect fill="#FFFFF0" filter="url(#fy3et1lo4xbyw)" height="35.0938" rx="12.5" ry="12.5" style="stroke: #6495ED; stroke-width: 1.0;" width="112" x="286" y="315.6094"/><text fill="#696969" font-family="sans-serif" font-size="12" lengthAdjust="spacingAndGlyphs" textLength="92" x="296" y="338.0664">roofer inspection</text><rect fill="#FFFFF0" filter="url(#fy3et1lo4xbyw)" height="35.0938" rx="12.5" ry="12.5" style="stroke: #6495ED; stroke-width: 1.0;" width="122" x="281" y="433.4922"/><text fill="#696969" font-family="sans-serif" font-size="12" lengthAdjust="spacingAndGlyphs" textLength="102" x="291" y="455.9492">roofer 2 inspection</text><rect fill="#FFFFF0" filter="url(#fy3et1lo4xbyw)" height="35.0938" rx="12.5" ry="12.5" style="stroke: #6495ED; stroke-width: 1.0;" width="122" x="281" y="503.5859"/><text fill="#696969" font-family="sans-serif" font-size="12" lengthAdjust="spacingAndGlyphs" textLength="102" x="291" y="526.043">roofer 3 inspection</text><polygon fill="#FFFFF0" filter="url(#fy3et1lo4xbyw)" points="330,384.5742,354,384.5742,366,396.5742,354,408.5742,330,408.5742,318,396.5742,330,384.5742" style="stroke: #6495ED; stroke-width: 1.0;"/><text fill="#696969" font-family="sans-serif" font-size="11" lengthAdjust="spacingAndGlyphs" textLength="18" x="346" y="419.9932">yes</text><text fill="#A9A9A9" font-family="sans-serif" font-size="11" lengthAdjust="spacingAndGlyphs" textLength="18" x="333" y="401.0752">bad</text><polygon fill="#FFFFF0" filter="url(#fy3et1lo4xbyw)" points="342,563.5977,354,575.5977,342,587.5977,330,575.5977,342,563.5977" style="stroke: #6495ED; stroke-width: 1.0;"/><rect fill="#FFFFF0" filter="url(#fy3et1lo4xbyw)" height="35.0938" rx="12.5" ry="12.5" style="stroke: #6495ED; stroke-width: 1.0;" width="138" x="468" y="316.5273"/><text fill="#696969" font-family="sans-serif" font-size="12" lengthAdjust="spacingAndGlyphs" textLength="118" x="478" y="338.9844">foundation inspection</text><rect fill="#FFFFF0" filter="url(#fy3et1lo4xbyw)" height="35.0938" rx="12.5" ry="12.5" style="stroke: #6495ED; stroke-width: 1.0;" width="148" x="463" y="433.4922"/><text fill="#696969" font-family="sans-serif" font-size="12" lengthAdjust="spacingAndGlyphs" textLength="128" x="473" y="455.9492">foundation 2 inspection</text><rect fill="#FFFFF0" filter="url(#fy3et1lo4xbyw)" height="35.0938" rx="12.5" ry="12.5" style="stroke: #6495ED; stroke-width: 1.0;" width="148" x="463" y="503.5859"/><text fill="#696969" font-family="sans-serif" font-size="12" lengthAdjust="spacingAndGlyphs" textLength="128" x="473" y="526.043">foundation 3 inspection</text><polygon fill="#FFFFF0" filter="url(#fy3et1lo4xbyw)" points="525,385.4922,549,385.4922,561,397.4922,549,409.4922,525,409.4922,513,397.4922,525,385.4922" style="stroke: #6495ED; stroke-width: 1.0;"/><text fill="#A9A9A9" font-family="sans-serif" font-size="11" lengthAdjust="spacingAndGlyphs" textLength="18" x="528" y="401.9932">bad</text><polygon fill="#FFFFF0" filter="url(#fy3et1lo4xbyw)" points="537,562.6797,549,574.6797,537,586.6797,525,574.6797,537,562.6797" style="stroke: #6495ED; stroke-width: 1.0;"/><rect fill="#000000" filter="url(#fy3et1lo4xbyw)" height="6" rx="2.5" ry="2.5" style="stroke: #000000; stroke-width: 1.0;" width="613" x="34" y="607.5977"/><polygon fill="#FFFFF0" filter="url(#fy3et1lo4xbyw)" points="306.5,645.5977,374.5,645.5977,386.5,657.5977,374.5,669.5977,306.5,669.5977,294.5,657.5977,306.5,645.5977" style="stroke: #6495ED; stroke-width: 1.0;"/><text fill="#A9A9A9" font-family="sans-serif" font-size="11" lengthAdjust="spacingAndGlyphs" textLength="68" x="306.5" y="662.0986">too expensive</text><ellipse cx="419.5" cy="657.5977" fill="#FFFFFF" filter="url(#fy3et1lo4xbyw)" rx="11" ry="11" style="stroke: #FF7F50; stroke-width: 1.0;"/><ellipse cx="419.5" cy="657.5977" fill="#FF7F50" rx="6" ry="6" style="stroke: #FFBFA7; stroke-width: 1.0;"/><path d="M440.5,685.793 L440.5,703.1445 L420.5,707.1445 L440.5,711.1445 L440.5,728.4961 A0,0 0 0 0 440.5,728.4961 L598.5,728.4961 A0,0 0 0 0 598.5,728.4961 L598.5,695.793 L588.5,685.793 L440.5,685.793 A0,0 0 0 0 440.5,685.793 " fill="#B0C4DE" filter="url(#fy3et1lo4xbyw)" style="stroke: #6495ED; stroke-width: 1.0;"/><path d="M588.5,685.793 L588.5,695.793 L598.5,695.793 L588.5,685.793 " fill="#B0C4DE" style="stroke: #6495ED; stroke-width: 1.0;"/><text fill="#FFFFFF" font-family="sans-serif" font-size="13" lengthAdjust="spacingAndGlyphs" textLength="86" x="446.5" y="704.2881">what is failure?</text><text fill="#FFFFFF" font-family="sans-serif" font-size="13" lengthAdjust="spacingAndGlyphs" textLength="137" x="446.5" y="720.6396">what to do upon failure?</text><rect fill="#FFFFF0" filter="url(#fy3et1lo4xbyw)" height="35.0938" rx="12.5" ry="12.5" style="stroke: #6495ED; stroke-width: 1.0;" width="160" x="260.5" y="689.5977"/><text fill="#696969" font-family="sans-serif" font-size="12" lengthAdjust="spacingAndGlyphs" textLength="140" x="270.5" y="712.0547">plumber static test ($150)</text><path d="M448,744.6914 L448,762.043 L428,766.043 L448,770.043 L448,787.3945 A0,0 0 0 0 448,787.3945 L606,787.3945 A0,0 0 0 0 606,787.3945 L606,754.6914 L596,744.6914 L448,744.6914 A0,0 0 0 0 448,744.6914 " fill="#B0C4DE" filter="url(#fy3et1lo4xbyw)" style="stroke: #6495ED; stroke-width: 1.0;"/><path d="M596,744.6914 L596,754.6914 L606,754.6914 L596,744.6914 " fill="#B0C4DE" style="stroke: #6495ED; stroke-width: 1.0;"/><text fill="#FFFFFF" font-family="sans-serif" font-size="13" lengthAdjust="spacingAndGlyphs" textLength="86" x="454" y="763.1865">what is failure?</text><text fill="#FFFFFF" font-family="sans-serif" font-size="13" lengthAdjust="spacingAndGlyphs" textLength="137" x="454" y="779.5381">what to do upon failure?</text><rect fill="#FFFFF0" filter="url(#fy3et1lo4xbyw)" height="35.0938" rx="12.5" ry="12.5" style="stroke: #6495ED; stroke-width: 1.0;" width="175" x="253" y="748.4961"/><text fill="#696969" font-family="sans-serif" font-size="12" lengthAdjust="spacingAndGlyphs" textLength="155" x="263" y="770.9531">termite inspection ($75-100)</text><path d="M415.5,803.5898 L415.5,820.9414 L395.5,824.9414 L415.5,828.9414 L415.5,846.293 A0,0 0 0 0 415.5,846.293 L573.5,846.293 A0,0 0 0 0 573.5,846.293 L573.5,813.5898 L563.5,803.5898 L415.5,803.5898 A0,0 0 0 0 415.5,803.5898 " fill="#B0C4DE" filter="url(#fy3et1lo4xbyw)" style="stroke: #6495ED; stroke-width: 1.0;"/><path d="M563.5,803.5898 L563.5,813.5898 L573.5,813.5898 L563.5,803.5898 " fill="#B0C4DE" style="stroke: #6495ED; stroke-width: 1.0;"/><text fill="#FFFFFF" font-family="sans-serif" font-size="13" lengthAdjust="spacingAndGlyphs" textLength="86" x="421.5" y="822.085">what is failure?</text><text fill="#FFFFFF" font-family="sans-serif" font-size="13" lengthAdjust="spacingAndGlyphs" textLength="137" x="421.5" y="838.4365">what to do upon failure?</text><rect fill="#FFFFF0" filter="url(#fy3et1lo4xbyw)" height="35.0938" rx="12.5" ry="12.5" style="stroke: #6495ED; stroke-width: 1.0;" width="110" x="285.5" y="807.3945"/><text fill="#696969" font-family="sans-serif" font-size="12" lengthAdjust="spacingAndGlyphs" textLength="90" x="295.5" y="829.8516">inspector ($200)</text><polygon fill="#FFFFF0" filter="url(#fy3et1lo4xbyw)" points="687.5,497.3906,763.5,497.3906,773.5,514.9375,763.5,532.4844,687.5,532.4844" style="stroke: #6495ED; stroke-width: 1.0;"/><text fill="#696969" font-family="sans-serif" font-size="12" lengthAdjust="spacingAndGlyphs" textLength="56" x="697.5" y="519.8477">7-10 Days</text><rect fill="#FFB6C1" filter="url(#fy3et1lo4xbyw)" height="35.0938" rx="12.5" ry="12.5" style="stroke: #6495ED; stroke-width: 1.0;" width="81" x="685" y="567.4844"/><text fill="#696969" font-family="sans-serif" font-size="12" lengthAdjust="spacingAndGlyphs" textLength="61" x="695" y="589.9414">Time is out</text><rect fill="#000000" filter="url(#fy3et1lo4xbyw)" height="6" rx="2.5" ry="2.5" style="stroke: #000000; stroke-width: 1.0;" width="770" x="10" y="866.293"/><path d="M477,882.293 L477,917.8203 L457,921.8203 L477,925.8203 L477,961.3477 A0,0 0 0 0 477,961.3477 L619,961.3477 A0,0 0 0 0 619,961.3477 L619,892.293 L609,882.293 L477,882.293 A0,0 0 0 0 477,882.293 " fill="#B0C4DE" filter="url(#fy3et1lo4xbyw)" style="stroke: #6495ED; stroke-width: 1.0;"/><path d="M609,882.293 L609,892.293 L619,892.293 L609,882.293 " fill="#B0C4DE" style="stroke: #6495ED; stroke-width: 1.0;"/><text fill="#FFFFFF" font-family="sans-serif" font-size="13" lengthAdjust="spacingAndGlyphs" textLength="121" x="483" y="900.7881">San Antonio $15-25k</text><line style="stroke: #6495ED; stroke-width: 1.0;" x1="477" x2="619" y1="908.6445" y2="908.6445"/><line style="stroke: #6495ED; stroke-width: 1.0;" x1="477" x2="619" y1="910.6445" y2="910.6445"/><text fill="#FFFFFF" font-family="sans-serif" font-size="13" lengthAdjust="spacingAndGlyphs" textLength="66" x="483" y="927.1396">Houston $k</text><line style="stroke: #6495ED; stroke-width: 1.0;" x1="477" x2="619" y1="934.9961" y2="934.9961"/><line style="stroke: #6495ED; stroke-width: 1.0;" x1="477" x2="619" y1="936.9961" y2="936.9961"/><text fill="#FFFFFF" font-family="sans-serif" font-size="13" lengthAdjust="spacingAndGlyphs" textLength="62" x="483" y="953.4912">DFW $30k</text><rect fill="#FFFFF0" filter="url(#fy3et1lo4xbyw)" height="35.0938" rx="12.5" ry="12.5" style="stroke: #6495ED; stroke-width: 1.0;" width="124" x="333" y="904.2734"/><text fill="#696969" font-family="sans-serif" font-size="12" lengthAdjust="spacingAndGlyphs" textLength="104" x="343" y="926.7305">get final repair cost</text><path d="M448,985.7188 L448,994.8945 L428,998.8945 L448,1002.8945 L448,1012.0703 A0,0 0 0 0 448,1012.0703 L514,1012.0703 A0,0 0 0 0 514,1012.0703 L514,995.7188 L504,985.7188 L448,985.7188 A0,0 0 0 0 448,985.7188 " fill="#B0C4DE" filter="url(#fy3et1lo4xbyw)" style="stroke: #6495ED; stroke-width: 1.0;"/><path d="M504,985.7188 L504,995.7188 L514,995.7188 L504,985.7188 " fill="#B0C4DE" style="stroke: #6495ED; stroke-width: 1.0;"/><text fill="#FFFFFF" font-family="sans-serif" font-size="13" lengthAdjust="spacingAndGlyphs" textLength="45" x="454" y="1004.2139">analyse</text><a target="_top" xlink:actuate="onRequest" xlink:href="evaluating.svg?sanitize=true" xlink:show="new" xlink:title="evaluating.svg?sanitize=true" xlink:type="simple"><rect fill="#87CEFA" filter="url(#fy3et1lo4xbyw)" height="35.0938" rx="12.5" ry="12.5" style="stroke: #6495ED; stroke-width: 1.0;" width="66" x="362" y="981.3477"/><text fill="#696969" font-family="sans-serif" font-size="12" lengthAdjust="spacingAndGlyphs" textLength="46" x="372" y="1003.8047">evaluate</text></a><line style="stroke: #696969; stroke-width: 1.5;" x1="226" x2="226" y1="157.375" y2="177.375"/><polygon fill="#696969" points="222,167.375,226,177.375,230,167.375,226,171.375" style="stroke: #696969; stroke-width: 1.0;"/><line style="stroke: #696969; stroke-width: 1.5;" x1="345" x2="345" y1="157.375" y2="177.375"/><polygon fill="#696969" points="341,167.375,345,177.375,349,167.375,345,171.375" style="stroke: #696969; stroke-width: 1.0;"/><line style="stroke: #696969; stroke-width: 1.5;" x1="459.5" x2="459.5" y1="157.375" y2="177.375"/><polygon fill="#696969" points="455.5,167.375,459.5,177.375,463.5,167.375,459.5,171.375" style="stroke: #696969; stroke-width: 1.0;"/><line style="stroke: #696969; stroke-width: 1.5;" x1="226" x2="226" y1="212.4688" y2="232.4688"/><polygon fill="#696969" points="222,222.4688,226,232.4688,230,222.4688,226,226.4688" style="stroke: #696969; stroke-width: 1.0;"/><line style="stroke: #696969; stroke-width: 1.5;" x1="345" x2="345" y1="212.4688" y2="232.4688"/><polygon fill="#696969" points="341,222.4688,345,232.4688,349,222.4688,345,226.4688" style="stroke: #696969; stroke-width: 1.0;"/><line style="stroke: #696969; stroke-width: 1.5;" x1="459.5" x2="459.5" y1="212.4688" y2="232.4688"/><polygon fill="#696969" points="455.5,222.4688,459.5,232.4688,463.5,222.4688,459.5,226.4688" style="stroke: #696969; stroke-width: 1.0;"/><line style="stroke: #696969; stroke-width: 1.5;" x1="145.5" x2="145.5" y1="364.5742" y2="398.4453"/><polygon fill="#696969" points="141.5,388.4453,145.5,398.4453,149.5,388.4453,145.5,392.4453" style="stroke: #696969; stroke-width: 1.0;"/><line style="stroke: #696969; stroke-width: 1.5;" x1="145.5" x2="145.5" y1="433.5391" y2="468.5391"/><polygon fill="#696969" points="141.5,458.5391,145.5,468.5391,149.5,458.5391,145.5,462.5391" style="stroke: #696969; stroke-width: 1.0;"/><line style="stroke: #696969; stroke-width: 1.5;" x1="145.5" x2="145.5" y1="503.6328" y2="538.6328"/><polygon fill="#696969" points="141.5,528.6328,145.5,538.6328,149.5,528.6328,145.5,532.6328" style="stroke: #696969; stroke-width: 1.0;"/><line style="stroke: #696969; stroke-width: 1.5;" x1="342" x2="342" y1="468.5859" y2="503.5859"/><polygon fill="#696969" points="338,493.5859,342,503.5859,346,493.5859,342,497.5859" style="stroke: #696969; stroke-width: 1.0;"/><line style="stroke: #696969; stroke-width: 1.5;" x1="342" x2="342" y1="408.5742" y2="433.4922"/><polygon fill="#696969" points="338,423.4922,342,433.4922,346,423.4922,342,427.4922" style="stroke: #696969; stroke-width: 1.0;"/><line style="stroke: #696969; stroke-width: 1.5;" x1="366" x2="413" y1="396.5742" y2="396.5742"/><polygon fill="#696969" points="409,476.0859,413,486.0859,417,476.0859,413,480.0859" style="stroke: #696969; stroke-width: 1.5;"/><line style="stroke: #696969; stroke-width: 1.5;" x1="413" x2="413" y1="396.5742" y2="575.5977"/><line style="stroke: #696969; stroke-width: 1.5;" x1="413" x2="354" y1="575.5977" y2="575.5977"/><polygon fill="#696969" points="364,571.5977,354,575.5977,364,579.5977,360,575.5977" style="stroke: #696969; stroke-width: 1.0;"/><line style="stroke: #696969; stroke-width: 1.5;" x1="342" x2="342" y1="538.6797" y2="563.5977"/><polygon fill="#696969" points="338,553.5977,342,563.5977,346,553.5977,342,557.5977" style="stroke: #696969; stroke-width: 1.0;"/><line style="stroke: #696969; stroke-width: 1.5;" x1="342" x2="342" y1="350.7031" y2="384.5742"/><polygon fill="#696969" points="338,374.5742,342,384.5742,346,374.5742,342,378.5742" style="stroke: #696969; stroke-width: 1.0;"/><line style="stroke: #696969; stroke-width: 1.5;" x1="537" x2="537" y1="468.5859" y2="503.5859"/><polygon fill="#696969" points="533,493.5859,537,503.5859,541,493.5859,537,497.5859" style="stroke: #696969; stroke-width: 1.0;"/><line style="stroke: #696969; stroke-width: 1.5;" x1="537" x2="537" y1="409.4922" y2="433.4922"/><polygon fill="#696969" points="533,423.4922,537,433.4922,541,423.4922,537,427.4922" style="stroke: #696969; stroke-width: 1.0;"/><line style="stroke: #696969; stroke-width: 1.5;" x1="561" x2="621" y1="397.4922" y2="397.4922"/><polygon fill="#696969" points="617,476.0859,621,486.0859,625,476.0859,621,480.0859" style="stroke: #696969; stroke-width: 1.5;"/><line style="stroke: #696969; stroke-width: 1.5;" x1="621" x2="621" y1="397.4922" y2="574.6797"/><line style="stroke: #696969; stroke-width: 1.5;" x1="621" x2="549" y1="574.6797" y2="574.6797"/><polygon fill="#696969" points="559,570.6797,549,574.6797,559,578.6797,555,574.6797" style="stroke: #696969; stroke-width: 1.0;"/><line style="stroke: #696969; stroke-width: 1.5;" x1="537" x2="537" y1="538.6797" y2="562.6797"/><polygon fill="#696969" points="533,552.6797,537,562.6797,541,552.6797,537,556.6797" style="stroke: #696969; stroke-width: 1.0;"/><line style="stroke: #696969; stroke-width: 1.5;" x1="537" x2="537" y1="351.6211" y2="385.4922"/><polygon fill="#696969" points="533,375.4922,537,385.4922,541,375.4922,537,379.4922" style="stroke: #696969; stroke-width: 1.0;"/><line style="stroke: #696969; stroke-width: 1.5;" x1="145.5" x2="145.5" y1="295.6094" y2="329.4805"/><polygon fill="#696969" points="141.5,319.4805,145.5,329.4805,149.5,319.4805,145.5,323.4805" style="stroke: #696969; stroke-width: 1.0;"/><line style="stroke: #696969; stroke-width: 1.5;" x1="342" x2="342" y1="295.6094" y2="315.6094"/><polygon fill="#696969" points="338,305.6094,342,315.6094,346,305.6094,342,309.6094" style="stroke: #696969; stroke-width: 1.0;"/><line style="stroke: #696969; stroke-width: 1.5;" x1="537" x2="537" y1="295.6094" y2="316.5273"/><polygon fill="#696969" points="533,306.5273,537,316.5273,541,306.5273,537,310.5273" style="stroke: #696969; stroke-width: 1.0;"/><line style="stroke: #696969; stroke-width: 1.5;" x1="145.5" x2="145.5" y1="573.7266" y2="607.5977"/><polygon fill="#696969" points="141.5,597.5977,145.5,607.5977,149.5,597.5977,145.5,601.5977" style="stroke: #696969; stroke-width: 1.0;"/><line style="stroke: #696969; stroke-width: 1.5;" x1="342" x2="342" y1="587.5977" y2="607.5977"/><polygon fill="#696969" points="338,597.5977,342,607.5977,346,597.5977,342,601.5977" style="stroke: #696969; stroke-width: 1.0;"/><line style="stroke: #696969; stroke-width: 1.5;" x1="537" x2="537" y1="586.6797" y2="607.5977"/><polygon fill="#696969" points="533,597.5977,537,607.5977,541,597.5977,537,601.5977" style="stroke: #696969; stroke-width: 1.0;"/><line style="stroke: #696969; stroke-width: 1.5;" x1="340.5" x2="340.5" y1="238.4688" y2="289.6094"/><polygon fill="#696969" points="336.5,279.6094,340.5,289.6094,344.5,279.6094,340.5,283.6094" style="stroke: #696969; stroke-width: 1.0;"/><line style="stroke: #696969; stroke-width: 1.5;" x1="340.5" x2="340.5" y1="669.5977" y2="689.5977"/><polygon fill="#696969" points="336.5,679.5977,340.5,689.5977,344.5,679.5977,340.5,683.5977" style="stroke: #696969; stroke-width: 1.0;"/><line style="stroke: #696969; stroke-width: 1.5;" x1="386.5" x2="408.5" y1="657.5977" y2="657.5977"/><polygon fill="#696969" points="398.5,653.5977,408.5,657.5977,398.5,661.5977,402.5,657.5977" style="stroke: #696969; stroke-width: 1.0;"/><line style="stroke: #696969; stroke-width: 1.5;" x1="340.5" x2="340.5" y1="613.5977" y2="645.5977"/><polygon fill="#696969" points="336.5,635.5977,340.5,645.5977,344.5,635.5977,340.5,639.5977" style="stroke: #696969; stroke-width: 1.0;"/><line style="stroke: #696969; stroke-width: 1.5;" x1="340.5" x2="340.5" y1="724.6914" y2="748.4961"/><polygon fill="#696969" points="336.5,738.4961,340.5,748.4961,344.5,738.4961,340.5,742.4961" style="stroke: #696969; stroke-width: 1.0;"/><line style="stroke: #696969; stroke-width: 1.5;" x1="340.5" x2="340.5" y1="783.5898" y2="807.3945"/><polygon fill="#696969" points="336.5,797.3945,340.5,807.3945,344.5,797.3945,340.5,801.3945" style="stroke: #696969; stroke-width: 1.0;"/><line style="stroke: #696969; stroke-width: 1.5;" x1="725.5" x2="725.5" y1="532.4844" y2="567.4844"/><polygon fill="#696969" points="721.5,557.4844,725.5,567.4844,729.5,557.4844,725.5,561.4844" style="stroke: #696969; stroke-width: 1.0;"/><line style="stroke: #696969; stroke-width: 1.5;" x1="340.5" x2="340.5" y1="131.375" y2="151.375"/><polygon fill="#696969" points="336.5,141.375,340.5,151.375,344.5,141.375,340.5,145.375" style="stroke: #696969; stroke-width: 1.0;"/><line style="stroke: #696969; stroke-width: 1.5;" x1="725.5" x2="725.5" y1="131.375" y2="497.3906"/><polygon fill="#696969" points="721.5,487.3906,725.5,497.3906,729.5,487.3906,725.5,491.3906" style="stroke: #696969; stroke-width: 1.0;"/><line style="stroke: #696969; stroke-width: 1.5;" x1="340.5" x2="340.5" y1="842.4883" y2="866.293"/><polygon fill="#696969" points="336.5,856.293,340.5,866.293,344.5,856.293,340.5,860.293" style="stroke: #696969; stroke-width: 1.0;"/><line style="stroke: #696969; stroke-width: 1.5;" x1="725.5" x2="725.5" y1="602.5781" y2="866.293"/><polygon fill="#696969" points="721.5,856.293,725.5,866.293,729.5,856.293,725.5,860.293" style="stroke: #696969; stroke-width: 1.0;"/><line style="stroke: #696969; stroke-width: 1.5;" x1="395" x2="395" y1="105.375" y2="125.375"/><polygon fill="#696969" points="391,115.375,395,125.375,399,115.375,395,119.375" style="stroke: #696969; stroke-width: 1.0;"/><line style="stroke: #696969; stroke-width: 1.5;" x1="395" x2="395" y1="872.293" y2="904.2734"/><polygon fill="#696969" points="391,894.2734,395,904.2734,399,894.2734,395,898.2734" style="stroke: #696969; stroke-width: 1.0;"/><line style="stroke: #696969; stroke-width: 1.5;" x1="395" x2="395" y1="939.3672" y2="981.3477"/><polygon fill="#696969" points="391,971.3477,395,981.3477,399,971.3477,395,975.3477" style="stroke: #696969; stroke-width: 1.0;"/><text fill="#000080" font-family="sans-serif" font-size="14" lengthAdjust="spacingAndGlyphs" textLength="42" x="10" y="1029.9746">©2019</text><a target="_top" xlink:actuate="onRequest" xlink:href="http://www.lifestylesunlimited.com" xlink:show="new" xlink:title="http://www.lifestylesunlimited.com" xlink:type="simple"><text fill="#0000FF" font-family="sans-serif" font-size="14" lengthAdjust="spacingAndGlyphs" text-decoration="underline" textLength="122" x="56" y="1029.9746">LifeStyles Unlimited</text><line style="stroke: #0000FF; stroke-width: 1.0;" x1="56" x2="178" y1="1031.9746" y2="1031.9746"/></a><text fill="#000080" font-family="sans-serif" font-size="14" lengthAdjust="spacingAndGlyphs" textLength="279" x="182" y="1029.9746">| Generated Sun Apr 28 21:11:14 CDT 2019</text><!--
@startuml due-diligence


skinparam {
  BorderColor Red
  PathHoverColor Blue
}

skinparam Title {
  FontColor Navy
  BackgroundColor PaleGoldenRod
  BorderColor Navy
  BorderRoundCorner 20
  FontSize 24
}

skinparam activity {
  BackgroundColor Ivory
  BorderColor CornflowerBlue
  BorderThickness 1
  FontColor DimGray
  

  Arrow {
    Color dimgray
    FontColor dimgray
  }

  Start {
    Color PHYSICAL
  }

  End {
    Color Coral
  }

  Diamond {
    BackgroundColor Ivory
    BorderColor CornflowerBlue
    FontColor DarkGray
  }

  BackgroundColor<< Exception >> Red
	BorderColor<< Exception >> White
}

skinparam Swimlane {
  BorderColor CornflowerBlue 
}

skinparam Partition {
  BackgroundColor Ivory
  BorderColor CornflowerBlue
  BorderThickness 1
  FontColor CornflowerBlue
  FontSize 16
  BorderRoundCorner 20
}

skinparam Note {
  BackgroundColor LightSteelBlue
  BorderColor CornflowerBlue
  FontColor White
}

skinparam Legend {
  BackgroundColor LightSteelBlue
  BorderColor CornflowerBlue
  FontColor White
}

skinparam Footer {
  FontColor Navy
}


left header 
	<font color=Navy size=24>[[../index.svg?sanitize=true ⌂ Home]]</font>
endheader


	Title Due Diligence (Inspection)


	start

	fork 
		fork
			:turn on electric;
			fork again
			:turn on gas;
			fork again
			:turn on water;
		end fork
		partition "Cost-Free Steps" {
			fork
				:generate detailed scope of work;
				:general contractor 1 inspection;
				:general contractor 2 inspection;
				:general contractor 3 inspection;
				fork again
				:roofer inspection;
				if (bad) then (yes)
					:roofer 2 inspection;
					:roofer 3 inspection;
				endif
				fork again
				:foundation inspection;
				if (bad)
					:foundation 2 inspection;
					:foundation 3 inspection;
				endif
			end fork
		}
		if(too expensive)
			stop
		endif
		:plumber static test ($150);
		note right
			what is failure?
			what to do upon failure?
		end note
		:termite inspection ($75-100);
		note right
			what is failure?
			what to do upon failure?
		end note
		:inspector ($200);
		note right
			what is failure?
			what to do upon failure?
		end note
		fork again
			:7-10 Days>
			#LightPink:Time is out;
		
	end fork
	:get final repair cost;
	note right
		San Antonio $15-25k
		====
		Houston $k
		====
		DFW $30k
	end note
	[[evaluating.svg?sanitize=true]]#LightSkyBlue:evaluate;
	note right: analyse
	


left footer 
	<font size=14>©2019 [[http://www.lifestylesunlimited.com LifeStyles Unlimited]] | Generated Sun Apr 28 21:11:14 CDT 2019</font>
endfooter


@enduml

PlantUML version 1.2019.03(Sun Mar 10 06:04:44 CDT 2019)
(GPL source distribution)
Java Runtime: Java(TM) SE Runtime Environment
JVM: Java HotSpot(TM) 64-Bit Server VM
Java Version: 1.8.0_111-b14
Operating System: Windows 10
OS Version: 10.0
Default Encoding: Cp1252
Language: en
Country: US
--></g></svg>