<?xml version="1.0" encoding="UTF-8" standalone="no"?><svg xmlns="http://www.w3.org/2000/svg" xmlns:xlink="http://www.w3.org/1999/xlink" contentScriptType="application/ecmascript" contentStyleType="text/css" height="1305px" preserveAspectRatio="none" style="width:861px;height:1305px;" version="1.1" viewBox="0 0 861 1305" width="861px" zoomAndPan="magnify"><defs><style type="text/css"><![CDATA[path:hover { stroke: #0000FF !important;}]]></style><filter height="300%" id="f16vwaoe8nurl2" width="300%" x="-1" y="-1"><feGaussianBlur result="blurOut" stdDeviation="2.0"/><feColorMatrix in="blurOut" result="blurOut2" type="matrix" values="0 0 0 0 0 0 0 0 0 0 0 0 0 0 0 0 0 0 .4 0"/><feOffset dx="4.0" dy="4.0" in="blurOut2" result="blurOut3"/><feBlend in="SourceGraphic" in2="blurOut3" mode="normal"/></filter></defs><g><a target="_top" xlink:actuate="onRequest" xlink:href="../index.svg?sanitize=true" xlink:show="new" xlink:title="../index.svg?sanitize=true" xlink:type="simple"><text fill="#0000FF" font-family="sans-serif" font-size="24" lengthAdjust="spacingAndGlyphs" text-decoration="underline" textLength="90" x="10" y="34.9141">⌂ Home</text><line style="stroke: #0000FF; stroke-width: 1.0;" x1="10" x2="100" y1="36.9141" y2="36.9141"/></a><rect fill="#EEE8AA" height="70.375" rx="10" ry="10" style="stroke: #000080; stroke-width: 1.5;" width="166" x="346.25" y="42.1875"/><text fill="#000080" font-family="sans-serif" font-size="24" lengthAdjust="spacingAndGlyphs" textLength="150" x="354.25" y="72.1016">Due Diligence</text><text fill="#000080" font-family="sans-serif" font-size="24" lengthAdjust="spacingAndGlyphs" textLength="126" x="366.25" y="102.2891">(Inspection)</text><ellipse cx="428" cy="125.5625" fill="#CCFFCC" filter="url(#f16vwaoe8nurl2)" rx="10" ry="10" style="stroke: none; stroke-width: 1.0;"/><rect fill="#000000" filter="url(#f16vwaoe8nurl2)" height="6" rx="2.5" ry="2.5" style="stroke: #000000; stroke-width: 1.0;" width="836" x="10" y="155.5625"/><rect fill="#000000" filter="url(#f16vwaoe8nurl2)" height="6" rx="2.5" ry="2.5" style="stroke: #000000; stroke-width: 1.0;" width="357" x="195" y="181.5625"/><rect fill="#FFFFF0" filter="url(#f16vwaoe8nurl2)" height="35.0938" rx="12.5" ry="12.5" style="stroke: #6495ED; stroke-width: 1.0;" width="100" x="209" y="207.5625"/><text fill="#696969" font-family="sans-serif" font-size="12" lengthAdjust="spacingAndGlyphs" textLength="80" x="219" y="230.0195">turn on electric</text><rect fill="#FFFFF0" filter="url(#f16vwaoe8nurl2)" height="35.0938" rx="12.5" ry="12.5" style="stroke: #6495ED; stroke-width: 1.0;" width="82" x="337" y="207.5625"/><text fill="#696969" font-family="sans-serif" font-size="12" lengthAdjust="spacingAndGlyphs" textLength="62" x="347" y="230.0195">turn on gas</text><rect fill="#FFFFF0" filter="url(#f16vwaoe8nurl2)" height="35.0938" rx="12.5" ry="12.5" style="stroke: #6495ED; stroke-width: 1.0;" width="91" x="447" y="207.5625"/><text fill="#696969" font-family="sans-serif" font-size="12" lengthAdjust="spacingAndGlyphs" textLength="71" x="457" y="230.0195">turn on water</text><rect fill="#000000" filter="url(#f16vwaoe8nurl2)" height="6" rx="2.5" ry="2.5" style="stroke: #000000; stroke-width: 1.0;" width="357" x="195" y="262.6563"/><rect fill="#FFFFF0" filter="url(#f16vwaoe8nurl2)" height="431.3984" style="stroke: #6495ED; stroke-width: 1.0;" width="699" x="24" y="279.6719"/><path d="M150,280.6719 L150,292.7969 L140,302.7969 L24,302.7969 " fill="none" style="stroke: #6495ED; stroke-width: 1.0;"/><text fill="#6495ED" font-family="sans-serif" font-size="16" lengthAdjust="spacingAndGlyphs" textLength="116" x="27" y="297.2813">Cost-Free Steps</text><rect fill="#000000" filter="url(#f16vwaoe8nurl2)" height="6" rx="2.5" ry="2.5" style="stroke: #000000; stroke-width: 1.0;" width="679" x="34" y="319.7969"/><path d="M217,341.9922 L217,359.3438 L197,363.3438 L217,367.3438 L217,384.6953 A0,0 0 0 0 217,384.6953 L309,384.6953 A0,0 0 0 0 309,384.6953 L309,351.9922 L299,341.9922 L217,341.9922 A0,0 0 0 0 217,341.9922 " fill="#B0C4DE" filter="url(#f16vwaoe8nurl2)" style="stroke: #6495ED; stroke-width: 1.0;"/><path d="M299,341.9922 L299,351.9922 L309,351.9922 L299,341.9922 " fill="#B0C4DE" style="stroke: #6495ED; stroke-width: 1.0;"/><text fill="#FFFFFF" font-family="sans-serif" font-size="13" lengthAdjust="spacingAndGlyphs" textLength="50" x="223" y="360.4873">see form</text><text fill="#FFFFFF" font-family="sans-serif" font-size="13" lengthAdjust="spacingAndGlyphs" textLength="71" x="223" y="376.8389">very specific</text><rect fill="#FFFFF0" filter="url(#f16vwaoe8nurl2)" height="35.0938" style="stroke: #6495ED; stroke-width: 1.0;" width="109" x="88" y="345.7969"/><path d="M104,360.8906 L104,362.8906 L99,362.8906 L99,364.8906 L104,364.8906 L104,366.8906 L107,363.8596 L104,360.8906 " fill="#696969" style="stroke: ; stroke-width: 0.0; stroke-dasharray: ;"/><text fill="#696969" font-family="sans-serif" font-size="12" lengthAdjust="spacingAndGlyphs" textLength="76" x="111" y="368.2539">scope of work</text><rect fill="#FFFFF0" filter="url(#f16vwaoe8nurl2)" height="35.0938" rx="12.5" ry="12.5" style="stroke: #6495ED; stroke-width: 1.0;" width="189" x="48" y="419.6953"/><text fill="#696969" font-family="sans-serif" font-size="12" lengthAdjust="spacingAndGlyphs" textLength="169" x="58" y="442.1523">general contractor 1 inspection</text><rect fill="#FFFFF0" filter="url(#f16vwaoe8nurl2)" height="35.0938" style="stroke: #6495ED; stroke-width: 1.0;" width="113" x="86" y="489.7891"/><path d="M100,504.8828 L97,507.9138 L100,510.8828 L100,508.8828 L105,508.8828 L105,506.8828 L100,506.8828 L100,504.8828 " fill="#696969" style="stroke: ; stroke-width: 0.0; stroke-dasharray: ;"/><text fill="#696969" font-family="sans-serif" font-size="12" lengthAdjust="spacingAndGlyphs" textLength="80" x="109" y="512.2461">client estimate</text><rect fill="#FFFFF0" filter="url(#f16vwaoe8nurl2)" height="35.0938" rx="12.5" ry="12.5" style="stroke: #6495ED; stroke-width: 1.0;" width="189" x="48" y="559.8828"/><text fill="#696969" font-family="sans-serif" font-size="12" lengthAdjust="spacingAndGlyphs" textLength="169" x="58" y="582.3398">general contractor 2 inspection</text><rect fill="#FFFFF0" filter="url(#f16vwaoe8nurl2)" height="35.0938" rx="12.5" ry="12.5" style="stroke: #6495ED; stroke-width: 1.0;" width="189" x="48" y="629.9766"/><text fill="#696969" font-family="sans-serif" font-size="12" lengthAdjust="spacingAndGlyphs" textLength="169" x="58" y="652.4336">general contractor 3 inspection</text><rect fill="#FFFFF0" filter="url(#f16vwaoe8nurl2)" height="35.0938" rx="12.5" ry="12.5" style="stroke: #6495ED; stroke-width: 1.0;" width="112" x="352" y="366.9727"/><text fill="#696969" font-family="sans-serif" font-size="12" lengthAdjust="spacingAndGlyphs" textLength="92" x="362" y="389.4297">roofer inspection</text><rect fill="#FFFFF0" filter="url(#f16vwaoe8nurl2)" height="35.0938" rx="12.5" ry="12.5" style="stroke: #6495ED; stroke-width: 1.0;" width="122" x="347" y="485.9844"/><text fill="#696969" font-family="sans-serif" font-size="12" lengthAdjust="spacingAndGlyphs" textLength="102" x="357" y="508.4414">roofer 2 inspection</text><rect fill="#FFFFF0" filter="url(#f16vwaoe8nurl2)" height="35.0938" rx="12.5" ry="12.5" style="stroke: #6495ED; stroke-width: 1.0;" width="122" x="347" y="556.0781"/><text fill="#696969" font-family="sans-serif" font-size="12" lengthAdjust="spacingAndGlyphs" textLength="102" x="357" y="578.5352">roofer 3 inspection</text><polygon fill="#FFFFF0" filter="url(#f16vwaoe8nurl2)" points="396,437.0664,420,437.0664,432,449.0664,420,461.0664,396,461.0664,384,449.0664,396,437.0664" style="stroke: #6495ED; stroke-width: 1.0;"/><text fill="#696969" font-family="sans-serif" font-size="11" lengthAdjust="spacingAndGlyphs" textLength="18" x="412" y="472.4854">yes</text><text fill="#A9A9A9" font-family="sans-serif" font-size="11" lengthAdjust="spacingAndGlyphs" textLength="18" x="399" y="453.5674">bad</text><polygon fill="#FFFFF0" filter="url(#f16vwaoe8nurl2)" points="408,616.0898,420,628.0898,408,640.0898,396,628.0898,408,616.0898" style="stroke: #6495ED; stroke-width: 1.0;"/><rect fill="#FFFFF0" filter="url(#f16vwaoe8nurl2)" height="35.0938" rx="12.5" ry="12.5" style="stroke: #6495ED; stroke-width: 1.0;" width="138" x="534" y="367.8906"/><text fill="#696969" font-family="sans-serif" font-size="12" lengthAdjust="spacingAndGlyphs" textLength="118" x="544" y="390.3477">foundation inspection</text><rect fill="#FFFFF0" filter="url(#f16vwaoe8nurl2)" height="35.0938" rx="12.5" ry="12.5" style="stroke: #6495ED; stroke-width: 1.0;" width="148" x="529" y="485.9844"/><text fill="#696969" font-family="sans-serif" font-size="12" lengthAdjust="spacingAndGlyphs" textLength="128" x="539" y="508.4414">foundation 2 inspection</text><rect fill="#FFFFF0" filter="url(#f16vwaoe8nurl2)" height="35.0938" rx="12.5" ry="12.5" style="stroke: #6495ED; stroke-width: 1.0;" width="148" x="529" y="556.0781"/><text fill="#696969" font-family="sans-serif" font-size="12" lengthAdjust="spacingAndGlyphs" textLength="128" x="539" y="578.5352">foundation 3 inspection</text><polygon fill="#FFFFF0" filter="url(#f16vwaoe8nurl2)" points="591,437.9844,615,437.9844,627,449.9844,615,461.9844,591,461.9844,579,449.9844,591,437.9844" style="stroke: #6495ED; stroke-width: 1.0;"/><text fill="#A9A9A9" font-family="sans-serif" font-size="11" lengthAdjust="spacingAndGlyphs" textLength="18" x="594" y="454.4854">bad</text><polygon fill="#FFFFF0" filter="url(#f16vwaoe8nurl2)" points="603,615.1719,615,627.1719,603,639.1719,591,627.1719,603,615.1719" style="stroke: #6495ED; stroke-width: 1.0;"/><rect fill="#000000" filter="url(#f16vwaoe8nurl2)" height="6" rx="2.5" ry="2.5" style="stroke: #000000; stroke-width: 1.0;" width="679" x="34" y="685.0703"/><polygon fill="#FFFFF0" filter="url(#f16vwaoe8nurl2)" points="339.5,731.0703,407.5,731.0703,419.5,743.0703,407.5,755.0703,339.5,755.0703,327.5,743.0703,339.5,731.0703" style="stroke: #6495ED; stroke-width: 1.0;"/><text fill="#A9A9A9" font-family="sans-serif" font-size="11" lengthAdjust="spacingAndGlyphs" textLength="68" x="339.5" y="747.5713">too expensive</text><ellipse cx="452.5" cy="743.0703" fill="#FFFFFF" filter="url(#f16vwaoe8nurl2)" rx="11" ry="11" style="stroke: #FF7F50; stroke-width: 1.0;"/><ellipse cx="452.5" cy="743.0703" fill="#FF7F50" rx="6" ry="6" style="stroke: #FFBFA7; stroke-width: 1.0;"/><path d="M485,765.0703 L485,803.7734 L465,807.7734 L485,811.7734 L485,850.4766 A0,0 0 0 0 485,850.4766 L656,850.4766 A0,0 0 0 0 656,850.4766 L656,775.0703 L646,765.0703 L485,765.0703 A0,0 0 0 0 485,765.0703 " fill="#B0C4DE" filter="url(#f16vwaoe8nurl2)" style="stroke: #6495ED; stroke-width: 1.0;"/><path d="M646,765.0703 L646,775.0703 L656,775.0703 L646,765.0703 " fill="#B0C4DE" style="stroke: #6495ED; stroke-width: 1.0;"/><text fill="#FFFFFF" font-family="sans-serif" font-size="13" lengthAdjust="spacingAndGlyphs" textLength="80" x="491" y="783.5654">leakdown test</text><text fill="#FFFFFF" font-family="sans-serif" font-size="13" lengthAdjust="spacingAndGlyphs" textLength="75" x="491" y="799.917">uses camera</text><line style="stroke: #6495ED; stroke-width: 1.0;" x1="485" x2="656" y1="807.7734" y2="807.7734"/><ellipse cx="496.5" cy="821.625" fill="#FFFFFF" rx="2.5" ry="2.5" style="stroke: #FFFFFF; stroke-width: 0.0;"/><text fill="#FFFFFF" font-family="sans-serif" font-size="13" lengthAdjust="spacingAndGlyphs" textLength="86" x="504" y="826.2686">what is failure?</text><ellipse cx="496.5" cy="837.9766" fill="#FFFFFF" rx="2.5" ry="2.5" style="stroke: #FFFFFF; stroke-width: 0.0;"/><text fill="#FFFFFF" font-family="sans-serif" font-size="13" lengthAdjust="spacingAndGlyphs" textLength="137" x="504" y="842.6201">what to do upon failure?</text><rect fill="#CCFFCC" filter="url(#f16vwaoe8nurl2)" height="35.0938" rx="12.5" ry="12.5" style="stroke: #6495ED; stroke-width: 1.0;" width="183" x="282" y="790.2266"/><path d="M296,804.3203 L296,805.3203 L295.25,805.3203 C294.564,805.3203 294,805.8843 294,806.5703 L294,807.0703 C294,807.7483 294.437,808.3123 295.094,808.4763 L297.657,809.1323 C297.8,809.1683 298.001,809.4283 298.001,809.5703 L298.001,810.0703 C298.001,810.2043 297.885,810.3203 297.751,810.3203 L295.251,810.3203 C295.135,810.3203 295.039,810.2833 295.001,810.2573 L295.001,809.3193 L294.001,809.3193 L294.001,810.3193 C294.001,810.6613 294.204,810.9463 294.439,811.1003 C294.673,811.2553 294.957,811.3193 295.252,811.3193 L296.002,811.3193 L296.002,812.3193 L297.002,812.3193 L297.002,811.3193 L297.752,811.3193 C298.438,811.3193 299.002,810.7553 299.002,810.0693 L299.002,809.5693 C299.002,808.8913 298.565,808.3273 297.908,808.1633 L295.345,807.5073 C295.202,807.4713 295.001,807.2113 295.001,807.0693 L295.001,806.5693 C295.001,806.4353 295.117,806.3193 295.251,806.3193 L297.751,806.3193 C297.867,806.3193 297.963,806.3563 298.001,806.3823 L298.001,807.3203 L299.001,807.3203 L299.001,806.3203 C299.001,805.9783 298.798,805.6933 298.563,805.5393 C298.329,805.3843 298.045,805.3203 297.75,805.3203 L297,805.3203 L297,804.3203 L296,804.3203 " fill="#696969" style="stroke: ; stroke-width: 0.0; stroke-dasharray: ;"/><text fill="#696969" font-family="sans-serif" font-size="12" lengthAdjust="spacingAndGlyphs" textLength="150" x="305" y="812.6836">plumber static test 150-200</text><path d="M471,866.6719 L471,884.0234 L451,888.0234 L471,892.0234 L471,909.375 A0,0 0 0 0 471,909.375 L642,909.375 A0,0 0 0 0 642,909.375 L642,876.6719 L632,866.6719 L471,866.6719 A0,0 0 0 0 471,866.6719 " fill="#B0C4DE" filter="url(#f16vwaoe8nurl2)" style="stroke: #6495ED; stroke-width: 1.0;"/><path d="M632,866.6719 L632,876.6719 L642,876.6719 L632,866.6719 " fill="#B0C4DE" style="stroke: #6495ED; stroke-width: 1.0;"/><ellipse cx="482.5" cy="880.5234" fill="#FFFFFF" rx="2.5" ry="2.5" style="stroke: #FFFFFF; stroke-width: 0.0;"/><text fill="#FFFFFF" font-family="sans-serif" font-size="13" lengthAdjust="spacingAndGlyphs" textLength="86" x="490" y="885.167">what is failure?</text><ellipse cx="482.5" cy="896.875" fill="#FFFFFF" rx="2.5" ry="2.5" style="stroke: #FFFFFF; stroke-width: 0.0;"/><text fill="#FFFFFF" font-family="sans-serif" font-size="13" lengthAdjust="spacingAndGlyphs" textLength="137" x="490" y="901.5186">what to do upon failure?</text><rect fill="#CCFFCC" filter="url(#f16vwaoe8nurl2)" height="35.0938" rx="12.5" ry="12.5" style="stroke: #6495ED; stroke-width: 1.0;" width="155" x="296" y="870.4766"/><path d="M310,884.5703 L310,885.5703 L309.25,885.5703 C308.564,885.5703 308,886.1343 308,886.8203 L308,887.3203 C308,887.9983 308.437,888.5623 309.094,888.7263 L311.657,889.3823 C311.8,889.4183 312.001,889.6783 312.001,889.8203 L312.001,890.3203 C312.001,890.4543 311.885,890.5703 311.751,890.5703 L309.251,890.5703 C309.135,890.5703 309.039,890.5333 309.001,890.5073 L309.001,889.5693 L308.001,889.5693 L308.001,890.5693 C308.001,890.9113 308.204,891.1963 308.439,891.3503 C308.673,891.5053 308.957,891.5693 309.252,891.5693 L310.002,891.5693 L310.002,892.5693 L311.002,892.5693 L311.002,891.5693 L311.752,891.5693 C312.438,891.5693 313.002,891.0053 313.002,890.3193 L313.002,889.8193 C313.002,889.1413 312.565,888.5773 311.908,888.4133 L309.345,887.7573 C309.202,887.7213 309.001,887.4613 309.001,887.3193 L309.001,886.8193 C309.001,886.6853 309.117,886.5693 309.251,886.5693 L311.751,886.5693 C311.867,886.5693 311.963,886.6063 312.001,886.6323 L312.001,887.5703 L313.001,887.5703 L313.001,886.5703 C313.001,886.2283 312.798,885.9433 312.563,885.7893 C312.329,885.6343 312.045,885.5703 311.75,885.5703 L311,885.5703 L311,884.5703 L310,884.5703 " fill="#696969" style="stroke: ; stroke-width: 0.0; stroke-dasharray: ;"/><text fill="#696969" font-family="sans-serif" font-size="12" lengthAdjust="spacingAndGlyphs" textLength="122" x="319" y="892.9336">termite inspection 300</text><path d="M447.5,919.375 L447.5,966.2539 L427.5,970.2539 L447.5,974.2539 L447.5,1021.1328 A0,0 0 0 0 447.5,1021.1328 L661.5,1021.1328 A0,0 0 0 0 661.5,1021.1328 L661.5,929.375 L651.5,919.375 L447.5,919.375 A0,0 0 0 0 447.5,919.375 " fill="#B0C4DE" filter="url(#f16vwaoe8nurl2)" style="stroke: #6495ED; stroke-width: 1.0;"/><path d="M651.5,919.375 L651.5,929.375 L661.5,929.375 L651.5,919.375 " fill="#B0C4DE" style="stroke: #6495ED; stroke-width: 1.0;"/><text fill="#FFFFFF" font-family="sans-serif" font-size="13" lengthAdjust="spacingAndGlyphs" textLength="106" x="453.5" y="937.8701">gives work needed</text><text fill="#FFFFFF" font-family="sans-serif" font-size="13" lengthAdjust="spacingAndGlyphs" textLength="171" x="453.5" y="954.2217">to bring up to this year's code</text><text fill="#FFFFFF" font-family="sans-serif" font-size="13" lengthAdjust="spacingAndGlyphs" textLength="193" x="453.5" y="970.5732">some things are grand-fathered in</text><line style="stroke: #6495ED; stroke-width: 1.0;" x1="447.5" x2="661.5" y1="978.4297" y2="978.4297"/><ellipse cx="459" cy="992.2813" fill="#FFFFFF" rx="2.5" ry="2.5" style="stroke: #FFFFFF; stroke-width: 0.0;"/><text fill="#FFFFFF" font-family="sans-serif" font-size="13" lengthAdjust="spacingAndGlyphs" textLength="86" x="466.5" y="996.9248">what is failure?</text><ellipse cx="459" cy="1008.6328" fill="#FFFFFF" rx="2.5" ry="2.5" style="stroke: #FFFFFF; stroke-width: 0.0;"/><text fill="#FFFFFF" font-family="sans-serif" font-size="13" lengthAdjust="spacingAndGlyphs" textLength="137" x="466.5" y="1013.2764">what to do upon failure?</text><rect fill="#CCFFCC" filter="url(#f16vwaoe8nurl2)" height="35.0938" rx="12.5" ry="12.5" style="stroke: #6495ED; stroke-width: 1.0;" width="108" x="319.5" y="952.707"/><path d="M333.5,966.8008 L333.5,967.8008 L332.75,967.8008 C332.064,967.8008 331.5,968.3648 331.5,969.0508 L331.5,969.5508 C331.5,970.2288 331.937,970.7928 332.594,970.9568 L335.157,971.6128 C335.3,971.6488 335.501,971.9088 335.501,972.0508 L335.501,972.5508 C335.501,972.6848 335.385,972.8008 335.251,972.8008 L332.751,972.8008 C332.635,972.8008 332.539,972.7638 332.501,972.7378 L332.501,971.7998 L331.501,971.7998 L331.501,972.7998 C331.501,973.1418 331.704,973.4268 331.939,973.5808 C332.173,973.7358 332.457,973.7998 332.752,973.7998 L333.502,973.7998 L333.502,974.7998 L334.502,974.7998 L334.502,973.7998 L335.252,973.7998 C335.938,973.7998 336.502,973.2358 336.502,972.5498 L336.502,972.0498 C336.502,971.3718 336.065,970.8078 335.408,970.6438 L332.845,969.9878 C332.702,969.9518 332.501,969.6918 332.501,969.5498 L332.501,969.0498 C332.501,968.9158 332.617,968.7998 332.751,968.7998 L335.251,968.7998 C335.367,968.7998 335.463,968.8368 335.501,968.8628 L335.501,969.8008 L336.501,969.8008 L336.501,968.8008 C336.501,968.4588 336.298,968.1738 336.063,968.0198 C335.829,967.8648 335.545,967.8008 335.25,967.8008 L334.5,967.8008 L334.5,966.8008 L333.5,966.8008 " fill="#696969" style="stroke: ; stroke-width: 0.0; stroke-dasharray: ;"/><text fill="#696969" font-family="sans-serif" font-size="12" lengthAdjust="spacingAndGlyphs" textLength="75" x="342.5" y="975.1641">inspector 200</text><polygon fill="#FFFFF0" filter="url(#f16vwaoe8nurl2)" points="753.5,600.7617,829.5,600.7617,839.5,618.3086,829.5,635.8555,753.5,635.8555" style="stroke: #6495ED; stroke-width: 1.0;"/><text fill="#696969" font-family="sans-serif" font-size="12" lengthAdjust="spacingAndGlyphs" textLength="56" x="763.5" y="623.2188">7-10 Days</text><rect fill="#FFB6C1" filter="url(#f16vwaoe8nurl2)" height="35.0938" rx="12.5" ry="12.5" style="stroke: #6495ED; stroke-width: 1.0;" width="81" x="751" y="670.8555"/><text fill="#696969" font-family="sans-serif" font-size="12" lengthAdjust="spacingAndGlyphs" textLength="61" x="761" y="693.3125">Time is out</text><rect fill="#000000" filter="url(#f16vwaoe8nurl2)" height="6" rx="2.5" ry="2.5" style="stroke: #000000; stroke-width: 1.0;" width="836" x="10" y="1041.1328"/><path d="M181,1067.3086 L181,1142.7148 L356,1142.7148 L356,1077.3086 L346,1067.3086 L181,1067.3086 " fill="#B0C4DE" filter="url(#f16vwaoe8nurl2)" style="stroke: #6495ED; stroke-width: 1.0;"/><path d="M346,1067.3086 L346,1077.3086 L356,1077.3086 L346,1067.3086 " fill="#B0C4DE" style="stroke: #6495ED; stroke-width: 1.0;"/><text fill="#FFFFFF" font-family="sans-serif" font-size="13" lengthAdjust="spacingAndGlyphs" textLength="103" x="187" y="1085.8037">that's ~ 10 people</text><text fill="#FFFFFF" font-family="sans-serif" font-size="13" lengthAdjust="spacingAndGlyphs" textLength="144" x="187" y="1102.1553">the realtor needs to let in</text><text fill="#FFFFFF" font-family="sans-serif" font-size="13" lengthAdjust="spacingAndGlyphs" textLength="85" x="187" y="1118.5068">too much work</text><text fill="#FFFFFF" font-family="sans-serif" font-size="13" lengthAdjust="spacingAndGlyphs" textLength="154" x="187" y="1134.8584">they will quit after this deal</text><path d="M500,1057.1328 L500,1152.8906 L692,1152.8906 L692,1067.1328 L682,1057.1328 L500,1057.1328 " fill="#B0C4DE" filter="url(#f16vwaoe8nurl2)" style="stroke: #6495ED; stroke-width: 1.0;"/><path d="M682,1057.1328 L682,1067.1328 L692,1067.1328 L682,1057.1328 " fill="#B0C4DE" style="stroke: #6495ED; stroke-width: 1.0;"/><text fill="#FFFFFF" font-family="sans-serif" font-size="13" font-weight="bold" lengthAdjust="spacingAndGlyphs" textLength="24" x="510" y="1077.6279">City</text><text fill="#FFFFFF" font-family="sans-serif" font-size="13" font-weight="bold" lengthAdjust="spacingAndGlyphs" textLength="48" x="589" y="1077.6279">Repairs</text><text fill="#FFFFFF" font-family="sans-serif" font-size="13" lengthAdjust="spacingAndGlyphs" textLength="71" x="510" y="1093.9795">San Antonio</text><text fill="#FFFFFF" font-family="sans-serif" font-size="13" lengthAdjust="spacingAndGlyphs" textLength="46" x="589" y="1093.9795">$15-25k</text><text fill="#FFFFFF" font-family="sans-serif" font-size="13" lengthAdjust="spacingAndGlyphs" textLength="48" x="510" y="1110.3311">Houston</text><text fill="#FFFFFF" font-family="sans-serif" font-size="13" lengthAdjust="spacingAndGlyphs" textLength="14" x="589" y="1110.3311">$k</text><text fill="#FFFFFF" font-family="sans-serif" font-size="13" lengthAdjust="spacingAndGlyphs" textLength="30" x="510" y="1126.6826">DFW</text><text fill="#FFFFFF" font-family="sans-serif" font-size="13" lengthAdjust="spacingAndGlyphs" textLength="28" x="589" y="1126.6826">$30k</text><line style="stroke: #FFFFFF; stroke-width: 1.0;" x1="506" x2="641" y1="1064.1328" y2="1064.1328"/><line style="stroke: #FFFFFF; stroke-width: 1.0;" x1="506" x2="641" y1="1080.4844" y2="1080.4844"/><line style="stroke: #FFFFFF; stroke-width: 1.0;" x1="506" x2="641" y1="1096.8359" y2="1096.8359"/><line style="stroke: #FFFFFF; stroke-width: 1.0;" x1="506" x2="641" y1="1113.1875" y2="1113.1875"/><line style="stroke: #FFFFFF; stroke-width: 1.0;" x1="506" x2="641" y1="1129.5391" y2="1129.5391"/><line style="stroke: #FFFFFF; stroke-width: 1.0;" x1="506" x2="506" y1="1064.1328" y2="1129.5391"/><line style="stroke: #FFFFFF; stroke-width: 1.0;" x1="585" x2="585" y1="1064.1328" y2="1129.5391"/><line style="stroke: #FFFFFF; stroke-width: 1.0;" x1="641" x2="641" y1="1064.1328" y2="1129.5391"/><text fill="#FFFFFF" font-family="sans-serif" font-size="13" lengthAdjust="spacingAndGlyphs" textLength="171" x="506" y="1145.0342">Is this correct or is this all in?</text><rect fill="#FFFFF0" filter="url(#f16vwaoe8nurl2)" height="35.0938" rx="12.5" ry="12.5" style="stroke: #6495ED; stroke-width: 1.0;" width="124" x="366" y="1087.4648"/><text fill="#696969" font-family="sans-serif" font-size="12" lengthAdjust="spacingAndGlyphs" textLength="104" x="376" y="1109.9219">get final repair cost</text><path d="M523,1177.2617 L523,1186.4375 L503,1190.4375 L523,1194.4375 L523,1203.6133 A0,0 0 0 0 523,1203.6133 L621,1203.6133 A0,0 0 0 0 621,1203.6133 L621,1187.2617 L611,1177.2617 L523,1177.2617 A0,0 0 0 0 523,1177.2617 " fill="#B0C4DE" filter="url(#f16vwaoe8nurl2)" style="stroke: #6495ED; stroke-width: 1.0;"/><path d="M611,1177.2617 L611,1187.2617 L621,1187.2617 L611,1177.2617 " fill="#B0C4DE" style="stroke: #6495ED; stroke-width: 1.0;"/><text fill="#FFFFFF" font-family="sans-serif" font-size="13" lengthAdjust="spacingAndGlyphs" textLength="77" x="529" y="1195.7568">holding costs</text><rect fill="#FFFFF0" filter="url(#f16vwaoe8nurl2)" height="35.0938" rx="12.5" ry="12.5" style="stroke: #6495ED; stroke-width: 1.0;" width="150" x="353" y="1172.8906"/><text fill="#696969" font-family="sans-serif" font-size="12" lengthAdjust="spacingAndGlyphs" textLength="130" x="363" y="1195.3477">get repair time estimate</text><path d="M481,1217.9844 L481,1243.5117 L461,1247.5117 L481,1251.5117 L481,1277.0391 A0,0 0 0 0 481,1277.0391 L612,1277.0391 A0,0 0 0 0 612,1277.0391 L612,1227.9844 L602,1217.9844 L481,1217.9844 A0,0 0 0 0 481,1217.9844 " fill="#B0C4DE" filter="url(#f16vwaoe8nurl2)" style="stroke: #6495ED; stroke-width: 1.0;"/><path d="M602,1217.9844 L602,1227.9844 L612,1227.9844 L602,1217.9844 " fill="#B0C4DE" style="stroke: #6495ED; stroke-width: 1.0;"/><text fill="#FFFFFF" font-family="sans-serif" font-size="13" lengthAdjust="spacingAndGlyphs" textLength="58" x="487" y="1236.4795">analyse &amp;</text><text fill="#FFFFFF" font-family="sans-serif" font-size="13" lengthAdjust="spacingAndGlyphs" textLength="87" x="487" y="1252.8311">make new offer</text><text fill="#FFFFFF" font-family="sans-serif" font-size="13" lengthAdjust="spacingAndGlyphs" textLength="110" x="487" y="1269.1826">based on damages</text><a target="_top" xlink:actuate="onRequest" xlink:href="evaluating.svg?sanitize=true" xlink:show="new" xlink:title="evaluating.svg?sanitize=true" xlink:type="simple"><rect fill="#87CEFA" filter="url(#f16vwaoe8nurl2)" height="35.0938" rx="12.5" ry="12.5" style="stroke: #6495ED; stroke-width: 1.0;" width="66" x="395" y="1229.9648"/><text fill="#696969" font-family="sans-serif" font-size="12" lengthAdjust="spacingAndGlyphs" textLength="46" x="405" y="1252.4219">evaluate</text></a><line style="stroke: #696969; stroke-width: 1.5;" x1="259" x2="259" y1="187.5625" y2="207.5625"/><polygon fill="#696969" points="255,197.5625,259,207.5625,263,197.5625,259,201.5625" style="stroke: #696969; stroke-width: 1.0;"/><line style="stroke: #696969; stroke-width: 1.5;" x1="378" x2="378" y1="187.5625" y2="207.5625"/><polygon fill="#696969" points="374,197.5625,378,207.5625,382,197.5625,378,201.5625" style="stroke: #696969; stroke-width: 1.0;"/><line style="stroke: #696969; stroke-width: 1.5;" x1="492.5" x2="492.5" y1="187.5625" y2="207.5625"/><polygon fill="#696969" points="488.5,197.5625,492.5,207.5625,496.5,197.5625,492.5,201.5625" style="stroke: #696969; stroke-width: 1.0;"/><line style="stroke: #696969; stroke-width: 1.5;" x1="259" x2="259" y1="242.6563" y2="262.6563"/><polygon fill="#696969" points="255,252.6563,259,262.6563,263,252.6563,259,256.6563" style="stroke: #696969; stroke-width: 1.0;"/><line style="stroke: #696969; stroke-width: 1.5;" x1="378" x2="378" y1="242.6563" y2="262.6563"/><polygon fill="#696969" points="374,252.6563,378,262.6563,382,252.6563,378,256.6563" style="stroke: #696969; stroke-width: 1.0;"/><line style="stroke: #696969; stroke-width: 1.5;" x1="492.5" x2="492.5" y1="242.6563" y2="262.6563"/><polygon fill="#696969" points="488.5,252.6563,492.5,262.6563,496.5,252.6563,492.5,256.6563" style="stroke: #696969; stroke-width: 1.0;"/><line style="stroke: #696969; stroke-width: 1.5;" x1="142.5" x2="142.5" y1="380.8906" y2="419.6953"/><polygon fill="#696969" points="138.5,409.6953,142.5,419.6953,146.5,409.6953,142.5,413.6953" style="stroke: #696969; stroke-width: 1.0;"/><line style="stroke: #696969; stroke-width: 1.5;" x1="142.5" x2="142.5" y1="454.7891" y2="489.7891"/><polygon fill="#696969" points="138.5,479.7891,142.5,489.7891,146.5,479.7891,142.5,483.7891" style="stroke: #696969; stroke-width: 1.0;"/><line style="stroke: #696969; stroke-width: 1.5;" x1="142.5" x2="142.5" y1="524.8828" y2="559.8828"/><polygon fill="#696969" points="138.5,549.8828,142.5,559.8828,146.5,549.8828,142.5,553.8828" style="stroke: #696969; stroke-width: 1.0;"/><line style="stroke: #696969; stroke-width: 1.5;" x1="142.5" x2="142.5" y1="594.9766" y2="629.9766"/><polygon fill="#696969" points="138.5,619.9766,142.5,629.9766,146.5,619.9766,142.5,623.9766" style="stroke: #696969; stroke-width: 1.0;"/><line style="stroke: #696969; stroke-width: 1.5;" x1="408" x2="408" y1="521.0781" y2="556.0781"/><polygon fill="#696969" points="404,546.0781,408,556.0781,412,546.0781,408,550.0781" style="stroke: #696969; stroke-width: 1.0;"/><line style="stroke: #696969; stroke-width: 1.5;" x1="408" x2="408" y1="461.0664" y2="485.9844"/><polygon fill="#696969" points="404,475.9844,408,485.9844,412,475.9844,408,479.9844" style="stroke: #696969; stroke-width: 1.0;"/><line style="stroke: #696969; stroke-width: 1.5;" x1="432" x2="479" y1="449.0664" y2="449.0664"/><polygon fill="#696969" points="475,528.5781,479,538.5781,483,528.5781,479,532.5781" style="stroke: #696969; stroke-width: 1.5;"/><line style="stroke: #696969; stroke-width: 1.5;" x1="479" x2="479" y1="449.0664" y2="628.0898"/><line style="stroke: #696969; stroke-width: 1.5;" x1="479" x2="420" y1="628.0898" y2="628.0898"/><polygon fill="#696969" points="430,624.0898,420,628.0898,430,632.0898,426,628.0898" style="stroke: #696969; stroke-width: 1.0;"/><line style="stroke: #696969; stroke-width: 1.5;" x1="408" x2="408" y1="591.1719" y2="616.0898"/><polygon fill="#696969" points="404,606.0898,408,616.0898,412,606.0898,408,610.0898" style="stroke: #696969; stroke-width: 1.0;"/><line style="stroke: #696969; stroke-width: 1.5;" x1="408" x2="408" y1="402.0664" y2="437.0664"/><polygon fill="#696969" points="404,427.0664,408,437.0664,412,427.0664,408,431.0664" style="stroke: #696969; stroke-width: 1.0;"/><line style="stroke: #696969; stroke-width: 1.5;" x1="603" x2="603" y1="521.0781" y2="556.0781"/><polygon fill="#696969" points="599,546.0781,603,556.0781,607,546.0781,603,550.0781" style="stroke: #696969; stroke-width: 1.0;"/><line style="stroke: #696969; stroke-width: 1.5;" x1="603" x2="603" y1="461.9844" y2="485.9844"/><polygon fill="#696969" points="599,475.9844,603,485.9844,607,475.9844,603,479.9844" style="stroke: #696969; stroke-width: 1.0;"/><line style="stroke: #696969; stroke-width: 1.5;" x1="627" x2="687" y1="449.9844" y2="449.9844"/><polygon fill="#696969" points="683,528.5781,687,538.5781,691,528.5781,687,532.5781" style="stroke: #696969; stroke-width: 1.5;"/><line style="stroke: #696969; stroke-width: 1.5;" x1="687" x2="687" y1="449.9844" y2="627.1719"/><line style="stroke: #696969; stroke-width: 1.5;" x1="687" x2="615" y1="627.1719" y2="627.1719"/><polygon fill="#696969" points="625,623.1719,615,627.1719,625,631.1719,621,627.1719" style="stroke: #696969; stroke-width: 1.0;"/><line style="stroke: #696969; stroke-width: 1.5;" x1="603" x2="603" y1="591.1719" y2="615.1719"/><polygon fill="#696969" points="599,605.1719,603,615.1719,607,605.1719,603,609.1719" style="stroke: #696969; stroke-width: 1.0;"/><line style="stroke: #696969; stroke-width: 1.5;" x1="603" x2="603" y1="402.9844" y2="437.9844"/><polygon fill="#696969" points="599,427.9844,603,437.9844,607,427.9844,603,431.9844" style="stroke: #696969; stroke-width: 1.0;"/><line style="stroke: #696969; stroke-width: 1.5;" x1="142.5" x2="142.5" y1="325.7969" y2="345.7969"/><polygon fill="#696969" points="138.5,335.7969,142.5,345.7969,146.5,335.7969,142.5,339.7969" style="stroke: #696969; stroke-width: 1.0;"/><line style="stroke: #696969; stroke-width: 1.5;" x1="408" x2="408" y1="325.7969" y2="366.9727"/><polygon fill="#696969" points="404,356.9727,408,366.9727,412,356.9727,408,360.9727" style="stroke: #696969; stroke-width: 1.0;"/><line style="stroke: #696969; stroke-width: 1.5;" x1="603" x2="603" y1="325.7969" y2="367.8906"/><polygon fill="#696969" points="599,357.8906,603,367.8906,607,357.8906,603,361.8906" style="stroke: #696969; stroke-width: 1.0;"/><line style="stroke: #696969; stroke-width: 1.5;" x1="142.5" x2="142.5" y1="665.0703" y2="685.0703"/><polygon fill="#696969" points="138.5,675.0703,142.5,685.0703,146.5,675.0703,142.5,679.0703" style="stroke: #696969; stroke-width: 1.0;"/><line style="stroke: #696969; stroke-width: 1.5;" x1="408" x2="408" y1="640.0898" y2="685.0703"/><polygon fill="#696969" points="404,675.0703,408,685.0703,412,675.0703,408,679.0703" style="stroke: #696969; stroke-width: 1.0;"/><line style="stroke: #696969; stroke-width: 1.5;" x1="603" x2="603" y1="639.1719" y2="685.0703"/><polygon fill="#696969" points="599,675.0703,603,685.0703,607,675.0703,603,679.0703" style="stroke: #696969; stroke-width: 1.0;"/><line style="stroke: #696969; stroke-width: 1.5;" x1="373.5" x2="373.5" y1="268.6563" y2="319.7969"/><polygon fill="#696969" points="369.5,309.7969,373.5,319.7969,377.5,309.7969,373.5,313.7969" style="stroke: #696969; stroke-width: 1.0;"/><line style="stroke: #696969; stroke-width: 1.5;" x1="373.5" x2="373.5" y1="755.0703" y2="790.2266"/><polygon fill="#696969" points="369.5,780.2266,373.5,790.2266,377.5,780.2266,373.5,784.2266" style="stroke: #696969; stroke-width: 1.0;"/><line style="stroke: #696969; stroke-width: 1.5;" x1="419.5" x2="441.5" y1="743.0703" y2="743.0703"/><polygon fill="#696969" points="431.5,739.0703,441.5,743.0703,431.5,747.0703,435.5,743.0703" style="stroke: #696969; stroke-width: 1.0;"/><line style="stroke: #696969; stroke-width: 1.5;" x1="373.5" x2="373.5" y1="691.0703" y2="731.0703"/><polygon fill="#696969" points="369.5,721.0703,373.5,731.0703,377.5,721.0703,373.5,725.0703" style="stroke: #696969; stroke-width: 1.0;"/><line style="stroke: #696969; stroke-width: 1.5;" x1="373.5" x2="373.5" y1="825.3203" y2="870.4766"/><polygon fill="#696969" points="369.5,860.4766,373.5,870.4766,377.5,860.4766,373.5,864.4766" style="stroke: #696969; stroke-width: 1.0;"/><line style="stroke: #696969; stroke-width: 1.5;" x1="373.5" x2="373.5" y1="905.5703" y2="952.707"/><polygon fill="#696969" points="369.5,942.707,373.5,952.707,377.5,942.707,373.5,946.707" style="stroke: #696969; stroke-width: 1.0;"/><line style="stroke: #696969; stroke-width: 1.5;" x1="791.5" x2="791.5" y1="635.8555" y2="670.8555"/><polygon fill="#696969" points="787.5,660.8555,791.5,670.8555,795.5,660.8555,791.5,664.8555" style="stroke: #696969; stroke-width: 1.0;"/><line style="stroke: #696969; stroke-width: 1.5;" x1="373.5" x2="373.5" y1="161.5625" y2="181.5625"/><polygon fill="#696969" points="369.5,171.5625,373.5,181.5625,377.5,171.5625,373.5,175.5625" style="stroke: #696969; stroke-width: 1.0;"/><line style="stroke: #696969; stroke-width: 1.5;" x1="791.5" x2="791.5" y1="161.5625" y2="600.7617"/><polygon fill="#696969" points="787.5,590.7617,791.5,600.7617,795.5,590.7617,791.5,594.7617" style="stroke: #696969; stroke-width: 1.0;"/><line style="stroke: #696969; stroke-width: 1.5;" x1="373.5" x2="373.5" y1="987.8008" y2="1041.1328"/><polygon fill="#696969" points="369.5,1031.1328,373.5,1041.1328,377.5,1031.1328,373.5,1035.1328" style="stroke: #696969; stroke-width: 1.0;"/><line style="stroke: #696969; stroke-width: 1.5;" x1="791.5" x2="791.5" y1="705.9492" y2="1041.1328"/><polygon fill="#696969" points="787.5,1031.1328,791.5,1041.1328,795.5,1031.1328,791.5,1035.1328" style="stroke: #696969; stroke-width: 1.0;"/><line style="stroke: #696969; stroke-width: 1.5;" x1="428" x2="428" y1="135.5625" y2="155.5625"/><polygon fill="#696969" points="424,145.5625,428,155.5625,432,145.5625,428,149.5625" style="stroke: #696969; stroke-width: 1.0;"/><line style="stroke: #696969; stroke-width: 1.5;" x1="428" x2="428" y1="1047.1328" y2="1087.4648"/><polygon fill="#696969" points="424,1077.4648,428,1087.4648,432,1077.4648,428,1081.4648" style="stroke: #696969; stroke-width: 1.0;"/><line style="stroke: #696969; stroke-width: 1.5;" x1="428" x2="428" y1="1122.5586" y2="1172.8906"/><polygon fill="#696969" points="424,1162.8906,428,1172.8906,432,1162.8906,428,1166.8906" style="stroke: #696969; stroke-width: 1.0;"/><line style="stroke: #696969; stroke-width: 1.5;" x1="428" x2="428" y1="1207.9844" y2="1229.9648"/><polygon fill="#696969" points="424,1219.9648,428,1229.9648,432,1219.9648,428,1223.9648" style="stroke: #696969; stroke-width: 1.0;"/><text fill="#000080" font-family="sans-serif" font-size="14" lengthAdjust="spacingAndGlyphs" textLength="42" x="10" y="1291.5723">©2019</text><a target="_top" xlink:actuate="onRequest" xlink:href="http://www.lifestylesunlimited.com" xlink:show="new" xlink:title="http://www.lifestylesunlimited.com" xlink:type="simple"><text fill="#0000FF" font-family="sans-serif" font-size="14" lengthAdjust="spacingAndGlyphs" text-decoration="underline" textLength="122" x="56" y="1291.5723">LifeStyles Unlimited</text><line style="stroke: #0000FF; stroke-width: 1.0;" x1="56" x2="178" y1="1293.5723" y2="1293.5723"/></a><text fill="#000080" font-family="sans-serif" font-size="14" lengthAdjust="spacingAndGlyphs" textLength="283" x="182" y="1291.5723">| Generated Sun May 12 17:24:21 CDT 2019</text><!--
@startuml due-diligence


skinparam {
  BorderColor Red
  PathHoverColor Blue
}

skinparam Title {
  FontColor Navy
  BackgroundColor PaleGoldenRod
  BorderColor Navy
  BorderRoundCorner 20
  FontSize 24
}

skinparam activity {
  BackgroundColor Ivory
  BorderColor CornflowerBlue
  BorderThickness 1
  FontColor DimGray
  

  Arrow {
    Color dimgray
    FontColor dimgray
  }

  Start {
    Color PHYSICAL
  }

  End {
    Color Coral
  }

  Diamond {
    BackgroundColor Ivory
    BorderColor CornflowerBlue
    FontColor DarkGray
  }

  BackgroundColor<< Exception >> Red
	BorderColor<< Exception >> White
}

skinparam Swimlane {
  BorderColor CornflowerBlue 
}

skinparam Partition {
  BackgroundColor Ivory
  BorderColor CornflowerBlue
  BorderThickness 1
  FontColor CornflowerBlue
  FontSize 16
  BorderRoundCorner 20
}

skinparam Note {
  BackgroundColor LightSteelBlue
  BorderColor CornflowerBlue
  FontColor White
}

skinparam Legend {
  BackgroundColor LightSteelBlue
  BorderColor CornflowerBlue
  FontColor White
}

skinparam Footer {
  FontColor Navy
}


left header 
	<font color=Navy size=24>[[../index.svg?sanitize=true ⌂ Home]]</font>
endheader


	Title Due Diligence\n(Inspection)


	start

	fork 
		fork
			:turn on electric;
			fork again
			:turn on gas;
			fork again
			:turn on water;
		end fork
		partition "Cost-Free Steps" {
			fork
				:<&arrow-thick-right> scope of work]
				note right
					see form
					very specific
				end note
				:general contractor 1 inspection;
				:<&arrow-thick-left> client estimate]
				:general contractor 2 inspection;
				:general contractor 3 inspection;
				fork again
				:roofer inspection;
				if (bad) then (yes)
					:roofer 2 inspection;
					:roofer 3 inspection;
				endif
				fork again
				:foundation inspection;
				if (bad)
					:foundation 2 inspection;
					:foundation 3 inspection;
				endif
			end fork
		}
		if(too expensive)
			stop
		endif
		#PHYSICAL:<&dollar> plumber static test 150-200;
		note right
			leakdown test
			uses camera
			- - - -
			* what is failure?
			* what to do upon failure?
		end note
		#PHYSICAL:<&dollar> termite inspection 300;
		note right
			* what is failure?
			* what to do upon failure?
		end note
		#PHYSICAL:<&dollar> inspector 200;
		note right
			gives work needed 
			to bring up to this year's code
			some things are grand-fathered in
			- - - -
			* what is failure?
			* what to do upon failure?
		end note
		fork again
			:7-10 Days>
			#LightPink:Time is out;
		
	end fork
	:get final repair cost;
	note right
		|| City || Repairs ||
		| San Antonio | $15-25k |
		| Houston | $k |
		| DFW | $30k |
		Is this correct or is this all in?
	end note
	note left
		that's ~ 10 people
		the realtor needs to let in
		too much work
		they will quit after this deal
	end note
	:get repair time estimate;
	note right
		holding costs
	end note
	[[evaluating.svg?sanitize=true]]#LightSkyBlue:evaluate;
	note right
		analyse & 
		make new offer
		based on damages
	end note
	


left footer 
	<font size=14>©2019 [[http://www.lifestylesunlimited.com LifeStyles Unlimited]] | Generated Sun May 12 17:24:21 CDT 2019</font>
endfooter


@enduml

PlantUML version 1.2019.03(Sun Mar 10 06:04:44 CDT 2019)
(GPL source distribution)
Java Runtime: Java(TM) SE Runtime Environment
JVM: Java HotSpot(TM) 64-Bit Server VM
Java Version: 1.8.0_111-b14
Operating System: Windows 10
OS Version: 10.0
Default Encoding: Cp1252
Language: en
Country: US
--></g></svg>