<?xml version="1.0" encoding="UTF-8" standalone="no"?><svg xmlns="http://www.w3.org/2000/svg" xmlns:xlink="http://www.w3.org/1999/xlink" contentScriptType="application/ecmascript" contentStyleType="text/css" height="959px" preserveAspectRatio="none" style="width:795px;height:959px;" version="1.1" viewBox="0 0 795 959" width="795px" zoomAndPan="magnify"><defs><style type="text/css"><![CDATA[path:hover { stroke: #0000FF !important;}]]></style><filter height="300%" id="fwqth2b2ejzbd" width="300%" x="-1" y="-1"><feGaussianBlur result="blurOut" stdDeviation="2.0"/><feColorMatrix in="blurOut" result="blurOut2" type="matrix" values="0 0 0 0 0 0 0 0 0 0 0 0 0 0 0 0 0 0 .4 0"/><feOffset dx="4.0" dy="4.0" in="blurOut2" result="blurOut3"/><feBlend in="SourceGraphic" in2="blurOut3" mode="normal"/></filter></defs><g><a target="_top" xlink:actuate="onRequest" xlink:href="../index.svg" xlink:show="new" xlink:title="../index.svg" xlink:type="simple"><text fill="#0000FF" font-family="sans-serif" font-size="10" lengthAdjust="spacingAndGlyphs" text-decoration="underline" textLength="39" x="10" y="20.3809">⌂ Home</text><line style="stroke: #0000FF; stroke-width: 1.0;" x1="10" x2="49" y1="22.3809" y2="22.3809"/></a><rect fill="#EEE8AA" height="32.6406" rx="10" ry="10" style="stroke: #000080; stroke-width: 1.5;" width="226" x="283.25" y="24.5781"/><text fill="#000080" font-family="sans-serif" font-size="18" lengthAdjust="spacingAndGlyphs" textLength="210" x="291.25" y="48.2637">Due Diligence (Inspection)</text><ellipse cx="395" cy="70.2188" fill="#000080" filter="url(#fwqth2b2ejzbd)" rx="10" ry="10" style="stroke: none; stroke-width: 1.0;"/><rect fill="#000000" filter="url(#fwqth2b2ejzbd)" height="6" rx="2.5" ry="2.5" style="stroke: #000000; stroke-width: 1.0;" width="770" x="10" y="100.2188"/><rect fill="#000000" filter="url(#fwqth2b2ejzbd)" height="6" rx="2.5" ry="2.5" style="stroke: #000000; stroke-width: 1.0;" width="357" x="162" y="126.2188"/><rect fill="#FFFFF0" filter="url(#fwqth2b2ejzbd)" height="35.0938" rx="12.5" ry="12.5" style="stroke: #6495ED; stroke-width: 1.5;" width="100" x="176" y="152.2188"/><text fill="#A9A9A9" font-family="sans-serif" font-size="12" lengthAdjust="spacingAndGlyphs" textLength="80" x="186" y="174.6758">turn on electric</text><rect fill="#FFFFF0" filter="url(#fwqth2b2ejzbd)" height="35.0938" rx="12.5" ry="12.5" style="stroke: #6495ED; stroke-width: 1.5;" width="82" x="304" y="152.2188"/><text fill="#A9A9A9" font-family="sans-serif" font-size="12" lengthAdjust="spacingAndGlyphs" textLength="62" x="314" y="174.6758">turn on gas</text><rect fill="#FFFFF0" filter="url(#fwqth2b2ejzbd)" height="35.0938" rx="12.5" ry="12.5" style="stroke: #6495ED; stroke-width: 1.5;" width="91" x="414" y="152.2188"/><text fill="#A9A9A9" font-family="sans-serif" font-size="12" lengthAdjust="spacingAndGlyphs" textLength="71" x="424" y="174.6758">turn on water</text><rect fill="#000000" filter="url(#fwqth2b2ejzbd)" height="6" rx="2.5" ry="2.5" style="stroke: #000000; stroke-width: 1.0;" width="357" x="162" y="207.3125"/><rect fill="#8FBC8F" filter="url(#fwqth2b2ejzbd)" height="376.1133" style="stroke: #6495ED; stroke-width: 1.0;" width="633" x="24" y="224.3281"/><path d="M98,225.3281 L98,237.4531 L88,247.4531 L24,247.4531 " fill="none" style="stroke: #6495ED; stroke-width: 1.0;"/><text fill="#FFFFFF" font-family="sans-serif" font-size="16" lengthAdjust="spacingAndGlyphs" textLength="64" x="27" y="241.9375">FreeStuff</text><rect fill="#000000" filter="url(#fwqth2b2ejzbd)" height="6" rx="2.5" ry="2.5" style="stroke: #000000; stroke-width: 1.0;" width="613" x="34" y="264.4531"/><rect fill="#FFFFF0" filter="url(#fwqth2b2ejzbd)" height="35.0938" rx="12.5" ry="12.5" style="stroke: #6495ED; stroke-width: 1.5;" width="195" x="48" y="304.3242"/><text fill="#A9A9A9" font-family="sans-serif" font-size="12" lengthAdjust="spacingAndGlyphs" textLength="175" x="58" y="326.7813">generate detailed scope of work</text><rect fill="#FFFFF0" filter="url(#fwqth2b2ejzbd)" height="35.0938" rx="12.5" ry="12.5" style="stroke: #6495ED; stroke-width: 1.5;" width="189" x="51" y="373.2891"/><text fill="#A9A9A9" font-family="sans-serif" font-size="12" lengthAdjust="spacingAndGlyphs" textLength="169" x="61" y="395.7461">general contractor 1 inspection</text><rect fill="#FFFFF0" filter="url(#fwqth2b2ejzbd)" height="35.0938" rx="12.5" ry="12.5" style="stroke: #6495ED; stroke-width: 1.5;" width="189" x="51" y="443.3828"/><text fill="#A9A9A9" font-family="sans-serif" font-size="12" lengthAdjust="spacingAndGlyphs" textLength="169" x="61" y="465.8398">general contractor 2 inspection</text><rect fill="#FFFFF0" filter="url(#fwqth2b2ejzbd)" height="35.0938" rx="12.5" ry="12.5" style="stroke: #6495ED; stroke-width: 1.5;" width="189" x="51" y="513.4766"/><text fill="#A9A9A9" font-family="sans-serif" font-size="12" lengthAdjust="spacingAndGlyphs" textLength="169" x="61" y="535.9336">general contractor 3 inspection</text><rect fill="#FFFFF0" filter="url(#fwqth2b2ejzbd)" height="35.0938" rx="12.5" ry="12.5" style="stroke: #6495ED; stroke-width: 1.5;" width="112" x="286" y="290.4531"/><text fill="#A9A9A9" font-family="sans-serif" font-size="12" lengthAdjust="spacingAndGlyphs" textLength="92" x="296" y="312.9102">roofer inspection</text><rect fill="#FFFFF0" filter="url(#fwqth2b2ejzbd)" height="35.0938" rx="12.5" ry="12.5" style="stroke: #6495ED; stroke-width: 1.5;" width="122" x="281" y="408.3359"/><text fill="#A9A9A9" font-family="sans-serif" font-size="12" lengthAdjust="spacingAndGlyphs" textLength="102" x="291" y="430.793">roofer 2 inspection</text><rect fill="#FFFFF0" filter="url(#fwqth2b2ejzbd)" height="35.0938" rx="12.5" ry="12.5" style="stroke: #6495ED; stroke-width: 1.5;" width="122" x="281" y="478.4297"/><text fill="#A9A9A9" font-family="sans-serif" font-size="12" lengthAdjust="spacingAndGlyphs" textLength="102" x="291" y="500.8867">roofer 3 inspection</text><polygon fill="#FFFFF0" filter="url(#fwqth2b2ejzbd)" points="330,359.418,354,359.418,366,371.418,354,383.418,330,383.418,318,371.418,330,359.418" style="stroke: #6495ED; stroke-width: 1.5;"/><text fill="#696969" font-family="sans-serif" font-size="11" lengthAdjust="spacingAndGlyphs" textLength="18" x="346" y="394.8369">yes</text><text fill="#A9A9A9" font-family="sans-serif" font-size="11" lengthAdjust="spacingAndGlyphs" textLength="18" x="333" y="375.9189">bad</text><polygon fill="#FFFFF0" filter="url(#fwqth2b2ejzbd)" points="342,538.4414,354,550.4414,342,562.4414,330,550.4414,342,538.4414" style="stroke: #6495ED; stroke-width: 1.5;"/><rect fill="#FFFFF0" filter="url(#fwqth2b2ejzbd)" height="35.0938" rx="12.5" ry="12.5" style="stroke: #6495ED; stroke-width: 1.5;" width="138" x="468" y="291.3711"/><text fill="#A9A9A9" font-family="sans-serif" font-size="12" lengthAdjust="spacingAndGlyphs" textLength="118" x="478" y="313.8281">foundation inspection</text><rect fill="#FFFFF0" filter="url(#fwqth2b2ejzbd)" height="35.0938" rx="12.5" ry="12.5" style="stroke: #6495ED; stroke-width: 1.5;" width="148" x="463" y="408.3359"/><text fill="#A9A9A9" font-family="sans-serif" font-size="12" lengthAdjust="spacingAndGlyphs" textLength="128" x="473" y="430.793">foundation 2 inspection</text><rect fill="#FFFFF0" filter="url(#fwqth2b2ejzbd)" height="35.0938" rx="12.5" ry="12.5" style="stroke: #6495ED; stroke-width: 1.5;" width="148" x="463" y="478.4297"/><text fill="#A9A9A9" font-family="sans-serif" font-size="12" lengthAdjust="spacingAndGlyphs" textLength="128" x="473" y="500.8867">foundation 3 inspection</text><polygon fill="#FFFFF0" filter="url(#fwqth2b2ejzbd)" points="525,360.3359,549,360.3359,561,372.3359,549,384.3359,525,384.3359,513,372.3359,525,360.3359" style="stroke: #6495ED; stroke-width: 1.5;"/><text fill="#A9A9A9" font-family="sans-serif" font-size="11" lengthAdjust="spacingAndGlyphs" textLength="18" x="528" y="376.8369">bad</text><polygon fill="#FFFFF0" filter="url(#fwqth2b2ejzbd)" points="537,537.5234,549,549.5234,537,561.5234,525,549.5234,537,537.5234" style="stroke: #6495ED; stroke-width: 1.5;"/><rect fill="#000000" filter="url(#fwqth2b2ejzbd)" height="6" rx="2.5" ry="2.5" style="stroke: #000000; stroke-width: 1.0;" width="613" x="34" y="582.4414"/><path d="M440.5,616.6367 L440.5,633.9883 L420.5,637.9883 L440.5,641.9883 L440.5,659.3398 A0,0 0 0 0 440.5,659.3398 L598.5,659.3398 A0,0 0 0 0 598.5,659.3398 L598.5,626.6367 L588.5,616.6367 L440.5,616.6367 A0,0 0 0 0 440.5,616.6367 " fill="#B0C4DE" filter="url(#fwqth2b2ejzbd)" style="stroke: #6495ED; stroke-width: 1.0;"/><path d="M588.5,616.6367 L588.5,626.6367 L598.5,626.6367 L588.5,616.6367 " fill="#B0C4DE" style="stroke: #6495ED; stroke-width: 1.0;"/><text fill="#FFFFFF" font-family="sans-serif" font-size="13" lengthAdjust="spacingAndGlyphs" textLength="86" x="446.5" y="635.1318">what is failure?</text><text fill="#FFFFFF" font-family="sans-serif" font-size="13" lengthAdjust="spacingAndGlyphs" textLength="137" x="446.5" y="651.4834">what to do upon failure?</text><rect fill="#FFFFF0" filter="url(#fwqth2b2ejzbd)" height="35.0938" rx="12.5" ry="12.5" style="stroke: #6495ED; stroke-width: 1.5;" width="160" x="260.5" y="620.4414"/><text fill="#A9A9A9" font-family="sans-serif" font-size="12" lengthAdjust="spacingAndGlyphs" textLength="140" x="270.5" y="642.8984">plumber static test ($150)</text><path d="M448,675.5352 L448,692.8867 L428,696.8867 L448,700.8867 L448,718.2383 A0,0 0 0 0 448,718.2383 L606,718.2383 A0,0 0 0 0 606,718.2383 L606,685.5352 L596,675.5352 L448,675.5352 A0,0 0 0 0 448,675.5352 " fill="#B0C4DE" filter="url(#fwqth2b2ejzbd)" style="stroke: #6495ED; stroke-width: 1.0;"/><path d="M596,675.5352 L596,685.5352 L606,685.5352 L596,675.5352 " fill="#B0C4DE" style="stroke: #6495ED; stroke-width: 1.0;"/><text fill="#FFFFFF" font-family="sans-serif" font-size="13" lengthAdjust="spacingAndGlyphs" textLength="86" x="454" y="694.0303">what is failure?</text><text fill="#FFFFFF" font-family="sans-serif" font-size="13" lengthAdjust="spacingAndGlyphs" textLength="137" x="454" y="710.3818">what to do upon failure?</text><rect fill="#FFFFF0" filter="url(#fwqth2b2ejzbd)" height="35.0938" rx="12.5" ry="12.5" style="stroke: #6495ED; stroke-width: 1.5;" width="175" x="253" y="679.3398"/><text fill="#A9A9A9" font-family="sans-serif" font-size="12" lengthAdjust="spacingAndGlyphs" textLength="155" x="263" y="701.7969">termite inspection ($75-100)</text><path d="M415.5,734.4336 L415.5,751.7852 L395.5,755.7852 L415.5,759.7852 L415.5,777.1367 A0,0 0 0 0 415.5,777.1367 L573.5,777.1367 A0,0 0 0 0 573.5,777.1367 L573.5,744.4336 L563.5,734.4336 L415.5,734.4336 A0,0 0 0 0 415.5,734.4336 " fill="#B0C4DE" filter="url(#fwqth2b2ejzbd)" style="stroke: #6495ED; stroke-width: 1.0;"/><path d="M563.5,734.4336 L563.5,744.4336 L573.5,744.4336 L563.5,734.4336 " fill="#B0C4DE" style="stroke: #6495ED; stroke-width: 1.0;"/><text fill="#FFFFFF" font-family="sans-serif" font-size="13" lengthAdjust="spacingAndGlyphs" textLength="86" x="421.5" y="752.9287">what is failure?</text><text fill="#FFFFFF" font-family="sans-serif" font-size="13" lengthAdjust="spacingAndGlyphs" textLength="137" x="421.5" y="769.2803">what to do upon failure?</text><rect fill="#FFFFF0" filter="url(#fwqth2b2ejzbd)" height="35.0938" rx="12.5" ry="12.5" style="stroke: #6495ED; stroke-width: 1.5;" width="110" x="285.5" y="738.2383"/><text fill="#A9A9A9" font-family="sans-serif" font-size="12" lengthAdjust="spacingAndGlyphs" textLength="90" x="295.5" y="760.6953">inspector ($200)</text><polygon fill="#FFFFF0" filter="url(#fwqth2b2ejzbd)" points="687.5,418.7344,763.5,418.7344,773.5,436.2813,763.5,453.8281,687.5,453.8281" style="stroke: #6495ED; stroke-width: 1.5;"/><text fill="#A9A9A9" font-family="sans-serif" font-size="12" lengthAdjust="spacingAndGlyphs" textLength="56" x="697.5" y="441.1914">7-10 Days</text><rect fill="#FFB6C1" filter="url(#fwqth2b2ejzbd)" height="35.0938" rx="12.5" ry="12.5" style="stroke: #6495ED; stroke-width: 1.5;" width="81" x="685" y="488.8281"/><text fill="#A9A9A9" font-family="sans-serif" font-size="12" lengthAdjust="spacingAndGlyphs" textLength="61" x="695" y="511.2852">Time is out</text><rect fill="#000000" filter="url(#fwqth2b2ejzbd)" height="6" rx="2.5" ry="2.5" style="stroke: #000000; stroke-width: 1.0;" width="770" x="10" y="797.1367"/><path d="M477,813.1367 L477,848.6641 L457,852.6641 L477,856.6641 L477,892.1914 A0,0 0 0 0 477,892.1914 L619,892.1914 A0,0 0 0 0 619,892.1914 L619,823.1367 L609,813.1367 L477,813.1367 A0,0 0 0 0 477,813.1367 " fill="#B0C4DE" filter="url(#fwqth2b2ejzbd)" style="stroke: #6495ED; stroke-width: 1.0;"/><path d="M609,813.1367 L609,823.1367 L619,823.1367 L609,813.1367 " fill="#B0C4DE" style="stroke: #6495ED; stroke-width: 1.0;"/><text fill="#FFFFFF" font-family="sans-serif" font-size="13" lengthAdjust="spacingAndGlyphs" textLength="121" x="483" y="831.6318">San Antonio $15-25k</text><line style="stroke: #6495ED; stroke-width: 1.0;" x1="477" x2="619" y1="839.4883" y2="839.4883"/><line style="stroke: #6495ED; stroke-width: 1.0;" x1="477" x2="619" y1="841.4883" y2="841.4883"/><text fill="#FFFFFF" font-family="sans-serif" font-size="13" lengthAdjust="spacingAndGlyphs" textLength="66" x="483" y="857.9834">Houston $k</text><line style="stroke: #6495ED; stroke-width: 1.0;" x1="477" x2="619" y1="865.8398" y2="865.8398"/><line style="stroke: #6495ED; stroke-width: 1.0;" x1="477" x2="619" y1="867.8398" y2="867.8398"/><text fill="#FFFFFF" font-family="sans-serif" font-size="13" lengthAdjust="spacingAndGlyphs" textLength="62" x="483" y="884.335">DFW $30k</text><rect fill="#FFFFF0" filter="url(#fwqth2b2ejzbd)" height="35.0938" rx="12.5" ry="12.5" style="stroke: #6495ED; stroke-width: 1.5;" width="124" x="333" y="835.1172"/><text fill="#A9A9A9" font-family="sans-serif" font-size="12" lengthAdjust="spacingAndGlyphs" textLength="104" x="343" y="857.5742">get final repair cost</text><path d="M425,909.0156 L425,918.1914 L405,922.1914 L425,926.1914 L425,935.3672 A0,0 0 0 0 425,935.3672 L491,935.3672 A0,0 0 0 0 491,935.3672 L491,919.0156 L481,909.0156 L425,909.0156 A0,0 0 0 0 425,909.0156 " fill="#B0C4DE" filter="url(#fwqth2b2ejzbd)" style="stroke: #6495ED; stroke-width: 1.0;"/><path d="M481,909.0156 L481,919.0156 L491,919.0156 L481,909.0156 " fill="#B0C4DE" style="stroke: #6495ED; stroke-width: 1.0;"/><text fill="#FFFFFF" font-family="sans-serif" font-size="13" lengthAdjust="spacingAndGlyphs" textLength="45" x="431" y="927.5107">analyse</text><ellipse cx="395" cy="922.1914" fill="#FFFFF0" filter="url(#fwqth2b2ejzbd)" rx="10" ry="10" style="stroke: #6495ED; stroke-width: 1.5;"/><path d="M391.5469,923.9258 L392.6094,923.832 Q392.6875,924.4883 392.9688,924.8945 Q393.25,925.3008 393.8359,925.5586 Q394.4219,925.8164 395.1563,925.8164 Q395.7969,925.8164 396.2969,925.6211 Q396.7969,925.4258 397.0391,925.0898 Q397.2813,924.7539 397.2813,924.3633 Q397.2813,923.957 397.0469,923.6523 Q396.8125,923.3477 396.2813,923.1445 Q395.9219,923.0039 394.7422,922.7227 Q393.5625,922.4414 393.0938,922.1914 Q392.4688,921.8633 392.1719,921.3867 Q391.875,920.9102 391.875,920.3164 Q391.875,919.6758 392.2422,919.1055 Q392.6094,918.5352 393.3203,918.2461 Q394.0313,917.957 394.8906,917.957 Q395.8438,917.957 396.5781,918.2617 Q397.3125,918.5664 397.7031,919.168 Q398.0938,919.7695 398.125,920.5195 L397.0313,920.5977 Q396.9375,919.7852 396.4297,919.3711 Q395.9219,918.957 394.9375,918.957 Q393.9063,918.957 393.4375,919.332 Q392.9688,919.707 392.9688,920.2383 Q392.9688,920.707 393.2969,921.0039 Q393.625,921.3008 395.0078,921.6133 Q396.3906,921.9258 396.9063,922.1602 Q397.6563,922.5195 398.0156,923.043 Q398.375,923.5664 398.375,924.2695 Q398.375,924.957 397.9844,925.5586 Q397.5938,926.1602 396.8594,926.4961 Q396.125,926.832 395.2031,926.832 Q394.0313,926.832 393.2422,926.4961 Q392.4531,926.1602 392.0078,925.4727 Q391.5625,924.7852 391.5469,923.9258 Z "/><line style="stroke: #696969; stroke-width: 1.5;" x1="226" x2="226" y1="132.2188" y2="152.2188"/><polygon fill="#696969" points="222,142.2188,226,152.2188,230,142.2188,226,146.2188" style="stroke: #696969; stroke-width: 1.0;"/><line style="stroke: #696969; stroke-width: 1.5;" x1="345" x2="345" y1="132.2188" y2="152.2188"/><polygon fill="#696969" points="341,142.2188,345,152.2188,349,142.2188,345,146.2188" style="stroke: #696969; stroke-width: 1.0;"/><line style="stroke: #696969; stroke-width: 1.5;" x1="459.5" x2="459.5" y1="132.2188" y2="152.2188"/><polygon fill="#696969" points="455.5,142.2188,459.5,152.2188,463.5,142.2188,459.5,146.2188" style="stroke: #696969; stroke-width: 1.0;"/><line style="stroke: #696969; stroke-width: 1.5;" x1="226" x2="226" y1="187.3125" y2="207.3125"/><polygon fill="#696969" points="222,197.3125,226,207.3125,230,197.3125,226,201.3125" style="stroke: #696969; stroke-width: 1.0;"/><line style="stroke: #696969; stroke-width: 1.5;" x1="345" x2="345" y1="187.3125" y2="207.3125"/><polygon fill="#696969" points="341,197.3125,345,207.3125,349,197.3125,345,201.3125" style="stroke: #696969; stroke-width: 1.0;"/><line style="stroke: #696969; stroke-width: 1.5;" x1="459.5" x2="459.5" y1="187.3125" y2="207.3125"/><polygon fill="#696969" points="455.5,197.3125,459.5,207.3125,463.5,197.3125,459.5,201.3125" style="stroke: #696969; stroke-width: 1.0;"/><line style="stroke: #696969; stroke-width: 1.5;" x1="145.5" x2="145.5" y1="339.418" y2="373.2891"/><polygon fill="#696969" points="141.5,363.2891,145.5,373.2891,149.5,363.2891,145.5,367.2891" style="stroke: #696969; stroke-width: 1.0;"/><line style="stroke: #696969; stroke-width: 1.5;" x1="145.5" x2="145.5" y1="408.3828" y2="443.3828"/><polygon fill="#696969" points="141.5,433.3828,145.5,443.3828,149.5,433.3828,145.5,437.3828" style="stroke: #696969; stroke-width: 1.0;"/><line style="stroke: #696969; stroke-width: 1.5;" x1="145.5" x2="145.5" y1="478.4766" y2="513.4766"/><polygon fill="#696969" points="141.5,503.4766,145.5,513.4766,149.5,503.4766,145.5,507.4766" style="stroke: #696969; stroke-width: 1.0;"/><line style="stroke: #696969; stroke-width: 1.5;" x1="342" x2="342" y1="443.4297" y2="478.4297"/><polygon fill="#696969" points="338,468.4297,342,478.4297,346,468.4297,342,472.4297" style="stroke: #696969; stroke-width: 1.0;"/><line style="stroke: #696969; stroke-width: 1.5;" x1="342" x2="342" y1="383.418" y2="408.3359"/><polygon fill="#696969" points="338,398.3359,342,408.3359,346,398.3359,342,402.3359" style="stroke: #696969; stroke-width: 1.0;"/><line style="stroke: #696969; stroke-width: 1.5;" x1="366" x2="413" y1="371.418" y2="371.418"/><polygon fill="#696969" points="409,450.9297,413,460.9297,417,450.9297,413,454.9297" style="stroke: #696969; stroke-width: 1.5;"/><line style="stroke: #696969; stroke-width: 1.5;" x1="413" x2="413" y1="371.418" y2="550.4414"/><line style="stroke: #696969; stroke-width: 1.5;" x1="413" x2="354" y1="550.4414" y2="550.4414"/><polygon fill="#696969" points="364,546.4414,354,550.4414,364,554.4414,360,550.4414" style="stroke: #696969; stroke-width: 1.0;"/><line style="stroke: #696969; stroke-width: 1.5;" x1="342" x2="342" y1="513.5234" y2="538.4414"/><polygon fill="#696969" points="338,528.4414,342,538.4414,346,528.4414,342,532.4414" style="stroke: #696969; stroke-width: 1.0;"/><line style="stroke: #696969; stroke-width: 1.5;" x1="342" x2="342" y1="325.5469" y2="359.418"/><polygon fill="#696969" points="338,349.418,342,359.418,346,349.418,342,353.418" style="stroke: #696969; stroke-width: 1.0;"/><line style="stroke: #696969; stroke-width: 1.5;" x1="537" x2="537" y1="443.4297" y2="478.4297"/><polygon fill="#696969" points="533,468.4297,537,478.4297,541,468.4297,537,472.4297" style="stroke: #696969; stroke-width: 1.0;"/><line style="stroke: #696969; stroke-width: 1.5;" x1="537" x2="537" y1="384.3359" y2="408.3359"/><polygon fill="#696969" points="533,398.3359,537,408.3359,541,398.3359,537,402.3359" style="stroke: #696969; stroke-width: 1.0;"/><line style="stroke: #696969; stroke-width: 1.5;" x1="561" x2="621" y1="372.3359" y2="372.3359"/><polygon fill="#696969" points="617,450.9297,621,460.9297,625,450.9297,621,454.9297" style="stroke: #696969; stroke-width: 1.5;"/><line style="stroke: #696969; stroke-width: 1.5;" x1="621" x2="621" y1="372.3359" y2="549.5234"/><line style="stroke: #696969; stroke-width: 1.5;" x1="621" x2="549" y1="549.5234" y2="549.5234"/><polygon fill="#696969" points="559,545.5234,549,549.5234,559,553.5234,555,549.5234" style="stroke: #696969; stroke-width: 1.0;"/><line style="stroke: #696969; stroke-width: 1.5;" x1="537" x2="537" y1="513.5234" y2="537.5234"/><polygon fill="#696969" points="533,527.5234,537,537.5234,541,527.5234,537,531.5234" style="stroke: #696969; stroke-width: 1.0;"/><line style="stroke: #696969; stroke-width: 1.5;" x1="537" x2="537" y1="326.4648" y2="360.3359"/><polygon fill="#696969" points="533,350.3359,537,360.3359,541,350.3359,537,354.3359" style="stroke: #696969; stroke-width: 1.0;"/><line style="stroke: #696969; stroke-width: 1.5;" x1="145.5" x2="145.5" y1="270.4531" y2="304.3242"/><polygon fill="#696969" points="141.5,294.3242,145.5,304.3242,149.5,294.3242,145.5,298.3242" style="stroke: #696969; stroke-width: 1.0;"/><line style="stroke: #696969; stroke-width: 1.5;" x1="342" x2="342" y1="270.4531" y2="290.4531"/><polygon fill="#696969" points="338,280.4531,342,290.4531,346,280.4531,342,284.4531" style="stroke: #696969; stroke-width: 1.0;"/><line style="stroke: #696969; stroke-width: 1.5;" x1="537" x2="537" y1="270.4531" y2="291.3711"/><polygon fill="#696969" points="533,281.3711,537,291.3711,541,281.3711,537,285.3711" style="stroke: #696969; stroke-width: 1.0;"/><line style="stroke: #696969; stroke-width: 1.5;" x1="145.5" x2="145.5" y1="548.5703" y2="582.4414"/><polygon fill="#696969" points="141.5,572.4414,145.5,582.4414,149.5,572.4414,145.5,576.4414" style="stroke: #696969; stroke-width: 1.0;"/><line style="stroke: #696969; stroke-width: 1.5;" x1="342" x2="342" y1="562.4414" y2="582.4414"/><polygon fill="#696969" points="338,572.4414,342,582.4414,346,572.4414,342,576.4414" style="stroke: #696969; stroke-width: 1.0;"/><line style="stroke: #696969; stroke-width: 1.5;" x1="537" x2="537" y1="561.5234" y2="582.4414"/><polygon fill="#696969" points="533,572.4414,537,582.4414,541,572.4414,537,576.4414" style="stroke: #696969; stroke-width: 1.0;"/><line style="stroke: #696969; stroke-width: 1.5;" x1="340.5" x2="340.5" y1="213.3125" y2="264.4531"/><polygon fill="#696969" points="336.5,254.4531,340.5,264.4531,344.5,254.4531,340.5,258.4531" style="stroke: #696969; stroke-width: 1.0;"/><line style="stroke: #696969; stroke-width: 1.5;" x1="340.5" x2="340.5" y1="588.4414" y2="620.4414"/><polygon fill="#696969" points="336.5,610.4414,340.5,620.4414,344.5,610.4414,340.5,614.4414" style="stroke: #696969; stroke-width: 1.0;"/><line style="stroke: #696969; stroke-width: 1.5;" x1="340.5" x2="340.5" y1="655.5352" y2="679.3398"/><polygon fill="#696969" points="336.5,669.3398,340.5,679.3398,344.5,669.3398,340.5,673.3398" style="stroke: #696969; stroke-width: 1.0;"/><line style="stroke: #696969; stroke-width: 1.5;" x1="340.5" x2="340.5" y1="714.4336" y2="738.2383"/><polygon fill="#696969" points="336.5,728.2383,340.5,738.2383,344.5,728.2383,340.5,732.2383" style="stroke: #696969; stroke-width: 1.0;"/><line style="stroke: #696969; stroke-width: 1.5;" x1="725.5" x2="725.5" y1="453.8281" y2="488.8281"/><polygon fill="#696969" points="721.5,478.8281,725.5,488.8281,729.5,478.8281,725.5,482.8281" style="stroke: #696969; stroke-width: 1.0;"/><line style="stroke: #696969; stroke-width: 1.5;" x1="340.5" x2="340.5" y1="106.2188" y2="126.2188"/><polygon fill="#696969" points="336.5,116.2188,340.5,126.2188,344.5,116.2188,340.5,120.2188" style="stroke: #696969; stroke-width: 1.0;"/><line style="stroke: #696969; stroke-width: 1.5;" x1="725.5" x2="725.5" y1="106.2188" y2="418.7344"/><polygon fill="#696969" points="721.5,408.7344,725.5,418.7344,729.5,408.7344,725.5,412.7344" style="stroke: #696969; stroke-width: 1.0;"/><line style="stroke: #696969; stroke-width: 1.5;" x1="340.5" x2="340.5" y1="773.332" y2="797.1367"/><polygon fill="#696969" points="336.5,787.1367,340.5,797.1367,344.5,787.1367,340.5,791.1367" style="stroke: #696969; stroke-width: 1.0;"/><line style="stroke: #696969; stroke-width: 1.5;" x1="725.5" x2="725.5" y1="523.9219" y2="797.1367"/><polygon fill="#696969" points="721.5,787.1367,725.5,797.1367,729.5,787.1367,725.5,791.1367" style="stroke: #696969; stroke-width: 1.0;"/><line style="stroke: #696969; stroke-width: 1.5;" x1="395" x2="395" y1="80.2188" y2="100.2188"/><polygon fill="#696969" points="391,90.2188,395,100.2188,399,90.2188,395,94.2188" style="stroke: #696969; stroke-width: 1.0;"/><line style="stroke: #696969; stroke-width: 1.5;" x1="395" x2="395" y1="803.1367" y2="835.1172"/><polygon fill="#696969" points="391,825.1172,395,835.1172,399,825.1172,395,829.1172" style="stroke: #696969; stroke-width: 1.0;"/><line style="stroke: #696969; stroke-width: 1.5;" x1="395" x2="395" y1="870.2109" y2="912.1914"/><polygon fill="#696969" points="391,902.1914,395,912.1914,399,902.1914,395,906.1914" style="stroke: #696969; stroke-width: 1.0;"/><text fill="#000080" font-family="sans-serif" font-size="10" lengthAdjust="spacingAndGlyphs" textLength="31" x="10" y="945.748">©2019</text><a target="_top" xlink:actuate="onRequest" xlink:href="http://www.lifestylesunlimited.com" xlink:show="new" xlink:title="http://www.lifestylesunlimited.com" xlink:type="simple"><text fill="#0000FF" font-family="sans-serif" font-size="10" lengthAdjust="spacingAndGlyphs" text-decoration="underline" textLength="95" x="44" y="945.748">LifeStyles Unlimited</text><line style="stroke: #0000FF; stroke-width: 1.0;" x1="44" x2="139" y1="947.748" y2="947.748"/></a><text fill="#000080" font-family="sans-serif" font-size="10" lengthAdjust="spacingAndGlyphs" textLength="208" x="142" y="945.748">| Generated Sun Apr 14 12:09:40 CDT 2019</text><!--
@startuml due-diligence


skinparam {
  BorderColor Red
  PathHoverColor Blue
}

skinparam Title {
  FontColor Navy
  BackgroundColor PaleGoldenRod
  BorderColor Navy
  BorderRoundCorner 20
}

skinparam activity {
  BackgroundColor Ivory
  BorderColor CornflowerBlue
  FontColor DarkGray

  Arrow {
    Color dimgray
    FontColor dimgray
  }

  Start {
    Color Navy
  }

  End {
    Color Red
  }

  Diamond {
    BackgroundColor Ivory
    BorderColor CornflowerBlue
    FontColor DarkGray
  }

  BackgroundColor<< Exception >> Red
	BorderColor<< Exception >> White
}

skinparam Swimlane {
  BorderColor CornflowerBlue 
}

skinparam Partition {
  BackgroundColor DarkSeaGreen
  BorderColor CornflowerBlue
  BorderThickness 1
  FontColor White
  FontSize 16
}
skinparam Note {
  BackgroundColor LightSteelBlue
  BorderColor CornflowerBlue
  FontColor White
}

skinparam Footer {
  FontColor Navy
}


left header 
	<font color=Navy>[[../index.svg ⌂ Home]]</font>
endheader


	Title Due Diligence (Inspection)


	start

	fork 
		fork
			:turn on electric;
			fork again
			:turn on gas;
			fork again
			:turn on water;
		end fork
		partition FreeStuff {
			fork
				:generate detailed scope of work;
				:general contractor 1 inspection;
				:general contractor 2 inspection;
				:general contractor 3 inspection;
				fork again
				:roofer inspection;
				if (bad) then (yes)
					:roofer 2 inspection;
					:roofer 3 inspection;
				endif
				fork again
				:foundation inspection;
				if (bad)
					:foundation 2 inspection;
					:foundation 3 inspection;
				endif
			end fork
		}
		:plumber static test ($150);
		note right
			what is failure?
			what to do upon failure?
		end note
		:termite inspection ($75-100);
		note right
			what is failure?
			what to do upon failure?
		end note
		:inspector ($200);
		note right
			what is failure?
			what to do upon failure?
		end note
		fork again
			:7-10 Days>
			#LightPink:Time is out;
		
	end fork
	:get final repair cost;
	note right
		San Antonio $15-25k
		====
		Houston $k
		====
		DFW $30k
	end note
	(S)
	note right: analyse
	

left footer 
	©2019 [[http://www.lifestylesunlimited.com LifeStyles Unlimited]] | Generated Sun Apr 14 12:09:40 CDT 2019
endfooter


@enduml

PlantUML version 1.2019.03(Sun Mar 10 06:04:44 CDT 2019)
(GPL source distribution)
Java Runtime: Java(TM) SE Runtime Environment
JVM: Java HotSpot(TM) 64-Bit Server VM
Java Version: 1.8.0_111-b14
Operating System: Windows 10
OS Version: 10.0
Default Encoding: Cp1252
Language: en
Country: US
--></g></svg>