<?xml version="1.0" encoding="UTF-8" standalone="no"?><svg xmlns="http://www.w3.org/2000/svg" xmlns:xlink="http://www.w3.org/1999/xlink" contentScriptType="application/ecmascript" contentStyleType="text/css" height="403px" preserveAspectRatio="none" style="width:362px;height:403px;" version="1.1" viewBox="0 0 362 403" width="362px" zoomAndPan="magnify"><defs><style type="text/css"><![CDATA[path:hover { stroke: #0000FF !important;}]]></style><filter height="300%" id="f1bs95jqvjyyez" width="300%" x="-1" y="-1"><feGaussianBlur result="blurOut" stdDeviation="2.0"/><feColorMatrix in="blurOut" result="blurOut2" type="matrix" values="0 0 0 0 0 0 0 0 0 0 0 0 0 0 0 0 0 0 .4 0"/><feOffset dx="4.0" dy="4.0" in="blurOut2" result="blurOut3"/><feBlend in="SourceGraphic" in2="blurOut3" mode="normal"/></filter></defs><g><a target="_top" xlink:actuate="onRequest" xlink:href="../index.svg" xlink:show="new" xlink:title="../index.svg" xlink:type="simple"><text fill="#0000FF" font-family="sans-serif" font-size="10" lengthAdjust="spacingAndGlyphs" text-decoration="underline" textLength="39" x="10" y="20.3809">⌂ Home</text><line style="stroke: #0000FF; stroke-width: 1.0;" x1="10" x2="49" y1="22.3809" y2="22.3809"/></a><rect fill="#EEE8AA" height="32.6406" rx="10" ry="10" style="stroke: #000080; stroke-width: 1.5;" width="183" x="88" y="24.5781"/><text fill="#000080" font-family="sans-serif" font-size="18" lengthAdjust="spacingAndGlyphs" textLength="167" x="96" y="48.2637">Evaluating (Analysis)</text><path d="M116.25,60.2188 L116.25,86.5703 L339.25,86.5703 L339.25,70.2188 L329.25,60.2188 L116.25,60.2188 " fill="#B0C4DE" filter="url(#f1bs95jqvjyyez)" style="stroke: #6495ED; stroke-width: 1.0;"/><path d="M329.25,60.2188 L329.25,70.2188 L339.25,70.2188 L329.25,60.2188 " fill="#B0C4DE" style="stroke: #6495ED; stroke-width: 1.0;"/><text fill="#FFFFFF" font-family="sans-serif" font-size="13" lengthAdjust="spacingAndGlyphs" textLength="202" x="122.25" y="78.7139">comparative market analysis (cma)</text><ellipse cx="86.25" cy="73.3945" fill="#000080" filter="url(#f1bs95jqvjyyez)" rx="10" ry="10" style="stroke: none; stroke-width: 1.0;"/><path d="M162.75,110.9414 L162.75,120.1172 L142.75,124.1172 L162.75,128.1172 L162.75,137.293 A0,0 0 0 0 162.75,137.293 L325.75,137.293 A0,0 0 0 0 325.75,137.293 L325.75,120.9414 L315.75,110.9414 L162.75,110.9414 A0,0 0 0 0 162.75,110.9414 " fill="#B0C4DE" filter="url(#f1bs95jqvjyyez)" style="stroke: #6495ED; stroke-width: 1.0;"/><path d="M315.75,110.9414 L315.75,120.9414 L325.75,120.9414 L315.75,110.9414 " fill="#B0C4DE" style="stroke: #6495ED; stroke-width: 1.0;"/><text fill="#FFFFFF" font-family="sans-serif" font-size="13" lengthAdjust="spacingAndGlyphs" textLength="142" x="168.75" y="129.4365">should be $200-$600/mo</text><rect fill="#FFFFF0" filter="url(#f1bs95jqvjyyez)" height="35.0938" rx="12.5" ry="12.5" style="stroke: #6495ED; stroke-width: 1.5;" width="113" x="29.75" y="106.5703"/><text fill="#A9A9A9" font-family="sans-serif" font-size="12" lengthAdjust="spacingAndGlyphs" textLength="93" x="39.75" y="129.0273">calculate income</text><rect fill="#FFFFF0" filter="url(#f1bs95jqvjyyez)" height="35.0938" rx="12.5" ry="12.5" style="stroke: #6495ED; stroke-width: 1.5;" width="105" x="33.75" y="161.6641"/><text fill="#A9A9A9" font-family="sans-serif" font-size="12" lengthAdjust="spacingAndGlyphs" textLength="85" x="43.75" y="184.1211">get lending rate</text><path d="M155.75,206.7578 L155.75,242.2852 L135.75,246.2852 L155.75,250.2852 L155.75,285.8125 A0,0 0 0 0 155.75,285.8125 L279.75,285.8125 A0,0 0 0 0 279.75,285.8125 L279.75,216.7578 L269.75,206.7578 L155.75,206.7578 A0,0 0 0 0 155.75,206.7578 " fill="#B0C4DE" filter="url(#f1bs95jqvjyyez)" style="stroke: #6495ED; stroke-width: 1.0;"/><path d="M269.75,206.7578 L269.75,216.7578 L279.75,216.7578 L269.75,206.7578 " fill="#B0C4DE" style="stroke: #6495ED; stroke-width: 1.0;"/><text fill="#FFFFFF" font-family="sans-serif" font-size="13" lengthAdjust="spacingAndGlyphs" textLength="103" x="161.75" y="225.2529">net of lending rate</text><line style="stroke: #6495ED; stroke-width: 1.0;" x1="155.75" x2="279.75" y1="233.1094" y2="233.1094"/><line style="stroke: #6495ED; stroke-width: 1.0;" x1="155.75" x2="279.75" y1="235.1094" y2="235.1094"/><text fill="#FFFFFF" font-family="sans-serif" font-size="13" lengthAdjust="spacingAndGlyphs" textLength="97" x="161.75" y="251.6045">should be 8-30%</text><line style="stroke: #6495ED; stroke-width: 1.0;" x1="155.75" x2="279.75" y1="259.4609" y2="259.4609"/><line style="stroke: #6495ED; stroke-width: 1.0;" x1="155.75" x2="279.75" y1="261.4609" y2="261.4609"/><text fill="#FFFFFF" font-family="sans-serif" font-size="13" lengthAdjust="spacingAndGlyphs" textLength="92" x="161.75" y="277.9561">inflation is 3-4%</text><rect fill="#FFFFF0" filter="url(#f1bs95jqvjyyez)" height="35.0938" rx="12.5" ry="12.5" style="stroke: #6495ED; stroke-width: 1.5;" width="99" x="36.75" y="228.7383"/><text fill="#A9A9A9" font-family="sans-serif" font-size="12" lengthAdjust="spacingAndGlyphs" textLength="79" x="46.75" y="251.1953">calculate COC</text><path d="M171.75,310.1836 L171.75,319.3594 L151.75,323.3594 L171.75,327.3594 L171.75,336.5352 A0,0 0 0 0 171.75,336.5352 L285.75,336.5352 A0,0 0 0 0 285.75,336.5352 L285.75,320.1836 L275.75,310.1836 L171.75,310.1836 A0,0 0 0 0 171.75,310.1836 " fill="#B0C4DE" filter="url(#f1bs95jqvjyyez)" style="stroke: #6495ED; stroke-width: 1.0;"/><path d="M275.75,310.1836 L275.75,320.1836 L285.75,320.1836 L275.75,310.1836 " fill="#B0C4DE" style="stroke: #6495ED; stroke-width: 1.0;"/><text fill="#FFFFFF" font-family="sans-serif" font-size="13" lengthAdjust="spacingAndGlyphs" textLength="93" x="177.75" y="328.6787">should be 100%</text><rect fill="#FFFFF0" filter="url(#f1bs95jqvjyyez)" height="35.0938" rx="12.5" ry="12.5" style="stroke: #6495ED; stroke-width: 1.5;" width="131" x="20.75" y="305.8125"/><text fill="#A9A9A9" font-family="sans-serif" font-size="12" lengthAdjust="spacingAndGlyphs" textLength="111" x="30.75" y="328.2695">calculate equity gain</text><ellipse cx="86.25" cy="370.9063" fill="#FFFFFF" filter="url(#f1bs95jqvjyyez)" rx="10" ry="10" style="stroke: #FF0000; stroke-width: 1.5;"/><line style="stroke: #FF0000; stroke-width: 2.5;" x1="80.0628" x2="92.4372" y1="364.7191" y2="377.0934"/><line style="stroke: #FF0000; stroke-width: 2.5;" x1="92.4372" x2="80.0628" y1="364.7191" y2="377.0934"/><line style="stroke: #696969; stroke-width: 1.5;" x1="86.25" x2="86.25" y1="83.3945" y2="106.5703"/><polygon fill="#696969" points="82.25,96.5703,86.25,106.5703,90.25,96.5703,86.25,100.5703" style="stroke: #696969; stroke-width: 1.0;"/><line style="stroke: #696969; stroke-width: 1.5;" x1="86.25" x2="86.25" y1="141.6641" y2="161.6641"/><polygon fill="#696969" points="82.25,151.6641,86.25,161.6641,90.25,151.6641,86.25,155.6641" style="stroke: #696969; stroke-width: 1.0;"/><line style="stroke: #696969; stroke-width: 1.5;" x1="86.25" x2="86.25" y1="196.7578" y2="228.7383"/><polygon fill="#696969" points="82.25,218.7383,86.25,228.7383,90.25,218.7383,86.25,222.7383" style="stroke: #696969; stroke-width: 1.0;"/><line style="stroke: #696969; stroke-width: 1.5;" x1="86.25" x2="86.25" y1="263.832" y2="305.8125"/><polygon fill="#696969" points="82.25,295.8125,86.25,305.8125,90.25,295.8125,86.25,299.8125" style="stroke: #696969; stroke-width: 1.0;"/><line style="stroke: #696969; stroke-width: 1.5;" x1="86.25" x2="86.25" y1="340.9063" y2="360.9063"/><polygon fill="#696969" points="82.25,350.9063,86.25,360.9063,90.25,350.9063,86.25,354.9063" style="stroke: #696969; stroke-width: 1.0;"/><text fill="#000080" font-family="sans-serif" font-size="10" lengthAdjust="spacingAndGlyphs" textLength="31" x="10" y="390.2871">©2019</text><a target="_top" xlink:actuate="onRequest" xlink:href="http://www.lifestylesunlimited.com" xlink:show="new" xlink:title="http://www.lifestylesunlimited.com" xlink:type="simple"><text fill="#0000FF" font-family="sans-serif" font-size="10" lengthAdjust="spacingAndGlyphs" text-decoration="underline" textLength="95" x="44" y="390.2871">LifeStyles Unlimited</text><line style="stroke: #0000FF; stroke-width: 1.0;" x1="44" x2="139" y1="392.2871" y2="392.2871"/></a><text fill="#000080" font-family="sans-serif" font-size="10" lengthAdjust="spacingAndGlyphs" textLength="208" x="142" y="390.2871">| Generated Sun Apr 14 12:09:41 CDT 2019</text><!--
@startuml evaluating


skinparam {
  BorderColor Red
  PathHoverColor Blue
}

skinparam Title {
  FontColor Navy
  BackgroundColor PaleGoldenRod
  BorderColor Navy
  BorderRoundCorner 20
}

skinparam activity {
  BackgroundColor Ivory
  BorderColor CornflowerBlue
  FontColor DarkGray

  Arrow {
    Color dimgray
    FontColor dimgray
  }

  Start {
    Color Navy
  }

  End {
    Color Red
  }

  Diamond {
    BackgroundColor Ivory
    BorderColor CornflowerBlue
    FontColor DarkGray
  }

  BackgroundColor<< Exception >> Red
	BorderColor<< Exception >> White
}

skinparam Swimlane {
  BorderColor CornflowerBlue 
}

skinparam Partition {
  BackgroundColor DarkSeaGreen
  BorderColor CornflowerBlue
  BorderThickness 1
  FontColor White
  FontSize 16
}
skinparam Note {
  BackgroundColor LightSteelBlue
  BorderColor CornflowerBlue
  FontColor White
}

skinparam Footer {
  FontColor Navy
}


left header 
	<font color=Navy>[[../index.svg ⌂ Home]]</font>
endheader


	Title Evaluating (Analysis)

	start

	floating note right: comparative market analysis (cma)

	:calculate income;
	note right
		should be $200-$600/mo
	end note

	:get lending rate;

	:calculate COC;
	note right
		net of lending rate
		====
		should be 8-30%
		====
		inflation is 3-4%
	end note

	:calculate equity gain;
	note right: should be 100%

	end

left footer 
	©2019 [[http://www.lifestylesunlimited.com LifeStyles Unlimited]] | Generated Sun Apr 14 12:09:41 CDT 2019
endfooter


@enduml

PlantUML version 1.2019.03(Sun Mar 10 06:04:44 CDT 2019)
(GPL source distribution)
Java Runtime: Java(TM) SE Runtime Environment
JVM: Java HotSpot(TM) 64-Bit Server VM
Java Version: 1.8.0_111-b14
Operating System: Windows 10
OS Version: 10.0
Default Encoding: Cp1252
Language: en
Country: US
--></g></svg>