<?xml version="1.0" encoding="UTF-8" standalone="no"?><svg xmlns="http://www.w3.org/2000/svg" xmlns:xlink="http://www.w3.org/1999/xlink" contentScriptType="application/ecmascript" contentStyleType="text/css" height="403px" preserveAspectRatio="none" style="width:359px;height:403px;" version="1.1" viewBox="0 0 359 403" width="359px" zoomAndPan="magnify"><defs><style type="text/css"><![CDATA[path:hover { stroke: #0000FF !important;}]]></style><filter height="300%" id="f1nk8cta0t9dd7" width="300%" x="-1" y="-1"><feGaussianBlur result="blurOut" stdDeviation="2.0"/><feColorMatrix in="blurOut" result="blurOut2" type="matrix" values="0 0 0 0 0 0 0 0 0 0 0 0 0 0 0 0 0 0 .4 0"/><feOffset dx="4.0" dy="4.0" in="blurOut2" result="blurOut3"/><feBlend in="SourceGraphic" in2="blurOut3" mode="normal"/></filter></defs><g><a target="_top" xlink:actuate="onRequest" xlink:href="../index.svg" xlink:show="new" xlink:title="../index.svg" xlink:type="simple"><text fill="#0000FF" font-family="sans-serif" font-size="10" lengthAdjust="spacingAndGlyphs" text-decoration="underline" textLength="39" x="10" y="20.3809">⌂ Home</text><line style="stroke: #0000FF; stroke-width: 1.0;" x1="10" x2="49" y1="22.3809" y2="22.3809"/></a><rect fill="#EEE8AA" height="32.6406" rx="10" ry="10" style="stroke: #000080; stroke-width: 1.5;" width="183" x="86.5" y="24.5781"/><text fill="#000080" font-family="sans-serif" font-size="18" lengthAdjust="spacingAndGlyphs" textLength="167" x="94.5" y="48.2637">Evaluating (Analysis)</text><path d="M114.75,60.2188 L114.75,86.5703 L337.75,86.5703 L337.75,70.2188 L327.75,60.2188 L114.75,60.2188 " fill="#B0C4DE" filter="url(#f1nk8cta0t9dd7)" style="stroke: #6495ED; stroke-width: 1.0;"/><path d="M327.75,60.2188 L327.75,70.2188 L337.75,70.2188 L327.75,60.2188 " fill="#B0C4DE" style="stroke: #6495ED; stroke-width: 1.0;"/><text fill="#FFFFFF" font-family="sans-serif" font-size="13" lengthAdjust="spacingAndGlyphs" textLength="202" x="120.75" y="78.7139">comparative market analysis (cma)</text><ellipse cx="84.75" cy="73.3945" fill="#CCFFCC" filter="url(#f1nk8cta0t9dd7)" rx="10" ry="10" style="stroke: none; stroke-width: 1.0;"/><path d="M161.25,110.9414 L161.25,120.1172 L141.25,124.1172 L161.25,128.1172 L161.25,137.293 A0,0 0 0 0 161.25,137.293 L324.25,137.293 A0,0 0 0 0 324.25,137.293 L324.25,120.9414 L314.25,110.9414 L161.25,110.9414 A0,0 0 0 0 161.25,110.9414 " fill="#B0C4DE" filter="url(#f1nk8cta0t9dd7)" style="stroke: #6495ED; stroke-width: 1.0;"/><path d="M314.25,110.9414 L314.25,120.9414 L324.25,120.9414 L314.25,110.9414 " fill="#B0C4DE" style="stroke: #6495ED; stroke-width: 1.0;"/><text fill="#FFFFFF" font-family="sans-serif" font-size="13" lengthAdjust="spacingAndGlyphs" textLength="142" x="167.25" y="129.4365">should be $200-$600/mo</text><rect fill="#FFFFF0" filter="url(#f1nk8cta0t9dd7)" height="35.0938" rx="12.5" ry="12.5" style="stroke: #6495ED; stroke-width: 1.5;" width="113" x="28.25" y="106.5703"/><text fill="#696969" font-family="sans-serif" font-size="12" lengthAdjust="spacingAndGlyphs" textLength="93" x="38.25" y="129.0273">calculate income</text><rect fill="#FFFFF0" filter="url(#f1nk8cta0t9dd7)" height="35.0938" rx="12.5" ry="12.5" style="stroke: #6495ED; stroke-width: 1.5;" width="105" x="32.25" y="161.6641"/><text fill="#696969" font-family="sans-serif" font-size="12" lengthAdjust="spacingAndGlyphs" textLength="85" x="42.25" y="184.1211">get lending rate</text><path d="M154.25,206.7578 L154.25,242.2852 L134.25,246.2852 L154.25,250.2852 L154.25,285.8125 A0,0 0 0 0 154.25,285.8125 L278.25,285.8125 A0,0 0 0 0 278.25,285.8125 L278.25,216.7578 L268.25,206.7578 L154.25,206.7578 A0,0 0 0 0 154.25,206.7578 " fill="#B0C4DE" filter="url(#f1nk8cta0t9dd7)" style="stroke: #6495ED; stroke-width: 1.0;"/><path d="M268.25,206.7578 L268.25,216.7578 L278.25,216.7578 L268.25,206.7578 " fill="#B0C4DE" style="stroke: #6495ED; stroke-width: 1.0;"/><text fill="#FFFFFF" font-family="sans-serif" font-size="13" lengthAdjust="spacingAndGlyphs" textLength="103" x="160.25" y="225.2529">net of lending rate</text><line style="stroke: #6495ED; stroke-width: 1.0;" x1="154.25" x2="278.25" y1="233.1094" y2="233.1094"/><line style="stroke: #6495ED; stroke-width: 1.0;" x1="154.25" x2="278.25" y1="235.1094" y2="235.1094"/><text fill="#FFFFFF" font-family="sans-serif" font-size="13" lengthAdjust="spacingAndGlyphs" textLength="97" x="160.25" y="251.6045">should be 8-30%</text><line style="stroke: #6495ED; stroke-width: 1.0;" x1="154.25" x2="278.25" y1="259.4609" y2="259.4609"/><line style="stroke: #6495ED; stroke-width: 1.0;" x1="154.25" x2="278.25" y1="261.4609" y2="261.4609"/><text fill="#FFFFFF" font-family="sans-serif" font-size="13" lengthAdjust="spacingAndGlyphs" textLength="92" x="160.25" y="277.9561">inflation is 3-4%</text><rect fill="#FFFFF0" filter="url(#f1nk8cta0t9dd7)" height="35.0938" rx="12.5" ry="12.5" style="stroke: #6495ED; stroke-width: 1.5;" width="99" x="35.25" y="228.7383"/><text fill="#696969" font-family="sans-serif" font-size="12" lengthAdjust="spacingAndGlyphs" textLength="79" x="45.25" y="251.1953">calculate COC</text><path d="M170.25,310.1836 L170.25,319.3594 L150.25,323.3594 L170.25,327.3594 L170.25,336.5352 A0,0 0 0 0 170.25,336.5352 L284.25,336.5352 A0,0 0 0 0 284.25,336.5352 L284.25,320.1836 L274.25,310.1836 L170.25,310.1836 A0,0 0 0 0 170.25,310.1836 " fill="#B0C4DE" filter="url(#f1nk8cta0t9dd7)" style="stroke: #6495ED; stroke-width: 1.0;"/><path d="M274.25,310.1836 L274.25,320.1836 L284.25,320.1836 L274.25,310.1836 " fill="#B0C4DE" style="stroke: #6495ED; stroke-width: 1.0;"/><text fill="#FFFFFF" font-family="sans-serif" font-size="13" lengthAdjust="spacingAndGlyphs" textLength="93" x="176.25" y="328.6787">should be 100%</text><rect fill="#FFFFF0" filter="url(#f1nk8cta0t9dd7)" height="35.0938" rx="12.5" ry="12.5" style="stroke: #6495ED; stroke-width: 1.5;" width="131" x="19.25" y="305.8125"/><text fill="#696969" font-family="sans-serif" font-size="12" lengthAdjust="spacingAndGlyphs" textLength="111" x="29.25" y="328.2695">calculate equity gain</text><ellipse cx="84.75" cy="370.9063" fill="#FFFFFF" filter="url(#f1nk8cta0t9dd7)" rx="10" ry="10" style="stroke: #FF7F50; stroke-width: 1.5;"/><line style="stroke: #FF7F50; stroke-width: 2.5;" x1="78.5628" x2="90.9372" y1="364.7191" y2="377.0934"/><line style="stroke: #FF7F50; stroke-width: 2.5;" x1="90.9372" x2="78.5628" y1="364.7191" y2="377.0934"/><line style="stroke: #696969; stroke-width: 1.5;" x1="84.75" x2="84.75" y1="83.3945" y2="106.5703"/><polygon fill="#696969" points="80.75,96.5703,84.75,106.5703,88.75,96.5703,84.75,100.5703" style="stroke: #696969; stroke-width: 1.0;"/><line style="stroke: #696969; stroke-width: 1.5;" x1="84.75" x2="84.75" y1="141.6641" y2="161.6641"/><polygon fill="#696969" points="80.75,151.6641,84.75,161.6641,88.75,151.6641,84.75,155.6641" style="stroke: #696969; stroke-width: 1.0;"/><line style="stroke: #696969; stroke-width: 1.5;" x1="84.75" x2="84.75" y1="196.7578" y2="228.7383"/><polygon fill="#696969" points="80.75,218.7383,84.75,228.7383,88.75,218.7383,84.75,222.7383" style="stroke: #696969; stroke-width: 1.0;"/><line style="stroke: #696969; stroke-width: 1.5;" x1="84.75" x2="84.75" y1="263.832" y2="305.8125"/><polygon fill="#696969" points="80.75,295.8125,84.75,305.8125,88.75,295.8125,84.75,299.8125" style="stroke: #696969; stroke-width: 1.0;"/><line style="stroke: #696969; stroke-width: 1.5;" x1="84.75" x2="84.75" y1="340.9063" y2="360.9063"/><polygon fill="#696969" points="80.75,350.9063,84.75,360.9063,88.75,350.9063,84.75,354.9063" style="stroke: #696969; stroke-width: 1.0;"/><text fill="#000080" font-family="sans-serif" font-size="10" lengthAdjust="spacingAndGlyphs" textLength="31" x="10" y="390.2871">©2019</text><a target="_top" xlink:actuate="onRequest" xlink:href="http://www.lifestylesunlimited.com" xlink:show="new" xlink:title="http://www.lifestylesunlimited.com" xlink:type="simple"><text fill="#0000FF" font-family="sans-serif" font-size="10" lengthAdjust="spacingAndGlyphs" text-decoration="underline" textLength="95" x="44" y="390.2871">LifeStyles Unlimited</text><line style="stroke: #0000FF; stroke-width: 1.0;" x1="44" x2="139" y1="392.2871" y2="392.2871"/></a><text fill="#000080" font-family="sans-serif" font-size="10" lengthAdjust="spacingAndGlyphs" textLength="205" x="142" y="390.2871">| Generated Sat Apr 20 19:28:16 CDT 2019</text><!--
@startuml evaluating


skinparam {
  BorderColor Red
  PathHoverColor Blue
}

skinparam Title {
  FontColor Navy
  BackgroundColor PaleGoldenRod
  BorderColor Navy
  BorderRoundCorner 20
}

skinparam activity {
  BackgroundColor Ivory
  BorderColor CornflowerBlue
  FontColor DimGray
  

  Arrow {
    Color dimgray
    FontColor dimgray
  }

  Start {
    Color PHYSICAL
  }

  End {
    Color Coral
  }

  Diamond {
    BackgroundColor Ivory
    BorderColor CornflowerBlue
    FontColor DarkGray
  }

  BackgroundColor<< Exception >> Red
	BorderColor<< Exception >> White
}

skinparam Swimlane {
  BorderColor CornflowerBlue 
}

skinparam Partition {
  BackgroundColor Ivory
  BorderColor CornflowerBlue
  BorderThickness 1
  FontColor CornflowerBlue
  FontSize 16
  BorderRoundCorner 20
}

skinparam Note {
  BackgroundColor LightSteelBlue
  BorderColor CornflowerBlue
  FontColor White
}

skinparam Legend {
  BackgroundColor LightSteelBlue
  BorderColor CornflowerBlue
  FontColor White
}

skinparam Footer {
  FontColor Navy
}


left header 
	<font color=Navy>[[../index.svg ⌂ Home]]</font>
endheader


	Title Evaluating (Analysis)

	start

	floating note right: comparative market analysis (cma)

	:calculate income;
	note right
		should be $200-$600/mo
	end note

	:get lending rate;

	:calculate COC;
	note right
		net of lending rate
		====
		should be 8-30%
		====
		inflation is 3-4%
	end note

	:calculate equity gain;
	note right: should be 100%

	end


left footer 
	©2019 [[http://www.lifestylesunlimited.com LifeStyles Unlimited]] | Generated Sat Apr 20 19:28:16 CDT 2019
endfooter


@enduml

PlantUML version 1.2019.03(Sun Mar 10 06:04:44 CDT 2019)
(GPL source distribution)
Java Runtime: Java(TM) SE Runtime Environment
JVM: Java HotSpot(TM) 64-Bit Server VM
Java Version: 1.8.0_111-b14
Operating System: Windows 10
OS Version: 10.0
Default Encoding: Cp1252
Language: en
Country: US
--></g></svg>