<?xml version="1.0" encoding="UTF-8" standalone="no"?><svg xmlns="http://www.w3.org/2000/svg" xmlns:xlink="http://www.w3.org/1999/xlink" contentScriptType="application/ecmascript" contentStyleType="text/css" height="2896px" preserveAspectRatio="none" style="width:576px;height:2896px;" version="1.1" viewBox="0 0 576 2896" width="576px" zoomAndPan="magnify"><defs><style type="text/css"><![CDATA[path:hover { stroke: #0000FF !important;}]]></style><filter height="300%" id="f1rlcceql7nh7w" width="300%" x="-1" y="-1"><feGaussianBlur result="blurOut" stdDeviation="2.0"/><feColorMatrix in="blurOut" result="blurOut2" type="matrix" values="0 0 0 0 0 0 0 0 0 0 0 0 0 0 0 0 0 0 .4 0"/><feOffset dx="4.0" dy="4.0" in="blurOut2" result="blurOut3"/><feBlend in="SourceGraphic" in2="blurOut3" mode="normal"/></filter></defs><g><a target="_top" xlink:actuate="onRequest" xlink:href="../index.svg?sanitize=true" xlink:show="new" xlink:title="../index.svg?sanitize=true" xlink:type="simple"><text fill="#0000FF" font-family="sans-serif" font-size="24" lengthAdjust="spacingAndGlyphs" text-decoration="underline" textLength="90" x="10" y="34.9141">⌂ Home</text><line style="stroke: #0000FF; stroke-width: 1.0;" x1="10" x2="100" y1="36.9141" y2="36.9141"/></a><rect fill="#EEE8AA" height="40.1875" rx="10" ry="10" style="stroke: #000080; stroke-width: 1.5;" width="241" x="166.25" y="42.1875"/><text fill="#000080" font-family="sans-serif" font-size="24" lengthAdjust="spacingAndGlyphs" textLength="225" x="174.25" y="72.1016">Evaluating (Analysis)</text><ellipse cx="118" cy="95.375" fill="#CCFFCC" filter="url(#f1rlcceql7nh7w)" rx="10" ry="10" style="stroke: none; stroke-width: 1.0;"/><rect fill="#FFFFF0" filter="url(#f1rlcceql7nh7w)" height="821.2031" style="stroke: #6495ED; stroke-width: 1.0;" width="424" x="10" y="116.3906"/><path d="M147,117.3906 L147,129.5156 L137,139.5156 L10,139.5156 " fill="none" style="stroke: #6495ED; stroke-width: 1.0;"/><text fill="#6495ED" font-family="sans-serif" font-size="16" lengthAdjust="spacingAndGlyphs" textLength="127" x="13" y="134">Gather Information</text><path d="M195.5,160.8867 L195.5,170.0625 L175.5,174.0625 L195.5,178.0625 L195.5,187.2383 A0,0 0 0 0 195.5,187.2383 L292.5,187.2383 A0,0 0 0 0 292.5,187.2383 L292.5,170.8867 L282.5,160.8867 L195.5,160.8867 A0,0 0 0 0 195.5,160.8867 " fill="#B0C4DE" filter="url(#f1rlcceql7nh7w)" style="stroke: #6495ED; stroke-width: 1.0;"/><path d="M282.5,160.8867 L282.5,170.8867 L292.5,170.8867 L282.5,160.8867 " fill="#B0C4DE" style="stroke: #6495ED; stroke-width: 1.0;"/><text fill="#FFFFFF" font-family="sans-serif" font-size="13" lengthAdjust="spacingAndGlyphs" textLength="76" x="201.5" y="179.3818">offer full price</text><rect fill="#CCFFCC" filter="url(#f1rlcceql7nh7w)" height="35.0938" style="stroke: #6495ED; stroke-width: 1.0;" width="115" x="60.5" y="156.5156"/><path d="M74.5,170.6094 L74.5,171.6094 L73.75,171.6094 C73.064,171.6094 72.5,172.1734 72.5,172.8594 L72.5,173.3594 C72.5,174.0374 72.937,174.6014 73.594,174.7654 L76.157,175.4214 C76.3,175.4574 76.501,175.7174 76.501,175.8594 L76.501,176.3594 C76.501,176.4934 76.385,176.6094 76.251,176.6094 L73.751,176.6094 C73.635,176.6094 73.539,176.5724 73.501,176.5464 L73.501,175.6084 L72.501,175.6084 L72.501,176.6084 C72.501,176.9504 72.704,177.2354 72.939,177.3894 C73.173,177.5444 73.457,177.6084 73.752,177.6084 L74.502,177.6084 L74.502,178.6084 L75.502,178.6084 L75.502,177.6084 L76.252,177.6084 C76.938,177.6084 77.502,177.0444 77.502,176.3584 L77.502,175.8584 C77.502,175.1804 77.065,174.6164 76.408,174.4524 L73.845,173.7964 C73.702,173.7604 73.501,173.5004 73.501,173.3584 L73.501,172.8584 C73.501,172.7244 73.617,172.6084 73.751,172.6084 L76.251,172.6084 C76.367,172.6084 76.463,172.6454 76.501,172.6714 L76.501,173.6094 L77.501,173.6094 L77.501,172.6094 C77.501,172.2674 77.298,171.9824 77.063,171.8284 C76.829,171.6734 76.545,171.6094 76.25,171.6094 L75.5,171.6094 L75.5,170.6094 L74.5,170.6094 " fill="#696969" style="stroke: ; stroke-width: 0.0; stroke-dasharray: ;"/><text fill="#696969" font-family="sans-serif" font-size="12" lengthAdjust="spacingAndGlyphs" textLength="82" x="83.5" y="178.9727">purchase price</text><path d="M184,215.9805 L184,225.1563 L164,229.1563 L184,233.1563 L184,242.332 A0,0 0 0 0 184,242.332 L256,242.332 A0,0 0 0 0 256,242.332 L256,225.9805 L246,215.9805 L184,215.9805 A0,0 0 0 0 184,215.9805 " fill="#B0C4DE" filter="url(#f1rlcceql7nh7w)" style="stroke: #6495ED; stroke-width: 1.0;"/><path d="M246,215.9805 L246,225.9805 L256,225.9805 L246,215.9805 " fill="#B0C4DE" style="stroke: #6495ED; stroke-width: 1.0;"/><text fill="#FFFFFF" font-family="sans-serif" font-size="13" lengthAdjust="spacingAndGlyphs" textLength="51" x="190" y="234.4756">dfw $350</text><rect fill="#CCFFCC" filter="url(#f1rlcceql7nh7w)" height="35.0938" style="stroke: #6495ED; stroke-width: 1.0;" width="92" x="72" y="211.6094"/><path d="M86,225.7031 L86,226.7031 L85.25,226.7031 C84.564,226.7031 84,227.2671 84,227.9531 L84,228.4531 C84,229.1311 84.437,229.6951 85.094,229.8591 L87.657,230.5151 C87.8,230.5511 88.001,230.8111 88.001,230.9531 L88.001,231.4531 C88.001,231.5871 87.885,231.7031 87.751,231.7031 L85.251,231.7031 C85.135,231.7031 85.039,231.6661 85.001,231.6401 L85.001,230.7021 L84.001,230.7021 L84.001,231.7021 C84.001,232.0441 84.204,232.3291 84.439,232.4831 C84.673,232.6381 84.957,232.7021 85.252,232.7021 L86.002,232.7021 L86.002,233.7021 L87.002,233.7021 L87.002,232.7021 L87.752,232.7021 C88.438,232.7021 89.002,232.1381 89.002,231.4521 L89.002,230.9521 C89.002,230.2741 88.565,229.7101 87.908,229.5461 L85.345,228.8901 C85.202,228.8541 85.001,228.5941 85.001,228.4521 L85.001,227.9521 C85.001,227.8181 85.117,227.7021 85.251,227.7021 L87.751,227.7021 C87.867,227.7021 87.963,227.7391 88.001,227.7651 L88.001,228.7031 L89.001,228.7031 L89.001,227.7031 C89.001,227.3611 88.798,227.0761 88.563,226.9221 C88.329,226.7671 88.045,226.7031 87.75,226.7031 L87,226.7031 L87,225.7031 L86,225.7031 " fill="#696969" style="stroke: ; stroke-width: 0.0; stroke-dasharray: ;"/><text fill="#696969" font-family="sans-serif" font-size="12" lengthAdjust="spacingAndGlyphs" textLength="59" x="95" y="234.0664">survey 350</text><path d="M225.5,271.0742 L225.5,280.25 L205.5,284.25 L225.5,288.25 L225.5,297.4258 A0,0 0 0 0 225.5,297.4258 L314.5,297.4258 A0,0 0 0 0 314.5,297.4258 L314.5,281.0742 L304.5,271.0742 L225.5,271.0742 A0,0 0 0 0 225.5,271.0742 " fill="#B0C4DE" filter="url(#f1rlcceql7nh7w)" style="stroke: #6495ED; stroke-width: 1.0;"/><path d="M304.5,271.0742 L304.5,281.0742 L314.5,281.0742 L304.5,271.0742 " fill="#B0C4DE" style="stroke: #6495ED; stroke-width: 1.0;"/><text fill="#FFFFFF" font-family="sans-serif" font-size="13" lengthAdjust="spacingAndGlyphs" textLength="68" x="231.5" y="289.5693">hard money</text><rect fill="#CCFFCC" filter="url(#f1rlcceql7nh7w)" height="35.0938" style="stroke: #6495ED; stroke-width: 1.0;" width="175" x="30.5" y="266.7031"/><path d="M44.5,280.7969 L44.5,281.7969 L43.75,281.7969 C43.064,281.7969 42.5,282.3609 42.5,283.0469 L42.5,283.5469 C42.5,284.2249 42.937,284.7889 43.594,284.9529 L46.157,285.6089 C46.3,285.6449 46.501,285.9049 46.501,286.0469 L46.501,286.5469 C46.501,286.6809 46.385,286.7969 46.251,286.7969 L43.751,286.7969 C43.635,286.7969 43.539,286.7599 43.501,286.7339 L43.501,285.7959 L42.501,285.7959 L42.501,286.7959 C42.501,287.1379 42.704,287.4229 42.939,287.5769 C43.173,287.7319 43.457,287.7959 43.752,287.7959 L44.502,287.7959 L44.502,288.7959 L45.502,288.7959 L45.502,287.7959 L46.252,287.7959 C46.938,287.7959 47.502,287.2319 47.502,286.5459 L47.502,286.0459 C47.502,285.3679 47.065,284.8039 46.408,284.6399 L43.845,283.9839 C43.702,283.9479 43.501,283.6879 43.501,283.5459 L43.501,283.0459 C43.501,282.9119 43.617,282.7959 43.751,282.7959 L46.251,282.7959 C46.367,282.7959 46.463,282.8329 46.501,282.8589 L46.501,283.7969 L47.501,283.7969 L47.501,282.7969 C47.501,282.4549 47.298,282.1699 47.063,282.0159 C46.829,281.8609 46.545,281.7969 46.25,281.7969 L45.5,281.7969 L45.5,280.7969 L44.5,280.7969 " fill="#696969" style="stroke: ; stroke-width: 0.0; stroke-dasharray: ;"/><text fill="#696969" font-family="sans-serif" font-size="12" lengthAdjust="spacingAndGlyphs" textLength="142" x="53.5" y="289.1602">appraisal first closing 500</text><path d="M236,326.168 L236,335.3438 L216,339.3438 L236,343.3438 L236,352.5195 A0,0 0 0 0 236,352.5195 L349,352.5195 A0,0 0 0 0 349,352.5195 L349,336.168 L339,326.168 L236,326.168 A0,0 0 0 0 236,326.168 " fill="#B0C4DE" filter="url(#f1rlcceql7nh7w)" style="stroke: #6495ED; stroke-width: 1.0;"/><path d="M339,326.168 L339,336.168 L349,336.168 L339,326.168 " fill="#B0C4DE" style="stroke: #6495ED; stroke-width: 1.0;"/><text fill="#FFFFFF" font-family="sans-serif" font-size="13" lengthAdjust="spacingAndGlyphs" textLength="92" x="242" y="344.6631">back-end lender</text><rect fill="#CCFFCC" filter="url(#f1rlcceql7nh7w)" height="35.0938" style="stroke: #6495ED; stroke-width: 1.0;" width="196" x="20" y="321.7969"/><path d="M34,335.8906 L34,336.8906 L33.25,336.8906 C32.564,336.8906 32,337.4546 32,338.1406 L32,338.6406 C32,339.3186 32.437,339.8826 33.094,340.0466 L35.657,340.7026 C35.8,340.7386 36.001,340.9986 36.001,341.1406 L36.001,341.6406 C36.001,341.7746 35.885,341.8906 35.751,341.8906 L33.251,341.8906 C33.135,341.8906 33.039,341.8536 33.001,341.8276 L33.001,340.8896 L32.001,340.8896 L32.001,341.8896 C32.001,342.2316 32.204,342.5166 32.439,342.6706 C32.673,342.8256 32.957,342.8896 33.252,342.8896 L34.002,342.8896 L34.002,343.8896 L35.002,343.8896 L35.002,342.8896 L35.752,342.8896 C36.438,342.8896 37.002,342.3256 37.002,341.6396 L37.002,341.1396 C37.002,340.4616 36.565,339.8976 35.908,339.7336 L33.345,339.0776 C33.202,339.0416 33.001,338.7816 33.001,338.6396 L33.001,338.1396 C33.001,338.0056 33.117,337.8896 33.251,337.8896 L35.751,337.8896 C35.867,337.8896 35.963,337.9266 36.001,337.9526 L36.001,338.8906 L37.001,338.8906 L37.001,337.8906 C37.001,337.5486 36.798,337.2636 36.563,337.1096 C36.329,336.9546 36.045,336.8906 35.75,336.8906 L35,336.8906 L35,335.8906 L34,335.8906 " fill="#696969" style="stroke: ; stroke-width: 0.0; stroke-dasharray: ;"/><text fill="#696969" font-family="sans-serif" font-size="12" lengthAdjust="spacingAndGlyphs" textLength="163" x="43" y="344.2539">appraisal second closing 500</text><path d="M187,381.2617 L187,390.4375 L167,394.4375 L187,398.4375 L187,407.6133 A0,0 0 0 0 187,407.6133 L277,407.6133 A0,0 0 0 0 277,407.6133 L277,391.2617 L267,381.2617 L187,381.2617 A0,0 0 0 0 187,381.2617 " fill="#B0C4DE" filter="url(#f1rlcceql7nh7w)" style="stroke: #6495ED; stroke-width: 1.0;"/><path d="M267,381.2617 L267,391.2617 L277,391.2617 L267,381.2617 " fill="#B0C4DE" style="stroke: #6495ED; stroke-width: 1.0;"/><text fill="#FFFFFF" font-family="sans-serif" font-size="13" lengthAdjust="spacingAndGlyphs" textLength="69" x="193" y="399.7568">interest rate</text><rect fill="#FFFFF0" filter="url(#f1rlcceql7nh7w)" height="35.0938" style="stroke: #6495ED; stroke-width: 1.0;" width="98" x="69" y="376.8906"/><path d="M80.094,390.9844 C80.034,390.9844 80,391.0184 80,391.0784 L80,398.8914 C80,398.9514 80.034,398.9854 80.094,398.9854 L86.907,398.9854 C86.967,398.9854 87.001,398.9514 87.001,398.8914 L87.001,391.0784 C87.001,391.0184 86.967,390.9844 86.907,390.9844 L80.094,390.9844 M81,391.9844 L86,391.9844 L86,393.9844 L81,393.9844 L81,391.9844 M81,394.9844 L82,394.9844 L82,395.9844 L81,395.9844 L81,394.9844 M83,394.9844 L84,394.9844 L84,395.9844 L83,395.9844 L83,394.9844 M85,394.9844 L86,394.9844 L86,397.9844 L85,397.9844 L85,394.9844 M81,396.9844 L82,396.9844 L82,397.9844 L81,397.9844 L81,396.9844 M83,396.9844 L84,396.9844 L84,397.9844 L83,397.9844 L83,396.9844 " fill="#696969" style="stroke: ; stroke-width: 0.0; stroke-dasharray: ;"/><text fill="#696969" font-family="sans-serif" font-size="12" lengthAdjust="spacingAndGlyphs" textLength="65" x="92" y="399.3477">lending rate</text><path d="M180.5,436.3555 L180.5,445.5313 L160.5,449.5313 L180.5,453.5313 L180.5,462.707 A0,0 0 0 0 180.5,462.707 L247.5,462.707 A0,0 0 0 0 247.5,462.707 L247.5,446.3555 L237.5,436.3555 L180.5,436.3555 A0,0 0 0 0 180.5,436.3555 " fill="#B0C4DE" filter="url(#f1rlcceql7nh7w)" style="stroke: #6495ED; stroke-width: 1.0;"/><path d="M237.5,436.3555 L237.5,446.3555 L247.5,446.3555 L237.5,436.3555 " fill="#B0C4DE" style="stroke: #6495ED; stroke-width: 1.0;"/><text fill="#FFFFFF" font-family="sans-serif" font-size="13" lengthAdjust="spacingAndGlyphs" textLength="46" x="186.5" y="454.8506">monthly</text><rect fill="#CCFFCC" filter="url(#f1rlcceql7nh7w)" height="35.0938" style="stroke: #6495ED; stroke-width: 1.0;" width="85" x="75.5" y="431.9844"/><path d="M89.5,446.0781 L89.5,447.0781 L88.75,447.0781 C88.064,447.0781 87.5,447.6421 87.5,448.3281 L87.5,448.8281 C87.5,449.5061 87.937,450.0701 88.594,450.2341 L91.157,450.8901 C91.3,450.9261 91.501,451.1861 91.501,451.3281 L91.501,451.8281 C91.501,451.9621 91.385,452.0781 91.251,452.0781 L88.751,452.0781 C88.635,452.0781 88.539,452.0411 88.501,452.0151 L88.501,451.0771 L87.501,451.0771 L87.501,452.0771 C87.501,452.4191 87.704,452.7041 87.939,452.8581 C88.173,453.0131 88.457,453.0771 88.752,453.0771 L89.502,453.0771 L89.502,454.0771 L90.502,454.0771 L90.502,453.0771 L91.252,453.0771 C91.938,453.0771 92.502,452.5131 92.502,451.8271 L92.502,451.3271 C92.502,450.6491 92.065,450.0851 91.408,449.9211 L88.845,449.2651 C88.702,449.2291 88.501,448.9691 88.501,448.8271 L88.501,448.3271 C88.501,448.1931 88.617,448.0771 88.751,448.0771 L91.251,448.0771 C91.367,448.0771 91.463,448.1141 91.501,448.1401 L91.501,449.0781 L92.501,449.0781 L92.501,448.0781 C92.501,447.7361 92.298,447.4511 92.063,447.2971 C91.829,447.1421 91.545,447.0781 91.25,447.0781 L90.5,447.0781 L90.5,446.0781 L89.5,446.0781 " fill="#696969" style="stroke: ; stroke-width: 0.0; stroke-dasharray: ;"/><text fill="#696969" font-family="sans-serif" font-size="12" lengthAdjust="spacingAndGlyphs" textLength="52" x="98.5" y="454.4414">hoa dues</text><path d="M192.5,491.4492 L192.5,500.625 L172.5,504.625 L192.5,508.625 L192.5,517.8008 A0,0 0 0 0 192.5,517.8008 L251.5,517.8008 A0,0 0 0 0 251.5,517.8008 L251.5,501.4492 L241.5,491.4492 L192.5,491.4492 A0,0 0 0 0 192.5,491.4492 " fill="#B0C4DE" filter="url(#f1rlcceql7nh7w)" style="stroke: #6495ED; stroke-width: 1.0;"/><path d="M241.5,491.4492 L241.5,501.4492 L251.5,501.4492 L241.5,491.4492 " fill="#B0C4DE" style="stroke: #6495ED; stroke-width: 1.0;"/><text fill="#FFFFFF" font-family="sans-serif" font-size="13" lengthAdjust="spacingAndGlyphs" textLength="38" x="198.5" y="509.9443">annual</text><rect fill="#CCFFCC" filter="url(#f1rlcceql7nh7w)" height="35.0938" style="stroke: #6495ED; stroke-width: 1.0;" width="109" x="63.5" y="487.0781"/><path d="M77.5,501.1719 L77.5,502.1719 L76.75,502.1719 C76.064,502.1719 75.5,502.7359 75.5,503.4219 L75.5,503.9219 C75.5,504.5999 75.937,505.1639 76.594,505.3279 L79.157,505.9839 C79.3,506.0199 79.501,506.2799 79.501,506.4219 L79.501,506.9219 C79.501,507.0559 79.385,507.1719 79.251,507.1719 L76.751,507.1719 C76.635,507.1719 76.539,507.1349 76.501,507.1089 L76.501,506.1709 L75.501,506.1709 L75.501,507.1709 C75.501,507.5129 75.704,507.7979 75.939,507.9519 C76.173,508.1069 76.457,508.1709 76.752,508.1709 L77.502,508.1709 L77.502,509.1709 L78.502,509.1709 L78.502,508.1709 L79.252,508.1709 C79.938,508.1709 80.502,507.6069 80.502,506.9209 L80.502,506.4209 C80.502,505.7429 80.065,505.1789 79.408,505.0149 L76.845,504.3589 C76.702,504.3229 76.501,504.0629 76.501,503.9209 L76.501,503.4209 C76.501,503.2869 76.617,503.1709 76.751,503.1709 L79.251,503.1709 C79.367,503.1709 79.463,503.2079 79.501,503.2339 L79.501,504.1719 L80.501,504.1719 L80.501,503.1719 C80.501,502.8299 80.298,502.5449 80.063,502.3909 C79.829,502.2359 79.545,502.1719 79.25,502.1719 L78.5,502.1719 L78.5,501.1719 L77.5,501.1719 " fill="#696969" style="stroke: ; stroke-width: 0.0; stroke-dasharray: ;"/><text fill="#696969" font-family="sans-serif" font-size="12" lengthAdjust="spacingAndGlyphs" textLength="76" x="86.5" y="509.5352">property taxes</text><path d="M206.5,546.543 L206.5,555.7188 L186.5,559.7188 L206.5,563.7188 L206.5,572.8945 A0,0 0 0 0 206.5,572.8945 L265.5,572.8945 A0,0 0 0 0 265.5,572.8945 L265.5,556.543 L255.5,546.543 L206.5,546.543 A0,0 0 0 0 206.5,546.543 " fill="#B0C4DE" filter="url(#f1rlcceql7nh7w)" style="stroke: #6495ED; stroke-width: 1.0;"/><path d="M255.5,546.543 L255.5,556.543 L265.5,556.543 L255.5,546.543 " fill="#B0C4DE" style="stroke: #6495ED; stroke-width: 1.0;"/><text fill="#FFFFFF" font-family="sans-serif" font-size="13" lengthAdjust="spacingAndGlyphs" textLength="38" x="212.5" y="565.0381">annual</text><rect fill="#CCFFCC" filter="url(#f1rlcceql7nh7w)" height="35.0938" style="stroke: #6495ED; stroke-width: 1.0;" width="137" x="49.5" y="542.1719"/><path d="M63.5,556.2656 L63.5,557.2656 L62.75,557.2656 C62.064,557.2656 61.5,557.8296 61.5,558.5156 L61.5,559.0156 C61.5,559.6936 61.937,560.2576 62.594,560.4216 L65.157,561.0776 C65.3,561.1136 65.501,561.3736 65.501,561.5156 L65.501,562.0156 C65.501,562.1496 65.385,562.2656 65.251,562.2656 L62.751,562.2656 C62.635,562.2656 62.539,562.2286 62.501,562.2026 L62.501,561.2646 L61.501,561.2646 L61.501,562.2646 C61.501,562.6066 61.704,562.8916 61.939,563.0456 C62.173,563.2006 62.457,563.2646 62.752,563.2646 L63.502,563.2646 L63.502,564.2646 L64.502,564.2646 L64.502,563.2646 L65.252,563.2646 C65.938,563.2646 66.502,562.7006 66.502,562.0146 L66.502,561.5146 C66.502,560.8366 66.065,560.2726 65.408,560.1086 L62.845,559.4526 C62.702,559.4166 62.501,559.1566 62.501,559.0146 L62.501,558.5146 C62.501,558.3806 62.617,558.2646 62.751,558.2646 L65.251,558.2646 C65.367,558.2646 65.463,558.3016 65.501,558.3276 L65.501,559.2656 L66.501,559.2656 L66.501,558.2656 C66.501,557.9236 66.298,557.6386 66.063,557.4846 C65.829,557.3296 65.545,557.2656 65.25,557.2656 L64.5,557.2656 L64.5,556.2656 L63.5,556.2656 " fill="#696969" style="stroke: ; stroke-width: 0.0; stroke-dasharray: ;"/><text fill="#696969" font-family="sans-serif" font-size="12" lengthAdjust="spacingAndGlyphs" textLength="104" x="72.5" y="564.6289">insurance 500-700</text><path d="M165,601.6367 L165,610.8125 L145,614.8125 L165,618.8125 L165,627.9883 A0,0 0 0 0 165,627.9883 L268,627.9883 A0,0 0 0 0 268,627.9883 L268,611.6367 L258,601.6367 L165,601.6367 A0,0 0 0 0 165,601.6367 " fill="#B0C4DE" filter="url(#f1rlcceql7nh7w)" style="stroke: #6495ED; stroke-width: 1.0;"/><path d="M258,601.6367 L258,611.6367 L268,611.6367 L258,601.6367 " fill="#B0C4DE" style="stroke: #6495ED; stroke-width: 1.0;"/><text fill="#FFFFFF" font-family="sans-serif" font-size="13" lengthAdjust="spacingAndGlyphs" textLength="82" x="171" y="620.1318">can use zillow</text><rect fill="#CCFFCC" filter="url(#f1rlcceql7nh7w)" height="35.0938" style="stroke: #6495ED; stroke-width: 1.0;" width="54" x="91" y="597.2656"/><path d="M105,611.3594 L105,612.3594 L104.25,612.3594 C103.564,612.3594 103,612.9234 103,613.6094 L103,614.1094 C103,614.7874 103.437,615.3514 104.094,615.5154 L106.657,616.1714 C106.8,616.2074 107.001,616.4674 107.001,616.6094 L107.001,617.1094 C107.001,617.2434 106.885,617.3594 106.751,617.3594 L104.251,617.3594 C104.135,617.3594 104.039,617.3224 104.001,617.2964 L104.001,616.3584 L103.001,616.3584 L103.001,617.3584 C103.001,617.7004 103.204,617.9854 103.439,618.1394 C103.673,618.2944 103.957,618.3584 104.252,618.3584 L105.002,618.3584 L105.002,619.3584 L106.002,619.3584 L106.002,618.3584 L106.752,618.3584 C107.438,618.3584 108.002,617.7944 108.002,617.1084 L108.002,616.6084 C108.002,615.9304 107.565,615.3664 106.908,615.2024 L104.345,614.5464 C104.202,614.5104 104.001,614.2504 104.001,614.1084 L104.001,613.6084 C104.001,613.4744 104.117,613.3584 104.251,613.3584 L106.751,613.3584 C106.867,613.3584 106.963,613.3954 107.001,613.4214 L107.001,614.3594 L108.001,614.3594 L108.001,613.3594 C108.001,613.0174 107.798,612.7324 107.563,612.5784 C107.329,612.4234 107.045,612.3594 106.75,612.3594 L106,612.3594 L106,611.3594 L105,611.3594 " fill="#696969" style="stroke: ; stroke-width: 0.0; stroke-dasharray: ;"/><text fill="#696969" font-family="sans-serif" font-size="12" lengthAdjust="spacingAndGlyphs" textLength="21" x="114" y="619.7227">rent</text><path d="M174.5,648.5547 L174.5,665.9063 L154.5,669.9063 L174.5,673.9063 L174.5,691.2578 A0,0 0 0 0 174.5,691.2578 L326.5,691.2578 A0,0 0 0 0 326.5,691.2578 L326.5,658.5547 L316.5,648.5547 L174.5,648.5547 A0,0 0 0 0 174.5,648.5547 " fill="#B0C4DE" filter="url(#f1rlcceql7nh7w)" style="stroke: #6495ED; stroke-width: 1.0;"/><path d="M316.5,648.5547 L316.5,658.5547 L326.5,658.5547 L316.5,648.5547 " fill="#B0C4DE" style="stroke: #6495ED; stroke-width: 1.0;"/><text fill="#FFFFFF" font-family="sans-serif" font-size="13" lengthAdjust="spacingAndGlyphs" textLength="79" x="180.5" y="667.0498">quarterly cost</text><text fill="#FFFFFF" font-family="sans-serif" font-size="13" lengthAdjust="spacingAndGlyphs" textLength="131" x="180.5" y="683.4014">(taxes + insurance) / 4</text><rect fill="#CCFFCC" filter="url(#f1rlcceql7nh7w)" height="35.0938" style="stroke: #6495ED; stroke-width: 1.0;" width="73" x="81.5" y="652.3594"/><path d="M92.594,666.4531 C92.534,666.4531 92.5,666.4871 92.5,666.5471 L92.5,674.3601 C92.5,674.4201 92.534,674.4541 92.594,674.4541 L99.407,674.4541 C99.467,674.4541 99.501,674.4201 99.501,674.3601 L99.501,666.5471 C99.501,666.4871 99.467,666.4531 99.407,666.4531 L92.594,666.4531 M93.5,667.4531 L98.5,667.4531 L98.5,669.4531 L93.5,669.4531 L93.5,667.4531 M93.5,670.4531 L94.5,670.4531 L94.5,671.4531 L93.5,671.4531 L93.5,670.4531 M95.5,670.4531 L96.5,670.4531 L96.5,671.4531 L95.5,671.4531 L95.5,670.4531 M97.5,670.4531 L98.5,670.4531 L98.5,673.4531 L97.5,673.4531 L97.5,670.4531 M93.5,672.4531 L94.5,672.4531 L94.5,673.4531 L93.5,673.4531 L93.5,672.4531 M95.5,672.4531 L96.5,672.4531 L96.5,673.4531 L95.5,673.4531 L95.5,672.4531 " fill="#696969" style="stroke: ; stroke-width: 0.0; stroke-dasharray: ;"/><text fill="#696969" font-family="sans-serif" font-size="12" lengthAdjust="spacingAndGlyphs" textLength="40" x="104.5" y="674.8164">escrow</text><path d="M223,715.6289 L223,724.8047 L203,728.8047 L223,732.8047 L223,741.9805 A0,0 0 0 0 223,741.9805 L301,741.9805 A0,0 0 0 0 301,741.9805 L301,725.6289 L291,715.6289 L223,715.6289 A0,0 0 0 0 223,715.6289 " fill="#B0C4DE" filter="url(#f1rlcceql7nh7w)" style="stroke: #6495ED; stroke-width: 1.0;"/><path d="M291,715.6289 L291,725.6289 L301,725.6289 L291,715.6289 " fill="#B0C4DE" style="stroke: #6495ED; stroke-width: 1.0;"/><text fill="#FFFFFF" font-family="sans-serif" font-size="13" lengthAdjust="spacingAndGlyphs" textLength="57" x="229" y="734.124">70% ARV</text><rect fill="#CCFFCC" filter="url(#f1rlcceql7nh7w)" height="35.0938" style="stroke: #6495ED; stroke-width: 1.0;" width="170" x="33" y="711.2578"/><path d="M47,725.3516 L47,726.3516 L46.25,726.3516 C45.564,726.3516 45,726.9156 45,727.6016 L45,728.1016 C45,728.7796 45.437,729.3436 46.094,729.5076 L48.657,730.1636 C48.8,730.1996 49.001,730.4596 49.001,730.6016 L49.001,731.1016 C49.001,731.2356 48.885,731.3516 48.751,731.3516 L46.251,731.3516 C46.135,731.3516 46.039,731.3146 46.001,731.2886 L46.001,730.3506 L45.001,730.3506 L45.001,731.3506 C45.001,731.6926 45.204,731.9776 45.439,732.1316 C45.673,732.2866 45.957,732.3506 46.252,732.3506 L47.002,732.3506 L47.002,733.3506 L48.002,733.3506 L48.002,732.3506 L48.752,732.3506 C49.438,732.3506 50.002,731.7866 50.002,731.1006 L50.002,730.6006 C50.002,729.9226 49.565,729.3586 48.908,729.1946 L46.345,728.5386 C46.202,728.5026 46.001,728.2426 46.001,728.1006 L46.001,727.6006 C46.001,727.4666 46.117,727.3506 46.251,727.3506 L48.751,727.3506 C48.867,727.3506 48.963,727.3876 49.001,727.4136 L49.001,728.3516 L50.001,728.3516 L50.001,727.3516 C50.001,727.0096 49.798,726.7246 49.563,726.5706 C49.329,726.4156 49.045,726.3516 48.75,726.3516 L48,726.3516 L48,725.3516 L47,725.3516 " fill="#696969" style="stroke: ; stroke-width: 0.0; stroke-dasharray: ;"/><text fill="#696969" font-family="sans-serif" font-size="12" lengthAdjust="spacingAndGlyphs" textLength="137" x="56" y="733.7148">hard money loan amount</text><path d="M225,756.3516 L225,781.8789 L205,785.8789 L225,789.8789 L225,815.4063 A0,0 0 0 0 225,815.4063 L424,815.4063 A0,0 0 0 0 424,815.4063 L424,766.3516 L414,756.3516 L225,756.3516 A0,0 0 0 0 225,756.3516 " fill="#B0C4DE" filter="url(#f1rlcceql7nh7w)" style="stroke: #6495ED; stroke-width: 1.0;"/><path d="M414,756.3516 L414,766.3516 L424,766.3516 L414,756.3516 " fill="#B0C4DE" style="stroke: #6495ED; stroke-width: 1.0;"/><ellipse cx="236.5" cy="770.2031" fill="#FFFFFF" rx="2.5" ry="2.5" style="stroke: #FFFFFF; stroke-width: 0.0;"/><text fill="#FFFFFF" font-family="sans-serif" font-size="13" lengthAdjust="spacingAndGlyphs" textLength="57" x="244" y="774.8467">75% ARV</text><ellipse cx="236.5" cy="786.5547" fill="#FFFFFF" rx="2.5" ry="2.5" style="stroke: #FFFFFF; stroke-width: 0.0;"/><text fill="#FFFFFF" font-family="sans-serif" font-size="13" lengthAdjust="spacingAndGlyphs" textLength="119" x="244" y="791.1982">income to debt ratio:</text><text fill="#FFFFFF" font-family="sans-serif" font-size="13" lengthAdjust="spacingAndGlyphs" textLength="166" x="243" y="807.5498">75% of rent - PITI = cashflow</text><rect fill="#CCFFCC" filter="url(#f1rlcceql7nh7w)" height="35.0938" style="stroke: #6495ED; stroke-width: 1.0;" width="174" x="31" y="768.332"/><path d="M45,782.4258 L45,783.4258 L44.25,783.4258 C43.564,783.4258 43,783.9898 43,784.6758 L43,785.1758 C43,785.8538 43.437,786.4178 44.094,786.5818 L46.657,787.2378 C46.8,787.2738 47.001,787.5338 47.001,787.6758 L47.001,788.1758 C47.001,788.3098 46.885,788.4258 46.751,788.4258 L44.251,788.4258 C44.135,788.4258 44.039,788.3888 44.001,788.3628 L44.001,787.4248 L43.001,787.4248 L43.001,788.4248 C43.001,788.7668 43.204,789.0518 43.439,789.2058 C43.673,789.3608 43.957,789.4248 44.252,789.4248 L45.002,789.4248 L45.002,790.4248 L46.002,790.4248 L46.002,789.4248 L46.752,789.4248 C47.438,789.4248 48.002,788.8608 48.002,788.1748 L48.002,787.6748 C48.002,786.9968 47.565,786.4328 46.908,786.2688 L44.345,785.6128 C44.202,785.5768 44.001,785.3168 44.001,785.1748 L44.001,784.6748 C44.001,784.5408 44.117,784.4248 44.251,784.4248 L46.751,784.4248 C46.867,784.4248 46.963,784.4618 47.001,784.4878 L47.001,785.4258 L48.001,785.4258 L48.001,784.4258 C48.001,784.0838 47.798,783.7988 47.563,783.6448 C47.329,783.4898 47.045,783.4258 46.75,783.4258 L46,783.4258 L46,782.4258 L45,782.4258 " fill="#696969" style="stroke: ; stroke-width: 0.0; stroke-dasharray: ;"/><text fill="#696969" font-family="sans-serif" font-size="12" lengthAdjust="spacingAndGlyphs" textLength="141" x="54" y="790.7891">conventional loan amount</text><path d="M225,839.7773 L225,848.9531 L205,852.9531 L225,856.9531 L225,866.1289 A0,0 0 0 0 225,866.1289 L366,866.1289 A0,0 0 0 0 366,866.1289 L366,849.7773 L356,839.7773 L225,839.7773 A0,0 0 0 0 225,839.7773 " fill="#B0C4DE" filter="url(#f1rlcceql7nh7w)" style="stroke: #6495ED; stroke-width: 1.0;"/><path d="M356,839.7773 L356,849.7773 L366,849.7773 L356,839.7773 " fill="#B0C4DE" style="stroke: #6495ED; stroke-width: 1.0;"/><text fill="#FFFFFF" font-family="sans-serif" font-size="13" lengthAdjust="spacingAndGlyphs" textLength="120" x="231" y="858.2725">~ 7% of loan amount</text><rect fill="#CCFFCC" filter="url(#f1rlcceql7nh7w)" height="35.0938" style="stroke: #6495ED; stroke-width: 1.0;" width="174" x="31" y="835.4063"/><path d="M45,849.5 L45,850.5 L44.25,850.5 C43.564,850.5 43,851.064 43,851.75 L43,852.25 C43,852.928 43.437,853.492 44.094,853.656 L46.657,854.312 C46.8,854.348 47.001,854.608 47.001,854.75 L47.001,855.25 C47.001,855.384 46.885,855.5 46.751,855.5 L44.251,855.5 C44.135,855.5 44.039,855.463 44.001,855.437 L44.001,854.499 L43.001,854.499 L43.001,855.499 C43.001,855.841 43.204,856.126 43.439,856.28 C43.673,856.435 43.957,856.499 44.252,856.499 L45.002,856.499 L45.002,857.499 L46.002,857.499 L46.002,856.499 L46.752,856.499 C47.438,856.499 48.002,855.935 48.002,855.249 L48.002,854.749 C48.002,854.071 47.565,853.507 46.908,853.343 L44.345,852.687 C44.202,852.651 44.001,852.391 44.001,852.249 L44.001,851.749 C44.001,851.615 44.117,851.499 44.251,851.499 L46.751,851.499 C46.867,851.499 46.963,851.536 47.001,851.562 L47.001,852.5 L48.001,852.5 L48.001,851.5 C48.001,851.158 47.798,850.873 47.563,850.719 C47.329,850.564 47.045,850.5 46.75,850.5 L46,850.5 L46,849.5 L45,849.5 " fill="#696969" style="stroke: ; stroke-width: 0.0; stroke-dasharray: ;"/><text fill="#696969" font-family="sans-serif" font-size="12" lengthAdjust="spacingAndGlyphs" textLength="141" x="54" y="857.8633">hard money closing costs</text><path d="M227,894.8711 L227,904.0469 L207,908.0469 L227,912.0469 L227,921.2227 A0,0 0 0 0 227,921.2227 L368,921.2227 A0,0 0 0 0 368,921.2227 L368,904.8711 L358,894.8711 L227,894.8711 A0,0 0 0 0 227,894.8711 " fill="#B0C4DE" filter="url(#f1rlcceql7nh7w)" style="stroke: #6495ED; stroke-width: 1.0;"/><path d="M358,894.8711 L358,904.8711 L368,904.8711 L358,894.8711 " fill="#B0C4DE" style="stroke: #6495ED; stroke-width: 1.0;"/><text fill="#FFFFFF" font-family="sans-serif" font-size="13" lengthAdjust="spacingAndGlyphs" textLength="120" x="233" y="913.3662">~ 5% of loan amount</text><rect fill="#CCFFCC" filter="url(#f1rlcceql7nh7w)" height="35.0938" style="stroke: #6495ED; stroke-width: 1.0;" width="178" x="29" y="890.5"/><path d="M43,904.5938 L43,905.5938 L42.25,905.5938 C41.564,905.5938 41,906.1578 41,906.8438 L41,907.3438 C41,908.0218 41.437,908.5858 42.094,908.7498 L44.657,909.4058 C44.8,909.4418 45.001,909.7018 45.001,909.8438 L45.001,910.3438 C45.001,910.4778 44.885,910.5938 44.751,910.5938 L42.251,910.5938 C42.135,910.5938 42.039,910.5568 42.001,910.5308 L42.001,909.5928 L41.001,909.5928 L41.001,910.5928 C41.001,910.9348 41.204,911.2198 41.439,911.3738 C41.673,911.5288 41.957,911.5928 42.252,911.5928 L43.002,911.5928 L43.002,912.5928 L44.002,912.5928 L44.002,911.5928 L44.752,911.5928 C45.438,911.5928 46.002,911.0288 46.002,910.3428 L46.002,909.8428 C46.002,909.1648 45.565,908.6008 44.908,908.4368 L42.345,907.7808 C42.202,907.7448 42.001,907.4848 42.001,907.3428 L42.001,906.8428 C42.001,906.7088 42.117,906.5928 42.251,906.5928 L44.751,906.5928 C44.867,906.5928 44.963,906.6298 45.001,906.6558 L45.001,907.5938 L46.001,907.5938 L46.001,906.5938 C46.001,906.2518 45.798,905.9668 45.563,905.8128 C45.329,905.6578 45.045,905.5938 44.75,905.5938 L44,905.5938 L44,904.5938 L43,904.5938 " fill="#696969" style="stroke: ; stroke-width: 0.0; stroke-dasharray: ;"/><text fill="#696969" font-family="sans-serif" font-size="12" lengthAdjust="spacingAndGlyphs" textLength="145" x="52" y="912.957">conventional closing costs</text><rect fill="#FFFFF0" filter="url(#f1rlcceql7nh7w)" height="1555.9307" style="stroke: #6495ED; stroke-width: 1.0;" width="528.5" x="37" y="948.6094"/><path d="M199,949.6094 L199,961.7344 L189,971.7344 L37,971.7344 " fill="none" style="stroke: #6495ED; stroke-width: 1.0;"/><text fill="#6495ED" font-family="sans-serif" font-size="16" lengthAdjust="spacingAndGlyphs" textLength="152" x="40" y="966.2188">Calculate Rehab Cost</text><path d="M364.5,1733.3242 L364.5,1759.6758 L553.5,1759.6758 L553.5,1743.3242 L543.5,1733.3242 L364.5,1733.3242 " fill="#B0C4DE" filter="url(#f1rlcceql7nh7w)" style="stroke: #6495ED; stroke-width: 1.0;"/><path d="M543.5,1733.3242 L543.5,1743.3242 L553.5,1743.3242 L543.5,1733.3242 " fill="#B0C4DE" style="stroke: #6495ED; stroke-width: 1.0;"/><text fill="#FFFFFF" font-family="sans-serif" font-size="13" lengthAdjust="spacingAndGlyphs" textLength="168" x="370.5" y="1751.8193">rehab all properties the same</text><path d="M165,1042.0234 L165,1051.1992 L145,1055.1992 L165,1059.1992 L165,1068.375 A0,0 0 0 0 165,1068.375 L260,1068.375 A0,0 0 0 0 260,1068.375 L260,1052.0234 L250,1042.0234 L165,1042.0234 A0,0 0 0 0 165,1042.0234 " fill="#B0C4DE" filter="url(#f1rlcceql7nh7w)" style="stroke: #6495ED; stroke-width: 1.0;"/><path d="M250,1042.0234 L250,1052.0234 L260,1052.0234 L250,1042.0234 " fill="#B0C4DE" style="stroke: #6495ED; stroke-width: 1.0;"/><text fill="#FFFFFF" font-family="sans-serif" font-size="13" lengthAdjust="spacingAndGlyphs" textLength="74" x="171" y="1060.5186">butcherblock</text><rect fill="#CCFFCC" filter="url(#f1rlcceql7nh7w)" height="35.0938" style="stroke: #6495ED; stroke-width: 1.0;" width="54" x="91" y="1037.6523"/><path d="M105,1051.7461 L105,1052.7461 L104.25,1052.7461 C103.564,1052.7461 103,1053.3101 103,1053.9961 L103,1054.4961 C103,1055.1741 103.437,1055.7381 104.094,1055.9021 L106.657,1056.5581 C106.8,1056.5941 107.001,1056.8541 107.001,1056.9961 L107.001,1057.4961 C107.001,1057.6301 106.885,1057.7461 106.751,1057.7461 L104.251,1057.7461 C104.135,1057.7461 104.039,1057.7091 104.001,1057.6831 L104.001,1056.7451 L103.001,1056.7451 L103.001,1057.7451 C103.001,1058.0871 103.204,1058.3721 103.439,1058.5261 C103.673,1058.6811 103.957,1058.7451 104.252,1058.7451 L105.002,1058.7451 L105.002,1059.7451 L106.002,1059.7451 L106.002,1058.7451 L106.752,1058.7451 C107.438,1058.7451 108.002,1058.1811 108.002,1057.4951 L108.002,1056.9951 C108.002,1056.3171 107.565,1055.7531 106.908,1055.5891 L104.345,1054.9331 C104.202,1054.8971 104.001,1054.6371 104.001,1054.4951 L104.001,1053.9951 C104.001,1053.8611 104.117,1053.7451 104.251,1053.7451 L106.751,1053.7451 C106.867,1053.7451 106.963,1053.7821 107.001,1053.8081 L107.001,1054.7461 L108.001,1054.7461 L108.001,1053.7461 C108.001,1053.4041 107.798,1053.1191 107.563,1052.9651 C107.329,1052.8101 107.045,1052.7461 106.75,1052.7461 L106,1052.7461 L106,1051.7461 L105,1051.7461 " fill="#696969" style="stroke: ; stroke-width: 0.0; stroke-dasharray: ;"/><text fill="#696969" font-family="sans-serif" font-size="12" lengthAdjust="spacingAndGlyphs" textLength="21" x="114" y="1060.1094">150</text><polygon fill="#FFFFF0" filter="url(#f1rlcceql7nh7w)" points="89,988.7344,147,988.7344,159,1000.7344,147,1012.7344,89,1012.7344,77,1000.7344,89,988.7344" style="stroke: #6495ED; stroke-width: 1.0;"/><text fill="#696969" font-family="sans-serif" font-size="11" lengthAdjust="spacingAndGlyphs" textLength="18" x="122" y="1024.1533">yes</text><text fill="#A9A9A9" font-family="sans-serif" font-size="11" lengthAdjust="spacingAndGlyphs" textLength="58" x="89" y="1005.2354">countertops</text><text fill="#696969" font-family="sans-serif" font-size="11" lengthAdjust="spacingAndGlyphs" textLength="12" x="159" y="998.3174">no</text><polygon fill="#FFFFF0" filter="url(#f1rlcceql7nh7w)" points="118,1092.7461,130,1104.7461,118,1116.7461,106,1104.7461,118,1092.7461" style="stroke: #6495ED; stroke-width: 1.0;"/><path d="M182.5,1190.0352 L182.5,1199.2109 L162.5,1203.2109 L182.5,1207.2109 L182.5,1216.3867 A0,0 0 0 0 182.5,1216.3867 L232.5,1216.3867 A0,0 0 0 0 232.5,1216.3867 L232.5,1200.0352 L222.5,1190.0352 L182.5,1190.0352 A0,0 0 0 0 182.5,1190.0352 " fill="#B0C4DE" filter="url(#f1rlcceql7nh7w)" style="stroke: #6495ED; stroke-width: 1.0;"/><path d="M222.5,1190.0352 L222.5,1200.0352 L232.5,1200.0352 L222.5,1190.0352 " fill="#B0C4DE" style="stroke: #6495ED; stroke-width: 1.0;"/><text fill="#FFFFFF" font-family="sans-serif" font-size="13" lengthAdjust="spacingAndGlyphs" textLength="29" x="188.5" y="1208.5303">avoid</text><rect fill="#CCFFCC" filter="url(#f1rlcceql7nh7w)" height="35.0938" style="stroke: #6495ED; stroke-width: 1.0;" width="89" x="73.5" y="1185.6641"/><path d="M87.5,1199.7578 L87.5,1200.7578 L86.75,1200.7578 C86.064,1200.7578 85.5,1201.3218 85.5,1202.0078 L85.5,1202.5078 C85.5,1203.1858 85.937,1203.7498 86.594,1203.9138 L89.157,1204.5698 C89.3,1204.6058 89.501,1204.8658 89.501,1205.0078 L89.501,1205.5078 C89.501,1205.6418 89.385,1205.7578 89.251,1205.7578 L86.751,1205.7578 C86.635,1205.7578 86.539,1205.7208 86.501,1205.6948 L86.501,1204.7568 L85.501,1204.7568 L85.501,1205.7568 C85.501,1206.0988 85.704,1206.3838 85.939,1206.5378 C86.173,1206.6928 86.457,1206.7568 86.752,1206.7568 L87.502,1206.7568 L87.502,1207.7568 L88.502,1207.7568 L88.502,1206.7568 L89.252,1206.7568 C89.938,1206.7568 90.502,1206.1928 90.502,1205.5068 L90.502,1205.0068 C90.502,1204.3288 90.065,1203.7648 89.408,1203.6008 L86.845,1202.9448 C86.702,1202.9088 86.501,1202.6488 86.501,1202.5068 L86.501,1202.0068 C86.501,1201.8728 86.617,1201.7568 86.751,1201.7568 L89.251,1201.7568 C89.367,1201.7568 89.463,1201.7938 89.501,1201.8198 L89.501,1202.7578 L90.501,1202.7578 L90.501,1201.7578 C90.501,1201.4158 90.298,1201.1308 90.063,1200.9768 C89.829,1200.8218 89.545,1200.7578 89.25,1200.7578 L88.5,1200.7578 L88.5,1199.7578 L87.5,1199.7578 " fill="#696969" style="stroke: ; stroke-width: 0.0; stroke-dasharray: ;"/><text fill="#696969" font-family="sans-serif" font-size="12" lengthAdjust="spacingAndGlyphs" textLength="56" x="96.5" y="1208.1211">1.25 / sq ft</text><polygon fill="#FFFFF0" filter="url(#f1rlcceql7nh7w)" points="102.5,1136.7461,133.5,1136.7461,145.5,1148.7461,133.5,1160.7461,102.5,1160.7461,90.5,1148.7461,102.5,1136.7461" style="stroke: #6495ED; stroke-width: 1.0;"/><text fill="#696969" font-family="sans-serif" font-size="11" lengthAdjust="spacingAndGlyphs" textLength="18" x="122" y="1172.165">yes</text><text fill="#A9A9A9" font-family="sans-serif" font-size="11" lengthAdjust="spacingAndGlyphs" textLength="31" x="102.5" y="1153.2471">carpet</text><text fill="#696969" font-family="sans-serif" font-size="11" lengthAdjust="spacingAndGlyphs" textLength="12" x="145.5" y="1146.3291">no</text><polygon fill="#FFFFF0" filter="url(#f1rlcceql7nh7w)" points="118,1240.7578,130,1252.7578,118,1264.7578,106,1252.7578,118,1240.7578" style="stroke: #6495ED; stroke-width: 1.0;"/><path d="M182.5,1333.6758 L182.5,1351.0273 L162.5,1355.0273 L182.5,1359.0273 L182.5,1376.3789 A0,0 0 0 0 182.5,1376.3789 L284.5,1376.3789 A0,0 0 0 0 284.5,1376.3789 L284.5,1343.6758 L274.5,1333.6758 L182.5,1333.6758 A0,0 0 0 0 182.5,1333.6758 " fill="#B0C4DE" filter="url(#f1rlcceql7nh7w)" style="stroke: #6495ED; stroke-width: 1.0;"/><path d="M274.5,1333.6758 L274.5,1343.6758 L284.5,1343.6758 L274.5,1333.6758 " fill="#B0C4DE" style="stroke: #6495ED; stroke-width: 1.0;"/><text fill="#FFFFFF" font-family="sans-serif" font-size="13" lengthAdjust="spacingAndGlyphs" textLength="81" x="188.5" y="1352.1709">square planks</text><text fill="#FFFFFF" font-family="sans-serif" font-size="13" lengthAdjust="spacingAndGlyphs" textLength="60" x="188.5" y="1368.5225">glued vinyl</text><rect fill="#CCFFCC" filter="url(#f1rlcceql7nh7w)" height="35.0938" style="stroke: #6495ED; stroke-width: 1.0;" width="89" x="73.5" y="1337.4805"/><path d="M87.5,1351.5742 L87.5,1352.5742 L86.75,1352.5742 C86.064,1352.5742 85.5,1353.1382 85.5,1353.8242 L85.5,1354.3242 C85.5,1355.0022 85.937,1355.5662 86.594,1355.7302 L89.157,1356.3862 C89.3,1356.4222 89.501,1356.6822 89.501,1356.8242 L89.501,1357.3242 C89.501,1357.4582 89.385,1357.5742 89.251,1357.5742 L86.751,1357.5742 C86.635,1357.5742 86.539,1357.5372 86.501,1357.5112 L86.501,1356.5732 L85.501,1356.5732 L85.501,1357.5732 C85.501,1357.9152 85.704,1358.2002 85.939,1358.3542 C86.173,1358.5092 86.457,1358.5732 86.752,1358.5732 L87.502,1358.5732 L87.502,1359.5732 L88.502,1359.5732 L88.502,1358.5732 L89.252,1358.5732 C89.938,1358.5732 90.502,1358.0092 90.502,1357.3232 L90.502,1356.8232 C90.502,1356.1452 90.065,1355.5812 89.408,1355.4172 L86.845,1354.7612 C86.702,1354.7252 86.501,1354.4652 86.501,1354.3232 L86.501,1353.8232 C86.501,1353.6892 86.617,1353.5732 86.751,1353.5732 L89.251,1353.5732 C89.367,1353.5732 89.463,1353.6102 89.501,1353.6362 L89.501,1354.5742 L90.501,1354.5742 L90.501,1353.5742 C90.501,1353.2322 90.298,1352.9472 90.063,1352.7932 C89.829,1352.6382 89.545,1352.5742 89.25,1352.5742 L88.5,1352.5742 L88.5,1351.5742 L87.5,1351.5742 " fill="#696969" style="stroke: ; stroke-width: 0.0; stroke-dasharray: ;"/><text fill="#696969" font-family="sans-serif" font-size="12" lengthAdjust="spacingAndGlyphs" textLength="56" x="96.5" y="1359.9375">1.69 / sq ft</text><polygon fill="#FFFFF0" filter="url(#f1rlcceql7nh7w)" points="100,1284.7578,136,1284.7578,148,1296.7578,136,1308.7578,100,1308.7578,88,1296.7578,100,1284.7578" style="stroke: #6495ED; stroke-width: 1.0;"/><text fill="#696969" font-family="sans-serif" font-size="11" lengthAdjust="spacingAndGlyphs" textLength="18" x="122" y="1320.1768">yes</text><text fill="#A9A9A9" font-family="sans-serif" font-size="11" lengthAdjust="spacingAndGlyphs" textLength="36" x="100" y="1301.2588">flooring</text><text fill="#696969" font-family="sans-serif" font-size="11" lengthAdjust="spacingAndGlyphs" textLength="12" x="148" y="1294.3408">no</text><polygon fill="#FFFFF0" filter="url(#f1rlcceql7nh7w)" points="118,1396.3789,130,1408.3789,118,1420.3789,106,1408.3789,118,1396.3789" style="stroke: #6495ED; stroke-width: 1.0;"/><path d="M182.5,1493.668 L182.5,1502.8438 L162.5,1506.8438 L182.5,1510.8438 L182.5,1520.0195 A0,0 0 0 0 182.5,1520.0195 L220.5,1520.0195 A0,0 0 0 0 220.5,1520.0195 L220.5,1503.668 L210.5,1493.668 L182.5,1493.668 A0,0 0 0 0 182.5,1493.668 " fill="#B0C4DE" filter="url(#f1rlcceql7nh7w)" style="stroke: #6495ED; stroke-width: 1.0;"/><path d="M210.5,1493.668 L210.5,1503.668 L220.5,1503.668 L210.5,1493.668 " fill="#B0C4DE" style="stroke: #6495ED; stroke-width: 1.0;"/><text fill="#FFFFFF" font-family="sans-serif" font-size="13" lengthAdjust="spacingAndGlyphs" textLength="17" x="188.5" y="1512.1631">tile</text><rect fill="#CCFFCC" filter="url(#f1rlcceql7nh7w)" height="35.0938" style="stroke: #6495ED; stroke-width: 1.0;" width="89" x="73.5" y="1489.2969"/><path d="M87.5,1503.3906 L87.5,1504.3906 L86.75,1504.3906 C86.064,1504.3906 85.5,1504.9546 85.5,1505.6406 L85.5,1506.1406 C85.5,1506.8186 85.937,1507.3826 86.594,1507.5466 L89.157,1508.2026 C89.3,1508.2386 89.501,1508.4986 89.501,1508.6406 L89.501,1509.1406 C89.501,1509.2746 89.385,1509.3906 89.251,1509.3906 L86.751,1509.3906 C86.635,1509.3906 86.539,1509.3536 86.501,1509.3276 L86.501,1508.3896 L85.501,1508.3896 L85.501,1509.3896 C85.501,1509.7316 85.704,1510.0166 85.939,1510.1706 C86.173,1510.3256 86.457,1510.3896 86.752,1510.3896 L87.502,1510.3896 L87.502,1511.3896 L88.502,1511.3896 L88.502,1510.3896 L89.252,1510.3896 C89.938,1510.3896 90.502,1509.8256 90.502,1509.1396 L90.502,1508.6396 C90.502,1507.9616 90.065,1507.3976 89.408,1507.2336 L86.845,1506.5776 C86.702,1506.5416 86.501,1506.2816 86.501,1506.1396 L86.501,1505.6396 C86.501,1505.5056 86.617,1505.3896 86.751,1505.3896 L89.251,1505.3896 C89.367,1505.3896 89.463,1505.4266 89.501,1505.4526 L89.501,1506.3906 L90.501,1506.3906 L90.501,1505.3906 C90.501,1505.0486 90.298,1504.7636 90.063,1504.6096 C89.829,1504.4546 89.545,1504.3906 89.25,1504.3906 L88.5,1504.3906 L88.5,1503.3906 L87.5,1503.3906 " fill="#696969" style="stroke: ; stroke-width: 0.0; stroke-dasharray: ;"/><text fill="#696969" font-family="sans-serif" font-size="12" lengthAdjust="spacingAndGlyphs" textLength="56" x="96.5" y="1511.7539">3.50 / sq ft</text><polygon fill="#FFFFF0" filter="url(#f1rlcceql7nh7w)" points="66.5,1440.3789,169.5,1440.3789,181.5,1452.3789,169.5,1464.3789,66.5,1464.3789,54.5,1452.3789,66.5,1440.3789" style="stroke: #6495ED; stroke-width: 1.0;"/><text fill="#696969" font-family="sans-serif" font-size="11" lengthAdjust="spacingAndGlyphs" textLength="18" x="122" y="1475.7979">yes</text><text fill="#A9A9A9" font-family="sans-serif" font-size="11" lengthAdjust="spacingAndGlyphs" textLength="103" x="66.5" y="1456.8799">bath / kitchen flooring</text><text fill="#696969" font-family="sans-serif" font-size="11" lengthAdjust="spacingAndGlyphs" textLength="12" x="181.5" y="1449.9619">no</text><polygon fill="#FFFFF0" filter="url(#f1rlcceql7nh7w)" points="118,1544.3906,130,1556.3906,118,1568.3906,106,1556.3906,118,1544.3906" style="stroke: #6495ED; stroke-width: 1.0;"/><rect fill="#CCFFCC" filter="url(#f1rlcceql7nh7w)" height="35.0938" style="stroke: #6495ED; stroke-width: 1.0;" width="85" x="75.5" y="1637.3086"/><path d="M89.5,1651.4023 L89.5,1652.4023 L88.75,1652.4023 C88.064,1652.4023 87.5,1652.9663 87.5,1653.6523 L87.5,1654.1523 C87.5,1654.8303 87.937,1655.3943 88.594,1655.5583 L91.157,1656.2143 C91.3,1656.2503 91.501,1656.5103 91.501,1656.6523 L91.501,1657.1523 C91.501,1657.2863 91.385,1657.4023 91.251,1657.4023 L88.751,1657.4023 C88.635,1657.4023 88.539,1657.3653 88.501,1657.3393 L88.501,1656.4013 L87.501,1656.4013 L87.501,1657.4013 C87.501,1657.7433 87.704,1658.0283 87.939,1658.1823 C88.173,1658.3373 88.457,1658.4013 88.752,1658.4013 L89.502,1658.4013 L89.502,1659.4013 L90.502,1659.4013 L90.502,1658.4013 L91.252,1658.4013 C91.938,1658.4013 92.502,1657.8373 92.502,1657.1513 L92.502,1656.6513 C92.502,1655.9733 92.065,1655.4093 91.408,1655.2453 L88.845,1654.5893 C88.702,1654.5533 88.501,1654.2933 88.501,1654.1513 L88.501,1653.6513 C88.501,1653.5173 88.617,1653.4013 88.751,1653.4013 L91.251,1653.4013 C91.367,1653.4013 91.463,1653.4383 91.501,1653.4643 L91.501,1654.4023 L92.501,1654.4023 L92.501,1653.4023 C92.501,1653.0603 92.298,1652.7753 92.063,1652.6213 C91.829,1652.4663 91.545,1652.4023 91.25,1652.4023 L90.5,1652.4023 L90.5,1651.4023 L89.5,1651.4023 " fill="#696969" style="stroke: ; stroke-width: 0.0; stroke-dasharray: ;"/><text fill="#696969" font-family="sans-serif" font-size="12" lengthAdjust="spacingAndGlyphs" textLength="52" x="98.5" y="1659.7656">resurface</text><polygon fill="#FFFFF0" filter="url(#f1rlcceql7nh7w)" points="63.5,1588.3906,172.5,1588.3906,184.5,1600.3906,172.5,1612.3906,63.5,1612.3906,51.5,1600.3906,63.5,1588.3906" style="stroke: #6495ED; stroke-width: 1.0;"/><text fill="#696969" font-family="sans-serif" font-size="11" lengthAdjust="spacingAndGlyphs" textLength="18" x="122" y="1623.8096">yes</text><text fill="#A9A9A9" font-family="sans-serif" font-size="11" lengthAdjust="spacingAndGlyphs" textLength="109" x="63.5" y="1604.8916">old hard wood flooring</text><text fill="#696969" font-family="sans-serif" font-size="11" lengthAdjust="spacingAndGlyphs" textLength="12" x="184.5" y="1597.9736">no</text><polygon fill="#FFFFF0" filter="url(#f1rlcceql7nh7w)" points="118,1692.4023,130,1704.4023,118,1716.4023,106,1704.4023,118,1692.4023" style="stroke: #6495ED; stroke-width: 1.0;"/><path d="M182.5,1783.3213 L182.5,1857.9033 L162.5,1861.9033 L182.5,1865.9033 L182.5,1940.4854 A0,0 0 0 0 182.5,1940.4854 L332.5,1940.4854 A0,0 0 0 0 332.5,1940.4854 L332.5,1793.3213 L322.5,1783.3213 L182.5,1783.3213 A0,0 0 0 0 182.5,1783.3213 " fill="#B0C4DE" filter="url(#f1rlcceql7nh7w)" style="stroke: #6495ED; stroke-width: 1.0;"/><path d="M322.5,1783.3213 L322.5,1793.3213 L332.5,1793.3213 L322.5,1783.3213 " fill="#B0C4DE" style="stroke: #6495ED; stroke-width: 1.0;"/><ellipse cx="194" cy="1797.1729" fill="#FFFFFF" rx="2.5" ry="2.5" style="stroke: #FFFFFF; stroke-width: 0.0;"/><text fill="#FFFFFF" font-family="sans-serif" font-size="13" lengthAdjust="spacingAndGlyphs" textLength="28" x="201.5" y="1801.8164">PPG</text><ellipse cx="194" cy="1813.5244" fill="#FFFFFF" rx="2.5" ry="2.5" style="stroke: #FFFFFF; stroke-width: 0.0;"/><text fill="#FFFFFF" font-family="sans-serif" font-size="13" lengthAdjust="spacingAndGlyphs" textLength="57" x="201.5" y="1818.168">safety red</text><text fill="#FFFFFF" font-family="sans-serif" font-size="13" lengthAdjust="spacingAndGlyphs" textLength="57" x="200.5" y="1834.5195">rustoleum</text><text fill="#FFFFFF" font-family="sans-serif" font-size="13" lengthAdjust="spacingAndGlyphs" textLength="93" x="224.5" y="1850.8711">laminant = satin</text><ellipse cx="194" cy="1862.5791" fill="#FFFFFF" rx="2.5" ry="2.5" style="stroke: #FFFFFF; stroke-width: 0.0;"/><text fill="#FFFFFF" font-family="sans-serif" font-size="13" lengthAdjust="spacingAndGlyphs" textLength="104" x="201.5" y="1867.2227">stone mason grey</text><text fill="#FFFFFF" font-family="sans-serif" font-size="13" lengthAdjust="spacingAndGlyphs" textLength="72" x="200.5" y="1883.5742">valspar color</text><text fill="#FFFFFF" font-family="sans-serif" font-size="13" lengthAdjust="spacingAndGlyphs" textLength="102" x="200.5" y="1899.9258">semi-gloss sheen</text><ellipse cx="194" cy="1911.6338" fill="#FFFFFF" rx="2.5" ry="2.5" style="stroke: #FFFFFF; stroke-width: 0.0;"/><text fill="#FFFFFF" font-family="sans-serif" font-size="13" lengthAdjust="spacingAndGlyphs" textLength="94" x="201.5" y="1916.2773">never paint brick</text><text fill="#FFFFFF" font-family="sans-serif" font-size="13" lengthAdjust="spacingAndGlyphs" textLength="0" x="192.5" y="1932.6289"/><rect fill="#CCFFCC" filter="url(#f1rlcceql7nh7w)" height="35.0938" style="stroke: #6495ED; stroke-width: 1.0;" width="89" x="73.5" y="1844.3564"/><path d="M87.5,1858.4502 L87.5,1859.4502 L86.75,1859.4502 C86.064,1859.4502 85.5,1860.0142 85.5,1860.7002 L85.5,1861.2002 C85.5,1861.8782 85.937,1862.4422 86.594,1862.6062 L89.157,1863.2622 C89.3,1863.2982 89.501,1863.5582 89.501,1863.7002 L89.501,1864.2002 C89.501,1864.3342 89.385,1864.4502 89.251,1864.4502 L86.751,1864.4502 C86.635,1864.4502 86.539,1864.4132 86.501,1864.3872 L86.501,1863.4492 L85.501,1863.4492 L85.501,1864.4492 C85.501,1864.7912 85.704,1865.0762 85.939,1865.2302 C86.173,1865.3852 86.457,1865.4492 86.752,1865.4492 L87.502,1865.4492 L87.502,1866.4492 L88.502,1866.4492 L88.502,1865.4492 L89.252,1865.4492 C89.938,1865.4492 90.502,1864.8852 90.502,1864.1992 L90.502,1863.6992 C90.502,1863.0212 90.065,1862.4572 89.408,1862.2932 L86.845,1861.6372 C86.702,1861.6012 86.501,1861.3412 86.501,1861.1992 L86.501,1860.6992 C86.501,1860.5652 86.617,1860.4492 86.751,1860.4492 L89.251,1860.4492 C89.367,1860.4492 89.463,1860.4862 89.501,1860.5122 L89.501,1861.4502 L90.501,1861.4502 L90.501,1860.4502 C90.501,1860.1082 90.298,1859.8232 90.063,1859.6692 C89.829,1859.5142 89.545,1859.4502 89.25,1859.4502 L88.5,1859.4502 L88.5,1858.4502 L87.5,1858.4502 " fill="#696969" style="stroke: ; stroke-width: 0.0; stroke-dasharray: ;"/><text fill="#696969" font-family="sans-serif" font-size="12" lengthAdjust="spacingAndGlyphs" textLength="56" x="96.5" y="1866.8135">1.85 / sq ft</text><polygon fill="#FFFFF0" filter="url(#f1rlcceql7nh7w)" points="106,1736.4023,130,1736.4023,142,1748.4023,130,1760.4023,106,1760.4023,94,1748.4023,106,1736.4023" style="stroke: #6495ED; stroke-width: 1.0;"/><text fill="#696969" font-family="sans-serif" font-size="11" lengthAdjust="spacingAndGlyphs" textLength="18" x="122" y="1771.8213">yes</text><text fill="#A9A9A9" font-family="sans-serif" font-size="11" lengthAdjust="spacingAndGlyphs" textLength="23" x="106.5" y="1752.9033">paint</text><text fill="#696969" font-family="sans-serif" font-size="11" lengthAdjust="spacingAndGlyphs" textLength="12" x="142" y="1745.9854">no</text><polygon fill="#FFFFF0" filter="url(#f1rlcceql7nh7w)" points="118,1960.4854,130,1972.4854,118,1984.4854,106,1972.4854,118,1960.4854" style="stroke: #6495ED; stroke-width: 1.0;"/><rect fill="#CCFFCC" filter="url(#f1rlcceql7nh7w)" height="35.0938" style="stroke: #6495ED; stroke-width: 1.0;" width="89" x="73.5" y="2053.4033"/><path d="M87.5,2067.4971 L87.5,2068.4971 L86.75,2068.4971 C86.064,2068.4971 85.5,2069.0611 85.5,2069.7471 L85.5,2070.2471 C85.5,2070.9251 85.937,2071.4891 86.594,2071.6531 L89.157,2072.3091 C89.3,2072.3451 89.501,2072.6051 89.501,2072.7471 L89.501,2073.2471 C89.501,2073.3811 89.385,2073.4971 89.251,2073.4971 L86.751,2073.4971 C86.635,2073.4971 86.539,2073.4601 86.501,2073.4341 L86.501,2072.4961 L85.501,2072.4961 L85.501,2073.4961 C85.501,2073.8381 85.704,2074.1231 85.939,2074.2771 C86.173,2074.4321 86.457,2074.4961 86.752,2074.4961 L87.502,2074.4961 L87.502,2075.4961 L88.502,2075.4961 L88.502,2074.4961 L89.252,2074.4961 C89.938,2074.4961 90.502,2073.9321 90.502,2073.2461 L90.502,2072.7461 C90.502,2072.0681 90.065,2071.5041 89.408,2071.3401 L86.845,2070.6841 C86.702,2070.6481 86.501,2070.3881 86.501,2070.2461 L86.501,2069.7461 C86.501,2069.6121 86.617,2069.4961 86.751,2069.4961 L89.251,2069.4961 C89.367,2069.4961 89.463,2069.5331 89.501,2069.5591 L89.501,2070.4971 L90.501,2070.4971 L90.501,2069.4971 C90.501,2069.1551 90.298,2068.8701 90.063,2068.7161 C89.829,2068.5611 89.545,2068.4971 89.25,2068.4971 L88.5,2068.4971 L88.5,2067.4971 L87.5,2067.4971 " fill="#696969" style="stroke: ; stroke-width: 0.0; stroke-dasharray: ;"/><text fill="#696969" font-family="sans-serif" font-size="12" lengthAdjust="spacingAndGlyphs" textLength="56" x="96.5" y="2075.8604">range 360</text><rect fill="#CCFFCC" filter="url(#f1rlcceql7nh7w)" height="35.0938" style="stroke: #6495ED; stroke-width: 1.0;" width="116" x="60" y="2108.4971"/><path d="M74,2122.5908 L74,2123.5908 L73.25,2123.5908 C72.564,2123.5908 72,2124.1548 72,2124.8408 L72,2125.3408 C72,2126.0188 72.437,2126.5828 73.094,2126.7468 L75.657,2127.4028 C75.8,2127.4388 76.001,2127.6988 76.001,2127.8408 L76.001,2128.3408 C76.001,2128.4748 75.885,2128.5908 75.751,2128.5908 L73.251,2128.5908 C73.135,2128.5908 73.039,2128.5538 73.001,2128.5278 L73.001,2127.5898 L72.001,2127.5898 L72.001,2128.5898 C72.001,2128.9318 72.204,2129.2168 72.439,2129.3708 C72.673,2129.5258 72.957,2129.5898 73.252,2129.5898 L74.002,2129.5898 L74.002,2130.5898 L75.002,2130.5898 L75.002,2129.5898 L75.752,2129.5898 C76.438,2129.5898 77.002,2129.0258 77.002,2128.3398 L77.002,2127.8398 C77.002,2127.1618 76.565,2126.5978 75.908,2126.4338 L73.345,2125.7778 C73.202,2125.7418 73.001,2125.4818 73.001,2125.3398 L73.001,2124.8398 C73.001,2124.7058 73.117,2124.5898 73.251,2124.5898 L75.751,2124.5898 C75.867,2124.5898 75.963,2124.6268 76.001,2124.6528 L76.001,2125.5908 L77.001,2125.5908 L77.001,2124.5908 C77.001,2124.2488 76.798,2123.9638 76.563,2123.8098 C76.329,2123.6548 76.045,2123.5908 75.75,2123.5908 L75,2123.5908 L75,2122.5908 L74,2122.5908 " fill="#696969" style="stroke: ; stroke-width: 0.0; stroke-dasharray: ;"/><text fill="#696969" font-family="sans-serif" font-size="12" lengthAdjust="spacingAndGlyphs" textLength="83" x="83" y="2130.9541">microwave 179</text><path d="M199,2169.1104 L199,2194.6377 L179,2198.6377 L199,2202.6377 L199,2228.165 A0,0 0 0 0 199,2228.165 L323,2228.165 A0,0 0 0 0 323,2228.165 L323,2179.1104 L313,2169.1104 L199,2169.1104 A0,0 0 0 0 199,2169.1104 " fill="#B0C4DE" filter="url(#f1rlcceql7nh7w)" style="stroke: #6495ED; stroke-width: 1.0;"/><path d="M313,2169.1104 L313,2179.1104 L323,2179.1104 L313,2169.1104 " fill="#B0C4DE" style="stroke: #6495ED; stroke-width: 1.0;"/><text fill="#FFFFFF" font-family="sans-serif" font-size="13" lengthAdjust="spacingAndGlyphs" textLength="62" x="205" y="2187.6055">HD Supply</text><text fill="#FFFFFF" font-family="sans-serif" font-size="13" lengthAdjust="spacingAndGlyphs" textLength="84" x="205" y="2203.957">stainless steel</text><text fill="#FFFFFF" font-family="sans-serif" font-size="13" font-style="italic" lengthAdjust="spacingAndGlyphs" textLength="103" x="205" y="2220.3086">do not provide frig</text><rect fill="#CCFFCC" filter="url(#f1rlcceql7nh7w)" height="35.0938" style="stroke: #6495ED; stroke-width: 1.0;" width="122" x="57" y="2181.0908"/><path d="M71,2195.1846 L71,2196.1846 L70.25,2196.1846 C69.564,2196.1846 69,2196.7486 69,2197.4346 L69,2197.9346 C69,2198.6126 69.437,2199.1766 70.094,2199.3406 L72.657,2199.9966 C72.8,2200.0326 73.001,2200.2926 73.001,2200.4346 L73.001,2200.9346 C73.001,2201.0686 72.885,2201.1846 72.751,2201.1846 L70.251,2201.1846 C70.135,2201.1846 70.039,2201.1476 70.001,2201.1216 L70.001,2200.1836 L69.001,2200.1836 L69.001,2201.1836 C69.001,2201.5256 69.204,2201.8106 69.439,2201.9646 C69.673,2202.1196 69.957,2202.1836 70.252,2202.1836 L71.002,2202.1836 L71.002,2203.1836 L72.002,2203.1836 L72.002,2202.1836 L72.752,2202.1836 C73.438,2202.1836 74.002,2201.6196 74.002,2200.9336 L74.002,2200.4336 C74.002,2199.7556 73.565,2199.1916 72.908,2199.0276 L70.345,2198.3716 C70.202,2198.3356 70.001,2198.0756 70.001,2197.9336 L70.001,2197.4336 C70.001,2197.2996 70.117,2197.1836 70.251,2197.1836 L72.751,2197.1836 C72.867,2197.1836 72.963,2197.2206 73.001,2197.2466 L73.001,2198.1846 L74.001,2198.1846 L74.001,2197.1846 C74.001,2196.8426 73.798,2196.5576 73.563,2196.4036 C73.329,2196.2486 73.045,2196.1846 72.75,2196.1846 L72,2196.1846 L72,2195.1846 L71,2195.1846 " fill="#696969" style="stroke: ; stroke-width: 0.0; stroke-dasharray: ;"/><text fill="#696969" font-family="sans-serif" font-size="12" lengthAdjust="spacingAndGlyphs" textLength="89" x="80" y="2203.5479">dishwasher 259</text><path d="M196.5,2252.5361 L196.5,2261.7119 L176.5,2265.7119 L196.5,2269.7119 L196.5,2278.8877 A0,0 0 0 0 196.5,2278.8877 L249.5,2278.8877 A0,0 0 0 0 249.5,2278.8877 L249.5,2262.5361 L239.5,2252.5361 L196.5,2252.5361 A0,0 0 0 0 196.5,2252.5361 " fill="#B0C4DE" filter="url(#f1rlcceql7nh7w)" style="stroke: #6495ED; stroke-width: 1.0;"/><path d="M239.5,2252.5361 L239.5,2262.5361 L249.5,2262.5361 L239.5,2252.5361 " fill="#B0C4DE" style="stroke: #6495ED; stroke-width: 1.0;"/><text fill="#FFFFFF" font-family="sans-serif" font-size="13" lengthAdjust="spacingAndGlyphs" textLength="32" x="202.5" y="2271.0313">sears</text><rect fill="#CCFFCC" filter="url(#f1rlcceql7nh7w)" height="35.0938" style="stroke: #6495ED; stroke-width: 1.0;" width="117" x="59.5" y="2248.165"/><path d="M73.5,2262.2588 L73.5,2263.2588 L72.75,2263.2588 C72.064,2263.2588 71.5,2263.8228 71.5,2264.5088 L71.5,2265.0088 C71.5,2265.6868 71.937,2266.2508 72.594,2266.4148 L75.157,2267.0708 C75.3,2267.1068 75.501,2267.3668 75.501,2267.5088 L75.501,2268.0088 C75.501,2268.1428 75.385,2268.2588 75.251,2268.2588 L72.751,2268.2588 C72.635,2268.2588 72.539,2268.2218 72.501,2268.1958 L72.501,2267.2578 L71.501,2267.2578 L71.501,2268.2578 C71.501,2268.5998 71.704,2268.8848 71.939,2269.0388 C72.173,2269.1938 72.457,2269.2578 72.752,2269.2578 L73.502,2269.2578 L73.502,2270.2578 L74.502,2270.2578 L74.502,2269.2578 L75.252,2269.2578 C75.938,2269.2578 76.502,2268.6938 76.502,2268.0078 L76.502,2267.5078 C76.502,2266.8298 76.065,2266.2658 75.408,2266.1018 L72.845,2265.4458 C72.702,2265.4098 72.501,2265.1498 72.501,2265.0078 L72.501,2264.5078 C72.501,2264.3738 72.617,2264.2578 72.751,2264.2578 L75.251,2264.2578 C75.367,2264.2578 75.463,2264.2948 75.501,2264.3208 L75.501,2265.2588 L76.501,2265.2588 L76.501,2264.2588 C76.501,2263.9168 76.298,2263.6318 76.063,2263.4778 C75.829,2263.3228 75.545,2263.2588 75.25,2263.2588 L74.5,2263.2588 L74.5,2262.2588 L73.5,2262.2588 " fill="#696969" style="stroke: ; stroke-width: 0.0; stroke-dasharray: ;"/><text fill="#696969" font-family="sans-serif" font-size="12" lengthAdjust="spacingAndGlyphs" textLength="84" x="82.5" y="2270.6221">installation $10</text><polygon fill="#FFFFF0" filter="url(#f1rlcceql7nh7w)" points="92,2004.4854,144,2004.4854,156,2016.4854,144,2028.4854,92,2028.4854,80,2016.4854,92,2004.4854" style="stroke: #6495ED; stroke-width: 1.0;"/><text fill="#696969" font-family="sans-serif" font-size="11" lengthAdjust="spacingAndGlyphs" textLength="18" x="122" y="2039.9043">yes</text><text fill="#A9A9A9" font-family="sans-serif" font-size="11" lengthAdjust="spacingAndGlyphs" textLength="52" x="92" y="2020.9863">appliances</text><text fill="#696969" font-family="sans-serif" font-size="11" lengthAdjust="spacingAndGlyphs" textLength="12" x="156" y="2014.0684">no</text><polygon fill="#FFFFF0" filter="url(#f1rlcceql7nh7w)" points="118,2303.2588,130,2315.2588,118,2327.2588,106,2315.2588,118,2303.2588" style="stroke: #6495ED; stroke-width: 1.0;"/><path d="M188.5,2351.6299 L188.5,2360.8057 L168.5,2364.8057 L188.5,2368.8057 L188.5,2377.9814 A0,0 0 0 0 188.5,2377.9814 L318.5,2377.9814 A0,0 0 0 0 318.5,2377.9814 L318.5,2361.6299 L308.5,2351.6299 L188.5,2351.6299 A0,0 0 0 0 188.5,2351.6299 " fill="#B0C4DE" filter="url(#f1rlcceql7nh7w)" style="stroke: #6495ED; stroke-width: 1.0;"/><path d="M308.5,2351.6299 L308.5,2361.6299 L318.5,2361.6299 L308.5,2351.6299 " fill="#B0C4DE" style="stroke: #6495ED; stroke-width: 1.0;"/><text fill="#FFFFFF" font-family="sans-serif" font-size="13" lengthAdjust="spacingAndGlyphs" textLength="109" x="194.5" y="2370.125">assume ok for now</text><rect fill="#CCFFCC" filter="url(#f1rlcceql7nh7w)" height="35.0938" style="stroke: #6495ED; stroke-width: 1.0;" width="101" x="67.5" y="2347.2588"/><path d="M81.5,2361.3525 L81.5,2362.3525 L80.75,2362.3525 C80.064,2362.3525 79.5,2362.9165 79.5,2363.6025 L79.5,2364.1025 C79.5,2364.7805 79.937,2365.3445 80.594,2365.5085 L83.157,2366.1645 C83.3,2366.2005 83.501,2366.4605 83.501,2366.6025 L83.501,2367.1025 C83.501,2367.2365 83.385,2367.3525 83.251,2367.3525 L80.751,2367.3525 C80.635,2367.3525 80.539,2367.3155 80.501,2367.2895 L80.501,2366.3515 L79.501,2366.3515 L79.501,2367.3515 C79.501,2367.6935 79.704,2367.9785 79.939,2368.1325 C80.173,2368.2875 80.457,2368.3515 80.752,2368.3515 L81.502,2368.3515 L81.502,2369.3515 L82.502,2369.3515 L82.502,2368.3515 L83.252,2368.3515 C83.938,2368.3515 84.502,2367.7875 84.502,2367.1015 L84.502,2366.6015 C84.502,2365.9235 84.065,2365.3595 83.408,2365.1955 L80.845,2364.5395 C80.702,2364.5035 80.501,2364.2435 80.501,2364.1015 L80.501,2363.6015 C80.501,2363.4675 80.617,2363.3515 80.751,2363.3515 L83.251,2363.3515 C83.367,2363.3515 83.463,2363.3885 83.501,2363.4145 L83.501,2364.3525 L84.501,2364.3525 L84.501,2363.3525 C84.501,2363.0105 84.298,2362.7255 84.063,2362.5715 C83.829,2362.4165 83.545,2362.3525 83.25,2362.3525 L82.5,2362.3525 L82.5,2361.3525 L81.5,2361.3525 " fill="#696969" style="stroke: ; stroke-width: 0.0; stroke-dasharray: ;"/><text fill="#696969" font-family="sans-serif" font-size="12" lengthAdjust="spacingAndGlyphs" textLength="68" x="90.5" y="2369.7158">foundation 0</text><path d="M170,2406.7236 L170,2415.8994 L150,2419.8994 L170,2423.8994 L170,2433.0752 A0,0 0 0 0 170,2433.0752 L300,2433.0752 A0,0 0 0 0 300,2433.0752 L300,2416.7236 L290,2406.7236 L170,2406.7236 A0,0 0 0 0 170,2406.7236 " fill="#B0C4DE" filter="url(#f1rlcceql7nh7w)" style="stroke: #6495ED; stroke-width: 1.0;"/><path d="M290,2406.7236 L290,2416.7236 L300,2416.7236 L290,2406.7236 " fill="#B0C4DE" style="stroke: #6495ED; stroke-width: 1.0;"/><text fill="#FFFFFF" font-family="sans-serif" font-size="13" lengthAdjust="spacingAndGlyphs" textLength="109" x="176" y="2425.2188">assume ok for now</text><rect fill="#CCFFCC" filter="url(#f1rlcceql7nh7w)" height="35.0938" style="stroke: #6495ED; stroke-width: 1.0;" width="64" x="86" y="2402.3525"/><path d="M100,2416.4463 L100,2417.4463 L99.25,2417.4463 C98.564,2417.4463 98,2418.0103 98,2418.6963 L98,2419.1963 C98,2419.8743 98.437,2420.4383 99.094,2420.6023 L101.657,2421.2583 C101.8,2421.2943 102.001,2421.5543 102.001,2421.6963 L102.001,2422.1963 C102.001,2422.3303 101.885,2422.4463 101.751,2422.4463 L99.251,2422.4463 C99.135,2422.4463 99.039,2422.4093 99.001,2422.3833 L99.001,2421.4453 L98.001,2421.4453 L98.001,2422.4453 C98.001,2422.7873 98.204,2423.0723 98.439,2423.2263 C98.673,2423.3813 98.957,2423.4453 99.252,2423.4453 L100.002,2423.4453 L100.002,2424.4453 L101.002,2424.4453 L101.002,2423.4453 L101.752,2423.4453 C102.438,2423.4453 103.002,2422.8813 103.002,2422.1953 L103.002,2421.6953 C103.002,2421.0173 102.565,2420.4533 101.908,2420.2893 L99.345,2419.6333 C99.202,2419.5973 99.001,2419.3373 99.001,2419.1953 L99.001,2418.6953 C99.001,2418.5613 99.117,2418.4453 99.251,2418.4453 L101.751,2418.4453 C101.867,2418.4453 101.963,2418.4823 102.001,2418.5083 L102.001,2419.4463 L103.001,2419.4463 L103.001,2418.4463 C103.001,2418.1043 102.798,2417.8193 102.563,2417.6653 C102.329,2417.5103 102.045,2417.4463 101.75,2417.4463 L101,2417.4463 L101,2416.4463 L100,2416.4463 " fill="#696969" style="stroke: ; stroke-width: 0.0; stroke-dasharray: ;"/><text fill="#696969" font-family="sans-serif" font-size="12" lengthAdjust="spacingAndGlyphs" textLength="31" x="109" y="2424.8096">roof 0</text><path d="M179,2461.8174 L179,2470.9932 L159,2474.9932 L179,2478.9932 L179,2488.1689 A0,0 0 0 0 179,2488.1689 L309,2488.1689 A0,0 0 0 0 309,2488.1689 L309,2471.8174 L299,2461.8174 L179,2461.8174 A0,0 0 0 0 179,2461.8174 " fill="#B0C4DE" filter="url(#f1rlcceql7nh7w)" style="stroke: #6495ED; stroke-width: 1.0;"/><path d="M299,2461.8174 L299,2471.8174 L309,2471.8174 L299,2461.8174 " fill="#B0C4DE" style="stroke: #6495ED; stroke-width: 1.0;"/><text fill="#FFFFFF" font-family="sans-serif" font-size="13" lengthAdjust="spacingAndGlyphs" textLength="109" x="185" y="2480.3125">assume ok for now</text><rect fill="#CCFFCC" filter="url(#f1rlcceql7nh7w)" height="35.0938" style="stroke: #6495ED; stroke-width: 1.0;" width="82" x="77" y="2457.4463"/><path d="M91,2471.54 L91,2472.54 L90.25,2472.54 C89.564,2472.54 89,2473.104 89,2473.79 L89,2474.29 C89,2474.968 89.437,2475.532 90.094,2475.696 L92.657,2476.352 C92.8,2476.388 93.001,2476.648 93.001,2476.79 L93.001,2477.29 C93.001,2477.424 92.885,2477.54 92.751,2477.54 L90.251,2477.54 C90.135,2477.54 90.039,2477.503 90.001,2477.477 L90.001,2476.539 L89.001,2476.539 L89.001,2477.539 C89.001,2477.881 89.204,2478.166 89.439,2478.32 C89.673,2478.475 89.957,2478.539 90.252,2478.539 L91.002,2478.539 L91.002,2479.539 L92.002,2479.539 L92.002,2478.539 L92.752,2478.539 C93.438,2478.539 94.002,2477.975 94.002,2477.289 L94.002,2476.789 C94.002,2476.111 93.565,2475.547 92.908,2475.383 L90.345,2474.727 C90.202,2474.691 90.001,2474.431 90.001,2474.289 L90.001,2473.789 C90.001,2473.655 90.117,2473.539 90.251,2473.539 L92.751,2473.539 C92.867,2473.539 92.963,2473.576 93.001,2473.602 L93.001,2474.54 L94.001,2474.54 L94.001,2473.54 C94.001,2473.198 93.798,2472.913 93.563,2472.759 C93.329,2472.604 93.045,2472.54 92.75,2472.54 L92,2472.54 L92,2471.54 L91,2471.54 " fill="#696969" style="stroke: ; stroke-width: 0.0; stroke-dasharray: ;"/><text fill="#696969" font-family="sans-serif" font-size="12" lengthAdjust="spacingAndGlyphs" textLength="49" x="100" y="2479.9033">a/c unit 0</text><polygon fill="#FFFFF0" filter="url(#f1rlcceql7nh7w)" points="83.5,2524.54,152.5,2524.54,164.5,2543.376,152.5,2562.2119,83.5,2562.2119,71.5,2543.376,83.5,2524.54" style="stroke: #6495ED; stroke-width: 1.0;"/><text fill="#696969" font-family="sans-serif" font-size="11" lengthAdjust="spacingAndGlyphs" textLength="18" x="122" y="2573.6309">yes</text><text fill="#A9A9A9" font-family="sans-serif" font-size="11" lengthAdjust="spacingAndGlyphs" textLength="48" x="83.5" y="2535.959">income ok</text><line style="stroke: #6495ED; stroke-width: 1.0;" x1="71.5" x2="164.5" y1="2543.376" y2="2543.376"/><text fill="#A9A9A9" font-family="sans-serif" font-size="11" lengthAdjust="spacingAndGlyphs" textLength="69" x="83.5" y="2559.7949">$200-600 / mo</text><text fill="#696969" font-family="sans-serif" font-size="11" lengthAdjust="spacingAndGlyphs" textLength="12" x="164.5" y="2540.959">no</text><ellipse cx="198.5" cy="2543.376" fill="#FFFFFF" filter="url(#f1rlcceql7nh7w)" rx="11" ry="11" style="stroke: #FF7F50; stroke-width: 1.0;"/><ellipse cx="198.5" cy="2543.376" fill="#FF7F50" rx="6" ry="6" style="stroke: #FFBFA7; stroke-width: 1.0;"/><polygon fill="#FFFFF0" filter="url(#f1rlcceql7nh7w)" points="87,2595.1309,149,2595.1309,161,2613.9668,149,2632.8027,87,2632.8027,75,2613.9668,87,2595.1309" style="stroke: #6495ED; stroke-width: 1.0;"/><text fill="#696969" font-family="sans-serif" font-size="11" lengthAdjust="spacingAndGlyphs" textLength="18" x="122" y="2644.2217">yes</text><text fill="#A9A9A9" font-family="sans-serif" font-size="11" lengthAdjust="spacingAndGlyphs" textLength="62" x="87" y="2606.5498">cost/sql ft ok</text><line style="stroke: #6495ED; stroke-width: 1.0;" x1="75" x2="161" y1="2613.9668" y2="2613.9668"/><text fill="#A9A9A9" font-family="sans-serif" font-size="11" lengthAdjust="spacingAndGlyphs" textLength="58" x="87" y="2630.3857">&lt; $88 / sq ft</text><text fill="#696969" font-family="sans-serif" font-size="11" lengthAdjust="spacingAndGlyphs" textLength="12" x="161" y="2611.5498">no</text><ellipse cx="195" cy="2613.9668" fill="#FFFFFF" filter="url(#f1rlcceql7nh7w)" rx="11" ry="11" style="stroke: #FF7F50; stroke-width: 1.0;"/><ellipse cx="195" cy="2613.9668" fill="#FF7F50" rx="6" ry="6" style="stroke: #FFBFA7; stroke-width: 1.0;"/><polygon fill="#FFFFF0" filter="url(#f1rlcceql7nh7w)" points="49,2665.7217,187,2665.7217,199,2698.3936,187,2731.0654,49,2731.0654,37,2698.3936,49,2665.7217" style="stroke: #6495ED; stroke-width: 1.0;"/><text fill="#696969" font-family="sans-serif" font-size="11" lengthAdjust="spacingAndGlyphs" textLength="18" x="122" y="2742.4844">yes</text><text fill="#A9A9A9" font-family="sans-serif" font-size="11" lengthAdjust="spacingAndGlyphs" textLength="138" x="49" y="2677.1406">correct cash-on-cash return</text><line style="stroke: #6495ED; stroke-width: 1.0;" x1="42.0818" x2="193.9182" y1="2684.5576" y2="2684.5576"/><text fill="#A9A9A9" font-family="sans-serif" font-size="11" lengthAdjust="spacingAndGlyphs" textLength="85" x="49" y="2700.9766">should be 8-30 %</text><text fill="#A9A9A9" font-family="sans-serif" font-size="11" lengthAdjust="spacingAndGlyphs" textLength="87" x="49" y="2714.8125">net of lending rate</text><text fill="#A9A9A9" font-family="sans-serif" font-size="11" font-style="italic" lengthAdjust="spacingAndGlyphs" textLength="83" x="49" y="2728.6484">inflation is 3-4 %</text><text fill="#696969" font-family="sans-serif" font-size="11" lengthAdjust="spacingAndGlyphs" textLength="12" x="199" y="2695.9766">no</text><ellipse cx="233" cy="2698.3936" fill="#FFFFFF" filter="url(#f1rlcceql7nh7w)" rx="11" ry="11" style="stroke: #FF7F50; stroke-width: 1.0;"/><ellipse cx="233" cy="2698.3936" fill="#FF7F50" rx="6" ry="6" style="stroke: #FFBFA7; stroke-width: 1.0;"/><polygon fill="#FFFFF0" filter="url(#f1rlcceql7nh7w)" points="73,2763.9844,163,2763.9844,175,2782.8203,163,2801.6563,73,2801.6563,61,2782.8203,73,2763.9844" style="stroke: #6495ED; stroke-width: 1.0;"/><text fill="#696969" font-family="sans-serif" font-size="11" lengthAdjust="spacingAndGlyphs" textLength="18" x="122" y="2813.0752">yes</text><text fill="#A9A9A9" font-family="sans-serif" font-size="11" lengthAdjust="spacingAndGlyphs" textLength="90" x="73" y="2775.4033">correct equity gain</text><line style="stroke: #6495ED; stroke-width: 1.0;" x1="61" x2="175" y1="2782.8203" y2="2782.8203"/><text fill="#A9A9A9" font-family="sans-serif" font-size="11" lengthAdjust="spacingAndGlyphs" textLength="78" x="73" y="2799.2393">should be 100%</text><text fill="#696969" font-family="sans-serif" font-size="11" lengthAdjust="spacingAndGlyphs" textLength="12" x="175" y="2780.4033">no</text><ellipse cx="209" cy="2782.8203" fill="#FFFFFF" filter="url(#f1rlcceql7nh7w)" rx="11" ry="11" style="stroke: #FF7F50; stroke-width: 1.0;"/><ellipse cx="209" cy="2782.8203" fill="#FF7F50" rx="6" ry="6" style="stroke: #FFBFA7; stroke-width: 1.0;"/><rect fill="#FFFFF0" filter="url(#f1rlcceql7nh7w)" height="35.0938" rx="12.5" ry="12.5" style="stroke: #6495ED; stroke-width: 1.0;" width="41" x="97.5" y="2834.5752"/><text fill="#696969" font-family="sans-serif" font-size="12" lengthAdjust="spacingAndGlyphs" textLength="21" x="107.5" y="2857.0322">visit</text><line style="stroke: #696969; stroke-width: 1.5;" x1="118" x2="118" y1="191.6094" y2="211.6094"/><polygon fill="#696969" points="114,201.6094,118,211.6094,122,201.6094,118,205.6094" style="stroke: #696969; stroke-width: 1.0;"/><line style="stroke: #696969; stroke-width: 1.5;" x1="118" x2="118" y1="246.7031" y2="266.7031"/><polygon fill="#696969" points="114,256.7031,118,266.7031,122,256.7031,118,260.7031" style="stroke: #696969; stroke-width: 1.0;"/><line style="stroke: #696969; stroke-width: 1.5;" x1="118" x2="118" y1="301.7969" y2="321.7969"/><polygon fill="#696969" points="114,311.7969,118,321.7969,122,311.7969,118,315.7969" style="stroke: #696969; stroke-width: 1.0;"/><line style="stroke: #696969; stroke-width: 1.5;" x1="118" x2="118" y1="356.8906" y2="376.8906"/><polygon fill="#696969" points="114,366.8906,118,376.8906,122,366.8906,118,370.8906" style="stroke: #696969; stroke-width: 1.0;"/><line style="stroke: #696969; stroke-width: 1.5;" x1="118" x2="118" y1="411.9844" y2="431.9844"/><polygon fill="#696969" points="114,421.9844,118,431.9844,122,421.9844,118,425.9844" style="stroke: #696969; stroke-width: 1.0;"/><line style="stroke: #696969; stroke-width: 1.5;" x1="118" x2="118" y1="467.0781" y2="487.0781"/><polygon fill="#696969" points="114,477.0781,118,487.0781,122,477.0781,118,481.0781" style="stroke: #696969; stroke-width: 1.0;"/><line style="stroke: #696969; stroke-width: 1.5;" x1="118" x2="118" y1="522.1719" y2="542.1719"/><polygon fill="#696969" points="114,532.1719,118,542.1719,122,532.1719,118,536.1719" style="stroke: #696969; stroke-width: 1.0;"/><line style="stroke: #696969; stroke-width: 1.5;" x1="118" x2="118" y1="577.2656" y2="597.2656"/><polygon fill="#696969" points="114,587.2656,118,597.2656,122,587.2656,118,591.2656" style="stroke: #696969; stroke-width: 1.0;"/><line style="stroke: #696969; stroke-width: 1.5;" x1="118" x2="118" y1="632.3594" y2="652.3594"/><polygon fill="#696969" points="114,642.3594,118,652.3594,122,642.3594,118,646.3594" style="stroke: #696969; stroke-width: 1.0;"/><line style="stroke: #696969; stroke-width: 1.5;" x1="118" x2="118" y1="687.4531" y2="711.2578"/><polygon fill="#696969" points="114,701.2578,118,711.2578,122,701.2578,118,705.2578" style="stroke: #696969; stroke-width: 1.0;"/><line style="stroke: #696969; stroke-width: 1.5;" x1="118" x2="118" y1="746.3516" y2="768.332"/><polygon fill="#696969" points="114,758.332,118,768.332,122,758.332,118,762.332" style="stroke: #696969; stroke-width: 1.0;"/><line style="stroke: #696969; stroke-width: 1.5;" x1="118" x2="118" y1="803.4258" y2="835.4063"/><polygon fill="#696969" points="114,825.4063,118,835.4063,122,825.4063,118,829.4063" style="stroke: #696969; stroke-width: 1.0;"/><line style="stroke: #696969; stroke-width: 1.5;" x1="118" x2="118" y1="870.5" y2="890.5"/><polygon fill="#696969" points="114,880.5,118,890.5,122,880.5,118,884.5" style="stroke: #696969; stroke-width: 1.0;"/><line style="stroke: #696969; stroke-width: 1.5;" x1="118" x2="118" y1="105.375" y2="156.5156"/><polygon fill="#696969" points="114,146.5156,118,156.5156,122,146.5156,118,150.5156" style="stroke: #696969; stroke-width: 1.0;"/><line style="stroke: #696969; stroke-width: 1.5;" x1="118" x2="118" y1="1012.7344" y2="1037.6523"/><polygon fill="#696969" points="114,1027.6523,118,1037.6523,122,1027.6523,118,1031.6523" style="stroke: #696969; stroke-width: 1.0;"/><line style="stroke: #696969; stroke-width: 1.5;" x1="159" x2="270" y1="1000.7344" y2="1000.7344"/><polygon fill="#696969" points="266,1045.1992,270,1055.1992,274,1045.1992,270,1049.1992" style="stroke: #696969; stroke-width: 1.5;"/><line style="stroke: #696969; stroke-width: 1.5;" x1="270" x2="270" y1="1000.7344" y2="1104.7461"/><line style="stroke: #696969; stroke-width: 1.5;" x1="270" x2="130" y1="1104.7461" y2="1104.7461"/><polygon fill="#696969" points="140,1100.7461,130,1104.7461,140,1108.7461,136,1104.7461" style="stroke: #696969; stroke-width: 1.0;"/><line style="stroke: #696969; stroke-width: 1.5;" x1="118" x2="118" y1="1072.7461" y2="1092.7461"/><polygon fill="#696969" points="114,1082.7461,118,1092.7461,122,1082.7461,118,1086.7461" style="stroke: #696969; stroke-width: 1.0;"/><line style="stroke: #696969; stroke-width: 1.5;" x1="118" x2="118" y1="1160.7461" y2="1185.6641"/><polygon fill="#696969" points="114,1175.6641,118,1185.6641,122,1175.6641,118,1179.6641" style="stroke: #696969; stroke-width: 1.0;"/><line style="stroke: #696969; stroke-width: 1.5;" x1="145.5" x2="242.5" y1="1148.7461" y2="1148.7461"/><polygon fill="#696969" points="238.5,1193.2109,242.5,1203.2109,246.5,1193.2109,242.5,1197.2109" style="stroke: #696969; stroke-width: 1.5;"/><line style="stroke: #696969; stroke-width: 1.5;" x1="242.5" x2="242.5" y1="1148.7461" y2="1252.7578"/><line style="stroke: #696969; stroke-width: 1.5;" x1="242.5" x2="130" y1="1252.7578" y2="1252.7578"/><polygon fill="#696969" points="140,1248.7578,130,1252.7578,140,1256.7578,136,1252.7578" style="stroke: #696969; stroke-width: 1.0;"/><line style="stroke: #696969; stroke-width: 1.5;" x1="118" x2="118" y1="1220.7578" y2="1240.7578"/><polygon fill="#696969" points="114,1230.7578,118,1240.7578,122,1230.7578,118,1234.7578" style="stroke: #696969; stroke-width: 1.0;"/><line style="stroke: #696969; stroke-width: 1.5;" x1="118" x2="118" y1="1116.7461" y2="1136.7461"/><polygon fill="#696969" points="114,1126.7461,118,1136.7461,122,1126.7461,118,1130.7461" style="stroke: #696969; stroke-width: 1.0;"/><line style="stroke: #696969; stroke-width: 1.5;" x1="118" x2="118" y1="1308.7578" y2="1337.4805"/><polygon fill="#696969" points="114,1327.4805,118,1337.4805,122,1327.4805,118,1331.4805" style="stroke: #696969; stroke-width: 1.0;"/><line style="stroke: #696969; stroke-width: 1.5;" x1="148" x2="294.5" y1="1296.7578" y2="1296.7578"/><polygon fill="#696969" points="290.5,1345.0273,294.5,1355.0273,298.5,1345.0273,294.5,1349.0273" style="stroke: #696969; stroke-width: 1.5;"/><line style="stroke: #696969; stroke-width: 1.5;" x1="294.5" x2="294.5" y1="1296.7578" y2="1408.3789"/><line style="stroke: #696969; stroke-width: 1.5;" x1="294.5" x2="130" y1="1408.3789" y2="1408.3789"/><polygon fill="#696969" points="140,1404.3789,130,1408.3789,140,1412.3789,136,1408.3789" style="stroke: #696969; stroke-width: 1.0;"/><line style="stroke: #696969; stroke-width: 1.5;" x1="118" x2="118" y1="1372.5742" y2="1396.3789"/><polygon fill="#696969" points="114,1386.3789,118,1396.3789,122,1386.3789,118,1390.3789" style="stroke: #696969; stroke-width: 1.0;"/><line style="stroke: #696969; stroke-width: 1.5;" x1="118" x2="118" y1="1264.7578" y2="1284.7578"/><polygon fill="#696969" points="114,1274.7578,118,1284.7578,122,1274.7578,118,1278.7578" style="stroke: #696969; stroke-width: 1.0;"/><line style="stroke: #696969; stroke-width: 1.5;" x1="118" x2="118" y1="1464.3789" y2="1489.2969"/><polygon fill="#696969" points="114,1479.2969,118,1489.2969,122,1479.2969,118,1483.2969" style="stroke: #696969; stroke-width: 1.0;"/><line style="stroke: #696969; stroke-width: 1.5;" x1="181.5" x2="230.5" y1="1452.3789" y2="1452.3789"/><polygon fill="#696969" points="226.5,1496.8438,230.5,1506.8438,234.5,1496.8438,230.5,1500.8438" style="stroke: #696969; stroke-width: 1.5;"/><line style="stroke: #696969; stroke-width: 1.5;" x1="230.5" x2="230.5" y1="1452.3789" y2="1556.3906"/><line style="stroke: #696969; stroke-width: 1.5;" x1="230.5" x2="130" y1="1556.3906" y2="1556.3906"/><polygon fill="#696969" points="140,1552.3906,130,1556.3906,140,1560.3906,136,1556.3906" style="stroke: #696969; stroke-width: 1.0;"/><line style="stroke: #696969; stroke-width: 1.5;" x1="118" x2="118" y1="1524.3906" y2="1544.3906"/><polygon fill="#696969" points="114,1534.3906,118,1544.3906,122,1534.3906,118,1538.3906" style="stroke: #696969; stroke-width: 1.0;"/><line style="stroke: #696969; stroke-width: 1.5;" x1="118" x2="118" y1="1420.3789" y2="1440.3789"/><polygon fill="#696969" points="114,1430.3789,118,1440.3789,122,1430.3789,118,1434.3789" style="stroke: #696969; stroke-width: 1.0;"/><line style="stroke: #696969; stroke-width: 1.5;" x1="118" x2="118" y1="1612.3906" y2="1637.3086"/><polygon fill="#696969" points="114,1627.3086,118,1637.3086,122,1627.3086,118,1631.3086" style="stroke: #696969; stroke-width: 1.0;"/><line style="stroke: #696969; stroke-width: 1.5;" x1="184.5" x2="196.5" y1="1600.3906" y2="1600.3906"/><polygon fill="#696969" points="192.5,1644.8555,196.5,1654.8555,200.5,1644.8555,196.5,1648.8555" style="stroke: #696969; stroke-width: 1.5;"/><line style="stroke: #696969; stroke-width: 1.5;" x1="196.5" x2="196.5" y1="1600.3906" y2="1704.4023"/><line style="stroke: #696969; stroke-width: 1.5;" x1="196.5" x2="130" y1="1704.4023" y2="1704.4023"/><polygon fill="#696969" points="140,1700.4023,130,1704.4023,140,1708.4023,136,1704.4023" style="stroke: #696969; stroke-width: 1.0;"/><line style="stroke: #696969; stroke-width: 1.5;" x1="118" x2="118" y1="1672.4023" y2="1692.4023"/><polygon fill="#696969" points="114,1682.4023,118,1692.4023,122,1682.4023,118,1686.4023" style="stroke: #696969; stroke-width: 1.0;"/><line style="stroke: #696969; stroke-width: 1.5;" x1="118" x2="118" y1="1568.3906" y2="1588.3906"/><polygon fill="#696969" points="114,1578.3906,118,1588.3906,122,1578.3906,118,1582.3906" style="stroke: #696969; stroke-width: 1.0;"/><line style="stroke: #696969; stroke-width: 1.5;" x1="118" x2="118" y1="1760.4023" y2="1844.3564"/><polygon fill="#696969" points="114,1834.3564,118,1844.3564,122,1834.3564,118,1838.3564" style="stroke: #696969; stroke-width: 1.0;"/><line style="stroke: #696969; stroke-width: 1.5;" x1="142" x2="342.5" y1="1748.4023" y2="1748.4023"/><polygon fill="#696969" points="338.5,1851.9033,342.5,1861.9033,346.5,1851.9033,342.5,1855.9033" style="stroke: #696969; stroke-width: 1.5;"/><line style="stroke: #696969; stroke-width: 1.5;" x1="342.5" x2="342.5" y1="1748.4023" y2="1972.4854"/><line style="stroke: #696969; stroke-width: 1.5;" x1="342.5" x2="130" y1="1972.4854" y2="1972.4854"/><polygon fill="#696969" points="140,1968.4854,130,1972.4854,140,1976.4854,136,1972.4854" style="stroke: #696969; stroke-width: 1.0;"/><line style="stroke: #696969; stroke-width: 1.5;" x1="118" x2="118" y1="1879.4502" y2="1960.4854"/><polygon fill="#696969" points="114,1950.4854,118,1960.4854,122,1950.4854,118,1954.4854" style="stroke: #696969; stroke-width: 1.0;"/><line style="stroke: #696969; stroke-width: 1.5;" x1="118" x2="118" y1="1716.4023" y2="1736.4023"/><polygon fill="#696969" points="114,1726.4023,118,1736.4023,122,1726.4023,118,1730.4023" style="stroke: #696969; stroke-width: 1.0;"/><line style="stroke: #696969; stroke-width: 1.5;" x1="118" x2="118" y1="2088.4971" y2="2108.4971"/><polygon fill="#696969" points="114,2098.4971,118,2108.4971,122,2098.4971,118,2102.4971" style="stroke: #696969; stroke-width: 1.0;"/><line style="stroke: #696969; stroke-width: 1.5;" x1="118" x2="118" y1="2143.5908" y2="2181.0908"/><polygon fill="#696969" points="114,2171.0908,118,2181.0908,122,2171.0908,118,2175.0908" style="stroke: #696969; stroke-width: 1.0;"/><line style="stroke: #696969; stroke-width: 1.5;" x1="118" x2="118" y1="2216.1846" y2="2248.165"/><polygon fill="#696969" points="114,2238.165,118,2248.165,122,2238.165,118,2242.165" style="stroke: #696969; stroke-width: 1.0;"/><line style="stroke: #696969; stroke-width: 1.5;" x1="118" x2="118" y1="2028.4854" y2="2053.4033"/><polygon fill="#696969" points="114,2043.4033,118,2053.4033,122,2043.4033,118,2047.4033" style="stroke: #696969; stroke-width: 1.0;"/><line style="stroke: #696969; stroke-width: 1.5;" x1="156" x2="333" y1="2016.4854" y2="2016.4854"/><polygon fill="#696969" points="329,2153.5908,333,2163.5908,337,2153.5908,333,2157.5908" style="stroke: #696969; stroke-width: 1.5;"/><line style="stroke: #696969; stroke-width: 1.5;" x1="333" x2="333" y1="2016.4854" y2="2315.2588"/><line style="stroke: #696969; stroke-width: 1.5;" x1="333" x2="130" y1="2315.2588" y2="2315.2588"/><polygon fill="#696969" points="140,2311.2588,130,2315.2588,140,2319.2588,136,2315.2588" style="stroke: #696969; stroke-width: 1.0;"/><line style="stroke: #696969; stroke-width: 1.5;" x1="118" x2="118" y1="2283.2588" y2="2303.2588"/><polygon fill="#696969" points="114,2293.2588,118,2303.2588,122,2293.2588,118,2297.2588" style="stroke: #696969; stroke-width: 1.0;"/><line style="stroke: #696969; stroke-width: 1.5;" x1="118" x2="118" y1="1984.4854" y2="2004.4854"/><polygon fill="#696969" points="114,1994.4854,118,2004.4854,122,1994.4854,118,1998.4854" style="stroke: #696969; stroke-width: 1.0;"/><line style="stroke: #696969; stroke-width: 1.5;" x1="118" x2="118" y1="2327.2588" y2="2347.2588"/><polygon fill="#696969" points="114,2337.2588,118,2347.2588,122,2337.2588,118,2341.2588" style="stroke: #696969; stroke-width: 1.0;"/><line style="stroke: #696969; stroke-width: 1.5;" x1="118" x2="118" y1="2382.3525" y2="2402.3525"/><polygon fill="#696969" points="114,2392.3525,118,2402.3525,122,2392.3525,118,2396.3525" style="stroke: #696969; stroke-width: 1.0;"/><line style="stroke: #696969; stroke-width: 1.5;" x1="118" x2="118" y1="2437.4463" y2="2457.4463"/><polygon fill="#696969" points="114,2447.4463,118,2457.4463,122,2447.4463,118,2451.4463" style="stroke: #696969; stroke-width: 1.0;"/><line style="stroke: #696969; stroke-width: 1.5;" x1="118" x2="118" y1="925.5938" y2="988.7344"/><polygon fill="#696969" points="114,978.7344,118,988.7344,122,978.7344,118,982.7344" style="stroke: #696969; stroke-width: 1.0;"/><line style="stroke: #696969; stroke-width: 1.5;" x1="118" x2="118" y1="2562.2119" y2="2595.1309"/><polygon fill="#696969" points="114,2585.1309,118,2595.1309,122,2585.1309,118,2589.1309" style="stroke: #696969; stroke-width: 1.0;"/><line style="stroke: #696969; stroke-width: 1.5;" x1="164.5" x2="187.5" y1="2543.376" y2="2543.376"/><polygon fill="#696969" points="177.5,2539.376,187.5,2543.376,177.5,2547.376,181.5,2543.376" style="stroke: #696969; stroke-width: 1.0;"/><line style="stroke: #696969; stroke-width: 1.5;" x1="118" x2="118" y1="2492.54" y2="2524.54"/><polygon fill="#696969" points="114,2514.54,118,2524.54,122,2514.54,118,2518.54" style="stroke: #696969; stroke-width: 1.0;"/><line style="stroke: #696969; stroke-width: 1.5;" x1="118" x2="118" y1="2632.8027" y2="2665.7217"/><polygon fill="#696969" points="114,2655.7217,118,2665.7217,122,2655.7217,118,2659.7217" style="stroke: #696969; stroke-width: 1.0;"/><line style="stroke: #696969; stroke-width: 1.5;" x1="161" x2="184" y1="2613.9668" y2="2613.9668"/><polygon fill="#696969" points="174,2609.9668,184,2613.9668,174,2617.9668,178,2613.9668" style="stroke: #696969; stroke-width: 1.0;"/><line style="stroke: #696969; stroke-width: 1.5;" x1="118" x2="118" y1="2731.0654" y2="2763.9844"/><polygon fill="#696969" points="114,2753.9844,118,2763.9844,122,2753.9844,118,2757.9844" style="stroke: #696969; stroke-width: 1.0;"/><line style="stroke: #696969; stroke-width: 1.5;" x1="199" x2="222" y1="2698.3936" y2="2698.3936"/><polygon fill="#696969" points="212,2694.3936,222,2698.3936,212,2702.3936,216,2698.3936" style="stroke: #696969; stroke-width: 1.0;"/><line style="stroke: #696969; stroke-width: 1.5;" x1="118" x2="118" y1="2801.6563" y2="2834.5752"/><polygon fill="#696969" points="114,2824.5752,118,2834.5752,122,2824.5752,118,2828.5752" style="stroke: #696969; stroke-width: 1.0;"/><line style="stroke: #696969; stroke-width: 1.5;" x1="175" x2="198" y1="2782.8203" y2="2782.8203"/><polygon fill="#696969" points="188,2778.8203,198,2782.8203,188,2786.8203,192,2782.8203" style="stroke: #696969; stroke-width: 1.0;"/><text fill="#000080" font-family="sans-serif" font-size="14" lengthAdjust="spacingAndGlyphs" textLength="42" x="10" y="2883.2021">©2019</text><a target="_top" xlink:actuate="onRequest" xlink:href="http://www.lifestylesunlimited.com" xlink:show="new" xlink:title="http://www.lifestylesunlimited.com" xlink:type="simple"><text fill="#0000FF" font-family="sans-serif" font-size="14" lengthAdjust="spacingAndGlyphs" text-decoration="underline" textLength="122" x="56" y="2883.2021">LifeStyles Unlimited</text><line style="stroke: #0000FF; stroke-width: 1.0;" x1="56" x2="178" y1="2885.2021" y2="2885.2021"/></a><text fill="#000080" font-family="sans-serif" font-size="14" lengthAdjust="spacingAndGlyphs" textLength="283" x="182" y="2883.2021">| Generated Sun May 12 17:24:22 CDT 2019</text><!--
@startuml evaluating


skinparam {
  BorderColor Red
  PathHoverColor Blue
}

skinparam Title {
  FontColor Navy
  BackgroundColor PaleGoldenRod
  BorderColor Navy
  BorderRoundCorner 20
  FontSize 24
}

skinparam activity {
  BackgroundColor Ivory
  BorderColor CornflowerBlue
  BorderThickness 1
  FontColor DimGray
  

  Arrow {
    Color dimgray
    FontColor dimgray
  }

  Start {
    Color PHYSICAL
  }

  End {
    Color Coral
  }

  Diamond {
    BackgroundColor Ivory
    BorderColor CornflowerBlue
    FontColor DarkGray
  }

  BackgroundColor<< Exception >> Red
	BorderColor<< Exception >> White
}

skinparam Swimlane {
  BorderColor CornflowerBlue 
}

skinparam Partition {
  BackgroundColor Ivory
  BorderColor CornflowerBlue
  BorderThickness 1
  FontColor CornflowerBlue
  FontSize 16
  BorderRoundCorner 20
}

skinparam Note {
  BackgroundColor LightSteelBlue
  BorderColor CornflowerBlue
  FontColor White
}

skinparam Legend {
  BackgroundColor LightSteelBlue
  BorderColor CornflowerBlue
  FontColor White
}

skinparam Footer {
  FontColor Navy
}


left header 
	<font color=Navy size=24>[[../index.svg?sanitize=true ⌂ Home]]</font>
endheader


	Title Evaluating (Analysis)

	start

	partition "Gather Information" {
		#PHYSICAL:<&dollar> purchase price]
		note right: offer full price
		#PHYSICAL:<&dollar> survey 350]
		note right: dfw $350
		#PHYSICAL:<&dollar> appraisal first closing 500]
		note right: hard money
		#PHYSICAL:<&dollar> appraisal second closing 500]
		note right: back-end lender
		:<&calculator> lending rate]
		note right: interest rate
		#PHYSICAL:<&dollar> hoa dues]
		note right: monthly
		#PHYSICAL:<&dollar> property taxes]
		note right: annual
		#PHYSICAL:<&dollar> insurance 500-700]
		note right: annual
		#PHYSICAL:<&dollar> rent]
		note right: can use zillow
		#PHYSICAL:<&calculator> escrow]
		note right
			quarterly cost
			(taxes + insurance) / 4
		end note
		#PHYSICAL:<&dollar> hard money loan amount]
		note right
			70% ARV
		end note
		#PHYSICAL:<&dollar> conventional loan amount]
		note right
			* 75% ARV
			* income to debt ratio: 
			   75% of rent - PITI = cashflow
		end note
		#PHYSICAL:<&dollar> hard money closing costs]		
		note right
			~ 7% of loan amount
		end note
		#PHYSICAL:<&dollar> conventional closing costs]		
		note right
			~ 5% of loan amount
		end note
	}

	partition "Calculate Rehab Cost" {
		note right: rehab all properties the same
		if(countertops) then (yes)
			#PHYSICAL:<&dollar> 150]
			note right:butcherblock
		else (no)
		endif
		
		if(carpet) then (yes)
			#PHYSICAL:<&dollar> 1.25 / sq ft]
			note right:avoid
		else (no)
		endif

		if(flooring) then (yes)
			#PHYSICAL:<&dollar> 1.69 / sq ft]
			note right
				square planks
				glued vinyl 
			end note
		else (no)
		endif

		if(bath / kitchen flooring) then (yes)
			#PHYSICAL:<&dollar> 3.50 / sq ft]
			note right:tile
		else (no)
		endif

		if(old hard wood flooring) then (yes)
			#PHYSICAL:<&dollar> resurface]
		else (no)
		endif

		if(paint) then (yes)
			#PHYSICAL:<&dollar> 1.85 / sq ft]
			note right
				* PPG
				* safety red
				   rustoleum
					 laminant = satin
				* stone mason grey
				   valspar color
				   semi-gloss sheen
				* never paint brick
				
			end note
		else (no)
		endif

		if(appliances) then (yes)
			#PHYSICAL:<&dollar> range 360]
			#PHYSICAL:<&dollar> microwave 179]
			#PHYSICAL:<&dollar> dishwasher 259]
			note right
				HD Supply
				stainless steel
				<i>do not provide frig
			end note
			#PHYSICAL:<&dollar> installation $10]
			note right
				sears
			end note
		else (no)
		endif

		#PHYSICAL:<&dollar> foundation 0]
		note right
			assume ok for now
		end note

		#PHYSICAL:<&dollar> roof 0]
		note right
			assume ok for now
		end note
		#PHYSICAL:<&dollar> a/c unit 0]
		note right
			assume ok for now
		end note
	}

	if(income ok\n- - - -\n$200-600 / mo) then (no)
		stop
	else (yes)
	endif

	if(cost/sql ft ok\n- - - -\n< $88 / sq ft) then (no)
		stop
	else (yes)
	endif

	if(correct cash-on-cash return\n- - - -\nshould be 8-30 %\nnet of lending rate\n<i>inflation is 3-4 %) then(no)
		stop
	else (yes)
	endif

	if(correct equity gain\n- - - -\nshould be 100%) then(no)
		stop
	else (yes)
	endif

	:visit;


left footer 
	<font size=14>©2019 [[http://www.lifestylesunlimited.com LifeStyles Unlimited]] | Generated Sun May 12 17:24:22 CDT 2019</font>
endfooter


@enduml

PlantUML version 1.2019.03(Sun Mar 10 06:04:44 CDT 2019)
(GPL source distribution)
Java Runtime: Java(TM) SE Runtime Environment
JVM: Java HotSpot(TM) 64-Bit Server VM
Java Version: 1.8.0_111-b14
Operating System: Windows 10
OS Version: 10.0
Default Encoding: Cp1252
Language: en
Country: US
--></g></svg>