<?xml version="1.0" encoding="UTF-8" standalone="no"?><svg xmlns="http://www.w3.org/2000/svg" xmlns:xlink="http://www.w3.org/1999/xlink" contentScriptType="application/ecmascript" contentStyleType="text/css" height="418px" preserveAspectRatio="none" style="width:475px;height:418px;" version="1.1" viewBox="0 0 475 418" width="475px" zoomAndPan="magnify"><defs><style type="text/css"><![CDATA[path:hover { stroke: #0000FF !important;}]]></style><filter height="300%" id="fzzydy6i2rh3a" width="300%" x="-1" y="-1"><feGaussianBlur result="blurOut" stdDeviation="2.0"/><feColorMatrix in="blurOut" result="blurOut2" type="matrix" values="0 0 0 0 0 0 0 0 0 0 0 0 0 0 0 0 0 0 .4 0"/><feOffset dx="4.0" dy="4.0" in="blurOut2" result="blurOut3"/><feBlend in="SourceGraphic" in2="blurOut3" mode="normal"/></filter></defs><g><a target="_top" xlink:actuate="onRequest" xlink:href="../index.svg" xlink:show="new" xlink:title="../index.svg" xlink:type="simple"><text fill="#0000FF" font-family="sans-serif" font-size="18" lengthAdjust="spacingAndGlyphs" text-decoration="underline" textLength="67" x="10" y="28.6855">⌂ Home</text><line style="stroke: #0000FF; stroke-width: 1.0;" x1="10" x2="77" y1="30.6855" y2="30.6855"/></a><rect fill="#EEE8AA" height="32.6406" rx="10" ry="10" style="stroke: #000080; stroke-width: 1.5;" width="183" x="144.5" y="34.6406"/><text fill="#000080" font-family="sans-serif" font-size="18" lengthAdjust="spacingAndGlyphs" textLength="167" x="152.5" y="58.3262">Evaluating (Analysis)</text><path d="M172.75,70.2813 L172.75,96.6328 L395.75,96.6328 L395.75,80.2813 L385.75,70.2813 L172.75,70.2813 " fill="#B0C4DE" filter="url(#fzzydy6i2rh3a)" style="stroke: #6495ED; stroke-width: 1.0;"/><path d="M385.75,70.2813 L385.75,80.2813 L395.75,80.2813 L385.75,70.2813 " fill="#B0C4DE" style="stroke: #6495ED; stroke-width: 1.0;"/><text fill="#FFFFFF" font-family="sans-serif" font-size="13" lengthAdjust="spacingAndGlyphs" textLength="202" x="178.75" y="88.7764">comparative market analysis (cma)</text><ellipse cx="142.75" cy="83.457" fill="#CCFFCC" filter="url(#fzzydy6i2rh3a)" rx="10" ry="10" style="stroke: none; stroke-width: 1.0;"/><path d="M219.25,121.0039 L219.25,130.1797 L199.25,134.1797 L219.25,138.1797 L219.25,147.3555 A0,0 0 0 0 219.25,147.3555 L382.25,147.3555 A0,0 0 0 0 382.25,147.3555 L382.25,131.0039 L372.25,121.0039 L219.25,121.0039 A0,0 0 0 0 219.25,121.0039 " fill="#B0C4DE" filter="url(#fzzydy6i2rh3a)" style="stroke: #6495ED; stroke-width: 1.0;"/><path d="M372.25,121.0039 L372.25,131.0039 L382.25,131.0039 L372.25,121.0039 " fill="#B0C4DE" style="stroke: #6495ED; stroke-width: 1.0;"/><text fill="#FFFFFF" font-family="sans-serif" font-size="13" lengthAdjust="spacingAndGlyphs" textLength="142" x="225.25" y="139.499">should be $200-$600/mo</text><rect fill="#FFFFF0" filter="url(#fzzydy6i2rh3a)" height="35.0938" rx="12.5" ry="12.5" style="stroke: #6495ED; stroke-width: 1.5;" width="113" x="86.25" y="116.6328"/><text fill="#696969" font-family="sans-serif" font-size="12" lengthAdjust="spacingAndGlyphs" textLength="93" x="96.25" y="139.0898">calculate income</text><rect fill="#FFFFF0" filter="url(#fzzydy6i2rh3a)" height="35.0938" rx="12.5" ry="12.5" style="stroke: #6495ED; stroke-width: 1.5;" width="105" x="90.25" y="171.7266"/><text fill="#696969" font-family="sans-serif" font-size="12" lengthAdjust="spacingAndGlyphs" textLength="85" x="100.25" y="194.1836">get lending rate</text><path d="M212.25,216.8203 L212.25,252.3477 L192.25,256.3477 L212.25,260.3477 L212.25,295.875 A0,0 0 0 0 212.25,295.875 L336.25,295.875 A0,0 0 0 0 336.25,295.875 L336.25,226.8203 L326.25,216.8203 L212.25,216.8203 A0,0 0 0 0 212.25,216.8203 " fill="#B0C4DE" filter="url(#fzzydy6i2rh3a)" style="stroke: #6495ED; stroke-width: 1.0;"/><path d="M326.25,216.8203 L326.25,226.8203 L336.25,226.8203 L326.25,216.8203 " fill="#B0C4DE" style="stroke: #6495ED; stroke-width: 1.0;"/><text fill="#FFFFFF" font-family="sans-serif" font-size="13" lengthAdjust="spacingAndGlyphs" textLength="103" x="218.25" y="235.3154">net of lending rate</text><line style="stroke: #6495ED; stroke-width: 1.0;" x1="212.25" x2="336.25" y1="243.1719" y2="243.1719"/><line style="stroke: #6495ED; stroke-width: 1.0;" x1="212.25" x2="336.25" y1="245.1719" y2="245.1719"/><text fill="#FFFFFF" font-family="sans-serif" font-size="13" lengthAdjust="spacingAndGlyphs" textLength="97" x="218.25" y="261.667">should be 8-30%</text><line style="stroke: #6495ED; stroke-width: 1.0;" x1="212.25" x2="336.25" y1="269.5234" y2="269.5234"/><line style="stroke: #6495ED; stroke-width: 1.0;" x1="212.25" x2="336.25" y1="271.5234" y2="271.5234"/><text fill="#FFFFFF" font-family="sans-serif" font-size="13" lengthAdjust="spacingAndGlyphs" textLength="92" x="218.25" y="288.0186">inflation is 3-4%</text><rect fill="#FFFFF0" filter="url(#fzzydy6i2rh3a)" height="35.0938" rx="12.5" ry="12.5" style="stroke: #6495ED; stroke-width: 1.5;" width="99" x="93.25" y="238.8008"/><text fill="#696969" font-family="sans-serif" font-size="12" lengthAdjust="spacingAndGlyphs" textLength="79" x="103.25" y="261.2578">calculate COC</text><path d="M228.25,320.2461 L228.25,329.4219 L208.25,333.4219 L228.25,337.4219 L228.25,346.5977 A0,0 0 0 0 228.25,346.5977 L342.25,346.5977 A0,0 0 0 0 342.25,346.5977 L342.25,330.2461 L332.25,320.2461 L228.25,320.2461 A0,0 0 0 0 228.25,320.2461 " fill="#B0C4DE" filter="url(#fzzydy6i2rh3a)" style="stroke: #6495ED; stroke-width: 1.0;"/><path d="M332.25,320.2461 L332.25,330.2461 L342.25,330.2461 L332.25,320.2461 " fill="#B0C4DE" style="stroke: #6495ED; stroke-width: 1.0;"/><text fill="#FFFFFF" font-family="sans-serif" font-size="13" lengthAdjust="spacingAndGlyphs" textLength="93" x="234.25" y="338.7412">should be 100%</text><rect fill="#FFFFF0" filter="url(#fzzydy6i2rh3a)" height="35.0938" rx="12.5" ry="12.5" style="stroke: #6495ED; stroke-width: 1.5;" width="131" x="77.25" y="315.875"/><text fill="#696969" font-family="sans-serif" font-size="12" lengthAdjust="spacingAndGlyphs" textLength="111" x="87.25" y="338.332">calculate equity gain</text><ellipse cx="142.75" cy="380.9688" fill="#FFFFFF" filter="url(#fzzydy6i2rh3a)" rx="10" ry="10" style="stroke: #FF7F50; stroke-width: 1.5;"/><line style="stroke: #FF7F50; stroke-width: 2.5;" x1="136.5628" x2="148.9372" y1="374.7816" y2="387.1559"/><line style="stroke: #FF7F50; stroke-width: 2.5;" x1="148.9372" x2="136.5628" y1="374.7816" y2="387.1559"/><line style="stroke: #696969; stroke-width: 1.5;" x1="142.75" x2="142.75" y1="93.457" y2="116.6328"/><polygon fill="#696969" points="138.75,106.6328,142.75,116.6328,146.75,106.6328,142.75,110.6328" style="stroke: #696969; stroke-width: 1.0;"/><line style="stroke: #696969; stroke-width: 1.5;" x1="142.75" x2="142.75" y1="151.7266" y2="171.7266"/><polygon fill="#696969" points="138.75,161.7266,142.75,171.7266,146.75,161.7266,142.75,165.7266" style="stroke: #696969; stroke-width: 1.0;"/><line style="stroke: #696969; stroke-width: 1.5;" x1="142.75" x2="142.75" y1="206.8203" y2="238.8008"/><polygon fill="#696969" points="138.75,228.8008,142.75,238.8008,146.75,228.8008,142.75,232.8008" style="stroke: #696969; stroke-width: 1.0;"/><line style="stroke: #696969; stroke-width: 1.5;" x1="142.75" x2="142.75" y1="273.8945" y2="315.875"/><polygon fill="#696969" points="138.75,305.875,142.75,315.875,146.75,305.875,142.75,309.875" style="stroke: #696969; stroke-width: 1.0;"/><line style="stroke: #696969; stroke-width: 1.5;" x1="142.75" x2="142.75" y1="350.9688" y2="370.9688"/><polygon fill="#696969" points="138.75,360.9688,142.75,370.9688,146.75,360.9688,142.75,364.9688" style="stroke: #696969; stroke-width: 1.0;"/><text fill="#000080" font-family="sans-serif" font-size="14" lengthAdjust="spacingAndGlyphs" textLength="42" x="10" y="404.502">©2019</text><a target="_top" xlink:actuate="onRequest" xlink:href="http://www.lifestylesunlimited.com" xlink:show="new" xlink:title="http://www.lifestylesunlimited.com" xlink:type="simple"><text fill="#0000FF" font-family="sans-serif" font-size="14" lengthAdjust="spacingAndGlyphs" text-decoration="underline" textLength="122" x="56" y="404.502">LifeStyles Unlimited</text><line style="stroke: #0000FF; stroke-width: 1.0;" x1="56" x2="178" y1="406.502" y2="406.502"/></a><text fill="#000080" font-family="sans-serif" font-size="14" lengthAdjust="spacingAndGlyphs" textLength="281" x="182" y="404.502">| Generated Mon Apr 22 08:25:53 CDT 2019</text><!--
@startuml evaluating


skinparam {
  BorderColor Red
  PathHoverColor Blue
}

skinparam Title {
  FontColor Navy
  BackgroundColor PaleGoldenRod
  BorderColor Navy
  BorderRoundCorner 20
}

skinparam activity {
  BackgroundColor Ivory
  BorderColor CornflowerBlue
  FontColor DimGray
  

  Arrow {
    Color dimgray
    FontColor dimgray
  }

  Start {
    Color PHYSICAL
  }

  End {
    Color Coral
  }

  Diamond {
    BackgroundColor Ivory
    BorderColor CornflowerBlue
    FontColor DarkGray
  }

  BackgroundColor<< Exception >> Red
	BorderColor<< Exception >> White
}

skinparam Swimlane {
  BorderColor CornflowerBlue 
}

skinparam Partition {
  BackgroundColor Ivory
  BorderColor CornflowerBlue
  BorderThickness 1
  FontColor CornflowerBlue
  FontSize 16
  BorderRoundCorner 20
}

skinparam Note {
  BackgroundColor LightSteelBlue
  BorderColor CornflowerBlue
  FontColor White
}

skinparam Legend {
  BackgroundColor LightSteelBlue
  BorderColor CornflowerBlue
  FontColor White
}

skinparam Footer {
  FontColor Navy
}


left header 
	<font color=Navy size=18>[[../index.svg ⌂ Home]]</font>
endheader


	Title Evaluating (Analysis)

	start

	floating note right: comparative market analysis (cma)

	:calculate income;
	note right
		should be $200-$600/mo
	end note

	:get lending rate;

	:calculate COC;
	note right
		net of lending rate
		====
		should be 8-30%
		====
		inflation is 3-4%
	end note

	:calculate equity gain;
	note right: should be 100%

	end


left footer 
	<font size=14>©2019 [[http://www.lifestylesunlimited.com LifeStyles Unlimited]] | Generated Mon Apr 22 08:25:53 CDT 2019</font>
endfooter


@enduml

PlantUML version 1.2019.03(Sun Mar 10 06:04:44 CDT 2019)
(GPL source distribution)
Java Runtime: Java(TM) SE Runtime Environment
JVM: Java HotSpot(TM) 64-Bit Server VM
Java Version: 1.8.0_111-b14
Operating System: Windows 10
OS Version: 10.0
Default Encoding: Cp1252
Language: en
Country: US
--></g></svg>