<?xml version="1.0" encoding="UTF-8" standalone="no"?><svg xmlns="http://www.w3.org/2000/svg" xmlns:xlink="http://www.w3.org/1999/xlink" contentScriptType="application/ecmascript" contentStyleType="text/css" height="2770px" preserveAspectRatio="none" style="width:567px;height:2770px;" version="1.1" viewBox="0 0 567 2770" width="567px" zoomAndPan="magnify"><defs><style type="text/css"><![CDATA[path:hover { stroke: #0000FF !important;}]]></style><filter height="300%" id="f7h2wsrg9h96y" width="300%" x="-1" y="-1"><feGaussianBlur result="blurOut" stdDeviation="2.0"/><feColorMatrix in="blurOut" result="blurOut2" type="matrix" values="0 0 0 0 0 0 0 0 0 0 0 0 0 0 0 0 0 0 .4 0"/><feOffset dx="4.0" dy="4.0" in="blurOut2" result="blurOut3"/><feBlend in="SourceGraphic" in2="blurOut3" mode="normal"/></filter></defs><g><a href="../index.svg?sanitize=true" target="_top" xlink:actuate="onRequest" xlink:show="new" xlink:title="../index.svg?sanitize=true" xlink:type="simple"><text fill="#0000FF" font-family="sans-serif" font-size="24" lengthAdjust="spacingAndGlyphs" text-decoration="underline" textLength="90" x="10" y="34.9141">⌂ Home</text></a><rect fill="#EEE8AA" height="40.1875" rx="10" ry="10" style="stroke: #000080; stroke-width: 1.5;" width="241" x="161.5" y="42.1875"/><text fill="#000080" font-family="sans-serif" font-size="24" lengthAdjust="spacingAndGlyphs" textLength="225" x="169.5" y="72.1016">Evaluating (Analysis)</text><ellipse cx="118" cy="95.375" fill="#CCFFCC" filter="url(#f7h2wsrg9h96y)" rx="10" ry="10" style="stroke: none; stroke-width: 1.0;"/><rect fill="#FFFFF0" filter="url(#f7h2wsrg9h96y)" height="821.2031" style="stroke: #6495ED; stroke-width: 1.0;" width="424" x="10" y="116.3906"/><path d="M147,117.3906 L147,129.5156 L137,139.5156 L10,139.5156 " fill="none" style="stroke: #6495ED; stroke-width: 1.0;"/><text fill="#6495ED" font-family="sans-serif" font-size="16" lengthAdjust="spacingAndGlyphs" textLength="127" x="13" y="134">Gather Information</text><path d="M195.5,160.8867 L195.5,170.0625 L175.5,174.0625 L195.5,178.0625 L195.5,187.2383 A0,0 0 0 0 195.5,187.2383 L292.5,187.2383 A0,0 0 0 0 292.5,187.2383 L292.5,170.8867 L282.5,160.8867 L195.5,160.8867 A0,0 0 0 0 195.5,160.8867 " fill="#B0C4DE" filter="url(#f7h2wsrg9h96y)" style="stroke: #6495ED; stroke-width: 1.0;"/><path d="M282.5,160.8867 L282.5,170.8867 L292.5,170.8867 L282.5,160.8867 " fill="#B0C4DE" style="stroke: #6495ED; stroke-width: 1.0;"/><text fill="#FFFFFF" font-family="sans-serif" font-size="13" lengthAdjust="spacingAndGlyphs" textLength="76" x="201.5" y="179.3818">offer full price</text><rect fill="#CCFFCC" filter="url(#f7h2wsrg9h96y)" height="35.0938" style="stroke: #6495ED; stroke-width: 1.0;" width="115" x="60.5" y="156.5156"/><path d="M74.5,170.6094 L74.5,171.6094 L73.75,171.6094 C73.064,171.6094 72.5,172.1734 72.5,172.8594 L72.5,173.3594 C72.5,174.0374 72.937,174.6014 73.594,174.7654 L76.157,175.4214 C76.3,175.4574 76.501,175.7174 76.501,175.8594 L76.501,176.3594 C76.501,176.4934 76.385,176.6094 76.251,176.6094 L73.751,176.6094 C73.635,176.6094 73.539,176.5724 73.501,176.5464 L73.501,175.6084 L72.501,175.6084 L72.501,176.6084 C72.501,176.9504 72.704,177.2354 72.939,177.3894 C73.173,177.5444 73.457,177.6084 73.752,177.6084 L74.502,177.6084 L74.502,178.6084 L75.502,178.6084 L75.502,177.6084 L76.252,177.6084 C76.938,177.6084 77.502,177.0444 77.502,176.3584 L77.502,175.8584 C77.502,175.1804 77.065,174.6164 76.408,174.4524 L73.845,173.7964 C73.702,173.7604 73.501,173.5004 73.501,173.3584 L73.501,172.8584 C73.501,172.7244 73.617,172.6084 73.751,172.6084 L76.251,172.6084 C76.367,172.6084 76.463,172.6454 76.501,172.6714 L76.501,173.6094 L77.501,173.6094 L77.501,172.6094 C77.501,172.2674 77.298,171.9824 77.063,171.8284 C76.829,171.6734 76.545,171.6094 76.25,171.6094 L75.5,171.6094 L75.5,170.6094 L74.5,170.6094 " fill="#696969" style="stroke: ; stroke-width: 0.0; stroke-dasharray: ;"/><text fill="#696969" font-family="sans-serif" font-size="12" lengthAdjust="spacingAndGlyphs" textLength="82" x="83.5" y="178.9727">purchase price</text><path d="M184,215.9805 L184,225.1563 L164,229.1563 L184,233.1563 L184,242.332 A0,0 0 0 0 184,242.332 L256,242.332 A0,0 0 0 0 256,242.332 L256,225.9805 L246,215.9805 L184,215.9805 A0,0 0 0 0 184,215.9805 " fill="#B0C4DE" filter="url(#f7h2wsrg9h96y)" style="stroke: #6495ED; stroke-width: 1.0;"/><path d="M246,215.9805 L246,225.9805 L256,225.9805 L246,215.9805 " fill="#B0C4DE" style="stroke: #6495ED; stroke-width: 1.0;"/><text fill="#FFFFFF" font-family="sans-serif" font-size="13" lengthAdjust="spacingAndGlyphs" textLength="51" x="190" y="234.4756">dfw $350</text><rect fill="#CCFFCC" filter="url(#f7h2wsrg9h96y)" height="35.0938" style="stroke: #6495ED; stroke-width: 1.0;" width="92" x="72" y="211.6094"/><path d="M86,225.7031 L86,226.7031 L85.25,226.7031 C84.564,226.7031 84,227.2671 84,227.9531 L84,228.4531 C84,229.1311 84.437,229.6951 85.094,229.8591 L87.657,230.5151 C87.8,230.5511 88.001,230.8111 88.001,230.9531 L88.001,231.4531 C88.001,231.5871 87.885,231.7031 87.751,231.7031 L85.251,231.7031 C85.135,231.7031 85.039,231.6661 85.001,231.6401 L85.001,230.7021 L84.001,230.7021 L84.001,231.7021 C84.001,232.0441 84.204,232.3291 84.439,232.4831 C84.673,232.6381 84.957,232.7021 85.252,232.7021 L86.002,232.7021 L86.002,233.7021 L87.002,233.7021 L87.002,232.7021 L87.752,232.7021 C88.438,232.7021 89.002,232.1381 89.002,231.4521 L89.002,230.9521 C89.002,230.2741 88.565,229.7101 87.908,229.5461 L85.345,228.8901 C85.202,228.8541 85.001,228.5941 85.001,228.4521 L85.001,227.9521 C85.001,227.8181 85.117,227.7021 85.251,227.7021 L87.751,227.7021 C87.867,227.7021 87.963,227.7391 88.001,227.7651 L88.001,228.7031 L89.001,228.7031 L89.001,227.7031 C89.001,227.3611 88.798,227.0761 88.563,226.9221 C88.329,226.7671 88.045,226.7031 87.75,226.7031 L87,226.7031 L87,225.7031 L86,225.7031 " fill="#696969" style="stroke: ; stroke-width: 0.0; stroke-dasharray: ;"/><text fill="#696969" font-family="sans-serif" font-size="12" lengthAdjust="spacingAndGlyphs" textLength="59" x="95" y="234.0664">survey 350</text><path d="M225.5,271.0742 L225.5,280.25 L205.5,284.25 L225.5,288.25 L225.5,297.4258 A0,0 0 0 0 225.5,297.4258 L314.5,297.4258 A0,0 0 0 0 314.5,297.4258 L314.5,281.0742 L304.5,271.0742 L225.5,271.0742 A0,0 0 0 0 225.5,271.0742 " fill="#B0C4DE" filter="url(#f7h2wsrg9h96y)" style="stroke: #6495ED; stroke-width: 1.0;"/><path d="M304.5,271.0742 L304.5,281.0742 L314.5,281.0742 L304.5,271.0742 " fill="#B0C4DE" style="stroke: #6495ED; stroke-width: 1.0;"/><text fill="#FFFFFF" font-family="sans-serif" font-size="13" lengthAdjust="spacingAndGlyphs" textLength="68" x="231.5" y="289.5693">hard money</text><rect fill="#CCFFCC" filter="url(#f7h2wsrg9h96y)" height="35.0938" style="stroke: #6495ED; stroke-width: 1.0;" width="175" x="30.5" y="266.7031"/><path d="M44.5,280.7969 L44.5,281.7969 L43.75,281.7969 C43.064,281.7969 42.5,282.3609 42.5,283.0469 L42.5,283.5469 C42.5,284.2249 42.937,284.7889 43.594,284.9529 L46.157,285.6089 C46.3,285.6449 46.501,285.9049 46.501,286.0469 L46.501,286.5469 C46.501,286.6809 46.385,286.7969 46.251,286.7969 L43.751,286.7969 C43.635,286.7969 43.539,286.7599 43.501,286.7339 L43.501,285.7959 L42.501,285.7959 L42.501,286.7959 C42.501,287.1379 42.704,287.4229 42.939,287.5769 C43.173,287.7319 43.457,287.7959 43.752,287.7959 L44.502,287.7959 L44.502,288.7959 L45.502,288.7959 L45.502,287.7959 L46.252,287.7959 C46.938,287.7959 47.502,287.2319 47.502,286.5459 L47.502,286.0459 C47.502,285.3679 47.065,284.8039 46.408,284.6399 L43.845,283.9839 C43.702,283.9479 43.501,283.6879 43.501,283.5459 L43.501,283.0459 C43.501,282.9119 43.617,282.7959 43.751,282.7959 L46.251,282.7959 C46.367,282.7959 46.463,282.8329 46.501,282.8589 L46.501,283.7969 L47.501,283.7969 L47.501,282.7969 C47.501,282.4549 47.298,282.1699 47.063,282.0159 C46.829,281.8609 46.545,281.7969 46.25,281.7969 L45.5,281.7969 L45.5,280.7969 L44.5,280.7969 " fill="#696969" style="stroke: ; stroke-width: 0.0; stroke-dasharray: ;"/><text fill="#696969" font-family="sans-serif" font-size="12" lengthAdjust="spacingAndGlyphs" textLength="142" x="53.5" y="289.1602">appraisal first closing 500</text><path d="M236,326.168 L236,335.3438 L216,339.3438 L236,343.3438 L236,352.5195 A0,0 0 0 0 236,352.5195 L349,352.5195 A0,0 0 0 0 349,352.5195 L349,336.168 L339,326.168 L236,326.168 A0,0 0 0 0 236,326.168 " fill="#B0C4DE" filter="url(#f7h2wsrg9h96y)" style="stroke: #6495ED; stroke-width: 1.0;"/><path d="M339,326.168 L339,336.168 L349,336.168 L339,326.168 " fill="#B0C4DE" style="stroke: #6495ED; stroke-width: 1.0;"/><text fill="#FFFFFF" font-family="sans-serif" font-size="13" lengthAdjust="spacingAndGlyphs" textLength="92" x="242" y="344.6631">back-end lender</text><rect fill="#CCFFCC" filter="url(#f7h2wsrg9h96y)" height="35.0938" style="stroke: #6495ED; stroke-width: 1.0;" width="196" x="20" y="321.7969"/><path d="M34,335.8906 L34,336.8906 L33.25,336.8906 C32.564,336.8906 32,337.4546 32,338.1406 L32,338.6406 C32,339.3186 32.437,339.8826 33.094,340.0466 L35.657,340.7026 C35.8,340.7386 36.001,340.9986 36.001,341.1406 L36.001,341.6406 C36.001,341.7746 35.885,341.8906 35.751,341.8906 L33.251,341.8906 C33.135,341.8906 33.039,341.8536 33.001,341.8276 L33.001,340.8896 L32.001,340.8896 L32.001,341.8896 C32.001,342.2316 32.204,342.5166 32.439,342.6706 C32.673,342.8256 32.957,342.8896 33.252,342.8896 L34.002,342.8896 L34.002,343.8896 L35.002,343.8896 L35.002,342.8896 L35.752,342.8896 C36.438,342.8896 37.002,342.3256 37.002,341.6396 L37.002,341.1396 C37.002,340.4616 36.565,339.8976 35.908,339.7336 L33.345,339.0776 C33.202,339.0416 33.001,338.7816 33.001,338.6396 L33.001,338.1396 C33.001,338.0056 33.117,337.8896 33.251,337.8896 L35.751,337.8896 C35.867,337.8896 35.963,337.9266 36.001,337.9526 L36.001,338.8906 L37.001,338.8906 L37.001,337.8906 C37.001,337.5486 36.798,337.2636 36.563,337.1096 C36.329,336.9546 36.045,336.8906 35.75,336.8906 L35,336.8906 L35,335.8906 L34,335.8906 " fill="#696969" style="stroke: ; stroke-width: 0.0; stroke-dasharray: ;"/><text fill="#696969" font-family="sans-serif" font-size="12" lengthAdjust="spacingAndGlyphs" textLength="163" x="43" y="344.2539">appraisal second closing 500</text><path d="M187,381.2617 L187,390.4375 L167,394.4375 L187,398.4375 L187,407.6133 A0,0 0 0 0 187,407.6133 L277,407.6133 A0,0 0 0 0 277,407.6133 L277,391.2617 L267,381.2617 L187,381.2617 A0,0 0 0 0 187,381.2617 " fill="#B0C4DE" filter="url(#f7h2wsrg9h96y)" style="stroke: #6495ED; stroke-width: 1.0;"/><path d="M267,381.2617 L267,391.2617 L277,391.2617 L267,381.2617 " fill="#B0C4DE" style="stroke: #6495ED; stroke-width: 1.0;"/><text fill="#FFFFFF" font-family="sans-serif" font-size="13" lengthAdjust="spacingAndGlyphs" textLength="69" x="193" y="399.7568">interest rate</text><rect fill="#FFFFF0" filter="url(#f7h2wsrg9h96y)" height="35.0938" style="stroke: #6495ED; stroke-width: 1.0;" width="98" x="69" y="376.8906"/><path d="M80.094,390.9844 C80.034,390.9844 80,391.0184 80,391.0784 L80,398.8914 C80,398.9514 80.034,398.9854 80.094,398.9854 L86.907,398.9854 C86.967,398.9854 87.001,398.9514 87.001,398.8914 L87.001,391.0784 C87.001,391.0184 86.967,390.9844 86.907,390.9844 L80.094,390.9844 M81,391.9844 L86,391.9844 L86,393.9844 L81,393.9844 L81,391.9844 M81,394.9844 L82,394.9844 L82,395.9844 L81,395.9844 L81,394.9844 M83,394.9844 L84,394.9844 L84,395.9844 L83,395.9844 L83,394.9844 M85,394.9844 L86,394.9844 L86,397.9844 L85,397.9844 L85,394.9844 M81,396.9844 L82,396.9844 L82,397.9844 L81,397.9844 L81,396.9844 M83,396.9844 L84,396.9844 L84,397.9844 L83,397.9844 L83,396.9844 " fill="#696969" style="stroke: ; stroke-width: 0.0; stroke-dasharray: ;"/><text fill="#696969" font-family="sans-serif" font-size="12" lengthAdjust="spacingAndGlyphs" textLength="65" x="92" y="399.3477">lending rate</text><path d="M180.5,436.3555 L180.5,445.5313 L160.5,449.5313 L180.5,453.5313 L180.5,462.707 A0,0 0 0 0 180.5,462.707 L247.5,462.707 A0,0 0 0 0 247.5,462.707 L247.5,446.3555 L237.5,436.3555 L180.5,436.3555 A0,0 0 0 0 180.5,436.3555 " fill="#B0C4DE" filter="url(#f7h2wsrg9h96y)" style="stroke: #6495ED; stroke-width: 1.0;"/><path d="M237.5,436.3555 L237.5,446.3555 L247.5,446.3555 L237.5,436.3555 " fill="#B0C4DE" style="stroke: #6495ED; stroke-width: 1.0;"/><text fill="#FFFFFF" font-family="sans-serif" font-size="13" lengthAdjust="spacingAndGlyphs" textLength="46" x="186.5" y="454.8506">monthly</text><rect fill="#CCFFCC" filter="url(#f7h2wsrg9h96y)" height="35.0938" style="stroke: #6495ED; stroke-width: 1.0;" width="85" x="75.5" y="431.9844"/><path d="M89.5,446.0781 L89.5,447.0781 L88.75,447.0781 C88.064,447.0781 87.5,447.6421 87.5,448.3281 L87.5,448.8281 C87.5,449.5061 87.937,450.0701 88.594,450.2341 L91.157,450.8901 C91.3,450.9261 91.501,451.1861 91.501,451.3281 L91.501,451.8281 C91.501,451.9621 91.385,452.0781 91.251,452.0781 L88.751,452.0781 C88.635,452.0781 88.539,452.0411 88.501,452.0151 L88.501,451.0771 L87.501,451.0771 L87.501,452.0771 C87.501,452.4191 87.704,452.7041 87.939,452.8581 C88.173,453.0131 88.457,453.0771 88.752,453.0771 L89.502,453.0771 L89.502,454.0771 L90.502,454.0771 L90.502,453.0771 L91.252,453.0771 C91.938,453.0771 92.502,452.5131 92.502,451.8271 L92.502,451.3271 C92.502,450.6491 92.065,450.0851 91.408,449.9211 L88.845,449.2651 C88.702,449.2291 88.501,448.9691 88.501,448.8271 L88.501,448.3271 C88.501,448.1931 88.617,448.0771 88.751,448.0771 L91.251,448.0771 C91.367,448.0771 91.463,448.1141 91.501,448.1401 L91.501,449.0781 L92.501,449.0781 L92.501,448.0781 C92.501,447.7361 92.298,447.4511 92.063,447.2971 C91.829,447.1421 91.545,447.0781 91.25,447.0781 L90.5,447.0781 L90.5,446.0781 L89.5,446.0781 " fill="#696969" style="stroke: ; stroke-width: 0.0; stroke-dasharray: ;"/><text fill="#696969" font-family="sans-serif" font-size="12" lengthAdjust="spacingAndGlyphs" textLength="52" x="98.5" y="454.4414">hoa dues</text><path d="M192.5,491.4492 L192.5,500.625 L172.5,504.625 L192.5,508.625 L192.5,517.8008 A0,0 0 0 0 192.5,517.8008 L251.5,517.8008 A0,0 0 0 0 251.5,517.8008 L251.5,501.4492 L241.5,491.4492 L192.5,491.4492 A0,0 0 0 0 192.5,491.4492 " fill="#B0C4DE" filter="url(#f7h2wsrg9h96y)" style="stroke: #6495ED; stroke-width: 1.0;"/><path d="M241.5,491.4492 L241.5,501.4492 L251.5,501.4492 L241.5,491.4492 " fill="#B0C4DE" style="stroke: #6495ED; stroke-width: 1.0;"/><text fill="#FFFFFF" font-family="sans-serif" font-size="13" lengthAdjust="spacingAndGlyphs" textLength="38" x="198.5" y="509.9443">annual</text><rect fill="#CCFFCC" filter="url(#f7h2wsrg9h96y)" height="35.0938" style="stroke: #6495ED; stroke-width: 1.0;" width="109" x="63.5" y="487.0781"/><path d="M77.5,501.1719 L77.5,502.1719 L76.75,502.1719 C76.064,502.1719 75.5,502.7359 75.5,503.4219 L75.5,503.9219 C75.5,504.5999 75.937,505.1639 76.594,505.3279 L79.157,505.9839 C79.3,506.0199 79.501,506.2799 79.501,506.4219 L79.501,506.9219 C79.501,507.0559 79.385,507.1719 79.251,507.1719 L76.751,507.1719 C76.635,507.1719 76.539,507.1349 76.501,507.1089 L76.501,506.1709 L75.501,506.1709 L75.501,507.1709 C75.501,507.5129 75.704,507.7979 75.939,507.9519 C76.173,508.1069 76.457,508.1709 76.752,508.1709 L77.502,508.1709 L77.502,509.1709 L78.502,509.1709 L78.502,508.1709 L79.252,508.1709 C79.938,508.1709 80.502,507.6069 80.502,506.9209 L80.502,506.4209 C80.502,505.7429 80.065,505.1789 79.408,505.0149 L76.845,504.3589 C76.702,504.3229 76.501,504.0629 76.501,503.9209 L76.501,503.4209 C76.501,503.2869 76.617,503.1709 76.751,503.1709 L79.251,503.1709 C79.367,503.1709 79.463,503.2079 79.501,503.2339 L79.501,504.1719 L80.501,504.1719 L80.501,503.1719 C80.501,502.8299 80.298,502.5449 80.063,502.3909 C79.829,502.2359 79.545,502.1719 79.25,502.1719 L78.5,502.1719 L78.5,501.1719 L77.5,501.1719 " fill="#696969" style="stroke: ; stroke-width: 0.0; stroke-dasharray: ;"/><text fill="#696969" font-family="sans-serif" font-size="12" lengthAdjust="spacingAndGlyphs" textLength="76" x="86.5" y="509.5352">property taxes</text><path d="M206.5,546.543 L206.5,555.7188 L186.5,559.7188 L206.5,563.7188 L206.5,572.8945 A0,0 0 0 0 206.5,572.8945 L265.5,572.8945 A0,0 0 0 0 265.5,572.8945 L265.5,556.543 L255.5,546.543 L206.5,546.543 A0,0 0 0 0 206.5,546.543 " fill="#B0C4DE" filter="url(#f7h2wsrg9h96y)" style="stroke: #6495ED; stroke-width: 1.0;"/><path d="M255.5,546.543 L255.5,556.543 L265.5,556.543 L255.5,546.543 " fill="#B0C4DE" style="stroke: #6495ED; stroke-width: 1.0;"/><text fill="#FFFFFF" font-family="sans-serif" font-size="13" lengthAdjust="spacingAndGlyphs" textLength="38" x="212.5" y="565.0381">annual</text><rect fill="#CCFFCC" filter="url(#f7h2wsrg9h96y)" height="35.0938" style="stroke: #6495ED; stroke-width: 1.0;" width="137" x="49.5" y="542.1719"/><path d="M63.5,556.2656 L63.5,557.2656 L62.75,557.2656 C62.064,557.2656 61.5,557.8296 61.5,558.5156 L61.5,559.0156 C61.5,559.6936 61.937,560.2576 62.594,560.4216 L65.157,561.0776 C65.3,561.1136 65.501,561.3736 65.501,561.5156 L65.501,562.0156 C65.501,562.1496 65.385,562.2656 65.251,562.2656 L62.751,562.2656 C62.635,562.2656 62.539,562.2286 62.501,562.2026 L62.501,561.2646 L61.501,561.2646 L61.501,562.2646 C61.501,562.6066 61.704,562.8916 61.939,563.0456 C62.173,563.2006 62.457,563.2646 62.752,563.2646 L63.502,563.2646 L63.502,564.2646 L64.502,564.2646 L64.502,563.2646 L65.252,563.2646 C65.938,563.2646 66.502,562.7006 66.502,562.0146 L66.502,561.5146 C66.502,560.8366 66.065,560.2726 65.408,560.1086 L62.845,559.4526 C62.702,559.4166 62.501,559.1566 62.501,559.0146 L62.501,558.5146 C62.501,558.3806 62.617,558.2646 62.751,558.2646 L65.251,558.2646 C65.367,558.2646 65.463,558.3016 65.501,558.3276 L65.501,559.2656 L66.501,559.2656 L66.501,558.2656 C66.501,557.9236 66.298,557.6386 66.063,557.4846 C65.829,557.3296 65.545,557.2656 65.25,557.2656 L64.5,557.2656 L64.5,556.2656 L63.5,556.2656 " fill="#696969" style="stroke: ; stroke-width: 0.0; stroke-dasharray: ;"/><text fill="#696969" font-family="sans-serif" font-size="12" lengthAdjust="spacingAndGlyphs" textLength="104" x="72.5" y="564.6289">insurance 500-700</text><path d="M165,601.6367 L165,610.8125 L145,614.8125 L165,618.8125 L165,627.9883 A0,0 0 0 0 165,627.9883 L268,627.9883 A0,0 0 0 0 268,627.9883 L268,611.6367 L258,601.6367 L165,601.6367 A0,0 0 0 0 165,601.6367 " fill="#B0C4DE" filter="url(#f7h2wsrg9h96y)" style="stroke: #6495ED; stroke-width: 1.0;"/><path d="M258,601.6367 L258,611.6367 L268,611.6367 L258,601.6367 " fill="#B0C4DE" style="stroke: #6495ED; stroke-width: 1.0;"/><text fill="#FFFFFF" font-family="sans-serif" font-size="13" lengthAdjust="spacingAndGlyphs" textLength="82" x="171" y="620.1318">can use zillow</text><rect fill="#CCFFCC" filter="url(#f7h2wsrg9h96y)" height="35.0938" style="stroke: #6495ED; stroke-width: 1.0;" width="54" x="91" y="597.2656"/><path d="M105,611.3594 L105,612.3594 L104.25,612.3594 C103.564,612.3594 103,612.9234 103,613.6094 L103,614.1094 C103,614.7874 103.437,615.3514 104.094,615.5154 L106.657,616.1714 C106.8,616.2074 107.001,616.4674 107.001,616.6094 L107.001,617.1094 C107.001,617.2434 106.885,617.3594 106.751,617.3594 L104.251,617.3594 C104.135,617.3594 104.039,617.3224 104.001,617.2964 L104.001,616.3584 L103.001,616.3584 L103.001,617.3584 C103.001,617.7004 103.204,617.9854 103.439,618.1394 C103.673,618.2944 103.957,618.3584 104.252,618.3584 L105.002,618.3584 L105.002,619.3584 L106.002,619.3584 L106.002,618.3584 L106.752,618.3584 C107.438,618.3584 108.002,617.7944 108.002,617.1084 L108.002,616.6084 C108.002,615.9304 107.565,615.3664 106.908,615.2024 L104.345,614.5464 C104.202,614.5104 104.001,614.2504 104.001,614.1084 L104.001,613.6084 C104.001,613.4744 104.117,613.3584 104.251,613.3584 L106.751,613.3584 C106.867,613.3584 106.963,613.3954 107.001,613.4214 L107.001,614.3594 L108.001,614.3594 L108.001,613.3594 C108.001,613.0174 107.798,612.7324 107.563,612.5784 C107.329,612.4234 107.045,612.3594 106.75,612.3594 L106,612.3594 L106,611.3594 L105,611.3594 " fill="#696969" style="stroke: ; stroke-width: 0.0; stroke-dasharray: ;"/><text fill="#696969" font-family="sans-serif" font-size="12" lengthAdjust="spacingAndGlyphs" textLength="21" x="114" y="619.7227">rent</text><path d="M174.5,648.5547 L174.5,665.9063 L154.5,669.9063 L174.5,673.9063 L174.5,691.2578 A0,0 0 0 0 174.5,691.2578 L326.5,691.2578 A0,0 0 0 0 326.5,691.2578 L326.5,658.5547 L316.5,648.5547 L174.5,648.5547 A0,0 0 0 0 174.5,648.5547 " fill="#B0C4DE" filter="url(#f7h2wsrg9h96y)" style="stroke: #6495ED; stroke-width: 1.0;"/><path d="M316.5,648.5547 L316.5,658.5547 L326.5,658.5547 L316.5,648.5547 " fill="#B0C4DE" style="stroke: #6495ED; stroke-width: 1.0;"/><text fill="#FFFFFF" font-family="sans-serif" font-size="13" lengthAdjust="spacingAndGlyphs" textLength="79" x="180.5" y="667.0498">quarterly cost</text><text fill="#FFFFFF" font-family="sans-serif" font-size="13" lengthAdjust="spacingAndGlyphs" textLength="131" x="180.5" y="683.4014">(taxes + insurance) / 4</text><rect fill="#CCFFCC" filter="url(#f7h2wsrg9h96y)" height="35.0938" style="stroke: #6495ED; stroke-width: 1.0;" width="73" x="81.5" y="652.3594"/><path d="M92.594,666.4531 C92.534,666.4531 92.5,666.4871 92.5,666.5471 L92.5,674.3601 C92.5,674.4201 92.534,674.4541 92.594,674.4541 L99.407,674.4541 C99.467,674.4541 99.501,674.4201 99.501,674.3601 L99.501,666.5471 C99.501,666.4871 99.467,666.4531 99.407,666.4531 L92.594,666.4531 M93.5,667.4531 L98.5,667.4531 L98.5,669.4531 L93.5,669.4531 L93.5,667.4531 M93.5,670.4531 L94.5,670.4531 L94.5,671.4531 L93.5,671.4531 L93.5,670.4531 M95.5,670.4531 L96.5,670.4531 L96.5,671.4531 L95.5,671.4531 L95.5,670.4531 M97.5,670.4531 L98.5,670.4531 L98.5,673.4531 L97.5,673.4531 L97.5,670.4531 M93.5,672.4531 L94.5,672.4531 L94.5,673.4531 L93.5,673.4531 L93.5,672.4531 M95.5,672.4531 L96.5,672.4531 L96.5,673.4531 L95.5,673.4531 L95.5,672.4531 " fill="#696969" style="stroke: ; stroke-width: 0.0; stroke-dasharray: ;"/><text fill="#696969" font-family="sans-serif" font-size="12" lengthAdjust="spacingAndGlyphs" textLength="40" x="104.5" y="674.8164">escrow</text><path d="M223,715.6289 L223,724.8047 L203,728.8047 L223,732.8047 L223,741.9805 A0,0 0 0 0 223,741.9805 L301,741.9805 A0,0 0 0 0 301,741.9805 L301,725.6289 L291,715.6289 L223,715.6289 A0,0 0 0 0 223,715.6289 " fill="#B0C4DE" filter="url(#f7h2wsrg9h96y)" style="stroke: #6495ED; stroke-width: 1.0;"/><path d="M291,715.6289 L291,725.6289 L301,725.6289 L291,715.6289 " fill="#B0C4DE" style="stroke: #6495ED; stroke-width: 1.0;"/><text fill="#FFFFFF" font-family="sans-serif" font-size="13" lengthAdjust="spacingAndGlyphs" textLength="57" x="229" y="734.124">70% ARV</text><rect fill="#CCFFCC" filter="url(#f7h2wsrg9h96y)" height="35.0938" style="stroke: #6495ED; stroke-width: 1.0;" width="170" x="33" y="711.2578"/><path d="M47,725.3516 L47,726.3516 L46.25,726.3516 C45.564,726.3516 45,726.9156 45,727.6016 L45,728.1016 C45,728.7796 45.437,729.3436 46.094,729.5076 L48.657,730.1636 C48.8,730.1996 49.001,730.4596 49.001,730.6016 L49.001,731.1016 C49.001,731.2356 48.885,731.3516 48.751,731.3516 L46.251,731.3516 C46.135,731.3516 46.039,731.3146 46.001,731.2886 L46.001,730.3506 L45.001,730.3506 L45.001,731.3506 C45.001,731.6926 45.204,731.9776 45.439,732.1316 C45.673,732.2866 45.957,732.3506 46.252,732.3506 L47.002,732.3506 L47.002,733.3506 L48.002,733.3506 L48.002,732.3506 L48.752,732.3506 C49.438,732.3506 50.002,731.7866 50.002,731.1006 L50.002,730.6006 C50.002,729.9226 49.565,729.3586 48.908,729.1946 L46.345,728.5386 C46.202,728.5026 46.001,728.2426 46.001,728.1006 L46.001,727.6006 C46.001,727.4666 46.117,727.3506 46.251,727.3506 L48.751,727.3506 C48.867,727.3506 48.963,727.3876 49.001,727.4136 L49.001,728.3516 L50.001,728.3516 L50.001,727.3516 C50.001,727.0096 49.798,726.7246 49.563,726.5706 C49.329,726.4156 49.045,726.3516 48.75,726.3516 L48,726.3516 L48,725.3516 L47,725.3516 " fill="#696969" style="stroke: ; stroke-width: 0.0; stroke-dasharray: ;"/><text fill="#696969" font-family="sans-serif" font-size="12" lengthAdjust="spacingAndGlyphs" textLength="137" x="56" y="733.7148">hard money loan amount</text><path d="M225,756.3516 L225,781.8789 L205,785.8789 L225,789.8789 L225,815.4063 A0,0 0 0 0 225,815.4063 L424,815.4063 A0,0 0 0 0 424,815.4063 L424,766.3516 L414,756.3516 L225,756.3516 A0,0 0 0 0 225,756.3516 " fill="#B0C4DE" filter="url(#f7h2wsrg9h96y)" style="stroke: #6495ED; stroke-width: 1.0;"/><path d="M414,756.3516 L414,766.3516 L424,766.3516 L414,756.3516 " fill="#B0C4DE" style="stroke: #6495ED; stroke-width: 1.0;"/><ellipse cx="236.5" cy="770.2031" fill="#FFFFFF" rx="2.5" ry="2.5" style="stroke: #FFFFFF; stroke-width: 0.0;"/><text fill="#FFFFFF" font-family="sans-serif" font-size="13" lengthAdjust="spacingAndGlyphs" textLength="57" x="244" y="774.8467">75% ARV</text><ellipse cx="236.5" cy="786.5547" fill="#FFFFFF" rx="2.5" ry="2.5" style="stroke: #FFFFFF; stroke-width: 0.0;"/><text fill="#FFFFFF" font-family="sans-serif" font-size="13" lengthAdjust="spacingAndGlyphs" textLength="119" x="244" y="791.1982">income to debt ratio:</text><text fill="#FFFFFF" font-family="sans-serif" font-size="13" lengthAdjust="spacingAndGlyphs" textLength="166" x="243" y="807.5498">75% of rent - PITI = cashflow</text><rect fill="#CCFFCC" filter="url(#f7h2wsrg9h96y)" height="35.0938" style="stroke: #6495ED; stroke-width: 1.0;" width="174" x="31" y="768.332"/><path d="M45,782.4258 L45,783.4258 L44.25,783.4258 C43.564,783.4258 43,783.9898 43,784.6758 L43,785.1758 C43,785.8538 43.437,786.4178 44.094,786.5818 L46.657,787.2378 C46.8,787.2738 47.001,787.5338 47.001,787.6758 L47.001,788.1758 C47.001,788.3098 46.885,788.4258 46.751,788.4258 L44.251,788.4258 C44.135,788.4258 44.039,788.3888 44.001,788.3628 L44.001,787.4248 L43.001,787.4248 L43.001,788.4248 C43.001,788.7668 43.204,789.0518 43.439,789.2058 C43.673,789.3608 43.957,789.4248 44.252,789.4248 L45.002,789.4248 L45.002,790.4248 L46.002,790.4248 L46.002,789.4248 L46.752,789.4248 C47.438,789.4248 48.002,788.8608 48.002,788.1748 L48.002,787.6748 C48.002,786.9968 47.565,786.4328 46.908,786.2688 L44.345,785.6128 C44.202,785.5768 44.001,785.3168 44.001,785.1748 L44.001,784.6748 C44.001,784.5408 44.117,784.4248 44.251,784.4248 L46.751,784.4248 C46.867,784.4248 46.963,784.4618 47.001,784.4878 L47.001,785.4258 L48.001,785.4258 L48.001,784.4258 C48.001,784.0838 47.798,783.7988 47.563,783.6448 C47.329,783.4898 47.045,783.4258 46.75,783.4258 L46,783.4258 L46,782.4258 L45,782.4258 " fill="#696969" style="stroke: ; stroke-width: 0.0; stroke-dasharray: ;"/><text fill="#696969" font-family="sans-serif" font-size="12" lengthAdjust="spacingAndGlyphs" textLength="141" x="54" y="790.7891">conventional loan amount</text><path d="M225,839.7773 L225,848.9531 L205,852.9531 L225,856.9531 L225,866.1289 A0,0 0 0 0 225,866.1289 L366,866.1289 A0,0 0 0 0 366,866.1289 L366,849.7773 L356,839.7773 L225,839.7773 A0,0 0 0 0 225,839.7773 " fill="#B0C4DE" filter="url(#f7h2wsrg9h96y)" style="stroke: #6495ED; stroke-width: 1.0;"/><path d="M356,839.7773 L356,849.7773 L366,849.7773 L356,839.7773 " fill="#B0C4DE" style="stroke: #6495ED; stroke-width: 1.0;"/><text fill="#FFFFFF" font-family="sans-serif" font-size="13" lengthAdjust="spacingAndGlyphs" textLength="120" x="231" y="858.2725">~ 7% of loan amount</text><rect fill="#CCFFCC" filter="url(#f7h2wsrg9h96y)" height="35.0938" style="stroke: #6495ED; stroke-width: 1.0;" width="174" x="31" y="835.4063"/><path d="M45,849.5 L45,850.5 L44.25,850.5 C43.564,850.5 43,851.064 43,851.75 L43,852.25 C43,852.928 43.437,853.492 44.094,853.656 L46.657,854.312 C46.8,854.348 47.001,854.608 47.001,854.75 L47.001,855.25 C47.001,855.384 46.885,855.5 46.751,855.5 L44.251,855.5 C44.135,855.5 44.039,855.463 44.001,855.437 L44.001,854.499 L43.001,854.499 L43.001,855.499 C43.001,855.841 43.204,856.126 43.439,856.28 C43.673,856.435 43.957,856.499 44.252,856.499 L45.002,856.499 L45.002,857.499 L46.002,857.499 L46.002,856.499 L46.752,856.499 C47.438,856.499 48.002,855.935 48.002,855.249 L48.002,854.749 C48.002,854.071 47.565,853.507 46.908,853.343 L44.345,852.687 C44.202,852.651 44.001,852.391 44.001,852.249 L44.001,851.749 C44.001,851.615 44.117,851.499 44.251,851.499 L46.751,851.499 C46.867,851.499 46.963,851.536 47.001,851.562 L47.001,852.5 L48.001,852.5 L48.001,851.5 C48.001,851.158 47.798,850.873 47.563,850.719 C47.329,850.564 47.045,850.5 46.75,850.5 L46,850.5 L46,849.5 L45,849.5 " fill="#696969" style="stroke: ; stroke-width: 0.0; stroke-dasharray: ;"/><text fill="#696969" font-family="sans-serif" font-size="12" lengthAdjust="spacingAndGlyphs" textLength="141" x="54" y="857.8633">hard money closing costs</text><path d="M227,894.8711 L227,904.0469 L207,908.0469 L227,912.0469 L227,921.2227 A0,0 0 0 0 227,921.2227 L368,921.2227 A0,0 0 0 0 368,921.2227 L368,904.8711 L358,894.8711 L227,894.8711 A0,0 0 0 0 227,894.8711 " fill="#B0C4DE" filter="url(#f7h2wsrg9h96y)" style="stroke: #6495ED; stroke-width: 1.0;"/><path d="M358,894.8711 L358,904.8711 L368,904.8711 L358,894.8711 " fill="#B0C4DE" style="stroke: #6495ED; stroke-width: 1.0;"/><text fill="#FFFFFF" font-family="sans-serif" font-size="13" lengthAdjust="spacingAndGlyphs" textLength="120" x="233" y="913.3662">~ 5% of loan amount</text><rect fill="#CCFFCC" filter="url(#f7h2wsrg9h96y)" height="35.0938" style="stroke: #6495ED; stroke-width: 1.0;" width="178" x="29" y="890.5"/><path d="M43,904.5938 L43,905.5938 L42.25,905.5938 C41.564,905.5938 41,906.1578 41,906.8438 L41,907.3438 C41,908.0218 41.437,908.5858 42.094,908.7498 L44.657,909.4058 C44.8,909.4418 45.001,909.7018 45.001,909.8438 L45.001,910.3438 C45.001,910.4778 44.885,910.5938 44.751,910.5938 L42.251,910.5938 C42.135,910.5938 42.039,910.5568 42.001,910.5308 L42.001,909.5928 L41.001,909.5928 L41.001,910.5928 C41.001,910.9348 41.204,911.2198 41.439,911.3738 C41.673,911.5288 41.957,911.5928 42.252,911.5928 L43.002,911.5928 L43.002,912.5928 L44.002,912.5928 L44.002,911.5928 L44.752,911.5928 C45.438,911.5928 46.002,911.0288 46.002,910.3428 L46.002,909.8428 C46.002,909.1648 45.565,908.6008 44.908,908.4368 L42.345,907.7808 C42.202,907.7448 42.001,907.4848 42.001,907.3428 L42.001,906.8428 C42.001,906.7088 42.117,906.5928 42.251,906.5928 L44.751,906.5928 C44.867,906.5928 44.963,906.6298 45.001,906.6558 L45.001,907.5938 L46.001,907.5938 L46.001,906.5938 C46.001,906.2518 45.798,905.9668 45.563,905.8128 C45.329,905.6578 45.045,905.5938 44.75,905.5938 L44,905.5938 L44,904.5938 L43,904.5938 " fill="#696969" style="stroke: ; stroke-width: 0.0; stroke-dasharray: ;"/><text fill="#696969" font-family="sans-serif" font-size="12" lengthAdjust="spacingAndGlyphs" textLength="145" x="52" y="912.957">conventional closing costs</text><rect fill="#FFFFF0" filter="url(#f7h2wsrg9h96y)" height="1429.293" style="stroke: #6495ED; stroke-width: 1.0;" width="519" x="37" y="948.6094"/><path d="M199,949.6094 L199,961.7344 L189,971.7344 L37,971.7344 " fill="none" style="stroke: #6495ED; stroke-width: 1.0;"/><text fill="#6495ED" font-family="sans-serif" font-size="16" lengthAdjust="spacingAndGlyphs" textLength="152" x="40" y="966.2188">Calculate Rehab Cost</text><path d="M355,1683.4844 L355,1709.8359 L544,1709.8359 L544,1693.4844 L534,1683.4844 L355,1683.4844 " fill="#B0C4DE" filter="url(#f7h2wsrg9h96y)" style="stroke: #6495ED; stroke-width: 1.0;"/><path d="M534,1683.4844 L534,1693.4844 L544,1693.4844 L534,1683.4844 " fill="#B0C4DE" style="stroke: #6495ED; stroke-width: 1.0;"/><text fill="#FFFFFF" font-family="sans-serif" font-size="13" lengthAdjust="spacingAndGlyphs" textLength="168" x="361" y="1701.9795">rehab all properties the same</text><path d="M165,1042.0234 L165,1051.1992 L145,1055.1992 L165,1059.1992 L165,1068.375 A0,0 0 0 0 165,1068.375 L260,1068.375 A0,0 0 0 0 260,1068.375 L260,1052.0234 L250,1042.0234 L165,1042.0234 A0,0 0 0 0 165,1042.0234 " fill="#B0C4DE" filter="url(#f7h2wsrg9h96y)" style="stroke: #6495ED; stroke-width: 1.0;"/><path d="M250,1042.0234 L250,1052.0234 L260,1052.0234 L250,1042.0234 " fill="#B0C4DE" style="stroke: #6495ED; stroke-width: 1.0;"/><text fill="#FFFFFF" font-family="sans-serif" font-size="13" lengthAdjust="spacingAndGlyphs" textLength="74" x="171" y="1060.5186">butcherblock</text><rect fill="#CCFFCC" filter="url(#f7h2wsrg9h96y)" height="35.0938" style="stroke: #6495ED; stroke-width: 1.0;" width="54" x="91" y="1037.6523"/><path d="M105,1051.7461 L105,1052.7461 L104.25,1052.7461 C103.564,1052.7461 103,1053.3101 103,1053.9961 L103,1054.4961 C103,1055.1741 103.437,1055.7381 104.094,1055.9021 L106.657,1056.5581 C106.8,1056.5941 107.001,1056.8541 107.001,1056.9961 L107.001,1057.4961 C107.001,1057.6301 106.885,1057.7461 106.751,1057.7461 L104.251,1057.7461 C104.135,1057.7461 104.039,1057.7091 104.001,1057.6831 L104.001,1056.7451 L103.001,1056.7451 L103.001,1057.7451 C103.001,1058.0871 103.204,1058.3721 103.439,1058.5261 C103.673,1058.6811 103.957,1058.7451 104.252,1058.7451 L105.002,1058.7451 L105.002,1059.7451 L106.002,1059.7451 L106.002,1058.7451 L106.752,1058.7451 C107.438,1058.7451 108.002,1058.1811 108.002,1057.4951 L108.002,1056.9951 C108.002,1056.3171 107.565,1055.7531 106.908,1055.5891 L104.345,1054.9331 C104.202,1054.8971 104.001,1054.6371 104.001,1054.4951 L104.001,1053.9951 C104.001,1053.8611 104.117,1053.7451 104.251,1053.7451 L106.751,1053.7451 C106.867,1053.7451 106.963,1053.7821 107.001,1053.8081 L107.001,1054.7461 L108.001,1054.7461 L108.001,1053.7461 C108.001,1053.4041 107.798,1053.1191 107.563,1052.9651 C107.329,1052.8101 107.045,1052.7461 106.75,1052.7461 L106,1052.7461 L106,1051.7461 L105,1051.7461 " fill="#696969" style="stroke: ; stroke-width: 0.0; stroke-dasharray: ;"/><text fill="#696969" font-family="sans-serif" font-size="12" lengthAdjust="spacingAndGlyphs" textLength="21" x="114" y="1060.1094">150</text><polygon fill="#FFFFF0" filter="url(#f7h2wsrg9h96y)" points="89,988.7344,147,988.7344,159,1000.7344,147,1012.7344,89,1012.7344,77,1000.7344,89,988.7344" style="stroke: #6495ED; stroke-width: 1.0;"/><text fill="#696969" font-family="sans-serif" font-size="11" lengthAdjust="spacingAndGlyphs" textLength="18" x="122" y="1024.1533">yes</text><text fill="#A9A9A9" font-family="sans-serif" font-size="11" lengthAdjust="spacingAndGlyphs" textLength="58" x="89" y="1005.2354">countertops</text><text fill="#696969" font-family="sans-serif" font-size="11" lengthAdjust="spacingAndGlyphs" textLength="12" x="159" y="998.3174">no</text><polygon fill="#FFFFF0" filter="url(#f7h2wsrg9h96y)" points="118,1092.7461,130,1104.7461,118,1116.7461,106,1104.7461,118,1092.7461" style="stroke: #6495ED; stroke-width: 1.0;"/><path d="M182.5,1190.0352 L182.5,1199.2109 L162.5,1203.2109 L182.5,1207.2109 L182.5,1216.3867 A0,0 0 0 0 182.5,1216.3867 L232.5,1216.3867 A0,0 0 0 0 232.5,1216.3867 L232.5,1200.0352 L222.5,1190.0352 L182.5,1190.0352 A0,0 0 0 0 182.5,1190.0352 " fill="#B0C4DE" filter="url(#f7h2wsrg9h96y)" style="stroke: #6495ED; stroke-width: 1.0;"/><path d="M222.5,1190.0352 L222.5,1200.0352 L232.5,1200.0352 L222.5,1190.0352 " fill="#B0C4DE" style="stroke: #6495ED; stroke-width: 1.0;"/><text fill="#FFFFFF" font-family="sans-serif" font-size="13" lengthAdjust="spacingAndGlyphs" textLength="29" x="188.5" y="1208.5303">avoid</text><rect fill="#CCFFCC" filter="url(#f7h2wsrg9h96y)" height="35.0938" style="stroke: #6495ED; stroke-width: 1.0;" width="89" x="73.5" y="1185.6641"/><path d="M87.5,1199.7578 L87.5,1200.7578 L86.75,1200.7578 C86.064,1200.7578 85.5,1201.3218 85.5,1202.0078 L85.5,1202.5078 C85.5,1203.1858 85.937,1203.7498 86.594,1203.9138 L89.157,1204.5698 C89.3,1204.6058 89.501,1204.8658 89.501,1205.0078 L89.501,1205.5078 C89.501,1205.6418 89.385,1205.7578 89.251,1205.7578 L86.751,1205.7578 C86.635,1205.7578 86.539,1205.7208 86.501,1205.6948 L86.501,1204.7568 L85.501,1204.7568 L85.501,1205.7568 C85.501,1206.0988 85.704,1206.3838 85.939,1206.5378 C86.173,1206.6928 86.457,1206.7568 86.752,1206.7568 L87.502,1206.7568 L87.502,1207.7568 L88.502,1207.7568 L88.502,1206.7568 L89.252,1206.7568 C89.938,1206.7568 90.502,1206.1928 90.502,1205.5068 L90.502,1205.0068 C90.502,1204.3288 90.065,1203.7648 89.408,1203.6008 L86.845,1202.9448 C86.702,1202.9088 86.501,1202.6488 86.501,1202.5068 L86.501,1202.0068 C86.501,1201.8728 86.617,1201.7568 86.751,1201.7568 L89.251,1201.7568 C89.367,1201.7568 89.463,1201.7938 89.501,1201.8198 L89.501,1202.7578 L90.501,1202.7578 L90.501,1201.7578 C90.501,1201.4158 90.298,1201.1308 90.063,1200.9768 C89.829,1200.8218 89.545,1200.7578 89.25,1200.7578 L88.5,1200.7578 L88.5,1199.7578 L87.5,1199.7578 " fill="#696969" style="stroke: ; stroke-width: 0.0; stroke-dasharray: ;"/><text fill="#696969" font-family="sans-serif" font-size="12" lengthAdjust="spacingAndGlyphs" textLength="56" x="96.5" y="1208.1211">1.25 / sq ft</text><polygon fill="#FFFFF0" filter="url(#f7h2wsrg9h96y)" points="102.5,1136.7461,133.5,1136.7461,145.5,1148.7461,133.5,1160.7461,102.5,1160.7461,90.5,1148.7461,102.5,1136.7461" style="stroke: #6495ED; stroke-width: 1.0;"/><text fill="#696969" font-family="sans-serif" font-size="11" lengthAdjust="spacingAndGlyphs" textLength="18" x="122" y="1172.165">yes</text><text fill="#A9A9A9" font-family="sans-serif" font-size="11" lengthAdjust="spacingAndGlyphs" textLength="31" x="102.5" y="1153.2471">carpet</text><text fill="#696969" font-family="sans-serif" font-size="11" lengthAdjust="spacingAndGlyphs" textLength="12" x="145.5" y="1146.3291">no</text><polygon fill="#FFFFF0" filter="url(#f7h2wsrg9h96y)" points="118,1240.7578,130,1252.7578,118,1264.7578,106,1252.7578,118,1240.7578" style="stroke: #6495ED; stroke-width: 1.0;"/><rect fill="#CCFFCC" filter="url(#f7h2wsrg9h96y)" height="35.0938" style="stroke: #6495ED; stroke-width: 1.0;" width="89" x="73.5" y="1333.6758"/><path d="M87.5,1347.7695 L87.5,1348.7695 L86.75,1348.7695 C86.064,1348.7695 85.5,1349.3335 85.5,1350.0195 L85.5,1350.5195 C85.5,1351.1975 85.937,1351.7615 86.594,1351.9255 L89.157,1352.5815 C89.3,1352.6175 89.501,1352.8775 89.501,1353.0195 L89.501,1353.5195 C89.501,1353.6535 89.385,1353.7695 89.251,1353.7695 L86.751,1353.7695 C86.635,1353.7695 86.539,1353.7325 86.501,1353.7065 L86.501,1352.7685 L85.501,1352.7685 L85.501,1353.7685 C85.501,1354.1105 85.704,1354.3955 85.939,1354.5495 C86.173,1354.7045 86.457,1354.7685 86.752,1354.7685 L87.502,1354.7685 L87.502,1355.7685 L88.502,1355.7685 L88.502,1354.7685 L89.252,1354.7685 C89.938,1354.7685 90.502,1354.2045 90.502,1353.5185 L90.502,1353.0185 C90.502,1352.3405 90.065,1351.7765 89.408,1351.6125 L86.845,1350.9565 C86.702,1350.9205 86.501,1350.6605 86.501,1350.5185 L86.501,1350.0185 C86.501,1349.8845 86.617,1349.7685 86.751,1349.7685 L89.251,1349.7685 C89.367,1349.7685 89.463,1349.8055 89.501,1349.8315 L89.501,1350.7695 L90.501,1350.7695 L90.501,1349.7695 C90.501,1349.4275 90.298,1349.1425 90.063,1348.9885 C89.829,1348.8335 89.545,1348.7695 89.25,1348.7695 L88.5,1348.7695 L88.5,1347.7695 L87.5,1347.7695 " fill="#696969" style="stroke: ; stroke-width: 0.0; stroke-dasharray: ;"/><text fill="#696969" font-family="sans-serif" font-size="12" lengthAdjust="spacingAndGlyphs" textLength="56" x="96.5" y="1356.1328">1.69 / sq ft</text><polygon fill="#FFFFF0" filter="url(#f7h2wsrg9h96y)" points="100,1284.7578,136,1284.7578,148,1296.7578,136,1308.7578,100,1308.7578,88,1296.7578,100,1284.7578" style="stroke: #6495ED; stroke-width: 1.0;"/><text fill="#696969" font-family="sans-serif" font-size="11" lengthAdjust="spacingAndGlyphs" textLength="18" x="122" y="1320.1768">yes</text><text fill="#A9A9A9" font-family="sans-serif" font-size="11" lengthAdjust="spacingAndGlyphs" textLength="36" x="100" y="1301.2588">flooring</text><text fill="#696969" font-family="sans-serif" font-size="11" lengthAdjust="spacingAndGlyphs" textLength="12" x="148" y="1294.3408">no</text><polygon fill="#FFFFF0" filter="url(#f7h2wsrg9h96y)" points="118,1388.7695,130,1400.7695,118,1412.7695,106,1400.7695,118,1388.7695" style="stroke: #6495ED; stroke-width: 1.0;"/><path d="M182.5,1486.0586 L182.5,1495.2344 L162.5,1499.2344 L182.5,1503.2344 L182.5,1512.4102 A0,0 0 0 0 182.5,1512.4102 L220.5,1512.4102 A0,0 0 0 0 220.5,1512.4102 L220.5,1496.0586 L210.5,1486.0586 L182.5,1486.0586 A0,0 0 0 0 182.5,1486.0586 " fill="#B0C4DE" filter="url(#f7h2wsrg9h96y)" style="stroke: #6495ED; stroke-width: 1.0;"/><path d="M210.5,1486.0586 L210.5,1496.0586 L220.5,1496.0586 L210.5,1486.0586 " fill="#B0C4DE" style="stroke: #6495ED; stroke-width: 1.0;"/><text fill="#FFFFFF" font-family="sans-serif" font-size="13" lengthAdjust="spacingAndGlyphs" textLength="17" x="188.5" y="1504.5537">tile</text><rect fill="#CCFFCC" filter="url(#f7h2wsrg9h96y)" height="35.0938" style="stroke: #6495ED; stroke-width: 1.0;" width="89" x="73.5" y="1481.6875"/><path d="M87.5,1495.7813 L87.5,1496.7813 L86.75,1496.7813 C86.064,1496.7813 85.5,1497.3453 85.5,1498.0313 L85.5,1498.5313 C85.5,1499.2093 85.937,1499.7733 86.594,1499.9373 L89.157,1500.5933 C89.3,1500.6293 89.501,1500.8893 89.501,1501.0313 L89.501,1501.5313 C89.501,1501.6653 89.385,1501.7813 89.251,1501.7813 L86.751,1501.7813 C86.635,1501.7813 86.539,1501.7443 86.501,1501.7183 L86.501,1500.7803 L85.501,1500.7803 L85.501,1501.7803 C85.501,1502.1223 85.704,1502.4073 85.939,1502.5613 C86.173,1502.7163 86.457,1502.7803 86.752,1502.7803 L87.502,1502.7803 L87.502,1503.7803 L88.502,1503.7803 L88.502,1502.7803 L89.252,1502.7803 C89.938,1502.7803 90.502,1502.2163 90.502,1501.5303 L90.502,1501.0303 C90.502,1500.3523 90.065,1499.7883 89.408,1499.6243 L86.845,1498.9683 C86.702,1498.9323 86.501,1498.6723 86.501,1498.5303 L86.501,1498.0303 C86.501,1497.8963 86.617,1497.7803 86.751,1497.7803 L89.251,1497.7803 C89.367,1497.7803 89.463,1497.8173 89.501,1497.8433 L89.501,1498.7813 L90.501,1498.7813 L90.501,1497.7813 C90.501,1497.4393 90.298,1497.1543 90.063,1497.0003 C89.829,1496.8453 89.545,1496.7813 89.25,1496.7813 L88.5,1496.7813 L88.5,1495.7813 L87.5,1495.7813 " fill="#696969" style="stroke: ; stroke-width: 0.0; stroke-dasharray: ;"/><text fill="#696969" font-family="sans-serif" font-size="12" lengthAdjust="spacingAndGlyphs" textLength="56" x="96.5" y="1504.1445">3.50 / sq ft</text><polygon fill="#FFFFF0" filter="url(#f7h2wsrg9h96y)" points="66.5,1432.7695,169.5,1432.7695,181.5,1444.7695,169.5,1456.7695,66.5,1456.7695,54.5,1444.7695,66.5,1432.7695" style="stroke: #6495ED; stroke-width: 1.0;"/><text fill="#696969" font-family="sans-serif" font-size="11" lengthAdjust="spacingAndGlyphs" textLength="18" x="122" y="1468.1885">yes</text><text fill="#A9A9A9" font-family="sans-serif" font-size="11" lengthAdjust="spacingAndGlyphs" textLength="103" x="66.5" y="1449.2705">bath / kitchen flooring</text><text fill="#696969" font-family="sans-serif" font-size="11" lengthAdjust="spacingAndGlyphs" textLength="12" x="181.5" y="1442.3525">no</text><polygon fill="#FFFFF0" filter="url(#f7h2wsrg9h96y)" points="118,1536.7813,130,1548.7813,118,1560.7813,106,1548.7813,118,1536.7813" style="stroke: #6495ED; stroke-width: 1.0;"/><rect fill="#CCFFCC" filter="url(#f7h2wsrg9h96y)" height="35.0938" style="stroke: #6495ED; stroke-width: 1.0;" width="85" x="75.5" y="1629.6992"/><path d="M89.5,1643.793 L89.5,1644.793 L88.75,1644.793 C88.064,1644.793 87.5,1645.357 87.5,1646.043 L87.5,1646.543 C87.5,1647.221 87.937,1647.785 88.594,1647.949 L91.157,1648.605 C91.3,1648.641 91.501,1648.901 91.501,1649.043 L91.501,1649.543 C91.501,1649.677 91.385,1649.793 91.251,1649.793 L88.751,1649.793 C88.635,1649.793 88.539,1649.756 88.501,1649.73 L88.501,1648.792 L87.501,1648.792 L87.501,1649.792 C87.501,1650.134 87.704,1650.419 87.939,1650.573 C88.173,1650.728 88.457,1650.792 88.752,1650.792 L89.502,1650.792 L89.502,1651.792 L90.502,1651.792 L90.502,1650.792 L91.252,1650.792 C91.938,1650.792 92.502,1650.228 92.502,1649.542 L92.502,1649.042 C92.502,1648.364 92.065,1647.8 91.408,1647.636 L88.845,1646.98 C88.702,1646.944 88.501,1646.684 88.501,1646.542 L88.501,1646.042 C88.501,1645.908 88.617,1645.792 88.751,1645.792 L91.251,1645.792 C91.367,1645.792 91.463,1645.829 91.501,1645.855 L91.501,1646.793 L92.501,1646.793 L92.501,1645.793 C92.501,1645.451 92.298,1645.166 92.063,1645.012 C91.829,1644.857 91.545,1644.793 91.25,1644.793 L90.5,1644.793 L90.5,1643.793 L89.5,1643.793 " fill="#696969" style="stroke: ; stroke-width: 0.0; stroke-dasharray: ;"/><text fill="#696969" font-family="sans-serif" font-size="12" lengthAdjust="spacingAndGlyphs" textLength="52" x="98.5" y="1652.1563">resurface</text><polygon fill="#FFFFF0" filter="url(#f7h2wsrg9h96y)" points="63.5,1580.7813,172.5,1580.7813,184.5,1592.7813,172.5,1604.7813,63.5,1604.7813,51.5,1592.7813,63.5,1580.7813" style="stroke: #6495ED; stroke-width: 1.0;"/><text fill="#696969" font-family="sans-serif" font-size="11" lengthAdjust="spacingAndGlyphs" textLength="18" x="122" y="1616.2002">yes</text><text fill="#A9A9A9" font-family="sans-serif" font-size="11" lengthAdjust="spacingAndGlyphs" textLength="109" x="63.5" y="1597.2822">old hard wood flooring</text><text fill="#696969" font-family="sans-serif" font-size="11" lengthAdjust="spacingAndGlyphs" textLength="12" x="184.5" y="1590.3643">no</text><polygon fill="#FFFFF0" filter="url(#f7h2wsrg9h96y)" points="118,1684.793,130,1696.793,118,1708.793,106,1696.793,118,1684.793" style="stroke: #6495ED; stroke-width: 1.0;"/><path d="M182.5,1783.125 L182.5,1792.3008 L162.5,1796.3008 L182.5,1800.3008 L182.5,1809.4766 A0,0 0 0 0 182.5,1809.4766 L244.5,1809.4766 A0,0 0 0 0 244.5,1809.4766 L244.5,1793.125 L234.5,1783.125 L182.5,1783.125 A0,0 0 0 0 182.5,1783.125 " fill="#B0C4DE" filter="url(#f7h2wsrg9h96y)" style="stroke: #6495ED; stroke-width: 1.0;"/><path d="M234.5,1783.125 L234.5,1793.125 L244.5,1793.125 L234.5,1783.125 " fill="#B0C4DE" style="stroke: #6495ED; stroke-width: 1.0;"/><ellipse cx="194" cy="1796.9766" fill="#FFFFFF" rx="2.5" ry="2.5" style="stroke: #FFFFFF; stroke-width: 0.0;"/><text fill="#FFFFFF" font-family="sans-serif" font-size="13" lengthAdjust="spacingAndGlyphs" textLength="28" x="201.5" y="1801.6201">PPG</text><rect fill="#CCFFCC" filter="url(#f7h2wsrg9h96y)" height="35.0938" style="stroke: #6495ED; stroke-width: 1.0;" width="89" x="73.5" y="1778.7539"/><path d="M87.5,1792.8477 L87.5,1793.8477 L86.75,1793.8477 C86.064,1793.8477 85.5,1794.4117 85.5,1795.0977 L85.5,1795.5977 C85.5,1796.2757 85.937,1796.8397 86.594,1797.0037 L89.157,1797.6597 C89.3,1797.6957 89.501,1797.9557 89.501,1798.0977 L89.501,1798.5977 C89.501,1798.7317 89.385,1798.8477 89.251,1798.8477 L86.751,1798.8477 C86.635,1798.8477 86.539,1798.8107 86.501,1798.7847 L86.501,1797.8467 L85.501,1797.8467 L85.501,1798.8467 C85.501,1799.1887 85.704,1799.4737 85.939,1799.6277 C86.173,1799.7827 86.457,1799.8467 86.752,1799.8467 L87.502,1799.8467 L87.502,1800.8467 L88.502,1800.8467 L88.502,1799.8467 L89.252,1799.8467 C89.938,1799.8467 90.502,1799.2827 90.502,1798.5967 L90.502,1798.0967 C90.502,1797.4187 90.065,1796.8547 89.408,1796.6907 L86.845,1796.0347 C86.702,1795.9987 86.501,1795.7387 86.501,1795.5967 L86.501,1795.0967 C86.501,1794.9627 86.617,1794.8467 86.751,1794.8467 L89.251,1794.8467 C89.367,1794.8467 89.463,1794.8837 89.501,1794.9097 L89.501,1795.8477 L90.501,1795.8477 L90.501,1794.8477 C90.501,1794.5057 90.298,1794.2207 90.063,1794.0667 C89.829,1793.9117 89.545,1793.8477 89.25,1793.8477 L88.5,1793.8477 L88.5,1792.8477 L87.5,1792.8477 " fill="#696969" style="stroke: ; stroke-width: 0.0; stroke-dasharray: ;"/><text fill="#696969" font-family="sans-serif" font-size="12" lengthAdjust="spacingAndGlyphs" textLength="56" x="96.5" y="1801.2109">1.85 / sq ft</text><polygon fill="#FFFFF0" filter="url(#f7h2wsrg9h96y)" points="106,1729.8359,130,1729.8359,142,1741.8359,130,1753.8359,106,1753.8359,94,1741.8359,106,1729.8359" style="stroke: #6495ED; stroke-width: 1.0;"/><text fill="#696969" font-family="sans-serif" font-size="11" lengthAdjust="spacingAndGlyphs" textLength="18" x="122" y="1765.2549">yes</text><text fill="#A9A9A9" font-family="sans-serif" font-size="11" lengthAdjust="spacingAndGlyphs" textLength="23" x="106.5" y="1746.3369">paint</text><text fill="#696969" font-family="sans-serif" font-size="11" lengthAdjust="spacingAndGlyphs" textLength="12" x="142" y="1739.4189">no</text><polygon fill="#FFFFF0" filter="url(#f7h2wsrg9h96y)" points="118,1833.8477,130,1845.8477,118,1857.8477,106,1845.8477,118,1833.8477" style="stroke: #6495ED; stroke-width: 1.0;"/><rect fill="#CCFFCC" filter="url(#f7h2wsrg9h96y)" height="35.0938" style="stroke: #6495ED; stroke-width: 1.0;" width="89" x="73.5" y="1926.7656"/><path d="M87.5,1940.8594 L87.5,1941.8594 L86.75,1941.8594 C86.064,1941.8594 85.5,1942.4234 85.5,1943.1094 L85.5,1943.6094 C85.5,1944.2874 85.937,1944.8514 86.594,1945.0154 L89.157,1945.6714 C89.3,1945.7074 89.501,1945.9674 89.501,1946.1094 L89.501,1946.6094 C89.501,1946.7434 89.385,1946.8594 89.251,1946.8594 L86.751,1946.8594 C86.635,1946.8594 86.539,1946.8224 86.501,1946.7964 L86.501,1945.8584 L85.501,1945.8584 L85.501,1946.8584 C85.501,1947.2004 85.704,1947.4854 85.939,1947.6394 C86.173,1947.7944 86.457,1947.8584 86.752,1947.8584 L87.502,1947.8584 L87.502,1948.8584 L88.502,1948.8584 L88.502,1947.8584 L89.252,1947.8584 C89.938,1947.8584 90.502,1947.2944 90.502,1946.6084 L90.502,1946.1084 C90.502,1945.4304 90.065,1944.8664 89.408,1944.7024 L86.845,1944.0464 C86.702,1944.0104 86.501,1943.7504 86.501,1943.6084 L86.501,1943.1084 C86.501,1942.9744 86.617,1942.8584 86.751,1942.8584 L89.251,1942.8584 C89.367,1942.8584 89.463,1942.8954 89.501,1942.9214 L89.501,1943.8594 L90.501,1943.8594 L90.501,1942.8594 C90.501,1942.5174 90.298,1942.2324 90.063,1942.0784 C89.829,1941.9234 89.545,1941.8594 89.25,1941.8594 L88.5,1941.8594 L88.5,1940.8594 L87.5,1940.8594 " fill="#696969" style="stroke: ; stroke-width: 0.0; stroke-dasharray: ;"/><text fill="#696969" font-family="sans-serif" font-size="12" lengthAdjust="spacingAndGlyphs" textLength="56" x="96.5" y="1949.2227">range 360</text><rect fill="#CCFFCC" filter="url(#f7h2wsrg9h96y)" height="35.0938" style="stroke: #6495ED; stroke-width: 1.0;" width="116" x="60" y="1981.8594"/><path d="M74,1995.9531 L74,1996.9531 L73.25,1996.9531 C72.564,1996.9531 72,1997.5171 72,1998.2031 L72,1998.7031 C72,1999.3811 72.437,1999.9451 73.094,2000.1091 L75.657,2000.7651 C75.8,2000.8011 76.001,2001.0611 76.001,2001.2031 L76.001,2001.7031 C76.001,2001.8371 75.885,2001.9531 75.751,2001.9531 L73.251,2001.9531 C73.135,2001.9531 73.039,2001.9161 73.001,2001.8901 L73.001,2000.9521 L72.001,2000.9521 L72.001,2001.9521 C72.001,2002.2941 72.204,2002.5791 72.439,2002.7331 C72.673,2002.8881 72.957,2002.9521 73.252,2002.9521 L74.002,2002.9521 L74.002,2003.9521 L75.002,2003.9521 L75.002,2002.9521 L75.752,2002.9521 C76.438,2002.9521 77.002,2002.3881 77.002,2001.7021 L77.002,2001.2021 C77.002,2000.5241 76.565,1999.9601 75.908,1999.7961 L73.345,1999.1401 C73.202,1999.1041 73.001,1998.8441 73.001,1998.7021 L73.001,1998.2021 C73.001,1998.0681 73.117,1997.9521 73.251,1997.9521 L75.751,1997.9521 C75.867,1997.9521 75.963,1997.9891 76.001,1998.0151 L76.001,1998.9531 L77.001,1998.9531 L77.001,1997.9531 C77.001,1997.6111 76.798,1997.3261 76.563,1997.1721 C76.329,1997.0171 76.045,1996.9531 75.75,1996.9531 L75,1996.9531 L75,1995.9531 L74,1995.9531 " fill="#696969" style="stroke: ; stroke-width: 0.0; stroke-dasharray: ;"/><text fill="#696969" font-family="sans-serif" font-size="12" lengthAdjust="spacingAndGlyphs" textLength="83" x="83" y="2004.3164">microwave 179</text><path d="M199,2042.4727 L199,2068 L179,2072 L199,2076 L199,2101.5273 A0,0 0 0 0 199,2101.5273 L323,2101.5273 A0,0 0 0 0 323,2101.5273 L323,2052.4727 L313,2042.4727 L199,2042.4727 A0,0 0 0 0 199,2042.4727 " fill="#B0C4DE" filter="url(#f7h2wsrg9h96y)" style="stroke: #6495ED; stroke-width: 1.0;"/><path d="M313,2042.4727 L313,2052.4727 L323,2052.4727 L313,2042.4727 " fill="#B0C4DE" style="stroke: #6495ED; stroke-width: 1.0;"/><text fill="#FFFFFF" font-family="sans-serif" font-size="13" lengthAdjust="spacingAndGlyphs" textLength="62" x="205" y="2060.9678">HD Supply</text><text fill="#FFFFFF" font-family="sans-serif" font-size="13" lengthAdjust="spacingAndGlyphs" textLength="84" x="205" y="2077.3193">stainless steel</text><text fill="#FFFFFF" font-family="sans-serif" font-size="13" font-style="italic" lengthAdjust="spacingAndGlyphs" textLength="103" x="205" y="2093.6709">do not provide frig</text><rect fill="#CCFFCC" filter="url(#f7h2wsrg9h96y)" height="35.0938" style="stroke: #6495ED; stroke-width: 1.0;" width="122" x="57" y="2054.4531"/><path d="M71,2068.5469 L71,2069.5469 L70.25,2069.5469 C69.564,2069.5469 69,2070.1109 69,2070.7969 L69,2071.2969 C69,2071.9749 69.437,2072.5389 70.094,2072.7029 L72.657,2073.3589 C72.8,2073.3949 73.001,2073.6549 73.001,2073.7969 L73.001,2074.2969 C73.001,2074.4309 72.885,2074.5469 72.751,2074.5469 L70.251,2074.5469 C70.135,2074.5469 70.039,2074.5099 70.001,2074.4839 L70.001,2073.5459 L69.001,2073.5459 L69.001,2074.5459 C69.001,2074.8879 69.204,2075.1729 69.439,2075.3269 C69.673,2075.4819 69.957,2075.5459 70.252,2075.5459 L71.002,2075.5459 L71.002,2076.5459 L72.002,2076.5459 L72.002,2075.5459 L72.752,2075.5459 C73.438,2075.5459 74.002,2074.9819 74.002,2074.2959 L74.002,2073.7959 C74.002,2073.1179 73.565,2072.5539 72.908,2072.3899 L70.345,2071.7339 C70.202,2071.6979 70.001,2071.4379 70.001,2071.2959 L70.001,2070.7959 C70.001,2070.6619 70.117,2070.5459 70.251,2070.5459 L72.751,2070.5459 C72.867,2070.5459 72.963,2070.5829 73.001,2070.6089 L73.001,2071.5469 L74.001,2071.5469 L74.001,2070.5469 C74.001,2070.2049 73.798,2069.9199 73.563,2069.7659 C73.329,2069.6109 73.045,2069.5469 72.75,2069.5469 L72,2069.5469 L72,2068.5469 L71,2068.5469 " fill="#696969" style="stroke: ; stroke-width: 0.0; stroke-dasharray: ;"/><text fill="#696969" font-family="sans-serif" font-size="12" lengthAdjust="spacingAndGlyphs" textLength="89" x="80" y="2076.9102">dishwasher 259</text><path d="M196.5,2125.8984 L196.5,2135.0742 L176.5,2139.0742 L196.5,2143.0742 L196.5,2152.25 A0,0 0 0 0 196.5,2152.25 L249.5,2152.25 A0,0 0 0 0 249.5,2152.25 L249.5,2135.8984 L239.5,2125.8984 L196.5,2125.8984 A0,0 0 0 0 196.5,2125.8984 " fill="#B0C4DE" filter="url(#f7h2wsrg9h96y)" style="stroke: #6495ED; stroke-width: 1.0;"/><path d="M239.5,2125.8984 L239.5,2135.8984 L249.5,2135.8984 L239.5,2125.8984 " fill="#B0C4DE" style="stroke: #6495ED; stroke-width: 1.0;"/><text fill="#FFFFFF" font-family="sans-serif" font-size="13" lengthAdjust="spacingAndGlyphs" textLength="32" x="202.5" y="2144.3936">sears</text><rect fill="#CCFFCC" filter="url(#f7h2wsrg9h96y)" height="35.0938" style="stroke: #6495ED; stroke-width: 1.0;" width="117" x="59.5" y="2121.5273"/><path d="M73.5,2135.6211 L73.5,2136.6211 L72.75,2136.6211 C72.064,2136.6211 71.5,2137.1851 71.5,2137.8711 L71.5,2138.3711 C71.5,2139.0491 71.937,2139.6131 72.594,2139.7771 L75.157,2140.4331 C75.3,2140.4691 75.501,2140.7291 75.501,2140.8711 L75.501,2141.3711 C75.501,2141.5051 75.385,2141.6211 75.251,2141.6211 L72.751,2141.6211 C72.635,2141.6211 72.539,2141.5841 72.501,2141.5581 L72.501,2140.6201 L71.501,2140.6201 L71.501,2141.6201 C71.501,2141.9621 71.704,2142.2471 71.939,2142.4011 C72.173,2142.5561 72.457,2142.6201 72.752,2142.6201 L73.502,2142.6201 L73.502,2143.6201 L74.502,2143.6201 L74.502,2142.6201 L75.252,2142.6201 C75.938,2142.6201 76.502,2142.0561 76.502,2141.3701 L76.502,2140.8701 C76.502,2140.1921 76.065,2139.6281 75.408,2139.4641 L72.845,2138.8081 C72.702,2138.7721 72.501,2138.5121 72.501,2138.3701 L72.501,2137.8701 C72.501,2137.7361 72.617,2137.6201 72.751,2137.6201 L75.251,2137.6201 C75.367,2137.6201 75.463,2137.6571 75.501,2137.6831 L75.501,2138.6211 L76.501,2138.6211 L76.501,2137.6211 C76.501,2137.2791 76.298,2136.9941 76.063,2136.8401 C75.829,2136.6851 75.545,2136.6211 75.25,2136.6211 L74.5,2136.6211 L74.5,2135.6211 L73.5,2135.6211 " fill="#696969" style="stroke: ; stroke-width: 0.0; stroke-dasharray: ;"/><text fill="#696969" font-family="sans-serif" font-size="12" lengthAdjust="spacingAndGlyphs" textLength="84" x="82.5" y="2143.9844">installation $10</text><polygon fill="#FFFFF0" filter="url(#f7h2wsrg9h96y)" points="92,1877.8477,144,1877.8477,156,1889.8477,144,1901.8477,92,1901.8477,80,1889.8477,92,1877.8477" style="stroke: #6495ED; stroke-width: 1.0;"/><text fill="#696969" font-family="sans-serif" font-size="11" lengthAdjust="spacingAndGlyphs" textLength="18" x="122" y="1913.2666">yes</text><text fill="#A9A9A9" font-family="sans-serif" font-size="11" lengthAdjust="spacingAndGlyphs" textLength="52" x="92" y="1894.3486">appliances</text><text fill="#696969" font-family="sans-serif" font-size="11" lengthAdjust="spacingAndGlyphs" textLength="12" x="156" y="1887.4307">no</text><polygon fill="#FFFFF0" filter="url(#f7h2wsrg9h96y)" points="118,2176.6211,130,2188.6211,118,2200.6211,106,2188.6211,118,2176.6211" style="stroke: #6495ED; stroke-width: 1.0;"/><path d="M188.5,2224.9922 L188.5,2234.168 L168.5,2238.168 L188.5,2242.168 L188.5,2251.3438 A0,0 0 0 0 188.5,2251.3438 L318.5,2251.3438 A0,0 0 0 0 318.5,2251.3438 L318.5,2234.9922 L308.5,2224.9922 L188.5,2224.9922 A0,0 0 0 0 188.5,2224.9922 " fill="#B0C4DE" filter="url(#f7h2wsrg9h96y)" style="stroke: #6495ED; stroke-width: 1.0;"/><path d="M308.5,2224.9922 L308.5,2234.9922 L318.5,2234.9922 L308.5,2224.9922 " fill="#B0C4DE" style="stroke: #6495ED; stroke-width: 1.0;"/><text fill="#FFFFFF" font-family="sans-serif" font-size="13" lengthAdjust="spacingAndGlyphs" textLength="109" x="194.5" y="2243.4873">assume ok for now</text><rect fill="#CCFFCC" filter="url(#f7h2wsrg9h96y)" height="35.0938" style="stroke: #6495ED; stroke-width: 1.0;" width="101" x="67.5" y="2220.6211"/><path d="M81.5,2234.7148 L81.5,2235.7148 L80.75,2235.7148 C80.064,2235.7148 79.5,2236.2788 79.5,2236.9648 L79.5,2237.4648 C79.5,2238.1428 79.937,2238.7068 80.594,2238.8708 L83.157,2239.5268 C83.3,2239.5628 83.501,2239.8228 83.501,2239.9648 L83.501,2240.4648 C83.501,2240.5988 83.385,2240.7148 83.251,2240.7148 L80.751,2240.7148 C80.635,2240.7148 80.539,2240.6778 80.501,2240.6518 L80.501,2239.7138 L79.501,2239.7138 L79.501,2240.7138 C79.501,2241.0558 79.704,2241.3408 79.939,2241.4948 C80.173,2241.6498 80.457,2241.7138 80.752,2241.7138 L81.502,2241.7138 L81.502,2242.7138 L82.502,2242.7138 L82.502,2241.7138 L83.252,2241.7138 C83.938,2241.7138 84.502,2241.1498 84.502,2240.4638 L84.502,2239.9638 C84.502,2239.2858 84.065,2238.7218 83.408,2238.5578 L80.845,2237.9018 C80.702,2237.8658 80.501,2237.6058 80.501,2237.4638 L80.501,2236.9638 C80.501,2236.8298 80.617,2236.7138 80.751,2236.7138 L83.251,2236.7138 C83.367,2236.7138 83.463,2236.7508 83.501,2236.7768 L83.501,2237.7148 L84.501,2237.7148 L84.501,2236.7148 C84.501,2236.3728 84.298,2236.0878 84.063,2235.9338 C83.829,2235.7788 83.545,2235.7148 83.25,2235.7148 L82.5,2235.7148 L82.5,2234.7148 L81.5,2234.7148 " fill="#696969" style="stroke: ; stroke-width: 0.0; stroke-dasharray: ;"/><text fill="#696969" font-family="sans-serif" font-size="12" lengthAdjust="spacingAndGlyphs" textLength="68" x="90.5" y="2243.0781">foundation 0</text><path d="M170,2280.0859 L170,2289.2617 L150,2293.2617 L170,2297.2617 L170,2306.4375 A0,0 0 0 0 170,2306.4375 L300,2306.4375 A0,0 0 0 0 300,2306.4375 L300,2290.0859 L290,2280.0859 L170,2280.0859 A0,0 0 0 0 170,2280.0859 " fill="#B0C4DE" filter="url(#f7h2wsrg9h96y)" style="stroke: #6495ED; stroke-width: 1.0;"/><path d="M290,2280.0859 L290,2290.0859 L300,2290.0859 L290,2280.0859 " fill="#B0C4DE" style="stroke: #6495ED; stroke-width: 1.0;"/><text fill="#FFFFFF" font-family="sans-serif" font-size="13" lengthAdjust="spacingAndGlyphs" textLength="109" x="176" y="2298.5811">assume ok for now</text><rect fill="#CCFFCC" filter="url(#f7h2wsrg9h96y)" height="35.0938" style="stroke: #6495ED; stroke-width: 1.0;" width="64" x="86" y="2275.7148"/><path d="M100,2289.8086 L100,2290.8086 L99.25,2290.8086 C98.564,2290.8086 98,2291.3726 98,2292.0586 L98,2292.5586 C98,2293.2366 98.437,2293.8006 99.094,2293.9646 L101.657,2294.6206 C101.8,2294.6566 102.001,2294.9166 102.001,2295.0586 L102.001,2295.5586 C102.001,2295.6926 101.885,2295.8086 101.751,2295.8086 L99.251,2295.8086 C99.135,2295.8086 99.039,2295.7716 99.001,2295.7456 L99.001,2294.8076 L98.001,2294.8076 L98.001,2295.8076 C98.001,2296.1496 98.204,2296.4346 98.439,2296.5886 C98.673,2296.7436 98.957,2296.8076 99.252,2296.8076 L100.002,2296.8076 L100.002,2297.8076 L101.002,2297.8076 L101.002,2296.8076 L101.752,2296.8076 C102.438,2296.8076 103.002,2296.2436 103.002,2295.5576 L103.002,2295.0576 C103.002,2294.3796 102.565,2293.8156 101.908,2293.6516 L99.345,2292.9956 C99.202,2292.9596 99.001,2292.6996 99.001,2292.5576 L99.001,2292.0576 C99.001,2291.9236 99.117,2291.8076 99.251,2291.8076 L101.751,2291.8076 C101.867,2291.8076 101.963,2291.8446 102.001,2291.8706 L102.001,2292.8086 L103.001,2292.8086 L103.001,2291.8086 C103.001,2291.4666 102.798,2291.1816 102.563,2291.0276 C102.329,2290.8726 102.045,2290.8086 101.75,2290.8086 L101,2290.8086 L101,2289.8086 L100,2289.8086 " fill="#696969" style="stroke: ; stroke-width: 0.0; stroke-dasharray: ;"/><text fill="#696969" font-family="sans-serif" font-size="12" lengthAdjust="spacingAndGlyphs" textLength="31" x="109" y="2298.1719">roof 0</text><path d="M179,2335.1797 L179,2344.3555 L159,2348.3555 L179,2352.3555 L179,2361.5313 A0,0 0 0 0 179,2361.5313 L309,2361.5313 A0,0 0 0 0 309,2361.5313 L309,2345.1797 L299,2335.1797 L179,2335.1797 A0,0 0 0 0 179,2335.1797 " fill="#B0C4DE" filter="url(#f7h2wsrg9h96y)" style="stroke: #6495ED; stroke-width: 1.0;"/><path d="M299,2335.1797 L299,2345.1797 L309,2345.1797 L299,2335.1797 " fill="#B0C4DE" style="stroke: #6495ED; stroke-width: 1.0;"/><text fill="#FFFFFF" font-family="sans-serif" font-size="13" lengthAdjust="spacingAndGlyphs" textLength="109" x="185" y="2353.6748">assume ok for now</text><rect fill="#CCFFCC" filter="url(#f7h2wsrg9h96y)" height="35.0938" style="stroke: #6495ED; stroke-width: 1.0;" width="82" x="77" y="2330.8086"/><path d="M91,2344.9023 L91,2345.9023 L90.25,2345.9023 C89.564,2345.9023 89,2346.4663 89,2347.1523 L89,2347.6523 C89,2348.3303 89.437,2348.8943 90.094,2349.0583 L92.657,2349.7143 C92.8,2349.7503 93.001,2350.0103 93.001,2350.1523 L93.001,2350.6523 C93.001,2350.7863 92.885,2350.9023 92.751,2350.9023 L90.251,2350.9023 C90.135,2350.9023 90.039,2350.8653 90.001,2350.8393 L90.001,2349.9013 L89.001,2349.9013 L89.001,2350.9013 C89.001,2351.2433 89.204,2351.5283 89.439,2351.6823 C89.673,2351.8373 89.957,2351.9013 90.252,2351.9013 L91.002,2351.9013 L91.002,2352.9013 L92.002,2352.9013 L92.002,2351.9013 L92.752,2351.9013 C93.438,2351.9013 94.002,2351.3373 94.002,2350.6513 L94.002,2350.1513 C94.002,2349.4733 93.565,2348.9093 92.908,2348.7453 L90.345,2348.0893 C90.202,2348.0533 90.001,2347.7933 90.001,2347.6513 L90.001,2347.1513 C90.001,2347.0173 90.117,2346.9013 90.251,2346.9013 L92.751,2346.9013 C92.867,2346.9013 92.963,2346.9383 93.001,2346.9643 L93.001,2347.9023 L94.001,2347.9023 L94.001,2346.9023 C94.001,2346.5603 93.798,2346.2753 93.563,2346.1213 C93.329,2345.9663 93.045,2345.9023 92.75,2345.9023 L92,2345.9023 L92,2344.9023 L91,2344.9023 " fill="#696969" style="stroke: ; stroke-width: 0.0; stroke-dasharray: ;"/><text fill="#696969" font-family="sans-serif" font-size="12" lengthAdjust="spacingAndGlyphs" textLength="49" x="100" y="2353.2656">a/c unit 0</text><polygon fill="#FFFFF0" filter="url(#f7h2wsrg9h96y)" points="83.5,2397.9023,152.5,2397.9023,164.5,2416.7383,152.5,2435.5742,83.5,2435.5742,71.5,2416.7383,83.5,2397.9023" style="stroke: #6495ED; stroke-width: 1.0;"/><text fill="#696969" font-family="sans-serif" font-size="11" lengthAdjust="spacingAndGlyphs" textLength="18" x="122" y="2446.9932">yes</text><text fill="#A9A9A9" font-family="sans-serif" font-size="11" lengthAdjust="spacingAndGlyphs" textLength="48" x="83.5" y="2409.3213">income ok</text><line style="stroke: #6495ED; stroke-width: 1.0;" x1="71.5" x2="164.5" y1="2416.7383" y2="2416.7383"/><text fill="#A9A9A9" font-family="sans-serif" font-size="11" lengthAdjust="spacingAndGlyphs" textLength="69" x="83.5" y="2433.1572">$200-600 / mo</text><text fill="#696969" font-family="sans-serif" font-size="11" lengthAdjust="spacingAndGlyphs" textLength="12" x="164.5" y="2414.3213">no</text><ellipse cx="198.5" cy="2416.7383" fill="#FFFFFF" filter="url(#f7h2wsrg9h96y)" rx="11" ry="11" style="stroke: #FF7F50; stroke-width: 1.0;"/><ellipse cx="198.5" cy="2416.7383" fill="#FF7F50" rx="6" ry="6" style="stroke: #FFBFA7; stroke-width: 1.0;"/><polygon fill="#FFFFF0" filter="url(#f7h2wsrg9h96y)" points="87,2468.4932,149,2468.4932,161,2487.3291,149,2506.165,87,2506.165,75,2487.3291,87,2468.4932" style="stroke: #6495ED; stroke-width: 1.0;"/><text fill="#696969" font-family="sans-serif" font-size="11" lengthAdjust="spacingAndGlyphs" textLength="18" x="122" y="2517.584">yes</text><text fill="#A9A9A9" font-family="sans-serif" font-size="11" lengthAdjust="spacingAndGlyphs" textLength="62" x="87" y="2479.9121">cost/sql ft ok</text><line style="stroke: #6495ED; stroke-width: 1.0;" x1="75" x2="161" y1="2487.3291" y2="2487.3291"/><text fill="#A9A9A9" font-family="sans-serif" font-size="11" lengthAdjust="spacingAndGlyphs" textLength="58" x="87" y="2503.748">&lt; $88 / sq ft</text><text fill="#696969" font-family="sans-serif" font-size="11" lengthAdjust="spacingAndGlyphs" textLength="12" x="161" y="2484.9121">no</text><ellipse cx="195" cy="2487.3291" fill="#FFFFFF" filter="url(#f7h2wsrg9h96y)" rx="11" ry="11" style="stroke: #FF7F50; stroke-width: 1.0;"/><ellipse cx="195" cy="2487.3291" fill="#FF7F50" rx="6" ry="6" style="stroke: #FFBFA7; stroke-width: 1.0;"/><polygon fill="#FFFFF0" filter="url(#f7h2wsrg9h96y)" points="49,2539.084,187,2539.084,199,2571.7559,187,2604.4277,49,2604.4277,37,2571.7559,49,2539.084" style="stroke: #6495ED; stroke-width: 1.0;"/><text fill="#696969" font-family="sans-serif" font-size="11" lengthAdjust="spacingAndGlyphs" textLength="18" x="122" y="2615.8467">yes</text><text fill="#A9A9A9" font-family="sans-serif" font-size="11" lengthAdjust="spacingAndGlyphs" textLength="138" x="49" y="2550.5029">correct cash-on-cash return</text><line style="stroke: #6495ED; stroke-width: 1.0;" x1="42.0818" x2="193.9182" y1="2557.9199" y2="2557.9199"/><text fill="#A9A9A9" font-family="sans-serif" font-size="11" lengthAdjust="spacingAndGlyphs" textLength="85" x="49" y="2574.3389">should be 8-30 %</text><text fill="#A9A9A9" font-family="sans-serif" font-size="11" lengthAdjust="spacingAndGlyphs" textLength="87" x="49" y="2588.1748">net of lending rate</text><text fill="#A9A9A9" font-family="sans-serif" font-size="11" font-style="italic" lengthAdjust="spacingAndGlyphs" textLength="83" x="49" y="2602.0107">inflation is 3-4 %</text><text fill="#696969" font-family="sans-serif" font-size="11" lengthAdjust="spacingAndGlyphs" textLength="12" x="199" y="2569.3389">no</text><ellipse cx="233" cy="2571.7559" fill="#FFFFFF" filter="url(#f7h2wsrg9h96y)" rx="11" ry="11" style="stroke: #FF7F50; stroke-width: 1.0;"/><ellipse cx="233" cy="2571.7559" fill="#FF7F50" rx="6" ry="6" style="stroke: #FFBFA7; stroke-width: 1.0;"/><polygon fill="#FFFFF0" filter="url(#f7h2wsrg9h96y)" points="73,2637.3467,163,2637.3467,175,2656.1826,163,2675.0186,73,2675.0186,61,2656.1826,73,2637.3467" style="stroke: #6495ED; stroke-width: 1.0;"/><text fill="#696969" font-family="sans-serif" font-size="11" lengthAdjust="spacingAndGlyphs" textLength="18" x="122" y="2686.4375">yes</text><text fill="#A9A9A9" font-family="sans-serif" font-size="11" lengthAdjust="spacingAndGlyphs" textLength="90" x="73" y="2648.7656">correct equity gain</text><line style="stroke: #6495ED; stroke-width: 1.0;" x1="61" x2="175" y1="2656.1826" y2="2656.1826"/><text fill="#A9A9A9" font-family="sans-serif" font-size="11" lengthAdjust="spacingAndGlyphs" textLength="78" x="73" y="2672.6016">should be 100%</text><text fill="#696969" font-family="sans-serif" font-size="11" lengthAdjust="spacingAndGlyphs" textLength="12" x="175" y="2653.7656">no</text><ellipse cx="209" cy="2656.1826" fill="#FFFFFF" filter="url(#f7h2wsrg9h96y)" rx="11" ry="11" style="stroke: #FF7F50; stroke-width: 1.0;"/><ellipse cx="209" cy="2656.1826" fill="#FF7F50" rx="6" ry="6" style="stroke: #FFBFA7; stroke-width: 1.0;"/><rect fill="#FFFFF0" filter="url(#f7h2wsrg9h96y)" height="35.0938" rx="12.5" ry="12.5" style="stroke: #6495ED; stroke-width: 1.0;" width="41" x="97.5" y="2707.9375"/><text fill="#696969" font-family="sans-serif" font-size="12" lengthAdjust="spacingAndGlyphs" textLength="21" x="107.5" y="2730.3945">visit</text><line style="stroke: #696969; stroke-width: 1.5;" x1="118" x2="118" y1="191.6094" y2="211.6094"/><polygon fill="#696969" points="114,201.6094,118,211.6094,122,201.6094,118,205.6094" style="stroke: #696969; stroke-width: 1.0;"/><line style="stroke: #696969; stroke-width: 1.5;" x1="118" x2="118" y1="246.7031" y2="266.7031"/><polygon fill="#696969" points="114,256.7031,118,266.7031,122,256.7031,118,260.7031" style="stroke: #696969; stroke-width: 1.0;"/><line style="stroke: #696969; stroke-width: 1.5;" x1="118" x2="118" y1="301.7969" y2="321.7969"/><polygon fill="#696969" points="114,311.7969,118,321.7969,122,311.7969,118,315.7969" style="stroke: #696969; stroke-width: 1.0;"/><line style="stroke: #696969; stroke-width: 1.5;" x1="118" x2="118" y1="356.8906" y2="376.8906"/><polygon fill="#696969" points="114,366.8906,118,376.8906,122,366.8906,118,370.8906" style="stroke: #696969; stroke-width: 1.0;"/><line style="stroke: #696969; stroke-width: 1.5;" x1="118" x2="118" y1="411.9844" y2="431.9844"/><polygon fill="#696969" points="114,421.9844,118,431.9844,122,421.9844,118,425.9844" style="stroke: #696969; stroke-width: 1.0;"/><line style="stroke: #696969; stroke-width: 1.5;" x1="118" x2="118" y1="467.0781" y2="487.0781"/><polygon fill="#696969" points="114,477.0781,118,487.0781,122,477.0781,118,481.0781" style="stroke: #696969; stroke-width: 1.0;"/><line style="stroke: #696969; stroke-width: 1.5;" x1="118" x2="118" y1="522.1719" y2="542.1719"/><polygon fill="#696969" points="114,532.1719,118,542.1719,122,532.1719,118,536.1719" style="stroke: #696969; stroke-width: 1.0;"/><line style="stroke: #696969; stroke-width: 1.5;" x1="118" x2="118" y1="577.2656" y2="597.2656"/><polygon fill="#696969" points="114,587.2656,118,597.2656,122,587.2656,118,591.2656" style="stroke: #696969; stroke-width: 1.0;"/><line style="stroke: #696969; stroke-width: 1.5;" x1="118" x2="118" y1="632.3594" y2="652.3594"/><polygon fill="#696969" points="114,642.3594,118,652.3594,122,642.3594,118,646.3594" style="stroke: #696969; stroke-width: 1.0;"/><line style="stroke: #696969; stroke-width: 1.5;" x1="118" x2="118" y1="687.4531" y2="711.2578"/><polygon fill="#696969" points="114,701.2578,118,711.2578,122,701.2578,118,705.2578" style="stroke: #696969; stroke-width: 1.0;"/><line style="stroke: #696969; stroke-width: 1.5;" x1="118" x2="118" y1="746.3516" y2="768.332"/><polygon fill="#696969" points="114,758.332,118,768.332,122,758.332,118,762.332" style="stroke: #696969; stroke-width: 1.0;"/><line style="stroke: #696969; stroke-width: 1.5;" x1="118" x2="118" y1="803.4258" y2="835.4063"/><polygon fill="#696969" points="114,825.4063,118,835.4063,122,825.4063,118,829.4063" style="stroke: #696969; stroke-width: 1.0;"/><line style="stroke: #696969; stroke-width: 1.5;" x1="118" x2="118" y1="870.5" y2="890.5"/><polygon fill="#696969" points="114,880.5,118,890.5,122,880.5,118,884.5" style="stroke: #696969; stroke-width: 1.0;"/><line style="stroke: #696969; stroke-width: 1.5;" x1="118" x2="118" y1="105.375" y2="156.5156"/><polygon fill="#696969" points="114,146.5156,118,156.5156,122,146.5156,118,150.5156" style="stroke: #696969; stroke-width: 1.0;"/><line style="stroke: #696969; stroke-width: 1.5;" x1="118" x2="118" y1="1012.7344" y2="1037.6523"/><polygon fill="#696969" points="114,1027.6523,118,1037.6523,122,1027.6523,118,1031.6523" style="stroke: #696969; stroke-width: 1.0;"/><line style="stroke: #696969; stroke-width: 1.5;" x1="159" x2="270" y1="1000.7344" y2="1000.7344"/><polygon fill="#696969" points="266,1045.1992,270,1055.1992,274,1045.1992,270,1049.1992" style="stroke: #696969; stroke-width: 1.5;"/><line style="stroke: #696969; stroke-width: 1.5;" x1="270" x2="270" y1="1000.7344" y2="1104.7461"/><line style="stroke: #696969; stroke-width: 1.5;" x1="270" x2="130" y1="1104.7461" y2="1104.7461"/><polygon fill="#696969" points="140,1100.7461,130,1104.7461,140,1108.7461,136,1104.7461" style="stroke: #696969; stroke-width: 1.0;"/><line style="stroke: #696969; stroke-width: 1.5;" x1="118" x2="118" y1="1072.7461" y2="1092.7461"/><polygon fill="#696969" points="114,1082.7461,118,1092.7461,122,1082.7461,118,1086.7461" style="stroke: #696969; stroke-width: 1.0;"/><line style="stroke: #696969; stroke-width: 1.5;" x1="118" x2="118" y1="1160.7461" y2="1185.6641"/><polygon fill="#696969" points="114,1175.6641,118,1185.6641,122,1175.6641,118,1179.6641" style="stroke: #696969; stroke-width: 1.0;"/><line style="stroke: #696969; stroke-width: 1.5;" x1="145.5" x2="242.5" y1="1148.7461" y2="1148.7461"/><polygon fill="#696969" points="238.5,1193.2109,242.5,1203.2109,246.5,1193.2109,242.5,1197.2109" style="stroke: #696969; stroke-width: 1.5;"/><line style="stroke: #696969; stroke-width: 1.5;" x1="242.5" x2="242.5" y1="1148.7461" y2="1252.7578"/><line style="stroke: #696969; stroke-width: 1.5;" x1="242.5" x2="130" y1="1252.7578" y2="1252.7578"/><polygon fill="#696969" points="140,1248.7578,130,1252.7578,140,1256.7578,136,1252.7578" style="stroke: #696969; stroke-width: 1.0;"/><line style="stroke: #696969; stroke-width: 1.5;" x1="118" x2="118" y1="1220.7578" y2="1240.7578"/><polygon fill="#696969" points="114,1230.7578,118,1240.7578,122,1230.7578,118,1234.7578" style="stroke: #696969; stroke-width: 1.0;"/><line style="stroke: #696969; stroke-width: 1.5;" x1="118" x2="118" y1="1116.7461" y2="1136.7461"/><polygon fill="#696969" points="114,1126.7461,118,1136.7461,122,1126.7461,118,1130.7461" style="stroke: #696969; stroke-width: 1.0;"/><line style="stroke: #696969; stroke-width: 1.5;" x1="118" x2="118" y1="1308.7578" y2="1333.6758"/><polygon fill="#696969" points="114,1323.6758,118,1333.6758,122,1323.6758,118,1327.6758" style="stroke: #696969; stroke-width: 1.0;"/><line style="stroke: #696969; stroke-width: 1.5;" x1="148" x2="172.5" y1="1296.7578" y2="1296.7578"/><polygon fill="#696969" points="168.5,1341.2227,172.5,1351.2227,176.5,1341.2227,172.5,1345.2227" style="stroke: #696969; stroke-width: 1.5;"/><line style="stroke: #696969; stroke-width: 1.5;" x1="172.5" x2="172.5" y1="1296.7578" y2="1400.7695"/><line style="stroke: #696969; stroke-width: 1.5;" x1="172.5" x2="130" y1="1400.7695" y2="1400.7695"/><polygon fill="#696969" points="140,1396.7695,130,1400.7695,140,1404.7695,136,1400.7695" style="stroke: #696969; stroke-width: 1.0;"/><line style="stroke: #696969; stroke-width: 1.5;" x1="118" x2="118" y1="1368.7695" y2="1388.7695"/><polygon fill="#696969" points="114,1378.7695,118,1388.7695,122,1378.7695,118,1382.7695" style="stroke: #696969; stroke-width: 1.0;"/><line style="stroke: #696969; stroke-width: 1.5;" x1="118" x2="118" y1="1264.7578" y2="1284.7578"/><polygon fill="#696969" points="114,1274.7578,118,1284.7578,122,1274.7578,118,1278.7578" style="stroke: #696969; stroke-width: 1.0;"/><line style="stroke: #696969; stroke-width: 1.5;" x1="118" x2="118" y1="1456.7695" y2="1481.6875"/><polygon fill="#696969" points="114,1471.6875,118,1481.6875,122,1471.6875,118,1475.6875" style="stroke: #696969; stroke-width: 1.0;"/><line style="stroke: #696969; stroke-width: 1.5;" x1="181.5" x2="230.5" y1="1444.7695" y2="1444.7695"/><polygon fill="#696969" points="226.5,1489.2344,230.5,1499.2344,234.5,1489.2344,230.5,1493.2344" style="stroke: #696969; stroke-width: 1.5;"/><line style="stroke: #696969; stroke-width: 1.5;" x1="230.5" x2="230.5" y1="1444.7695" y2="1548.7813"/><line style="stroke: #696969; stroke-width: 1.5;" x1="230.5" x2="130" y1="1548.7813" y2="1548.7813"/><polygon fill="#696969" points="140,1544.7813,130,1548.7813,140,1552.7813,136,1548.7813" style="stroke: #696969; stroke-width: 1.0;"/><line style="stroke: #696969; stroke-width: 1.5;" x1="118" x2="118" y1="1516.7813" y2="1536.7813"/><polygon fill="#696969" points="114,1526.7813,118,1536.7813,122,1526.7813,118,1530.7813" style="stroke: #696969; stroke-width: 1.0;"/><line style="stroke: #696969; stroke-width: 1.5;" x1="118" x2="118" y1="1412.7695" y2="1432.7695"/><polygon fill="#696969" points="114,1422.7695,118,1432.7695,122,1422.7695,118,1426.7695" style="stroke: #696969; stroke-width: 1.0;"/><line style="stroke: #696969; stroke-width: 1.5;" x1="118" x2="118" y1="1604.7813" y2="1629.6992"/><polygon fill="#696969" points="114,1619.6992,118,1629.6992,122,1619.6992,118,1623.6992" style="stroke: #696969; stroke-width: 1.0;"/><line style="stroke: #696969; stroke-width: 1.5;" x1="184.5" x2="196.5" y1="1592.7813" y2="1592.7813"/><polygon fill="#696969" points="192.5,1637.2461,196.5,1647.2461,200.5,1637.2461,196.5,1641.2461" style="stroke: #696969; stroke-width: 1.5;"/><line style="stroke: #696969; stroke-width: 1.5;" x1="196.5" x2="196.5" y1="1592.7813" y2="1696.793"/><line style="stroke: #696969; stroke-width: 1.5;" x1="196.5" x2="130" y1="1696.793" y2="1696.793"/><polygon fill="#696969" points="140,1692.793,130,1696.793,140,1700.793,136,1696.793" style="stroke: #696969; stroke-width: 1.0;"/><line style="stroke: #696969; stroke-width: 1.5;" x1="118" x2="118" y1="1664.793" y2="1684.793"/><polygon fill="#696969" points="114,1674.793,118,1684.793,122,1674.793,118,1678.793" style="stroke: #696969; stroke-width: 1.0;"/><line style="stroke: #696969; stroke-width: 1.5;" x1="118" x2="118" y1="1560.7813" y2="1580.7813"/><polygon fill="#696969" points="114,1570.7813,118,1580.7813,122,1570.7813,118,1574.7813" style="stroke: #696969; stroke-width: 1.0;"/><line style="stroke: #696969; stroke-width: 1.5;" x1="118" x2="118" y1="1753.8359" y2="1778.7539"/><polygon fill="#696969" points="114,1768.7539,118,1778.7539,122,1768.7539,118,1772.7539" style="stroke: #696969; stroke-width: 1.0;"/><line style="stroke: #696969; stroke-width: 1.5;" x1="142" x2="254.5" y1="1741.8359" y2="1741.8359"/><polygon fill="#696969" points="250.5,1786.3008,254.5,1796.3008,258.5,1786.3008,254.5,1790.3008" style="stroke: #696969; stroke-width: 1.5;"/><line style="stroke: #696969; stroke-width: 1.5;" x1="254.5" x2="254.5" y1="1741.8359" y2="1845.8477"/><line style="stroke: #696969; stroke-width: 1.5;" x1="254.5" x2="130" y1="1845.8477" y2="1845.8477"/><polygon fill="#696969" points="140,1841.8477,130,1845.8477,140,1849.8477,136,1845.8477" style="stroke: #696969; stroke-width: 1.0;"/><line style="stroke: #696969; stroke-width: 1.5;" x1="118" x2="118" y1="1813.8477" y2="1833.8477"/><polygon fill="#696969" points="114,1823.8477,118,1833.8477,122,1823.8477,118,1827.8477" style="stroke: #696969; stroke-width: 1.0;"/><line style="stroke: #696969; stroke-width: 1.5;" x1="118" x2="118" y1="1708.793" y2="1729.8359"/><polygon fill="#696969" points="114,1719.8359,118,1729.8359,122,1719.8359,118,1723.8359" style="stroke: #696969; stroke-width: 1.0;"/><line style="stroke: #696969; stroke-width: 1.5;" x1="118" x2="118" y1="1961.8594" y2="1981.8594"/><polygon fill="#696969" points="114,1971.8594,118,1981.8594,122,1971.8594,118,1975.8594" style="stroke: #696969; stroke-width: 1.0;"/><line style="stroke: #696969; stroke-width: 1.5;" x1="118" x2="118" y1="2016.9531" y2="2054.4531"/><polygon fill="#696969" points="114,2044.4531,118,2054.4531,122,2044.4531,118,2048.4531" style="stroke: #696969; stroke-width: 1.0;"/><line style="stroke: #696969; stroke-width: 1.5;" x1="118" x2="118" y1="2089.5469" y2="2121.5273"/><polygon fill="#696969" points="114,2111.5273,118,2121.5273,122,2111.5273,118,2115.5273" style="stroke: #696969; stroke-width: 1.0;"/><line style="stroke: #696969; stroke-width: 1.5;" x1="118" x2="118" y1="1901.8477" y2="1926.7656"/><polygon fill="#696969" points="114,1916.7656,118,1926.7656,122,1916.7656,118,1920.7656" style="stroke: #696969; stroke-width: 1.0;"/><line style="stroke: #696969; stroke-width: 1.5;" x1="156" x2="333" y1="1889.8477" y2="1889.8477"/><polygon fill="#696969" points="329,2026.9531,333,2036.9531,337,2026.9531,333,2030.9531" style="stroke: #696969; stroke-width: 1.5;"/><line style="stroke: #696969; stroke-width: 1.5;" x1="333" x2="333" y1="1889.8477" y2="2188.6211"/><line style="stroke: #696969; stroke-width: 1.5;" x1="333" x2="130" y1="2188.6211" y2="2188.6211"/><polygon fill="#696969" points="140,2184.6211,130,2188.6211,140,2192.6211,136,2188.6211" style="stroke: #696969; stroke-width: 1.0;"/><line style="stroke: #696969; stroke-width: 1.5;" x1="118" x2="118" y1="2156.6211" y2="2176.6211"/><polygon fill="#696969" points="114,2166.6211,118,2176.6211,122,2166.6211,118,2170.6211" style="stroke: #696969; stroke-width: 1.0;"/><line style="stroke: #696969; stroke-width: 1.5;" x1="118" x2="118" y1="1857.8477" y2="1877.8477"/><polygon fill="#696969" points="114,1867.8477,118,1877.8477,122,1867.8477,118,1871.8477" style="stroke: #696969; stroke-width: 1.0;"/><line style="stroke: #696969; stroke-width: 1.5;" x1="118" x2="118" y1="2200.6211" y2="2220.6211"/><polygon fill="#696969" points="114,2210.6211,118,2220.6211,122,2210.6211,118,2214.6211" style="stroke: #696969; stroke-width: 1.0;"/><line style="stroke: #696969; stroke-width: 1.5;" x1="118" x2="118" y1="2255.7148" y2="2275.7148"/><polygon fill="#696969" points="114,2265.7148,118,2275.7148,122,2265.7148,118,2269.7148" style="stroke: #696969; stroke-width: 1.0;"/><line style="stroke: #696969; stroke-width: 1.5;" x1="118" x2="118" y1="2310.8086" y2="2330.8086"/><polygon fill="#696969" points="114,2320.8086,118,2330.8086,122,2320.8086,118,2324.8086" style="stroke: #696969; stroke-width: 1.0;"/><line style="stroke: #696969; stroke-width: 1.5;" x1="118" x2="118" y1="925.5938" y2="988.7344"/><polygon fill="#696969" points="114,978.7344,118,988.7344,122,978.7344,118,982.7344" style="stroke: #696969; stroke-width: 1.0;"/><line style="stroke: #696969; stroke-width: 1.5;" x1="118" x2="118" y1="2435.5742" y2="2468.4932"/><polygon fill="#696969" points="114,2458.4932,118,2468.4932,122,2458.4932,118,2462.4932" style="stroke: #696969; stroke-width: 1.0;"/><line style="stroke: #696969; stroke-width: 1.5;" x1="164.5" x2="187.5" y1="2416.7383" y2="2416.7383"/><polygon fill="#696969" points="177.5,2412.7383,187.5,2416.7383,177.5,2420.7383,181.5,2416.7383" style="stroke: #696969; stroke-width: 1.0;"/><line style="stroke: #696969; stroke-width: 1.5;" x1="118" x2="118" y1="2365.9023" y2="2397.9023"/><polygon fill="#696969" points="114,2387.9023,118,2397.9023,122,2387.9023,118,2391.9023" style="stroke: #696969; stroke-width: 1.0;"/><line style="stroke: #696969; stroke-width: 1.5;" x1="118" x2="118" y1="2506.165" y2="2539.084"/><polygon fill="#696969" points="114,2529.084,118,2539.084,122,2529.084,118,2533.084" style="stroke: #696969; stroke-width: 1.0;"/><line style="stroke: #696969; stroke-width: 1.5;" x1="161" x2="184" y1="2487.3291" y2="2487.3291"/><polygon fill="#696969" points="174,2483.3291,184,2487.3291,174,2491.3291,178,2487.3291" style="stroke: #696969; stroke-width: 1.0;"/><line style="stroke: #696969; stroke-width: 1.5;" x1="118" x2="118" y1="2604.4277" y2="2637.3467"/><polygon fill="#696969" points="114,2627.3467,118,2637.3467,122,2627.3467,118,2631.3467" style="stroke: #696969; stroke-width: 1.0;"/><line style="stroke: #696969; stroke-width: 1.5;" x1="199" x2="222" y1="2571.7559" y2="2571.7559"/><polygon fill="#696969" points="212,2567.7559,222,2571.7559,212,2575.7559,216,2571.7559" style="stroke: #696969; stroke-width: 1.0;"/><line style="stroke: #696969; stroke-width: 1.5;" x1="118" x2="118" y1="2675.0186" y2="2707.9375"/><polygon fill="#696969" points="114,2697.9375,118,2707.9375,122,2697.9375,118,2701.9375" style="stroke: #696969; stroke-width: 1.0;"/><line style="stroke: #696969; stroke-width: 1.5;" x1="175" x2="198" y1="2656.1826" y2="2656.1826"/><polygon fill="#696969" points="188,2652.1826,198,2656.1826,188,2660.1826,192,2656.1826" style="stroke: #696969; stroke-width: 1.0;"/><text fill="#000080" font-family="sans-serif" font-size="14" lengthAdjust="spacingAndGlyphs" textLength="42" x="10" y="2756.5645">©2019</text><a href="http://www.lifestylesunlimited.com" target="_top" xlink:actuate="onRequest" xlink:show="new" xlink:title="http://www.lifestylesunlimited.com" xlink:type="simple"><text fill="#0000FF" font-family="sans-serif" font-size="14" lengthAdjust="spacingAndGlyphs" text-decoration="underline" textLength="122" x="56" y="2756.5645">LifeStyles Unlimited</text></a><text fill="#000080" font-family="sans-serif" font-size="14" lengthAdjust="spacingAndGlyphs" textLength="131" x="182" y="2756.5645">| Generated %date%</text><!--
@startuml evaluating


skinparam {
  BorderColor Red
  PathHoverColor Blue
}

skinparam Title {
  FontColor Navy
  BackgroundColor PaleGoldenRod
  BorderColor Navy
  BorderRoundCorner 20
  FontSize 24
}

skinparam activity {
  BackgroundColor Ivory
  BorderColor CornflowerBlue
  BorderThickness 1
  FontColor DimGray
  

  Arrow {
    Color dimgray
    FontColor dimgray
  }

  Start {
    Color PHYSICAL
  }

  End {
    Color Coral
  }

  Diamond {
    BackgroundColor Ivory
    BorderColor CornflowerBlue
    FontColor DarkGray
  }

  BackgroundColor<< Exception >> Red
	BorderColor<< Exception >> White
}

skinparam Swimlane {
  BorderColor CornflowerBlue 
}

skinparam Partition {
  BackgroundColor Ivory
  BorderColor CornflowerBlue
  BorderThickness 1
  FontColor CornflowerBlue
  FontSize 16
  BorderRoundCorner 20
}

skinparam Note {
  BackgroundColor LightSteelBlue
  BorderColor CornflowerBlue
  FontColor White
}

skinparam Legend {
  BackgroundColor LightSteelBlue
  BorderColor CornflowerBlue
  FontColor White
}

skinparam Footer {
  FontColor Navy
}


left header 
	<font color=Navy size=24>[[../index.svg?sanitize=true ⌂ Home]]</font>
endheader


	Title Evaluating (Analysis)

	start

	partition "Gather Information" {
		#PHYSICAL:<&dollar> purchase price]
		note right: offer full price
		#PHYSICAL:<&dollar> survey 350]
		note right: dfw $350
		#PHYSICAL:<&dollar> appraisal first closing 500]
		note right: hard money
		#PHYSICAL:<&dollar> appraisal second closing 500]
		note right: back-end lender
		:<&calculator> lending rate]
		note right: interest rate
		#PHYSICAL:<&dollar> hoa dues]
		note right: monthly
		#PHYSICAL:<&dollar> property taxes]
		note right: annual
		#PHYSICAL:<&dollar> insurance 500-700]
		note right: annual
		#PHYSICAL:<&dollar> rent]
		note right: can use zillow
		#PHYSICAL:<&calculator> escrow]
		note right
			quarterly cost
			(taxes + insurance) / 4
		end note
		#PHYSICAL:<&dollar> hard money loan amount]
		note right
			70% ARV
		end note
		#PHYSICAL:<&dollar> conventional loan amount]
		note right
			* 75% ARV
			* income to debt ratio: 
			   75% of rent - PITI = cashflow
		end note
		#PHYSICAL:<&dollar> hard money closing costs]		
		note right
			~ 7% of loan amount
		end note
		#PHYSICAL:<&dollar> conventional closing costs]		
		note right
			~ 5% of loan amount
		end note
	}

	partition "Calculate Rehab Cost" {
		note right: rehab all properties the same
		if(countertops) then (yes)
			#PHYSICAL:<&dollar> 150]
			note right:butcherblock
		else (no)
		endif
		
		if(carpet) then (yes)
			#PHYSICAL:<&dollar> 1.25 / sq ft]
			note right:avoid
		else (no)
		endif

		if(flooring) then (yes)
			#PHYSICAL:<&dollar> 1.69 / sq ft]
		else (no)
		endif

		if(bath / kitchen flooring) then (yes)
			#PHYSICAL:<&dollar> 3.50 / sq ft]
			note right:tile
		else (no)
		endif

		if(old hard wood flooring) then (yes)
			#PHYSICAL:<&dollar> resurface]
		else (no)
		endif

		if(paint) then (yes)
			#PHYSICAL:<&dollar> 1.85 / sq ft]
			note right
				* PPG
			end note
		else (no)
		endif

		if(appliances) then (yes)
			#PHYSICAL:<&dollar> range 360]
			#PHYSICAL:<&dollar> microwave 179]
			#PHYSICAL:<&dollar> dishwasher 259]
			note right
				HD Supply
				stainless steel
				<i>do not provide frig
			end note
			#PHYSICAL:<&dollar> installation $10]
			note right
				sears
			end note
		else (no)
		endif

		#PHYSICAL:<&dollar> foundation 0]
		note right
			assume ok for now
		end note

		#PHYSICAL:<&dollar> roof 0]
		note right
			assume ok for now
		end note
		#PHYSICAL:<&dollar> a/c unit 0]
		note right
			assume ok for now
		end note
	}

	if(income ok\n- - - -\n$200-600 / mo) then (no)
		stop
	else (yes)
	endif

	if(cost/sql ft ok\n- - - -\n< $88 / sq ft) then (no)
		stop
	else (yes)
	endif

	if(correct cash-on-cash return\n- - - -\nshould be 8-30 %\nnet of lending rate\n<i>inflation is 3-4 %) then(no)
		stop
	else (yes)
	endif

	if(correct equity gain\n- - - -\nshould be 100%) then(no)
		stop
	else (yes)
	endif

	:visit;


left footer 
	<font size=14>©2019 [[http://www.lifestylesunlimited.com LifeStyles Unlimited]] | Generated %date%</font>
endfooter


@enduml

PlantUML version 1.2019.06(Fri May 24 12:10:25 CDT 2019)
(GPL source distribution)
Java Runtime: Java(TM) SE Runtime Environment
JVM: Java HotSpot(TM) Client VM
Java Version: 1.8.0_211-b12
Operating System: Windows 10
OS Version: 10.0
Default Encoding: Cp1252
Language: en
Country: US
--></g></svg>