<?xml version="1.0" encoding="UTF-8" standalone="no"?><svg xmlns="http://www.w3.org/2000/svg" xmlns:xlink="http://www.w3.org/1999/xlink" contentScriptType="application/ecmascript" contentStyleType="text/css" height="403px" preserveAspectRatio="none" style="width:364px;height:403px;" version="1.1" viewBox="0 0 364 403" width="364px" zoomAndPan="magnify"><defs><style type="text/css"><![CDATA[path:hover { stroke: #0000FF !important;}]]></style><filter height="300%" id="f1x71wzwkkhvl6" width="300%" x="-1" y="-1"><feGaussianBlur result="blurOut" stdDeviation="2.0"/><feColorMatrix in="blurOut" result="blurOut2" type="matrix" values="0 0 0 0 0 0 0 0 0 0 0 0 0 0 0 0 0 0 .4 0"/><feOffset dx="4.0" dy="4.0" in="blurOut2" result="blurOut3"/><feBlend in="SourceGraphic" in2="blurOut3" mode="normal"/></filter></defs><g><a target="_top" xlink:actuate="onRequest" xlink:href="../index.svg" xlink:show="new" xlink:title="../index.svg" xlink:type="simple"><text fill="#0000FF" font-family="sans-serif" font-size="10" lengthAdjust="spacingAndGlyphs" text-decoration="underline" textLength="39" x="10" y="20.3809">⌂ Home</text><line style="stroke: #0000FF; stroke-width: 1.0;" x1="10" x2="49" y1="22.3809" y2="22.3809"/></a><rect fill="#EEE8AA" height="32.6406" rx="10" ry="10" style="stroke: #000080; stroke-width: 1.5;" width="183" x="89" y="24.5781"/><text fill="#000080" font-family="sans-serif" font-size="18" lengthAdjust="spacingAndGlyphs" textLength="167" x="97" y="48.2637">Evaluating (Analysis)</text><path d="M117.25,60.2188 L117.25,86.5703 L340.25,86.5703 L340.25,70.2188 L330.25,60.2188 L117.25,60.2188 " fill="#B0C4DE" filter="url(#f1x71wzwkkhvl6)" style="stroke: #6495ED; stroke-width: 1.0;"/><path d="M330.25,60.2188 L330.25,70.2188 L340.25,70.2188 L330.25,60.2188 " fill="#B0C4DE" style="stroke: #6495ED; stroke-width: 1.0;"/><text fill="#FFFFFF" font-family="sans-serif" font-size="13" lengthAdjust="spacingAndGlyphs" textLength="202" x="123.25" y="78.7139">comparative market analysis (cma)</text><ellipse cx="87.25" cy="73.3945" fill="#000080" filter="url(#f1x71wzwkkhvl6)" rx="10" ry="10" style="stroke: none; stroke-width: 1.0;"/><path d="M163.75,110.9414 L163.75,120.1172 L143.75,124.1172 L163.75,128.1172 L163.75,137.293 A0,0 0 0 0 163.75,137.293 L326.75,137.293 A0,0 0 0 0 326.75,137.293 L326.75,120.9414 L316.75,110.9414 L163.75,110.9414 A0,0 0 0 0 163.75,110.9414 " fill="#B0C4DE" filter="url(#f1x71wzwkkhvl6)" style="stroke: #6495ED; stroke-width: 1.0;"/><path d="M316.75,110.9414 L316.75,120.9414 L326.75,120.9414 L316.75,110.9414 " fill="#B0C4DE" style="stroke: #6495ED; stroke-width: 1.0;"/><text fill="#FFFFFF" font-family="sans-serif" font-size="13" lengthAdjust="spacingAndGlyphs" textLength="142" x="169.75" y="129.4365">should be $200-$600/mo</text><rect fill="#FFFFF0" filter="url(#f1x71wzwkkhvl6)" height="35.0938" rx="12.5" ry="12.5" style="stroke: #6495ED; stroke-width: 1.5;" width="113" x="30.75" y="106.5703"/><text fill="#A9A9A9" font-family="sans-serif" font-size="12" lengthAdjust="spacingAndGlyphs" textLength="93" x="40.75" y="129.0273">calculate income</text><rect fill="#FFFFF0" filter="url(#f1x71wzwkkhvl6)" height="35.0938" rx="12.5" ry="12.5" style="stroke: #6495ED; stroke-width: 1.5;" width="105" x="34.75" y="161.6641"/><text fill="#A9A9A9" font-family="sans-serif" font-size="12" lengthAdjust="spacingAndGlyphs" textLength="85" x="44.75" y="184.1211">get lending rate</text><path d="M156.75,206.7578 L156.75,242.2852 L136.75,246.2852 L156.75,250.2852 L156.75,285.8125 A0,0 0 0 0 156.75,285.8125 L280.75,285.8125 A0,0 0 0 0 280.75,285.8125 L280.75,216.7578 L270.75,206.7578 L156.75,206.7578 A0,0 0 0 0 156.75,206.7578 " fill="#B0C4DE" filter="url(#f1x71wzwkkhvl6)" style="stroke: #6495ED; stroke-width: 1.0;"/><path d="M270.75,206.7578 L270.75,216.7578 L280.75,216.7578 L270.75,206.7578 " fill="#B0C4DE" style="stroke: #6495ED; stroke-width: 1.0;"/><text fill="#FFFFFF" font-family="sans-serif" font-size="13" lengthAdjust="spacingAndGlyphs" textLength="103" x="162.75" y="225.2529">net of lending rate</text><line style="stroke: #6495ED; stroke-width: 1.0;" x1="156.75" x2="280.75" y1="233.1094" y2="233.1094"/><line style="stroke: #6495ED; stroke-width: 1.0;" x1="156.75" x2="280.75" y1="235.1094" y2="235.1094"/><text fill="#FFFFFF" font-family="sans-serif" font-size="13" lengthAdjust="spacingAndGlyphs" textLength="97" x="162.75" y="251.6045">should be 8-30%</text><line style="stroke: #6495ED; stroke-width: 1.0;" x1="156.75" x2="280.75" y1="259.4609" y2="259.4609"/><line style="stroke: #6495ED; stroke-width: 1.0;" x1="156.75" x2="280.75" y1="261.4609" y2="261.4609"/><text fill="#FFFFFF" font-family="sans-serif" font-size="13" lengthAdjust="spacingAndGlyphs" textLength="92" x="162.75" y="277.9561">inflation is 3-4%</text><rect fill="#FFFFF0" filter="url(#f1x71wzwkkhvl6)" height="35.0938" rx="12.5" ry="12.5" style="stroke: #6495ED; stroke-width: 1.5;" width="99" x="37.75" y="228.7383"/><text fill="#A9A9A9" font-family="sans-serif" font-size="12" lengthAdjust="spacingAndGlyphs" textLength="79" x="47.75" y="251.1953">calculate COC</text><path d="M172.75,310.1836 L172.75,319.3594 L152.75,323.3594 L172.75,327.3594 L172.75,336.5352 A0,0 0 0 0 172.75,336.5352 L286.75,336.5352 A0,0 0 0 0 286.75,336.5352 L286.75,320.1836 L276.75,310.1836 L172.75,310.1836 A0,0 0 0 0 172.75,310.1836 " fill="#B0C4DE" filter="url(#f1x71wzwkkhvl6)" style="stroke: #6495ED; stroke-width: 1.0;"/><path d="M276.75,310.1836 L276.75,320.1836 L286.75,320.1836 L276.75,310.1836 " fill="#B0C4DE" style="stroke: #6495ED; stroke-width: 1.0;"/><text fill="#FFFFFF" font-family="sans-serif" font-size="13" lengthAdjust="spacingAndGlyphs" textLength="93" x="178.75" y="328.6787">should be 100%</text><rect fill="#FFFFF0" filter="url(#f1x71wzwkkhvl6)" height="35.0938" rx="12.5" ry="12.5" style="stroke: #6495ED; stroke-width: 1.5;" width="131" x="21.75" y="305.8125"/><text fill="#A9A9A9" font-family="sans-serif" font-size="12" lengthAdjust="spacingAndGlyphs" textLength="111" x="31.75" y="328.2695">calculate equity gain</text><ellipse cx="87.25" cy="370.9063" fill="#FFFFFF" filter="url(#f1x71wzwkkhvl6)" rx="10" ry="10" style="stroke: #FF0000; stroke-width: 1.5;"/><line style="stroke: #FF0000; stroke-width: 2.5;" x1="81.0628" x2="93.4372" y1="364.7191" y2="377.0934"/><line style="stroke: #FF0000; stroke-width: 2.5;" x1="93.4372" x2="81.0628" y1="364.7191" y2="377.0934"/><line style="stroke: #696969; stroke-width: 1.5;" x1="87.25" x2="87.25" y1="83.3945" y2="106.5703"/><polygon fill="#696969" points="83.25,96.5703,87.25,106.5703,91.25,96.5703,87.25,100.5703" style="stroke: #696969; stroke-width: 1.0;"/><line style="stroke: #696969; stroke-width: 1.5;" x1="87.25" x2="87.25" y1="141.6641" y2="161.6641"/><polygon fill="#696969" points="83.25,151.6641,87.25,161.6641,91.25,151.6641,87.25,155.6641" style="stroke: #696969; stroke-width: 1.0;"/><line style="stroke: #696969; stroke-width: 1.5;" x1="87.25" x2="87.25" y1="196.7578" y2="228.7383"/><polygon fill="#696969" points="83.25,218.7383,87.25,228.7383,91.25,218.7383,87.25,222.7383" style="stroke: #696969; stroke-width: 1.0;"/><line style="stroke: #696969; stroke-width: 1.5;" x1="87.25" x2="87.25" y1="263.832" y2="305.8125"/><polygon fill="#696969" points="83.25,295.8125,87.25,305.8125,91.25,295.8125,87.25,299.8125" style="stroke: #696969; stroke-width: 1.0;"/><line style="stroke: #696969; stroke-width: 1.5;" x1="87.25" x2="87.25" y1="340.9063" y2="360.9063"/><polygon fill="#696969" points="83.25,350.9063,87.25,360.9063,91.25,350.9063,87.25,354.9063" style="stroke: #696969; stroke-width: 1.0;"/><text fill="#000080" font-family="sans-serif" font-size="10" lengthAdjust="spacingAndGlyphs" textLength="31" x="10" y="390.2871">©2019</text><a target="_top" xlink:actuate="onRequest" xlink:href="http://www.lifestylesunlimited.com" xlink:show="new" xlink:title="http://www.lifestylesunlimited.com" xlink:type="simple"><text fill="#0000FF" font-family="sans-serif" font-size="10" lengthAdjust="spacingAndGlyphs" text-decoration="underline" textLength="95" x="44" y="390.2871">LifeStyles Unlimited</text><line style="stroke: #0000FF; stroke-width: 1.0;" x1="44" x2="139" y1="392.2871" y2="392.2871"/></a><text fill="#000080" font-family="sans-serif" font-size="10" lengthAdjust="spacingAndGlyphs" textLength="210" x="142" y="390.2871">| Generated Mon Apr 15 12:34:05 CDT 2019</text><!--
@startuml evaluating


skinparam {
  BorderColor Red
  PathHoverColor Blue
}

skinparam Title {
  FontColor Navy
  BackgroundColor PaleGoldenRod
  BorderColor Navy
  BorderRoundCorner 20
}

skinparam activity {
  BackgroundColor Ivory
  BorderColor CornflowerBlue
  FontColor DarkGray

  Arrow {
    Color dimgray
    FontColor dimgray
  }

  Start {
    Color Navy
  }

  End {
    Color Red
  }

  Diamond {
    BackgroundColor Ivory
    BorderColor CornflowerBlue
    FontColor DarkGray
  }

  BackgroundColor<< Exception >> Red
	BorderColor<< Exception >> White
}

skinparam Swimlane {
  BorderColor CornflowerBlue 
}

skinparam Partition {
  BackgroundColor DarkSeaGreen
  BorderColor CornflowerBlue
  BorderThickness 1
  FontColor White
  FontSize 16
}
skinparam Note {
  BackgroundColor LightSteelBlue
  BorderColor CornflowerBlue
  FontColor White
}

skinparam Footer {
  FontColor Navy
}


left header 
	<font color=Navy>[[../index.svg ⌂ Home]]</font>
endheader


	Title Evaluating (Analysis)

	start

	floating note right: comparative market analysis (cma)

	:calculate income;
	note right
		should be $200-$600/mo
	end note

	:get lending rate;

	:calculate COC;
	note right
		net of lending rate
		====
		should be 8-30%
		====
		inflation is 3-4%
	end note

	:calculate equity gain;
	note right: should be 100%

	end

left footer 
	©2019 [[http://www.lifestylesunlimited.com LifeStyles Unlimited]] | Generated Mon Apr 15 12:34:05 CDT 2019
endfooter


@enduml

PlantUML version 1.2019.03(Sun Mar 10 06:04:44 CDT 2019)
(GPL source distribution)
Java Runtime: Java(TM) SE Runtime Environment
JVM: Java HotSpot(TM) 64-Bit Server VM
Java Version: 1.8.0_201-b09
Operating System: Windows 10
OS Version: 10.0
Default Encoding: Cp1252
Language: en
Country: US
--></g></svg>