<?xml version="1.0" encoding="UTF-8" standalone="no"?><svg xmlns="http://www.w3.org/2000/svg" xmlns:xlink="http://www.w3.org/1999/xlink" contentScriptType="application/ecmascript" contentStyleType="text/css" height="2337px" preserveAspectRatio="none" style="width:600px;height:2337px;" version="1.1" viewBox="0 0 600 2337" width="600px" zoomAndPan="magnify"><defs><style type="text/css"><![CDATA[path:hover { stroke: #0000FF !important;}]]></style><filter height="300%" id="fa6e3j3prc7m3" width="300%" x="-1" y="-1"><feGaussianBlur result="blurOut" stdDeviation="2.0"/><feColorMatrix in="blurOut" result="blurOut2" type="matrix" values="0 0 0 0 0 0 0 0 0 0 0 0 0 0 0 0 0 0 .4 0"/><feOffset dx="4.0" dy="4.0" in="blurOut2" result="blurOut3"/><feBlend in="SourceGraphic" in2="blurOut3" mode="normal"/></filter></defs><g><a target="_top" xlink:actuate="onRequest" xlink:href="../index.svg?sanitize=true" xlink:show="new" xlink:title="../index.svg?sanitize=true" xlink:type="simple"><text fill="#0000FF" font-family="sans-serif" font-size="24" lengthAdjust="spacingAndGlyphs" text-decoration="underline" textLength="90" x="10" y="34.9141">⌂ Home</text><line style="stroke: #0000FF; stroke-width: 1.0;" x1="10" x2="100" y1="36.9141" y2="36.9141"/></a><rect fill="#EEE8AA" height="40.1875" rx="10" ry="10" style="stroke: #000080; stroke-width: 1.5;" width="241" x="178" y="42.1875"/><text fill="#000080" font-family="sans-serif" font-size="24" lengthAdjust="spacingAndGlyphs" textLength="225" x="186" y="72.1016">Evaluating (Analysis)</text><ellipse cx="118" cy="95.375" fill="#CCFFCC" filter="url(#fa6e3j3prc7m3)" rx="10" ry="10" style="stroke: none; stroke-width: 1.0;"/><rect fill="#FFFFF0" filter="url(#fa6e3j3prc7m3)" height="807.2422" style="stroke: #6495ED; stroke-width: 1.0;" width="368" x="10" y="116.3906"/><path d="M147,117.3906 L147,129.5156 L137,139.5156 L10,139.5156 " fill="none" style="stroke: #6495ED; stroke-width: 1.0;"/><text fill="#6495ED" font-family="sans-serif" font-size="16" lengthAdjust="spacingAndGlyphs" textLength="127" x="13" y="134">Gather Information</text><path d="M195.5,160.8867 L195.5,170.0625 L175.5,174.0625 L195.5,178.0625 L195.5,187.2383 A0,0 0 0 0 195.5,187.2383 L292.5,187.2383 A0,0 0 0 0 292.5,187.2383 L292.5,170.8867 L282.5,160.8867 L195.5,160.8867 A0,0 0 0 0 195.5,160.8867 " fill="#B0C4DE" filter="url(#fa6e3j3prc7m3)" style="stroke: #6495ED; stroke-width: 1.0;"/><path d="M282.5,160.8867 L282.5,170.8867 L292.5,170.8867 L282.5,160.8867 " fill="#B0C4DE" style="stroke: #6495ED; stroke-width: 1.0;"/><text fill="#FFFFFF" font-family="sans-serif" font-size="13" lengthAdjust="spacingAndGlyphs" textLength="76" x="201.5" y="179.3818">offer full price</text><rect fill="#CCFFCC" filter="url(#fa6e3j3prc7m3)" height="35.0938" style="stroke: #6495ED; stroke-width: 1.0;" width="115" x="60.5" y="156.5156"/><path d="M74.5,170.6094 L74.5,171.6094 L73.75,171.6094 C73.064,171.6094 72.5,172.1734 72.5,172.8594 L72.5,173.3594 C72.5,174.0374 72.937,174.6014 73.594,174.7654 L76.157,175.4214 C76.3,175.4574 76.501,175.7174 76.501,175.8594 L76.501,176.3594 C76.501,176.4934 76.385,176.6094 76.251,176.6094 L73.751,176.6094 C73.635,176.6094 73.539,176.5724 73.501,176.5464 L73.501,175.6084 L72.501,175.6084 L72.501,176.6084 C72.501,176.9504 72.704,177.2354 72.939,177.3894 C73.173,177.5444 73.457,177.6084 73.752,177.6084 L74.502,177.6084 L74.502,178.6084 L75.502,178.6084 L75.502,177.6084 L76.252,177.6084 C76.938,177.6084 77.502,177.0444 77.502,176.3584 L77.502,175.8584 C77.502,175.1804 77.065,174.6164 76.408,174.4524 L73.845,173.7964 C73.702,173.7604 73.501,173.5004 73.501,173.3584 L73.501,172.8584 C73.501,172.7244 73.617,172.6084 73.751,172.6084 L76.251,172.6084 C76.367,172.6084 76.463,172.6454 76.501,172.6714 L76.501,173.6094 L77.501,173.6094 L77.501,172.6094 C77.501,172.2674 77.298,171.9824 77.063,171.8284 C76.829,171.6734 76.545,171.6094 76.25,171.6094 L75.5,171.6094 L75.5,170.6094 L74.5,170.6094 " fill="#696969" style="stroke: ; stroke-width: 0.0; stroke-dasharray: ;"/><text fill="#696969" font-family="sans-serif" font-size="12" lengthAdjust="spacingAndGlyphs" textLength="82" x="83.5" y="178.9727">purchase price</text><path d="M184,215.9805 L184,225.1563 L164,229.1563 L184,233.1563 L184,242.332 A0,0 0 0 0 184,242.332 L256,242.332 A0,0 0 0 0 256,242.332 L256,225.9805 L246,215.9805 L184,215.9805 A0,0 0 0 0 184,215.9805 " fill="#B0C4DE" filter="url(#fa6e3j3prc7m3)" style="stroke: #6495ED; stroke-width: 1.0;"/><path d="M246,215.9805 L246,225.9805 L256,225.9805 L246,215.9805 " fill="#B0C4DE" style="stroke: #6495ED; stroke-width: 1.0;"/><text fill="#FFFFFF" font-family="sans-serif" font-size="13" lengthAdjust="spacingAndGlyphs" textLength="51" x="190" y="234.4756">dfw $350</text><rect fill="#CCFFCC" filter="url(#fa6e3j3prc7m3)" height="35.0938" style="stroke: #6495ED; stroke-width: 1.0;" width="92" x="72" y="211.6094"/><path d="M86,225.7031 L86,226.7031 L85.25,226.7031 C84.564,226.7031 84,227.2671 84,227.9531 L84,228.4531 C84,229.1311 84.437,229.6951 85.094,229.8591 L87.657,230.5151 C87.8,230.5511 88.001,230.8111 88.001,230.9531 L88.001,231.4531 C88.001,231.5871 87.885,231.7031 87.751,231.7031 L85.251,231.7031 C85.135,231.7031 85.039,231.6661 85.001,231.6401 L85.001,230.7021 L84.001,230.7021 L84.001,231.7021 C84.001,232.0441 84.204,232.3291 84.439,232.4831 C84.673,232.6381 84.957,232.7021 85.252,232.7021 L86.002,232.7021 L86.002,233.7021 L87.002,233.7021 L87.002,232.7021 L87.752,232.7021 C88.438,232.7021 89.002,232.1381 89.002,231.4521 L89.002,230.9521 C89.002,230.2741 88.565,229.7101 87.908,229.5461 L85.345,228.8901 C85.202,228.8541 85.001,228.5941 85.001,228.4521 L85.001,227.9521 C85.001,227.8181 85.117,227.7021 85.251,227.7021 L87.751,227.7021 C87.867,227.7021 87.963,227.7391 88.001,227.7651 L88.001,228.7031 L89.001,228.7031 L89.001,227.7031 C89.001,227.3611 88.798,227.0761 88.563,226.9221 C88.329,226.7671 88.045,226.7031 87.75,226.7031 L87,226.7031 L87,225.7031 L86,225.7031 " fill="#696969" style="stroke: ; stroke-width: 0.0; stroke-dasharray: ;"/><text fill="#696969" font-family="sans-serif" font-size="12" lengthAdjust="spacingAndGlyphs" textLength="59" x="95" y="234.0664">survey 350</text><path d="M225.5,271.0742 L225.5,280.25 L205.5,284.25 L225.5,288.25 L225.5,297.4258 A0,0 0 0 0 225.5,297.4258 L314.5,297.4258 A0,0 0 0 0 314.5,297.4258 L314.5,281.0742 L304.5,271.0742 L225.5,271.0742 A0,0 0 0 0 225.5,271.0742 " fill="#B0C4DE" filter="url(#fa6e3j3prc7m3)" style="stroke: #6495ED; stroke-width: 1.0;"/><path d="M304.5,271.0742 L304.5,281.0742 L314.5,281.0742 L304.5,271.0742 " fill="#B0C4DE" style="stroke: #6495ED; stroke-width: 1.0;"/><text fill="#FFFFFF" font-family="sans-serif" font-size="13" lengthAdjust="spacingAndGlyphs" textLength="68" x="231.5" y="289.5693">hard money</text><rect fill="#CCFFCC" filter="url(#fa6e3j3prc7m3)" height="35.0938" style="stroke: #6495ED; stroke-width: 1.0;" width="175" x="30.5" y="266.7031"/><path d="M44.5,280.7969 L44.5,281.7969 L43.75,281.7969 C43.064,281.7969 42.5,282.3609 42.5,283.0469 L42.5,283.5469 C42.5,284.2249 42.937,284.7889 43.594,284.9529 L46.157,285.6089 C46.3,285.6449 46.501,285.9049 46.501,286.0469 L46.501,286.5469 C46.501,286.6809 46.385,286.7969 46.251,286.7969 L43.751,286.7969 C43.635,286.7969 43.539,286.7599 43.501,286.7339 L43.501,285.7959 L42.501,285.7959 L42.501,286.7959 C42.501,287.1379 42.704,287.4229 42.939,287.5769 C43.173,287.7319 43.457,287.7959 43.752,287.7959 L44.502,287.7959 L44.502,288.7959 L45.502,288.7959 L45.502,287.7959 L46.252,287.7959 C46.938,287.7959 47.502,287.2319 47.502,286.5459 L47.502,286.0459 C47.502,285.3679 47.065,284.8039 46.408,284.6399 L43.845,283.9839 C43.702,283.9479 43.501,283.6879 43.501,283.5459 L43.501,283.0459 C43.501,282.9119 43.617,282.7959 43.751,282.7959 L46.251,282.7959 C46.367,282.7959 46.463,282.8329 46.501,282.8589 L46.501,283.7969 L47.501,283.7969 L47.501,282.7969 C47.501,282.4549 47.298,282.1699 47.063,282.0159 C46.829,281.8609 46.545,281.7969 46.25,281.7969 L45.5,281.7969 L45.5,280.7969 L44.5,280.7969 " fill="#696969" style="stroke: ; stroke-width: 0.0; stroke-dasharray: ;"/><text fill="#696969" font-family="sans-serif" font-size="12" lengthAdjust="spacingAndGlyphs" textLength="142" x="53.5" y="289.1602">appraisal first closing 500</text><path d="M236,326.168 L236,335.3438 L216,339.3438 L236,343.3438 L236,352.5195 A0,0 0 0 0 236,352.5195 L349,352.5195 A0,0 0 0 0 349,352.5195 L349,336.168 L339,326.168 L236,326.168 A0,0 0 0 0 236,326.168 " fill="#B0C4DE" filter="url(#fa6e3j3prc7m3)" style="stroke: #6495ED; stroke-width: 1.0;"/><path d="M339,326.168 L339,336.168 L349,336.168 L339,326.168 " fill="#B0C4DE" style="stroke: #6495ED; stroke-width: 1.0;"/><text fill="#FFFFFF" font-family="sans-serif" font-size="13" lengthAdjust="spacingAndGlyphs" textLength="92" x="242" y="344.6631">back-end lender</text><rect fill="#CCFFCC" filter="url(#fa6e3j3prc7m3)" height="35.0938" style="stroke: #6495ED; stroke-width: 1.0;" width="196" x="20" y="321.7969"/><path d="M34,335.8906 L34,336.8906 L33.25,336.8906 C32.564,336.8906 32,337.4546 32,338.1406 L32,338.6406 C32,339.3186 32.437,339.8826 33.094,340.0466 L35.657,340.7026 C35.8,340.7386 36.001,340.9986 36.001,341.1406 L36.001,341.6406 C36.001,341.7746 35.885,341.8906 35.751,341.8906 L33.251,341.8906 C33.135,341.8906 33.039,341.8536 33.001,341.8276 L33.001,340.8896 L32.001,340.8896 L32.001,341.8896 C32.001,342.2316 32.204,342.5166 32.439,342.6706 C32.673,342.8256 32.957,342.8896 33.252,342.8896 L34.002,342.8896 L34.002,343.8896 L35.002,343.8896 L35.002,342.8896 L35.752,342.8896 C36.438,342.8896 37.002,342.3256 37.002,341.6396 L37.002,341.1396 C37.002,340.4616 36.565,339.8976 35.908,339.7336 L33.345,339.0776 C33.202,339.0416 33.001,338.7816 33.001,338.6396 L33.001,338.1396 C33.001,338.0056 33.117,337.8896 33.251,337.8896 L35.751,337.8896 C35.867,337.8896 35.963,337.9266 36.001,337.9526 L36.001,338.8906 L37.001,338.8906 L37.001,337.8906 C37.001,337.5486 36.798,337.2636 36.563,337.1096 C36.329,336.9546 36.045,336.8906 35.75,336.8906 L35,336.8906 L35,335.8906 L34,335.8906 " fill="#696969" style="stroke: ; stroke-width: 0.0; stroke-dasharray: ;"/><text fill="#696969" font-family="sans-serif" font-size="12" lengthAdjust="spacingAndGlyphs" textLength="163" x="43" y="344.2539">appraisal second closing 500</text><path d="M187,381.2617 L187,390.4375 L167,394.4375 L187,398.4375 L187,407.6133 A0,0 0 0 0 187,407.6133 L277,407.6133 A0,0 0 0 0 277,407.6133 L277,391.2617 L267,381.2617 L187,381.2617 A0,0 0 0 0 187,381.2617 " fill="#B0C4DE" filter="url(#fa6e3j3prc7m3)" style="stroke: #6495ED; stroke-width: 1.0;"/><path d="M267,381.2617 L267,391.2617 L277,391.2617 L267,381.2617 " fill="#B0C4DE" style="stroke: #6495ED; stroke-width: 1.0;"/><text fill="#FFFFFF" font-family="sans-serif" font-size="13" lengthAdjust="spacingAndGlyphs" textLength="69" x="193" y="399.7568">interest rate</text><rect fill="#FFFFF0" filter="url(#fa6e3j3prc7m3)" height="35.0938" style="stroke: #6495ED; stroke-width: 1.0;" width="98" x="69" y="376.8906"/><path d="M80.094,390.9844 C80.034,390.9844 80,391.0184 80,391.0784 L80,398.8914 C80,398.9514 80.034,398.9854 80.094,398.9854 L86.907,398.9854 C86.967,398.9854 87.001,398.9514 87.001,398.8914 L87.001,391.0784 C87.001,391.0184 86.967,390.9844 86.907,390.9844 L80.094,390.9844 M81,391.9844 L86,391.9844 L86,393.9844 L81,393.9844 L81,391.9844 M81,394.9844 L82,394.9844 L82,395.9844 L81,395.9844 L81,394.9844 M83,394.9844 L84,394.9844 L84,395.9844 L83,395.9844 L83,394.9844 M85,394.9844 L86,394.9844 L86,397.9844 L85,397.9844 L85,394.9844 M81,396.9844 L82,396.9844 L82,397.9844 L81,397.9844 L81,396.9844 M83,396.9844 L84,396.9844 L84,397.9844 L83,397.9844 L83,396.9844 " fill="#696969" style="stroke: ; stroke-width: 0.0; stroke-dasharray: ;"/><text fill="#696969" font-family="sans-serif" font-size="12" lengthAdjust="spacingAndGlyphs" textLength="65" x="92" y="399.3477">lending rate</text><path d="M180.5,436.3555 L180.5,445.5313 L160.5,449.5313 L180.5,453.5313 L180.5,462.707 A0,0 0 0 0 180.5,462.707 L247.5,462.707 A0,0 0 0 0 247.5,462.707 L247.5,446.3555 L237.5,436.3555 L180.5,436.3555 A0,0 0 0 0 180.5,436.3555 " fill="#B0C4DE" filter="url(#fa6e3j3prc7m3)" style="stroke: #6495ED; stroke-width: 1.0;"/><path d="M237.5,436.3555 L237.5,446.3555 L247.5,446.3555 L237.5,436.3555 " fill="#B0C4DE" style="stroke: #6495ED; stroke-width: 1.0;"/><text fill="#FFFFFF" font-family="sans-serif" font-size="13" lengthAdjust="spacingAndGlyphs" textLength="46" x="186.5" y="454.8506">monthly</text><rect fill="#CCFFCC" filter="url(#fa6e3j3prc7m3)" height="35.0938" style="stroke: #6495ED; stroke-width: 1.0;" width="85" x="75.5" y="431.9844"/><path d="M89.5,446.0781 L89.5,447.0781 L88.75,447.0781 C88.064,447.0781 87.5,447.6421 87.5,448.3281 L87.5,448.8281 C87.5,449.5061 87.937,450.0701 88.594,450.2341 L91.157,450.8901 C91.3,450.9261 91.501,451.1861 91.501,451.3281 L91.501,451.8281 C91.501,451.9621 91.385,452.0781 91.251,452.0781 L88.751,452.0781 C88.635,452.0781 88.539,452.0411 88.501,452.0151 L88.501,451.0771 L87.501,451.0771 L87.501,452.0771 C87.501,452.4191 87.704,452.7041 87.939,452.8581 C88.173,453.0131 88.457,453.0771 88.752,453.0771 L89.502,453.0771 L89.502,454.0771 L90.502,454.0771 L90.502,453.0771 L91.252,453.0771 C91.938,453.0771 92.502,452.5131 92.502,451.8271 L92.502,451.3271 C92.502,450.6491 92.065,450.0851 91.408,449.9211 L88.845,449.2651 C88.702,449.2291 88.501,448.9691 88.501,448.8271 L88.501,448.3271 C88.501,448.1931 88.617,448.0771 88.751,448.0771 L91.251,448.0771 C91.367,448.0771 91.463,448.1141 91.501,448.1401 L91.501,449.0781 L92.501,449.0781 L92.501,448.0781 C92.501,447.7361 92.298,447.4511 92.063,447.2971 C91.829,447.1421 91.545,447.0781 91.25,447.0781 L90.5,447.0781 L90.5,446.0781 L89.5,446.0781 " fill="#696969" style="stroke: ; stroke-width: 0.0; stroke-dasharray: ;"/><text fill="#696969" font-family="sans-serif" font-size="12" lengthAdjust="spacingAndGlyphs" textLength="52" x="98.5" y="454.4414">hoa dues</text><path d="M192.5,491.4492 L192.5,500.625 L172.5,504.625 L192.5,508.625 L192.5,517.8008 A0,0 0 0 0 192.5,517.8008 L251.5,517.8008 A0,0 0 0 0 251.5,517.8008 L251.5,501.4492 L241.5,491.4492 L192.5,491.4492 A0,0 0 0 0 192.5,491.4492 " fill="#B0C4DE" filter="url(#fa6e3j3prc7m3)" style="stroke: #6495ED; stroke-width: 1.0;"/><path d="M241.5,491.4492 L241.5,501.4492 L251.5,501.4492 L241.5,491.4492 " fill="#B0C4DE" style="stroke: #6495ED; stroke-width: 1.0;"/><text fill="#FFFFFF" font-family="sans-serif" font-size="13" lengthAdjust="spacingAndGlyphs" textLength="38" x="198.5" y="509.9443">annual</text><rect fill="#CCFFCC" filter="url(#fa6e3j3prc7m3)" height="35.0938" style="stroke: #6495ED; stroke-width: 1.0;" width="109" x="63.5" y="487.0781"/><path d="M77.5,501.1719 L77.5,502.1719 L76.75,502.1719 C76.064,502.1719 75.5,502.7359 75.5,503.4219 L75.5,503.9219 C75.5,504.5999 75.937,505.1639 76.594,505.3279 L79.157,505.9839 C79.3,506.0199 79.501,506.2799 79.501,506.4219 L79.501,506.9219 C79.501,507.0559 79.385,507.1719 79.251,507.1719 L76.751,507.1719 C76.635,507.1719 76.539,507.1349 76.501,507.1089 L76.501,506.1709 L75.501,506.1709 L75.501,507.1709 C75.501,507.5129 75.704,507.7979 75.939,507.9519 C76.173,508.1069 76.457,508.1709 76.752,508.1709 L77.502,508.1709 L77.502,509.1709 L78.502,509.1709 L78.502,508.1709 L79.252,508.1709 C79.938,508.1709 80.502,507.6069 80.502,506.9209 L80.502,506.4209 C80.502,505.7429 80.065,505.1789 79.408,505.0149 L76.845,504.3589 C76.702,504.3229 76.501,504.0629 76.501,503.9209 L76.501,503.4209 C76.501,503.2869 76.617,503.1709 76.751,503.1709 L79.251,503.1709 C79.367,503.1709 79.463,503.2079 79.501,503.2339 L79.501,504.1719 L80.501,504.1719 L80.501,503.1719 C80.501,502.8299 80.298,502.5449 80.063,502.3909 C79.829,502.2359 79.545,502.1719 79.25,502.1719 L78.5,502.1719 L78.5,501.1719 L77.5,501.1719 " fill="#696969" style="stroke: ; stroke-width: 0.0; stroke-dasharray: ;"/><text fill="#696969" font-family="sans-serif" font-size="12" lengthAdjust="spacingAndGlyphs" textLength="76" x="86.5" y="509.5352">property taxes</text><path d="M206.5,546.543 L206.5,555.7188 L186.5,559.7188 L206.5,563.7188 L206.5,572.8945 A0,0 0 0 0 206.5,572.8945 L265.5,572.8945 A0,0 0 0 0 265.5,572.8945 L265.5,556.543 L255.5,546.543 L206.5,546.543 A0,0 0 0 0 206.5,546.543 " fill="#B0C4DE" filter="url(#fa6e3j3prc7m3)" style="stroke: #6495ED; stroke-width: 1.0;"/><path d="M255.5,546.543 L255.5,556.543 L265.5,556.543 L255.5,546.543 " fill="#B0C4DE" style="stroke: #6495ED; stroke-width: 1.0;"/><text fill="#FFFFFF" font-family="sans-serif" font-size="13" lengthAdjust="spacingAndGlyphs" textLength="38" x="212.5" y="565.0381">annual</text><rect fill="#CCFFCC" filter="url(#fa6e3j3prc7m3)" height="35.0938" style="stroke: #6495ED; stroke-width: 1.0;" width="137" x="49.5" y="542.1719"/><path d="M63.5,556.2656 L63.5,557.2656 L62.75,557.2656 C62.064,557.2656 61.5,557.8296 61.5,558.5156 L61.5,559.0156 C61.5,559.6936 61.937,560.2576 62.594,560.4216 L65.157,561.0776 C65.3,561.1136 65.501,561.3736 65.501,561.5156 L65.501,562.0156 C65.501,562.1496 65.385,562.2656 65.251,562.2656 L62.751,562.2656 C62.635,562.2656 62.539,562.2286 62.501,562.2026 L62.501,561.2646 L61.501,561.2646 L61.501,562.2646 C61.501,562.6066 61.704,562.8916 61.939,563.0456 C62.173,563.2006 62.457,563.2646 62.752,563.2646 L63.502,563.2646 L63.502,564.2646 L64.502,564.2646 L64.502,563.2646 L65.252,563.2646 C65.938,563.2646 66.502,562.7006 66.502,562.0146 L66.502,561.5146 C66.502,560.8366 66.065,560.2726 65.408,560.1086 L62.845,559.4526 C62.702,559.4166 62.501,559.1566 62.501,559.0146 L62.501,558.5146 C62.501,558.3806 62.617,558.2646 62.751,558.2646 L65.251,558.2646 C65.367,558.2646 65.463,558.3016 65.501,558.3276 L65.501,559.2656 L66.501,559.2656 L66.501,558.2656 C66.501,557.9236 66.298,557.6386 66.063,557.4846 C65.829,557.3296 65.545,557.2656 65.25,557.2656 L64.5,557.2656 L64.5,556.2656 L63.5,556.2656 " fill="#696969" style="stroke: ; stroke-width: 0.0; stroke-dasharray: ;"/><text fill="#696969" font-family="sans-serif" font-size="12" lengthAdjust="spacingAndGlyphs" textLength="104" x="72.5" y="564.6289">insurance 500-700</text><path d="M165,601.6367 L165,610.8125 L145,614.8125 L165,618.8125 L165,627.9883 A0,0 0 0 0 165,627.9883 L268,627.9883 A0,0 0 0 0 268,627.9883 L268,611.6367 L258,601.6367 L165,601.6367 A0,0 0 0 0 165,601.6367 " fill="#B0C4DE" filter="url(#fa6e3j3prc7m3)" style="stroke: #6495ED; stroke-width: 1.0;"/><path d="M258,601.6367 L258,611.6367 L268,611.6367 L258,601.6367 " fill="#B0C4DE" style="stroke: #6495ED; stroke-width: 1.0;"/><text fill="#FFFFFF" font-family="sans-serif" font-size="13" lengthAdjust="spacingAndGlyphs" textLength="82" x="171" y="620.1318">can use zillow</text><rect fill="#CCFFCC" filter="url(#fa6e3j3prc7m3)" height="35.0938" style="stroke: #6495ED; stroke-width: 1.0;" width="54" x="91" y="597.2656"/><path d="M105,611.3594 L105,612.3594 L104.25,612.3594 C103.564,612.3594 103,612.9234 103,613.6094 L103,614.1094 C103,614.7874 103.437,615.3514 104.094,615.5154 L106.657,616.1714 C106.8,616.2074 107.001,616.4674 107.001,616.6094 L107.001,617.1094 C107.001,617.2434 106.885,617.3594 106.751,617.3594 L104.251,617.3594 C104.135,617.3594 104.039,617.3224 104.001,617.2964 L104.001,616.3584 L103.001,616.3584 L103.001,617.3584 C103.001,617.7004 103.204,617.9854 103.439,618.1394 C103.673,618.2944 103.957,618.3584 104.252,618.3584 L105.002,618.3584 L105.002,619.3584 L106.002,619.3584 L106.002,618.3584 L106.752,618.3584 C107.438,618.3584 108.002,617.7944 108.002,617.1084 L108.002,616.6084 C108.002,615.9304 107.565,615.3664 106.908,615.2024 L104.345,614.5464 C104.202,614.5104 104.001,614.2504 104.001,614.1084 L104.001,613.6084 C104.001,613.4744 104.117,613.3584 104.251,613.3584 L106.751,613.3584 C106.867,613.3584 106.963,613.3954 107.001,613.4214 L107.001,614.3594 L108.001,614.3594 L108.001,613.3594 C108.001,613.0174 107.798,612.7324 107.563,612.5784 C107.329,612.4234 107.045,612.3594 106.75,612.3594 L106,612.3594 L106,611.3594 L105,611.3594 " fill="#696969" style="stroke: ; stroke-width: 0.0; stroke-dasharray: ;"/><text fill="#696969" font-family="sans-serif" font-size="12" lengthAdjust="spacingAndGlyphs" textLength="21" x="114" y="619.7227">rent</text><path d="M174.5,648.5547 L174.5,665.9063 L154.5,669.9063 L174.5,673.9063 L174.5,691.2578 A0,0 0 0 0 174.5,691.2578 L326.5,691.2578 A0,0 0 0 0 326.5,691.2578 L326.5,658.5547 L316.5,648.5547 L174.5,648.5547 A0,0 0 0 0 174.5,648.5547 " fill="#B0C4DE" filter="url(#fa6e3j3prc7m3)" style="stroke: #6495ED; stroke-width: 1.0;"/><path d="M316.5,648.5547 L316.5,658.5547 L326.5,658.5547 L316.5,648.5547 " fill="#B0C4DE" style="stroke: #6495ED; stroke-width: 1.0;"/><text fill="#FFFFFF" font-family="sans-serif" font-size="13" lengthAdjust="spacingAndGlyphs" textLength="79" x="180.5" y="667.0498">quarterly cost</text><text fill="#FFFFFF" font-family="sans-serif" font-size="13" lengthAdjust="spacingAndGlyphs" textLength="131" x="180.5" y="683.4014">(taxes + insurance) / 4</text><rect fill="#CCFFCC" filter="url(#fa6e3j3prc7m3)" height="35.0938" style="stroke: #6495ED; stroke-width: 1.0;" width="73" x="81.5" y="652.3594"/><path d="M92.594,666.4531 C92.534,666.4531 92.5,666.4871 92.5,666.5471 L92.5,674.3601 C92.5,674.4201 92.534,674.4541 92.594,674.4541 L99.407,674.4541 C99.467,674.4541 99.501,674.4201 99.501,674.3601 L99.501,666.5471 C99.501,666.4871 99.467,666.4531 99.407,666.4531 L92.594,666.4531 M93.5,667.4531 L98.5,667.4531 L98.5,669.4531 L93.5,669.4531 L93.5,667.4531 M93.5,670.4531 L94.5,670.4531 L94.5,671.4531 L93.5,671.4531 L93.5,670.4531 M95.5,670.4531 L96.5,670.4531 L96.5,671.4531 L95.5,671.4531 L95.5,670.4531 M97.5,670.4531 L98.5,670.4531 L98.5,673.4531 L97.5,673.4531 L97.5,670.4531 M93.5,672.4531 L94.5,672.4531 L94.5,673.4531 L93.5,673.4531 L93.5,672.4531 M95.5,672.4531 L96.5,672.4531 L96.5,673.4531 L95.5,673.4531 L95.5,672.4531 " fill="#696969" style="stroke: ; stroke-width: 0.0; stroke-dasharray: ;"/><text fill="#696969" font-family="sans-serif" font-size="12" lengthAdjust="spacingAndGlyphs" textLength="40" x="104.5" y="674.8164">escrow</text><path d="M223,715.6289 L223,724.8047 L203,728.8047 L223,732.8047 L223,741.9805 A0,0 0 0 0 223,741.9805 L301,741.9805 A0,0 0 0 0 301,741.9805 L301,725.6289 L291,715.6289 L223,715.6289 A0,0 0 0 0 223,715.6289 " fill="#B0C4DE" filter="url(#fa6e3j3prc7m3)" style="stroke: #6495ED; stroke-width: 1.0;"/><path d="M291,715.6289 L291,725.6289 L301,725.6289 L291,715.6289 " fill="#B0C4DE" style="stroke: #6495ED; stroke-width: 1.0;"/><text fill="#FFFFFF" font-family="sans-serif" font-size="13" lengthAdjust="spacingAndGlyphs" textLength="57" x="229" y="734.124">70% ARV</text><rect fill="#CCFFCC" filter="url(#fa6e3j3prc7m3)" height="35.0938" style="stroke: #6495ED; stroke-width: 1.0;" width="170" x="33" y="711.2578"/><path d="M47,725.3516 L47,726.3516 L46.25,726.3516 C45.564,726.3516 45,726.9156 45,727.6016 L45,728.1016 C45,728.7796 45.437,729.3436 46.094,729.5076 L48.657,730.1636 C48.8,730.1996 49.001,730.4596 49.001,730.6016 L49.001,731.1016 C49.001,731.2356 48.885,731.3516 48.751,731.3516 L46.251,731.3516 C46.135,731.3516 46.039,731.3146 46.001,731.2886 L46.001,730.3506 L45.001,730.3506 L45.001,731.3506 C45.001,731.6926 45.204,731.9776 45.439,732.1316 C45.673,732.2866 45.957,732.3506 46.252,732.3506 L47.002,732.3506 L47.002,733.3506 L48.002,733.3506 L48.002,732.3506 L48.752,732.3506 C49.438,732.3506 50.002,731.7866 50.002,731.1006 L50.002,730.6006 C50.002,729.9226 49.565,729.3586 48.908,729.1946 L46.345,728.5386 C46.202,728.5026 46.001,728.2426 46.001,728.1006 L46.001,727.6006 C46.001,727.4666 46.117,727.3506 46.251,727.3506 L48.751,727.3506 C48.867,727.3506 48.963,727.3876 49.001,727.4136 L49.001,728.3516 L50.001,728.3516 L50.001,727.3516 C50.001,727.0096 49.798,726.7246 49.563,726.5706 C49.329,726.4156 49.045,726.3516 48.75,726.3516 L48,726.3516 L48,725.3516 L47,725.3516 " fill="#696969" style="stroke: ; stroke-width: 0.0; stroke-dasharray: ;"/><text fill="#696969" font-family="sans-serif" font-size="12" lengthAdjust="spacingAndGlyphs" textLength="137" x="56" y="733.7148">hard money loan amount</text><path d="M225,770.7227 L225,779.8984 L205,783.8984 L225,787.8984 L225,797.0742 A0,0 0 0 0 225,797.0742 L303,797.0742 A0,0 0 0 0 303,797.0742 L303,780.7227 L293,770.7227 L225,770.7227 A0,0 0 0 0 225,770.7227 " fill="#B0C4DE" filter="url(#fa6e3j3prc7m3)" style="stroke: #6495ED; stroke-width: 1.0;"/><path d="M293,770.7227 L293,780.7227 L303,780.7227 L293,770.7227 " fill="#B0C4DE" style="stroke: #6495ED; stroke-width: 1.0;"/><text fill="#FFFFFF" font-family="sans-serif" font-size="13" lengthAdjust="spacingAndGlyphs" textLength="57" x="231" y="789.2178">75% ARV</text><rect fill="#CCFFCC" filter="url(#fa6e3j3prc7m3)" height="35.0938" style="stroke: #6495ED; stroke-width: 1.0;" width="174" x="31" y="766.3516"/><path d="M45,780.4453 L45,781.4453 L44.25,781.4453 C43.564,781.4453 43,782.0093 43,782.6953 L43,783.1953 C43,783.8733 43.437,784.4373 44.094,784.6013 L46.657,785.2573 C46.8,785.2933 47.001,785.5533 47.001,785.6953 L47.001,786.1953 C47.001,786.3293 46.885,786.4453 46.751,786.4453 L44.251,786.4453 C44.135,786.4453 44.039,786.4083 44.001,786.3823 L44.001,785.4443 L43.001,785.4443 L43.001,786.4443 C43.001,786.7863 43.204,787.0713 43.439,787.2253 C43.673,787.3803 43.957,787.4443 44.252,787.4443 L45.002,787.4443 L45.002,788.4443 L46.002,788.4443 L46.002,787.4443 L46.752,787.4443 C47.438,787.4443 48.002,786.8803 48.002,786.1943 L48.002,785.6943 C48.002,785.0163 47.565,784.4523 46.908,784.2883 L44.345,783.6323 C44.202,783.5963 44.001,783.3363 44.001,783.1943 L44.001,782.6943 C44.001,782.5603 44.117,782.4443 44.251,782.4443 L46.751,782.4443 C46.867,782.4443 46.963,782.4813 47.001,782.5073 L47.001,783.4453 L48.001,783.4453 L48.001,782.4453 C48.001,782.1033 47.798,781.8183 47.563,781.6643 C47.329,781.5093 47.045,781.4453 46.75,781.4453 L46,781.4453 L46,780.4453 L45,780.4453 " fill="#696969" style="stroke: ; stroke-width: 0.0; stroke-dasharray: ;"/><text fill="#696969" font-family="sans-serif" font-size="12" lengthAdjust="spacingAndGlyphs" textLength="141" x="54" y="788.8086">conventional loan amount</text><path d="M225,825.8164 L225,834.9922 L205,838.9922 L225,842.9922 L225,852.168 A0,0 0 0 0 225,852.168 L366,852.168 A0,0 0 0 0 366,852.168 L366,835.8164 L356,825.8164 L225,825.8164 A0,0 0 0 0 225,825.8164 " fill="#B0C4DE" filter="url(#fa6e3j3prc7m3)" style="stroke: #6495ED; stroke-width: 1.0;"/><path d="M356,825.8164 L356,835.8164 L366,835.8164 L356,825.8164 " fill="#B0C4DE" style="stroke: #6495ED; stroke-width: 1.0;"/><text fill="#FFFFFF" font-family="sans-serif" font-size="13" lengthAdjust="spacingAndGlyphs" textLength="120" x="231" y="844.3115">~ 7% of loan amount</text><rect fill="#CCFFCC" filter="url(#fa6e3j3prc7m3)" height="35.0938" style="stroke: #6495ED; stroke-width: 1.0;" width="174" x="31" y="821.4453"/><path d="M45,835.5391 L45,836.5391 L44.25,836.5391 C43.564,836.5391 43,837.1031 43,837.7891 L43,838.2891 C43,838.9671 43.437,839.5311 44.094,839.6951 L46.657,840.3511 C46.8,840.3871 47.001,840.6471 47.001,840.7891 L47.001,841.2891 C47.001,841.4231 46.885,841.5391 46.751,841.5391 L44.251,841.5391 C44.135,841.5391 44.039,841.5021 44.001,841.4761 L44.001,840.5381 L43.001,840.5381 L43.001,841.5381 C43.001,841.8801 43.204,842.1651 43.439,842.3191 C43.673,842.4741 43.957,842.5381 44.252,842.5381 L45.002,842.5381 L45.002,843.5381 L46.002,843.5381 L46.002,842.5381 L46.752,842.5381 C47.438,842.5381 48.002,841.9741 48.002,841.2881 L48.002,840.7881 C48.002,840.1101 47.565,839.5461 46.908,839.3821 L44.345,838.7261 C44.202,838.6901 44.001,838.4301 44.001,838.2881 L44.001,837.7881 C44.001,837.6541 44.117,837.5381 44.251,837.5381 L46.751,837.5381 C46.867,837.5381 46.963,837.5751 47.001,837.6011 L47.001,838.5391 L48.001,838.5391 L48.001,837.5391 C48.001,837.1971 47.798,836.9121 47.563,836.7581 C47.329,836.6031 47.045,836.5391 46.75,836.5391 L46,836.5391 L46,835.5391 L45,835.5391 " fill="#696969" style="stroke: ; stroke-width: 0.0; stroke-dasharray: ;"/><text fill="#696969" font-family="sans-serif" font-size="12" lengthAdjust="spacingAndGlyphs" textLength="141" x="54" y="843.9023">hard money closing costs</text><path d="M227,880.9102 L227,890.0859 L207,894.0859 L227,898.0859 L227,907.2617 A0,0 0 0 0 227,907.2617 L368,907.2617 A0,0 0 0 0 368,907.2617 L368,890.9102 L358,880.9102 L227,880.9102 A0,0 0 0 0 227,880.9102 " fill="#B0C4DE" filter="url(#fa6e3j3prc7m3)" style="stroke: #6495ED; stroke-width: 1.0;"/><path d="M358,880.9102 L358,890.9102 L368,890.9102 L358,880.9102 " fill="#B0C4DE" style="stroke: #6495ED; stroke-width: 1.0;"/><text fill="#FFFFFF" font-family="sans-serif" font-size="13" lengthAdjust="spacingAndGlyphs" textLength="120" x="233" y="899.4053">~ 5% of loan amount</text><rect fill="#CCFFCC" filter="url(#fa6e3j3prc7m3)" height="35.0938" style="stroke: #6495ED; stroke-width: 1.0;" width="178" x="29" y="876.5391"/><path d="M43,890.6328 L43,891.6328 L42.25,891.6328 C41.564,891.6328 41,892.1968 41,892.8828 L41,893.3828 C41,894.0608 41.437,894.6248 42.094,894.7888 L44.657,895.4448 C44.8,895.4808 45.001,895.7408 45.001,895.8828 L45.001,896.3828 C45.001,896.5168 44.885,896.6328 44.751,896.6328 L42.251,896.6328 C42.135,896.6328 42.039,896.5958 42.001,896.5698 L42.001,895.6318 L41.001,895.6318 L41.001,896.6318 C41.001,896.9738 41.204,897.2588 41.439,897.4128 C41.673,897.5678 41.957,897.6318 42.252,897.6318 L43.002,897.6318 L43.002,898.6318 L44.002,898.6318 L44.002,897.6318 L44.752,897.6318 C45.438,897.6318 46.002,897.0678 46.002,896.3818 L46.002,895.8818 C46.002,895.2038 45.565,894.6398 44.908,894.4758 L42.345,893.8198 C42.202,893.7838 42.001,893.5238 42.001,893.3818 L42.001,892.8818 C42.001,892.7478 42.117,892.6318 42.251,892.6318 L44.751,892.6318 C44.867,892.6318 44.963,892.6688 45.001,892.6948 L45.001,893.6328 L46.001,893.6328 L46.001,892.6328 C46.001,892.2908 45.798,892.0058 45.563,891.8518 C45.329,891.6968 45.045,891.6328 44.75,891.6328 L44,891.6328 L44,890.6328 L43,890.6328 " fill="#696969" style="stroke: ; stroke-width: 0.0; stroke-dasharray: ;"/><text fill="#696969" font-family="sans-serif" font-size="12" lengthAdjust="spacingAndGlyphs" textLength="145" x="52" y="898.9961">conventional closing costs</text><rect fill="#FFFFF0" filter="url(#fa6e3j3prc7m3)" height="1010.3799" style="stroke: #6495ED; stroke-width: 1.0;" width="547.5" x="41.5" y="934.6484"/><path d="M203.5,935.6484 L203.5,947.7734 L193.5,957.7734 L41.5,957.7734 " fill="none" style="stroke: #6495ED; stroke-width: 1.0;"/><text fill="#6495ED" font-family="sans-serif" font-size="16" lengthAdjust="spacingAndGlyphs" textLength="152" x="44.5" y="952.2578">Calculate Rehab Cost</text><path d="M388,1438.9648 L388,1465.3164 L577,1465.3164 L577,1448.9648 L567,1438.9648 L388,1438.9648 " fill="#B0C4DE" filter="url(#fa6e3j3prc7m3)" style="stroke: #6495ED; stroke-width: 1.0;"/><path d="M567,1438.9648 L567,1448.9648 L577,1448.9648 L567,1438.9648 " fill="#B0C4DE" style="stroke: #6495ED; stroke-width: 1.0;"/><text fill="#FFFFFF" font-family="sans-serif" font-size="13" lengthAdjust="spacingAndGlyphs" textLength="168" x="394" y="1457.46">rehab all properties the same</text><path d="M165,1028.0625 L165,1037.2383 L145,1041.2383 L165,1045.2383 L165,1054.4141 A0,0 0 0 0 165,1054.4141 L260,1054.4141 A0,0 0 0 0 260,1054.4141 L260,1038.0625 L250,1028.0625 L165,1028.0625 A0,0 0 0 0 165,1028.0625 " fill="#B0C4DE" filter="url(#fa6e3j3prc7m3)" style="stroke: #6495ED; stroke-width: 1.0;"/><path d="M250,1028.0625 L250,1038.0625 L260,1038.0625 L250,1028.0625 " fill="#B0C4DE" style="stroke: #6495ED; stroke-width: 1.0;"/><text fill="#FFFFFF" font-family="sans-serif" font-size="13" lengthAdjust="spacingAndGlyphs" textLength="74" x="171" y="1046.5576">butcherblock</text><rect fill="#CCFFCC" filter="url(#fa6e3j3prc7m3)" height="35.0938" style="stroke: #6495ED; stroke-width: 1.0;" width="54" x="91" y="1023.6914"/><path d="M105,1037.7852 L105,1038.7852 L104.25,1038.7852 C103.564,1038.7852 103,1039.3492 103,1040.0352 L103,1040.5352 C103,1041.2132 103.437,1041.7772 104.094,1041.9412 L106.657,1042.5972 C106.8,1042.6332 107.001,1042.8932 107.001,1043.0352 L107.001,1043.5352 C107.001,1043.6692 106.885,1043.7852 106.751,1043.7852 L104.251,1043.7852 C104.135,1043.7852 104.039,1043.7482 104.001,1043.7222 L104.001,1042.7842 L103.001,1042.7842 L103.001,1043.7842 C103.001,1044.1262 103.204,1044.4112 103.439,1044.5652 C103.673,1044.7202 103.957,1044.7842 104.252,1044.7842 L105.002,1044.7842 L105.002,1045.7842 L106.002,1045.7842 L106.002,1044.7842 L106.752,1044.7842 C107.438,1044.7842 108.002,1044.2202 108.002,1043.5342 L108.002,1043.0342 C108.002,1042.3562 107.565,1041.7922 106.908,1041.6282 L104.345,1040.9722 C104.202,1040.9362 104.001,1040.6762 104.001,1040.5342 L104.001,1040.0342 C104.001,1039.9002 104.117,1039.7842 104.251,1039.7842 L106.751,1039.7842 C106.867,1039.7842 106.963,1039.8212 107.001,1039.8472 L107.001,1040.7852 L108.001,1040.7852 L108.001,1039.7852 C108.001,1039.4432 107.798,1039.1582 107.563,1039.0042 C107.329,1038.8492 107.045,1038.7852 106.75,1038.7852 L106,1038.7852 L106,1037.7852 L105,1037.7852 " fill="#696969" style="stroke: ; stroke-width: 0.0; stroke-dasharray: ;"/><text fill="#696969" font-family="sans-serif" font-size="12" lengthAdjust="spacingAndGlyphs" textLength="21" x="114" y="1046.1484">150</text><polygon fill="#FFFFF0" filter="url(#fa6e3j3prc7m3)" points="89,974.7734,147,974.7734,159,986.7734,147,998.7734,89,998.7734,77,986.7734,89,974.7734" style="stroke: #6495ED; stroke-width: 1.0;"/><text fill="#696969" font-family="sans-serif" font-size="11" lengthAdjust="spacingAndGlyphs" textLength="18" x="122" y="1010.1924">yes</text><text fill="#A9A9A9" font-family="sans-serif" font-size="11" lengthAdjust="spacingAndGlyphs" textLength="58" x="89" y="991.2744">countertops</text><text fill="#696969" font-family="sans-serif" font-size="11" lengthAdjust="spacingAndGlyphs" textLength="12" x="159" y="984.3564">no</text><polygon fill="#FFFFF0" filter="url(#fa6e3j3prc7m3)" points="118,1078.7852,130,1090.7852,118,1102.7852,106,1090.7852,118,1078.7852" style="stroke: #6495ED; stroke-width: 1.0;"/><path d="M182.5,1176.0742 L182.5,1185.25 L162.5,1189.25 L182.5,1193.25 L182.5,1202.4258 A0,0 0 0 0 182.5,1202.4258 L232.5,1202.4258 A0,0 0 0 0 232.5,1202.4258 L232.5,1186.0742 L222.5,1176.0742 L182.5,1176.0742 A0,0 0 0 0 182.5,1176.0742 " fill="#B0C4DE" filter="url(#fa6e3j3prc7m3)" style="stroke: #6495ED; stroke-width: 1.0;"/><path d="M222.5,1176.0742 L222.5,1186.0742 L232.5,1186.0742 L222.5,1176.0742 " fill="#B0C4DE" style="stroke: #6495ED; stroke-width: 1.0;"/><text fill="#FFFFFF" font-family="sans-serif" font-size="13" lengthAdjust="spacingAndGlyphs" textLength="29" x="188.5" y="1194.5693">avoid</text><rect fill="#CCFFCC" filter="url(#fa6e3j3prc7m3)" height="35.0938" style="stroke: #6495ED; stroke-width: 1.0;" width="89" x="73.5" y="1171.7031"/><path d="M87.5,1185.7969 L87.5,1186.7969 L86.75,1186.7969 C86.064,1186.7969 85.5,1187.3609 85.5,1188.0469 L85.5,1188.5469 C85.5,1189.2249 85.937,1189.7889 86.594,1189.9529 L89.157,1190.6089 C89.3,1190.6449 89.501,1190.9049 89.501,1191.0469 L89.501,1191.5469 C89.501,1191.6809 89.385,1191.7969 89.251,1191.7969 L86.751,1191.7969 C86.635,1191.7969 86.539,1191.7599 86.501,1191.7339 L86.501,1190.7959 L85.501,1190.7959 L85.501,1191.7959 C85.501,1192.1379 85.704,1192.4229 85.939,1192.5769 C86.173,1192.7319 86.457,1192.7959 86.752,1192.7959 L87.502,1192.7959 L87.502,1193.7959 L88.502,1193.7959 L88.502,1192.7959 L89.252,1192.7959 C89.938,1192.7959 90.502,1192.2319 90.502,1191.5459 L90.502,1191.0459 C90.502,1190.3679 90.065,1189.8039 89.408,1189.6399 L86.845,1188.9839 C86.702,1188.9479 86.501,1188.6879 86.501,1188.5459 L86.501,1188.0459 C86.501,1187.9119 86.617,1187.7959 86.751,1187.7959 L89.251,1187.7959 C89.367,1187.7959 89.463,1187.8329 89.501,1187.8589 L89.501,1188.7969 L90.501,1188.7969 L90.501,1187.7969 C90.501,1187.4549 90.298,1187.1699 90.063,1187.0159 C89.829,1186.8609 89.545,1186.7969 89.25,1186.7969 L88.5,1186.7969 L88.5,1185.7969 L87.5,1185.7969 " fill="#696969" style="stroke: ; stroke-width: 0.0; stroke-dasharray: ;"/><text fill="#696969" font-family="sans-serif" font-size="12" lengthAdjust="spacingAndGlyphs" textLength="56" x="96.5" y="1194.1602">1.25 / sq ft</text><polygon fill="#FFFFF0" filter="url(#fa6e3j3prc7m3)" points="102.5,1122.7852,133.5,1122.7852,145.5,1134.7852,133.5,1146.7852,102.5,1146.7852,90.5,1134.7852,102.5,1122.7852" style="stroke: #6495ED; stroke-width: 1.0;"/><text fill="#696969" font-family="sans-serif" font-size="11" lengthAdjust="spacingAndGlyphs" textLength="18" x="122" y="1158.2041">yes</text><text fill="#A9A9A9" font-family="sans-serif" font-size="11" lengthAdjust="spacingAndGlyphs" textLength="31" x="102.5" y="1139.2861">carpet</text><text fill="#696969" font-family="sans-serif" font-size="11" lengthAdjust="spacingAndGlyphs" textLength="12" x="145.5" y="1132.3682">no</text><polygon fill="#FFFFF0" filter="url(#fa6e3j3prc7m3)" points="118,1226.7969,130,1238.7969,118,1250.7969,106,1238.7969,118,1226.7969" style="stroke: #6495ED; stroke-width: 1.0;"/><path d="M182.5,1324.0859 L182.5,1333.2617 L162.5,1337.2617 L182.5,1341.2617 L182.5,1350.4375 A0,0 0 0 0 182.5,1350.4375 L305.5,1350.4375 A0,0 0 0 0 305.5,1350.4375 L305.5,1334.0859 L295.5,1324.0859 L182.5,1324.0859 A0,0 0 0 0 182.5,1324.0859 " fill="#B0C4DE" filter="url(#fa6e3j3prc7m3)" style="stroke: #6495ED; stroke-width: 1.0;"/><path d="M295.5,1324.0859 L295.5,1334.0859 L305.5,1334.0859 L295.5,1324.0859 " fill="#B0C4DE" style="stroke: #6495ED; stroke-width: 1.0;"/><text fill="#FFFFFF" font-family="sans-serif" font-size="13" lengthAdjust="spacingAndGlyphs" textLength="102" x="188.5" y="1342.5811">glued vinyl planks</text><rect fill="#CCFFCC" filter="url(#fa6e3j3prc7m3)" height="35.0938" style="stroke: #6495ED; stroke-width: 1.0;" width="89" x="73.5" y="1319.7148"/><path d="M87.5,1333.8086 L87.5,1334.8086 L86.75,1334.8086 C86.064,1334.8086 85.5,1335.3726 85.5,1336.0586 L85.5,1336.5586 C85.5,1337.2366 85.937,1337.8006 86.594,1337.9646 L89.157,1338.6206 C89.3,1338.6566 89.501,1338.9166 89.501,1339.0586 L89.501,1339.5586 C89.501,1339.6926 89.385,1339.8086 89.251,1339.8086 L86.751,1339.8086 C86.635,1339.8086 86.539,1339.7716 86.501,1339.7456 L86.501,1338.8076 L85.501,1338.8076 L85.501,1339.8076 C85.501,1340.1496 85.704,1340.4346 85.939,1340.5886 C86.173,1340.7436 86.457,1340.8076 86.752,1340.8076 L87.502,1340.8076 L87.502,1341.8076 L88.502,1341.8076 L88.502,1340.8076 L89.252,1340.8076 C89.938,1340.8076 90.502,1340.2436 90.502,1339.5576 L90.502,1339.0576 C90.502,1338.3796 90.065,1337.8156 89.408,1337.6516 L86.845,1336.9956 C86.702,1336.9596 86.501,1336.6996 86.501,1336.5576 L86.501,1336.0576 C86.501,1335.9236 86.617,1335.8076 86.751,1335.8076 L89.251,1335.8076 C89.367,1335.8076 89.463,1335.8446 89.501,1335.8706 L89.501,1336.8086 L90.501,1336.8086 L90.501,1335.8086 C90.501,1335.4666 90.298,1335.1816 90.063,1335.0276 C89.829,1334.8726 89.545,1334.8086 89.25,1334.8086 L88.5,1334.8086 L88.5,1333.8086 L87.5,1333.8086 " fill="#696969" style="stroke: ; stroke-width: 0.0; stroke-dasharray: ;"/><text fill="#696969" font-family="sans-serif" font-size="12" lengthAdjust="spacingAndGlyphs" textLength="56" x="96.5" y="1342.1719">1.69 / sq ft</text><polygon fill="#FFFFF0" filter="url(#fa6e3j3prc7m3)" points="100,1270.7969,136,1270.7969,148,1282.7969,136,1294.7969,100,1294.7969,88,1282.7969,100,1270.7969" style="stroke: #6495ED; stroke-width: 1.0;"/><text fill="#696969" font-family="sans-serif" font-size="11" lengthAdjust="spacingAndGlyphs" textLength="18" x="122" y="1306.2158">yes</text><text fill="#A9A9A9" font-family="sans-serif" font-size="11" lengthAdjust="spacingAndGlyphs" textLength="36" x="100" y="1287.2979">flooring</text><text fill="#696969" font-family="sans-serif" font-size="11" lengthAdjust="spacingAndGlyphs" textLength="12" x="148" y="1280.3799">no</text><polygon fill="#FFFFF0" filter="url(#fa6e3j3prc7m3)" points="118,1374.8086,130,1386.8086,118,1398.8086,106,1386.8086,118,1374.8086" style="stroke: #6495ED; stroke-width: 1.0;"/><rect fill="#CCFFCC" filter="url(#fa6e3j3prc7m3)" height="35.0938" style="stroke: #6495ED; stroke-width: 1.0;" width="85" x="75.5" y="1467.7266"/><path d="M89.5,1481.8203 L89.5,1482.8203 L88.75,1482.8203 C88.064,1482.8203 87.5,1483.3843 87.5,1484.0703 L87.5,1484.5703 C87.5,1485.2483 87.937,1485.8123 88.594,1485.9763 L91.157,1486.6323 C91.3,1486.6683 91.501,1486.9283 91.501,1487.0703 L91.501,1487.5703 C91.501,1487.7043 91.385,1487.8203 91.251,1487.8203 L88.751,1487.8203 C88.635,1487.8203 88.539,1487.7833 88.501,1487.7573 L88.501,1486.8193 L87.501,1486.8193 L87.501,1487.8193 C87.501,1488.1613 87.704,1488.4463 87.939,1488.6003 C88.173,1488.7553 88.457,1488.8193 88.752,1488.8193 L89.502,1488.8193 L89.502,1489.8193 L90.502,1489.8193 L90.502,1488.8193 L91.252,1488.8193 C91.938,1488.8193 92.502,1488.2553 92.502,1487.5693 L92.502,1487.0693 C92.502,1486.3913 92.065,1485.8273 91.408,1485.6633 L88.845,1485.0073 C88.702,1484.9713 88.501,1484.7113 88.501,1484.5693 L88.501,1484.0693 C88.501,1483.9353 88.617,1483.8193 88.751,1483.8193 L91.251,1483.8193 C91.367,1483.8193 91.463,1483.8563 91.501,1483.8823 L91.501,1484.8203 L92.501,1484.8203 L92.501,1483.8203 C92.501,1483.4783 92.298,1483.1933 92.063,1483.0393 C91.829,1482.8843 91.545,1482.8203 91.25,1482.8203 L90.5,1482.8203 L90.5,1481.8203 L89.5,1481.8203 " fill="#696969" style="stroke: ; stroke-width: 0.0; stroke-dasharray: ;"/><text fill="#696969" font-family="sans-serif" font-size="12" lengthAdjust="spacingAndGlyphs" textLength="52" x="98.5" y="1490.1836">resurface</text><polygon fill="#FFFFF0" filter="url(#fa6e3j3prc7m3)" points="63.5,1418.8086,172.5,1418.8086,184.5,1430.8086,172.5,1442.8086,63.5,1442.8086,51.5,1430.8086,63.5,1418.8086" style="stroke: #6495ED; stroke-width: 1.0;"/><text fill="#696969" font-family="sans-serif" font-size="11" lengthAdjust="spacingAndGlyphs" textLength="18" x="122" y="1454.2275">yes</text><text fill="#A9A9A9" font-family="sans-serif" font-size="11" lengthAdjust="spacingAndGlyphs" textLength="109" x="63.5" y="1435.3096">old hard wood flooring</text><text fill="#696969" font-family="sans-serif" font-size="11" lengthAdjust="spacingAndGlyphs" textLength="12" x="184.5" y="1428.3916">no</text><polygon fill="#FFFFF0" filter="url(#fa6e3j3prc7m3)" points="118,1522.8203,130,1534.8203,118,1546.8203,106,1534.8203,118,1522.8203" style="stroke: #6495ED; stroke-width: 1.0;"/><path d="M182.5,1615.7383 L182.5,1633.0898 L162.5,1637.0898 L182.5,1641.0898 L182.5,1658.4414 A0,0 0 0 0 182.5,1658.4414 L307.5,1658.4414 A0,0 0 0 0 307.5,1658.4414 L307.5,1625.7383 L297.5,1615.7383 L182.5,1615.7383 A0,0 0 0 0 182.5,1615.7383 " fill="#B0C4DE" filter="url(#fa6e3j3prc7m3)" style="stroke: #6495ED; stroke-width: 1.0;"/><path d="M297.5,1615.7383 L297.5,1625.7383 L307.5,1625.7383 L297.5,1615.7383 " fill="#B0C4DE" style="stroke: #6495ED; stroke-width: 1.0;"/><text fill="#FFFFFF" font-family="sans-serif" font-size="13" lengthAdjust="spacingAndGlyphs" textLength="28" x="188.5" y="1634.2334">PPG</text><text fill="#FFFFFF" font-family="sans-serif" font-size="13" lengthAdjust="spacingAndGlyphs" textLength="104" x="188.5" y="1650.585">stone mason grey</text><rect fill="#CCFFCC" filter="url(#fa6e3j3prc7m3)" height="35.0938" style="stroke: #6495ED; stroke-width: 1.0;" width="89" x="73.5" y="1619.543"/><path d="M87.5,1633.6367 L87.5,1634.6367 L86.75,1634.6367 C86.064,1634.6367 85.5,1635.2007 85.5,1635.8867 L85.5,1636.3867 C85.5,1637.0647 85.937,1637.6287 86.594,1637.7927 L89.157,1638.4487 C89.3,1638.4847 89.501,1638.7447 89.501,1638.8867 L89.501,1639.3867 C89.501,1639.5207 89.385,1639.6367 89.251,1639.6367 L86.751,1639.6367 C86.635,1639.6367 86.539,1639.5997 86.501,1639.5737 L86.501,1638.6357 L85.501,1638.6357 L85.501,1639.6357 C85.501,1639.9777 85.704,1640.2627 85.939,1640.4167 C86.173,1640.5717 86.457,1640.6357 86.752,1640.6357 L87.502,1640.6357 L87.502,1641.6357 L88.502,1641.6357 L88.502,1640.6357 L89.252,1640.6357 C89.938,1640.6357 90.502,1640.0717 90.502,1639.3857 L90.502,1638.8857 C90.502,1638.2077 90.065,1637.6437 89.408,1637.4797 L86.845,1636.8237 C86.702,1636.7877 86.501,1636.5277 86.501,1636.3857 L86.501,1635.8857 C86.501,1635.7517 86.617,1635.6357 86.751,1635.6357 L89.251,1635.6357 C89.367,1635.6357 89.463,1635.6727 89.501,1635.6987 L89.501,1636.6367 L90.501,1636.6367 L90.501,1635.6367 C90.501,1635.2947 90.298,1635.0097 90.063,1634.8557 C89.829,1634.7007 89.545,1634.6367 89.25,1634.6367 L88.5,1634.6367 L88.5,1633.6367 L87.5,1633.6367 " fill="#696969" style="stroke: ; stroke-width: 0.0; stroke-dasharray: ;"/><text fill="#696969" font-family="sans-serif" font-size="12" lengthAdjust="spacingAndGlyphs" textLength="56" x="96.5" y="1642">1.89 / sq ft</text><polygon fill="#FFFFF0" filter="url(#fa6e3j3prc7m3)" points="106,1566.8203,130,1566.8203,142,1578.8203,130,1590.8203,106,1590.8203,94,1578.8203,106,1566.8203" style="stroke: #6495ED; stroke-width: 1.0;"/><text fill="#696969" font-family="sans-serif" font-size="11" lengthAdjust="spacingAndGlyphs" textLength="18" x="122" y="1602.2393">yes</text><text fill="#A9A9A9" font-family="sans-serif" font-size="11" lengthAdjust="spacingAndGlyphs" textLength="23" x="106.5" y="1583.3213">paint</text><text fill="#696969" font-family="sans-serif" font-size="11" lengthAdjust="spacingAndGlyphs" textLength="12" x="142" y="1576.4033">no</text><polygon fill="#FFFFF0" filter="url(#fa6e3j3prc7m3)" points="118,1678.4414,130,1690.4414,118,1702.4414,106,1690.4414,118,1678.4414" style="stroke: #6495ED; stroke-width: 1.0;"/><path d="M168.5,1769.3604 L168.5,1794.8877 L148.5,1798.8877 L168.5,1802.8877 L168.5,1828.415 A0,0 0 0 0 168.5,1828.415 L360.5,1828.415 A0,0 0 0 0 360.5,1828.415 L360.5,1779.3604 L350.5,1769.3604 L168.5,1769.3604 A0,0 0 0 0 168.5,1769.3604 " fill="#B0C4DE" filter="url(#fa6e3j3prc7m3)" style="stroke: #6495ED; stroke-width: 1.0;"/><path d="M350.5,1769.3604 L350.5,1779.3604 L360.5,1779.3604 L350.5,1769.3604 " fill="#B0C4DE" style="stroke: #6495ED; stroke-width: 1.0;"/><text fill="#FFFFFF" font-family="sans-serif" font-size="13" lengthAdjust="spacingAndGlyphs" textLength="62" x="174.5" y="1787.8555">HD Supply</text><text fill="#FFFFFF" font-family="sans-serif" font-size="13" lengthAdjust="spacingAndGlyphs" textLength="84" x="174.5" y="1804.207">stainless steel</text><text fill="#FFFFFF" font-family="sans-serif" font-size="13" lengthAdjust="spacingAndGlyphs" textLength="171" x="174.5" y="1820.5586">stove, microwave, dishwasher</text><rect fill="#CCFFCC" filter="url(#fa6e3j3prc7m3)" height="35.0938" style="stroke: #6495ED; stroke-width: 1.0;" width="61" x="87.5" y="1781.3408"/><path d="M101.5,1795.4346 L101.5,1796.4346 L100.75,1796.4346 C100.064,1796.4346 99.5,1796.9986 99.5,1797.6846 L99.5,1798.1846 C99.5,1798.8626 99.937,1799.4266 100.594,1799.5906 L103.157,1800.2466 C103.3,1800.2826 103.501,1800.5426 103.501,1800.6846 L103.501,1801.1846 C103.501,1801.3186 103.385,1801.4346 103.251,1801.4346 L100.751,1801.4346 C100.635,1801.4346 100.539,1801.3976 100.501,1801.3716 L100.501,1800.4336 L99.501,1800.4336 L99.501,1801.4336 C99.501,1801.7756 99.704,1802.0606 99.939,1802.2146 C100.173,1802.3696 100.457,1802.4336 100.752,1802.4336 L101.502,1802.4336 L101.502,1803.4336 L102.502,1803.4336 L102.502,1802.4336 L103.252,1802.4336 C103.938,1802.4336 104.502,1801.8696 104.502,1801.1836 L104.502,1800.6836 C104.502,1800.0056 104.065,1799.4416 103.408,1799.2776 L100.845,1798.6216 C100.702,1798.5856 100.501,1798.3256 100.501,1798.1836 L100.501,1797.6836 C100.501,1797.5496 100.617,1797.4336 100.751,1797.4336 L103.251,1797.4336 C103.367,1797.4336 103.463,1797.4706 103.501,1797.4966 L103.501,1798.4346 L104.501,1798.4346 L104.501,1797.4346 C104.501,1797.0926 104.298,1796.8076 104.063,1796.6536 C103.829,1796.4986 103.545,1796.4346 103.25,1796.4346 L102.5,1796.4346 L102.5,1795.4346 L101.5,1795.4346 " fill="#696969" style="stroke: ; stroke-width: 0.0; stroke-dasharray: ;"/><text fill="#696969" font-family="sans-serif" font-size="12" lengthAdjust="spacingAndGlyphs" textLength="28" x="110.5" y="1803.7979">1000</text><rect fill="#CCFFCC" filter="url(#fa6e3j3prc7m3)" height="35.0938" style="stroke: #6495ED; stroke-width: 1.0;" width="93" x="71.5" y="1853.9346"/><path d="M85.5,1868.0283 L85.5,1869.0283 L84.75,1869.0283 C84.064,1869.0283 83.5,1869.5923 83.5,1870.2783 L83.5,1870.7783 C83.5,1871.4563 83.937,1872.0203 84.594,1872.1843 L87.157,1872.8403 C87.3,1872.8763 87.501,1873.1363 87.501,1873.2783 L87.501,1873.7783 C87.501,1873.9123 87.385,1874.0283 87.251,1874.0283 L84.751,1874.0283 C84.635,1874.0283 84.539,1873.9913 84.501,1873.9653 L84.501,1873.0273 L83.501,1873.0273 L83.501,1874.0273 C83.501,1874.3693 83.704,1874.6543 83.939,1874.8083 C84.173,1874.9633 84.457,1875.0273 84.752,1875.0273 L85.502,1875.0273 L85.502,1876.0273 L86.502,1876.0273 L86.502,1875.0273 L87.252,1875.0273 C87.938,1875.0273 88.502,1874.4633 88.502,1873.7773 L88.502,1873.2773 C88.502,1872.5993 88.065,1872.0353 87.408,1871.8713 L84.845,1871.2153 C84.702,1871.1793 84.501,1870.9193 84.501,1870.7773 L84.501,1870.2773 C84.501,1870.1433 84.617,1870.0273 84.751,1870.0273 L87.251,1870.0273 C87.367,1870.0273 87.463,1870.0643 87.501,1870.0903 L87.501,1871.0283 L88.501,1871.0283 L88.501,1870.0283 C88.501,1869.6863 88.298,1869.4013 88.063,1869.2473 C87.829,1869.0923 87.545,1869.0283 87.25,1869.0283 L86.5,1869.0283 L86.5,1868.0283 L85.5,1868.0283 " fill="#696969" style="stroke: ; stroke-width: 0.0; stroke-dasharray: ;"/><text fill="#696969" font-family="sans-serif" font-size="12" lengthAdjust="spacingAndGlyphs" textLength="60" x="94.5" y="1876.3916">installation</text><polygon fill="#FFFFF0" filter="url(#fa6e3j3prc7m3)" points="92,1722.4414,144,1722.4414,156,1734.4414,144,1746.4414,92,1746.4414,80,1734.4414,92,1722.4414" style="stroke: #6495ED; stroke-width: 1.0;"/><text fill="#696969" font-family="sans-serif" font-size="11" lengthAdjust="spacingAndGlyphs" textLength="18" x="122" y="1757.8604">yes</text><text fill="#A9A9A9" font-family="sans-serif" font-size="11" lengthAdjust="spacingAndGlyphs" textLength="52" x="92" y="1738.9424">appliances</text><text fill="#696969" font-family="sans-serif" font-size="11" lengthAdjust="spacingAndGlyphs" textLength="12" x="156" y="1732.0244">no</text><polygon fill="#FFFFF0" filter="url(#fa6e3j3prc7m3)" points="118,1909.0283,130,1921.0283,118,1933.0283,106,1921.0283,118,1909.0283" style="stroke: #6495ED; stroke-width: 1.0;"/><polygon fill="#FFFFF0" filter="url(#fa6e3j3prc7m3)" points="83.5,1965.0283,152.5,1965.0283,164.5,1983.8643,152.5,2002.7002,83.5,2002.7002,71.5,1983.8643,83.5,1965.0283" style="stroke: #6495ED; stroke-width: 1.0;"/><text fill="#696969" font-family="sans-serif" font-size="11" lengthAdjust="spacingAndGlyphs" textLength="18" x="122" y="2014.1191">yes</text><text fill="#A9A9A9" font-family="sans-serif" font-size="11" lengthAdjust="spacingAndGlyphs" textLength="48" x="83.5" y="1976.4473">income ok</text><line style="stroke: #6495ED; stroke-width: 1.0;" x1="71.5" x2="164.5" y1="1983.8643" y2="1983.8643"/><text fill="#A9A9A9" font-family="sans-serif" font-size="11" lengthAdjust="spacingAndGlyphs" textLength="69" x="83.5" y="2000.2832">$200-600 / mo</text><text fill="#696969" font-family="sans-serif" font-size="11" lengthAdjust="spacingAndGlyphs" textLength="12" x="164.5" y="1981.4473">no</text><ellipse cx="198.5" cy="1983.8643" fill="#FFFFFF" filter="url(#fa6e3j3prc7m3)" rx="11" ry="11" style="stroke: #FF7F50; stroke-width: 1.0;"/><ellipse cx="198.5" cy="1983.8643" fill="#FF7F50" rx="6" ry="6" style="stroke: #FFBFA7; stroke-width: 1.0;"/><polygon fill="#FFFFF0" filter="url(#fa6e3j3prc7m3)" points="87,2035.6191,149,2035.6191,161,2054.4551,149,2073.291,87,2073.291,75,2054.4551,87,2035.6191" style="stroke: #6495ED; stroke-width: 1.0;"/><text fill="#696969" font-family="sans-serif" font-size="11" lengthAdjust="spacingAndGlyphs" textLength="18" x="122" y="2084.71">yes</text><text fill="#A9A9A9" font-family="sans-serif" font-size="11" lengthAdjust="spacingAndGlyphs" textLength="62" x="87" y="2047.0381">cost/sql ft ok</text><line style="stroke: #6495ED; stroke-width: 1.0;" x1="75" x2="161" y1="2054.4551" y2="2054.4551"/><text fill="#A9A9A9" font-family="sans-serif" font-size="11" lengthAdjust="spacingAndGlyphs" textLength="58" x="87" y="2070.874">&lt; $88 / sq ft</text><text fill="#696969" font-family="sans-serif" font-size="11" lengthAdjust="spacingAndGlyphs" textLength="12" x="161" y="2052.0381">no</text><ellipse cx="195" cy="2054.4551" fill="#FFFFFF" filter="url(#fa6e3j3prc7m3)" rx="11" ry="11" style="stroke: #FF7F50; stroke-width: 1.0;"/><ellipse cx="195" cy="2054.4551" fill="#FF7F50" rx="6" ry="6" style="stroke: #FFBFA7; stroke-width: 1.0;"/><polygon fill="#FFFFF0" filter="url(#fa6e3j3prc7m3)" points="49,2106.21,187,2106.21,199,2138.8818,187,2171.5537,49,2171.5537,37,2138.8818,49,2106.21" style="stroke: #6495ED; stroke-width: 1.0;"/><text fill="#696969" font-family="sans-serif" font-size="11" lengthAdjust="spacingAndGlyphs" textLength="18" x="122" y="2182.9727">yes</text><text fill="#A9A9A9" font-family="sans-serif" font-size="11" lengthAdjust="spacingAndGlyphs" textLength="138" x="49" y="2117.6289">correct cash-on-cash return</text><line style="stroke: #6495ED; stroke-width: 1.0;" x1="42.0818" x2="193.9182" y1="2125.0459" y2="2125.0459"/><text fill="#A9A9A9" font-family="sans-serif" font-size="11" lengthAdjust="spacingAndGlyphs" textLength="85" x="49" y="2141.4648">should be 8-30 %</text><text fill="#A9A9A9" font-family="sans-serif" font-size="11" lengthAdjust="spacingAndGlyphs" textLength="87" x="49" y="2155.3008">net of lending rate</text><text fill="#A9A9A9" font-family="sans-serif" font-size="11" font-style="italic" lengthAdjust="spacingAndGlyphs" textLength="83" x="49" y="2169.1367">inflation is 3-4 %</text><text fill="#696969" font-family="sans-serif" font-size="11" lengthAdjust="spacingAndGlyphs" textLength="12" x="199" y="2136.4648">no</text><ellipse cx="233" cy="2138.8818" fill="#FFFFFF" filter="url(#fa6e3j3prc7m3)" rx="11" ry="11" style="stroke: #FF7F50; stroke-width: 1.0;"/><ellipse cx="233" cy="2138.8818" fill="#FF7F50" rx="6" ry="6" style="stroke: #FFBFA7; stroke-width: 1.0;"/><polygon fill="#FFFFF0" filter="url(#fa6e3j3prc7m3)" points="73,2204.4727,163,2204.4727,175,2223.3086,163,2242.1445,73,2242.1445,61,2223.3086,73,2204.4727" style="stroke: #6495ED; stroke-width: 1.0;"/><text fill="#696969" font-family="sans-serif" font-size="11" lengthAdjust="spacingAndGlyphs" textLength="18" x="122" y="2253.5635">yes</text><text fill="#A9A9A9" font-family="sans-serif" font-size="11" lengthAdjust="spacingAndGlyphs" textLength="90" x="73" y="2215.8916">correct equity gain</text><line style="stroke: #6495ED; stroke-width: 1.0;" x1="61" x2="175" y1="2223.3086" y2="2223.3086"/><text fill="#A9A9A9" font-family="sans-serif" font-size="11" lengthAdjust="spacingAndGlyphs" textLength="78" x="73" y="2239.7275">should be 100%</text><text fill="#696969" font-family="sans-serif" font-size="11" lengthAdjust="spacingAndGlyphs" textLength="12" x="175" y="2220.8916">no</text><ellipse cx="209" cy="2223.3086" fill="#FFFFFF" filter="url(#fa6e3j3prc7m3)" rx="11" ry="11" style="stroke: #FF7F50; stroke-width: 1.0;"/><ellipse cx="209" cy="2223.3086" fill="#FF7F50" rx="6" ry="6" style="stroke: #FFBFA7; stroke-width: 1.0;"/><rect fill="#FFFFF0" filter="url(#fa6e3j3prc7m3)" height="35.0938" rx="12.5" ry="12.5" style="stroke: #6495ED; stroke-width: 1.0;" width="41" x="97.5" y="2275.0635"/><text fill="#696969" font-family="sans-serif" font-size="12" lengthAdjust="spacingAndGlyphs" textLength="21" x="107.5" y="2297.5205">visit</text><line style="stroke: #696969; stroke-width: 1.5;" x1="118" x2="118" y1="191.6094" y2="211.6094"/><polygon fill="#696969" points="114,201.6094,118,211.6094,122,201.6094,118,205.6094" style="stroke: #696969; stroke-width: 1.0;"/><line style="stroke: #696969; stroke-width: 1.5;" x1="118" x2="118" y1="246.7031" y2="266.7031"/><polygon fill="#696969" points="114,256.7031,118,266.7031,122,256.7031,118,260.7031" style="stroke: #696969; stroke-width: 1.0;"/><line style="stroke: #696969; stroke-width: 1.5;" x1="118" x2="118" y1="301.7969" y2="321.7969"/><polygon fill="#696969" points="114,311.7969,118,321.7969,122,311.7969,118,315.7969" style="stroke: #696969; stroke-width: 1.0;"/><line style="stroke: #696969; stroke-width: 1.5;" x1="118" x2="118" y1="356.8906" y2="376.8906"/><polygon fill="#696969" points="114,366.8906,118,376.8906,122,366.8906,118,370.8906" style="stroke: #696969; stroke-width: 1.0;"/><line style="stroke: #696969; stroke-width: 1.5;" x1="118" x2="118" y1="411.9844" y2="431.9844"/><polygon fill="#696969" points="114,421.9844,118,431.9844,122,421.9844,118,425.9844" style="stroke: #696969; stroke-width: 1.0;"/><line style="stroke: #696969; stroke-width: 1.5;" x1="118" x2="118" y1="467.0781" y2="487.0781"/><polygon fill="#696969" points="114,477.0781,118,487.0781,122,477.0781,118,481.0781" style="stroke: #696969; stroke-width: 1.0;"/><line style="stroke: #696969; stroke-width: 1.5;" x1="118" x2="118" y1="522.1719" y2="542.1719"/><polygon fill="#696969" points="114,532.1719,118,542.1719,122,532.1719,118,536.1719" style="stroke: #696969; stroke-width: 1.0;"/><line style="stroke: #696969; stroke-width: 1.5;" x1="118" x2="118" y1="577.2656" y2="597.2656"/><polygon fill="#696969" points="114,587.2656,118,597.2656,122,587.2656,118,591.2656" style="stroke: #696969; stroke-width: 1.0;"/><line style="stroke: #696969; stroke-width: 1.5;" x1="118" x2="118" y1="632.3594" y2="652.3594"/><polygon fill="#696969" points="114,642.3594,118,652.3594,122,642.3594,118,646.3594" style="stroke: #696969; stroke-width: 1.0;"/><line style="stroke: #696969; stroke-width: 1.5;" x1="118" x2="118" y1="687.4531" y2="711.2578"/><polygon fill="#696969" points="114,701.2578,118,711.2578,122,701.2578,118,705.2578" style="stroke: #696969; stroke-width: 1.0;"/><line style="stroke: #696969; stroke-width: 1.5;" x1="118" x2="118" y1="746.3516" y2="766.3516"/><polygon fill="#696969" points="114,756.3516,118,766.3516,122,756.3516,118,760.3516" style="stroke: #696969; stroke-width: 1.0;"/><line style="stroke: #696969; stroke-width: 1.5;" x1="118" x2="118" y1="801.4453" y2="821.4453"/><polygon fill="#696969" points="114,811.4453,118,821.4453,122,811.4453,118,815.4453" style="stroke: #696969; stroke-width: 1.0;"/><line style="stroke: #696969; stroke-width: 1.5;" x1="118" x2="118" y1="856.5391" y2="876.5391"/><polygon fill="#696969" points="114,866.5391,118,876.5391,122,866.5391,118,870.5391" style="stroke: #696969; stroke-width: 1.0;"/><line style="stroke: #696969; stroke-width: 1.5;" x1="118" x2="118" y1="105.375" y2="156.5156"/><polygon fill="#696969" points="114,146.5156,118,156.5156,122,146.5156,118,150.5156" style="stroke: #696969; stroke-width: 1.0;"/><line style="stroke: #696969; stroke-width: 1.5;" x1="118" x2="118" y1="998.7734" y2="1023.6914"/><polygon fill="#696969" points="114,1013.6914,118,1023.6914,122,1013.6914,118,1017.6914" style="stroke: #696969; stroke-width: 1.0;"/><line style="stroke: #696969; stroke-width: 1.5;" x1="159" x2="270" y1="986.7734" y2="986.7734"/><polygon fill="#696969" points="266,1031.2383,270,1041.2383,274,1031.2383,270,1035.2383" style="stroke: #696969; stroke-width: 1.5;"/><line style="stroke: #696969; stroke-width: 1.5;" x1="270" x2="270" y1="986.7734" y2="1090.7852"/><line style="stroke: #696969; stroke-width: 1.5;" x1="270" x2="130" y1="1090.7852" y2="1090.7852"/><polygon fill="#696969" points="140,1086.7852,130,1090.7852,140,1094.7852,136,1090.7852" style="stroke: #696969; stroke-width: 1.0;"/><line style="stroke: #696969; stroke-width: 1.5;" x1="118" x2="118" y1="1058.7852" y2="1078.7852"/><polygon fill="#696969" points="114,1068.7852,118,1078.7852,122,1068.7852,118,1072.7852" style="stroke: #696969; stroke-width: 1.0;"/><line style="stroke: #696969; stroke-width: 1.5;" x1="118" x2="118" y1="1146.7852" y2="1171.7031"/><polygon fill="#696969" points="114,1161.7031,118,1171.7031,122,1161.7031,118,1165.7031" style="stroke: #696969; stroke-width: 1.0;"/><line style="stroke: #696969; stroke-width: 1.5;" x1="145.5" x2="242.5" y1="1134.7852" y2="1134.7852"/><polygon fill="#696969" points="238.5,1179.25,242.5,1189.25,246.5,1179.25,242.5,1183.25" style="stroke: #696969; stroke-width: 1.5;"/><line style="stroke: #696969; stroke-width: 1.5;" x1="242.5" x2="242.5" y1="1134.7852" y2="1238.7969"/><line style="stroke: #696969; stroke-width: 1.5;" x1="242.5" x2="130" y1="1238.7969" y2="1238.7969"/><polygon fill="#696969" points="140,1234.7969,130,1238.7969,140,1242.7969,136,1238.7969" style="stroke: #696969; stroke-width: 1.0;"/><line style="stroke: #696969; stroke-width: 1.5;" x1="118" x2="118" y1="1206.7969" y2="1226.7969"/><polygon fill="#696969" points="114,1216.7969,118,1226.7969,122,1216.7969,118,1220.7969" style="stroke: #696969; stroke-width: 1.0;"/><line style="stroke: #696969; stroke-width: 1.5;" x1="118" x2="118" y1="1102.7852" y2="1122.7852"/><polygon fill="#696969" points="114,1112.7852,118,1122.7852,122,1112.7852,118,1116.7852" style="stroke: #696969; stroke-width: 1.0;"/><line style="stroke: #696969; stroke-width: 1.5;" x1="118" x2="118" y1="1294.7969" y2="1319.7148"/><polygon fill="#696969" points="114,1309.7148,118,1319.7148,122,1309.7148,118,1313.7148" style="stroke: #696969; stroke-width: 1.0;"/><line style="stroke: #696969; stroke-width: 1.5;" x1="148" x2="315.5" y1="1282.7969" y2="1282.7969"/><polygon fill="#696969" points="311.5,1327.2617,315.5,1337.2617,319.5,1327.2617,315.5,1331.2617" style="stroke: #696969; stroke-width: 1.5;"/><line style="stroke: #696969; stroke-width: 1.5;" x1="315.5" x2="315.5" y1="1282.7969" y2="1386.8086"/><line style="stroke: #696969; stroke-width: 1.5;" x1="315.5" x2="130" y1="1386.8086" y2="1386.8086"/><polygon fill="#696969" points="140,1382.8086,130,1386.8086,140,1390.8086,136,1386.8086" style="stroke: #696969; stroke-width: 1.0;"/><line style="stroke: #696969; stroke-width: 1.5;" x1="118" x2="118" y1="1354.8086" y2="1374.8086"/><polygon fill="#696969" points="114,1364.8086,118,1374.8086,122,1364.8086,118,1368.8086" style="stroke: #696969; stroke-width: 1.0;"/><line style="stroke: #696969; stroke-width: 1.5;" x1="118" x2="118" y1="1250.7969" y2="1270.7969"/><polygon fill="#696969" points="114,1260.7969,118,1270.7969,122,1260.7969,118,1264.7969" style="stroke: #696969; stroke-width: 1.0;"/><line style="stroke: #696969; stroke-width: 1.5;" x1="118" x2="118" y1="1442.8086" y2="1467.7266"/><polygon fill="#696969" points="114,1457.7266,118,1467.7266,122,1457.7266,118,1461.7266" style="stroke: #696969; stroke-width: 1.0;"/><line style="stroke: #696969; stroke-width: 1.5;" x1="184.5" x2="196.5" y1="1430.8086" y2="1430.8086"/><polygon fill="#696969" points="192.5,1475.2734,196.5,1485.2734,200.5,1475.2734,196.5,1479.2734" style="stroke: #696969; stroke-width: 1.5;"/><line style="stroke: #696969; stroke-width: 1.5;" x1="196.5" x2="196.5" y1="1430.8086" y2="1534.8203"/><line style="stroke: #696969; stroke-width: 1.5;" x1="196.5" x2="130" y1="1534.8203" y2="1534.8203"/><polygon fill="#696969" points="140,1530.8203,130,1534.8203,140,1538.8203,136,1534.8203" style="stroke: #696969; stroke-width: 1.0;"/><line style="stroke: #696969; stroke-width: 1.5;" x1="118" x2="118" y1="1502.8203" y2="1522.8203"/><polygon fill="#696969" points="114,1512.8203,118,1522.8203,122,1512.8203,118,1516.8203" style="stroke: #696969; stroke-width: 1.0;"/><line style="stroke: #696969; stroke-width: 1.5;" x1="118" x2="118" y1="1398.8086" y2="1418.8086"/><polygon fill="#696969" points="114,1408.8086,118,1418.8086,122,1408.8086,118,1412.8086" style="stroke: #696969; stroke-width: 1.0;"/><line style="stroke: #696969; stroke-width: 1.5;" x1="118" x2="118" y1="1590.8203" y2="1619.543"/><polygon fill="#696969" points="114,1609.543,118,1619.543,122,1609.543,118,1613.543" style="stroke: #696969; stroke-width: 1.0;"/><line style="stroke: #696969; stroke-width: 1.5;" x1="142" x2="317.5" y1="1578.8203" y2="1578.8203"/><polygon fill="#696969" points="313.5,1627.0898,317.5,1637.0898,321.5,1627.0898,317.5,1631.0898" style="stroke: #696969; stroke-width: 1.5;"/><line style="stroke: #696969; stroke-width: 1.5;" x1="317.5" x2="317.5" y1="1578.8203" y2="1690.4414"/><line style="stroke: #696969; stroke-width: 1.5;" x1="317.5" x2="130" y1="1690.4414" y2="1690.4414"/><polygon fill="#696969" points="140,1686.4414,130,1690.4414,140,1694.4414,136,1690.4414" style="stroke: #696969; stroke-width: 1.0;"/><line style="stroke: #696969; stroke-width: 1.5;" x1="118" x2="118" y1="1654.6367" y2="1678.4414"/><polygon fill="#696969" points="114,1668.4414,118,1678.4414,122,1668.4414,118,1672.4414" style="stroke: #696969; stroke-width: 1.0;"/><line style="stroke: #696969; stroke-width: 1.5;" x1="118" x2="118" y1="1546.8203" y2="1566.8203"/><polygon fill="#696969" points="114,1556.8203,118,1566.8203,122,1556.8203,118,1560.8203" style="stroke: #696969; stroke-width: 1.0;"/><line style="stroke: #696969; stroke-width: 1.5;" x1="118" x2="118" y1="1816.4346" y2="1853.9346"/><polygon fill="#696969" points="114,1843.9346,118,1853.9346,122,1843.9346,118,1847.9346" style="stroke: #696969; stroke-width: 1.0;"/><line style="stroke: #696969; stroke-width: 1.5;" x1="118" x2="118" y1="1746.4414" y2="1781.3408"/><polygon fill="#696969" points="114,1771.3408,118,1781.3408,122,1771.3408,118,1775.3408" style="stroke: #696969; stroke-width: 1.0;"/><line style="stroke: #696969; stroke-width: 1.5;" x1="156" x2="370.5" y1="1734.4414" y2="1734.4414"/><polygon fill="#696969" points="366.5,1823.9346,370.5,1833.9346,374.5,1823.9346,370.5,1827.9346" style="stroke: #696969; stroke-width: 1.5;"/><line style="stroke: #696969; stroke-width: 1.5;" x1="370.5" x2="370.5" y1="1734.4414" y2="1921.0283"/><line style="stroke: #696969; stroke-width: 1.5;" x1="370.5" x2="130" y1="1921.0283" y2="1921.0283"/><polygon fill="#696969" points="140,1917.0283,130,1921.0283,140,1925.0283,136,1921.0283" style="stroke: #696969; stroke-width: 1.0;"/><line style="stroke: #696969; stroke-width: 1.5;" x1="118" x2="118" y1="1889.0283" y2="1909.0283"/><polygon fill="#696969" points="114,1899.0283,118,1909.0283,122,1899.0283,118,1903.0283" style="stroke: #696969; stroke-width: 1.0;"/><line style="stroke: #696969; stroke-width: 1.5;" x1="118" x2="118" y1="1702.4414" y2="1722.4414"/><polygon fill="#696969" points="114,1712.4414,118,1722.4414,122,1712.4414,118,1716.4414" style="stroke: #696969; stroke-width: 1.0;"/><line style="stroke: #696969; stroke-width: 1.5;" x1="118" x2="118" y1="911.6328" y2="974.7734"/><polygon fill="#696969" points="114,964.7734,118,974.7734,122,964.7734,118,968.7734" style="stroke: #696969; stroke-width: 1.0;"/><line style="stroke: #696969; stroke-width: 1.5;" x1="118" x2="118" y1="2002.7002" y2="2035.6191"/><polygon fill="#696969" points="114,2025.6191,118,2035.6191,122,2025.6191,118,2029.6191" style="stroke: #696969; stroke-width: 1.0;"/><line style="stroke: #696969; stroke-width: 1.5;" x1="164.5" x2="187.5" y1="1983.8643" y2="1983.8643"/><polygon fill="#696969" points="177.5,1979.8643,187.5,1983.8643,177.5,1987.8643,181.5,1983.8643" style="stroke: #696969; stroke-width: 1.0;"/><line style="stroke: #696969; stroke-width: 1.5;" x1="118" x2="118" y1="1933.0283" y2="1965.0283"/><polygon fill="#696969" points="114,1955.0283,118,1965.0283,122,1955.0283,118,1959.0283" style="stroke: #696969; stroke-width: 1.0;"/><line style="stroke: #696969; stroke-width: 1.5;" x1="118" x2="118" y1="2073.291" y2="2106.21"/><polygon fill="#696969" points="114,2096.21,118,2106.21,122,2096.21,118,2100.21" style="stroke: #696969; stroke-width: 1.0;"/><line style="stroke: #696969; stroke-width: 1.5;" x1="161" x2="184" y1="2054.4551" y2="2054.4551"/><polygon fill="#696969" points="174,2050.4551,184,2054.4551,174,2058.4551,178,2054.4551" style="stroke: #696969; stroke-width: 1.0;"/><line style="stroke: #696969; stroke-width: 1.5;" x1="118" x2="118" y1="2171.5537" y2="2204.4727"/><polygon fill="#696969" points="114,2194.4727,118,2204.4727,122,2194.4727,118,2198.4727" style="stroke: #696969; stroke-width: 1.0;"/><line style="stroke: #696969; stroke-width: 1.5;" x1="199" x2="222" y1="2138.8818" y2="2138.8818"/><polygon fill="#696969" points="212,2134.8818,222,2138.8818,212,2142.8818,216,2138.8818" style="stroke: #696969; stroke-width: 1.0;"/><line style="stroke: #696969; stroke-width: 1.5;" x1="118" x2="118" y1="2242.1445" y2="2275.0635"/><polygon fill="#696969" points="114,2265.0635,118,2275.0635,122,2265.0635,118,2269.0635" style="stroke: #696969; stroke-width: 1.0;"/><line style="stroke: #696969; stroke-width: 1.5;" x1="175" x2="198" y1="2223.3086" y2="2223.3086"/><polygon fill="#696969" points="188,2219.3086,198,2223.3086,188,2227.3086,192,2223.3086" style="stroke: #696969; stroke-width: 1.0;"/><text fill="#000080" font-family="sans-serif" font-size="14" lengthAdjust="spacingAndGlyphs" textLength="42" x="10" y="2323.6904">©2019</text><a target="_top" xlink:actuate="onRequest" xlink:href="http://www.lifestylesunlimited.com" xlink:show="new" xlink:title="http://www.lifestylesunlimited.com" xlink:type="simple"><text fill="#0000FF" font-family="sans-serif" font-size="14" lengthAdjust="spacingAndGlyphs" text-decoration="underline" textLength="122" x="56" y="2323.6904">LifeStyles Unlimited</text><line style="stroke: #0000FF; stroke-width: 1.0;" x1="56" x2="178" y1="2325.6904" y2="2325.6904"/></a><text fill="#000080" font-family="sans-serif" font-size="14" lengthAdjust="spacingAndGlyphs" textLength="279" x="182" y="2323.6904">| Generated Sun Apr 28 21:19:01 CDT 2019</text><!--
@startuml evaluating


skinparam {
  BorderColor Red
  PathHoverColor Blue
}

skinparam Title {
  FontColor Navy
  BackgroundColor PaleGoldenRod
  BorderColor Navy
  BorderRoundCorner 20
  FontSize 24
}

skinparam activity {
  BackgroundColor Ivory
  BorderColor CornflowerBlue
  BorderThickness 1
  FontColor DimGray
  

  Arrow {
    Color dimgray
    FontColor dimgray
  }

  Start {
    Color PHYSICAL
  }

  End {
    Color Coral
  }

  Diamond {
    BackgroundColor Ivory
    BorderColor CornflowerBlue
    FontColor DarkGray
  }

  BackgroundColor<< Exception >> Red
	BorderColor<< Exception >> White
}

skinparam Swimlane {
  BorderColor CornflowerBlue 
}

skinparam Partition {
  BackgroundColor Ivory
  BorderColor CornflowerBlue
  BorderThickness 1
  FontColor CornflowerBlue
  FontSize 16
  BorderRoundCorner 20
}

skinparam Note {
  BackgroundColor LightSteelBlue
  BorderColor CornflowerBlue
  FontColor White
}

skinparam Legend {
  BackgroundColor LightSteelBlue
  BorderColor CornflowerBlue
  FontColor White
}

skinparam Footer {
  FontColor Navy
}


left header 
	<font color=Navy size=24>[[../index.svg?sanitize=true ⌂ Home]]</font>
endheader


	Title Evaluating (Analysis)

	start

	partition "Gather Information" {
		#PHYSICAL:<&dollar> purchase price]
		note right: offer full price
		#PHYSICAL:<&dollar> survey 350]
		note right: dfw $350
		#PHYSICAL:<&dollar> appraisal first closing 500]
		note right: hard money
		#PHYSICAL:<&dollar> appraisal second closing 500]
		note right: back-end lender
		:<&calculator> lending rate]
		note right: interest rate
		#PHYSICAL:<&dollar> hoa dues]
		note right: monthly
		#PHYSICAL:<&dollar> property taxes]
		note right: annual
		#PHYSICAL:<&dollar> insurance 500-700]
		note right: annual
		#PHYSICAL:<&dollar> rent]
		note right: can use zillow
		#PHYSICAL:<&calculator> escrow]
		note right
			quarterly cost
			(taxes + insurance) / 4
		end note
		#PHYSICAL:<&dollar> hard money loan amount]
		note right
			70% ARV
		end note
		#PHYSICAL:<&dollar> conventional loan amount]
		note right
			75% ARV
		end note
		#PHYSICAL:<&dollar> hard money closing costs]		
		note right
			~ 7% of loan amount
		end note
		#PHYSICAL:<&dollar> conventional closing costs]		
		note right
			~ 5% of loan amount
		end note
	}

	partition "Calculate Rehab Cost" {
		note right: rehab all properties the same
		if(countertops) then (yes)
			#PHYSICAL:<&dollar> 150]
			note right:butcherblock
		else (no)
		endif
		
		if(carpet) then (yes)
			#PHYSICAL:<&dollar> 1.25 / sq ft]
			note right:avoid
		else (no)
		endif

		if(flooring) then (yes)
			#PHYSICAL:<&dollar> 1.69 / sq ft]
			note right:glued vinyl planks
		else (no)
		endif

		if(old hard wood flooring) then (yes)
			#PHYSICAL:<&dollar> resurface]
		else (no)
		endif

		if(paint) then (yes)
			#PHYSICAL:<&dollar> 1.89 / sq ft]
			note right
				PPG
				stone mason grey
			end note
		else (no)
		endif

		if(appliances) then (yes)
			#PHYSICAL:<&dollar> 1000]
			note right
				HD Supply
				stainless steel
				stove, microwave, dishwasher
			end note
			#PHYSICAL:<&dollar> installation]
		else (no)
		endif
	}

	if(income ok\n- - - -\n$200-600 / mo) then (no)
		stop
	else (yes)
	endif

	if(cost/sql ft ok\n- - - -\n< $88 / sq ft) then (no)
		stop
	else (yes)
	endif

	if(correct cash-on-cash return\n- - - -\nshould be 8-30 %\nnet of lending rate\n<i>inflation is 3-4 %) then(no)
		stop
	else (yes)
	endif

	if(correct equity gain\n- - - -\nshould be 100%) then(no)
		stop
	else (yes)
	endif

	:visit;


left footer 
	<font size=14>©2019 [[http://www.lifestylesunlimited.com LifeStyles Unlimited]] | Generated Sun Apr 28 21:19:01 CDT 2019</font>
endfooter


@enduml

PlantUML version 1.2019.03(Sun Mar 10 06:04:44 CDT 2019)
(GPL source distribution)
Java Runtime: Java(TM) SE Runtime Environment
JVM: Java HotSpot(TM) 64-Bit Server VM
Java Version: 1.8.0_111-b14
Operating System: Windows 10
OS Version: 10.0
Default Encoding: Cp1252
Language: en
Country: US
--></g></svg>