<?xml version="1.0" encoding="UTF-8" standalone="no"?><svg xmlns="http://www.w3.org/2000/svg" xmlns:xlink="http://www.w3.org/1999/xlink" contentScriptType="application/ecmascript" contentStyleType="text/css" height="1310px" preserveAspectRatio="none" style="width:1023px;height:1310px;" version="1.1" viewBox="0 0 1023 1310" width="1023px" zoomAndPan="magnify"><defs><style type="text/css"><![CDATA[path:hover { stroke: #0000FF !important;}]]></style><filter height="300%" id="fww7dgbxl5fzw" width="300%" x="-1" y="-1"><feGaussianBlur result="blurOut" stdDeviation="2.0"/><feColorMatrix in="blurOut" result="blurOut2" type="matrix" values="0 0 0 0 0 0 0 0 0 0 0 0 0 0 0 0 0 0 .4 0"/><feOffset dx="4.0" dy="4.0" in="blurOut2" result="blurOut3"/><feBlend in="SourceGraphic" in2="blurOut3" mode="normal"/></filter></defs><g><a target="_top" xlink:actuate="onRequest" xlink:href="../index.svg" xlink:show="new" xlink:title="../index.svg" xlink:type="simple"><text fill="#0000FF" font-family="sans-serif" font-size="24" lengthAdjust="spacingAndGlyphs" text-decoration="underline" textLength="90" x="10" y="34.9141">⌂ Home</text><line style="stroke: #0000FF; stroke-width: 1.0;" x1="10" x2="100" y1="36.9141" y2="36.9141"/></a><rect fill="#EEE8AA" height="40.1875" rx="10" ry="10" style="stroke: #000080; stroke-width: 1.5;" width="100" x="460.375" y="42.1875"/><text fill="#000080" font-family="sans-serif" font-size="24" lengthAdjust="spacingAndGlyphs" textLength="84" x="468.375" y="72.1016">Evicting</text><ellipse cx="714.25" cy="95.375" fill="#CCFFCC" filter="url(#fww7dgbxl5fzw)" rx="10" ry="10" style="stroke: none; stroke-width: 1.0;"/><rect fill="#FFFFF0" filter="url(#fww7dgbxl5fzw)" height="35.0938" rx="12.5" ry="12.5" style="stroke: #6495ED; stroke-width: 1.0;" width="146" x="641.25" y="147.6279"/><text fill="#696969" font-family="sans-serif" font-size="12" lengthAdjust="spacingAndGlyphs" textLength="126" x="651.25" y="170.085">obtain proof of violation</text><rect fill="#FFFFF0" filter="url(#fww7dgbxl5fzw)" height="203.2188" style="stroke: #6495ED; stroke-width: 1.0;" width="805" x="118.75" y="193.7373"/><path d="M249.75,194.7373 L249.75,206.8623 L239.75,216.8623 L118.75,216.8623 " fill="none" style="stroke: #6495ED; stroke-width: 1.0;"/><text fill="#6495ED" font-family="sans-serif" font-size="16" lengthAdjust="spacingAndGlyphs" textLength="121" x="121.75" y="211.3467">Notice of Eviction</text><path d="M138.75,296.2334 L138.75,322.585 L359.75,322.585 L359.75,306.2334 L349.75,296.2334 L138.75,296.2334 " fill="#B0C4DE" filter="url(#fww7dgbxl5fzw)" style="stroke: #6495ED; stroke-width: 1.0;"/><path d="M349.75,296.2334 L349.75,306.2334 L359.75,306.2334 L349.75,296.2334 " fill="#B0C4DE" style="stroke: #6495ED; stroke-width: 1.0;"/><text fill="#FFFFFF" font-family="sans-serif" font-size="13" lengthAdjust="spacingAndGlyphs" textLength="200" x="144.75" y="314.7285">see document hub for more details</text><polygon fill="#FFFFF0" filter="url(#fww7dgbxl5fzw)" points="689.25,233.8623,739.25,233.8623,751.25,245.8623,739.25,257.8623,689.25,257.8623,677.25,245.8623,689.25,233.8623" style="stroke: #6495ED; stroke-width: 1.0;"/><text fill="#A9A9A9" font-family="sans-serif" font-size="11" lengthAdjust="spacingAndGlyphs" textLength="50" x="689.25" y="250.3633">rent is late</text><text fill="#696969" font-family="sans-serif" font-size="11" lengthAdjust="spacingAndGlyphs" textLength="18" x="659.25" y="243.4453">yes</text><text fill="#696969" font-family="sans-serif" font-size="11" lengthAdjust="spacingAndGlyphs" textLength="12" x="751.25" y="243.4453">no</text><rect fill="#000000" filter="url(#fww7dgbxl5fzw)" height="6" rx="2.5" ry="2.5" style="stroke: #000000; stroke-width: 1.0;" width="397" x="379.75" y="267.8623"/><rect fill="#CCFFCC" filter="url(#fww7dgbxl5fzw)" height="35.0938" style="stroke: #6495ED; stroke-width: 1.0;" width="80" x="393.75" y="293.8623"/><path d="M407.75,307.9561 L407.75,308.9561 L407,308.9561 C406.314,308.9561 405.75,309.5201 405.75,310.2061 L405.75,310.7061 C405.75,311.3841 406.187,311.9481 406.844,312.1121 L409.407,312.7681 C409.55,312.8041 409.751,313.0641 409.751,313.2061 L409.751,313.7061 C409.751,313.8401 409.635,313.9561 409.501,313.9561 L407.001,313.9561 C406.885,313.9561 406.789,313.9191 406.751,313.8931 L406.751,312.9551 L405.751,312.9551 L405.751,313.9551 C405.751,314.2971 405.954,314.5821 406.189,314.7361 C406.423,314.8911 406.707,314.9551 407.002,314.9551 L407.752,314.9551 L407.752,315.9551 L408.752,315.9551 L408.752,314.9551 L409.502,314.9551 C410.188,314.9551 410.752,314.3911 410.752,313.7051 L410.752,313.2051 C410.752,312.5271 410.315,311.9631 409.658,311.7991 L407.095,311.1431 C406.952,311.1071 406.751,310.8471 406.751,310.7051 L406.751,310.2051 C406.751,310.0711 406.867,309.9551 407.001,309.9551 L409.501,309.9551 C409.617,309.9551 409.713,309.9921 409.751,310.0181 L409.751,310.9561 L410.751,310.9561 L410.751,309.9561 C410.751,309.6141 410.548,309.3291 410.313,309.1751 C410.079,309.0201 409.795,308.9561 409.5,308.9561 L408.75,308.9561 L408.75,307.9561 L407.75,307.9561 " fill="#696969" style="stroke: ; stroke-width: 0.0; stroke-dasharray: ;"/><text fill="#696969" font-family="sans-serif" font-size="12" lengthAdjust="spacingAndGlyphs" textLength="47" x="416.75" y="316.3193">late fees</text><a target="_top" xlink:actuate="onRequest" xlink:href="https://drive.google.com/open?id=0B18-6Qbo-LJ5Y3d0V1VBeGRHWlE" xlink:show="new" xlink:title="https://drive.google.com/open?id=0B18-6Qbo-LJ5Y3d0V1VBeGRHWlE" xlink:type="simple"><rect fill="#87CEFA" filter="url(#fww7dgbxl5fzw)" height="35.0938" style="stroke: #6495ED; stroke-width: 1.0;" width="261" x="501.75" y="293.8623"/><text fill="#696969" font-family="sans-serif" font-size="12" lengthAdjust="spacingAndGlyphs" textLength="241" x="511.75" y="316.3193">Texas Notice To Vacate - Failure to Pay Rent</text></a><rect fill="#000000" filter="url(#fww7dgbxl5fzw)" height="6" rx="2.5" ry="2.5" style="stroke: #000000; stroke-width: 1.0;" width="397" x="379.75" y="348.9561"/><a target="_top" xlink:actuate="onRequest" xlink:href="https://drive.google.com/open?id=0B18-6Qbo-LJ5U2pkTXRaMTg3SjQ" xlink:show="new" xlink:title="https://drive.google.com/open?id=0B18-6Qbo-LJ5U2pkTXRaMTg3SjQ" xlink:type="simple"><rect fill="#87CEFA" filter="url(#fww7dgbxl5fzw)" height="75.2813" style="stroke: #6495ED; stroke-width: 1.0;" width="107" x="796.75" y="267.8623"/><text fill="#696969" font-family="sans-serif" font-size="12" lengthAdjust="spacingAndGlyphs" textLength="84" x="806.75" y="290.3193">notice to vacate</text><line style="stroke: #6495ED; stroke-width: 1.0;" x1="796.75" x2="903.75" y1="297.9561" y2="297.9561"/><text fill="#696969" font-family="sans-serif" font-size="12" font-style="italic" lengthAdjust="spacingAndGlyphs" textLength="78" x="806.75" y="315.4131">eviction notice</text><text fill="#696969" font-family="sans-serif" font-size="12" lengthAdjust="spacingAndGlyphs" textLength="87" x="806.75" y="330.5068">3 days to vacate</text></a><polygon fill="#FFFFF0" filter="url(#fww7dgbxl5fzw)" points="714.25,360.9561,726.25,372.9561,714.25,384.9561,702.25,372.9561,714.25,360.9561" style="stroke: #6495ED; stroke-width: 1.0;"/><rect fill="#FFFFF0" filter="url(#fww7dgbxl5fzw)" height="139.2188" style="stroke: #6495ED; stroke-width: 1.0;" width="375" x="526.75" y="429.1465"/><path d="M677.75,430.1465 L677.75,442.2715 L667.75,452.2715 L526.75,452.2715 " fill="none" style="stroke: #6495ED; stroke-width: 1.0;"/><text fill="#6495ED" font-family="sans-serif" font-size="16" lengthAdjust="spacingAndGlyphs" textLength="141" x="529.75" y="446.7559">Filing a Eviction Suit</text><rect fill="#000000" filter="url(#fww7dgbxl5fzw)" height="6" rx="2.5" ry="2.5" style="stroke: #000000; stroke-width: 1.0;" width="355" x="536.75" y="469.2715"/><rect fill="#FFFFF0" filter="url(#fww7dgbxl5fzw)" height="35.0938" style="stroke: #6495ED; stroke-width: 1.0;" width="78" x="550.75" y="495.2715"/><text fill="#696969" font-family="sans-serif" font-size="12" lengthAdjust="spacingAndGlyphs" textLength="58" x="560.75" y="517.7285">Summons</text><rect fill="#FFFFF0" filter="url(#fww7dgbxl5fzw)" height="35.0938" style="stroke: #6495ED; stroke-width: 1.0;" width="77" x="656.75" y="495.2715"/><text fill="#696969" font-family="sans-serif" font-size="12" lengthAdjust="spacingAndGlyphs" textLength="57" x="666.75" y="517.7285">Complaint</text><rect fill="#CCFFCC" filter="url(#fww7dgbxl5fzw)" height="35.0938" style="stroke: #6495ED; stroke-width: 1.0;" width="116" x="761.75" y="495.2715"/><path d="M775.75,509.3652 L775.75,510.3652 L775,510.3652 C774.314,510.3652 773.75,510.9292 773.75,511.6152 L773.75,512.1152 C773.75,512.7932 774.187,513.3572 774.844,513.5212 L777.407,514.1772 C777.55,514.2132 777.751,514.4732 777.751,514.6152 L777.751,515.1152 C777.751,515.2492 777.635,515.3652 777.501,515.3652 L775.001,515.3652 C774.885,515.3652 774.789,515.3282 774.751,515.3022 L774.751,514.3642 L773.751,514.3642 L773.751,515.3642 C773.751,515.7062 773.954,515.9912 774.189,516.1452 C774.423,516.3002 774.707,516.3642 775.002,516.3642 L775.752,516.3642 L775.752,517.3642 L776.752,517.3642 L776.752,516.3642 L777.502,516.3642 C778.188,516.3642 778.752,515.8002 778.752,515.1142 L778.752,514.6142 C778.752,513.9362 778.315,513.3722 777.658,513.2082 L775.095,512.5522 C774.952,512.5162 774.751,512.2562 774.751,512.1142 L774.751,511.6142 C774.751,511.4802 774.867,511.3642 775.001,511.3642 L777.501,511.3642 C777.617,511.3642 777.713,511.4012 777.751,511.4272 L777.751,512.3652 L778.751,512.3652 L778.751,511.3652 C778.751,511.0232 778.548,510.7382 778.313,510.5842 C778.079,510.4292 777.795,510.3652 777.5,510.3652 L776.75,510.3652 L776.75,509.3652 L775.75,509.3652 " fill="#696969" style="stroke: ; stroke-width: 0.0; stroke-dasharray: ;"/><text fill="#696969" font-family="sans-serif" font-size="12" lengthAdjust="spacingAndGlyphs" textLength="46" x="784.75" y="517.7285">filing fee</text><path d="M839.75,510.3652 L839.75,512.3652 L834.75,512.3652 L834.75,514.3652 L839.75,514.3652 L839.75,516.3652 L842.75,513.3342 L839.75,510.3652 " fill="#696969" style="stroke: ; stroke-width: 0.0; stroke-dasharray: ;"/><text fill="#696969" font-family="sans-serif" font-size="12" lengthAdjust="spacingAndGlyphs" textLength="21" x="846.75" y="517.7285">150</text><rect fill="#000000" filter="url(#fww7dgbxl5fzw)" height="6" rx="2.5" ry="2.5" style="stroke: #000000; stroke-width: 1.0;" width="355" x="536.75" y="550.3652"/><polygon fill="#FFFFF0" filter="url(#fww7dgbxl5fzw)" points="698.25,617.209,730.25,617.209,742.25,629.209,730.25,641.209,698.25,641.209,686.25,629.209,698.25,617.209" style="stroke: #6495ED; stroke-width: 1.0;"/><text fill="#A9A9A9" font-family="sans-serif" font-size="11" lengthAdjust="spacingAndGlyphs" textLength="32" x="698.25" y="633.71">prevail</text><text fill="#696969" font-family="sans-serif" font-size="11" lengthAdjust="spacingAndGlyphs" textLength="18" x="578.9167" y="612.9561">yes</text><path d="M581.75,619.1257 L581.75,620.0423 L582.6667,620.0423 L582.6667,620.0707 C581.1111,620.2917 579.9167,621.6355 579.9167,623.2507 C579.9167,625.0189 581.3567,626.459 583.125,626.459 C584.8933,626.459 586.3333,625.0189 586.3333,623.2507 C586.3333,622.8382 586.2545,622.4495 586.1326,622.1048 L585.2728,622.4202 C585.3708,622.6988 585.4158,622.9665 585.4158,623.2507 C585.4158,624.5257 584.3992,625.5423 583.1241,625.5423 C581.849,625.5423 580.8324,624.5257 580.8324,623.2507 C580.8324,621.9756 581.849,620.959 583.1241,620.959 C583.3973,620.959 583.6603,621.0057 583.9262,621.102 L584.2415,620.2422 C584.0389,620.1679 583.8098,620.1331 583.5824,620.0992 L583.5824,620.0414 L584.4991,620.0414 L584.4991,619.1247 L581.7491,619.1247 M586.3324,620.156 C582.9637,622.7227 582.9637,622.7227 582.7803,622.906 C582.597,623.0893 582.597,623.3817 582.7803,623.5651 C582.9637,623.7484 583.2561,623.7484 583.4394,623.5651 C583.6228,623.3909 586.3324,620.156 586.3324,620.156 " fill="#696969" style="stroke: ; stroke-width: 0.0; stroke-dasharray: ;"/><text fill="#696969" font-family="sans-serif" font-size="11" lengthAdjust="spacingAndGlyphs" textLength="95" x="591.25" y="626.792">has 7 days to leave</text><text fill="#696969" font-family="sans-serif" font-size="11" lengthAdjust="spacingAndGlyphs" textLength="12" x="742.25" y="626.792">no</text><rect fill="#FFFFF0" filter="url(#fww7dgbxl5fzw)" height="139.2188" style="stroke: #6495ED; stroke-width: 1.0;" width="312" x="289" y="699.1436"/><path d="M412,700.1436 L412,712.2686 L402,722.2686 L289,722.2686 " fill="none" style="stroke: #6495ED; stroke-width: 1.0;"/><text fill="#6495ED" font-family="sans-serif" font-size="16" lengthAdjust="spacingAndGlyphs" textLength="113" x="292" y="716.7529">Enforce Eviction</text><rect fill="#000000" filter="url(#fww7dgbxl5fzw)" height="6" rx="2.5" ry="2.5" style="stroke: #000000; stroke-width: 1.0;" width="292" x="299" y="739.2686"/><rect fill="#FFFFF0" filter="url(#fww7dgbxl5fzw)" height="35.0938" style="stroke: #6495ED; stroke-width: 1.0;" width="124" x="313" y="765.2686"/><text fill="#696969" font-family="sans-serif" font-size="12" lengthAdjust="spacingAndGlyphs" textLength="104" x="323" y="787.7256">Writ of Possession</text><rect fill="#CCFFCC" filter="url(#fww7dgbxl5fzw)" height="35.0938" style="stroke: #6495ED; stroke-width: 1.0;" width="112" x="465" y="765.2686"/><path d="M479,779.3623 L479,780.3623 L478.25,780.3623 C477.564,780.3623 477,780.9263 477,781.6123 L477,782.1123 C477,782.7903 477.437,783.3543 478.094,783.5183 L480.657,784.1743 C480.8,784.2103 481.001,784.4703 481.001,784.6123 L481.001,785.1123 C481.001,785.2463 480.885,785.3623 480.751,785.3623 L478.251,785.3623 C478.135,785.3623 478.039,785.3253 478.001,785.2993 L478.001,784.3613 L477.001,784.3613 L477.001,785.3613 C477.001,785.7033 477.204,785.9883 477.439,786.1423 C477.673,786.2973 477.957,786.3613 478.252,786.3613 L479.002,786.3613 L479.002,787.3613 L480.002,787.3613 L480.002,786.3613 L480.752,786.3613 C481.438,786.3613 482.002,785.7973 482.002,785.1113 L482.002,784.6113 C482.002,783.9333 481.565,783.3693 480.908,783.2053 L478.345,782.5493 C478.202,782.5133 478.001,782.2533 478.001,782.1113 L478.001,781.6113 C478.001,781.4773 478.117,781.3613 478.251,781.3613 L480.751,781.3613 C480.867,781.3613 480.963,781.3983 481.001,781.4243 L481.001,782.3623 L482.001,782.3623 L482.001,781.3623 C482.001,781.0203 481.798,780.7353 481.563,780.5813 C481.329,780.4263 481.045,780.3623 480.75,780.3623 L480,780.3623 L480,779.3623 L479,779.3623 " fill="#696969" style="stroke: ; stroke-width: 0.0; stroke-dasharray: ;"/><text fill="#696969" font-family="sans-serif" font-size="12" lengthAdjust="spacingAndGlyphs" textLength="17" x="488" y="787.7256">fee</text><path d="M514,780.3623 L514,782.3623 L509,782.3623 L509,784.3623 L514,784.3623 L514,786.3623 L517,783.3313 L514,780.3623 " fill="#696969" style="stroke: ; stroke-width: 0.0; stroke-dasharray: ;"/><text fill="#696969" font-family="sans-serif" font-size="12" lengthAdjust="spacingAndGlyphs" textLength="46" x="521" y="787.7256">150-200</text><rect fill="#000000" filter="url(#fww7dgbxl5fzw)" height="6" rx="2.5" ry="2.5" style="stroke: #000000; stroke-width: 1.0;" width="292" x="299" y="820.3623"/><rect fill="#FFFFF0" filter="url(#fww7dgbxl5fzw)" height="139.2188" style="stroke: #6495ED; stroke-width: 1.0;" width="870" x="10" y="926.7158"/><path d="M137,927.7158 L137,939.8408 L127,949.8408 L10,949.8408 " fill="none" style="stroke: #6495ED; stroke-width: 1.0;"/><text fill="#6495ED" font-family="sans-serif" font-size="16" lengthAdjust="spacingAndGlyphs" textLength="117" x="13" y="944.3252">Physical Eviction</text><rect fill="#000000" filter="url(#fww7dgbxl5fzw)" height="6" rx="2.5" ry="2.5" style="stroke: #000000; stroke-width: 1.0;" width="850" x="20" y="966.8408"/><rect fill="#FFFFF0" filter="url(#fww7dgbxl5fzw)" height="35.0938" rx="12.5" ry="12.5" style="stroke: #6495ED; stroke-width: 1.0;" width="151" x="34" y="992.8408"/><text fill="#696969" font-family="sans-serif" font-size="12" lengthAdjust="spacingAndGlyphs" textLength="131" x="44" y="1015.2979">sheriff performs eviction</text><path d="M422,997.2119 L422,1006.3877 L402,1010.3877 L422,1014.3877 L422,1023.5635 A0,0 0 0 0 422,1023.5635 L647,1023.5635 A0,0 0 0 0 647,1023.5635 L647,1007.2119 L637,997.2119 L422,997.2119 A0,0 0 0 0 422,997.2119 " fill="#B0C4DE" filter="url(#fww7dgbxl5fzw)" style="stroke: #6495ED; stroke-width: 1.0;"/><path d="M637,997.2119 L637,1007.2119 L647,1007.2119 L637,997.2119 " fill="#B0C4DE" style="stroke: #6495ED; stroke-width: 1.0;"/><text fill="#FFFFFF" font-family="sans-serif" font-size="13" lengthAdjust="spacingAndGlyphs" textLength="204" x="428" y="1015.707">sheriff decides what can be trashed</text><rect fill="#FFFFF0" filter="url(#fww7dgbxl5fzw)" height="35.0938" rx="12.5" ry="12.5" style="stroke: #6495ED; stroke-width: 1.0;" width="189" x="213" y="992.8408"/><text fill="#696969" font-family="sans-serif" font-size="12" lengthAdjust="spacingAndGlyphs" textLength="169" x="223" y="1015.2979">movers move trash to the trash</text><rect fill="#FFFFF0" filter="url(#fww7dgbxl5fzw)" height="35.0938" rx="12.5" ry="12.5" style="stroke: #6495ED; stroke-width: 1.0;" width="181" x="675" y="992.8408"/><text fill="#696969" font-family="sans-serif" font-size="12" lengthAdjust="spacingAndGlyphs" textLength="161" x="685" y="1015.2979">movers move property to curb</text><rect fill="#000000" filter="url(#fww7dgbxl5fzw)" height="6" rx="2.5" ry="2.5" style="stroke: #000000; stroke-width: 1.0;" width="850" x="20" y="1047.9346"/><polygon fill="#FFFFF0" filter="url(#fww7dgbxl5fzw)" points="407,878.7813,483,878.7813,495,890.7813,483,902.7813,407,902.7813,395,890.7813,407,878.7813" style="stroke: #6495ED; stroke-width: 1.0;"/><text fill="#696969" font-family="sans-serif" font-size="11" lengthAdjust="spacingAndGlyphs" textLength="12" x="449" y="914.2002">no</text><text fill="#A9A9A9" font-family="sans-serif" font-size="11" lengthAdjust="spacingAndGlyphs" textLength="76" x="407" y="895.2822">vacates on time</text><text fill="#696969" font-family="sans-serif" font-size="11" lengthAdjust="spacingAndGlyphs" textLength="18" x="495" y="888.3643">yes</text><polygon fill="#FFFFF0" filter="url(#fww7dgbxl5fzw)" points="445,1090.6875,457,1102.6875,445,1114.6875,433,1102.6875,445,1090.6875" style="stroke: #6495ED; stroke-width: 1.0;"/><path d="M453.8333,1080.6042 L453.8333,1081.5208 L454.75,1081.5208 L454.75,1081.5493 C453.1944,1081.7702 452,1083.114 452,1084.7292 C452,1086.4974 453.4401,1087.9375 455.2083,1087.9375 C456.9766,1087.9375 458.4167,1086.4974 458.4167,1084.7292 C458.4167,1084.3167 458.3378,1083.928 458.2159,1083.5833 L457.3561,1083.8987 C457.4542,1084.1773 457.4991,1084.445 457.4991,1084.7292 C457.4991,1086.0043 456.4825,1087.0208 455.2074,1087.0208 C453.9323,1087.0208 452.9158,1086.0043 452.9158,1084.7292 C452.9158,1083.4541 453.9323,1082.4375 455.2074,1082.4375 C455.4806,1082.4375 455.7437,1082.4843 456.0095,1082.5805 L456.3248,1081.7207 C456.1223,1081.6464 455.8931,1081.6116 455.6658,1081.5777 L455.6658,1081.5199 L456.5824,1081.5199 L456.5824,1080.6033 L453.8324,1080.6033 M458.4158,1081.6345 C455.047,1084.2012 455.047,1084.2012 454.8637,1084.3845 C454.6803,1084.5678 454.6803,1084.8603 454.8637,1085.0436 C455.047,1085.2269 455.3394,1085.2269 455.5228,1085.0436 C455.7061,1084.8694 458.4158,1081.6345 458.4158,1081.6345 " fill="#696969" style="stroke: ; stroke-width: 0.0; stroke-dasharray: ;"/><text fill="#696969" font-family="sans-serif" font-size="11" lengthAdjust="spacingAndGlyphs" textLength="193" x="463.3333" y="1088.2705">tenant has 24 hours to retrieve property</text><polygon fill="#FFFFF0" filter="url(#fww7dgbxl5fzw)" points="407,651.209,483,651.209,495,663.209,483,675.209,407,675.209,395,663.209,407,651.209" style="stroke: #6495ED; stroke-width: 1.0;"/><text fill="#696969" font-family="sans-serif" font-size="11" lengthAdjust="spacingAndGlyphs" textLength="12" x="449" y="686.6279">no</text><text fill="#A9A9A9" font-family="sans-serif" font-size="11" lengthAdjust="spacingAndGlyphs" textLength="76" x="407" y="667.71">vacates on time</text><text fill="#696969" font-family="sans-serif" font-size="11" lengthAdjust="spacingAndGlyphs" textLength="18" x="495" y="660.792">yes</text><polygon fill="#FFFFF0" filter="url(#fww7dgbxl5fzw)" points="445,1134.6875,457,1146.6875,445,1158.6875,433,1146.6875,445,1134.6875" style="stroke: #6495ED; stroke-width: 1.0;"/><rect fill="#DDA0DD" filter="url(#fww7dgbxl5fzw)" height="35.0938" rx="12.5" ry="12.5" style="stroke: #6495ED; stroke-width: 1.0;" width="79" x="933.75" y="651.209"/><text fill="#696969" font-family="sans-serif" font-size="12" lengthAdjust="spacingAndGlyphs" textLength="59" x="943.75" y="673.666">now what?</text><polygon fill="#FFFFF0" filter="url(#fww7dgbxl5fzw)" points="714.25,1164.6875,726.25,1176.6875,714.25,1188.6875,702.25,1176.6875,714.25,1164.6875" style="stroke: #6495ED; stroke-width: 1.0;"/><rect fill="#FFFFF0" filter="url(#fww7dgbxl5fzw)" height="35.0938" rx="12.5" ry="12.5" style="stroke: #6495ED; stroke-width: 1.0;" width="93" x="667.75" y="1208.6875"/><text fill="#696969" font-family="sans-serif" font-size="12" lengthAdjust="spacingAndGlyphs" textLength="73" x="677.75" y="1231.1445">change locks</text><ellipse cx="714.25" cy="1273.7813" fill="#FFFFFF" filter="url(#fww7dgbxl5fzw)" rx="10" ry="10" style="stroke: #FF7F50; stroke-width: 1.5;"/><line style="stroke: #FF7F50; stroke-width: 2.5;" x1="708.0628" x2="720.4372" y1="1267.5941" y2="1279.9684"/><line style="stroke: #FF7F50; stroke-width: 2.5;" x1="720.4372" x2="708.0628" y1="1267.5941" y2="1279.9684"/><line style="stroke: #696969; stroke-width: 1.5;" x1="714.25" x2="714.25" y1="105.375" y2="147.6279"/><polygon fill="#696969" points="710.25,137.6279,714.25,147.6279,718.25,137.6279,714.25,141.6279" style="stroke: #696969; stroke-width: 1.0;"/><text fill="#696969" font-family="sans-serif" font-size="11" lengthAdjust="spacingAndGlyphs" textLength="99" x="718.25" y="127.7109">tenent violates lease</text><line style="stroke: #696969; stroke-width: 1.5;" x1="433.75" x2="433.75" y1="273.8623" y2="293.8623"/><polygon fill="#696969" points="429.75,283.8623,433.75,293.8623,437.75,283.8623,433.75,287.8623" style="stroke: #696969; stroke-width: 1.0;"/><line style="stroke: #696969; stroke-width: 1.5;" x1="632.25" x2="632.25" y1="273.8623" y2="293.8623"/><polygon fill="#696969" points="628.25,283.8623,632.25,293.8623,636.25,283.8623,632.25,287.8623" style="stroke: #696969; stroke-width: 1.0;"/><line style="stroke: #696969; stroke-width: 1.5;" x1="433.75" x2="433.75" y1="328.9561" y2="348.9561"/><polygon fill="#696969" points="429.75,338.9561,433.75,348.9561,437.75,338.9561,433.75,342.9561" style="stroke: #696969; stroke-width: 1.0;"/><line style="stroke: #696969; stroke-width: 1.5;" x1="632.25" x2="632.25" y1="328.9561" y2="348.9561"/><polygon fill="#696969" points="628.25,338.9561,632.25,348.9561,636.25,338.9561,632.25,342.9561" style="stroke: #696969; stroke-width: 1.0;"/><line style="stroke: #696969; stroke-width: 1.5;" x1="677.25" x2="578.25" y1="245.8623" y2="245.8623"/><line style="stroke: #696969; stroke-width: 1.5;" x1="578.25" x2="578.25" y1="245.8623" y2="267.8623"/><polygon fill="#696969" points="574.25,257.8623,578.25,267.8623,582.25,257.8623,578.25,261.8623" style="stroke: #696969; stroke-width: 1.0;"/><line style="stroke: #696969; stroke-width: 1.5;" x1="751.25" x2="850.25" y1="245.8623" y2="245.8623"/><line style="stroke: #696969; stroke-width: 1.5;" x1="850.25" x2="850.25" y1="245.8623" y2="267.8623"/><polygon fill="#696969" points="846.25,257.8623,850.25,267.8623,854.25,257.8623,850.25,261.8623" style="stroke: #696969; stroke-width: 1.0;"/><line style="stroke: #696969; stroke-width: 1.5;" x1="578.25" x2="578.25" y1="354.9561" y2="372.9561"/><line style="stroke: #696969; stroke-width: 1.5;" x1="578.25" x2="702.25" y1="372.9561" y2="372.9561"/><polygon fill="#696969" points="692.25,368.9561,702.25,372.9561,692.25,376.9561,696.25,372.9561" style="stroke: #696969; stroke-width: 1.0;"/><line style="stroke: #696969; stroke-width: 1.5;" x1="850.25" x2="850.25" y1="343.1436" y2="372.9561"/><line style="stroke: #696969; stroke-width: 1.5;" x1="850.25" x2="726.25" y1="372.9561" y2="372.9561"/><polygon fill="#696969" points="736.25,368.9561,726.25,372.9561,736.25,376.9561,732.25,372.9561" style="stroke: #696969; stroke-width: 1.0;"/><line style="stroke: #696969; stroke-width: 1.5;" x1="714.25" x2="714.25" y1="182.7217" y2="233.8623"/><polygon fill="#696969" points="710.25,223.8623,714.25,233.8623,718.25,223.8623,714.25,227.8623" style="stroke: #696969; stroke-width: 1.0;"/><line style="stroke: #696969; stroke-width: 1.5;" x1="589.75" x2="589.75" y1="475.2715" y2="495.2715"/><polygon fill="#696969" points="585.75,485.2715,589.75,495.2715,593.75,485.2715,589.75,489.2715" style="stroke: #696969; stroke-width: 1.0;"/><line style="stroke: #696969; stroke-width: 1.5;" x1="695.25" x2="695.25" y1="475.2715" y2="495.2715"/><polygon fill="#696969" points="691.25,485.2715,695.25,495.2715,699.25,485.2715,695.25,489.2715" style="stroke: #696969; stroke-width: 1.0;"/><line style="stroke: #696969; stroke-width: 1.5;" x1="819.75" x2="819.75" y1="475.2715" y2="495.2715"/><polygon fill="#696969" points="815.75,485.2715,819.75,495.2715,823.75,485.2715,819.75,489.2715" style="stroke: #696969; stroke-width: 1.0;"/><line style="stroke: #696969; stroke-width: 1.5;" x1="589.75" x2="589.75" y1="530.3652" y2="550.3652"/><polygon fill="#696969" points="585.75,540.3652,589.75,550.3652,593.75,540.3652,589.75,544.3652" style="stroke: #696969; stroke-width: 1.0;"/><line style="stroke: #696969; stroke-width: 1.5;" x1="695.25" x2="695.25" y1="530.3652" y2="550.3652"/><polygon fill="#696969" points="691.25,540.3652,695.25,550.3652,699.25,540.3652,695.25,544.3652" style="stroke: #696969; stroke-width: 1.0;"/><line style="stroke: #696969; stroke-width: 1.5;" x1="819.75" x2="819.75" y1="530.3652" y2="550.3652"/><polygon fill="#696969" points="815.75,540.3652,819.75,550.3652,823.75,540.3652,819.75,544.3652" style="stroke: #696969; stroke-width: 1.0;"/><line style="stroke: #696969; stroke-width: 1.5;" x1="714.25" x2="714.25" y1="384.9561" y2="469.2715"/><polygon fill="#696969" points="710.25,459.2715,714.25,469.2715,718.25,459.2715,714.25,463.2715" style="stroke: #696969; stroke-width: 1.0;"/><path d="M721.0833,411.6257 L721.0833,412.5423 L722,412.5423 L722,412.5707 C720.4444,412.7917 719.25,414.1355 719.25,415.7507 C719.25,417.5189 720.6901,418.959 722.4583,418.959 C724.2266,418.959 725.6667,417.5189 725.6667,415.7507 C725.6667,415.3382 725.5878,414.9495 725.4659,414.6048 L724.6061,414.9202 C724.7042,415.1988 724.7491,415.4665 724.7491,415.7507 C724.7491,417.0257 723.7325,418.0423 722.4574,418.0423 C721.1823,418.0423 720.1658,417.0257 720.1658,415.7507 C720.1658,414.4756 721.1823,413.459 722.4574,413.459 C722.7306,413.459 722.9937,413.5057 723.2595,413.602 L723.5748,412.7422 C723.3723,412.6679 723.1431,412.6331 722.9158,412.5992 L722.9158,412.5414 L723.8324,412.5414 L723.8324,411.6247 L721.0824,411.6247 M725.6658,412.656 C722.297,415.2227 722.297,415.2227 722.1137,415.406 C721.9303,415.5893 721.9303,415.8817 722.1137,416.0651 C722.297,416.2484 722.5894,416.2484 722.7728,416.0651 C722.9561,415.8909 725.6658,412.656 725.6658,412.656 " fill="#696969" style="stroke: ; stroke-width: 0.0; stroke-dasharray: ;"/><text fill="#696969" font-family="sans-serif" font-size="11" lengthAdjust="spacingAndGlyphs" textLength="57" x="730.5833" y="419.292">3 days later</text><line style="stroke: #696969; stroke-width: 1.5;" x1="375" x2="375" y1="745.2686" y2="765.2686"/><polygon fill="#696969" points="371,755.2686,375,765.2686,379,755.2686,375,759.2686" style="stroke: #696969; stroke-width: 1.0;"/><line style="stroke: #696969; stroke-width: 1.5;" x1="521" x2="521" y1="745.2686" y2="765.2686"/><polygon fill="#696969" points="517,755.2686,521,765.2686,525,755.2686,521,759.2686" style="stroke: #696969; stroke-width: 1.0;"/><line style="stroke: #696969; stroke-width: 1.5;" x1="375" x2="375" y1="800.3623" y2="820.3623"/><polygon fill="#696969" points="371,810.3623,375,820.3623,379,810.3623,375,814.3623" style="stroke: #696969; stroke-width: 1.0;"/><line style="stroke: #696969; stroke-width: 1.5;" x1="521" x2="521" y1="800.3623" y2="820.3623"/><polygon fill="#696969" points="517,810.3623,521,820.3623,525,810.3623,521,814.3623" style="stroke: #696969; stroke-width: 1.0;"/><line style="stroke: #696969; stroke-width: 1.5;" x1="109.5" x2="109.5" y1="972.8408" y2="992.8408"/><polygon fill="#696969" points="105.5,982.8408,109.5,992.8408,113.5,982.8408,109.5,986.8408" style="stroke: #696969; stroke-width: 1.0;"/><line style="stroke: #696969; stroke-width: 1.5;" x1="307.5" x2="307.5" y1="972.8408" y2="992.8408"/><polygon fill="#696969" points="303.5,982.8408,307.5,992.8408,311.5,982.8408,307.5,986.8408" style="stroke: #696969; stroke-width: 1.0;"/><line style="stroke: #696969; stroke-width: 1.5;" x1="765.5" x2="765.5" y1="972.8408" y2="992.8408"/><polygon fill="#696969" points="761.5,982.8408,765.5,992.8408,769.5,982.8408,765.5,986.8408" style="stroke: #696969; stroke-width: 1.0;"/><line style="stroke: #696969; stroke-width: 1.5;" x1="109.5" x2="109.5" y1="1027.9346" y2="1047.9346"/><polygon fill="#696969" points="105.5,1037.9346,109.5,1047.9346,113.5,1037.9346,109.5,1041.9346" style="stroke: #696969; stroke-width: 1.0;"/><line style="stroke: #696969; stroke-width: 1.5;" x1="307.5" x2="307.5" y1="1027.9346" y2="1047.9346"/><polygon fill="#696969" points="303.5,1037.9346,307.5,1047.9346,311.5,1037.9346,307.5,1041.9346" style="stroke: #696969; stroke-width: 1.0;"/><line style="stroke: #696969; stroke-width: 1.5;" x1="765.5" x2="765.5" y1="1027.9346" y2="1047.9346"/><polygon fill="#696969" points="761.5,1037.9346,765.5,1047.9346,769.5,1037.9346,765.5,1041.9346" style="stroke: #696969; stroke-width: 1.0;"/><line style="stroke: #696969; stroke-width: 1.5;" x1="445" x2="445" y1="902.7813" y2="966.8408"/><polygon fill="#696969" points="441,956.8408,445,966.8408,449,956.8408,445,960.8408" style="stroke: #696969; stroke-width: 1.0;"/><line style="stroke: #696969; stroke-width: 1.5;" x1="495" x2="890" y1="890.7813" y2="890.7813"/><polygon fill="#696969" points="886,997.2432,890,1007.2432,894,997.2432,890,1001.2432" style="stroke: #696969; stroke-width: 1.5;"/><line style="stroke: #696969; stroke-width: 1.5;" x1="890" x2="890" y1="890.7813" y2="1102.6875"/><line style="stroke: #696969; stroke-width: 1.5;" x1="890" x2="457" y1="1102.6875" y2="1102.6875"/><polygon fill="#696969" points="467,1098.6875,457,1102.6875,467,1106.6875,463,1102.6875" style="stroke: #696969; stroke-width: 1.0;"/><line style="stroke: #696969; stroke-width: 1.5;" x1="445" x2="445" y1="1053.9346" y2="1090.6875"/><polygon fill="#696969" points="441,1080.6875,445,1090.6875,449,1080.6875,445,1084.6875" style="stroke: #696969; stroke-width: 1.0;"/><line style="stroke: #696969; stroke-width: 1.5;" x1="445" x2="445" y1="826.3623" y2="878.7813"/><polygon fill="#696969" points="441,868.7813,445,878.7813,449,868.7813,445,872.7813" style="stroke: #696969; stroke-width: 1.0;"/><path d="M451.8333,849.6149 L451.8333,850.5316 L452.75,850.5316 L452.75,850.56 C451.1944,850.7809 450,852.1247 450,853.7399 C450,855.5082 451.4401,856.9482 453.2083,856.9482 C454.9766,856.9482 456.4167,855.5082 456.4167,853.7399 C456.4167,853.3274 456.3378,852.9387 456.2159,852.5941 L455.3561,852.9094 C455.4542,853.1881 455.4991,853.4557 455.4991,853.7399 C455.4991,855.015 454.4825,856.0316 453.2074,856.0316 C451.9323,856.0316 450.9158,855.015 450.9158,853.7399 C450.9158,852.4648 451.9323,851.4482 453.2074,851.4482 C453.4806,851.4482 453.7437,851.495 454.0095,851.5912 L454.3248,850.7314 C454.1223,850.6572 453.8931,850.6223 453.6658,850.5884 L453.6658,850.5307 L454.5824,850.5307 L454.5824,849.614 L451.8324,849.614 M456.4158,850.6452 C453.047,853.2119 453.047,853.2119 452.8637,853.3952 C452.6803,853.5786 452.6803,853.871 452.8637,854.0543 C453.047,854.2377 453.3394,854.2377 453.5228,854.0543 C453.7061,853.8802 456.4158,850.6452 456.4158,850.6452 " fill="#696969" style="stroke: ; stroke-width: 0.0; stroke-dasharray: ;"/><text fill="#696969" font-family="sans-serif" font-size="11" lengthAdjust="spacingAndGlyphs" textLength="105" x="461.3333" y="857.2813">has 24 hours to leave</text><line style="stroke: #696969; stroke-width: 1.5;" x1="445" x2="445" y1="675.209" y2="739.2686"/><polygon fill="#696969" points="441,729.2686,445,739.2686,449,729.2686,445,733.2686" style="stroke: #696969; stroke-width: 1.0;"/><line style="stroke: #696969; stroke-width: 1.5;" x1="495" x2="912" y1="663.209" y2="663.209"/><polygon fill="#696969" points="908,900.1992,912,910.1992,916,900.1992,912,904.1992" style="stroke: #696969; stroke-width: 1.5;"/><line style="stroke: #696969; stroke-width: 1.5;" x1="912" x2="912" y1="663.209" y2="1146.6875"/><line style="stroke: #696969; stroke-width: 1.5;" x1="912" x2="457" y1="1146.6875" y2="1146.6875"/><polygon fill="#696969" points="467,1142.6875,457,1146.6875,467,1150.6875,463,1146.6875" style="stroke: #696969; stroke-width: 1.0;"/><line style="stroke: #696969; stroke-width: 1.5;" x1="445" x2="445" y1="1114.6875" y2="1134.6875"/><polygon fill="#696969" points="441,1124.6875,445,1134.6875,449,1124.6875,445,1128.6875" style="stroke: #696969; stroke-width: 1.0;"/><line style="stroke: #696969; stroke-width: 1.5;" x1="686.25" x2="445" y1="629.209" y2="629.209"/><line style="stroke: #696969; stroke-width: 1.5;" x1="445" x2="445" y1="629.209" y2="651.209"/><polygon fill="#696969" points="441,641.209,445,651.209,449,641.209,445,645.209" style="stroke: #696969; stroke-width: 1.0;"/><line style="stroke: #696969; stroke-width: 1.5;" x1="742.25" x2="973.25" y1="629.209" y2="629.209"/><line style="stroke: #696969; stroke-width: 1.5;" x1="973.25" x2="973.25" y1="629.209" y2="651.209"/><polygon fill="#696969" points="969.25,641.209,973.25,651.209,977.25,641.209,973.25,645.209" style="stroke: #696969; stroke-width: 1.0;"/><line style="stroke: #696969; stroke-width: 1.5;" x1="445" x2="445" y1="1158.6875" y2="1176.6875"/><line style="stroke: #696969; stroke-width: 1.5;" x1="445" x2="702.25" y1="1176.6875" y2="1176.6875"/><polygon fill="#696969" points="692.25,1172.6875,702.25,1176.6875,692.25,1180.6875,696.25,1176.6875" style="stroke: #696969; stroke-width: 1.0;"/><line style="stroke: #696969; stroke-width: 1.5;" x1="973.25" x2="973.25" y1="686.3027" y2="1176.6875"/><line style="stroke: #696969; stroke-width: 1.5;" x1="973.25" x2="726.25" y1="1176.6875" y2="1176.6875"/><polygon fill="#696969" points="736.25,1172.6875,726.25,1176.6875,736.25,1180.6875,732.25,1176.6875" style="stroke: #696969; stroke-width: 1.0;"/><line style="stroke: #696969; stroke-width: 1.5;" x1="714.25" x2="714.25" y1="556.3652" y2="617.209"/><polygon fill="#696969" points="710.25,607.209,714.25,617.209,718.25,607.209,714.25,611.209" style="stroke: #696969; stroke-width: 1.0;"/><path d="M721.0833,581.4538 L721.0833,582.3704 L722,582.3704 L722,582.3989 C720.4444,582.6198 719.25,583.9636 719.25,585.5788 C719.25,587.347 720.6901,588.7871 722.4583,588.7871 C724.2266,588.7871 725.6667,587.347 725.6667,585.5788 C725.6667,585.1663 725.5878,584.7776 725.4659,584.4329 L724.6061,584.7483 C724.7042,585.0269 724.7491,585.2946 724.7491,585.5788 C724.7491,586.8539 723.7325,587.8704 722.4574,587.8704 C721.1823,587.8704 720.1658,586.8539 720.1658,585.5788 C720.1658,584.3037 721.1823,583.2871 722.4574,583.2871 C722.7306,583.2871 722.9937,583.3339 723.2595,583.4301 L723.5748,582.5703 C723.3723,582.496 723.1431,582.4612 722.9158,582.4273 L722.9158,582.3695 L723.8324,582.3695 L723.8324,581.4529 L721.0824,581.4529 M725.6658,582.4841 C722.297,585.0508 722.297,585.0508 722.1137,585.2341 C721.9303,585.4174 721.9303,585.7099 722.1137,585.8932 C722.297,586.0765 722.5894,586.0765 722.7728,585.8932 C722.9561,585.719 725.6658,582.4841 725.6658,582.4841 " fill="#696969" style="stroke: ; stroke-width: 0.0; stroke-dasharray: ;"/><text fill="#696969" font-family="sans-serif" font-size="11" lengthAdjust="spacingAndGlyphs" textLength="49" x="730.5833" y="589.1201">court date</text><line style="stroke: #696969; stroke-width: 1.5;" x1="714.25" x2="714.25" y1="1188.6875" y2="1208.6875"/><polygon fill="#696969" points="710.25,1198.6875,714.25,1208.6875,718.25,1198.6875,714.25,1202.6875" style="stroke: #696969; stroke-width: 1.0;"/><line style="stroke: #696969; stroke-width: 1.5;" x1="714.25" x2="714.25" y1="1243.7813" y2="1263.7813"/><polygon fill="#696969" points="710.25,1253.7813,714.25,1263.7813,718.25,1253.7813,714.25,1257.7813" style="stroke: #696969; stroke-width: 1.0;"/><text fill="#000080" font-family="sans-serif" font-size="14" lengthAdjust="spacingAndGlyphs" textLength="42" x="10" y="1297.3145">©2019</text><a target="_top" xlink:actuate="onRequest" xlink:href="http://www.lifestylesunlimited.com" xlink:show="new" xlink:title="http://www.lifestylesunlimited.com" xlink:type="simple"><text fill="#0000FF" font-family="sans-serif" font-size="14" lengthAdjust="spacingAndGlyphs" text-decoration="underline" textLength="122" x="56" y="1297.3145">LifeStyles Unlimited</text><line style="stroke: #0000FF; stroke-width: 1.0;" x1="56" x2="178" y1="1299.3145" y2="1299.3145"/></a><text fill="#000080" font-family="sans-serif" font-size="14" lengthAdjust="spacingAndGlyphs" textLength="279" x="182" y="1297.3145">| Generated Sun Apr 28 19:55:39 CDT 2019</text><!--
@startuml evicting


skinparam {
  BorderColor Red
  PathHoverColor Blue
}

skinparam Title {
  FontColor Navy
  BackgroundColor PaleGoldenRod
  BorderColor Navy
  BorderRoundCorner 20
  FontSize 24
}

skinparam activity {
  BackgroundColor Ivory
  BorderColor CornflowerBlue
  BorderThickness 1
  FontColor DimGray
  

  Arrow {
    Color dimgray
    FontColor dimgray
  }

  Start {
    Color PHYSICAL
  }

  End {
    Color Coral
  }

  Diamond {
    BackgroundColor Ivory
    BorderColor CornflowerBlue
    FontColor DarkGray
  }

  BackgroundColor<< Exception >> Red
	BorderColor<< Exception >> White
}

skinparam Swimlane {
  BorderColor CornflowerBlue 
}

skinparam Partition {
  BackgroundColor Ivory
  BorderColor CornflowerBlue
  BorderThickness 1
  FontColor CornflowerBlue
  FontSize 16
  BorderRoundCorner 20
}

skinparam Note {
  BackgroundColor LightSteelBlue
  BorderColor CornflowerBlue
  FontColor White
}

skinparam Legend {
  BackgroundColor LightSteelBlue
  BorderColor CornflowerBlue
  FontColor White
}

skinparam Footer {
  FontColor Navy
}


left header 
	<font color=Navy size=24>[[../index.svg ⌂ Home]]</font>
endheader


	Title Evicting

	start
	->tenent violates lease;
	:obtain proof of violation;

	partition "Notice of Eviction" {
		note left: see document hub for more details
		if(rent is late) then (yes)
			fork
				#PHYSICAL:<&dollar> late fees]
			fork again
				[[https://drive.google.com/open?id=0B18-6Qbo-LJ5Y3d0V1VBeGRHWlE]]#LightSkyBlue:Texas Notice To Vacate - Failure to Pay Rent]
			end fork
		else (no)
			[[https://drive.google.com/open?id=0B18-6Qbo-LJ5U2pkTXRaMTg3SjQ]]#LightSkyBlue:notice to vacate\n- - - -\n<i>eviction notice\n3 days to vacate]
		endif
	}
	
	-><&timer> 3 days later;

	partition "Filing a Eviction Suit" {
		fork
			:Summons]
		fork again
			:Complaint]
		fork again
			#PHYSICAL:<&dollar> filing fee <&arrow-thick-right> 150]
		end fork
	}

	-><&timer> court date;	

	if(prevail) then (yes\n<&timer> has 7 days to leave)
		
		if(vacates on time) then (no)
			partition "Enforce Eviction" {
				fork
					:Writ of Possession]
				fork again
					#PHYSICAL:<&dollar> fee <&arrow-thick-right> 150-200]	
				end fork
			}
			-><&timer> has 24 hours to leave;
			if(vacates on time) then (no)
				partition "Physical Eviction" {
					fork
						:sheriff performs eviction;
					fork again
						:movers move trash to the trash;
						note right:sheriff decides what can be trashed
					fork again
						:movers move property to curb;
					end fork
				}
				-><&timer> tenant has 24 hours to retrieve property;
			else (yes)
			endif
		else (yes)
		endif
	else (no)
		#Plum:now what?;
	endif
	:change locks;
	end


left footer 
	<font size=14>©2019 [[http://www.lifestylesunlimited.com LifeStyles Unlimited]] | Generated Sun Apr 28 19:55:39 CDT 2019</font>
endfooter


@enduml

PlantUML version 1.2019.03(Sun Mar 10 06:04:44 CDT 2019)
(GPL source distribution)
Java Runtime: Java(TM) SE Runtime Environment
JVM: Java HotSpot(TM) 64-Bit Server VM
Java Version: 1.8.0_111-b14
Operating System: Windows 10
OS Version: 10.0
Default Encoding: Cp1252
Language: en
Country: US
--></g></svg>