<?xml version="1.0" encoding="UTF-8" standalone="no"?><svg xmlns="http://www.w3.org/2000/svg" xmlns:xlink="http://www.w3.org/1999/xlink" contentScriptType="application/ecmascript" contentStyleType="text/css" height="1295px" preserveAspectRatio="none" style="width:1023px;height:1295px;" version="1.1" viewBox="0 0 1023 1295" width="1023px" zoomAndPan="magnify"><defs><style type="text/css"><![CDATA[path:hover { stroke: #0000FF !important;}]]></style><filter height="300%" id="f1qn6ukvvyumma" width="300%" x="-1" y="-1"><feGaussianBlur result="blurOut" stdDeviation="2.0"/><feColorMatrix in="blurOut" result="blurOut2" type="matrix" values="0 0 0 0 0 0 0 0 0 0 0 0 0 0 0 0 0 0 .4 0"/><feOffset dx="4.0" dy="4.0" in="blurOut2" result="blurOut3"/><feBlend in="SourceGraphic" in2="blurOut3" mode="normal"/></filter></defs><g><a target="_top" xlink:actuate="onRequest" xlink:href="../index.svg" xlink:show="new" xlink:title="../index.svg" xlink:type="simple"><text fill="#0000FF" font-family="sans-serif" font-size="18" lengthAdjust="spacingAndGlyphs" text-decoration="underline" textLength="67" x="10" y="28.6855">⌂ Home</text><line style="stroke: #0000FF; stroke-width: 1.0;" x1="10" x2="77" y1="30.6855" y2="30.6855"/></a><rect fill="#EEE8AA" height="32.6406" rx="10" ry="10" style="stroke: #000080; stroke-width: 1.5;" width="79" x="470.875" y="34.6406"/><text fill="#000080" font-family="sans-serif" font-size="18" lengthAdjust="spacingAndGlyphs" textLength="63" x="478.875" y="58.3262">Evicting</text><ellipse cx="714.25" cy="80.2813" fill="#CCFFCC" filter="url(#f1qn6ukvvyumma)" rx="10" ry="10" style="stroke: none; stroke-width: 1.0;"/><rect fill="#FFFFF0" filter="url(#f1qn6ukvvyumma)" height="35.0938" rx="12.5" ry="12.5" style="stroke: #6495ED; stroke-width: 1.5;" width="146" x="641.25" y="132.5342"/><text fill="#696969" font-family="sans-serif" font-size="12" lengthAdjust="spacingAndGlyphs" textLength="126" x="651.25" y="154.9912">obtain proof of violation</text><rect fill="#FFFFF0" filter="url(#f1qn6ukvvyumma)" height="203.2188" style="stroke: #6495ED; stroke-width: 1.0;" width="805" x="118.75" y="178.6436"/><path d="M249.75,179.6436 L249.75,191.7686 L239.75,201.7686 L118.75,201.7686 " fill="none" style="stroke: #6495ED; stroke-width: 1.0;"/><text fill="#6495ED" font-family="sans-serif" font-size="16" lengthAdjust="spacingAndGlyphs" textLength="121" x="121.75" y="196.2529">Notice of Eviction</text><path d="M138.75,281.1396 L138.75,307.4912 L359.75,307.4912 L359.75,291.1396 L349.75,281.1396 L138.75,281.1396 " fill="#B0C4DE" filter="url(#f1qn6ukvvyumma)" style="stroke: #6495ED; stroke-width: 1.0;"/><path d="M349.75,281.1396 L349.75,291.1396 L359.75,291.1396 L349.75,281.1396 " fill="#B0C4DE" style="stroke: #6495ED; stroke-width: 1.0;"/><text fill="#FFFFFF" font-family="sans-serif" font-size="13" lengthAdjust="spacingAndGlyphs" textLength="200" x="144.75" y="299.6348">see document hub for more details</text><polygon fill="#FFFFF0" filter="url(#f1qn6ukvvyumma)" points="689.25,218.7686,739.25,218.7686,751.25,230.7686,739.25,242.7686,689.25,242.7686,677.25,230.7686,689.25,218.7686" style="stroke: #6495ED; stroke-width: 1.5;"/><text fill="#A9A9A9" font-family="sans-serif" font-size="11" lengthAdjust="spacingAndGlyphs" textLength="50" x="689.25" y="235.2695">rent is late</text><text fill="#696969" font-family="sans-serif" font-size="11" lengthAdjust="spacingAndGlyphs" textLength="18" x="659.25" y="228.3516">yes</text><text fill="#696969" font-family="sans-serif" font-size="11" lengthAdjust="spacingAndGlyphs" textLength="12" x="751.25" y="228.3516">no</text><rect fill="#000000" filter="url(#f1qn6ukvvyumma)" height="6" rx="2.5" ry="2.5" style="stroke: #000000; stroke-width: 1.0;" width="397" x="379.75" y="252.7686"/><rect fill="#CCFFCC" filter="url(#f1qn6ukvvyumma)" height="35.0938" style="stroke: #6495ED; stroke-width: 1.5;" width="80" x="393.75" y="278.7686"/><path d="M407.75,292.8623 L407.75,293.8623 L407,293.8623 C406.314,293.8623 405.75,294.4263 405.75,295.1123 L405.75,295.6123 C405.75,296.2903 406.187,296.8543 406.844,297.0183 L409.407,297.6743 C409.55,297.7103 409.751,297.9703 409.751,298.1123 L409.751,298.6123 C409.751,298.7463 409.635,298.8623 409.501,298.8623 L407.001,298.8623 C406.885,298.8623 406.789,298.8253 406.751,298.7993 L406.751,297.8613 L405.751,297.8613 L405.751,298.8613 C405.751,299.2033 405.954,299.4883 406.189,299.6423 C406.423,299.7973 406.707,299.8613 407.002,299.8613 L407.752,299.8613 L407.752,300.8613 L408.752,300.8613 L408.752,299.8613 L409.502,299.8613 C410.188,299.8613 410.752,299.2973 410.752,298.6113 L410.752,298.1113 C410.752,297.4333 410.315,296.8693 409.658,296.7053 L407.095,296.0493 C406.952,296.0133 406.751,295.7533 406.751,295.6113 L406.751,295.1113 C406.751,294.9773 406.867,294.8613 407.001,294.8613 L409.501,294.8613 C409.617,294.8613 409.713,294.8983 409.751,294.9243 L409.751,295.8623 L410.751,295.8623 L410.751,294.8623 C410.751,294.5203 410.548,294.2353 410.313,294.0813 C410.079,293.9263 409.795,293.8623 409.5,293.8623 L408.75,293.8623 L408.75,292.8623 L407.75,292.8623 " fill="#696969" style="stroke: ; stroke-width: 0.0; stroke-dasharray: ;"/><text fill="#696969" font-family="sans-serif" font-size="12" lengthAdjust="spacingAndGlyphs" textLength="47" x="416.75" y="301.2256">late fees</text><a target="_top" xlink:actuate="onRequest" xlink:href="https://drive.google.com/open?id=0B18-6Qbo-LJ5Y3d0V1VBeGRHWlE" xlink:show="new" xlink:title="https://drive.google.com/open?id=0B18-6Qbo-LJ5Y3d0V1VBeGRHWlE" xlink:type="simple"><rect fill="#87CEFA" filter="url(#f1qn6ukvvyumma)" height="35.0938" style="stroke: #6495ED; stroke-width: 1.5;" width="261" x="501.75" y="278.7686"/><text fill="#696969" font-family="sans-serif" font-size="12" lengthAdjust="spacingAndGlyphs" textLength="241" x="511.75" y="301.2256">Texas Notice To Vacate - Failure to Pay Rent</text></a><rect fill="#000000" filter="url(#f1qn6ukvvyumma)" height="6" rx="2.5" ry="2.5" style="stroke: #000000; stroke-width: 1.0;" width="397" x="379.75" y="333.8623"/><a target="_top" xlink:actuate="onRequest" xlink:href="https://drive.google.com/open?id=0B18-6Qbo-LJ5U2pkTXRaMTg3SjQ" xlink:show="new" xlink:title="https://drive.google.com/open?id=0B18-6Qbo-LJ5U2pkTXRaMTg3SjQ" xlink:type="simple"><rect fill="#87CEFA" filter="url(#f1qn6ukvvyumma)" height="75.2813" style="stroke: #6495ED; stroke-width: 1.5;" width="107" x="796.75" y="252.7686"/><text fill="#696969" font-family="sans-serif" font-size="12" lengthAdjust="spacingAndGlyphs" textLength="84" x="806.75" y="275.2256">notice to vacate</text><line style="stroke: #6495ED; stroke-width: 1.0;" x1="796.75" x2="903.75" y1="282.8623" y2="282.8623"/><text fill="#696969" font-family="sans-serif" font-size="12" font-style="italic" lengthAdjust="spacingAndGlyphs" textLength="78" x="806.75" y="300.3193">eviction notice</text><text fill="#696969" font-family="sans-serif" font-size="12" lengthAdjust="spacingAndGlyphs" textLength="87" x="806.75" y="315.4131">3 days to vacate</text></a><polygon fill="#FFFFF0" filter="url(#f1qn6ukvvyumma)" points="714.25,345.8623,726.25,357.8623,714.25,369.8623,702.25,357.8623,714.25,345.8623" style="stroke: #6495ED; stroke-width: 1.5;"/><rect fill="#FFFFF0" filter="url(#f1qn6ukvvyumma)" height="139.2188" style="stroke: #6495ED; stroke-width: 1.0;" width="375" x="526.75" y="414.0527"/><path d="M677.75,415.0527 L677.75,427.1777 L667.75,437.1777 L526.75,437.1777 " fill="none" style="stroke: #6495ED; stroke-width: 1.0;"/><text fill="#6495ED" font-family="sans-serif" font-size="16" lengthAdjust="spacingAndGlyphs" textLength="141" x="529.75" y="431.6621">Filing a Eviction Suit</text><rect fill="#000000" filter="url(#f1qn6ukvvyumma)" height="6" rx="2.5" ry="2.5" style="stroke: #000000; stroke-width: 1.0;" width="355" x="536.75" y="454.1777"/><rect fill="#FFFFF0" filter="url(#f1qn6ukvvyumma)" height="35.0938" style="stroke: #6495ED; stroke-width: 1.5;" width="78" x="550.75" y="480.1777"/><text fill="#696969" font-family="sans-serif" font-size="12" lengthAdjust="spacingAndGlyphs" textLength="58" x="560.75" y="502.6348">Summons</text><rect fill="#FFFFF0" filter="url(#f1qn6ukvvyumma)" height="35.0938" style="stroke: #6495ED; stroke-width: 1.5;" width="77" x="656.75" y="480.1777"/><text fill="#696969" font-family="sans-serif" font-size="12" lengthAdjust="spacingAndGlyphs" textLength="57" x="666.75" y="502.6348">Complaint</text><rect fill="#CCFFCC" filter="url(#f1qn6ukvvyumma)" height="35.0938" style="stroke: #6495ED; stroke-width: 1.5;" width="116" x="761.75" y="480.1777"/><path d="M775.75,494.2715 L775.75,495.2715 L775,495.2715 C774.314,495.2715 773.75,495.8355 773.75,496.5215 L773.75,497.0215 C773.75,497.6995 774.187,498.2635 774.844,498.4275 L777.407,499.0835 C777.55,499.1195 777.751,499.3795 777.751,499.5215 L777.751,500.0215 C777.751,500.1555 777.635,500.2715 777.501,500.2715 L775.001,500.2715 C774.885,500.2715 774.789,500.2345 774.751,500.2085 L774.751,499.2705 L773.751,499.2705 L773.751,500.2705 C773.751,500.6125 773.954,500.8975 774.189,501.0515 C774.423,501.2065 774.707,501.2705 775.002,501.2705 L775.752,501.2705 L775.752,502.2705 L776.752,502.2705 L776.752,501.2705 L777.502,501.2705 C778.188,501.2705 778.752,500.7065 778.752,500.0205 L778.752,499.5205 C778.752,498.8425 778.315,498.2785 777.658,498.1145 L775.095,497.4585 C774.952,497.4225 774.751,497.1625 774.751,497.0205 L774.751,496.5205 C774.751,496.3865 774.867,496.2705 775.001,496.2705 L777.501,496.2705 C777.617,496.2705 777.713,496.3075 777.751,496.3335 L777.751,497.2715 L778.751,497.2715 L778.751,496.2715 C778.751,495.9295 778.548,495.6445 778.313,495.4905 C778.079,495.3355 777.795,495.2715 777.5,495.2715 L776.75,495.2715 L776.75,494.2715 L775.75,494.2715 " fill="#696969" style="stroke: ; stroke-width: 0.0; stroke-dasharray: ;"/><text fill="#696969" font-family="sans-serif" font-size="12" lengthAdjust="spacingAndGlyphs" textLength="46" x="784.75" y="502.6348">filing fee</text><path d="M839.75,495.2715 L839.75,497.2715 L834.75,497.2715 L834.75,499.2715 L839.75,499.2715 L839.75,501.2715 L842.75,498.2405 L839.75,495.2715 " fill="#696969" style="stroke: ; stroke-width: 0.0; stroke-dasharray: ;"/><text fill="#696969" font-family="sans-serif" font-size="12" lengthAdjust="spacingAndGlyphs" textLength="21" x="846.75" y="502.6348">150</text><rect fill="#000000" filter="url(#f1qn6ukvvyumma)" height="6" rx="2.5" ry="2.5" style="stroke: #000000; stroke-width: 1.0;" width="355" x="536.75" y="535.2715"/><polygon fill="#FFFFF0" filter="url(#f1qn6ukvvyumma)" points="698.25,602.1152,730.25,602.1152,742.25,614.1152,730.25,626.1152,698.25,626.1152,686.25,614.1152,698.25,602.1152" style="stroke: #6495ED; stroke-width: 1.5;"/><text fill="#A9A9A9" font-family="sans-serif" font-size="11" lengthAdjust="spacingAndGlyphs" textLength="32" x="698.25" y="618.6162">prevail</text><text fill="#696969" font-family="sans-serif" font-size="11" lengthAdjust="spacingAndGlyphs" textLength="18" x="578.9167" y="597.8623">yes</text><path d="M581.75,604.0319 L581.75,604.9486 L582.6667,604.9486 L582.6667,604.977 C581.1111,605.1979 579.9167,606.5417 579.9167,608.1569 C579.9167,609.9252 581.3567,611.3652 583.125,611.3652 C584.8933,611.3652 586.3333,609.9252 586.3333,608.1569 C586.3333,607.7444 586.2545,607.3557 586.1326,607.0111 L585.2728,607.3264 C585.3708,607.6051 585.4158,607.8727 585.4158,608.1569 C585.4158,609.432 584.3992,610.4486 583.1241,610.4486 C581.849,610.4486 580.8324,609.432 580.8324,608.1569 C580.8324,606.8818 581.849,605.8652 583.1241,605.8652 C583.3973,605.8652 583.6603,605.912 583.9262,606.0082 L584.2415,605.1484 C584.0389,605.0742 583.8098,605.0393 583.5824,605.0054 L583.5824,604.9477 L584.4991,604.9477 L584.4991,604.031 L581.7491,604.031 M586.3324,605.0622 C582.9637,607.6289 582.9637,607.6289 582.7803,607.8122 C582.597,607.9956 582.597,608.288 582.7803,608.4713 C582.9637,608.6547 583.2561,608.6547 583.4394,608.4713 C583.6228,608.2972 586.3324,605.0622 586.3324,605.0622 " fill="#696969" style="stroke: ; stroke-width: 0.0; stroke-dasharray: ;"/><text fill="#696969" font-family="sans-serif" font-size="11" lengthAdjust="spacingAndGlyphs" textLength="95" x="591.25" y="611.6982">has 7 days to leave</text><text fill="#696969" font-family="sans-serif" font-size="11" lengthAdjust="spacingAndGlyphs" textLength="12" x="742.25" y="611.6982">no</text><rect fill="#FFFFF0" filter="url(#f1qn6ukvvyumma)" height="139.2188" style="stroke: #6495ED; stroke-width: 1.0;" width="312" x="289" y="684.0498"/><path d="M412,685.0498 L412,697.1748 L402,707.1748 L289,707.1748 " fill="none" style="stroke: #6495ED; stroke-width: 1.0;"/><text fill="#6495ED" font-family="sans-serif" font-size="16" lengthAdjust="spacingAndGlyphs" textLength="113" x="292" y="701.6592">Enforce Eviction</text><rect fill="#000000" filter="url(#f1qn6ukvvyumma)" height="6" rx="2.5" ry="2.5" style="stroke: #000000; stroke-width: 1.0;" width="292" x="299" y="724.1748"/><rect fill="#FFFFF0" filter="url(#f1qn6ukvvyumma)" height="35.0938" style="stroke: #6495ED; stroke-width: 1.5;" width="124" x="313" y="750.1748"/><text fill="#696969" font-family="sans-serif" font-size="12" lengthAdjust="spacingAndGlyphs" textLength="104" x="323" y="772.6318">Writ of Possession</text><rect fill="#CCFFCC" filter="url(#f1qn6ukvvyumma)" height="35.0938" style="stroke: #6495ED; stroke-width: 1.5;" width="112" x="465" y="750.1748"/><path d="M479,764.2686 L479,765.2686 L478.25,765.2686 C477.564,765.2686 477,765.8326 477,766.5186 L477,767.0186 C477,767.6966 477.437,768.2606 478.094,768.4246 L480.657,769.0806 C480.8,769.1166 481.001,769.3766 481.001,769.5186 L481.001,770.0186 C481.001,770.1526 480.885,770.2686 480.751,770.2686 L478.251,770.2686 C478.135,770.2686 478.039,770.2316 478.001,770.2056 L478.001,769.2676 L477.001,769.2676 L477.001,770.2676 C477.001,770.6096 477.204,770.8946 477.439,771.0486 C477.673,771.2036 477.957,771.2676 478.252,771.2676 L479.002,771.2676 L479.002,772.2676 L480.002,772.2676 L480.002,771.2676 L480.752,771.2676 C481.438,771.2676 482.002,770.7036 482.002,770.0176 L482.002,769.5176 C482.002,768.8396 481.565,768.2756 480.908,768.1116 L478.345,767.4556 C478.202,767.4196 478.001,767.1596 478.001,767.0176 L478.001,766.5176 C478.001,766.3836 478.117,766.2676 478.251,766.2676 L480.751,766.2676 C480.867,766.2676 480.963,766.3046 481.001,766.3306 L481.001,767.2686 L482.001,767.2686 L482.001,766.2686 C482.001,765.9266 481.798,765.6416 481.563,765.4876 C481.329,765.3326 481.045,765.2686 480.75,765.2686 L480,765.2686 L480,764.2686 L479,764.2686 " fill="#696969" style="stroke: ; stroke-width: 0.0; stroke-dasharray: ;"/><text fill="#696969" font-family="sans-serif" font-size="12" lengthAdjust="spacingAndGlyphs" textLength="17" x="488" y="772.6318">fee</text><path d="M514,765.2686 L514,767.2686 L509,767.2686 L509,769.2686 L514,769.2686 L514,771.2686 L517,768.2376 L514,765.2686 " fill="#696969" style="stroke: ; stroke-width: 0.0; stroke-dasharray: ;"/><text fill="#696969" font-family="sans-serif" font-size="12" lengthAdjust="spacingAndGlyphs" textLength="46" x="521" y="772.6318">150-200</text><rect fill="#000000" filter="url(#f1qn6ukvvyumma)" height="6" rx="2.5" ry="2.5" style="stroke: #000000; stroke-width: 1.0;" width="292" x="299" y="805.2686"/><rect fill="#FFFFF0" filter="url(#f1qn6ukvvyumma)" height="139.2188" style="stroke: #6495ED; stroke-width: 1.0;" width="870" x="10" y="911.6221"/><path d="M137,912.6221 L137,924.7471 L127,934.7471 L10,934.7471 " fill="none" style="stroke: #6495ED; stroke-width: 1.0;"/><text fill="#6495ED" font-family="sans-serif" font-size="16" lengthAdjust="spacingAndGlyphs" textLength="117" x="13" y="929.2314">Physical Eviction</text><rect fill="#000000" filter="url(#f1qn6ukvvyumma)" height="6" rx="2.5" ry="2.5" style="stroke: #000000; stroke-width: 1.0;" width="850" x="20" y="951.7471"/><rect fill="#FFFFF0" filter="url(#f1qn6ukvvyumma)" height="35.0938" rx="12.5" ry="12.5" style="stroke: #6495ED; stroke-width: 1.5;" width="151" x="34" y="977.7471"/><text fill="#696969" font-family="sans-serif" font-size="12" lengthAdjust="spacingAndGlyphs" textLength="131" x="44" y="1000.2041">sheriff performs eviction</text><path d="M422,982.1182 L422,991.2939 L402,995.2939 L422,999.2939 L422,1008.4697 A0,0 0 0 0 422,1008.4697 L647,1008.4697 A0,0 0 0 0 647,1008.4697 L647,992.1182 L637,982.1182 L422,982.1182 A0,0 0 0 0 422,982.1182 " fill="#B0C4DE" filter="url(#f1qn6ukvvyumma)" style="stroke: #6495ED; stroke-width: 1.0;"/><path d="M637,982.1182 L637,992.1182 L647,992.1182 L637,982.1182 " fill="#B0C4DE" style="stroke: #6495ED; stroke-width: 1.0;"/><text fill="#FFFFFF" font-family="sans-serif" font-size="13" lengthAdjust="spacingAndGlyphs" textLength="204" x="428" y="1000.6133">sheriff decides what can be trashed</text><rect fill="#FFFFF0" filter="url(#f1qn6ukvvyumma)" height="35.0938" rx="12.5" ry="12.5" style="stroke: #6495ED; stroke-width: 1.5;" width="189" x="213" y="977.7471"/><text fill="#696969" font-family="sans-serif" font-size="12" lengthAdjust="spacingAndGlyphs" textLength="169" x="223" y="1000.2041">movers move trash to the trash</text><rect fill="#FFFFF0" filter="url(#f1qn6ukvvyumma)" height="35.0938" rx="12.5" ry="12.5" style="stroke: #6495ED; stroke-width: 1.5;" width="181" x="675" y="977.7471"/><text fill="#696969" font-family="sans-serif" font-size="12" lengthAdjust="spacingAndGlyphs" textLength="161" x="685" y="1000.2041">movers move property to curb</text><rect fill="#000000" filter="url(#f1qn6ukvvyumma)" height="6" rx="2.5" ry="2.5" style="stroke: #000000; stroke-width: 1.0;" width="850" x="20" y="1032.8408"/><polygon fill="#FFFFF0" filter="url(#f1qn6ukvvyumma)" points="407,863.6875,483,863.6875,495,875.6875,483,887.6875,407,887.6875,395,875.6875,407,863.6875" style="stroke: #6495ED; stroke-width: 1.5;"/><text fill="#696969" font-family="sans-serif" font-size="11" lengthAdjust="spacingAndGlyphs" textLength="12" x="449" y="899.1064">no</text><text fill="#A9A9A9" font-family="sans-serif" font-size="11" lengthAdjust="spacingAndGlyphs" textLength="76" x="407" y="880.1885">vacates on time</text><text fill="#696969" font-family="sans-serif" font-size="11" lengthAdjust="spacingAndGlyphs" textLength="18" x="495" y="873.2705">yes</text><polygon fill="#FFFFF0" filter="url(#f1qn6ukvvyumma)" points="445,1075.5938,457,1087.5938,445,1099.5938,433,1087.5938,445,1075.5938" style="stroke: #6495ED; stroke-width: 1.5;"/><path d="M453.8333,1065.5104 L453.8333,1066.4271 L454.75,1066.4271 L454.75,1066.4555 C453.1944,1066.6764 452,1068.0203 452,1069.6354 C452,1071.4037 453.4401,1072.8438 455.2083,1072.8438 C456.9766,1072.8438 458.4167,1071.4037 458.4167,1069.6354 C458.4167,1069.2229 458.3378,1068.8343 458.2159,1068.4896 L457.3561,1068.8049 C457.4542,1069.0836 457.4991,1069.3513 457.4991,1069.6354 C457.4991,1070.9105 456.4825,1071.9271 455.2074,1071.9271 C453.9323,1071.9271 452.9158,1070.9105 452.9158,1069.6354 C452.9158,1068.3603 453.9323,1067.3438 455.2074,1067.3438 C455.4806,1067.3438 455.7437,1067.3905 456.0095,1067.4868 L456.3248,1066.6269 C456.1223,1066.5527 455.8931,1066.5178 455.6658,1066.4839 L455.6658,1066.4262 L456.5824,1066.4262 L456.5824,1065.5095 L453.8324,1065.5095 M458.4158,1066.5408 C455.047,1069.1074 455.047,1069.1074 454.8637,1069.2908 C454.6803,1069.4741 454.6803,1069.7665 454.8637,1069.9498 C455.047,1070.1332 455.3394,1070.1332 455.5228,1069.9498 C455.7061,1069.7757 458.4158,1066.5408 458.4158,1066.5408 " fill="#696969" style="stroke: ; stroke-width: 0.0; stroke-dasharray: ;"/><text fill="#696969" font-family="sans-serif" font-size="11" lengthAdjust="spacingAndGlyphs" textLength="193" x="463.3333" y="1073.1768">tenant has 24 hours to retrieve property</text><polygon fill="#FFFFF0" filter="url(#f1qn6ukvvyumma)" points="407,636.1152,483,636.1152,495,648.1152,483,660.1152,407,660.1152,395,648.1152,407,636.1152" style="stroke: #6495ED; stroke-width: 1.5;"/><text fill="#696969" font-family="sans-serif" font-size="11" lengthAdjust="spacingAndGlyphs" textLength="12" x="449" y="671.5342">no</text><text fill="#A9A9A9" font-family="sans-serif" font-size="11" lengthAdjust="spacingAndGlyphs" textLength="76" x="407" y="652.6162">vacates on time</text><text fill="#696969" font-family="sans-serif" font-size="11" lengthAdjust="spacingAndGlyphs" textLength="18" x="495" y="645.6982">yes</text><polygon fill="#FFFFF0" filter="url(#f1qn6ukvvyumma)" points="445,1119.5938,457,1131.5938,445,1143.5938,433,1131.5938,445,1119.5938" style="stroke: #6495ED; stroke-width: 1.5;"/><rect fill="#DDA0DD" filter="url(#f1qn6ukvvyumma)" height="35.0938" rx="12.5" ry="12.5" style="stroke: #6495ED; stroke-width: 1.5;" width="79" x="933.75" y="636.1152"/><text fill="#696969" font-family="sans-serif" font-size="12" lengthAdjust="spacingAndGlyphs" textLength="59" x="943.75" y="658.5723">now what?</text><polygon fill="#FFFFF0" filter="url(#f1qn6ukvvyumma)" points="714.25,1149.5938,726.25,1161.5938,714.25,1173.5938,702.25,1161.5938,714.25,1149.5938" style="stroke: #6495ED; stroke-width: 1.5;"/><rect fill="#FFFFF0" filter="url(#f1qn6ukvvyumma)" height="35.0938" rx="12.5" ry="12.5" style="stroke: #6495ED; stroke-width: 1.5;" width="93" x="667.75" y="1193.5938"/><text fill="#696969" font-family="sans-serif" font-size="12" lengthAdjust="spacingAndGlyphs" textLength="73" x="677.75" y="1216.0508">change locks</text><ellipse cx="714.25" cy="1258.6875" fill="#FFFFFF" filter="url(#f1qn6ukvvyumma)" rx="10" ry="10" style="stroke: #FF7F50; stroke-width: 1.5;"/><line style="stroke: #FF7F50; stroke-width: 2.5;" x1="708.0628" x2="720.4372" y1="1252.5003" y2="1264.8747"/><line style="stroke: #FF7F50; stroke-width: 2.5;" x1="720.4372" x2="708.0628" y1="1252.5003" y2="1264.8747"/><line style="stroke: #696969; stroke-width: 1.5;" x1="714.25" x2="714.25" y1="90.2813" y2="132.5342"/><polygon fill="#696969" points="710.25,122.5342,714.25,132.5342,718.25,122.5342,714.25,126.5342" style="stroke: #696969; stroke-width: 1.0;"/><text fill="#696969" font-family="sans-serif" font-size="11" lengthAdjust="spacingAndGlyphs" textLength="99" x="718.25" y="112.6172">tenent violates lease</text><line style="stroke: #696969; stroke-width: 1.5;" x1="433.75" x2="433.75" y1="258.7686" y2="278.7686"/><polygon fill="#696969" points="429.75,268.7686,433.75,278.7686,437.75,268.7686,433.75,272.7686" style="stroke: #696969; stroke-width: 1.0;"/><line style="stroke: #696969; stroke-width: 1.5;" x1="632.25" x2="632.25" y1="258.7686" y2="278.7686"/><polygon fill="#696969" points="628.25,268.7686,632.25,278.7686,636.25,268.7686,632.25,272.7686" style="stroke: #696969; stroke-width: 1.0;"/><line style="stroke: #696969; stroke-width: 1.5;" x1="433.75" x2="433.75" y1="313.8623" y2="333.8623"/><polygon fill="#696969" points="429.75,323.8623,433.75,333.8623,437.75,323.8623,433.75,327.8623" style="stroke: #696969; stroke-width: 1.0;"/><line style="stroke: #696969; stroke-width: 1.5;" x1="632.25" x2="632.25" y1="313.8623" y2="333.8623"/><polygon fill="#696969" points="628.25,323.8623,632.25,333.8623,636.25,323.8623,632.25,327.8623" style="stroke: #696969; stroke-width: 1.0;"/><line style="stroke: #696969; stroke-width: 1.5;" x1="677.25" x2="578.25" y1="230.7686" y2="230.7686"/><line style="stroke: #696969; stroke-width: 1.5;" x1="578.25" x2="578.25" y1="230.7686" y2="252.7686"/><polygon fill="#696969" points="574.25,242.7686,578.25,252.7686,582.25,242.7686,578.25,246.7686" style="stroke: #696969; stroke-width: 1.0;"/><line style="stroke: #696969; stroke-width: 1.5;" x1="751.25" x2="850.25" y1="230.7686" y2="230.7686"/><line style="stroke: #696969; stroke-width: 1.5;" x1="850.25" x2="850.25" y1="230.7686" y2="252.7686"/><polygon fill="#696969" points="846.25,242.7686,850.25,252.7686,854.25,242.7686,850.25,246.7686" style="stroke: #696969; stroke-width: 1.0;"/><line style="stroke: #696969; stroke-width: 1.5;" x1="578.25" x2="578.25" y1="339.8623" y2="357.8623"/><line style="stroke: #696969; stroke-width: 1.5;" x1="578.25" x2="702.25" y1="357.8623" y2="357.8623"/><polygon fill="#696969" points="692.25,353.8623,702.25,357.8623,692.25,361.8623,696.25,357.8623" style="stroke: #696969; stroke-width: 1.0;"/><line style="stroke: #696969; stroke-width: 1.5;" x1="850.25" x2="850.25" y1="328.0498" y2="357.8623"/><line style="stroke: #696969; stroke-width: 1.5;" x1="850.25" x2="726.25" y1="357.8623" y2="357.8623"/><polygon fill="#696969" points="736.25,353.8623,726.25,357.8623,736.25,361.8623,732.25,357.8623" style="stroke: #696969; stroke-width: 1.0;"/><line style="stroke: #696969; stroke-width: 1.5;" x1="714.25" x2="714.25" y1="167.6279" y2="218.7686"/><polygon fill="#696969" points="710.25,208.7686,714.25,218.7686,718.25,208.7686,714.25,212.7686" style="stroke: #696969; stroke-width: 1.0;"/><line style="stroke: #696969; stroke-width: 1.5;" x1="589.75" x2="589.75" y1="460.1777" y2="480.1777"/><polygon fill="#696969" points="585.75,470.1777,589.75,480.1777,593.75,470.1777,589.75,474.1777" style="stroke: #696969; stroke-width: 1.0;"/><line style="stroke: #696969; stroke-width: 1.5;" x1="695.25" x2="695.25" y1="460.1777" y2="480.1777"/><polygon fill="#696969" points="691.25,470.1777,695.25,480.1777,699.25,470.1777,695.25,474.1777" style="stroke: #696969; stroke-width: 1.0;"/><line style="stroke: #696969; stroke-width: 1.5;" x1="819.75" x2="819.75" y1="460.1777" y2="480.1777"/><polygon fill="#696969" points="815.75,470.1777,819.75,480.1777,823.75,470.1777,819.75,474.1777" style="stroke: #696969; stroke-width: 1.0;"/><line style="stroke: #696969; stroke-width: 1.5;" x1="589.75" x2="589.75" y1="515.2715" y2="535.2715"/><polygon fill="#696969" points="585.75,525.2715,589.75,535.2715,593.75,525.2715,589.75,529.2715" style="stroke: #696969; stroke-width: 1.0;"/><line style="stroke: #696969; stroke-width: 1.5;" x1="695.25" x2="695.25" y1="515.2715" y2="535.2715"/><polygon fill="#696969" points="691.25,525.2715,695.25,535.2715,699.25,525.2715,695.25,529.2715" style="stroke: #696969; stroke-width: 1.0;"/><line style="stroke: #696969; stroke-width: 1.5;" x1="819.75" x2="819.75" y1="515.2715" y2="535.2715"/><polygon fill="#696969" points="815.75,525.2715,819.75,535.2715,823.75,525.2715,819.75,529.2715" style="stroke: #696969; stroke-width: 1.0;"/><line style="stroke: #696969; stroke-width: 1.5;" x1="714.25" x2="714.25" y1="369.8623" y2="454.1777"/><polygon fill="#696969" points="710.25,444.1777,714.25,454.1777,718.25,444.1777,714.25,448.1777" style="stroke: #696969; stroke-width: 1.0;"/><path d="M721.0833,396.5319 L721.0833,397.4486 L722,397.4486 L722,397.477 C720.4444,397.6979 719.25,399.0417 719.25,400.6569 C719.25,402.4252 720.6901,403.8652 722.4583,403.8652 C724.2266,403.8652 725.6667,402.4252 725.6667,400.6569 C725.6667,400.2444 725.5878,399.8557 725.4659,399.5111 L724.6061,399.8264 C724.7042,400.1051 724.7491,400.3727 724.7491,400.6569 C724.7491,401.932 723.7325,402.9486 722.4574,402.9486 C721.1823,402.9486 720.1658,401.932 720.1658,400.6569 C720.1658,399.3818 721.1823,398.3652 722.4574,398.3652 C722.7306,398.3652 722.9937,398.412 723.2595,398.5082 L723.5748,397.6484 C723.3723,397.5742 723.1431,397.5393 722.9158,397.5054 L722.9158,397.4477 L723.8324,397.4477 L723.8324,396.531 L721.0824,396.531 M725.6658,397.5622 C722.297,400.1289 722.297,400.1289 722.1137,400.3122 C721.9303,400.4956 721.9303,400.788 722.1137,400.9713 C722.297,401.1547 722.5894,401.1547 722.7728,400.9713 C722.9561,400.7972 725.6658,397.5622 725.6658,397.5622 " fill="#696969" style="stroke: ; stroke-width: 0.0; stroke-dasharray: ;"/><text fill="#696969" font-family="sans-serif" font-size="11" lengthAdjust="spacingAndGlyphs" textLength="57" x="730.5833" y="404.1982">3 days later</text><line style="stroke: #696969; stroke-width: 1.5;" x1="375" x2="375" y1="730.1748" y2="750.1748"/><polygon fill="#696969" points="371,740.1748,375,750.1748,379,740.1748,375,744.1748" style="stroke: #696969; stroke-width: 1.0;"/><line style="stroke: #696969; stroke-width: 1.5;" x1="521" x2="521" y1="730.1748" y2="750.1748"/><polygon fill="#696969" points="517,740.1748,521,750.1748,525,740.1748,521,744.1748" style="stroke: #696969; stroke-width: 1.0;"/><line style="stroke: #696969; stroke-width: 1.5;" x1="375" x2="375" y1="785.2686" y2="805.2686"/><polygon fill="#696969" points="371,795.2686,375,805.2686,379,795.2686,375,799.2686" style="stroke: #696969; stroke-width: 1.0;"/><line style="stroke: #696969; stroke-width: 1.5;" x1="521" x2="521" y1="785.2686" y2="805.2686"/><polygon fill="#696969" points="517,795.2686,521,805.2686,525,795.2686,521,799.2686" style="stroke: #696969; stroke-width: 1.0;"/><line style="stroke: #696969; stroke-width: 1.5;" x1="109.5" x2="109.5" y1="957.7471" y2="977.7471"/><polygon fill="#696969" points="105.5,967.7471,109.5,977.7471,113.5,967.7471,109.5,971.7471" style="stroke: #696969; stroke-width: 1.0;"/><line style="stroke: #696969; stroke-width: 1.5;" x1="307.5" x2="307.5" y1="957.7471" y2="977.7471"/><polygon fill="#696969" points="303.5,967.7471,307.5,977.7471,311.5,967.7471,307.5,971.7471" style="stroke: #696969; stroke-width: 1.0;"/><line style="stroke: #696969; stroke-width: 1.5;" x1="765.5" x2="765.5" y1="957.7471" y2="977.7471"/><polygon fill="#696969" points="761.5,967.7471,765.5,977.7471,769.5,967.7471,765.5,971.7471" style="stroke: #696969; stroke-width: 1.0;"/><line style="stroke: #696969; stroke-width: 1.5;" x1="109.5" x2="109.5" y1="1012.8408" y2="1032.8408"/><polygon fill="#696969" points="105.5,1022.8408,109.5,1032.8408,113.5,1022.8408,109.5,1026.8408" style="stroke: #696969; stroke-width: 1.0;"/><line style="stroke: #696969; stroke-width: 1.5;" x1="307.5" x2="307.5" y1="1012.8408" y2="1032.8408"/><polygon fill="#696969" points="303.5,1022.8408,307.5,1032.8408,311.5,1022.8408,307.5,1026.8408" style="stroke: #696969; stroke-width: 1.0;"/><line style="stroke: #696969; stroke-width: 1.5;" x1="765.5" x2="765.5" y1="1012.8408" y2="1032.8408"/><polygon fill="#696969" points="761.5,1022.8408,765.5,1032.8408,769.5,1022.8408,765.5,1026.8408" style="stroke: #696969; stroke-width: 1.0;"/><line style="stroke: #696969; stroke-width: 1.5;" x1="445" x2="445" y1="887.6875" y2="951.7471"/><polygon fill="#696969" points="441,941.7471,445,951.7471,449,941.7471,445,945.7471" style="stroke: #696969; stroke-width: 1.0;"/><line style="stroke: #696969; stroke-width: 1.5;" x1="495" x2="890" y1="875.6875" y2="875.6875"/><polygon fill="#696969" points="886,982.1494,890,992.1494,894,982.1494,890,986.1494" style="stroke: #696969; stroke-width: 1.5;"/><line style="stroke: #696969; stroke-width: 1.5;" x1="890" x2="890" y1="875.6875" y2="1087.5938"/><line style="stroke: #696969; stroke-width: 1.5;" x1="890" x2="457" y1="1087.5938" y2="1087.5938"/><polygon fill="#696969" points="467,1083.5938,457,1087.5938,467,1091.5938,463,1087.5938" style="stroke: #696969; stroke-width: 1.0;"/><line style="stroke: #696969; stroke-width: 1.5;" x1="445" x2="445" y1="1038.8408" y2="1075.5938"/><polygon fill="#696969" points="441,1065.5938,445,1075.5938,449,1065.5938,445,1069.5938" style="stroke: #696969; stroke-width: 1.0;"/><line style="stroke: #696969; stroke-width: 1.5;" x1="445" x2="445" y1="811.2686" y2="863.6875"/><polygon fill="#696969" points="441,853.6875,445,863.6875,449,853.6875,445,857.6875" style="stroke: #696969; stroke-width: 1.0;"/><path d="M451.8333,834.5212 L451.8333,835.4378 L452.75,835.4378 L452.75,835.4662 C451.1944,835.6872 450,837.031 450,838.6462 C450,840.4144 451.4401,841.8545 453.2083,841.8545 C454.9766,841.8545 456.4167,840.4144 456.4167,838.6462 C456.4167,838.2337 456.3378,837.845 456.2159,837.5003 L455.3561,837.8157 C455.4542,838.0943 455.4991,838.362 455.4991,838.6462 C455.4991,839.9212 454.4825,840.9378 453.2074,840.9378 C451.9323,840.9378 450.9158,839.9212 450.9158,838.6462 C450.9158,837.3711 451.9323,836.3545 453.2074,836.3545 C453.4806,836.3545 453.7437,836.4012 454.0095,836.4975 L454.3248,835.6377 C454.1223,835.5634 453.8931,835.5286 453.6658,835.4947 L453.6658,835.4369 L454.5824,835.4369 L454.5824,834.5202 L451.8324,834.5202 M456.4158,835.5515 C453.047,838.1182 453.047,838.1182 452.8637,838.3015 C452.6803,838.4848 452.6803,838.7772 452.8637,838.9606 C453.047,839.1439 453.3394,839.1439 453.5228,838.9606 C453.7061,838.7864 456.4158,835.5515 456.4158,835.5515 " fill="#696969" style="stroke: ; stroke-width: 0.0; stroke-dasharray: ;"/><text fill="#696969" font-family="sans-serif" font-size="11" lengthAdjust="spacingAndGlyphs" textLength="105" x="461.3333" y="842.1875">has 24 hours to leave</text><line style="stroke: #696969; stroke-width: 1.5;" x1="445" x2="445" y1="660.1152" y2="724.1748"/><polygon fill="#696969" points="441,714.1748,445,724.1748,449,714.1748,445,718.1748" style="stroke: #696969; stroke-width: 1.0;"/><line style="stroke: #696969; stroke-width: 1.5;" x1="495" x2="912" y1="648.1152" y2="648.1152"/><polygon fill="#696969" points="908,885.1055,912,895.1055,916,885.1055,912,889.1055" style="stroke: #696969; stroke-width: 1.5;"/><line style="stroke: #696969; stroke-width: 1.5;" x1="912" x2="912" y1="648.1152" y2="1131.5938"/><line style="stroke: #696969; stroke-width: 1.5;" x1="912" x2="457" y1="1131.5938" y2="1131.5938"/><polygon fill="#696969" points="467,1127.5938,457,1131.5938,467,1135.5938,463,1131.5938" style="stroke: #696969; stroke-width: 1.0;"/><line style="stroke: #696969; stroke-width: 1.5;" x1="445" x2="445" y1="1099.5938" y2="1119.5938"/><polygon fill="#696969" points="441,1109.5938,445,1119.5938,449,1109.5938,445,1113.5938" style="stroke: #696969; stroke-width: 1.0;"/><line style="stroke: #696969; stroke-width: 1.5;" x1="686.25" x2="445" y1="614.1152" y2="614.1152"/><line style="stroke: #696969; stroke-width: 1.5;" x1="445" x2="445" y1="614.1152" y2="636.1152"/><polygon fill="#696969" points="441,626.1152,445,636.1152,449,626.1152,445,630.1152" style="stroke: #696969; stroke-width: 1.0;"/><line style="stroke: #696969; stroke-width: 1.5;" x1="742.25" x2="973.25" y1="614.1152" y2="614.1152"/><line style="stroke: #696969; stroke-width: 1.5;" x1="973.25" x2="973.25" y1="614.1152" y2="636.1152"/><polygon fill="#696969" points="969.25,626.1152,973.25,636.1152,977.25,626.1152,973.25,630.1152" style="stroke: #696969; stroke-width: 1.0;"/><line style="stroke: #696969; stroke-width: 1.5;" x1="445" x2="445" y1="1143.5938" y2="1161.5938"/><line style="stroke: #696969; stroke-width: 1.5;" x1="445" x2="702.25" y1="1161.5938" y2="1161.5938"/><polygon fill="#696969" points="692.25,1157.5938,702.25,1161.5938,692.25,1165.5938,696.25,1161.5938" style="stroke: #696969; stroke-width: 1.0;"/><line style="stroke: #696969; stroke-width: 1.5;" x1="973.25" x2="973.25" y1="671.209" y2="1161.5938"/><line style="stroke: #696969; stroke-width: 1.5;" x1="973.25" x2="726.25" y1="1161.5938" y2="1161.5938"/><polygon fill="#696969" points="736.25,1157.5938,726.25,1161.5938,736.25,1165.5938,732.25,1161.5938" style="stroke: #696969; stroke-width: 1.0;"/><line style="stroke: #696969; stroke-width: 1.5;" x1="714.25" x2="714.25" y1="541.2715" y2="602.1152"/><polygon fill="#696969" points="710.25,592.1152,714.25,602.1152,718.25,592.1152,714.25,596.1152" style="stroke: #696969; stroke-width: 1.0;"/><path d="M721.0833,566.36 L721.0833,567.2767 L722,567.2767 L722,567.3051 C720.4444,567.526 719.25,568.8699 719.25,570.485 C719.25,572.2533 720.6901,573.6934 722.4583,573.6934 C724.2266,573.6934 725.6667,572.2533 725.6667,570.485 C725.6667,570.0725 725.5878,569.6839 725.4659,569.3392 L724.6061,569.6545 C724.7042,569.9332 724.7491,570.2009 724.7491,570.485 C724.7491,571.7601 723.7325,572.7767 722.4574,572.7767 C721.1823,572.7767 720.1658,571.7601 720.1658,570.485 C720.1658,569.2099 721.1823,568.1934 722.4574,568.1934 C722.7306,568.1934 722.9937,568.2401 723.2595,568.3364 L723.5748,567.4765 C723.3723,567.4023 723.1431,567.3674 722.9158,567.3335 L722.9158,567.2758 L723.8324,567.2758 L723.8324,566.3591 L721.0824,566.3591 M725.6658,567.3904 C722.297,569.957 722.297,569.957 722.1137,570.1404 C721.9303,570.3237 721.9303,570.6161 722.1137,570.7994 C722.297,570.9828 722.5894,570.9828 722.7728,570.7994 C722.9561,570.6253 725.6658,567.3904 725.6658,567.3904 " fill="#696969" style="stroke: ; stroke-width: 0.0; stroke-dasharray: ;"/><text fill="#696969" font-family="sans-serif" font-size="11" lengthAdjust="spacingAndGlyphs" textLength="49" x="730.5833" y="574.0264">court date</text><line style="stroke: #696969; stroke-width: 1.5;" x1="714.25" x2="714.25" y1="1173.5938" y2="1193.5938"/><polygon fill="#696969" points="710.25,1183.5938,714.25,1193.5938,718.25,1183.5938,714.25,1187.5938" style="stroke: #696969; stroke-width: 1.0;"/><line style="stroke: #696969; stroke-width: 1.5;" x1="714.25" x2="714.25" y1="1228.6875" y2="1248.6875"/><polygon fill="#696969" points="710.25,1238.6875,714.25,1248.6875,718.25,1238.6875,714.25,1242.6875" style="stroke: #696969; stroke-width: 1.0;"/><text fill="#000080" font-family="sans-serif" font-size="14" lengthAdjust="spacingAndGlyphs" textLength="42" x="10" y="1282.2207">©2019</text><a target="_top" xlink:actuate="onRequest" xlink:href="http://www.lifestylesunlimited.com" xlink:show="new" xlink:title="http://www.lifestylesunlimited.com" xlink:type="simple"><text fill="#0000FF" font-family="sans-serif" font-size="14" lengthAdjust="spacingAndGlyphs" text-decoration="underline" textLength="122" x="56" y="1282.2207">LifeStyles Unlimited</text><line style="stroke: #0000FF; stroke-width: 1.0;" x1="56" x2="178" y1="1284.2207" y2="1284.2207"/></a><text fill="#000080" font-family="sans-serif" font-size="14" lengthAdjust="spacingAndGlyphs" textLength="281" x="182" y="1282.2207">| Generated Mon Apr 22 08:25:54 CDT 2019</text><!--
@startuml evicting


skinparam {
  BorderColor Red
  PathHoverColor Blue
}

skinparam Title {
  FontColor Navy
  BackgroundColor PaleGoldenRod
  BorderColor Navy
  BorderRoundCorner 20
}

skinparam activity {
  BackgroundColor Ivory
  BorderColor CornflowerBlue
  FontColor DimGray
  

  Arrow {
    Color dimgray
    FontColor dimgray
  }

  Start {
    Color PHYSICAL
  }

  End {
    Color Coral
  }

  Diamond {
    BackgroundColor Ivory
    BorderColor CornflowerBlue
    FontColor DarkGray
  }

  BackgroundColor<< Exception >> Red
	BorderColor<< Exception >> White
}

skinparam Swimlane {
  BorderColor CornflowerBlue 
}

skinparam Partition {
  BackgroundColor Ivory
  BorderColor CornflowerBlue
  BorderThickness 1
  FontColor CornflowerBlue
  FontSize 16
  BorderRoundCorner 20
}

skinparam Note {
  BackgroundColor LightSteelBlue
  BorderColor CornflowerBlue
  FontColor White
}

skinparam Legend {
  BackgroundColor LightSteelBlue
  BorderColor CornflowerBlue
  FontColor White
}

skinparam Footer {
  FontColor Navy
}


left header 
	<font color=Navy size=18>[[../index.svg ⌂ Home]]</font>
endheader


	Title Evicting

	start
	->tenent violates lease;
	:obtain proof of violation;

	partition "Notice of Eviction" {
		note left: see document hub for more details
		if(rent is late) then (yes)
			fork
				#PHYSICAL:<&dollar> late fees]
			fork again
				[[https://drive.google.com/open?id=0B18-6Qbo-LJ5Y3d0V1VBeGRHWlE]]#LightSkyBlue:Texas Notice To Vacate - Failure to Pay Rent]
			end fork
		else (no)
			[[https://drive.google.com/open?id=0B18-6Qbo-LJ5U2pkTXRaMTg3SjQ]]#LightSkyBlue:notice to vacate\n- - - -\n<i>eviction notice\n3 days to vacate]
		endif
	}
	
	-><&timer> 3 days later;

	partition "Filing a Eviction Suit" {
		fork
			:Summons]
		fork again
			:Complaint]
		fork again
			#PHYSICAL:<&dollar> filing fee <&arrow-thick-right> 150]
		end fork
	}

	-><&timer> court date;	

	if(prevail) then (yes\n<&timer> has 7 days to leave)
		
		if(vacates on time) then (no)
			partition "Enforce Eviction" {
				fork
					:Writ of Possession]
				fork again
					#PHYSICAL:<&dollar> fee <&arrow-thick-right> 150-200]	
				end fork
			}
			-><&timer> has 24 hours to leave;
			if(vacates on time) then (no)
				partition "Physical Eviction" {
					fork
						:sheriff performs eviction;
					fork again
						:movers move trash to the trash;
						note right:sheriff decides what can be trashed
					fork again
						:movers move property to curb;
					end fork
				}
				-><&timer> tenant has 24 hours to retrieve property;
			else (yes)
			endif
		else (yes)
		endif
	else (no)
		#Plum:now what?;
	endif
	:change locks;
	end


left footer 
	<font size=14>©2019 [[http://www.lifestylesunlimited.com LifeStyles Unlimited]] | Generated Mon Apr 22 08:25:54 CDT 2019</font>
endfooter


@enduml

PlantUML version 1.2019.03(Sun Mar 10 06:04:44 CDT 2019)
(GPL source distribution)
Java Runtime: Java(TM) SE Runtime Environment
JVM: Java HotSpot(TM) 64-Bit Server VM
Java Version: 1.8.0_111-b14
Operating System: Windows 10
OS Version: 10.0
Default Encoding: Cp1252
Language: en
Country: US
--></g></svg>