<?xml version="1.0" encoding="UTF-8" standalone="no"?><svg xmlns="http://www.w3.org/2000/svg" xmlns:xlink="http://www.w3.org/1999/xlink" contentScriptType="application/ecmascript" contentStyleType="text/css" height="377px" preserveAspectRatio="none" style="width:475px;height:377px;" version="1.1" viewBox="0 0 475 377" width="475px" zoomAndPan="magnify"><defs><style type="text/css"><![CDATA[path:hover { stroke: #0000FF !important;}]]></style><filter height="300%" id="fsi1k0u2q1bu8" width="300%" x="-1" y="-1"><feGaussianBlur result="blurOut" stdDeviation="2.0"/><feColorMatrix in="blurOut" result="blurOut2" type="matrix" values="0 0 0 0 0 0 0 0 0 0 0 0 0 0 0 0 0 0 .4 0"/><feOffset dx="4.0" dy="4.0" in="blurOut2" result="blurOut3"/><feBlend in="SourceGraphic" in2="blurOut3" mode="normal"/></filter></defs><g><a target="_top" xlink:actuate="onRequest" xlink:href="../index.svg" xlink:show="new" xlink:title="../index.svg" xlink:type="simple"><text fill="#0000FF" font-family="sans-serif" font-size="18" lengthAdjust="spacingAndGlyphs" text-decoration="underline" textLength="67" x="10" y="28.6855">⌂ Home</text><line style="stroke: #0000FF; stroke-width: 1.0;" x1="10" x2="77" y1="30.6855" y2="30.6855"/></a><rect fill="#EEE8AA" height="32.6406" rx="10" ry="10" style="stroke: #000080; stroke-width: 1.5;" width="75" x="198.5" y="34.6406"/><text fill="#000080" font-family="sans-serif" font-size="18" lengthAdjust="spacingAndGlyphs" textLength="59" x="206.5" y="58.3262">Finding</text><ellipse cx="165" cy="80.2813" fill="#CCFFCC" filter="url(#fsi1k0u2q1bu8)" rx="10" ry="10" style="stroke: none; stroke-width: 1.0;"/><path d="M217.5,114.6523 L217.5,123.8281 L197.5,127.8281 L217.5,131.8281 L217.5,141.0039 A0,0 0 0 0 217.5,141.0039 L341.5,141.0039 A0,0 0 0 0 341.5,141.0039 L341.5,124.6523 L331.5,114.6523 L217.5,114.6523 A0,0 0 0 0 217.5,114.6523 " fill="#B0C4DE" filter="url(#fsi1k0u2q1bu8)" style="stroke: #6495ED; stroke-width: 1.0;"/><path d="M331.5,114.6523 L331.5,124.6523 L341.5,124.6523 L331.5,114.6523 " fill="#B0C4DE" style="stroke: #6495ED; stroke-width: 1.0;"/><text fill="#FFFFFF" font-family="sans-serif" font-size="13" lengthAdjust="spacingAndGlyphs" textLength="103" x="223.5" y="133.1475">same sub-division</text><rect fill="#FFFFF0" filter="url(#fsi1k0u2q1bu8)" height="35.0938" rx="12.5" ry="12.5" style="stroke: #6495ED; stroke-width: 1.5;" width="65" x="132.5" y="110.2813"/><text fill="#696969" font-family="sans-serif" font-size="12" lengthAdjust="spacingAndGlyphs" textLength="45" x="142.5" y="132.7383">close by</text><path d="M232.5,169.7461 L232.5,178.9219 L212.5,182.9219 L232.5,186.9219 L232.5,196.0977 A0,0 0 0 0 232.5,196.0977 L355.5,196.0977 A0,0 0 0 0 355.5,196.0977 L355.5,179.7461 L345.5,169.7461 L232.5,169.7461 A0,0 0 0 0 232.5,169.7461 " fill="#B0C4DE" filter="url(#fsi1k0u2q1bu8)" style="stroke: #6495ED; stroke-width: 1.0;"/><path d="M345.5,169.7461 L345.5,179.7461 L355.5,179.7461 L345.5,169.7461 " fill="#B0C4DE" style="stroke: #6495ED; stroke-width: 1.0;"/><text fill="#FFFFFF" font-family="sans-serif" font-size="13" lengthAdjust="spacingAndGlyphs" textLength="102" x="238.5" y="188.2412">within 3-9 months</text><rect fill="#FFFFF0" filter="url(#fsi1k0u2q1bu8)" height="35.0938" rx="12.5" ry="12.5" style="stroke: #6495ED; stroke-width: 1.5;" width="95" x="117.5" y="165.375"/><text fill="#696969" font-family="sans-serif" font-size="12" lengthAdjust="spacingAndGlyphs" textLength="75" x="127.5" y="187.832">listed recently</text><path d="M226.5,224.8398 L226.5,234.0156 L206.5,238.0156 L226.5,242.0156 L226.5,251.1914 A0,0 0 0 0 226.5,251.1914 L347.5,251.1914 A0,0 0 0 0 347.5,251.1914 L347.5,234.8398 L337.5,224.8398 L226.5,224.8398 A0,0 0 0 0 226.5,224.8398 " fill="#B0C4DE" filter="url(#fsi1k0u2q1bu8)" style="stroke: #6495ED; stroke-width: 1.0;"/><path d="M337.5,224.8398 L337.5,234.8398 L347.5,234.8398 L337.5,224.8398 " fill="#B0C4DE" style="stroke: #6495ED; stroke-width: 1.0;"/><text fill="#FFFFFF" font-family="sans-serif" font-size="13" lengthAdjust="spacingAndGlyphs" textLength="100" x="232.5" y="243.335">± 300 square feet</text><rect fill="#FFFFF0" filter="url(#fsi1k0u2q1bu8)" height="35.0938" rx="12.5" ry="12.5" style="stroke: #6495ED; stroke-width: 1.5;" width="83" x="123.5" y="220.4688"/><text fill="#696969" font-family="sans-serif" font-size="12" lengthAdjust="spacingAndGlyphs" textLength="63" x="133.5" y="242.9258">similar size</text><path d="M225.5,279.9336 L225.5,289.1094 L205.5,293.1094 L225.5,297.1094 L225.5,306.2852 A0,0 0 0 0 225.5,306.2852 L321.5,306.2852 A0,0 0 0 0 321.5,306.2852 L321.5,289.9336 L311.5,279.9336 L225.5,279.9336 A0,0 0 0 0 225.5,279.9336 " fill="#B0C4DE" filter="url(#fsi1k0u2q1bu8)" style="stroke: #6495ED; stroke-width: 1.0;"/><path d="M311.5,279.9336 L311.5,289.9336 L321.5,289.9336 L311.5,279.9336 " fill="#B0C4DE" style="stroke: #6495ED; stroke-width: 1.0;"/><text fill="#FFFFFF" font-family="sans-serif" font-size="13" lengthAdjust="spacingAndGlyphs" textLength="75" x="231.5" y="298.4287">price ≠ value</text><rect fill="#FFFFF0" filter="url(#fsi1k0u2q1bu8)" height="35.0938" rx="12.5" ry="12.5" style="stroke: #6495ED; stroke-width: 1.5;" width="81" x="124.5" y="275.5625"/><text fill="#696969" font-family="sans-serif" font-size="12" lengthAdjust="spacingAndGlyphs" textLength="61" x="134.5" y="298.0195">sale prices</text><ellipse cx="165" cy="340.6563" fill="#FFFFFF" filter="url(#fsi1k0u2q1bu8)" rx="10" ry="10" style="stroke: #FF7F50; stroke-width: 1.5;"/><line style="stroke: #FF7F50; stroke-width: 2.5;" x1="158.8128" x2="171.1872" y1="334.4691" y2="346.8434"/><line style="stroke: #FF7F50; stroke-width: 2.5;" x1="171.1872" x2="158.8128" y1="334.4691" y2="346.8434"/><line style="stroke: #696969; stroke-width: 1.5;" x1="165" x2="165" y1="90.2813" y2="110.2813"/><polygon fill="#696969" points="161,100.2813,165,110.2813,169,100.2813,165,104.2813" style="stroke: #696969; stroke-width: 1.0;"/><line style="stroke: #696969; stroke-width: 1.5;" x1="165" x2="165" y1="145.375" y2="165.375"/><polygon fill="#696969" points="161,155.375,165,165.375,169,155.375,165,159.375" style="stroke: #696969; stroke-width: 1.0;"/><line style="stroke: #696969; stroke-width: 1.5;" x1="165" x2="165" y1="200.4688" y2="220.4688"/><polygon fill="#696969" points="161,210.4688,165,220.4688,169,210.4688,165,214.4688" style="stroke: #696969; stroke-width: 1.0;"/><line style="stroke: #696969; stroke-width: 1.5;" x1="165" x2="165" y1="255.5625" y2="275.5625"/><polygon fill="#696969" points="161,265.5625,165,275.5625,169,265.5625,165,269.5625" style="stroke: #696969; stroke-width: 1.0;"/><line style="stroke: #696969; stroke-width: 1.5;" x1="165" x2="165" y1="310.6563" y2="330.6563"/><polygon fill="#696969" points="161,320.6563,165,330.6563,169,320.6563,165,324.6563" style="stroke: #696969; stroke-width: 1.0;"/><text fill="#000080" font-family="sans-serif" font-size="14" lengthAdjust="spacingAndGlyphs" textLength="42" x="10" y="364.1895">©2019</text><a target="_top" xlink:actuate="onRequest" xlink:href="http://www.lifestylesunlimited.com" xlink:show="new" xlink:title="http://www.lifestylesunlimited.com" xlink:type="simple"><text fill="#0000FF" font-family="sans-serif" font-size="14" lengthAdjust="spacingAndGlyphs" text-decoration="underline" textLength="122" x="56" y="364.1895">LifeStyles Unlimited</text><line style="stroke: #0000FF; stroke-width: 1.0;" x1="56" x2="178" y1="366.1895" y2="366.1895"/></a><text fill="#000080" font-family="sans-serif" font-size="14" lengthAdjust="spacingAndGlyphs" textLength="281" x="182" y="364.1895">| Generated Mon Apr 22 08:25:55 CDT 2019</text><!--
@startuml finding


skinparam {
  BorderColor Red
  PathHoverColor Blue
}

skinparam Title {
  FontColor Navy
  BackgroundColor PaleGoldenRod
  BorderColor Navy
  BorderRoundCorner 20
}

skinparam activity {
  BackgroundColor Ivory
  BorderColor CornflowerBlue
  FontColor DimGray
  

  Arrow {
    Color dimgray
    FontColor dimgray
  }

  Start {
    Color PHYSICAL
  }

  End {
    Color Coral
  }

  Diamond {
    BackgroundColor Ivory
    BorderColor CornflowerBlue
    FontColor DarkGray
  }

  BackgroundColor<< Exception >> Red
	BorderColor<< Exception >> White
}

skinparam Swimlane {
  BorderColor CornflowerBlue 
}

skinparam Partition {
  BackgroundColor Ivory
  BorderColor CornflowerBlue
  BorderThickness 1
  FontColor CornflowerBlue
  FontSize 16
  BorderRoundCorner 20
}

skinparam Note {
  BackgroundColor LightSteelBlue
  BorderColor CornflowerBlue
  FontColor White
}

skinparam Legend {
  BackgroundColor LightSteelBlue
  BorderColor CornflowerBlue
  FontColor White
}

skinparam Footer {
  FontColor Navy
}


left header 
	<font color=Navy size=18>[[../index.svg ⌂ Home]]</font>
endheader


	Title Finding

	start

		:close by;
		note right:same sub-division

		:listed recently;
		note right: within 3-9 months

		:similar size;
		note right: ± 300 square feet

		:sale prices;
		note right: price ≠ value

	end


left footer 
	<font size=14>©2019 [[http://www.lifestylesunlimited.com LifeStyles Unlimited]] | Generated Mon Apr 22 08:25:55 CDT 2019</font>
endfooter


@enduml

PlantUML version 1.2019.03(Sun Mar 10 06:04:44 CDT 2019)
(GPL source distribution)
Java Runtime: Java(TM) SE Runtime Environment
JVM: Java HotSpot(TM) 64-Bit Server VM
Java Version: 1.8.0_111-b14
Operating System: Windows 10
OS Version: 10.0
Default Encoding: Cp1252
Language: en
Country: US
--></g></svg>