<?xml version="1.0" encoding="UTF-8" standalone="no"?><svg xmlns="http://www.w3.org/2000/svg" xmlns:xlink="http://www.w3.org/1999/xlink" contentScriptType="application/ecmascript" contentStyleType="text/css" height="363px" preserveAspectRatio="none" style="width:359px;height:363px;" version="1.1" viewBox="0 0 359 363" width="359px" zoomAndPan="magnify"><defs><style type="text/css"><![CDATA[path:hover { stroke: #0000FF !important;}]]></style><filter height="300%" id="ffr1w47lg1wan" width="300%" x="-1" y="-1"><feGaussianBlur result="blurOut" stdDeviation="2.0"/><feColorMatrix in="blurOut" result="blurOut2" type="matrix" values="0 0 0 0 0 0 0 0 0 0 0 0 0 0 0 0 0 0 .4 0"/><feOffset dx="4.0" dy="4.0" in="blurOut2" result="blurOut3"/><feBlend in="SourceGraphic" in2="blurOut3" mode="normal"/></filter></defs><g><a target="_top" xlink:actuate="onRequest" xlink:href="../index.svg" xlink:show="new" xlink:title="../index.svg" xlink:type="simple"><text fill="#0000FF" font-family="sans-serif" font-size="10" lengthAdjust="spacingAndGlyphs" text-decoration="underline" textLength="39" x="10" y="20.3809">⌂ Home</text><line style="stroke: #0000FF; stroke-width: 1.0;" x1="10" x2="49" y1="22.3809" y2="22.3809"/></a><rect fill="#EEE8AA" height="32.6406" rx="10" ry="10" style="stroke: #000080; stroke-width: 1.5;" width="75" x="140.5" y="24.5781"/><text fill="#000080" font-family="sans-serif" font-size="18" lengthAdjust="spacingAndGlyphs" textLength="59" x="148.5" y="48.2637">Finding</text><ellipse cx="107" cy="70.2188" fill="#CCFFCC" filter="url(#ffr1w47lg1wan)" rx="10" ry="10" style="stroke: none; stroke-width: 1.0;"/><path d="M159.5,104.5898 L159.5,113.7656 L139.5,117.7656 L159.5,121.7656 L159.5,130.9414 A0,0 0 0 0 159.5,130.9414 L283.5,130.9414 A0,0 0 0 0 283.5,130.9414 L283.5,114.5898 L273.5,104.5898 L159.5,104.5898 A0,0 0 0 0 159.5,104.5898 " fill="#B0C4DE" filter="url(#ffr1w47lg1wan)" style="stroke: #6495ED; stroke-width: 1.0;"/><path d="M273.5,104.5898 L273.5,114.5898 L283.5,114.5898 L273.5,104.5898 " fill="#B0C4DE" style="stroke: #6495ED; stroke-width: 1.0;"/><text fill="#FFFFFF" font-family="sans-serif" font-size="13" lengthAdjust="spacingAndGlyphs" textLength="103" x="165.5" y="123.085">same sub-division</text><rect fill="#FFFFF0" filter="url(#ffr1w47lg1wan)" height="35.0938" rx="12.5" ry="12.5" style="stroke: #6495ED; stroke-width: 1.5;" width="65" x="74.5" y="100.2188"/><text fill="#696969" font-family="sans-serif" font-size="12" lengthAdjust="spacingAndGlyphs" textLength="45" x="84.5" y="122.6758">close by</text><path d="M174.5,159.6836 L174.5,168.8594 L154.5,172.8594 L174.5,176.8594 L174.5,186.0352 A0,0 0 0 0 174.5,186.0352 L297.5,186.0352 A0,0 0 0 0 297.5,186.0352 L297.5,169.6836 L287.5,159.6836 L174.5,159.6836 A0,0 0 0 0 174.5,159.6836 " fill="#B0C4DE" filter="url(#ffr1w47lg1wan)" style="stroke: #6495ED; stroke-width: 1.0;"/><path d="M287.5,159.6836 L287.5,169.6836 L297.5,169.6836 L287.5,159.6836 " fill="#B0C4DE" style="stroke: #6495ED; stroke-width: 1.0;"/><text fill="#FFFFFF" font-family="sans-serif" font-size="13" lengthAdjust="spacingAndGlyphs" textLength="102" x="180.5" y="178.1787">within 3-9 months</text><rect fill="#FFFFF0" filter="url(#ffr1w47lg1wan)" height="35.0938" rx="12.5" ry="12.5" style="stroke: #6495ED; stroke-width: 1.5;" width="95" x="59.5" y="155.3125"/><text fill="#696969" font-family="sans-serif" font-size="12" lengthAdjust="spacingAndGlyphs" textLength="75" x="69.5" y="177.7695">listed recently</text><path d="M168.5,214.7773 L168.5,223.9531 L148.5,227.9531 L168.5,231.9531 L168.5,241.1289 A0,0 0 0 0 168.5,241.1289 L289.5,241.1289 A0,0 0 0 0 289.5,241.1289 L289.5,224.7773 L279.5,214.7773 L168.5,214.7773 A0,0 0 0 0 168.5,214.7773 " fill="#B0C4DE" filter="url(#ffr1w47lg1wan)" style="stroke: #6495ED; stroke-width: 1.0;"/><path d="M279.5,214.7773 L279.5,224.7773 L289.5,224.7773 L279.5,214.7773 " fill="#B0C4DE" style="stroke: #6495ED; stroke-width: 1.0;"/><text fill="#FFFFFF" font-family="sans-serif" font-size="13" lengthAdjust="spacingAndGlyphs" textLength="100" x="174.5" y="233.2725">± 300 square feet</text><rect fill="#FFFFF0" filter="url(#ffr1w47lg1wan)" height="35.0938" rx="12.5" ry="12.5" style="stroke: #6495ED; stroke-width: 1.5;" width="83" x="65.5" y="210.4063"/><text fill="#696969" font-family="sans-serif" font-size="12" lengthAdjust="spacingAndGlyphs" textLength="63" x="75.5" y="232.8633">similar size</text><path d="M167.5,269.8711 L167.5,279.0469 L147.5,283.0469 L167.5,287.0469 L167.5,296.2227 A0,0 0 0 0 167.5,296.2227 L263.5,296.2227 A0,0 0 0 0 263.5,296.2227 L263.5,279.8711 L253.5,269.8711 L167.5,269.8711 A0,0 0 0 0 167.5,269.8711 " fill="#B0C4DE" filter="url(#ffr1w47lg1wan)" style="stroke: #6495ED; stroke-width: 1.0;"/><path d="M253.5,269.8711 L253.5,279.8711 L263.5,279.8711 L253.5,269.8711 " fill="#B0C4DE" style="stroke: #6495ED; stroke-width: 1.0;"/><text fill="#FFFFFF" font-family="sans-serif" font-size="13" lengthAdjust="spacingAndGlyphs" textLength="75" x="173.5" y="288.3662">price ≠ value</text><rect fill="#FFFFF0" filter="url(#ffr1w47lg1wan)" height="35.0938" rx="12.5" ry="12.5" style="stroke: #6495ED; stroke-width: 1.5;" width="81" x="66.5" y="265.5"/><text fill="#696969" font-family="sans-serif" font-size="12" lengthAdjust="spacingAndGlyphs" textLength="61" x="76.5" y="287.957">sale prices</text><ellipse cx="107" cy="330.5938" fill="#FFFFFF" filter="url(#ffr1w47lg1wan)" rx="10" ry="10" style="stroke: #FF7F50; stroke-width: 1.5;"/><line style="stroke: #FF7F50; stroke-width: 2.5;" x1="100.8128" x2="113.1872" y1="324.4066" y2="336.7809"/><line style="stroke: #FF7F50; stroke-width: 2.5;" x1="113.1872" x2="100.8128" y1="324.4066" y2="336.7809"/><line style="stroke: #696969; stroke-width: 1.5;" x1="107" x2="107" y1="80.2188" y2="100.2188"/><polygon fill="#696969" points="103,90.2188,107,100.2188,111,90.2188,107,94.2188" style="stroke: #696969; stroke-width: 1.0;"/><line style="stroke: #696969; stroke-width: 1.5;" x1="107" x2="107" y1="135.3125" y2="155.3125"/><polygon fill="#696969" points="103,145.3125,107,155.3125,111,145.3125,107,149.3125" style="stroke: #696969; stroke-width: 1.0;"/><line style="stroke: #696969; stroke-width: 1.5;" x1="107" x2="107" y1="190.4063" y2="210.4063"/><polygon fill="#696969" points="103,200.4063,107,210.4063,111,200.4063,107,204.4063" style="stroke: #696969; stroke-width: 1.0;"/><line style="stroke: #696969; stroke-width: 1.5;" x1="107" x2="107" y1="245.5" y2="265.5"/><polygon fill="#696969" points="103,255.5,107,265.5,111,255.5,107,259.5" style="stroke: #696969; stroke-width: 1.0;"/><line style="stroke: #696969; stroke-width: 1.5;" x1="107" x2="107" y1="300.5938" y2="320.5938"/><polygon fill="#696969" points="103,310.5938,107,320.5938,111,310.5938,107,314.5938" style="stroke: #696969; stroke-width: 1.0;"/><text fill="#000080" font-family="sans-serif" font-size="10" lengthAdjust="spacingAndGlyphs" textLength="31" x="10" y="349.9746">©2019</text><a target="_top" xlink:actuate="onRequest" xlink:href="http://www.lifestylesunlimited.com" xlink:show="new" xlink:title="http://www.lifestylesunlimited.com" xlink:type="simple"><text fill="#0000FF" font-family="sans-serif" font-size="10" lengthAdjust="spacingAndGlyphs" text-decoration="underline" textLength="95" x="44" y="349.9746">LifeStyles Unlimited</text><line style="stroke: #0000FF; stroke-width: 1.0;" x1="44" x2="139" y1="351.9746" y2="351.9746"/></a><text fill="#000080" font-family="sans-serif" font-size="10" lengthAdjust="spacingAndGlyphs" textLength="205" x="142" y="349.9746">| Generated Sat Apr 20 19:28:18 CDT 2019</text><!--
@startuml finding


skinparam {
  BorderColor Red
  PathHoverColor Blue
}

skinparam Title {
  FontColor Navy
  BackgroundColor PaleGoldenRod
  BorderColor Navy
  BorderRoundCorner 20
}

skinparam activity {
  BackgroundColor Ivory
  BorderColor CornflowerBlue
  FontColor DimGray
  

  Arrow {
    Color dimgray
    FontColor dimgray
  }

  Start {
    Color PHYSICAL
  }

  End {
    Color Coral
  }

  Diamond {
    BackgroundColor Ivory
    BorderColor CornflowerBlue
    FontColor DarkGray
  }

  BackgroundColor<< Exception >> Red
	BorderColor<< Exception >> White
}

skinparam Swimlane {
  BorderColor CornflowerBlue 
}

skinparam Partition {
  BackgroundColor Ivory
  BorderColor CornflowerBlue
  BorderThickness 1
  FontColor CornflowerBlue
  FontSize 16
  BorderRoundCorner 20
}

skinparam Note {
  BackgroundColor LightSteelBlue
  BorderColor CornflowerBlue
  FontColor White
}

skinparam Legend {
  BackgroundColor LightSteelBlue
  BorderColor CornflowerBlue
  FontColor White
}

skinparam Footer {
  FontColor Navy
}


left header 
	<font color=Navy>[[../index.svg ⌂ Home]]</font>
endheader


	Title Finding

	start

		:close by;
		note right:same sub-division

		:listed recently;
		note right: within 3-9 months

		:similar size;
		note right: ± 300 square feet

		:sale prices;
		note right: price ≠ value

	end


left footer 
	©2019 [[http://www.lifestylesunlimited.com LifeStyles Unlimited]] | Generated Sat Apr 20 19:28:18 CDT 2019
endfooter


@enduml

PlantUML version 1.2019.03(Sun Mar 10 06:04:44 CDT 2019)
(GPL source distribution)
Java Runtime: Java(TM) SE Runtime Environment
JVM: Java HotSpot(TM) 64-Bit Server VM
Java Version: 1.8.0_111-b14
Operating System: Windows 10
OS Version: 10.0
Default Encoding: Cp1252
Language: en
Country: US
--></g></svg>