<?xml version="1.0" encoding="UTF-8" standalone="no"?><svg xmlns="http://www.w3.org/2000/svg" xmlns:xlink="http://www.w3.org/1999/xlink" contentScriptType="application/ecmascript" contentStyleType="text/css" height="363px" preserveAspectRatio="none" style="width:362px;height:363px;" version="1.1" viewBox="0 0 362 363" width="362px" zoomAndPan="magnify"><defs><style type="text/css"><![CDATA[path:hover { stroke: #0000FF !important;}]]></style><filter height="300%" id="f64w0p3lp2mgy" width="300%" x="-1" y="-1"><feGaussianBlur result="blurOut" stdDeviation="2.0"/><feColorMatrix in="blurOut" result="blurOut2" type="matrix" values="0 0 0 0 0 0 0 0 0 0 0 0 0 0 0 0 0 0 .4 0"/><feOffset dx="4.0" dy="4.0" in="blurOut2" result="blurOut3"/><feBlend in="SourceGraphic" in2="blurOut3" mode="normal"/></filter></defs><g><a target="_top" xlink:actuate="onRequest" xlink:href="../index.svg" xlink:show="new" xlink:title="../index.svg" xlink:type="simple"><text fill="#0000FF" font-family="sans-serif" font-size="10" lengthAdjust="spacingAndGlyphs" text-decoration="underline" textLength="39" x="10" y="20.3809">⌂ Home</text><line style="stroke: #0000FF; stroke-width: 1.0;" x1="10" x2="49" y1="22.3809" y2="22.3809"/></a><rect fill="#EEE8AA" height="32.6406" rx="10" ry="10" style="stroke: #000080; stroke-width: 1.5;" width="75" x="142" y="24.5781"/><text fill="#000080" font-family="sans-serif" font-size="18" lengthAdjust="spacingAndGlyphs" textLength="59" x="150" y="48.2637">Finding</text><ellipse cx="108.5" cy="70.2188" fill="#000080" filter="url(#f64w0p3lp2mgy)" rx="10" ry="10" style="stroke: none; stroke-width: 1.0;"/><path d="M161,104.5898 L161,113.7656 L141,117.7656 L161,121.7656 L161,130.9414 A0,0 0 0 0 161,130.9414 L285,130.9414 A0,0 0 0 0 285,130.9414 L285,114.5898 L275,104.5898 L161,104.5898 A0,0 0 0 0 161,104.5898 " fill="#B0C4DE" filter="url(#f64w0p3lp2mgy)" style="stroke: #6495ED; stroke-width: 1.0;"/><path d="M275,104.5898 L275,114.5898 L285,114.5898 L275,104.5898 " fill="#B0C4DE" style="stroke: #6495ED; stroke-width: 1.0;"/><text fill="#FFFFFF" font-family="sans-serif" font-size="13" lengthAdjust="spacingAndGlyphs" textLength="103" x="167" y="123.085">same sub-division</text><rect fill="#FFFFF0" filter="url(#f64w0p3lp2mgy)" height="35.0938" rx="12.5" ry="12.5" style="stroke: #6495ED; stroke-width: 1.5;" width="65" x="76" y="100.2188"/><text fill="#A9A9A9" font-family="sans-serif" font-size="12" lengthAdjust="spacingAndGlyphs" textLength="45" x="86" y="122.6758">close by</text><path d="M176,159.6836 L176,168.8594 L156,172.8594 L176,176.8594 L176,186.0352 A0,0 0 0 0 176,186.0352 L299,186.0352 A0,0 0 0 0 299,186.0352 L299,169.6836 L289,159.6836 L176,159.6836 A0,0 0 0 0 176,159.6836 " fill="#B0C4DE" filter="url(#f64w0p3lp2mgy)" style="stroke: #6495ED; stroke-width: 1.0;"/><path d="M289,159.6836 L289,169.6836 L299,169.6836 L289,159.6836 " fill="#B0C4DE" style="stroke: #6495ED; stroke-width: 1.0;"/><text fill="#FFFFFF" font-family="sans-serif" font-size="13" lengthAdjust="spacingAndGlyphs" textLength="102" x="182" y="178.1787">within 3-9 months</text><rect fill="#FFFFF0" filter="url(#f64w0p3lp2mgy)" height="35.0938" rx="12.5" ry="12.5" style="stroke: #6495ED; stroke-width: 1.5;" width="95" x="61" y="155.3125"/><text fill="#A9A9A9" font-family="sans-serif" font-size="12" lengthAdjust="spacingAndGlyphs" textLength="75" x="71" y="177.7695">listed recently</text><path d="M170,214.7773 L170,223.9531 L150,227.9531 L170,231.9531 L170,241.1289 A0,0 0 0 0 170,241.1289 L291,241.1289 A0,0 0 0 0 291,241.1289 L291,224.7773 L281,214.7773 L170,214.7773 A0,0 0 0 0 170,214.7773 " fill="#B0C4DE" filter="url(#f64w0p3lp2mgy)" style="stroke: #6495ED; stroke-width: 1.0;"/><path d="M281,214.7773 L281,224.7773 L291,224.7773 L281,214.7773 " fill="#B0C4DE" style="stroke: #6495ED; stroke-width: 1.0;"/><text fill="#FFFFFF" font-family="sans-serif" font-size="13" lengthAdjust="spacingAndGlyphs" textLength="100" x="176" y="233.2725">± 300 square feet</text><rect fill="#FFFFF0" filter="url(#f64w0p3lp2mgy)" height="35.0938" rx="12.5" ry="12.5" style="stroke: #6495ED; stroke-width: 1.5;" width="83" x="67" y="210.4063"/><text fill="#A9A9A9" font-family="sans-serif" font-size="12" lengthAdjust="spacingAndGlyphs" textLength="63" x="77" y="232.8633">similar size</text><path d="M169,269.8711 L169,279.0469 L149,283.0469 L169,287.0469 L169,296.2227 A0,0 0 0 0 169,296.2227 L265,296.2227 A0,0 0 0 0 265,296.2227 L265,279.8711 L255,269.8711 L169,269.8711 A0,0 0 0 0 169,269.8711 " fill="#B0C4DE" filter="url(#f64w0p3lp2mgy)" style="stroke: #6495ED; stroke-width: 1.0;"/><path d="M255,269.8711 L255,279.8711 L265,279.8711 L255,269.8711 " fill="#B0C4DE" style="stroke: #6495ED; stroke-width: 1.0;"/><text fill="#FFFFFF" font-family="sans-serif" font-size="13" lengthAdjust="spacingAndGlyphs" textLength="75" x="175" y="288.3662">price ≠ value</text><rect fill="#FFFFF0" filter="url(#f64w0p3lp2mgy)" height="35.0938" rx="12.5" ry="12.5" style="stroke: #6495ED; stroke-width: 1.5;" width="81" x="68" y="265.5"/><text fill="#A9A9A9" font-family="sans-serif" font-size="12" lengthAdjust="spacingAndGlyphs" textLength="61" x="78" y="287.957">sale prices</text><ellipse cx="108.5" cy="330.5938" fill="#FFFFFF" filter="url(#f64w0p3lp2mgy)" rx="10" ry="10" style="stroke: #FF0000; stroke-width: 1.5;"/><line style="stroke: #FF0000; stroke-width: 2.5;" x1="102.3128" x2="114.6872" y1="324.4066" y2="336.7809"/><line style="stroke: #FF0000; stroke-width: 2.5;" x1="114.6872" x2="102.3128" y1="324.4066" y2="336.7809"/><line style="stroke: #696969; stroke-width: 1.5;" x1="108.5" x2="108.5" y1="80.2188" y2="100.2188"/><polygon fill="#696969" points="104.5,90.2188,108.5,100.2188,112.5,90.2188,108.5,94.2188" style="stroke: #696969; stroke-width: 1.0;"/><line style="stroke: #696969; stroke-width: 1.5;" x1="108.5" x2="108.5" y1="135.3125" y2="155.3125"/><polygon fill="#696969" points="104.5,145.3125,108.5,155.3125,112.5,145.3125,108.5,149.3125" style="stroke: #696969; stroke-width: 1.0;"/><line style="stroke: #696969; stroke-width: 1.5;" x1="108.5" x2="108.5" y1="190.4063" y2="210.4063"/><polygon fill="#696969" points="104.5,200.4063,108.5,210.4063,112.5,200.4063,108.5,204.4063" style="stroke: #696969; stroke-width: 1.0;"/><line style="stroke: #696969; stroke-width: 1.5;" x1="108.5" x2="108.5" y1="245.5" y2="265.5"/><polygon fill="#696969" points="104.5,255.5,108.5,265.5,112.5,255.5,108.5,259.5" style="stroke: #696969; stroke-width: 1.0;"/><line style="stroke: #696969; stroke-width: 1.5;" x1="108.5" x2="108.5" y1="300.5938" y2="320.5938"/><polygon fill="#696969" points="104.5,310.5938,108.5,320.5938,112.5,310.5938,108.5,314.5938" style="stroke: #696969; stroke-width: 1.0;"/><text fill="#000080" font-family="sans-serif" font-size="10" lengthAdjust="spacingAndGlyphs" textLength="31" x="10" y="349.9746">©2019</text><a target="_top" xlink:actuate="onRequest" xlink:href="http://www.lifestylesunlimited.com" xlink:show="new" xlink:title="http://www.lifestylesunlimited.com" xlink:type="simple"><text fill="#0000FF" font-family="sans-serif" font-size="10" lengthAdjust="spacingAndGlyphs" text-decoration="underline" textLength="95" x="44" y="349.9746">LifeStyles Unlimited</text><line style="stroke: #0000FF; stroke-width: 1.0;" x1="44" x2="139" y1="351.9746" y2="351.9746"/></a><text fill="#000080" font-family="sans-serif" font-size="10" lengthAdjust="spacingAndGlyphs" textLength="208" x="142" y="349.9746">| Generated Sun Apr 14 12:09:42 CDT 2019</text><!--
@startuml finding


skinparam {
  BorderColor Red
  PathHoverColor Blue
}

skinparam Title {
  FontColor Navy
  BackgroundColor PaleGoldenRod
  BorderColor Navy
  BorderRoundCorner 20
}

skinparam activity {
  BackgroundColor Ivory
  BorderColor CornflowerBlue
  FontColor DarkGray

  Arrow {
    Color dimgray
    FontColor dimgray
  }

  Start {
    Color Navy
  }

  End {
    Color Red
  }

  Diamond {
    BackgroundColor Ivory
    BorderColor CornflowerBlue
    FontColor DarkGray
  }

  BackgroundColor<< Exception >> Red
	BorderColor<< Exception >> White
}

skinparam Swimlane {
  BorderColor CornflowerBlue 
}

skinparam Partition {
  BackgroundColor DarkSeaGreen
  BorderColor CornflowerBlue
  BorderThickness 1
  FontColor White
  FontSize 16
}
skinparam Note {
  BackgroundColor LightSteelBlue
  BorderColor CornflowerBlue
  FontColor White
}

skinparam Footer {
  FontColor Navy
}


left header 
	<font color=Navy>[[../index.svg ⌂ Home]]</font>
endheader


	Title Finding

	start

		:close by;
		note right:same sub-division

		:listed recently;
		note right: within 3-9 months

		:similar size;
		note right: ± 300 square feet

		:sale prices;
		note right: price ≠ value

	end

left footer 
	©2019 [[http://www.lifestylesunlimited.com LifeStyles Unlimited]] | Generated Sun Apr 14 12:09:42 CDT 2019
endfooter


@enduml

PlantUML version 1.2019.03(Sun Mar 10 06:04:44 CDT 2019)
(GPL source distribution)
Java Runtime: Java(TM) SE Runtime Environment
JVM: Java HotSpot(TM) 64-Bit Server VM
Java Version: 1.8.0_111-b14
Operating System: Windows 10
OS Version: 10.0
Default Encoding: Cp1252
Language: en
Country: US
--></g></svg>