<?xml version="1.0" encoding="UTF-8" standalone="no"?><svg xmlns="http://www.w3.org/2000/svg" xmlns:xlink="http://www.w3.org/1999/xlink" contentScriptType="application/ecmascript" contentStyleType="text/css" height="1663px" preserveAspectRatio="none" style="width:1006px;height:1663px;" version="1.1" viewBox="0 0 1006 1663" width="1006px" zoomAndPan="magnify"><defs><style type="text/css"><![CDATA[path:hover { stroke: #0000FF !important;}]]></style><filter height="300%" id="fg2j7ov4vpi74" width="300%" x="-1" y="-1"><feGaussianBlur result="blurOut" stdDeviation="2.0"/><feColorMatrix in="blurOut" result="blurOut2" type="matrix" values="0 0 0 0 0 0 0 0 0 0 0 0 0 0 0 0 0 0 .4 0"/><feOffset dx="4.0" dy="4.0" in="blurOut2" result="blurOut3"/><feBlend in="SourceGraphic" in2="blurOut3" mode="normal"/></filter></defs><g><a target="_top" xlink:actuate="onRequest" xlink:href="../index.svg?sanitize=true" xlink:show="new" xlink:title="../index.svg?sanitize=true" xlink:type="simple"><text fill="#0000FF" font-family="sans-serif" font-size="24" lengthAdjust="spacingAndGlyphs" text-decoration="underline" textLength="90" x="10" y="34.9141">⌂ Home</text><line style="stroke: #0000FF; stroke-width: 1.0;" x1="10" x2="100" y1="36.9141" y2="36.9141"/></a><rect fill="#EEE8AA" height="40.1875" rx="10" ry="10" style="stroke: #000080; stroke-width: 1.5;" width="97" x="453" y="42.1875"/><text fill="#000080" font-family="sans-serif" font-size="24" lengthAdjust="spacingAndGlyphs" textLength="81" x="461" y="72.1016">Finding</text><ellipse cx="502.5" cy="95.375" fill="#CCFFCC" filter="url(#fg2j7ov4vpi74)" rx="10" ry="10" style="stroke: none; stroke-width: 1.0;"/><rect fill="#FFFFF0" filter="url(#fg2j7ov4vpi74)" height="313.3125" style="stroke: #6495ED; stroke-width: 1.0;" width="985" x="10" y="116.3906"/><path d="M72,117.3906 L72,129.5156 L62,139.5156 L10,139.5156 " fill="none" style="stroke: #6495ED; stroke-width: 1.0;"/><text fill="#6495ED" font-family="sans-serif" font-size="16" lengthAdjust="spacingAndGlyphs" textLength="52" x="13" y="134">Finding</text><rect fill="#000000" filter="url(#fg2j7ov4vpi74)" height="6" rx="2.5" ry="2.5" style="stroke: #000000; stroke-width: 1.0;" width="965" x="20" y="156.5156"/><rect fill="#FFFFF0" filter="url(#fg2j7ov4vpi74)" height="95.2188" style="stroke: #6495ED; stroke-width: 1.0;" width="112" x="34" y="239.5"/><path d="M129,240.5 L129,252.625 L119,262.625 L34,262.625 " fill="none" style="stroke: #6495ED; stroke-width: 1.0;"/><text fill="#6495ED" font-family="sans-serif" font-size="16" lengthAdjust="spacingAndGlyphs" textLength="85" x="37" y="257.1094">find it myself</text><a target="_top" xlink:actuate="onRequest" xlink:href="http://realestate.sabor.com" xlink:show="new" xlink:title="http://realestate.sabor.com" xlink:type="simple"><rect fill="#87CEFA" filter="url(#fg2j7ov4vpi74)" height="35.0938" rx="12.5" ry="12.5" style="stroke: #6495ED; stroke-width: 1.0;" width="92" x="44" y="279.625"/><path d="M59,293.7188 C56.79,293.7188 55,295.5088 55,297.7188 C55,299.9288 56.79,301.7188 59,301.7188 C61.21,301.7188 63,299.9288 63,297.7188 C63,295.5088 61.21,293.7188 59,293.7188 M59,294.7188 C59.333,294.7188 59.637,294.8048 59.938,294.9068 C59.724,295.1038 59.488,295.2898 59.532,295.4698 C59.572,295.6498 60.22,295.5998 60.22,295.9698 C60.22,296.2398 59.795,296.3158 60.095,296.6258 C60.445,296.9758 59.459,297.6038 59.439,298.0638 C59.409,298.8938 60.28,299.0328 60.97,299.0328 C61.394,299.0328 61.473,299.2278 61.439,299.4708 C60.893,300.2288 60.001,300.7208 59.001,300.7208 C58.623,300.7208 58.272,300.6308 57.938,300.5018 C58.162,300.0598 57.625,299.1578 57.157,298.8768 C56.931,298.6508 56.468,298.7628 56.188,298.6578 C56.096,298.3868 56.01,298.1128 56,297.8138 C56.031,297.7638 56.081,297.7198 56.156,297.7198 C56.346,297.7198 56.61,298.0938 56.75,298.0638 C56.93,298.0238 56.008,296.7508 56.437,296.5008 C56.637,296.3808 57.046,296.8948 56.906,296.3448 C56.786,295.8348 57.272,296.0688 57.562,295.9388 C57.822,295.8288 58.017,295.5248 57.687,295.3448 L57.468,295.1568 C57.918,294.8868 58.44,294.7188 58.999,294.7188 M61.312,295.8128 C61.496,296.0348 61.635,296.2938 61.75,296.5628 L61.562,296.7818 C61.272,297.0518 61.235,296.5698 61.124,296.4688 C60.994,296.3588 60.486,296.4938 60.436,296.3438 C60.359,296.1628 60.935,295.9258 61.311,295.8128 " fill="#696969" style="stroke: ; stroke-width: 0.0; stroke-dasharray: ;"/><text fill="#696969" font-family="sans-serif" font-size="12" lengthAdjust="spacingAndGlyphs" textLength="59" x="67" y="302.082">sabor.com</text></a><a target="_top" xlink:actuate="onRequest" xlink:href="https://app.lifestylesquest.com" xlink:show="new" xlink:title="https://app.lifestylesquest.com" xlink:type="simple"><rect fill="#87CEFA" filter="url(#fg2j7ov4vpi74)" height="35.0938" rx="12.5" ry="12.5" style="stroke: #6495ED; stroke-width: 1.0;" width="51" x="174" y="269.5625"/><text fill="#696969" font-family="sans-serif" font-size="12" lengthAdjust="spacingAndGlyphs" textLength="31" x="184" y="292.0195">quest</text></a><rect fill="#FFFFF0" filter="url(#fg2j7ov4vpi74)" height="35.0938" rx="12.5" ry="12.5" style="stroke: #6495ED; stroke-width: 1.0;" width="112" x="255.5" y="234.5156"/><text fill="#696969" font-family="sans-serif" font-size="12" lengthAdjust="spacingAndGlyphs" textLength="92" x="265.5" y="256.9727">real estate agent</text><rect fill="#FFFFF0" filter="url(#fg2j7ov4vpi74)" height="35.0938" rx="12.5" ry="12.5" style="stroke: #6495ED; stroke-width: 1.0;" width="117" x="253" y="304.6094"/><text fill="#696969" font-family="sans-serif" font-size="12" lengthAdjust="spacingAndGlyphs" textLength="97" x="263" y="327.0664">access to the mls</text><path d="M499,273.9336 L499,283.1094 L479,287.1094 L499,291.1094 L499,300.2852 A0,0 0 0 0 499,300.2852 L597,300.2852 A0,0 0 0 0 597,300.2852 L597,283.9336 L587,273.9336 L499,273.9336 A0,0 0 0 0 499,273.9336 " fill="#B0C4DE" filter="url(#fg2j7ov4vpi74)" style="stroke: #6495ED; stroke-width: 1.0;"/><path d="M587,273.9336 L587,283.9336 L597,283.9336 L587,273.9336 " fill="#B0C4DE" style="stroke: #6495ED; stroke-width: 1.0;"/><text fill="#FFFFFF" font-family="sans-serif" font-size="13" lengthAdjust="spacingAndGlyphs" textLength="77" x="505" y="292.4287">buyer beware</text><rect fill="#FFFFF0" filter="url(#fg2j7ov4vpi74)" height="35.0938" rx="12.5" ry="12.5" style="stroke: #6495ED; stroke-width: 1.0;" width="81" x="398" y="269.5625"/><text fill="#696969" font-family="sans-serif" font-size="12" lengthAdjust="spacingAndGlyphs" textLength="61" x="408" y="292.0195">wholesaler</text><rect fill="#000000" filter="url(#fg2j7ov4vpi74)" height="6" rx="2.5" ry="2.5" style="stroke: #000000; stroke-width: 1.0;" width="346" x="625" y="182.5156"/><a target="_top" xlink:actuate="onRequest" xlink:href="challenge-program.svg?sanitize=true" xlink:show="new" xlink:title="challenge-program.svg?sanitize=true" xlink:type="simple"><rect fill="#87CEFA" filter="url(#fg2j7ov4vpi74)" height="35.0938" rx="12.5" ry="12.5" style="stroke: #6495ED; stroke-width: 1.0;" width="124" x="639" y="208.5156"/><text fill="#696969" font-family="sans-serif" font-size="12" lengthAdjust="spacingAndGlyphs" textLength="104" x="649" y="230.9727">challenge program</text></a><a target="_top" xlink:actuate="onRequest" xlink:href="../multi-family/preferred-investor-group-program.svg?sanitize=true" xlink:show="new" xlink:title="../multi-family/preferred-investor-group-program.svg?sanitize=true" xlink:type="simple"><rect fill="#87CEFA" filter="url(#fg2j7ov4vpi74)" height="35.0938" rx="12.5" ry="12.5" style="stroke: #6495ED; stroke-width: 1.0;" width="166" x="791" y="208.5156"/><text fill="#696969" font-family="sans-serif" font-size="12" lengthAdjust="spacingAndGlyphs" textLength="146" x="801" y="230.9727">preferred investor program</text></a><rect fill="#000000" filter="url(#fg2j7ov4vpi74)" height="6" rx="2.5" ry="2.5" style="stroke: #000000; stroke-width: 1.0;" width="346" x="625" y="263.6094"/><rect fill="#000000" filter="url(#fg2j7ov4vpi74)" height="6" rx="2.5" ry="2.5" style="stroke: #000000; stroke-width: 1.0;" width="237" x="679.5" y="304.6094"/><rect fill="#FFFFF0" filter="url(#fg2j7ov4vpi74)" height="35.0938" rx="12.5" ry="12.5" style="stroke: #6495ED; stroke-width: 1.0;" width="81" x="693.5" y="330.6094"/><text fill="#696969" font-family="sans-serif" font-size="12" lengthAdjust="spacingAndGlyphs" textLength="61" x="703.5" y="353.0664">email blast</text><a target="_top" xlink:actuate="onRequest" xlink:href="https://www.har.com/lifestyles-realty-dallas-inc/broker_NTREIS-LIRE01" xlink:show="new" xlink:title="https://www.har.com/lifestyles-realty-dallas-inc/broker_NTREIS-LIRE01" xlink:type="simple"><rect fill="#87CEFA" filter="url(#fg2j7ov4vpi74)" height="35.0938" rx="12.5" ry="12.5" style="stroke: #6495ED; stroke-width: 1.0;" width="100" x="802.5" y="330.6094"/><text fill="#696969" font-family="sans-serif" font-size="12" lengthAdjust="spacingAndGlyphs" textLength="80" x="812.5" y="353.0664">lifestyles realty</text></a><rect fill="#000000" filter="url(#fg2j7ov4vpi74)" height="6" rx="2.5" ry="2.5" style="stroke: #000000; stroke-width: 1.0;" width="237" x="679.5" y="385.7031"/><rect fill="#000000" filter="url(#fg2j7ov4vpi74)" height="6" rx="2.5" ry="2.5" style="stroke: #000000; stroke-width: 1.0;" width="965" x="20" y="411.7031"/><rect fill="#FFFFF0" filter="url(#fg2j7ov4vpi74)" height="688.9209" style="stroke: #6495ED; stroke-width: 1.0;" width="378" x="425" y="440.7188"/><path d="M491,441.7188 L491,453.8438 L481,463.8438 L425,463.8438 " fill="none" style="stroke: #6495ED; stroke-width: 1.0;"/><text fill="#6495ED" font-family="sans-serif" font-size="16" lengthAdjust="spacingAndGlyphs" textLength="56" x="428" y="458.3281">Filtering</text><path d="M641.5,503.2461 L641.5,545.9492 L791.5,545.9492 L791.5,513.2461 L781.5,503.2461 L641.5,503.2461 " fill="#B0C4DE" filter="url(#fg2j7ov4vpi74)" style="stroke: #6495ED; stroke-width: 1.0;"/><path d="M781.5,503.2461 L781.5,513.2461 L791.5,513.2461 L781.5,503.2461 " fill="#B0C4DE" style="stroke: #6495ED; stroke-width: 1.0;"/><text fill="#FFFFFF" font-family="sans-serif" font-size="13" lengthAdjust="spacingAndGlyphs" textLength="129" x="647.5" y="521.7412">if you can't buy all of it</text><text fill="#FFFFFF" font-family="sans-serif" font-size="13" lengthAdjust="spacingAndGlyphs" textLength="102" x="647.5" y="538.0928">don't buy any of it</text><polygon fill="#FFFFF0" filter="url(#fg2j7ov4vpi74)" points="452.5,480.8438,552.5,480.8438,564.5,499.6797,552.5,518.5156,452.5,518.5156,440.5,499.6797,452.5,480.8438" style="stroke: #6495ED; stroke-width: 1.0;"/><text fill="#696969" font-family="sans-serif" font-size="11" lengthAdjust="spacingAndGlyphs" textLength="18" x="506.5" y="529.9346">yes</text><text fill="#A9A9A9" font-family="sans-serif" font-size="11" lengthAdjust="spacingAndGlyphs" textLength="100" x="452.5" y="492.2627">correct housing type</text><line style="stroke: #6495ED; stroke-width: 1.0;" x1="440.5" x2="564.5" y1="499.6797" y2="499.6797"/><text fill="#A9A9A9" font-family="sans-serif" font-size="11" lengthAdjust="spacingAndGlyphs" textLength="92" x="452.5" y="516.0986">single family house</text><text fill="#696969" font-family="sans-serif" font-size="11" lengthAdjust="spacingAndGlyphs" textLength="12" x="564.5" y="497.2627">no</text><ellipse cx="598.5" cy="499.6797" fill="#FFFFFF" filter="url(#fg2j7ov4vpi74)" rx="11" ry="11" style="stroke: #FF7F50; stroke-width: 1.0;"/><ellipse cx="598.5" cy="499.6797" fill="#FF7F50" rx="6" ry="6" style="stroke: #FFBFA7; stroke-width: 1.0;"/><path d="M622,596.5273 L622,622.8789 L793,622.8789 L793,606.5273 L783,596.5273 L622,596.5273 " fill="#B0C4DE" filter="url(#fg2j7ov4vpi74)" style="stroke: #6495ED; stroke-width: 1.0;"/><path d="M783,596.5273 L783,606.5273 L793,606.5273 L783,596.5273 " fill="#B0C4DE" style="stroke: #6495ED; stroke-width: 1.0;"/><text fill="#FFFFFF" font-family="sans-serif" font-size="13" lengthAdjust="spacingAndGlyphs" textLength="150" x="628" y="615.0225">something is wrong with it</text><polygon fill="#FFFFF0" filter="url(#fg2j7ov4vpi74)" points="472,565.9492,533,565.9492,545,584.7852,533,603.6211,472,603.6211,460,584.7852,472,565.9492" style="stroke: #6495ED; stroke-width: 1.0;"/><text fill="#696969" font-family="sans-serif" font-size="11" lengthAdjust="spacingAndGlyphs" textLength="18" x="506.5" y="615.04">yes</text><text fill="#A9A9A9" font-family="sans-serif" font-size="11" lengthAdjust="spacingAndGlyphs" textLength="61" x="472" y="577.3682">recent listing</text><line style="stroke: #6495ED; stroke-width: 1.0;" x1="460" x2="545" y1="584.7852" y2="584.7852"/><text fill="#A9A9A9" font-family="sans-serif" font-size="11" lengthAdjust="spacingAndGlyphs" textLength="54" x="475" y="601.2041">&lt;= 60 days</text><text fill="#696969" font-family="sans-serif" font-size="11" lengthAdjust="spacingAndGlyphs" textLength="12" x="545" y="582.3682">no</text><ellipse cx="579" cy="584.7852" fill="#FFFFFF" filter="url(#fg2j7ov4vpi74)" rx="11" ry="11" style="stroke: #FF7F50; stroke-width: 1.0;"/><ellipse cx="579" cy="584.7852" fill="#FF7F50" rx="6" ry="6" style="stroke: #FFBFA7; stroke-width: 1.0;"/><path d="M625.5,680.375 L625.5,706.7266 L768.5,706.7266 L768.5,690.375 L758.5,680.375 L625.5,680.375 " fill="#B0C4DE" filter="url(#fg2j7ov4vpi74)" style="stroke: #6495ED; stroke-width: 1.0;"/><path d="M758.5,680.375 L758.5,690.375 L768.5,690.375 L758.5,680.375 " fill="#B0C4DE" style="stroke: #6495ED; stroke-width: 1.0;"/><text fill="#FFFFFF" font-family="sans-serif" font-size="13" lengthAdjust="spacingAndGlyphs" textLength="122" x="631.5" y="698.8701">costs too much to fix</text><polygon fill="#FFFFF0" filter="url(#fg2j7ov4vpi74)" points="468.5,642.8789,536.5,642.8789,548.5,668.6328,536.5,694.3867,468.5,694.3867,456.5,668.6328,468.5,642.8789" style="stroke: #6495ED; stroke-width: 1.0;"/><text fill="#696969" font-family="sans-serif" font-size="11" lengthAdjust="spacingAndGlyphs" textLength="18" x="506.5" y="705.8057">yes</text><text fill="#A9A9A9" font-family="sans-serif" font-size="11" lengthAdjust="spacingAndGlyphs" textLength="68" x="468.5" y="654.2979">correct rooms</text><line style="stroke: #6495ED; stroke-width: 1.0;" x1="459.7234" x2="545.2766" y1="661.7148" y2="661.7148"/><text fill="#A9A9A9" font-family="sans-serif" font-size="11" lengthAdjust="spacingAndGlyphs" textLength="26" x="468.5" y="678.1338">3-2-2</text><text fill="#A9A9A9" font-family="sans-serif" font-size="11" lengthAdjust="spacingAndGlyphs" textLength="26" x="468.5" y="691.9697">4-2-2</text><text fill="#696969" font-family="sans-serif" font-size="11" lengthAdjust="spacingAndGlyphs" textLength="12" x="548.5" y="666.2158">no</text><ellipse cx="582.5" cy="668.6328" fill="#FFFFFF" filter="url(#fg2j7ov4vpi74)" rx="11" ry="11" style="stroke: #FF7F50; stroke-width: 1.0;"/><ellipse cx="582.5" cy="668.6328" fill="#FF7F50" rx="6" ry="6" style="stroke: #FFBFA7; stroke-width: 1.0;"/><polygon fill="#FFFFF0" filter="url(#fg2j7ov4vpi74)" points="464,727.3057,541,727.3057,553,746.1416,541,764.9775,464,764.9775,452,746.1416,464,727.3057" style="stroke: #6495ED; stroke-width: 1.0;"/><text fill="#696969" font-family="sans-serif" font-size="11" lengthAdjust="spacingAndGlyphs" textLength="86" x="506.5" y="776.3965">yes / lower rehab</text><text fill="#A9A9A9" font-family="sans-serif" font-size="11" lengthAdjust="spacingAndGlyphs" textLength="58" x="464" y="738.7246">correct size</text><line style="stroke: #6495ED; stroke-width: 1.0;" x1="452" x2="553" y1="746.1416" y2="746.1416"/><text fill="#A9A9A9" font-family="sans-serif" font-size="11" lengthAdjust="spacingAndGlyphs" textLength="77" x="464" y="762.5605">1000-2000 sq ft</text><text fill="#696969" font-family="sans-serif" font-size="11" lengthAdjust="spacingAndGlyphs" textLength="12" x="553" y="743.7246">no</text><ellipse cx="587" cy="746.1416" fill="#FFFFFF" filter="url(#fg2j7ov4vpi74)" rx="11" ry="11" style="stroke: #FF7F50; stroke-width: 1.0;"/><ellipse cx="587" cy="746.1416" fill="#FF7F50" rx="6" ry="6" style="stroke: #FFBFA7; stroke-width: 1.0;"/><path d="M629,812.123 L629,871.1777 L713,871.1777 L713,822.123 L703,812.123 L629,812.123 " fill="#B0C4DE" filter="url(#fg2j7ov4vpi74)" style="stroke: #6495ED; stroke-width: 1.0;"/><path d="M703,812.123 L703,822.123 L713,822.123 L703,812.123 " fill="#B0C4DE" style="stroke: #6495ED; stroke-width: 1.0;"/><text fill="#FFFFFF" font-family="sans-serif" font-size="13" lengthAdjust="spacingAndGlyphs" textLength="56" x="635" y="830.6182">lead paint</text><text fill="#FFFFFF" font-family="sans-serif" font-size="13" lengthAdjust="spacingAndGlyphs" textLength="52" x="635" y="846.9697">old pipes</text><text fill="#FFFFFF" font-family="sans-serif" font-size="13" lengthAdjust="spacingAndGlyphs" textLength="63" x="635" y="863.3213">old electric</text><polygon fill="#FFFFF0" filter="url(#fg2j7ov4vpi74)" points="465,797.8965,540,797.8965,552,816.7324,540,835.5684,465,835.5684,453,816.7324,465,797.8965" style="stroke: #6495ED; stroke-width: 1.0;"/><text fill="#696969" font-family="sans-serif" font-size="11" lengthAdjust="spacingAndGlyphs" textLength="18" x="506.5" y="846.9873">yes</text><text fill="#A9A9A9" font-family="sans-serif" font-size="11" lengthAdjust="spacingAndGlyphs" textLength="56" x="465" y="809.3154">correct age</text><line style="stroke: #6495ED; stroke-width: 1.0;" x1="453" x2="552" y1="816.7324" y2="816.7324"/><text fill="#A9A9A9" font-family="sans-serif" font-size="11" lengthAdjust="spacingAndGlyphs" textLength="75" x="465" y="833.1514">1970s - current</text><text fill="#696969" font-family="sans-serif" font-size="11" lengthAdjust="spacingAndGlyphs" textLength="12" x="552" y="814.3154">no</text><ellipse cx="586" cy="816.7324" fill="#FFFFFF" filter="url(#fg2j7ov4vpi74)" rx="11" ry="11" style="stroke: #FF7F50; stroke-width: 1.0;"/><ellipse cx="586" cy="816.7324" fill="#FF7F50" rx="6" ry="6" style="stroke: #FFBFA7; stroke-width: 1.0;"/><path d="M647,928.6738 L647,955.0254 L757,955.0254 L757,938.6738 L747,928.6738 L647,928.6738 " fill="#B0C4DE" filter="url(#fg2j7ov4vpi74)" style="stroke: #6495ED; stroke-width: 1.0;"/><path d="M747,928.6738 L747,938.6738 L757,938.6738 L747,928.6738 " fill="#B0C4DE" style="stroke: #6495ED; stroke-width: 1.0;"/><text fill="#FFFFFF" font-family="sans-serif" font-size="13" lengthAdjust="spacingAndGlyphs" textLength="89" x="653" y="947.1689">high crime area</text><polygon fill="#FFFFF0" filter="url(#fg2j7ov4vpi74)" points="447,891.1777,558,891.1777,570,916.9316,558,942.6855,447,942.6855,435,916.9316,447,891.1777" style="stroke: #6495ED; stroke-width: 1.0;"/><text fill="#696969" font-family="sans-serif" font-size="11" lengthAdjust="spacingAndGlyphs" textLength="18" x="506.5" y="954.1045">yes</text><text fill="#A9A9A9" font-family="sans-serif" font-size="11" lengthAdjust="spacingAndGlyphs" textLength="104" x="447" y="902.5967">correct neighborhood</text><line style="stroke: #6495ED; stroke-width: 1.0;" x1="438.2234" x2="566.7766" y1="910.0137" y2="910.0137"/><text fill="#A9A9A9" font-family="sans-serif" font-size="11" lengthAdjust="spacingAndGlyphs" textLength="46" x="447" y="926.4326">not scary</text><text fill="#A9A9A9" font-family="sans-serif" font-size="11" lengthAdjust="spacingAndGlyphs" textLength="111" x="447" y="940.2686">use google street view</text><text fill="#696969" font-family="sans-serif" font-size="11" lengthAdjust="spacingAndGlyphs" textLength="12" x="570" y="914.5146">no</text><ellipse cx="604" cy="916.9316" fill="#FFFFFF" filter="url(#fg2j7ov4vpi74)" rx="11" ry="11" style="stroke: #FF7F50; stroke-width: 1.0;"/><ellipse cx="604" cy="916.9316" fill="#FF7F50" rx="6" ry="6" style="stroke: #FFBFA7; stroke-width: 1.0;"/><path d="M622.5,998.0068 L622.5,1040.71 L774.5,1040.71 L774.5,1008.0068 L764.5,998.0068 L622.5,998.0068 " fill="#B0C4DE" filter="url(#fg2j7ov4vpi74)" style="stroke: #6495ED; stroke-width: 1.0;"/><path d="M764.5,998.0068 L764.5,1008.0068 L774.5,1008.0068 L764.5,998.0068 " fill="#B0C4DE" style="stroke: #6495ED; stroke-width: 1.0;"/><text fill="#FFFFFF" font-family="sans-serif" font-size="13" lengthAdjust="spacingAndGlyphs" textLength="131" x="628.5" y="1016.502">amount of mortgage vs</text><text fill="#FFFFFF" font-family="sans-serif" font-size="13" lengthAdjust="spacingAndGlyphs" textLength="83" x="628.5" y="1032.8535">amount of rent</text><polygon fill="#FFFFF0" filter="url(#fg2j7ov4vpi74)" points="471.5,975.6045,533.5,975.6045,545.5,994.4404,533.5,1013.2764,471.5,1013.2764,459.5,994.4404,471.5,975.6045" style="stroke: #6495ED; stroke-width: 1.0;"/><text fill="#696969" font-family="sans-serif" font-size="11" lengthAdjust="spacingAndGlyphs" textLength="18" x="506.5" y="1024.6953">yes</text><text fill="#A9A9A9" font-family="sans-serif" font-size="11" lengthAdjust="spacingAndGlyphs" textLength="62" x="471.5" y="987.0234">correct price</text><line style="stroke: #6495ED; stroke-width: 1.0;" x1="459.5" x2="545.5" y1="994.4404" y2="994.4404"/><text fill="#A9A9A9" font-family="sans-serif" font-size="11" lengthAdjust="spacingAndGlyphs" textLength="45" x="471.5" y="1010.8594">$80-180k</text><text fill="#696969" font-family="sans-serif" font-size="11" lengthAdjust="spacingAndGlyphs" textLength="12" x="545.5" y="992.0234">no</text><ellipse cx="579.5" cy="994.4404" fill="#FFFFFF" filter="url(#fg2j7ov4vpi74)" rx="11" ry="11" style="stroke: #FF7F50; stroke-width: 1.0;"/><ellipse cx="579.5" cy="994.4404" fill="#FF7F50" rx="6" ry="6" style="stroke: #FFBFA7; stroke-width: 1.0;"/><path d="M623.5,1091.2881 L623.5,1117.6396 L744.5,1117.6396 L744.5,1101.2881 L734.5,1091.2881 L623.5,1091.2881 " fill="#B0C4DE" filter="url(#fg2j7ov4vpi74)" style="stroke: #6495ED; stroke-width: 1.0;"/><path d="M734.5,1091.2881 L734.5,1101.2881 L744.5,1101.2881 L734.5,1091.2881 " fill="#B0C4DE" style="stroke: #6495ED; stroke-width: 1.0;"/><text fill="#FFFFFF" font-family="sans-serif" font-size="13" lengthAdjust="spacingAndGlyphs" textLength="100" x="629.5" y="1109.7832">don't buy low end</text><polygon fill="#FFFFF0" filter="url(#fg2j7ov4vpi74)" points="470.5,1060.71,534.5,1060.71,546.5,1079.5459,534.5,1098.3818,470.5,1098.3818,458.5,1079.5459,470.5,1060.71" style="stroke: #6495ED; stroke-width: 1.0;"/><text fill="#696969" font-family="sans-serif" font-size="11" lengthAdjust="spacingAndGlyphs" textLength="18" x="506.5" y="1109.8008">yes</text><text fill="#A9A9A9" font-family="sans-serif" font-size="11" lengthAdjust="spacingAndGlyphs" textLength="64" x="470.5" y="1072.1289">correct class</text><line style="stroke: #6495ED; stroke-width: 1.0;" x1="458.5" x2="546.5" y1="1079.5459" y2="1079.5459"/><text fill="#A9A9A9" font-family="sans-serif" font-size="11" lengthAdjust="spacingAndGlyphs" textLength="30" x="470.5" y="1095.9648">middle</text><text fill="#696969" font-family="sans-serif" font-size="11" lengthAdjust="spacingAndGlyphs" textLength="12" x="546.5" y="1077.1289">no</text><ellipse cx="580.5" cy="1079.5459" fill="#FFFFFF" filter="url(#fg2j7ov4vpi74)" rx="11" ry="11" style="stroke: #FF7F50; stroke-width: 1.0;"/><ellipse cx="580.5" cy="1079.5459" fill="#FF7F50" rx="6" ry="6" style="stroke: #FFBFA7; stroke-width: 1.0;"/><rect fill="#FFFFF0" filter="url(#fg2j7ov4vpi74)" height="369.2529" style="stroke: #6495ED; stroke-width: 1.0;" width="405" x="414" y="1140.6553"/><path d="M678,1141.6553 L678,1194.0303 L668,1204.0303 L414,1204.0303 " fill="none" style="stroke: #6495ED; stroke-width: 1.0;"/><text fill="#6495ED" font-family="sans-serif" font-size="16" lengthAdjust="spacingAndGlyphs" textLength="254" x="417" y="1158.2646">Comparative Market Analysis (CMA)</text><text fill="#6495ED" font-family="sans-serif" font-size="16" lengthAdjust="spacingAndGlyphs" textLength="130" x="417" y="1178.3896">Sales Comparison</text><text fill="#6495ED" font-family="sans-serif" font-size="16" font-style="italic" lengthAdjust="spacingAndGlyphs" textLength="178" x="417" y="1198.5146">Find &gt;= 3 Similar Homes</text><polygon fill="#FFFFF0" filter="url(#fg2j7ov4vpi74)" points="459,1221.0303,546,1221.0303,558,1239.8662,546,1258.7021,459,1258.7021,447,1239.8662,459,1221.0303" style="stroke: #6495ED; stroke-width: 1.0;"/><text fill="#696969" font-family="sans-serif" font-size="11" lengthAdjust="spacingAndGlyphs" textLength="18" x="506.5" y="1270.1211">yes</text><text fill="#A9A9A9" font-family="sans-serif" font-size="11" lengthAdjust="spacingAndGlyphs" textLength="41" x="459" y="1232.4492">close by</text><line style="stroke: #6495ED; stroke-width: 1.0;" x1="447" x2="558" y1="1239.8662" y2="1239.8662"/><text fill="#A9A9A9" font-family="sans-serif" font-size="11" lengthAdjust="spacingAndGlyphs" textLength="87" x="459" y="1256.2852">same sub-division</text><text fill="#696969" font-family="sans-serif" font-size="11" lengthAdjust="spacingAndGlyphs" textLength="12" x="558" y="1237.4492">no</text><ellipse cx="592" cy="1239.8662" fill="#FFFFFF" filter="url(#fg2j7ov4vpi74)" rx="11" ry="11" style="stroke: #FF7F50; stroke-width: 1.0;"/><ellipse cx="592" cy="1239.8662" fill="#FF7F50" rx="6" ry="6" style="stroke: #FFBFA7; stroke-width: 1.0;"/><polygon fill="#FFFFF0" filter="url(#fg2j7ov4vpi74)" points="459.5,1291.6211,545.5,1291.6211,557.5,1310.457,545.5,1329.293,459.5,1329.293,447.5,1310.457,459.5,1291.6211" style="stroke: #6495ED; stroke-width: 1.0;"/><text fill="#696969" font-family="sans-serif" font-size="11" lengthAdjust="spacingAndGlyphs" textLength="18" x="506.5" y="1340.7119">yes</text><text fill="#A9A9A9" font-family="sans-serif" font-size="11" lengthAdjust="spacingAndGlyphs" textLength="67" x="459.5" y="1303.04">listed recently</text><line style="stroke: #6495ED; stroke-width: 1.0;" x1="447.5" x2="557.5" y1="1310.457" y2="1310.457"/><text fill="#A9A9A9" font-family="sans-serif" font-size="11" lengthAdjust="spacingAndGlyphs" textLength="86" x="459.5" y="1326.876">within 3-9 months</text><text fill="#696969" font-family="sans-serif" font-size="11" lengthAdjust="spacingAndGlyphs" textLength="12" x="557.5" y="1308.04">no</text><ellipse cx="591.5" cy="1310.457" fill="#FFFFFF" filter="url(#fg2j7ov4vpi74)" rx="11" ry="11" style="stroke: #FF7F50; stroke-width: 1.0;"/><ellipse cx="591.5" cy="1310.457" fill="#FF7F50" rx="6" ry="6" style="stroke: #FFBFA7; stroke-width: 1.0;"/><polygon fill="#FFFFF0" filter="url(#fg2j7ov4vpi74)" points="459.5,1362.2119,545.5,1362.2119,557.5,1381.0479,545.5,1399.8838,459.5,1399.8838,447.5,1381.0479,459.5,1362.2119" style="stroke: #6495ED; stroke-width: 1.0;"/><text fill="#696969" font-family="sans-serif" font-size="11" lengthAdjust="spacingAndGlyphs" textLength="18" x="506.5" y="1411.3027">yes</text><text fill="#A9A9A9" font-family="sans-serif" font-size="11" lengthAdjust="spacingAndGlyphs" textLength="53" x="459.5" y="1373.6309">similar size</text><line style="stroke: #6495ED; stroke-width: 1.0;" x1="447.5" x2="557.5" y1="1381.0479" y2="1381.0479"/><text fill="#A9A9A9" font-family="sans-serif" font-size="11" lengthAdjust="spacingAndGlyphs" textLength="86" x="459.5" y="1397.4668">± 300 square feet</text><text fill="#696969" font-family="sans-serif" font-size="11" lengthAdjust="spacingAndGlyphs" textLength="12" x="557.5" y="1378.6309">no</text><ellipse cx="591.5" cy="1381.0479" fill="#FFFFFF" filter="url(#fg2j7ov4vpi74)" rx="11" ry="11" style="stroke: #FF7F50; stroke-width: 1.0;"/><ellipse cx="591.5" cy="1381.0479" fill="#FF7F50" rx="6" ry="6" style="stroke: #FFBFA7; stroke-width: 1.0;"/><path d="M658,1455.2051 L658,1497.9082 L809,1497.9082 L809,1465.2051 L799,1455.2051 L658,1455.2051 " fill="#B0C4DE" filter="url(#fg2j7ov4vpi74)" style="stroke: #6495ED; stroke-width: 1.0;"/><path d="M799,1455.2051 L799,1465.2051 L809,1465.2051 L799,1455.2051 " fill="#B0C4DE" style="stroke: #6495ED; stroke-width: 1.0;"/><text fill="#FFFFFF" font-family="sans-serif" font-size="13" lengthAdjust="spacingAndGlyphs" textLength="75" x="664" y="1473.7002">price ≠ value</text><text fill="#FFFFFF" font-family="sans-serif" font-size="13" font-style="italic" lengthAdjust="spacingAndGlyphs" textLength="130" x="664" y="1490.0518">"no meat on the bone"</text><polygon fill="#FFFFF0" filter="url(#fg2j7ov4vpi74)" points="436,1432.8027,569,1432.8027,581,1451.6387,569,1470.4746,436,1470.4746,424,1451.6387,436,1432.8027" style="stroke: #6495ED; stroke-width: 1.0;"/><text fill="#696969" font-family="sans-serif" font-size="11" lengthAdjust="spacingAndGlyphs" textLength="18" x="506.5" y="1481.8936">yes</text><text fill="#A9A9A9" font-family="sans-serif" font-size="11" lengthAdjust="spacingAndGlyphs" textLength="53" x="436" y="1444.2217">sale prices</text><line style="stroke: #6495ED; stroke-width: 1.0;" x1="424" x2="581" y1="1451.6387" y2="1451.6387"/><text fill="#A9A9A9" font-family="sans-serif" font-size="11" lengthAdjust="spacingAndGlyphs" textLength="133" x="436" y="1468.0576">&gt;&gt; higher than this property</text><text fill="#696969" font-family="sans-serif" font-size="11" lengthAdjust="spacingAndGlyphs" textLength="12" x="581" y="1449.2217">no</text><ellipse cx="615" cy="1451.6387" fill="#FFFFFF" filter="url(#fg2j7ov4vpi74)" rx="11" ry="11" style="stroke: #FF7F50; stroke-width: 1.0;"/><ellipse cx="615" cy="1451.6387" fill="#FF7F50" rx="6" ry="6" style="stroke: #FFBFA7; stroke-width: 1.0;"/><rect fill="#FFFFF0" filter="url(#fg2j7ov4vpi74)" height="75.375" style="stroke: #6495ED; stroke-width: 1.0;" width="274" x="365.5" y="1520.9238"/><path d="M629.5,1521.9238 L629.5,1574.2988 L619.5,1584.2988 L365.5,1584.2988 " fill="none" style="stroke: #6495ED; stroke-width: 1.0;"/><text fill="#6495ED" font-family="sans-serif" font-size="16" lengthAdjust="spacingAndGlyphs" textLength="254" x="368.5" y="1538.5332">Comparative Market Analysis (CMA)</text><text fill="#6495ED" font-family="sans-serif" font-size="16" lengthAdjust="spacingAndGlyphs" textLength="122" x="368.5" y="1558.6582">Rent Comparison</text><text fill="#6495ED" font-family="sans-serif" font-size="16" font-style="italic" lengthAdjust="spacingAndGlyphs" textLength="178" x="368.5" y="1578.7832">Find &gt;= 1 Similar Homes</text><ellipse cx="502.5" cy="1626.2988" fill="#FFFFFF" filter="url(#fg2j7ov4vpi74)" rx="10" ry="10" style="stroke: #FF7F50; stroke-width: 1.5;"/><line style="stroke: #FF7F50; stroke-width: 2.5;" x1="496.3128" x2="508.6872" y1="1620.1116" y2="1632.486"/><line style="stroke: #FF7F50; stroke-width: 2.5;" x1="508.6872" x2="496.3128" y1="1620.1116" y2="1632.486"/><line style="stroke: #696969; stroke-width: 1.5;" x1="311.5" x2="311.5" y1="269.6094" y2="304.6094"/><polygon fill="#696969" points="307.5,294.6094,311.5,304.6094,315.5,294.6094,311.5,298.6094" style="stroke: #696969; stroke-width: 1.0;"/><line style="stroke: #696969; stroke-width: 1.5;" x1="701" x2="701" y1="188.5156" y2="208.5156"/><polygon fill="#696969" points="697,198.5156,701,208.5156,705,198.5156,701,202.5156" style="stroke: #696969; stroke-width: 1.0;"/><line style="stroke: #696969; stroke-width: 1.5;" x1="874" x2="874" y1="188.5156" y2="208.5156"/><polygon fill="#696969" points="870,198.5156,874,208.5156,878,198.5156,874,202.5156" style="stroke: #696969; stroke-width: 1.0;"/><line style="stroke: #696969; stroke-width: 1.5;" x1="701" x2="701" y1="243.6094" y2="263.6094"/><polygon fill="#696969" points="697,253.6094,701,263.6094,705,253.6094,701,257.6094" style="stroke: #696969; stroke-width: 1.0;"/><line style="stroke: #696969; stroke-width: 1.5;" x1="874" x2="874" y1="243.6094" y2="263.6094"/><polygon fill="#696969" points="870,253.6094,874,263.6094,878,253.6094,874,257.6094" style="stroke: #696969; stroke-width: 1.0;"/><line style="stroke: #696969; stroke-width: 1.5;" x1="734" x2="734" y1="310.6094" y2="330.6094"/><polygon fill="#696969" points="730,320.6094,734,330.6094,738,320.6094,734,324.6094" style="stroke: #696969; stroke-width: 1.0;"/><line style="stroke: #696969; stroke-width: 1.5;" x1="852.5" x2="852.5" y1="310.6094" y2="330.6094"/><polygon fill="#696969" points="848.5,320.6094,852.5,330.6094,856.5,320.6094,852.5,324.6094" style="stroke: #696969; stroke-width: 1.0;"/><line style="stroke: #696969; stroke-width: 1.5;" x1="734" x2="734" y1="365.7031" y2="385.7031"/><polygon fill="#696969" points="730,375.7031,734,385.7031,738,375.7031,734,379.7031" style="stroke: #696969; stroke-width: 1.0;"/><line style="stroke: #696969; stroke-width: 1.5;" x1="852.5" x2="852.5" y1="365.7031" y2="385.7031"/><polygon fill="#696969" points="848.5,375.7031,852.5,385.7031,856.5,375.7031,852.5,379.7031" style="stroke: #696969; stroke-width: 1.0;"/><line style="stroke: #696969; stroke-width: 1.5;" x1="798" x2="798" y1="269.6094" y2="304.6094"/><polygon fill="#696969" points="794,294.6094,798,304.6094,802,294.6094,798,298.6094" style="stroke: #696969; stroke-width: 1.0;"/><line style="stroke: #696969; stroke-width: 1.5;" x1="90" x2="90" y1="162.5156" y2="279.625"/><polygon fill="#696969" points="86,269.625,90,279.625,94,269.625,90,273.625" style="stroke: #696969; stroke-width: 1.0;"/><line style="stroke: #696969; stroke-width: 1.5;" x1="199.5" x2="199.5" y1="162.5156" y2="269.5625"/><polygon fill="#696969" points="195.5,259.5625,199.5,269.5625,203.5,259.5625,199.5,263.5625" style="stroke: #696969; stroke-width: 1.0;"/><line style="stroke: #696969; stroke-width: 1.5;" x1="311.5" x2="311.5" y1="162.5156" y2="234.5156"/><polygon fill="#696969" points="307.5,224.5156,311.5,234.5156,315.5,224.5156,311.5,228.5156" style="stroke: #696969; stroke-width: 1.0;"/><line style="stroke: #696969; stroke-width: 1.5;" x1="438.5" x2="438.5" y1="162.5156" y2="269.5625"/><polygon fill="#696969" points="434.5,259.5625,438.5,269.5625,442.5,259.5625,438.5,263.5625" style="stroke: #696969; stroke-width: 1.0;"/><line style="stroke: #696969; stroke-width: 1.5;" x1="798" x2="798" y1="162.5156" y2="182.5156"/><polygon fill="#696969" points="794,172.5156,798,182.5156,802,172.5156,798,176.5156" style="stroke: #696969; stroke-width: 1.0;"/><line style="stroke: #696969; stroke-width: 1.5;" x1="90" x2="90" y1="314.7188" y2="411.7031"/><polygon fill="#696969" points="86,401.7031,90,411.7031,94,401.7031,90,405.7031" style="stroke: #696969; stroke-width: 1.0;"/><line style="stroke: #696969; stroke-width: 1.5;" x1="199.5" x2="199.5" y1="304.6563" y2="411.7031"/><polygon fill="#696969" points="195.5,401.7031,199.5,411.7031,203.5,401.7031,199.5,405.7031" style="stroke: #696969; stroke-width: 1.0;"/><line style="stroke: #696969; stroke-width: 1.5;" x1="311.5" x2="311.5" y1="339.7031" y2="411.7031"/><polygon fill="#696969" points="307.5,401.7031,311.5,411.7031,315.5,401.7031,311.5,405.7031" style="stroke: #696969; stroke-width: 1.0;"/><line style="stroke: #696969; stroke-width: 1.5;" x1="438.5" x2="438.5" y1="304.6563" y2="411.7031"/><polygon fill="#696969" points="434.5,401.7031,438.5,411.7031,442.5,401.7031,438.5,405.7031" style="stroke: #696969; stroke-width: 1.0;"/><line style="stroke: #696969; stroke-width: 1.5;" x1="798" x2="798" y1="391.7031" y2="411.7031"/><polygon fill="#696969" points="794,401.7031,798,411.7031,802,401.7031,798,405.7031" style="stroke: #696969; stroke-width: 1.0;"/><line style="stroke: #696969; stroke-width: 1.5;" x1="502.5" x2="502.5" y1="105.375" y2="156.5156"/><polygon fill="#696969" points="498.5,146.5156,502.5,156.5156,506.5,146.5156,502.5,150.5156" style="stroke: #696969; stroke-width: 1.0;"/><line style="stroke: #696969; stroke-width: 1.5;" x1="502.5" x2="502.5" y1="518.5156" y2="565.9492"/><polygon fill="#696969" points="498.5,555.9492,502.5,565.9492,506.5,555.9492,502.5,559.9492" style="stroke: #696969; stroke-width: 1.0;"/><line style="stroke: #696969; stroke-width: 1.5;" x1="564.5" x2="587.5" y1="499.6797" y2="499.6797"/><polygon fill="#696969" points="577.5,495.6797,587.5,499.6797,577.5,503.6797,581.5,499.6797" style="stroke: #696969; stroke-width: 1.0;"/><line style="stroke: #696969; stroke-width: 1.5;" x1="502.5" x2="502.5" y1="603.6211" y2="642.8789"/><polygon fill="#696969" points="498.5,632.8789,502.5,642.8789,506.5,632.8789,502.5,636.8789" style="stroke: #696969; stroke-width: 1.0;"/><line style="stroke: #696969; stroke-width: 1.5;" x1="545" x2="568" y1="584.7852" y2="584.7852"/><polygon fill="#696969" points="558,580.7852,568,584.7852,558,588.7852,562,584.7852" style="stroke: #696969; stroke-width: 1.0;"/><line style="stroke: #696969; stroke-width: 1.5;" x1="502.5" x2="502.5" y1="694.3867" y2="727.3057"/><polygon fill="#696969" points="498.5,717.3057,502.5,727.3057,506.5,717.3057,502.5,721.3057" style="stroke: #696969; stroke-width: 1.0;"/><line style="stroke: #696969; stroke-width: 1.5;" x1="548.5" x2="571.5" y1="668.6328" y2="668.6328"/><polygon fill="#696969" points="561.5,664.6328,571.5,668.6328,561.5,672.6328,565.5,668.6328" style="stroke: #696969; stroke-width: 1.0;"/><line style="stroke: #696969; stroke-width: 1.5;" x1="502.5" x2="502.5" y1="764.9775" y2="797.8965"/><polygon fill="#696969" points="498.5,787.8965,502.5,797.8965,506.5,787.8965,502.5,791.8965" style="stroke: #696969; stroke-width: 1.0;"/><line style="stroke: #696969; stroke-width: 1.5;" x1="553" x2="576" y1="746.1416" y2="746.1416"/><polygon fill="#696969" points="566,742.1416,576,746.1416,566,750.1416,570,746.1416" style="stroke: #696969; stroke-width: 1.0;"/><line style="stroke: #696969; stroke-width: 1.5;" x1="502.5" x2="502.5" y1="835.5684" y2="891.1777"/><polygon fill="#696969" points="498.5,881.1777,502.5,891.1777,506.5,881.1777,502.5,885.1777" style="stroke: #696969; stroke-width: 1.0;"/><line style="stroke: #696969; stroke-width: 1.5;" x1="552" x2="575" y1="816.7324" y2="816.7324"/><polygon fill="#696969" points="565,812.7324,575,816.7324,565,820.7324,569,816.7324" style="stroke: #696969; stroke-width: 1.0;"/><line style="stroke: #696969; stroke-width: 1.5;" x1="502.5" x2="502.5" y1="942.6855" y2="975.6045"/><polygon fill="#696969" points="498.5,965.6045,502.5,975.6045,506.5,965.6045,502.5,969.6045" style="stroke: #696969; stroke-width: 1.0;"/><line style="stroke: #696969; stroke-width: 1.5;" x1="570" x2="593" y1="916.9316" y2="916.9316"/><polygon fill="#696969" points="583,912.9316,593,916.9316,583,920.9316,587,916.9316" style="stroke: #696969; stroke-width: 1.0;"/><line style="stroke: #696969; stroke-width: 1.5;" x1="502.5" x2="502.5" y1="1013.2764" y2="1060.71"/><polygon fill="#696969" points="498.5,1050.71,502.5,1060.71,506.5,1050.71,502.5,1054.71" style="stroke: #696969; stroke-width: 1.0;"/><line style="stroke: #696969; stroke-width: 1.5;" x1="545.5" x2="568.5" y1="994.4404" y2="994.4404"/><polygon fill="#696969" points="558.5,990.4404,568.5,994.4404,558.5,998.4404,562.5,994.4404" style="stroke: #696969; stroke-width: 1.0;"/><line style="stroke: #696969; stroke-width: 1.5;" x1="502.5" x2="502.5" y1="1098.3818" y2="1221.0303"/><polygon fill="#696969" points="498.5,1211.0303,502.5,1221.0303,506.5,1211.0303,502.5,1215.0303" style="stroke: #696969; stroke-width: 1.0;"/><line style="stroke: #696969; stroke-width: 1.5;" x1="546.5" x2="569.5" y1="1079.5459" y2="1079.5459"/><polygon fill="#696969" points="559.5,1075.5459,569.5,1079.5459,559.5,1083.5459,563.5,1079.5459" style="stroke: #696969; stroke-width: 1.0;"/><line style="stroke: #696969; stroke-width: 1.5;" x1="502.5" x2="502.5" y1="417.7031" y2="480.8438"/><polygon fill="#696969" points="498.5,470.8438,502.5,480.8438,506.5,470.8438,502.5,474.8438" style="stroke: #696969; stroke-width: 1.0;"/><line style="stroke: #696969; stroke-width: 1.5;" x1="502.5" x2="502.5" y1="1258.7021" y2="1291.6211"/><polygon fill="#696969" points="498.5,1281.6211,502.5,1291.6211,506.5,1281.6211,502.5,1285.6211" style="stroke: #696969; stroke-width: 1.0;"/><line style="stroke: #696969; stroke-width: 1.5;" x1="558" x2="581" y1="1239.8662" y2="1239.8662"/><polygon fill="#696969" points="571,1235.8662,581,1239.8662,571,1243.8662,575,1239.8662" style="stroke: #696969; stroke-width: 1.0;"/><line style="stroke: #696969; stroke-width: 1.5;" x1="502.5" x2="502.5" y1="1329.293" y2="1362.2119"/><polygon fill="#696969" points="498.5,1352.2119,502.5,1362.2119,506.5,1352.2119,502.5,1356.2119" style="stroke: #696969; stroke-width: 1.0;"/><line style="stroke: #696969; stroke-width: 1.5;" x1="557.5" x2="580.5" y1="1310.457" y2="1310.457"/><polygon fill="#696969" points="570.5,1306.457,580.5,1310.457,570.5,1314.457,574.5,1310.457" style="stroke: #696969; stroke-width: 1.0;"/><line style="stroke: #696969; stroke-width: 1.5;" x1="502.5" x2="502.5" y1="1399.8838" y2="1432.8027"/><polygon fill="#696969" points="498.5,1422.8027,502.5,1432.8027,506.5,1422.8027,502.5,1426.8027" style="stroke: #696969; stroke-width: 1.0;"/><line style="stroke: #696969; stroke-width: 1.5;" x1="557.5" x2="580.5" y1="1381.0479" y2="1381.0479"/><polygon fill="#696969" points="570.5,1377.0479,580.5,1381.0479,570.5,1385.0479,574.5,1381.0479" style="stroke: #696969; stroke-width: 1.0;"/><line style="stroke: #696969; stroke-width: 1.5;" x1="502.5" x2="502.5" y1="1470.4746" y2="1616.2988"/><polygon fill="#696969" points="498.5,1606.2988,502.5,1616.2988,506.5,1606.2988,502.5,1610.2988" style="stroke: #696969; stroke-width: 1.0;"/><line style="stroke: #696969; stroke-width: 1.5;" x1="581" x2="604" y1="1451.6387" y2="1451.6387"/><polygon fill="#696969" points="594,1447.6387,604,1451.6387,594,1455.6387,598,1451.6387" style="stroke: #696969; stroke-width: 1.0;"/><text fill="#000080" font-family="sans-serif" font-size="14" lengthAdjust="spacingAndGlyphs" textLength="42" x="10" y="1649.832">©2019</text><a target="_top" xlink:actuate="onRequest" xlink:href="http://www.lifestylesunlimited.com" xlink:show="new" xlink:title="http://www.lifestylesunlimited.com" xlink:type="simple"><text fill="#0000FF" font-family="sans-serif" font-size="14" lengthAdjust="spacingAndGlyphs" text-decoration="underline" textLength="122" x="56" y="1649.832">LifeStyles Unlimited</text><line style="stroke: #0000FF; stroke-width: 1.0;" x1="56" x2="178" y1="1651.832" y2="1651.832"/></a><text fill="#000080" font-family="sans-serif" font-size="14" lengthAdjust="spacingAndGlyphs" textLength="279" x="182" y="1649.832">| Generated Sun Apr 28 21:22:47 CDT 2019</text><!--
@startuml finding


skinparam {
  BorderColor Red
  PathHoverColor Blue
}

skinparam Title {
  FontColor Navy
  BackgroundColor PaleGoldenRod
  BorderColor Navy
  BorderRoundCorner 20
  FontSize 24
}

skinparam activity {
  BackgroundColor Ivory
  BorderColor CornflowerBlue
  BorderThickness 1
  FontColor DimGray
  

  Arrow {
    Color dimgray
    FontColor dimgray
  }

  Start {
    Color PHYSICAL
  }

  End {
    Color Coral
  }

  Diamond {
    BackgroundColor Ivory
    BorderColor CornflowerBlue
    FontColor DarkGray
  }

  BackgroundColor<< Exception >> Red
	BorderColor<< Exception >> White
}

skinparam Swimlane {
  BorderColor CornflowerBlue 
}

skinparam Partition {
  BackgroundColor Ivory
  BorderColor CornflowerBlue
  BorderThickness 1
  FontColor CornflowerBlue
  FontSize 16
  BorderRoundCorner 20
}

skinparam Note {
  BackgroundColor LightSteelBlue
  BorderColor CornflowerBlue
  FontColor White
}

skinparam Legend {
  BackgroundColor LightSteelBlue
  BorderColor CornflowerBlue
  FontColor White
}

skinparam Footer {
  FontColor Navy
}


left header 
	<font color=Navy size=24>[[../index.svg?sanitize=true ⌂ Home]]</font>
endheader


	Title Finding

	start

	partition Finding {
		fork
			partition "find it myself" {
				[[http://realestate.sabor.com]]#LightSkyBlue:<&globe> sabor.com;
			}

		fork again
			[[https://app.lifestylesquest.com]]#LightSkyBlue:quest;

		fork again
			:real estate agent;
			:access to the mls;
		fork again
			:wholesaler;
			note right: buyer beware

		fork again
			fork
				[[challenge-program.svg?sanitize=true]]#LightSkyBlue:challenge program;
			fork again
				[[../multi-family/preferred-investor-group-program.svg?sanitize=true]]#LightSkyBlue:preferred investor program;
			end fork
			fork
				:email blast;
			fork again
				[[https://www.har.com/lifestyles-realty-dallas-inc/broker_NTREIS-LIRE01]]#LightSkyBlue:lifestyles realty;
			end fork
		end fork
	}

	partition Filtering {
		if(correct housing type\n- - - -\nsingle family house) then(no)
			note right
				if you can't buy all of it
				don't buy any of it
			end note
			stop
		else (yes)
		endif

		if(recent listing\n- - - -\n <= 60 days) then(no)
			note right
				something is wrong with it
			end note
			stop
		else (yes)
		endif

		if(correct rooms\n- - - -\n3-2-2\n4-2-2) then(no)
			note right: costs too much to fix
			stop
		else (yes)
		endif

		if(correct size\n- - - -\n1000-2000 sq ft) then(no)
			stop
		else (yes / lower rehab)
		endif
		

		if(correct age\n- - - -\n1970s - current) then(no)
			note right
				lead paint
				old pipes
				old electric
			end note
			stop
		else (yes)
		endif

		if(correct neighborhood\n- - - -\nnot scary\nuse google street view) then(no)
			note right
				high crime area
			end note
			stop
		else (yes)
		endif

		if(correct price\n- - - -\n$80-180k) then(no)
			note right
				amount of mortgage vs
				amount of rent
			end note
			stop
		else (yes)
		endif

		if(correct class\n- - - -\nmiddle) then(no)
			note right
				don't buy low end
			end note
			stop
		else (yes)
		endif

	}

		partition "Comparative Market Analysis (CMA)\nSales Comparison\n<i>Find >= 3 Similar Homes" {

			if(close by\n- - - -\nsame sub-division) then(no)
				stop
			else (yes)
			endif

			if(listed recently\n- - - -\nwithin 3-9 months) then(no)
				stop
			else (yes)
			endif

			if(similar size\n- - - -\n± 300 square feet) then(no)
				stop
			else (yes)
			endif

			if(sale prices\n- - - -\n>> higher than this property) then(no)
				note right
					price ≠ value
					<i>"no meat on the bone"
				end note
				stop
			else (yes)
			endif
		}

		partition "Comparative Market Analysis (CMA)\nRent Comparison\n<i>Find >= 1 Similar Homes" {

		}


	end


left footer 
	<font size=14>©2019 [[http://www.lifestylesunlimited.com LifeStyles Unlimited]] | Generated Sun Apr 28 21:22:47 CDT 2019</font>
endfooter


@enduml

PlantUML version 1.2019.03(Sun Mar 10 06:04:44 CDT 2019)
(GPL source distribution)
Java Runtime: Java(TM) SE Runtime Environment
JVM: Java HotSpot(TM) 64-Bit Server VM
Java Version: 1.8.0_111-b14
Operating System: Windows 10
OS Version: 10.0
Default Encoding: Cp1252
Language: en
Country: US
--></g></svg>