<?xml version="1.0" encoding="UTF-8" standalone="no"?><svg xmlns="http://www.w3.org/2000/svg" xmlns:xlink="http://www.w3.org/1999/xlink" contentScriptType="application/ecmascript" contentStyleType="text/css" height="437px" preserveAspectRatio="none" style="width:362px;height:437px;" version="1.1" viewBox="0 0 362 437" width="362px" zoomAndPan="magnify"><defs><style type="text/css"><![CDATA[path:hover { stroke: #0000FF !important;}]]></style><filter height="300%" id="f1dcci5y1thggl" width="300%" x="-1" y="-1"><feGaussianBlur result="blurOut" stdDeviation="2.0"/><feColorMatrix in="blurOut" result="blurOut2" type="matrix" values="0 0 0 0 0 0 0 0 0 0 0 0 0 0 0 0 0 0 .4 0"/><feOffset dx="4.0" dy="4.0" in="blurOut2" result="blurOut3"/><feBlend in="SourceGraphic" in2="blurOut3" mode="normal"/></filter></defs><g><a target="_top" xlink:actuate="onRequest" xlink:href="../index.svg" xlink:show="new" xlink:title="../index.svg" xlink:type="simple"><text fill="#0000FF" font-family="sans-serif" font-size="10" lengthAdjust="spacingAndGlyphs" text-decoration="underline" textLength="39" x="10" y="20.3809">⌂ Home</text><line style="stroke: #0000FF; stroke-width: 1.0;" x1="10" x2="49" y1="22.3809" y2="22.3809"/></a><rect fill="#EEE8AA" height="32.6406" rx="10" ry="10" style="stroke: #000080; stroke-width: 1.5;" width="79" x="140" y="24.5781"/><text fill="#000080" font-family="sans-serif" font-size="18" lengthAdjust="spacingAndGlyphs" textLength="63" x="148" y="48.2637">Leasing</text><ellipse cx="180.5" cy="70.2188" fill="#000080" filter="url(#f1dcci5y1thggl)" rx="10" ry="10" style="stroke: none; stroke-width: 1.0;"/><rect fill="#FFFFF0" filter="url(#f1dcci5y1thggl)" height="35.0938" rx="12.5" ry="12.5" style="stroke: #6495ED; stroke-width: 1.5;" width="70" x="145.5" y="100.2188"/><text fill="#A9A9A9" font-family="sans-serif" font-size="12" lengthAdjust="spacingAndGlyphs" textLength="50" x="155.5" y="122.6758">advertise</text><polygon fill="#FFFFF0" filter="url(#f1dcci5y1thggl)" points="158,155.3125,203,155.3125,215,167.3125,203,179.3125,158,179.3125,146,167.3125,158,155.3125" style="stroke: #6495ED; stroke-width: 1.5;"/><text fill="#A9A9A9" font-family="sans-serif" font-size="11" lengthAdjust="spacingAndGlyphs" textLength="45" x="158" y="171.8135">is lawyer</text><text fill="#696969" font-family="sans-serif" font-size="11" lengthAdjust="spacingAndGlyphs" textLength="18" x="215" y="164.8955">yes</text><ellipse cx="255" cy="167.3125" fill="#FFFFFF" filter="url(#f1dcci5y1thggl)" rx="11" ry="11" style="stroke: #FF0000; stroke-width: 1.0;"/><ellipse cx="255" cy="167.3125" fill="#FF0000" rx="6" ry="6" style="stroke: #FF7F7F; stroke-width: 1.0;"/><polygon fill="#FFFFF0" filter="url(#f1dcci5y1thggl)" points="139,199.3125,222,199.3125,234,211.3125,222,223.3125,139,223.3125,127,211.3125,139,199.3125" style="stroke: #6495ED; stroke-width: 1.5;"/><text fill="#A9A9A9" font-family="sans-serif" font-size="11" lengthAdjust="spacingAndGlyphs" textLength="83" x="139" y="215.8135">income &gt; 3 x rent</text><text fill="#696969" font-family="sans-serif" font-size="11" lengthAdjust="spacingAndGlyphs" textLength="12" x="234" y="208.8955">no</text><ellipse cx="268" cy="211.3125" fill="#FFFFFF" filter="url(#f1dcci5y1thggl)" rx="11" ry="11" style="stroke: #FF0000; stroke-width: 1.0;"/><ellipse cx="268" cy="211.3125" fill="#FF0000" rx="6" ry="6" style="stroke: #FF7F7F; stroke-width: 1.0;"/><polygon fill="#FFFFF0" filter="url(#f1dcci5y1thggl)" points="145.5,243.3125,215.5,243.3125,227.5,255.3125,215.5,267.3125,145.5,267.3125,133.5,255.3125,145.5,243.3125" style="stroke: #6495ED; stroke-width: 1.5;"/><text fill="#A9A9A9" font-family="sans-serif" font-size="11" lengthAdjust="spacingAndGlyphs" textLength="70" x="145.5" y="259.8135">is middle class</text><text fill="#696969" font-family="sans-serif" font-size="11" lengthAdjust="spacingAndGlyphs" textLength="12" x="227.5" y="252.8955">no</text><ellipse cx="261.5" cy="255.3125" fill="#FFFFFF" filter="url(#f1dcci5y1thggl)" rx="11" ry="11" style="stroke: #FF0000; stroke-width: 1.0;"/><ellipse cx="261.5" cy="255.3125" fill="#FF0000" rx="6" ry="6" style="stroke: #FF7F7F; stroke-width: 1.0;"/><rect fill="#000000" filter="url(#f1dcci5y1thggl)" height="6" rx="2.5" ry="2.5" style="stroke: #000000; stroke-width: 1.0;" width="233" x="64" y="287.3125"/><rect fill="#FFFFF0" filter="url(#f1dcci5y1thggl)" height="35.0938" rx="12.5" ry="12.5" style="stroke: #6495ED; stroke-width: 1.5;" width="78" x="78" y="313.3125"/><text fill="#A9A9A9" font-family="sans-serif" font-size="12" lengthAdjust="spacingAndGlyphs" textLength="58" x="88" y="335.7695">sign lease</text><rect fill="#FFFFF0" filter="url(#f1dcci5y1thggl)" height="35.0938" rx="12.5" ry="12.5" style="stroke: #6495ED; stroke-width: 1.5;" width="99" x="184" y="313.3125"/><text fill="#A9A9A9" font-family="sans-serif" font-size="12" lengthAdjust="spacingAndGlyphs" textLength="79" x="194" y="335.7695">collect deposit</text><rect fill="#000000" filter="url(#f1dcci5y1thggl)" height="6" rx="2.5" ry="2.5" style="stroke: #000000; stroke-width: 1.0;" width="233" x="64" y="368.4063"/><ellipse cx="180.5" cy="404.4063" fill="#FFFFFF" filter="url(#f1dcci5y1thggl)" rx="10" ry="10" style="stroke: #FF0000; stroke-width: 1.5;"/><line style="stroke: #FF0000; stroke-width: 2.5;" x1="174.3128" x2="186.6872" y1="398.2191" y2="410.5934"/><line style="stroke: #FF0000; stroke-width: 2.5;" x1="186.6872" x2="174.3128" y1="398.2191" y2="410.5934"/><line style="stroke: #696969; stroke-width: 1.5;" x1="180.5" x2="180.5" y1="80.2188" y2="100.2188"/><polygon fill="#696969" points="176.5,90.2188,180.5,100.2188,184.5,90.2188,180.5,94.2188" style="stroke: #696969; stroke-width: 1.0;"/><line style="stroke: #696969; stroke-width: 1.5;" x1="180.5" x2="180.5" y1="179.3125" y2="199.3125"/><polygon fill="#696969" points="176.5,189.3125,180.5,199.3125,184.5,189.3125,180.5,193.3125" style="stroke: #696969; stroke-width: 1.0;"/><line style="stroke: #696969; stroke-width: 1.5;" x1="215" x2="244" y1="167.3125" y2="167.3125"/><polygon fill="#696969" points="234,163.3125,244,167.3125,234,171.3125,238,167.3125" style="stroke: #696969; stroke-width: 1.0;"/><line style="stroke: #696969; stroke-width: 1.5;" x1="180.5" x2="180.5" y1="135.3125" y2="155.3125"/><polygon fill="#696969" points="176.5,145.3125,180.5,155.3125,184.5,145.3125,180.5,149.3125" style="stroke: #696969; stroke-width: 1.0;"/><line style="stroke: #696969; stroke-width: 1.5;" x1="180.5" x2="180.5" y1="223.3125" y2="243.3125"/><polygon fill="#696969" points="176.5,233.3125,180.5,243.3125,184.5,233.3125,180.5,237.3125" style="stroke: #696969; stroke-width: 1.0;"/><line style="stroke: #696969; stroke-width: 1.5;" x1="234" x2="257" y1="211.3125" y2="211.3125"/><polygon fill="#696969" points="247,207.3125,257,211.3125,247,215.3125,251,211.3125" style="stroke: #696969; stroke-width: 1.0;"/><line style="stroke: #696969; stroke-width: 1.5;" x1="180.5" x2="180.5" y1="267.3125" y2="287.3125"/><polygon fill="#696969" points="176.5,277.3125,180.5,287.3125,184.5,277.3125,180.5,281.3125" style="stroke: #696969; stroke-width: 1.0;"/><line style="stroke: #696969; stroke-width: 1.5;" x1="227.5" x2="250.5" y1="255.3125" y2="255.3125"/><polygon fill="#696969" points="240.5,251.3125,250.5,255.3125,240.5,259.3125,244.5,255.3125" style="stroke: #696969; stroke-width: 1.0;"/><line style="stroke: #696969; stroke-width: 1.5;" x1="117" x2="117" y1="293.3125" y2="313.3125"/><polygon fill="#696969" points="113,303.3125,117,313.3125,121,303.3125,117,307.3125" style="stroke: #696969; stroke-width: 1.0;"/><line style="stroke: #696969; stroke-width: 1.5;" x1="233.5" x2="233.5" y1="293.3125" y2="313.3125"/><polygon fill="#696969" points="229.5,303.3125,233.5,313.3125,237.5,303.3125,233.5,307.3125" style="stroke: #696969; stroke-width: 1.0;"/><line style="stroke: #696969; stroke-width: 1.5;" x1="117" x2="117" y1="348.4063" y2="368.4063"/><polygon fill="#696969" points="113,358.4063,117,368.4063,121,358.4063,117,362.4063" style="stroke: #696969; stroke-width: 1.0;"/><line style="stroke: #696969; stroke-width: 1.5;" x1="233.5" x2="233.5" y1="348.4063" y2="368.4063"/><polygon fill="#696969" points="229.5,358.4063,233.5,368.4063,237.5,358.4063,233.5,362.4063" style="stroke: #696969; stroke-width: 1.0;"/><line style="stroke: #696969; stroke-width: 1.5;" x1="180.5" x2="180.5" y1="374.4063" y2="394.4063"/><polygon fill="#696969" points="176.5,384.4063,180.5,394.4063,184.5,384.4063,180.5,388.4063" style="stroke: #696969; stroke-width: 1.0;"/><text fill="#000080" font-family="sans-serif" font-size="10" lengthAdjust="spacingAndGlyphs" textLength="31" x="10" y="423.7871">©2019</text><a target="_top" xlink:actuate="onRequest" xlink:href="http://www.lifestylesunlimited.com" xlink:show="new" xlink:title="http://www.lifestylesunlimited.com" xlink:type="simple"><text fill="#0000FF" font-family="sans-serif" font-size="10" lengthAdjust="spacingAndGlyphs" text-decoration="underline" textLength="95" x="44" y="423.7871">LifeStyles Unlimited</text><line style="stroke: #0000FF; stroke-width: 1.0;" x1="44" x2="139" y1="425.7871" y2="425.7871"/></a><text fill="#000080" font-family="sans-serif" font-size="10" lengthAdjust="spacingAndGlyphs" textLength="208" x="142" y="423.7871">| Generated Sun Apr 14 12:09:44 CDT 2019</text><!--
@startuml leasing


skinparam {
  BorderColor Red
  PathHoverColor Blue
}

skinparam Title {
  FontColor Navy
  BackgroundColor PaleGoldenRod
  BorderColor Navy
  BorderRoundCorner 20
}

skinparam activity {
  BackgroundColor Ivory
  BorderColor CornflowerBlue
  FontColor DarkGray

  Arrow {
    Color dimgray
    FontColor dimgray
  }

  Start {
    Color Navy
  }

  End {
    Color Red
  }

  Diamond {
    BackgroundColor Ivory
    BorderColor CornflowerBlue
    FontColor DarkGray
  }

  BackgroundColor<< Exception >> Red
	BorderColor<< Exception >> White
}

skinparam Swimlane {
  BorderColor CornflowerBlue 
}

skinparam Partition {
  BackgroundColor DarkSeaGreen
  BorderColor CornflowerBlue
  BorderThickness 1
  FontColor White
  FontSize 16
}
skinparam Note {
  BackgroundColor LightSteelBlue
  BorderColor CornflowerBlue
  FontColor White
}

skinparam Footer {
  FontColor Navy
}


left header 
	<font color=Navy>[[../index.svg ⌂ Home]]</font>
endheader


	Title Leasing

	start

  :advertise;
	if(is lawyer) then(yes)
    stop
  endif
	if(income > 3 x rent) then(no)
    stop
  endif
	if(is middle class) then(no)
    stop
  endif

  fork
  :sign lease;
  fork again
  :collect deposit;
  end fork

  end

left footer 
	©2019 [[http://www.lifestylesunlimited.com LifeStyles Unlimited]] | Generated Sun Apr 14 12:09:44 CDT 2019
endfooter


@enduml

PlantUML version 1.2019.03(Sun Mar 10 06:04:44 CDT 2019)
(GPL source distribution)
Java Runtime: Java(TM) SE Runtime Environment
JVM: Java HotSpot(TM) 64-Bit Server VM
Java Version: 1.8.0_111-b14
Operating System: Windows 10
OS Version: 10.0
Default Encoding: Cp1252
Language: en
Country: US
--></g></svg>