<?xml version="1.0" encoding="UTF-8" standalone="no"?><svg xmlns="http://www.w3.org/2000/svg" xmlns:xlink="http://www.w3.org/1999/xlink" contentScriptType="application/ecmascript" contentStyleType="text/css" height="525px" preserveAspectRatio="none" style="width:364px;height:525px;" version="1.1" viewBox="0 0 364 525" width="364px" zoomAndPan="magnify"><defs><style type="text/css"><![CDATA[path:hover { stroke: #0000FF !important;}]]></style><filter height="300%" id="f1t06o7eo0tpqw" width="300%" x="-1" y="-1"><feGaussianBlur result="blurOut" stdDeviation="2.0"/><feColorMatrix in="blurOut" result="blurOut2" type="matrix" values="0 0 0 0 0 0 0 0 0 0 0 0 0 0 0 0 0 0 .4 0"/><feOffset dx="4.0" dy="4.0" in="blurOut2" result="blurOut3"/><feBlend in="SourceGraphic" in2="blurOut3" mode="normal"/></filter></defs><g><a target="_top" xlink:actuate="onRequest" xlink:href="../index.svg" xlink:show="new" xlink:title="../index.svg" xlink:type="simple"><text fill="#0000FF" font-family="sans-serif" font-size="10" lengthAdjust="spacingAndGlyphs" text-decoration="underline" textLength="39" x="10" y="20.3809">⌂ Home</text><line style="stroke: #0000FF; stroke-width: 1.0;" x1="10" x2="49" y1="22.3809" y2="22.3809"/></a><rect fill="#EEE8AA" height="32.6406" rx="10" ry="10" style="stroke: #000080; stroke-width: 1.5;" width="79" x="141" y="24.5781"/><text fill="#000080" font-family="sans-serif" font-size="18" lengthAdjust="spacingAndGlyphs" textLength="63" x="149" y="48.2637">Leasing</text><ellipse cx="181.5" cy="70.2188" fill="#000080" filter="url(#f1t06o7eo0tpqw)" rx="10" ry="10" style="stroke: none; stroke-width: 1.0;"/><rect fill="#FFFFF0" filter="url(#f1t06o7eo0tpqw)" height="35.0938" rx="12.5" ry="12.5" style="stroke: #6495ED; stroke-width: 1.5;" width="70" x="146.5" y="100.2188"/><text fill="#A9A9A9" font-family="sans-serif" font-size="12" lengthAdjust="spacingAndGlyphs" textLength="50" x="156.5" y="122.6758">advertise</text><polygon fill="#FFFFF0" filter="url(#f1t06o7eo0tpqw)" points="159,155.3125,204,155.3125,216,167.3125,204,179.3125,159,179.3125,147,167.3125,159,155.3125" style="stroke: #6495ED; stroke-width: 1.5;"/><text fill="#A9A9A9" font-family="sans-serif" font-size="11" lengthAdjust="spacingAndGlyphs" textLength="45" x="159" y="171.8135">is lawyer</text><text fill="#696969" font-family="sans-serif" font-size="11" lengthAdjust="spacingAndGlyphs" textLength="18" x="216" y="164.8955">yes</text><ellipse cx="256" cy="167.3125" fill="#FFFFFF" filter="url(#f1t06o7eo0tpqw)" rx="11" ry="11" style="stroke: #FF0000; stroke-width: 1.0;"/><ellipse cx="256" cy="167.3125" fill="#FF0000" rx="6" ry="6" style="stroke: #FF7F7F; stroke-width: 1.0;"/><polygon fill="#FFFFF0" filter="url(#f1t06o7eo0tpqw)" points="140,199.3125,223,199.3125,235,211.3125,223,223.3125,140,223.3125,128,211.3125,140,199.3125" style="stroke: #6495ED; stroke-width: 1.5;"/><text fill="#A9A9A9" font-family="sans-serif" font-size="11" lengthAdjust="spacingAndGlyphs" textLength="83" x="140" y="215.8135">income &gt; 3 x rent</text><text fill="#696969" font-family="sans-serif" font-size="11" lengthAdjust="spacingAndGlyphs" textLength="12" x="235" y="208.8955">no</text><ellipse cx="269" cy="211.3125" fill="#FFFFFF" filter="url(#f1t06o7eo0tpqw)" rx="11" ry="11" style="stroke: #FF0000; stroke-width: 1.0;"/><ellipse cx="269" cy="211.3125" fill="#FF0000" rx="6" ry="6" style="stroke: #FF7F7F; stroke-width: 1.0;"/><polygon fill="#FFFFF0" filter="url(#f1t06o7eo0tpqw)" points="134,243.3125,229,243.3125,241,255.3125,229,267.3125,134,267.3125,122,255.3125,134,243.3125" style="stroke: #6495ED; stroke-width: 1.5;"/><text fill="#A9A9A9" font-family="sans-serif" font-size="11" lengthAdjust="spacingAndGlyphs" textLength="95" x="134" y="259.8135">years employed &lt; 2</text><text fill="#696969" font-family="sans-serif" font-size="11" lengthAdjust="spacingAndGlyphs" textLength="12" x="241" y="252.8955">no</text><ellipse cx="275" cy="255.3125" fill="#FFFFFF" filter="url(#f1t06o7eo0tpqw)" rx="11" ry="11" style="stroke: #FF0000; stroke-width: 1.0;"/><ellipse cx="275" cy="255.3125" fill="#FF0000" rx="6" ry="6" style="stroke: #FF7F7F; stroke-width: 1.0;"/><polygon fill="#FFFFF0" filter="url(#f1t06o7eo0tpqw)" points="137.5,287.3125,225.5,287.3125,237.5,299.3125,225.5,311.3125,137.5,311.3125,125.5,299.3125,137.5,287.3125" style="stroke: #6495ED; stroke-width: 1.5;"/><text fill="#A9A9A9" font-family="sans-serif" font-size="11" lengthAdjust="spacingAndGlyphs" textLength="88" x="137.5" y="303.8135">credit score &lt; 650</text><text fill="#696969" font-family="sans-serif" font-size="11" lengthAdjust="spacingAndGlyphs" textLength="12" x="237.5" y="296.8955">no</text><ellipse cx="271.5" cy="299.3125" fill="#FFFFFF" filter="url(#f1t06o7eo0tpqw)" rx="11" ry="11" style="stroke: #FF0000; stroke-width: 1.0;"/><ellipse cx="271.5" cy="299.3125" fill="#FF0000" rx="6" ry="6" style="stroke: #FF7F7F; stroke-width: 1.0;"/><polygon fill="#FFFFF0" filter="url(#f1t06o7eo0tpqw)" points="146.5,331.3125,216.5,331.3125,228.5,343.3125,216.5,355.3125,146.5,355.3125,134.5,343.3125,146.5,331.3125" style="stroke: #6495ED; stroke-width: 1.5;"/><text fill="#A9A9A9" font-family="sans-serif" font-size="11" lengthAdjust="spacingAndGlyphs" textLength="70" x="146.5" y="347.8135">is middle class</text><text fill="#696969" font-family="sans-serif" font-size="11" lengthAdjust="spacingAndGlyphs" textLength="12" x="228.5" y="340.8955">no</text><ellipse cx="262.5" cy="343.3125" fill="#FFFFFF" filter="url(#f1t06o7eo0tpqw)" rx="11" ry="11" style="stroke: #FF0000; stroke-width: 1.0;"/><ellipse cx="262.5" cy="343.3125" fill="#FF0000" rx="6" ry="6" style="stroke: #FF7F7F; stroke-width: 1.0;"/><rect fill="#000000" filter="url(#f1t06o7eo0tpqw)" height="6" rx="2.5" ry="2.5" style="stroke: #000000; stroke-width: 1.0;" width="233" x="65" y="375.3125"/><rect fill="#FFFFF0" filter="url(#f1t06o7eo0tpqw)" height="35.0938" rx="12.5" ry="12.5" style="stroke: #6495ED; stroke-width: 1.5;" width="78" x="79" y="401.3125"/><text fill="#A9A9A9" font-family="sans-serif" font-size="12" lengthAdjust="spacingAndGlyphs" textLength="58" x="89" y="423.7695">sign lease</text><rect fill="#FFFFF0" filter="url(#f1t06o7eo0tpqw)" height="35.0938" rx="12.5" ry="12.5" style="stroke: #6495ED; stroke-width: 1.5;" width="99" x="185" y="401.3125"/><text fill="#A9A9A9" font-family="sans-serif" font-size="12" lengthAdjust="spacingAndGlyphs" textLength="79" x="195" y="423.7695">collect deposit</text><rect fill="#000000" filter="url(#f1t06o7eo0tpqw)" height="6" rx="2.5" ry="2.5" style="stroke: #000000; stroke-width: 1.0;" width="233" x="65" y="456.4063"/><ellipse cx="181.5" cy="492.4063" fill="#FFFFFF" filter="url(#f1t06o7eo0tpqw)" rx="10" ry="10" style="stroke: #FF0000; stroke-width: 1.5;"/><line style="stroke: #FF0000; stroke-width: 2.5;" x1="175.3128" x2="187.6872" y1="486.2191" y2="498.5934"/><line style="stroke: #FF0000; stroke-width: 2.5;" x1="187.6872" x2="175.3128" y1="486.2191" y2="498.5934"/><line style="stroke: #696969; stroke-width: 1.5;" x1="181.5" x2="181.5" y1="80.2188" y2="100.2188"/><polygon fill="#696969" points="177.5,90.2188,181.5,100.2188,185.5,90.2188,181.5,94.2188" style="stroke: #696969; stroke-width: 1.0;"/><line style="stroke: #696969; stroke-width: 1.5;" x1="181.5" x2="181.5" y1="179.3125" y2="199.3125"/><polygon fill="#696969" points="177.5,189.3125,181.5,199.3125,185.5,189.3125,181.5,193.3125" style="stroke: #696969; stroke-width: 1.0;"/><line style="stroke: #696969; stroke-width: 1.5;" x1="216" x2="245" y1="167.3125" y2="167.3125"/><polygon fill="#696969" points="235,163.3125,245,167.3125,235,171.3125,239,167.3125" style="stroke: #696969; stroke-width: 1.0;"/><line style="stroke: #696969; stroke-width: 1.5;" x1="181.5" x2="181.5" y1="135.3125" y2="155.3125"/><polygon fill="#696969" points="177.5,145.3125,181.5,155.3125,185.5,145.3125,181.5,149.3125" style="stroke: #696969; stroke-width: 1.0;"/><line style="stroke: #696969; stroke-width: 1.5;" x1="181.5" x2="181.5" y1="223.3125" y2="243.3125"/><polygon fill="#696969" points="177.5,233.3125,181.5,243.3125,185.5,233.3125,181.5,237.3125" style="stroke: #696969; stroke-width: 1.0;"/><line style="stroke: #696969; stroke-width: 1.5;" x1="235" x2="258" y1="211.3125" y2="211.3125"/><polygon fill="#696969" points="248,207.3125,258,211.3125,248,215.3125,252,211.3125" style="stroke: #696969; stroke-width: 1.0;"/><line style="stroke: #696969; stroke-width: 1.5;" x1="181.5" x2="181.5" y1="267.3125" y2="287.3125"/><polygon fill="#696969" points="177.5,277.3125,181.5,287.3125,185.5,277.3125,181.5,281.3125" style="stroke: #696969; stroke-width: 1.0;"/><line style="stroke: #696969; stroke-width: 1.5;" x1="241" x2="264" y1="255.3125" y2="255.3125"/><polygon fill="#696969" points="254,251.3125,264,255.3125,254,259.3125,258,255.3125" style="stroke: #696969; stroke-width: 1.0;"/><line style="stroke: #696969; stroke-width: 1.5;" x1="181.5" x2="181.5" y1="311.3125" y2="331.3125"/><polygon fill="#696969" points="177.5,321.3125,181.5,331.3125,185.5,321.3125,181.5,325.3125" style="stroke: #696969; stroke-width: 1.0;"/><line style="stroke: #696969; stroke-width: 1.5;" x1="237.5" x2="260.5" y1="299.3125" y2="299.3125"/><polygon fill="#696969" points="250.5,295.3125,260.5,299.3125,250.5,303.3125,254.5,299.3125" style="stroke: #696969; stroke-width: 1.0;"/><line style="stroke: #696969; stroke-width: 1.5;" x1="181.5" x2="181.5" y1="355.3125" y2="375.3125"/><polygon fill="#696969" points="177.5,365.3125,181.5,375.3125,185.5,365.3125,181.5,369.3125" style="stroke: #696969; stroke-width: 1.0;"/><line style="stroke: #696969; stroke-width: 1.5;" x1="228.5" x2="251.5" y1="343.3125" y2="343.3125"/><polygon fill="#696969" points="241.5,339.3125,251.5,343.3125,241.5,347.3125,245.5,343.3125" style="stroke: #696969; stroke-width: 1.0;"/><line style="stroke: #696969; stroke-width: 1.5;" x1="118" x2="118" y1="381.3125" y2="401.3125"/><polygon fill="#696969" points="114,391.3125,118,401.3125,122,391.3125,118,395.3125" style="stroke: #696969; stroke-width: 1.0;"/><line style="stroke: #696969; stroke-width: 1.5;" x1="234.5" x2="234.5" y1="381.3125" y2="401.3125"/><polygon fill="#696969" points="230.5,391.3125,234.5,401.3125,238.5,391.3125,234.5,395.3125" style="stroke: #696969; stroke-width: 1.0;"/><line style="stroke: #696969; stroke-width: 1.5;" x1="118" x2="118" y1="436.4063" y2="456.4063"/><polygon fill="#696969" points="114,446.4063,118,456.4063,122,446.4063,118,450.4063" style="stroke: #696969; stroke-width: 1.0;"/><line style="stroke: #696969; stroke-width: 1.5;" x1="234.5" x2="234.5" y1="436.4063" y2="456.4063"/><polygon fill="#696969" points="230.5,446.4063,234.5,456.4063,238.5,446.4063,234.5,450.4063" style="stroke: #696969; stroke-width: 1.0;"/><line style="stroke: #696969; stroke-width: 1.5;" x1="181.5" x2="181.5" y1="462.4063" y2="482.4063"/><polygon fill="#696969" points="177.5,472.4063,181.5,482.4063,185.5,472.4063,181.5,476.4063" style="stroke: #696969; stroke-width: 1.0;"/><text fill="#000080" font-family="sans-serif" font-size="10" lengthAdjust="spacingAndGlyphs" textLength="31" x="10" y="511.7871">©2019</text><a target="_top" xlink:actuate="onRequest" xlink:href="http://www.lifestylesunlimited.com" xlink:show="new" xlink:title="http://www.lifestylesunlimited.com" xlink:type="simple"><text fill="#0000FF" font-family="sans-serif" font-size="10" lengthAdjust="spacingAndGlyphs" text-decoration="underline" textLength="95" x="44" y="511.7871">LifeStyles Unlimited</text><line style="stroke: #0000FF; stroke-width: 1.0;" x1="44" x2="139" y1="513.7871" y2="513.7871"/></a><text fill="#000080" font-family="sans-serif" font-size="10" lengthAdjust="spacingAndGlyphs" textLength="210" x="142" y="511.7871">| Generated Mon Apr 15 12:34:10 CDT 2019</text><!--
@startuml leasing


skinparam {
  BorderColor Red
  PathHoverColor Blue
}

skinparam Title {
  FontColor Navy
  BackgroundColor PaleGoldenRod
  BorderColor Navy
  BorderRoundCorner 20
}

skinparam activity {
  BackgroundColor Ivory
  BorderColor CornflowerBlue
  FontColor DarkGray

  Arrow {
    Color dimgray
    FontColor dimgray
  }

  Start {
    Color Navy
  }

  End {
    Color Red
  }

  Diamond {
    BackgroundColor Ivory
    BorderColor CornflowerBlue
    FontColor DarkGray
  }

  BackgroundColor<< Exception >> Red
	BorderColor<< Exception >> White
}

skinparam Swimlane {
  BorderColor CornflowerBlue 
}

skinparam Partition {
  BackgroundColor DarkSeaGreen
  BorderColor CornflowerBlue
  BorderThickness 1
  FontColor White
  FontSize 16
}
skinparam Note {
  BackgroundColor LightSteelBlue
  BorderColor CornflowerBlue
  FontColor White
}

skinparam Footer {
  FontColor Navy
}


left header 
	<font color=Navy>[[../index.svg ⌂ Home]]</font>
endheader


	Title Leasing

	start

  :advertise;
	if(is lawyer) then(yes)
    stop
  endif
	if(income > 3 x rent) then(no)
    stop
  endif
	if(years employed < 2) then(no)
    stop
  endif
	if(credit score < 650) then(no)
    stop
  endif
	if(is middle class) then(no)
    stop
  endif

  fork
  :sign lease;
  fork again
  :collect deposit;
  end fork

  end

left footer 
	©2019 [[http://www.lifestylesunlimited.com LifeStyles Unlimited]] | Generated Mon Apr 15 12:34:10 CDT 2019
endfooter


@enduml

PlantUML version 1.2019.03(Sun Mar 10 06:04:44 CDT 2019)
(GPL source distribution)
Java Runtime: Java(TM) SE Runtime Environment
JVM: Java HotSpot(TM) 64-Bit Server VM
Java Version: 1.8.0_201-b09
Operating System: Windows 10
OS Version: 10.0
Default Encoding: Cp1252
Language: en
Country: US
--></g></svg>