<?xml version="1.0" encoding="UTF-8" standalone="no"?><svg xmlns="http://www.w3.org/2000/svg" xmlns:xlink="http://www.w3.org/1999/xlink" contentScriptType="application/ecmascript" contentStyleType="text/css" height="678px" preserveAspectRatio="none" style="width:460px;height:678px;" version="1.1" viewBox="0 0 460 678" width="460px" zoomAndPan="magnify"><defs><style type="text/css"><![CDATA[path:hover { stroke: #0000FF !important;}]]></style><filter height="300%" id="fwgy08nu5jj7w" width="300%" x="-1" y="-1"><feGaussianBlur result="blurOut" stdDeviation="2.0"/><feColorMatrix in="blurOut" result="blurOut2" type="matrix" values="0 0 0 0 0 0 0 0 0 0 0 0 0 0 0 0 0 0 .4 0"/><feOffset dx="4.0" dy="4.0" in="blurOut2" result="blurOut3"/><feBlend in="SourceGraphic" in2="blurOut3" mode="normal"/></filter></defs><g><a target="_top" xlink:actuate="onRequest" xlink:href="../index.svg" xlink:show="new" xlink:title="../index.svg" xlink:type="simple"><text fill="#0000FF" font-family="sans-serif" font-size="10" lengthAdjust="spacingAndGlyphs" text-decoration="underline" textLength="39" x="10" y="20.3809">⌂ Home</text><line style="stroke: #0000FF; stroke-width: 1.0;" x1="10" x2="49" y1="22.3809" y2="22.3809"/></a><rect fill="#EEE8AA" height="32.6406" rx="10" ry="10" style="stroke: #000080; stroke-width: 1.5;" width="149" x="154" y="24.5781"/><text fill="#000080" font-family="sans-serif" font-size="18" lengthAdjust="spacingAndGlyphs" textLength="133" x="162" y="48.2637">Pre-Qualification</text><ellipse cx="229.5" cy="70.2188" fill="#000080" filter="url(#fwgy08nu5jj7w)" rx="10" ry="10" style="stroke: none; stroke-width: 1.0;"/><rect fill="#000000" filter="url(#fwgy08nu5jj7w)" height="6" rx="2.5" ry="2.5" style="stroke: #000000; stroke-width: 1.0;" width="439" x="10" y="100.2188"/><rect fill="#8FBC8F" filter="url(#fwgy08nu5jj7w)" height="472.1377" style="stroke: #6495ED; stroke-width: 1.0;" width="411" x="24" y="117.2344"/><path d="M124,118.2344 L124,130.3594 L114,140.3594 L24,140.3594 " fill="none" style="stroke: #6495ED; stroke-width: 1.0;"/><text fill="#FFFFFF" font-family="sans-serif" font-size="16" lengthAdjust="spacingAndGlyphs" textLength="90" x="27" y="134.8438">Conventional</text><polygon fill="#FFFFF0" filter="url(#fwgy08nu5jj7w)" points="177.5,157.3594,281.5,157.3594,293.5,169.3594,281.5,181.3594,177.5,181.3594,165.5,169.3594,177.5,157.3594" style="stroke: #6495ED; stroke-width: 1.5;"/><text fill="#A9A9A9" font-family="sans-serif" font-size="11" lengthAdjust="spacingAndGlyphs" textLength="104" x="177.5" y="173.8604">debt : income &lt;= 50%</text><text fill="#696969" font-family="sans-serif" font-size="11" lengthAdjust="spacingAndGlyphs" textLength="12" x="293.5" y="166.9424">no</text><ellipse cx="327.5" cy="169.3594" fill="#FFFFFF" filter="url(#fwgy08nu5jj7w)" rx="11" ry="11" style="stroke: #FF0000; stroke-width: 1.0;"/><ellipse cx="327.5" cy="169.3594" fill="#FF0000" rx="6" ry="6" style="stroke: #FF7F7F; stroke-width: 1.0;"/><polygon fill="#FFFFF0" filter="url(#fwgy08nu5jj7w)" points="72.5,201.3594,140.5,201.3594,152.5,213.3594,140.5,225.3594,72.5,225.3594,60.5,213.3594,72.5,201.3594" style="stroke: #6495ED; stroke-width: 1.5;"/><text fill="#696969" font-family="sans-serif" font-size="11" lengthAdjust="spacingAndGlyphs" textLength="18" x="110.5" y="236.7783">yes</text><text fill="#A9A9A9" font-family="sans-serif" font-size="11" lengthAdjust="spacingAndGlyphs" textLength="68" x="72.5" y="217.8604">self-employed</text><polygon fill="#FFFFF0" filter="url(#fwgy08nu5jj7w)" points="46,258.2783,167,258.2783,179,270.2783,167,282.2783,46,282.2783,34,270.2783,46,258.2783" style="stroke: #6495ED; stroke-width: 1.5;"/><text fill="#A9A9A9" font-family="sans-serif" font-size="11" lengthAdjust="spacingAndGlyphs" textLength="121" x="46" y="274.7793">2 years profit tax returns</text><text fill="#696969" font-family="sans-serif" font-size="11" lengthAdjust="spacingAndGlyphs" textLength="12" x="179" y="267.8613">no</text><ellipse cx="213" cy="270.2783" fill="#FFFFFF" filter="url(#fwgy08nu5jj7w)" rx="11" ry="11" style="stroke: #FF0000; stroke-width: 1.0;"/><ellipse cx="213" cy="270.2783" fill="#FF0000" rx="6" ry="6" style="stroke: #FF7F7F; stroke-width: 1.0;"/><polygon fill="#FFFFF0" filter="url(#fwgy08nu5jj7w)" points="268,201.3594,363,201.3594,375,213.3594,363,225.3594,268,225.3594,256,213.3594,268,201.3594" style="stroke: #6495ED; stroke-width: 1.5;"/><text fill="#696969" font-family="sans-serif" font-size="11" lengthAdjust="spacingAndGlyphs" textLength="12" x="319.5" y="236.7783">no</text><text fill="#A9A9A9" font-family="sans-serif" font-size="11" lengthAdjust="spacingAndGlyphs" textLength="95" x="268" y="217.8604">years employed &gt; 2</text><ellipse cx="315.5" cy="269.2783" fill="#FFFFFF" filter="url(#fwgy08nu5jj7w)" rx="11" ry="11" style="stroke: #FF0000; stroke-width: 1.0;"/><ellipse cx="315.5" cy="269.2783" fill="#FF0000" rx="6" ry="6" style="stroke: #FF7F7F; stroke-width: 1.0;"/><polygon fill="#FFFFF0" filter="url(#fwgy08nu5jj7w)" points="185.5,322.2783,273.5,322.2783,285.5,334.2783,273.5,346.2783,185.5,346.2783,173.5,334.2783,185.5,322.2783" style="stroke: #6495ED; stroke-width: 1.5;"/><text fill="#A9A9A9" font-family="sans-serif" font-size="11" lengthAdjust="spacingAndGlyphs" textLength="88" x="185.5" y="338.7793">credit score &gt; 650</text><text fill="#696969" font-family="sans-serif" font-size="11" lengthAdjust="spacingAndGlyphs" textLength="12" x="285.5" y="331.8613">no</text><ellipse cx="319.5" cy="334.2783" fill="#FFFFFF" filter="url(#fwgy08nu5jj7w)" rx="11" ry="11" style="stroke: #FF0000; stroke-width: 1.0;"/><ellipse cx="319.5" cy="334.2783" fill="#FF0000" rx="6" ry="6" style="stroke: #FF7F7F; stroke-width: 1.0;"/><polygon fill="#FFFFF0" filter="url(#fwgy08nu5jj7w)" points="178,366.2783,281,366.2783,293,378.2783,281,390.2783,178,390.2783,166,378.2783,178,366.2783" style="stroke: #6495ED; stroke-width: 1.5;"/><text fill="#A9A9A9" font-family="sans-serif" font-size="11" lengthAdjust="spacingAndGlyphs" textLength="103" x="178" y="382.7793">bankruptcy &lt; 4 years</text><text fill="#696969" font-family="sans-serif" font-size="11" lengthAdjust="spacingAndGlyphs" textLength="18" x="293" y="375.8613">yes</text><ellipse cx="333" cy="378.2783" fill="#FFFFFF" filter="url(#fwgy08nu5jj7w)" rx="11" ry="11" style="stroke: #FF0000; stroke-width: 1.0;"/><ellipse cx="333" cy="378.2783" fill="#FF0000" rx="6" ry="6" style="stroke: #FF7F7F; stroke-width: 1.0;"/><polygon fill="#FFFFF0" filter="url(#fwgy08nu5jj7w)" points="177,410.2783,282,410.2783,294,422.2783,282,434.2783,177,434.2783,165,422.2783,177,410.2783" style="stroke: #6495ED; stroke-width: 1.5;"/><text fill="#A9A9A9" font-family="sans-serif" font-size="11" lengthAdjust="spacingAndGlyphs" textLength="105" x="177" y="426.7793">foreclosure &lt; 7 years</text><text fill="#696969" font-family="sans-serif" font-size="11" lengthAdjust="spacingAndGlyphs" textLength="18" x="294" y="419.8613">yes</text><ellipse cx="334" cy="422.2783" fill="#FFFFFF" filter="url(#fwgy08nu5jj7w)" rx="11" ry="11" style="stroke: #FF0000; stroke-width: 1.0;"/><ellipse cx="334" cy="422.2783" fill="#FF0000" rx="6" ry="6" style="stroke: #FF7F7F; stroke-width: 1.0;"/><polygon fill="#FFFFF0" filter="url(#fwgy08nu5jj7w)" points="148.5,454.2783,310.5,454.2783,322.5,466.2783,310.5,478.2783,148.5,478.2783,136.5,466.2783,148.5,454.2783" style="stroke: #6495ED; stroke-width: 1.5;"/><text fill="#A9A9A9" font-family="sans-serif" font-size="11" lengthAdjust="spacingAndGlyphs" textLength="162" x="148.5" y="470.7793">short sale / deed-in-lieu &lt; 4 years</text><text fill="#696969" font-family="sans-serif" font-size="11" lengthAdjust="spacingAndGlyphs" textLength="18" x="322.5" y="463.8613">yes</text><ellipse cx="362.5" cy="466.2783" fill="#FFFFFF" filter="url(#fwgy08nu5jj7w)" rx="11" ry="11" style="stroke: #FF0000; stroke-width: 1.0;"/><ellipse cx="362.5" cy="466.2783" fill="#FF0000" rx="6" ry="6" style="stroke: #FF7F7F; stroke-width: 1.0;"/><polygon fill="#FFFFF0" filter="url(#fwgy08nu5jj7w)" points="144,498.2783,315,498.2783,327,510.2783,315,522.2783,144,522.2783,132,510.2783,144,498.2783" style="stroke: #6495ED; stroke-width: 1.5;"/><text fill="#A9A9A9" font-family="sans-serif" font-size="11" lengthAdjust="spacingAndGlyphs" textLength="171" x="144" y="514.7793">late mortgage payment &lt; 12 months</text><text fill="#696969" font-family="sans-serif" font-size="11" lengthAdjust="spacingAndGlyphs" textLength="18" x="327" y="507.8613">yes</text><ellipse cx="367" cy="510.2783" fill="#FFFFFF" filter="url(#fwgy08nu5jj7w)" rx="11" ry="11" style="stroke: #FF0000; stroke-width: 1.0;"/><ellipse cx="367" cy="510.2783" fill="#FF0000" rx="6" ry="6" style="stroke: #FF7F7F; stroke-width: 1.0;"/><polygon fill="#FFFFF0" filter="url(#fwgy08nu5jj7w)" points="178.5,542.2783,290.5,542.2783,280.5,577.3721,168.5,577.3721" style="stroke: #6495ED; stroke-width: 1.5;"/><text fill="#A9A9A9" font-family="sans-serif" font-size="12" lengthAdjust="spacingAndGlyphs" textLength="102" x="178.5" y="564.7354">Qualification Letter</text><rect fill="#000000" filter="url(#fwgy08nu5jj7w)" height="6" rx="2.5" ry="2.5" style="stroke: #000000; stroke-width: 1.0;" width="439" x="10" y="609.3721"/><ellipse cx="229.5" cy="645.3721" fill="#FFFFFF" filter="url(#fwgy08nu5jj7w)" rx="10" ry="10" style="stroke: #FF0000; stroke-width: 1.5;"/><line style="stroke: #FF0000; stroke-width: 2.5;" x1="223.3128" x2="235.6872" y1="639.1849" y2="651.5593"/><line style="stroke: #FF0000; stroke-width: 2.5;" x1="235.6872" x2="223.3128" y1="639.1849" y2="651.5593"/><line style="stroke: #696969; stroke-width: 1.5;" x1="229.5" x2="229.5" y1="181.3594" y2="186.3594"/><line style="stroke: #696969; stroke-width: 1.5;" x1="293.5" x2="316.5" y1="169.3594" y2="169.3594"/><polygon fill="#696969" points="306.5,165.3594,316.5,169.3594,306.5,173.3594,310.5,169.3594" style="stroke: #696969; stroke-width: 1.0;"/><line style="stroke: #696969; stroke-width: 1.5;" x1="106.5" x2="106.5" y1="282.2783" y2="302.2783"/><polygon fill="#696969" points="102.5,292.2783,106.5,302.2783,110.5,292.2783,106.5,296.2783" style="stroke: #696969; stroke-width: 1.0;"/><line style="stroke: #696969; stroke-width: 1.5;" x1="179" x2="202" y1="270.2783" y2="270.2783"/><polygon fill="#696969" points="192,266.2783,202,270.2783,192,274.2783,196,270.2783" style="stroke: #696969; stroke-width: 1.0;"/><line style="stroke: #696969; stroke-width: 1.5;" x1="106.5" x2="106.5" y1="225.3594" y2="258.2783"/><polygon fill="#696969" points="102.5,248.2783,106.5,258.2783,110.5,248.2783,106.5,252.2783" style="stroke: #696969; stroke-width: 1.0;"/><line style="stroke: #696969; stroke-width: 1.5;" x1="315.5" x2="315.5" y1="225.3594" y2="258.2783"/><polygon fill="#696969" points="311.5,248.2783,315.5,258.2783,319.5,248.2783,315.5,252.2783" style="stroke: #696969; stroke-width: 1.0;"/><line style="stroke: #696969; stroke-width: 1.5;" x1="152.5" x2="256" y1="213.3594" y2="213.3594"/><polygon fill="#696969" points="246,209.3594,256,213.3594,246,217.3594,250,213.3594" style="stroke: #696969; stroke-width: 1.0;"/><line style="stroke: #696969; stroke-width: 1.5;" x1="229.5" x2="106.5" y1="186.3594" y2="186.3594"/><line style="stroke: #696969; stroke-width: 1.5;" x1="106.5" x2="106.5" y1="186.3594" y2="201.3594"/><polygon fill="#696969" points="102.5,191.3594,106.5,201.3594,110.5,191.3594,106.5,195.3594" style="stroke: #696969; stroke-width: 1.0;"/><line style="stroke: #696969; stroke-width: 1.5;" x1="375" x2="410" y1="213.3594" y2="213.3594"/><line style="stroke: #696969; stroke-width: 1.5;" x1="410" x2="410" y1="213.3594" y2="302.2783"/><polygon fill="#696969" points="406,292.2783,410,302.2783,414,292.2783,410,296.2783" style="stroke: #696969; stroke-width: 1.0;"/><line style="stroke: #696969; stroke-width: 1.5;" x1="106.5" x2="410" y1="302.2783" y2="302.2783"/><line style="stroke: #696969; stroke-width: 1.5;" x1="229.5" x2="229.5" y1="346.2783" y2="366.2783"/><polygon fill="#696969" points="225.5,356.2783,229.5,366.2783,233.5,356.2783,229.5,360.2783" style="stroke: #696969; stroke-width: 1.0;"/><line style="stroke: #696969; stroke-width: 1.5;" x1="285.5" x2="308.5" y1="334.2783" y2="334.2783"/><polygon fill="#696969" points="298.5,330.2783,308.5,334.2783,298.5,338.2783,302.5,334.2783" style="stroke: #696969; stroke-width: 1.0;"/><line style="stroke: #696969; stroke-width: 1.5;" x1="229.5" x2="229.5" y1="302.2783" y2="322.2783"/><polygon fill="#696969" points="225.5,312.2783,229.5,322.2783,233.5,312.2783,229.5,316.2783" style="stroke: #696969; stroke-width: 1.0;"/><line style="stroke: #696969; stroke-width: 1.5;" x1="229.5" x2="229.5" y1="390.2783" y2="410.2783"/><polygon fill="#696969" points="225.5,400.2783,229.5,410.2783,233.5,400.2783,229.5,404.2783" style="stroke: #696969; stroke-width: 1.0;"/><line style="stroke: #696969; stroke-width: 1.5;" x1="293" x2="322" y1="378.2783" y2="378.2783"/><polygon fill="#696969" points="312,374.2783,322,378.2783,312,382.2783,316,378.2783" style="stroke: #696969; stroke-width: 1.0;"/><line style="stroke: #696969; stroke-width: 1.5;" x1="229.5" x2="229.5" y1="434.2783" y2="454.2783"/><polygon fill="#696969" points="225.5,444.2783,229.5,454.2783,233.5,444.2783,229.5,448.2783" style="stroke: #696969; stroke-width: 1.0;"/><line style="stroke: #696969; stroke-width: 1.5;" x1="294" x2="323" y1="422.2783" y2="422.2783"/><polygon fill="#696969" points="313,418.2783,323,422.2783,313,426.2783,317,422.2783" style="stroke: #696969; stroke-width: 1.0;"/><line style="stroke: #696969; stroke-width: 1.5;" x1="229.5" x2="229.5" y1="478.2783" y2="498.2783"/><polygon fill="#696969" points="225.5,488.2783,229.5,498.2783,233.5,488.2783,229.5,492.2783" style="stroke: #696969; stroke-width: 1.0;"/><line style="stroke: #696969; stroke-width: 1.5;" x1="322.5" x2="351.5" y1="466.2783" y2="466.2783"/><polygon fill="#696969" points="341.5,462.2783,351.5,466.2783,341.5,470.2783,345.5,466.2783" style="stroke: #696969; stroke-width: 1.0;"/><line style="stroke: #696969; stroke-width: 1.5;" x1="229.5" x2="229.5" y1="522.2783" y2="542.2783"/><polygon fill="#696969" points="225.5,532.2783,229.5,542.2783,233.5,532.2783,229.5,536.2783" style="stroke: #696969; stroke-width: 1.0;"/><line style="stroke: #696969; stroke-width: 1.5;" x1="327" x2="356" y1="510.2783" y2="510.2783"/><polygon fill="#696969" points="346,506.2783,356,510.2783,346,514.2783,350,510.2783" style="stroke: #696969; stroke-width: 1.0;"/><line style="stroke: #696969; stroke-width: 1.5;" x1="229.5" x2="229.5" y1="106.2188" y2="157.3594"/><polygon fill="#696969" points="225.5,147.3594,229.5,157.3594,233.5,147.3594,229.5,151.3594" style="stroke: #696969; stroke-width: 1.0;"/><line style="stroke: #696969; stroke-width: 1.5;" x1="229.5" x2="229.5" y1="577.3721" y2="609.3721"/><polygon fill="#696969" points="225.5,599.3721,229.5,609.3721,233.5,599.3721,229.5,603.3721" style="stroke: #696969; stroke-width: 1.0;"/><line style="stroke: #696969; stroke-width: 1.5;" x1="229.5" x2="229.5" y1="80.2188" y2="100.2188"/><polygon fill="#696969" points="225.5,90.2188,229.5,100.2188,233.5,90.2188,229.5,94.2188" style="stroke: #696969; stroke-width: 1.0;"/><line style="stroke: #696969; stroke-width: 1.5;" x1="229.5" x2="229.5" y1="615.3721" y2="635.3721"/><polygon fill="#696969" points="225.5,625.3721,229.5,635.3721,233.5,625.3721,229.5,629.3721" style="stroke: #696969; stroke-width: 1.0;"/><text fill="#000080" font-family="sans-serif" font-size="10" lengthAdjust="spacingAndGlyphs" textLength="31" x="10" y="664.7529">©2019</text><a target="_top" xlink:actuate="onRequest" xlink:href="http://www.lifestylesunlimited.com" xlink:show="new" xlink:title="http://www.lifestylesunlimited.com" xlink:type="simple"><text fill="#0000FF" font-family="sans-serif" font-size="10" lengthAdjust="spacingAndGlyphs" text-decoration="underline" textLength="95" x="44" y="664.7529">LifeStyles Unlimited</text><line style="stroke: #0000FF; stroke-width: 1.0;" x1="44" x2="139" y1="666.7529" y2="666.7529"/></a><text fill="#000080" font-family="sans-serif" font-size="10" lengthAdjust="spacingAndGlyphs" textLength="210" x="142" y="664.7529">| Generated Mon Apr 15 12:34:12 CDT 2019</text><!--
@startuml pre-qualification


skinparam {
  BorderColor Red
  PathHoverColor Blue
}

skinparam Title {
  FontColor Navy
  BackgroundColor PaleGoldenRod
  BorderColor Navy
  BorderRoundCorner 20
}

skinparam activity {
  BackgroundColor Ivory
  BorderColor CornflowerBlue
  FontColor DarkGray

  Arrow {
    Color dimgray
    FontColor dimgray
  }

  Start {
    Color Navy
  }

  End {
    Color Red
  }

  Diamond {
    BackgroundColor Ivory
    BorderColor CornflowerBlue
    FontColor DarkGray
  }

  BackgroundColor<< Exception >> Red
	BorderColor<< Exception >> White
}

skinparam Swimlane {
  BorderColor CornflowerBlue 
}

skinparam Partition {
  BackgroundColor DarkSeaGreen
  BorderColor CornflowerBlue
  BorderThickness 1
  FontColor White
  FontSize 16
}
skinparam Note {
  BackgroundColor LightSteelBlue
  BorderColor CornflowerBlue
  FontColor White
}

skinparam Footer {
  FontColor Navy
}


left header 
	<font color=Navy>[[../index.svg ⌂ Home]]</font>
endheader


	Title Pre-Qualification

	start

  fork

  partition Conventional {

    if(debt : income <= 50%) then(no)
      stop
    endif
    
    if(self-employed) then (yes)
      if(2 years profit tax returns) then(no)
        stop
      endif
    elseif(years employed > 2) then(no)
      stop
    endif
    
    if(credit score > 650) then(no)
      stop
    endif
    if(bankruptcy < 4 years) then(yes)
      stop
    endif
    if(foreclosure < 7 years) then(yes)
      stop
    endif
    if(short sale / deed-in-lieu < 4 years) then(yes)
      stop
    endif
    if(late mortgage payment < 12 months) then(yes)
      stop
    endif

    :Qualification Letter/

  }

  end fork

  end

left footer 
	©2019 [[http://www.lifestylesunlimited.com LifeStyles Unlimited]] | Generated Mon Apr 15 12:34:12 CDT 2019
endfooter


@enduml

PlantUML version 1.2019.03(Sun Mar 10 06:04:44 CDT 2019)
(GPL source distribution)
Java Runtime: Java(TM) SE Runtime Environment
JVM: Java HotSpot(TM) 64-Bit Server VM
Java Version: 1.8.0_201-b09
Operating System: Windows 10
OS Version: 10.0
Default Encoding: Cp1252
Language: en
Country: US
--></g></svg>