<?xml version="1.0" encoding="UTF-8" standalone="no"?><svg xmlns="http://www.w3.org/2000/svg" xmlns:xlink="http://www.w3.org/1999/xlink" contentScriptType="application/ecmascript" contentStyleType="text/css" height="871px" preserveAspectRatio="none" style="width:1730px;height:871px;" version="1.1" viewBox="0 0 1730 871" width="1730px" zoomAndPan="magnify"><defs><style type="text/css"><![CDATA[path:hover { stroke: #0000FF !important;}]]></style><filter height="300%" id="fcywvo65g7ez3" width="300%" x="-1" y="-1"><feGaussianBlur result="blurOut" stdDeviation="2.0"/><feColorMatrix in="blurOut" result="blurOut2" type="matrix" values="0 0 0 0 0 0 0 0 0 0 0 0 0 0 0 0 0 0 .4 0"/><feOffset dx="4.0" dy="4.0" in="blurOut2" result="blurOut3"/><feBlend in="SourceGraphic" in2="blurOut3" mode="normal"/></filter></defs><g><a target="_top" xlink:actuate="onRequest" xlink:href="../index.svg" xlink:show="new" xlink:title="../index.svg" xlink:type="simple"><text fill="#0000FF" font-family="sans-serif" font-size="10" lengthAdjust="spacingAndGlyphs" text-decoration="underline" textLength="39" x="10" y="20.3809">⌂ Home</text><line style="stroke: #0000FF; stroke-width: 1.0;" x1="10" x2="49" y1="22.3809" y2="22.3809"/></a><rect fill="#EEE8AA" height="32.6406" rx="10" ry="10" style="stroke: #000080; stroke-width: 1.5;" width="149" x="789" y="24.5781"/><text fill="#000080" font-family="sans-serif" font-size="18" lengthAdjust="spacingAndGlyphs" textLength="133" x="797" y="48.2637">Pre-Qualification</text><ellipse cx="864.5" cy="70.2188" fill="#CCFFCC" filter="url(#fcywvo65g7ez3)" rx="10" ry="10" style="stroke: none; stroke-width: 1.0;"/><rect fill="#000000" filter="url(#fcywvo65g7ez3)" height="6" rx="2.5" ry="2.5" style="stroke: #000000; stroke-width: 1.0;" width="1709" x="10" y="100.2188"/><rect fill="#FFFFF0" filter="url(#fcywvo65g7ez3)" height="555.4658" style="stroke: #6495ED; stroke-width: 1.0;" width="411" x="24" y="117.2344"/><path d="M124,118.2344 L124,130.3594 L114,140.3594 L24,140.3594 " fill="none" style="stroke: #6495ED; stroke-width: 1.0;"/><text fill="#6495ED" font-family="sans-serif" font-size="16" lengthAdjust="spacingAndGlyphs" textLength="90" x="27" y="134.8438">Conventional</text><polygon fill="#FFFFF0" filter="url(#fcywvo65g7ez3)" points="174.5,157.3594,284.5,157.3594,296.5,169.3594,284.5,181.3594,174.5,181.3594,162.5,169.3594,174.5,157.3594" style="stroke: #6495ED; stroke-width: 1.5;"/><text fill="#A9A9A9" font-family="sans-serif" font-size="11" lengthAdjust="spacingAndGlyphs" textLength="104" x="180.5" y="173.8604">debt / income &lt;= 50%</text><text fill="#696969" font-family="sans-serif" font-size="11" lengthAdjust="spacingAndGlyphs" textLength="12" x="296.5" y="166.9424">no</text><ellipse cx="330.5" cy="169.3594" fill="#FFFFFF" filter="url(#fcywvo65g7ez3)" rx="11" ry="11" style="stroke: #FF7F50; stroke-width: 1.0;"/><ellipse cx="330.5" cy="169.3594" fill="#FF7F50" rx="6" ry="6" style="stroke: #FFBFA7; stroke-width: 1.0;"/><polygon fill="#FFFFF0" filter="url(#fcywvo65g7ez3)" points="72.5,201.3594,140.5,201.3594,152.5,213.3594,140.5,225.3594,72.5,225.3594,60.5,213.3594,72.5,201.3594" style="stroke: #6495ED; stroke-width: 1.5;"/><text fill="#696969" font-family="sans-serif" font-size="11" lengthAdjust="spacingAndGlyphs" textLength="18" x="110.5" y="236.7783">yes</text><text fill="#A9A9A9" font-family="sans-serif" font-size="11" lengthAdjust="spacingAndGlyphs" textLength="68" x="72.5" y="217.8604">self-employed</text><polygon fill="#FFFFF0" filter="url(#fcywvo65g7ez3)" points="46,258.2783,167,258.2783,179,270.2783,167,282.2783,46,282.2783,34,270.2783,46,258.2783" style="stroke: #6495ED; stroke-width: 1.5;"/><text fill="#A9A9A9" font-family="sans-serif" font-size="11" lengthAdjust="spacingAndGlyphs" textLength="121" x="46" y="274.7793">2 years profit tax returns</text><text fill="#696969" font-family="sans-serif" font-size="11" lengthAdjust="spacingAndGlyphs" textLength="12" x="179" y="267.8613">no</text><ellipse cx="213" cy="270.2783" fill="#FFFFFF" filter="url(#fcywvo65g7ez3)" rx="11" ry="11" style="stroke: #FF7F50; stroke-width: 1.0;"/><ellipse cx="213" cy="270.2783" fill="#FF7F50" rx="6" ry="6" style="stroke: #FFBFA7; stroke-width: 1.0;"/><polygon fill="#FFFFF0" filter="url(#fcywvo65g7ez3)" points="268,201.3594,363,201.3594,375,213.3594,363,225.3594,268,225.3594,256,213.3594,268,201.3594" style="stroke: #6495ED; stroke-width: 1.5;"/><text fill="#696969" font-family="sans-serif" font-size="11" lengthAdjust="spacingAndGlyphs" textLength="12" x="319.5" y="236.7783">no</text><text fill="#A9A9A9" font-family="sans-serif" font-size="11" lengthAdjust="spacingAndGlyphs" textLength="95" x="268" y="217.8604">years employed &gt; 2</text><ellipse cx="315.5" cy="269.2783" fill="#FFFFFF" filter="url(#fcywvo65g7ez3)" rx="11" ry="11" style="stroke: #FF7F50; stroke-width: 1.0;"/><ellipse cx="315.5" cy="269.2783" fill="#FF7F50" rx="6" ry="6" style="stroke: #FFBFA7; stroke-width: 1.0;"/><polygon fill="#FFFFF0" filter="url(#fcywvo65g7ez3)" points="185.5,356.9775,273.5,356.9775,285.5,368.9775,273.5,380.9775,185.5,380.9775,173.5,368.9775,185.5,356.9775" style="stroke: #6495ED; stroke-width: 1.5;"/><text fill="#A9A9A9" font-family="sans-serif" font-size="11" lengthAdjust="spacingAndGlyphs" textLength="88" x="185.5" y="373.4785">credit score &gt; 650</text><text fill="#696969" font-family="sans-serif" font-size="11" lengthAdjust="spacingAndGlyphs" textLength="12" x="285.5" y="366.5605">no</text><ellipse cx="319.5" cy="368.9775" fill="#FFFFFF" filter="url(#fcywvo65g7ez3)" rx="11" ry="11" style="stroke: #FF7F50; stroke-width: 1.0;"/><ellipse cx="319.5" cy="368.9775" fill="#FF7F50" rx="6" ry="6" style="stroke: #FFBFA7; stroke-width: 1.0;"/><polygon fill="#FFFFF0" filter="url(#fcywvo65g7ez3)" points="178,463.9775,281,463.9775,293,475.9775,281,487.9775,178,487.9775,166,475.9775,178,463.9775" style="stroke: #6495ED; stroke-width: 1.5;"/><text fill="#A9A9A9" font-family="sans-serif" font-size="11" lengthAdjust="spacingAndGlyphs" textLength="103" x="178" y="480.4785">bankruptcy &lt; 4 years</text><text fill="#696969" font-family="sans-serif" font-size="11" lengthAdjust="spacingAndGlyphs" textLength="18" x="293" y="473.5605">yes</text><ellipse cx="333" cy="475.9775" fill="#FFFFFF" filter="url(#fcywvo65g7ez3)" rx="11" ry="11" style="stroke: #FF7F50; stroke-width: 1.0;"/><ellipse cx="333" cy="475.9775" fill="#FF7F50" rx="6" ry="6" style="stroke: #FFBFA7; stroke-width: 1.0;"/><polygon fill="#FFFFF0" filter="url(#fcywvo65g7ez3)" points="177,548.7002,282,548.7002,294,560.7002,282,572.7002,177,572.7002,165,560.7002,177,548.7002" style="stroke: #6495ED; stroke-width: 1.5;"/><text fill="#A9A9A9" font-family="sans-serif" font-size="11" lengthAdjust="spacingAndGlyphs" textLength="105" x="177" y="565.2012">foreclosure &lt; 7 years</text><text fill="#696969" font-family="sans-serif" font-size="11" lengthAdjust="spacingAndGlyphs" textLength="18" x="294" y="558.2832">yes</text><ellipse cx="334" cy="560.7002" fill="#FFFFFF" filter="url(#fcywvo65g7ez3)" rx="11" ry="11" style="stroke: #FF7F50; stroke-width: 1.0;"/><ellipse cx="334" cy="560.7002" fill="#FF7F50" rx="6" ry="6" style="stroke: #FFBFA7; stroke-width: 1.0;"/><polygon fill="#FFFFF0" filter="url(#fcywvo65g7ez3)" points="148.5,592.7002,310.5,592.7002,322.5,604.7002,310.5,616.7002,148.5,616.7002,136.5,604.7002,148.5,592.7002" style="stroke: #6495ED; stroke-width: 1.5;"/><text fill="#A9A9A9" font-family="sans-serif" font-size="11" lengthAdjust="spacingAndGlyphs" textLength="162" x="148.5" y="609.2012">short sale / deed-in-lieu &lt; 4 years</text><text fill="#696969" font-family="sans-serif" font-size="11" lengthAdjust="spacingAndGlyphs" textLength="18" x="322.5" y="602.2832">yes</text><ellipse cx="362.5" cy="604.7002" fill="#FFFFFF" filter="url(#fcywvo65g7ez3)" rx="11" ry="11" style="stroke: #FF7F50; stroke-width: 1.0;"/><ellipse cx="362.5" cy="604.7002" fill="#FF7F50" rx="6" ry="6" style="stroke: #FFBFA7; stroke-width: 1.0;"/><polygon fill="#FFFFF0" filter="url(#fcywvo65g7ez3)" points="144,636.7002,315,636.7002,327,648.7002,315,660.7002,144,660.7002,132,648.7002,144,636.7002" style="stroke: #6495ED; stroke-width: 1.5;"/><text fill="#A9A9A9" font-family="sans-serif" font-size="11" lengthAdjust="spacingAndGlyphs" textLength="171" x="144" y="653.2012">late mortgage payment &lt; 12 months</text><text fill="#696969" font-family="sans-serif" font-size="11" lengthAdjust="spacingAndGlyphs" textLength="18" x="327" y="646.2832">yes</text><ellipse cx="367" cy="648.7002" fill="#FFFFFF" filter="url(#fcywvo65g7ez3)" rx="11" ry="11" style="stroke: #FF7F50; stroke-width: 1.0;"/><ellipse cx="367" cy="648.7002" fill="#FF7F50" rx="6" ry="6" style="stroke: #FFBFA7; stroke-width: 1.0;"/><rect fill="#FFFFF0" filter="url(#fcywvo65g7ez3)" height="202.2188" style="stroke: #6495ED; stroke-width: 1.0;" width="294" x="463" y="309.8877"/><path d="M747,310.8877 L747,323.0127 L737,333.0127 L463,333.0127 " fill="none" style="stroke: #6495ED; stroke-width: 1.0;"/><text fill="#6495ED" font-family="sans-serif" font-size="16" lengthAdjust="spacingAndGlyphs" textLength="274" x="466" y="327.4971">Fannie Mae Purchase Money Mortgage</text><polygon fill="#FFFFF0" filter="url(#fcywvo65g7ez3)" points="519,350.0127,644,350.0127,656,362.0127,644,374.0127,519,374.0127,507,362.0127,519,350.0127" style="stroke: #6495ED; stroke-width: 1.5;"/><text fill="#A9A9A9" font-family="sans-serif" font-size="11" lengthAdjust="spacingAndGlyphs" textLength="125" x="519" y="366.5137">house in perfect condition</text><text fill="#696969" font-family="sans-serif" font-size="11" lengthAdjust="spacingAndGlyphs" textLength="12" x="656" y="359.5957">no</text><ellipse cx="690" cy="362.0127" fill="#FFFFFF" filter="url(#fcywvo65g7ez3)" rx="11" ry="11" style="stroke: #FF7F50; stroke-width: 1.0;"/><ellipse cx="690" cy="362.0127" fill="#FF7F50" rx="6" ry="6" style="stroke: #FFBFA7; stroke-width: 1.0;"/><path d="M523,457.0127 L518,474.5596 L523,492.1064 M640,457.0127 L645,474.5596 L640,492.1064 " fill="#FFFFF0" filter="url(#fcywvo65g7ez3)" style="stroke: #6495ED; stroke-width: 1.5;"/><text fill="#696969" font-family="sans-serif" font-size="12" lengthAdjust="spacingAndGlyphs" textLength="107" x="528" y="479.4697">75-80% lending out</text><rect fill="#FFFFF0" filter="url(#fcywvo65g7ez3)" height="235.4063" style="stroke: #6495ED; stroke-width: 1.0;" width="143" x="785" y="293.2939"/><path d="M918,294.2939 L918,306.4189 L908,316.4189 L785,316.4189 " fill="none" style="stroke: #6495ED; stroke-width: 1.0;"/><text fill="#6495ED" font-family="sans-serif" font-size="16" lengthAdjust="spacingAndGlyphs" textLength="123" x="788" y="310.9033">Hard Money Loan</text><path d="M817,333.4189 L812,350.9658 L817,368.5127 M896,333.4189 L901,350.9658 L896,368.5127 " fill="#FFFFF0" filter="url(#fcywvo65g7ez3)" style="stroke: #6495ED; stroke-width: 1.5;"/><text fill="#696969" font-family="sans-serif" font-size="12" lengthAdjust="spacingAndGlyphs" textLength="69" x="822" y="355.876">70-75% ARV</text><path d="M806.5,403.5127 L801.5,421.0596 L806.5,438.6064 M906.5,403.5127 L911.5,421.0596 L906.5,438.6064 " fill="#FFFFF0" filter="url(#fcywvo65g7ez3)" style="stroke: #6495ED; stroke-width: 1.5;"/><text fill="#696969" font-family="sans-serif" font-size="12" lengthAdjust="spacingAndGlyphs" textLength="90" x="811.5" y="425.9697">6-16.5% interest</text><path d="M809.5,473.6064 L804.5,491.1533 L809.5,508.7002 M903.5,473.6064 L908.5,491.1533 L903.5,508.7002 " fill="#FFFFF0" filter="url(#fcywvo65g7ez3)" style="stroke: #6495ED; stroke-width: 1.5;"/><text fill="#696969" font-family="sans-serif" font-size="12" lengthAdjust="spacingAndGlyphs" textLength="84" x="814.5" y="496.0635">2-4 month term</text><rect fill="#FFFFF0" filter="url(#fcywvo65g7ez3)" height="165.3125" style="stroke: #6495ED; stroke-width: 1.0;" width="236" x="956" y="328.3408"/><path d="M1182,329.3408 L1182,341.4658 L1172,351.4658 L956,351.4658 " fill="none" style="stroke: #6495ED; stroke-width: 1.0;"/><text fill="#6495ED" font-family="sans-serif" font-size="16" lengthAdjust="spacingAndGlyphs" textLength="216" x="959" y="345.9502">Rate and Term Refinance Loan</text><path d="M1056.5,368.4658 L1051.5,386.0127 L1056.5,403.5596 M1091.5,368.4658 L1096.5,386.0127 L1091.5,403.5596 " fill="#FFFFF0" filter="url(#fcywvo65g7ez3)" style="stroke: #6495ED; stroke-width: 1.5;"/><text fill="#696969" font-family="sans-serif" font-size="12" lengthAdjust="spacingAndGlyphs" textLength="25" x="1061.5" y="390.9229">75%</text><rect fill="#DDA0DD" filter="url(#fcywvo65g7ez3)" height="35.0938" rx="12.5" ry="12.5" style="stroke: #6495ED; stroke-width: 1.5;" width="145" x="1001.5" y="438.5596"/><text fill="#696969" font-family="sans-serif" font-size="12" lengthAdjust="spacingAndGlyphs" textLength="125" x="1011.5" y="461.0166">no more out of pocket?</text><rect fill="#FFFFF0" filter="url(#fcywvo65g7ez3)" height="235.4063" style="stroke: #6495ED; stroke-width: 1.0;" width="222" x="1220" y="293.2939"/><path d="M1360,294.2939 L1360,306.4189 L1350,316.4189 L1220,316.4189 " fill="none" style="stroke: #6495ED; stroke-width: 1.0;"/><text fill="#6495ED" font-family="sans-serif" font-size="16" lengthAdjust="spacingAndGlyphs" textLength="130" x="1223" y="310.9033">Delayed Financing</text><path d="M1270.5,333.4189 L1265.5,350.9658 L1270.5,368.5127 M1391.5,333.4189 L1396.5,350.9658 L1391.5,368.5127 " fill="#FFFFF0" filter="url(#fcywvo65g7ez3)" style="stroke: #6495ED; stroke-width: 1.5;"/><text fill="#696969" font-family="sans-serif" font-size="12" lengthAdjust="spacingAndGlyphs" textLength="111" x="1275.5" y="355.876">75-80% of all in cost</text><path d="M1235,403.5127 L1230,421.0596 L1235,438.6064 M1427,403.5127 L1432,421.0596 L1427,438.6064 " fill="#FFFFF0" filter="url(#fcywvo65g7ez3)" style="stroke: #6495ED; stroke-width: 1.5;"/><text fill="#696969" font-family="sans-serif" font-size="12" lengthAdjust="spacingAndGlyphs" textLength="182" x="1240" y="425.9697">get all money back minus repairs</text><rect fill="#DDA0DD" filter="url(#fcywvo65g7ez3)" height="35.0938" rx="12.5" ry="12.5" style="stroke: #6495ED; stroke-width: 1.5;" width="81" x="1290.5" y="473.6064"/><text fill="#696969" font-family="sans-serif" font-size="12" lengthAdjust="spacingAndGlyphs" textLength="61" x="1300.5" y="496.0635">offer cash?</text><rect fill="#FFFFF0" filter="url(#fcywvo65g7ez3)" height="215.8906" style="stroke: #6495ED; stroke-width: 1.0;" width="235" x="1470" y="303.0518"/><path d="M1658,304.0518 L1658,316.1768 L1648,326.1768 L1470,326.1768 " fill="none" style="stroke: #6495ED; stroke-width: 1.0;"/><text fill="#6495ED" font-family="sans-serif" font-size="16" lengthAdjust="spacingAndGlyphs" textLength="178" x="1473" y="320.6611">Cash Out Refinance Loan</text><polygon fill="#FFFFF0" filter="url(#fcywvo65g7ez3)" points="1492,343.1768,1626,343.1768,1638,362.0127,1626,380.8486,1492,380.8486,1480,362.0127,1492,343.1768" style="stroke: #6495ED; stroke-width: 1.5;"/><text fill="#A9A9A9" font-family="sans-serif" font-size="11" lengthAdjust="spacingAndGlyphs" textLength="134" x="1492" y="354.5957">6-12 months of "seasoning"</text><line style="stroke: #6495ED; stroke-width: 1.0;" x1="1480" x2="1638" y1="362.0127" y2="362.0127"/><line style="stroke: #6495ED; stroke-width: 1.0;" x1="1481.2742" x2="1636.7258" y1="364.0127" y2="364.0127"/><text fill="#A9A9A9" font-family="sans-serif" font-size="11" lengthAdjust="spacingAndGlyphs" textLength="86" x="1492" y="378.4316">(being rented out)</text><text fill="#696969" font-family="sans-serif" font-size="11" lengthAdjust="spacingAndGlyphs" textLength="12" x="1638" y="359.5957">no</text><ellipse cx="1672" cy="362.0127" fill="#FFFFFF" filter="url(#fcywvo65g7ez3)" rx="11" ry="11" style="stroke: #FF7F50; stroke-width: 1.0;"/><ellipse cx="1672" cy="362.0127" fill="#FF7F50" rx="6" ry="6" style="stroke: #FFBFA7; stroke-width: 1.0;"/><path d="M1489.5,463.8486 L1484.5,481.3955 L1489.5,498.9424 M1628.5,463.8486 L1633.5,481.3955 L1628.5,498.9424 " fill="#FFFFF0" filter="url(#fcywvo65g7ez3)" style="stroke: #6495ED; stroke-width: 1.5;"/><text fill="#696969" font-family="sans-serif" font-size="12" lengthAdjust="spacingAndGlyphs" textLength="129" x="1494.5" y="486.3057">75% of appraised value</text><rect fill="#000000" filter="url(#fcywvo65g7ez3)" height="6" rx="2.5" ry="2.5" style="stroke: #000000; stroke-width: 1.0;" width="1709" x="10" y="692.7002"/><rect fill="#FFFFF0" filter="url(#fcywvo65g7ez3)" height="35.0938" rx="12.5" ry="12.5" style="stroke: #6495ED; stroke-width: 1.5;" width="49" x="840" y="718.7002"/><text fill="#696969" font-family="sans-serif" font-size="12" lengthAdjust="spacingAndGlyphs" textLength="29" x="850" y="741.1572">apply</text><polygon fill="#FFFFF0" filter="url(#fcywvo65g7ez3)" points="813.5,773.7939,925.5,773.7939,915.5,808.8877,803.5,808.8877" style="stroke: #6495ED; stroke-width: 1.5;"/><text fill="#696969" font-family="sans-serif" font-size="12" lengthAdjust="spacingAndGlyphs" textLength="102" x="813.5" y="796.251">Qualification Letter</text><ellipse cx="864.5" cy="838.8877" fill="#FFFFFF" filter="url(#fcywvo65g7ez3)" rx="10" ry="10" style="stroke: #FF7F50; stroke-width: 1.5;"/><line style="stroke: #FF7F50; stroke-width: 2.5;" x1="858.3128" x2="870.6872" y1="832.7005" y2="845.0749"/><line style="stroke: #FF7F50; stroke-width: 2.5;" x1="870.6872" x2="858.3128" y1="832.7005" y2="845.0749"/><line style="stroke: #696969; stroke-width: 1.5;" x1="229.5" x2="229.5" y1="181.3594" y2="186.3594"/><line style="stroke: #696969; stroke-width: 1.5;" x1="296.5" x2="319.5" y1="169.3594" y2="169.3594"/><polygon fill="#696969" points="309.5,165.3594,319.5,169.3594,309.5,173.3594,313.5,169.3594" style="stroke: #696969; stroke-width: 1.0;"/><line style="stroke: #696969; stroke-width: 1.5;" x1="106.5" x2="106.5" y1="282.2783" y2="321.9775"/><polygon fill="#696969" points="102.5,311.9775,106.5,321.9775,110.5,311.9775,106.5,315.9775" style="stroke: #696969; stroke-width: 1.0;"/><line style="stroke: #696969; stroke-width: 1.5;" x1="179" x2="202" y1="270.2783" y2="270.2783"/><polygon fill="#696969" points="192,266.2783,202,270.2783,192,274.2783,196,270.2783" style="stroke: #696969; stroke-width: 1.0;"/><line style="stroke: #696969; stroke-width: 1.5;" x1="106.5" x2="106.5" y1="225.3594" y2="258.2783"/><polygon fill="#696969" points="102.5,248.2783,106.5,258.2783,110.5,248.2783,106.5,252.2783" style="stroke: #696969; stroke-width: 1.0;"/><line style="stroke: #696969; stroke-width: 1.5;" x1="315.5" x2="315.5" y1="225.3594" y2="258.2783"/><polygon fill="#696969" points="311.5,248.2783,315.5,258.2783,319.5,248.2783,315.5,252.2783" style="stroke: #696969; stroke-width: 1.0;"/><line style="stroke: #696969; stroke-width: 1.5;" x1="152.5" x2="256" y1="213.3594" y2="213.3594"/><polygon fill="#696969" points="246,209.3594,256,213.3594,246,217.3594,250,213.3594" style="stroke: #696969; stroke-width: 1.0;"/><line style="stroke: #696969; stroke-width: 1.5;" x1="229.5" x2="106.5" y1="186.3594" y2="186.3594"/><line style="stroke: #696969; stroke-width: 1.5;" x1="106.5" x2="106.5" y1="186.3594" y2="201.3594"/><polygon fill="#696969" points="102.5,191.3594,106.5,201.3594,110.5,191.3594,106.5,195.3594" style="stroke: #696969; stroke-width: 1.0;"/><line style="stroke: #696969; stroke-width: 1.5;" x1="375" x2="410" y1="213.3594" y2="213.3594"/><line style="stroke: #696969; stroke-width: 1.5;" x1="410" x2="410" y1="213.3594" y2="321.9775"/><polygon fill="#696969" points="406,311.9775,410,321.9775,414,311.9775,410,315.9775" style="stroke: #696969; stroke-width: 1.0;"/><line style="stroke: #696969; stroke-width: 1.5;" x1="106.5" x2="410" y1="321.9775" y2="321.9775"/><line style="stroke: #696969; stroke-width: 1.5;" x1="229.5" x2="229.5" y1="380.9775" y2="463.9775"/><polygon fill="#696969" points="225.5,453.9775,229.5,463.9775,233.5,453.9775,229.5,457.9775" style="stroke: #696969; stroke-width: 1.0;"/><line style="stroke: #696969; stroke-width: 1.5;" x1="285.5" x2="308.5" y1="368.9775" y2="368.9775"/><polygon fill="#696969" points="298.5,364.9775,308.5,368.9775,298.5,372.9775,302.5,368.9775" style="stroke: #696969; stroke-width: 1.0;"/><line style="stroke: #696969; stroke-width: 1.5;" x1="229.5" x2="229.5" y1="321.9775" y2="356.9775"/><polygon fill="#696969" points="225.5,346.9775,229.5,356.9775,233.5,346.9775,229.5,350.9775" style="stroke: #696969; stroke-width: 1.0;"/><line style="stroke: #696969; stroke-width: 1.5;" x1="229.5" x2="229.5" y1="487.9775" y2="548.7002"/><polygon fill="#696969" points="225.5,538.7002,229.5,548.7002,233.5,538.7002,229.5,542.7002" style="stroke: #696969; stroke-width: 1.0;"/><line style="stroke: #696969; stroke-width: 1.5;" x1="293" x2="322" y1="475.9775" y2="475.9775"/><polygon fill="#696969" points="312,471.9775,322,475.9775,312,479.9775,316,475.9775" style="stroke: #696969; stroke-width: 1.0;"/><line style="stroke: #696969; stroke-width: 1.5;" x1="229.5" x2="229.5" y1="572.7002" y2="592.7002"/><polygon fill="#696969" points="225.5,582.7002,229.5,592.7002,233.5,582.7002,229.5,586.7002" style="stroke: #696969; stroke-width: 1.0;"/><line style="stroke: #696969; stroke-width: 1.5;" x1="294" x2="323" y1="560.7002" y2="560.7002"/><polygon fill="#696969" points="313,556.7002,323,560.7002,313,564.7002,317,560.7002" style="stroke: #696969; stroke-width: 1.0;"/><line style="stroke: #696969; stroke-width: 1.5;" x1="229.5" x2="229.5" y1="616.7002" y2="636.7002"/><polygon fill="#696969" points="225.5,626.7002,229.5,636.7002,233.5,626.7002,229.5,630.7002" style="stroke: #696969; stroke-width: 1.0;"/><line style="stroke: #696969; stroke-width: 1.5;" x1="322.5" x2="351.5" y1="604.7002" y2="604.7002"/><polygon fill="#696969" points="341.5,600.7002,351.5,604.7002,341.5,608.7002,345.5,604.7002" style="stroke: #696969; stroke-width: 1.0;"/><line style="stroke: #696969; stroke-width: 1.5;" x1="229.5" x2="229.5" y1="660.7002" y2="692.7002"/><polygon fill="#696969" points="225.5,682.7002,229.5,692.7002,233.5,682.7002,229.5,686.7002" style="stroke: #696969; stroke-width: 1.0;"/><line style="stroke: #696969; stroke-width: 1.5;" x1="327" x2="356" y1="648.7002" y2="648.7002"/><polygon fill="#696969" points="346,644.7002,356,648.7002,346,652.7002,350,648.7002" style="stroke: #696969; stroke-width: 1.0;"/><line style="stroke: #696969; stroke-width: 1.5;" x1="581.5" x2="581.5" y1="374.0127" y2="457.0127"/><polygon fill="#696969" points="577.5,447.0127,581.5,457.0127,585.5,447.0127,581.5,451.0127" style="stroke: #696969; stroke-width: 1.0;"/><line style="stroke: #696969; stroke-width: 1.5;" x1="656" x2="679" y1="362.0127" y2="362.0127"/><polygon fill="#696969" points="669,358.0127,679,362.0127,669,366.0127,673,362.0127" style="stroke: #696969; stroke-width: 1.0;"/><line style="stroke: #696969; stroke-width: 1.5;" x1="856.5" x2="856.5" y1="368.5127" y2="403.5127"/><polygon fill="#696969" points="852.5,393.5127,856.5,403.5127,860.5,393.5127,856.5,397.5127" style="stroke: #696969; stroke-width: 1.0;"/><line style="stroke: #696969; stroke-width: 1.5;" x1="856.5" x2="856.5" y1="438.6064" y2="473.6064"/><polygon fill="#696969" points="852.5,463.6064,856.5,473.6064,860.5,463.6064,856.5,467.6064" style="stroke: #696969; stroke-width: 1.0;"/><line style="stroke: #696969; stroke-width: 1.5;" x1="1074" x2="1074" y1="403.5596" y2="438.5596"/><polygon fill="#696969" points="1070,428.5596,1074,438.5596,1078,428.5596,1074,432.5596" style="stroke: #696969; stroke-width: 1.0;"/><line style="stroke: #696969; stroke-width: 1.5;" x1="1331" x2="1331" y1="368.5127" y2="403.5127"/><polygon fill="#696969" points="1327,393.5127,1331,403.5127,1335,393.5127,1331,397.5127" style="stroke: #696969; stroke-width: 1.0;"/><line style="stroke: #696969; stroke-width: 1.5;" x1="1331" x2="1331" y1="438.6064" y2="473.6064"/><polygon fill="#696969" points="1327,463.6064,1331,473.6064,1335,463.6064,1331,467.6064" style="stroke: #696969; stroke-width: 1.0;"/><line style="stroke: #696969; stroke-width: 1.5;" x1="1559" x2="1559" y1="380.8486" y2="463.8486"/><polygon fill="#696969" points="1555,453.8486,1559,463.8486,1563,453.8486,1559,457.8486" style="stroke: #696969; stroke-width: 1.0;"/><line style="stroke: #696969; stroke-width: 1.5;" x1="1638" x2="1661" y1="362.0127" y2="362.0127"/><polygon fill="#696969" points="1651,358.0127,1661,362.0127,1651,366.0127,1655,362.0127" style="stroke: #696969; stroke-width: 1.0;"/><line style="stroke: #696969; stroke-width: 1.5;" x1="229.5" x2="229.5" y1="106.2188" y2="157.3594"/><polygon fill="#696969" points="225.5,147.3594,229.5,157.3594,233.5,147.3594,229.5,151.3594" style="stroke: #696969; stroke-width: 1.0;"/><line style="stroke: #696969; stroke-width: 1.5;" x1="581.5" x2="581.5" y1="106.2188" y2="350.0127"/><polygon fill="#696969" points="577.5,340.0127,581.5,350.0127,585.5,340.0127,581.5,344.0127" style="stroke: #696969; stroke-width: 1.0;"/><line style="stroke: #696969; stroke-width: 1.5;" x1="856.5" x2="856.5" y1="106.2188" y2="333.4189"/><polygon fill="#696969" points="852.5,323.4189,856.5,333.4189,860.5,323.4189,856.5,327.4189" style="stroke: #696969; stroke-width: 1.0;"/><line style="stroke: #696969; stroke-width: 1.5;" x1="1074" x2="1074" y1="106.2188" y2="368.4658"/><polygon fill="#696969" points="1070,358.4658,1074,368.4658,1078,358.4658,1074,362.4658" style="stroke: #696969; stroke-width: 1.0;"/><line style="stroke: #696969; stroke-width: 1.5;" x1="1331" x2="1331" y1="106.2188" y2="333.4189"/><polygon fill="#696969" points="1327,323.4189,1331,333.4189,1335,323.4189,1331,327.4189" style="stroke: #696969; stroke-width: 1.0;"/><line style="stroke: #696969; stroke-width: 1.5;" x1="1559" x2="1559" y1="106.2188" y2="343.1768"/><polygon fill="#696969" points="1555,333.1768,1559,343.1768,1563,333.1768,1559,337.1768" style="stroke: #696969; stroke-width: 1.0;"/><line style="stroke: #696969; stroke-width: 1.5;" x1="581.5" x2="581.5" y1="492.1064" y2="692.7002"/><polygon fill="#696969" points="577.5,682.7002,581.5,692.7002,585.5,682.7002,581.5,686.7002" style="stroke: #696969; stroke-width: 1.0;"/><line style="stroke: #696969; stroke-width: 1.5;" x1="856.5" x2="856.5" y1="508.7002" y2="692.7002"/><polygon fill="#696969" points="852.5,682.7002,856.5,692.7002,860.5,682.7002,856.5,686.7002" style="stroke: #696969; stroke-width: 1.0;"/><line style="stroke: #696969; stroke-width: 1.5;" x1="1074" x2="1074" y1="473.6533" y2="692.7002"/><polygon fill="#696969" points="1070,682.7002,1074,692.7002,1078,682.7002,1074,686.7002" style="stroke: #696969; stroke-width: 1.0;"/><line style="stroke: #696969; stroke-width: 1.5;" x1="1331" x2="1331" y1="508.7002" y2="692.7002"/><polygon fill="#696969" points="1327,682.7002,1331,692.7002,1335,682.7002,1331,686.7002" style="stroke: #696969; stroke-width: 1.0;"/><line style="stroke: #696969; stroke-width: 1.5;" x1="1559" x2="1559" y1="498.9424" y2="692.7002"/><polygon fill="#696969" points="1555,682.7002,1559,692.7002,1563,682.7002,1559,686.7002" style="stroke: #696969; stroke-width: 1.0;"/><line style="stroke: #696969; stroke-width: 1.5;" x1="864.5" x2="864.5" y1="80.2188" y2="100.2188"/><polygon fill="#696969" points="860.5,90.2188,864.5,100.2188,868.5,90.2188,864.5,94.2188" style="stroke: #696969; stroke-width: 1.0;"/><line style="stroke: #696969; stroke-width: 1.5;" x1="864.5" x2="864.5" y1="698.7002" y2="718.7002"/><polygon fill="#696969" points="860.5,708.7002,864.5,718.7002,868.5,708.7002,864.5,712.7002" style="stroke: #696969; stroke-width: 1.0;"/><line style="stroke: #696969; stroke-width: 1.5;" x1="864.5" x2="864.5" y1="753.7939" y2="773.7939"/><polygon fill="#696969" points="860.5,763.7939,864.5,773.7939,868.5,763.7939,864.5,767.7939" style="stroke: #696969; stroke-width: 1.0;"/><line style="stroke: #696969; stroke-width: 1.5;" x1="864.5" x2="864.5" y1="808.8877" y2="828.8877"/><polygon fill="#696969" points="860.5,818.8877,864.5,828.8877,868.5,818.8877,864.5,822.8877" style="stroke: #696969; stroke-width: 1.0;"/><text fill="#000080" font-family="sans-serif" font-size="10" lengthAdjust="spacingAndGlyphs" textLength="31" x="10" y="858.2686">©2019</text><a target="_top" xlink:actuate="onRequest" xlink:href="http://www.lifestylesunlimited.com" xlink:show="new" xlink:title="http://www.lifestylesunlimited.com" xlink:type="simple"><text fill="#0000FF" font-family="sans-serif" font-size="10" lengthAdjust="spacingAndGlyphs" text-decoration="underline" textLength="95" x="44" y="858.2686">LifeStyles Unlimited</text><line style="stroke: #0000FF; stroke-width: 1.0;" x1="44" x2="139" y1="860.2686" y2="860.2686"/></a><text fill="#000080" font-family="sans-serif" font-size="10" lengthAdjust="spacingAndGlyphs" textLength="205" x="142" y="858.2686">| Generated Sat Apr 20 19:28:22 CDT 2019</text><!--
@startuml pre-qualification


skinparam {
  BorderColor Red
  PathHoverColor Blue
}

skinparam Title {
  FontColor Navy
  BackgroundColor PaleGoldenRod
  BorderColor Navy
  BorderRoundCorner 20
}

skinparam activity {
  BackgroundColor Ivory
  BorderColor CornflowerBlue
  FontColor DimGray
  

  Arrow {
    Color dimgray
    FontColor dimgray
  }

  Start {
    Color PHYSICAL
  }

  End {
    Color Coral
  }

  Diamond {
    BackgroundColor Ivory
    BorderColor CornflowerBlue
    FontColor DarkGray
  }

  BackgroundColor<< Exception >> Red
	BorderColor<< Exception >> White
}

skinparam Swimlane {
  BorderColor CornflowerBlue 
}

skinparam Partition {
  BackgroundColor Ivory
  BorderColor CornflowerBlue
  BorderThickness 1
  FontColor CornflowerBlue
  FontSize 16
  BorderRoundCorner 20
}

skinparam Note {
  BackgroundColor LightSteelBlue
  BorderColor CornflowerBlue
  FontColor White
}

skinparam Legend {
  BackgroundColor LightSteelBlue
  BorderColor CornflowerBlue
  FontColor White
}

skinparam Footer {
  FontColor Navy
}


left header 
	<font color=Navy>[[../index.svg ⌂ Home]]</font>
endheader


	Title Pre-Qualification

	start

  fork

    partition Conventional {

      if(  debt / income <= 50%) then(no)
        stop
      endif
      
      if(self-employed) then (yes)
        if(2 years profit tax returns) then(no)
          stop
        endif
      elseif(years employed > 2) then(no)
        stop
      endif
      
      if(credit score > 650) then(no)
        stop
      endif
      if(bankruptcy < 4 years) then(yes)
        stop
      endif
      if(foreclosure < 7 years) then(yes)
        stop
      endif
      if(short sale / deed-in-lieu < 4 years) then(yes)
        stop
      endif
      if(late mortgage payment < 12 months) then(yes)
        stop
      endif

    }

  fork again
    partition "Fannie Mae Purchase Money Mortgage" {
      if(house in perfect condition) then (no)
        stop
      endif
      :75-80% lending out}
    }
    
  fork again
    partition "Hard Money Loan" {
      :70-75% ARV}
      :6-16.5% interest}
      :2-4 month term}
    }

  fork again
    partition "Rate and Term Refinance Loan" {
      :75%}
      #Plum:no more out of pocket?;
    }

  fork again
    partition "Delayed Financing" {
      :75-80% of all in cost}
      :get all money back minus repairs}
      #Plum:offer cash?;
    }

  fork again
    partition "Cash Out Refinance Loan" {
      if(6-12 months of "seasoning"\n====\n(being rented out)) then (no)
        stop
      endif
      :75% of appraised value}
    }
  end fork

  :apply;

  :Qualification Letter/

  end


left footer 
	©2019 [[http://www.lifestylesunlimited.com LifeStyles Unlimited]] | Generated Sat Apr 20 19:28:22 CDT 2019
endfooter


@enduml

PlantUML version 1.2019.03(Sun Mar 10 06:04:44 CDT 2019)
(GPL source distribution)
Java Runtime: Java(TM) SE Runtime Environment
JVM: Java HotSpot(TM) 64-Bit Server VM
Java Version: 1.8.0_111-b14
Operating System: Windows 10
OS Version: 10.0
Default Encoding: Cp1252
Language: en
Country: US
--></g></svg>