<?xml version="1.0" encoding="UTF-8" standalone="no"?><svg xmlns="http://www.w3.org/2000/svg" xmlns:xlink="http://www.w3.org/1999/xlink" contentScriptType="application/ecmascript" contentStyleType="text/css" height="1070px" preserveAspectRatio="none" style="width:2003px;height:1070px;" version="1.1" viewBox="0 0 2003 1070" width="2003px" zoomAndPan="magnify"><defs><style type="text/css"><![CDATA[path:hover { stroke: #0000FF !important;}]]></style><filter height="300%" id="f1g1ouqrw4o2xn" width="300%" x="-1" y="-1"><feGaussianBlur result="blurOut" stdDeviation="2.0"/><feColorMatrix in="blurOut" result="blurOut2" type="matrix" values="0 0 0 0 0 0 0 0 0 0 0 0 0 0 0 0 0 0 .4 0"/><feOffset dx="4.0" dy="4.0" in="blurOut2" result="blurOut3"/><feBlend in="SourceGraphic" in2="blurOut3" mode="normal"/></filter></defs><g><a target="_top" xlink:actuate="onRequest" xlink:href="../index.svg?sanitize=true" xlink:show="new" xlink:title="../index.svg?sanitize=true" xlink:type="simple"><text fill="#0000FF" font-family="sans-serif" font-size="24" lengthAdjust="spacingAndGlyphs" text-decoration="underline" textLength="90" x="10" y="34.9141">⌂ Home</text><line style="stroke: #0000FF; stroke-width: 1.0;" x1="10" x2="100" y1="36.9141" y2="36.9141"/></a><rect fill="#EEE8AA" height="40.1875" rx="10" ry="10" style="stroke: #000080; stroke-width: 1.5;" width="194" x="903" y="42.1875"/><text fill="#000080" font-family="sans-serif" font-size="24" lengthAdjust="spacingAndGlyphs" textLength="178" x="911" y="72.1016">Pre-Qualification</text><ellipse cx="1001" cy="95.375" fill="#CCFFCC" filter="url(#f1g1ouqrw4o2xn)" rx="10" ry="10" style="stroke: none; stroke-width: 1.0;"/><rect fill="#000000" filter="url(#f1g1ouqrw4o2xn)" height="6" rx="2.5" ry="2.5" style="stroke: #000000; stroke-width: 1.0;" width="1982" x="10" y="125.375"/><rect fill="#FFFFF0" filter="url(#f1g1ouqrw4o2xn)" height="658.458" style="stroke: #6495ED; stroke-width: 1.0;" width="411" x="24" y="142.3906"/><path d="M124,143.3906 L124,155.5156 L114,165.5156 L24,165.5156 " fill="none" style="stroke: #6495ED; stroke-width: 1.0;"/><text fill="#6495ED" font-family="sans-serif" font-size="16" lengthAdjust="spacingAndGlyphs" textLength="90" x="27" y="160">Conventional</text><polygon fill="#FFFFF0" filter="url(#f1g1ouqrw4o2xn)" points="174.5,182.5156,284.5,182.5156,296.5,194.5156,284.5,206.5156,174.5,206.5156,162.5,194.5156,174.5,182.5156" style="stroke: #6495ED; stroke-width: 1.0;"/><text fill="#A9A9A9" font-family="sans-serif" font-size="11" lengthAdjust="spacingAndGlyphs" textLength="104" x="180.5" y="199.0166">debt / income &lt;= 50%</text><text fill="#696969" font-family="sans-serif" font-size="11" lengthAdjust="spacingAndGlyphs" textLength="12" x="296.5" y="192.0986">no</text><ellipse cx="330.5" cy="194.5156" fill="#FFFFFF" filter="url(#f1g1ouqrw4o2xn)" rx="11" ry="11" style="stroke: #FF7F50; stroke-width: 1.0;"/><ellipse cx="330.5" cy="194.5156" fill="#FF7F50" rx="6" ry="6" style="stroke: #FFBFA7; stroke-width: 1.0;"/><polygon fill="#FFFFF0" filter="url(#f1g1ouqrw4o2xn)" points="72.5,226.5156,140.5,226.5156,152.5,238.5156,140.5,250.5156,72.5,250.5156,60.5,238.5156,72.5,226.5156" style="stroke: #6495ED; stroke-width: 1.0;"/><text fill="#696969" font-family="sans-serif" font-size="11" lengthAdjust="spacingAndGlyphs" textLength="18" x="110.5" y="261.9346">yes</text><text fill="#A9A9A9" font-family="sans-serif" font-size="11" lengthAdjust="spacingAndGlyphs" textLength="68" x="72.5" y="243.0166">self-employed</text><polygon fill="#FFFFF0" filter="url(#f1g1ouqrw4o2xn)" points="46,283.4346,167,283.4346,179,295.4346,167,307.4346,46,307.4346,34,295.4346,46,283.4346" style="stroke: #6495ED; stroke-width: 1.0;"/><text fill="#A9A9A9" font-family="sans-serif" font-size="11" lengthAdjust="spacingAndGlyphs" textLength="121" x="46" y="299.9355">2 years profit tax returns</text><text fill="#696969" font-family="sans-serif" font-size="11" lengthAdjust="spacingAndGlyphs" textLength="12" x="179" y="293.0176">no</text><ellipse cx="213" cy="295.4346" fill="#FFFFFF" filter="url(#f1g1ouqrw4o2xn)" rx="11" ry="11" style="stroke: #FF7F50; stroke-width: 1.0;"/><ellipse cx="213" cy="295.4346" fill="#FF7F50" rx="6" ry="6" style="stroke: #FFBFA7; stroke-width: 1.0;"/><polygon fill="#FFFFF0" filter="url(#f1g1ouqrw4o2xn)" points="268,226.5156,363,226.5156,375,238.5156,363,250.5156,268,250.5156,256,238.5156,268,226.5156" style="stroke: #6495ED; stroke-width: 1.0;"/><text fill="#696969" font-family="sans-serif" font-size="11" lengthAdjust="spacingAndGlyphs" textLength="12" x="319.5" y="261.9346">no</text><text fill="#A9A9A9" font-family="sans-serif" font-size="11" lengthAdjust="spacingAndGlyphs" textLength="95" x="268" y="243.0166">years employed &gt; 2</text><ellipse cx="315.5" cy="294.4346" fill="#FFFFFF" filter="url(#f1g1ouqrw4o2xn)" rx="11" ry="11" style="stroke: #FF7F50; stroke-width: 1.0;"/><ellipse cx="315.5" cy="294.4346" fill="#FF7F50" rx="6" ry="6" style="stroke: #FFBFA7; stroke-width: 1.0;"/><polygon fill="#FFFFF0" filter="url(#f1g1ouqrw4o2xn)" points="185.5,455.2275,273.5,455.2275,285.5,467.2275,273.5,479.2275,185.5,479.2275,173.5,467.2275,185.5,455.2275" style="stroke: #6495ED; stroke-width: 1.0;"/><text fill="#A9A9A9" font-family="sans-serif" font-size="11" lengthAdjust="spacingAndGlyphs" textLength="88" x="185.5" y="471.7285">credit score &gt; 620</text><text fill="#696969" font-family="sans-serif" font-size="11" lengthAdjust="spacingAndGlyphs" textLength="12" x="285.5" y="464.8105">no</text><ellipse cx="319.5" cy="467.2275" fill="#FFFFFF" filter="url(#f1g1ouqrw4o2xn)" rx="11" ry="11" style="stroke: #FF7F50; stroke-width: 1.0;"/><ellipse cx="319.5" cy="467.2275" fill="#FF7F50" rx="6" ry="6" style="stroke: #FFBFA7; stroke-width: 1.0;"/><polygon fill="#FFFFF0" filter="url(#f1g1ouqrw4o2xn)" points="178,562.2275,281,562.2275,293,574.2275,281,586.2275,178,586.2275,166,574.2275,178,562.2275" style="stroke: #6495ED; stroke-width: 1.0;"/><text fill="#A9A9A9" font-family="sans-serif" font-size="11" lengthAdjust="spacingAndGlyphs" textLength="103" x="178" y="578.7285">bankruptcy &lt; 4 years</text><text fill="#696969" font-family="sans-serif" font-size="11" lengthAdjust="spacingAndGlyphs" textLength="18" x="293" y="571.8105">yes</text><ellipse cx="333" cy="574.2275" fill="#FFFFFF" filter="url(#f1g1ouqrw4o2xn)" rx="11" ry="11" style="stroke: #FF7F50; stroke-width: 1.0;"/><ellipse cx="333" cy="574.2275" fill="#FF7F50" rx="6" ry="6" style="stroke: #FFBFA7; stroke-width: 1.0;"/><polygon fill="#FFFFF0" filter="url(#f1g1ouqrw4o2xn)" points="177,669.2275,282,669.2275,294,681.2275,282,693.2275,177,693.2275,165,681.2275,177,669.2275" style="stroke: #6495ED; stroke-width: 1.0;"/><text fill="#A9A9A9" font-family="sans-serif" font-size="11" lengthAdjust="spacingAndGlyphs" textLength="105" x="177" y="685.7285">foreclosure &lt; 7 years</text><text fill="#696969" font-family="sans-serif" font-size="11" lengthAdjust="spacingAndGlyphs" textLength="18" x="294" y="678.8105">yes</text><ellipse cx="334" cy="681.2275" fill="#FFFFFF" filter="url(#f1g1ouqrw4o2xn)" rx="11" ry="11" style="stroke: #FF7F50; stroke-width: 1.0;"/><ellipse cx="334" cy="681.2275" fill="#FF7F50" rx="6" ry="6" style="stroke: #FFBFA7; stroke-width: 1.0;"/><polygon fill="#FFFFF0" filter="url(#f1g1ouqrw4o2xn)" points="148.5,720.8486,310.5,720.8486,322.5,732.8486,310.5,744.8486,148.5,744.8486,136.5,732.8486,148.5,720.8486" style="stroke: #6495ED; stroke-width: 1.0;"/><text fill="#A9A9A9" font-family="sans-serif" font-size="11" lengthAdjust="spacingAndGlyphs" textLength="162" x="148.5" y="737.3496">short sale / deed-in-lieu &lt; 4 years</text><text fill="#696969" font-family="sans-serif" font-size="11" lengthAdjust="spacingAndGlyphs" textLength="18" x="322.5" y="730.4316">yes</text><ellipse cx="362.5" cy="732.8486" fill="#FFFFFF" filter="url(#f1g1ouqrw4o2xn)" rx="11" ry="11" style="stroke: #FF7F50; stroke-width: 1.0;"/><ellipse cx="362.5" cy="732.8486" fill="#FF7F50" rx="6" ry="6" style="stroke: #FFBFA7; stroke-width: 1.0;"/><polygon fill="#FFFFF0" filter="url(#f1g1ouqrw4o2xn)" points="144,764.8486,315,764.8486,327,776.8486,315,788.8486,144,788.8486,132,776.8486,144,764.8486" style="stroke: #6495ED; stroke-width: 1.0;"/><text fill="#A9A9A9" font-family="sans-serif" font-size="11" lengthAdjust="spacingAndGlyphs" textLength="171" x="144" y="781.3496">late mortgage payment &lt; 12 months</text><text fill="#696969" font-family="sans-serif" font-size="11" lengthAdjust="spacingAndGlyphs" textLength="18" x="327" y="774.4316">yes</text><ellipse cx="367" cy="776.8486" fill="#FFFFFF" filter="url(#f1g1ouqrw4o2xn)" rx="11" ry="11" style="stroke: #FF7F50; stroke-width: 1.0;"/><ellipse cx="367" cy="776.8486" fill="#FF7F50" rx="6" ry="6" style="stroke: #FFBFA7; stroke-width: 1.0;"/><rect fill="#FFFFF0" filter="url(#f1g1ouqrw4o2xn)" height="272.3125" style="stroke: #6495ED; stroke-width: 1.0;" width="294" x="463" y="373.0908"/><path d="M747,374.0908 L747,386.2158 L737,396.2158 L463,396.2158 " fill="none" style="stroke: #6495ED; stroke-width: 1.0;"/><text fill="#6495ED" font-family="sans-serif" font-size="16" lengthAdjust="spacingAndGlyphs" textLength="274" x="466" y="390.7002">Fannie Mae Purchase Money Mortgage</text><polygon fill="#FFFFF0" filter="url(#f1g1ouqrw4o2xn)" points="519,413.2158,644,413.2158,656,425.2158,644,437.2158,519,437.2158,507,425.2158,519,413.2158" style="stroke: #6495ED; stroke-width: 1.0;"/><text fill="#A9A9A9" font-family="sans-serif" font-size="11" lengthAdjust="spacingAndGlyphs" textLength="125" x="519" y="429.7168">house in perfect condition</text><text fill="#696969" font-family="sans-serif" font-size="11" lengthAdjust="spacingAndGlyphs" textLength="12" x="656" y="422.7988">no</text><ellipse cx="690" cy="425.2158" fill="#FFFFFF" filter="url(#f1g1ouqrw4o2xn)" rx="11" ry="11" style="stroke: #FF7F50; stroke-width: 1.0;"/><ellipse cx="690" cy="425.2158" fill="#FF7F50" rx="6" ry="6" style="stroke: #FFBFA7; stroke-width: 1.0;"/><path d="M523,520.2158 L518,537.7627 L523,555.3096 M640,520.2158 L645,537.7627 L640,555.3096 " fill="#FFFFF0" filter="url(#f1g1ouqrw4o2xn)" style="stroke: #6495ED; stroke-width: 1.0;"/><text fill="#696969" font-family="sans-serif" font-size="12" lengthAdjust="spacingAndGlyphs" textLength="107" x="528" y="542.6729">75-80% lending out</text><path d="M547.5,590.3096 L542.5,607.8564 L547.5,625.4033 M615.5,590.3096 L620.5,607.8564 L615.5,625.4033 " fill="#FFFFF0" filter="url(#f1g1ouqrw4o2xn)" style="stroke: #6495ED; stroke-width: 1.0;"/><text fill="#696969" font-family="sans-serif" font-size="12" lengthAdjust="spacingAndGlyphs" textLength="58" x="552.5" y="612.7666">15% down</text><rect fill="#FFFFF0" filter="url(#f1g1ouqrw4o2xn)" height="382.3984" style="stroke: #6495ED; stroke-width: 1.0;" width="232" x="785" y="318.4502"/><path d="M918,319.4502 L918,331.5752 L908,341.5752 L785,341.5752 " fill="none" style="stroke: #6495ED; stroke-width: 1.0;"/><text fill="#6495ED" font-family="sans-serif" font-size="16" lengthAdjust="spacingAndGlyphs" textLength="123" x="788" y="336.0596">Hard Money Loan</text><path d="M911,357.7705 L911,375.1221 L891,379.1221 L911,383.1221 L911,400.4736 A0,0 0 0 0 911,400.4736 L1007,400.4736 A0,0 0 0 0 1007,400.4736 L1007,367.7705 L997,357.7705 L911,357.7705 A0,0 0 0 0 911,357.7705 " fill="#B0C4DE" filter="url(#f1g1ouqrw4o2xn)" style="stroke: #6495ED; stroke-width: 1.0;"/><path d="M997,357.7705 L997,367.7705 L1007,367.7705 L997,357.7705 " fill="#B0C4DE" style="stroke: #6495ED; stroke-width: 1.0;"/><text fill="#FFFFFF" font-family="sans-serif" font-size="13" lengthAdjust="spacingAndGlyphs" textLength="75" x="917" y="376.2656">don't do 75%</text><text fill="#FFFFFF" font-family="sans-serif" font-size="13" lengthAdjust="spacingAndGlyphs" textLength="45" x="917" y="392.6172">until refi</text><path d="M825,361.5752 L820,379.1221 L825,396.6689 M886,361.5752 L891,379.1221 L886,396.6689 " fill="#FFFFF0" filter="url(#f1g1ouqrw4o2xn)" style="stroke: #6495ED; stroke-width: 1.0;"/><text fill="#696969" font-family="sans-serif" font-size="12" lengthAdjust="spacingAndGlyphs" textLength="51" x="830" y="384.0322">70% ARV</text><path d="M805.5,435.4736 L800.5,453.0205 L805.5,470.5674 M905.5,435.4736 L910.5,453.0205 L905.5,470.5674 " fill="#FFFFF0" filter="url(#f1g1ouqrw4o2xn)" style="stroke: #6495ED; stroke-width: 1.0;"/><text fill="#696969" font-family="sans-serif" font-size="12" lengthAdjust="spacingAndGlyphs" textLength="90" x="810.5" y="457.9307">6-16.5% interest</text><path d="M808.5,505.5674 L803.5,523.1143 L808.5,540.6611 M902.5,505.5674 L907.5,523.1143 L902.5,540.6611 " fill="#FFFFF0" filter="url(#f1g1ouqrw4o2xn)" style="stroke: #6495ED; stroke-width: 1.0;"/><text fill="#696969" font-family="sans-serif" font-size="12" lengthAdjust="spacingAndGlyphs" textLength="84" x="813.5" y="528.0244">2-4 month term</text><path d="M806,575.6611 L801,593.208 L806,610.7549 M905,575.6611 L910,593.208 L905,610.7549 " fill="#FFFFF0" filter="url(#f1g1ouqrw4o2xn)" style="stroke: #6495ED; stroke-width: 1.0;"/><text fill="#696969" font-family="sans-serif" font-size="12" lengthAdjust="spacingAndGlyphs" textLength="89" x="811" y="598.1182">closes in 3 days</text><path d="M800,645.7549 L795,663.3018 L800,680.8486 M911,645.7549 L916,663.3018 L911,680.8486 " fill="#FFFFF0" filter="url(#f1g1ouqrw4o2xn)" style="stroke: #6495ED; stroke-width: 1.0;"/><text fill="#696969" font-family="sans-serif" font-size="12" lengthAdjust="spacingAndGlyphs" textLength="101" x="805" y="668.2119">will loan to anyone</text><rect fill="#FFFFF0" filter="url(#f1g1ouqrw4o2xn)" height="235.4063" style="stroke: #6495ED; stroke-width: 1.0;" width="236" x="1045" y="391.5439"/><path d="M1271,392.5439 L1271,404.6689 L1261,414.6689 L1045,414.6689 " fill="none" style="stroke: #6495ED; stroke-width: 1.0;"/><text fill="#6495ED" font-family="sans-serif" font-size="16" lengthAdjust="spacingAndGlyphs" textLength="216" x="1048" y="409.1533">Rate and Term Refinance Loan</text><path d="M1145.5,431.6689 L1140.5,449.2158 L1145.5,466.7627 M1180.5,431.6689 L1185.5,449.2158 L1180.5,466.7627 " fill="#FFFFF0" filter="url(#f1g1ouqrw4o2xn)" style="stroke: #6495ED; stroke-width: 1.0;"/><text fill="#696969" font-family="sans-serif" font-size="12" lengthAdjust="spacingAndGlyphs" textLength="25" x="1150.5" y="454.126">75%</text><path d="M1079.5,501.7627 L1074.5,519.3096 L1079.5,536.8564 M1246.5,501.7627 L1251.5,519.3096 L1246.5,536.8564 " fill="#FFFFF0" filter="url(#f1g1ouqrw4o2xn)" style="stroke: #6495ED; stroke-width: 1.0;"/><text fill="#696969" font-family="sans-serif" font-size="12" lengthAdjust="spacingAndGlyphs" textLength="157" x="1084.5" y="524.2197">how to get out of hard money</text><rect fill="#DDA0DD" filter="url(#f1g1ouqrw4o2xn)" height="35.0938" rx="12.5" ry="12.5" style="stroke: #6495ED; stroke-width: 1.0;" width="145" x="1090.5" y="571.8564"/><text fill="#696969" font-family="sans-serif" font-size="12" lengthAdjust="spacingAndGlyphs" textLength="125" x="1100.5" y="594.3135">no more out of pocket?</text><rect fill="#FFFFF0" filter="url(#f1g1ouqrw4o2xn)" height="235.4063" style="stroke: #6495ED; stroke-width: 1.0;" width="222" x="1309" y="391.5439"/><path d="M1449,392.5439 L1449,404.6689 L1439,414.6689 L1309,414.6689 " fill="none" style="stroke: #6495ED; stroke-width: 1.0;"/><text fill="#6495ED" font-family="sans-serif" font-size="16" lengthAdjust="spacingAndGlyphs" textLength="130" x="1312" y="409.1533">Delayed Financing</text><rect fill="#DDA0DD" filter="url(#f1g1ouqrw4o2xn)" height="35.0938" rx="12.5" ry="12.5" style="stroke: #6495ED; stroke-width: 1.0;" width="81" x="1379.5" y="431.6689"/><text fill="#696969" font-family="sans-serif" font-size="12" lengthAdjust="spacingAndGlyphs" textLength="61" x="1389.5" y="454.126">offer cash?</text><path d="M1359.5,501.7627 L1354.5,519.3096 L1359.5,536.8564 M1480.5,501.7627 L1485.5,519.3096 L1480.5,536.8564 " fill="#FFFFF0" filter="url(#f1g1ouqrw4o2xn)" style="stroke: #6495ED; stroke-width: 1.0;"/><text fill="#696969" font-family="sans-serif" font-size="12" lengthAdjust="spacingAndGlyphs" textLength="111" x="1364.5" y="524.2197">75-80% of all in cost</text><path d="M1324,571.8564 L1319,589.4033 L1324,606.9502 M1516,571.8564 L1521,589.4033 L1516,606.9502 " fill="#FFFFF0" filter="url(#f1g1ouqrw4o2xn)" style="stroke: #6495ED; stroke-width: 1.0;"/><text fill="#696969" font-family="sans-serif" font-size="12" lengthAdjust="spacingAndGlyphs" textLength="182" x="1329" y="594.3135">get all money back minus repairs</text><rect fill="#FFFFF0" filter="url(#f1g1ouqrw4o2xn)" height="285.9844" style="stroke: #6495ED; stroke-width: 1.0;" width="252" x="1559" y="366.2549"/><path d="M1747,367.2549 L1747,379.3799 L1737,389.3799 L1559,389.3799 " fill="none" style="stroke: #6495ED; stroke-width: 1.0;"/><text fill="#6495ED" font-family="sans-serif" font-size="16" lengthAdjust="spacingAndGlyphs" textLength="178" x="1562" y="383.8643">Cash Out Refinance Loan</text><rect fill="#FFFFF0" filter="url(#f1g1ouqrw4o2xn)" height="35.0938" rx="12.5" ry="12.5" style="stroke: #6495ED; stroke-width: 1.0;" width="103" x="1613.5" y="406.3799"/><text fill="#696969" font-family="sans-serif" font-size="12" lengthAdjust="spacingAndGlyphs" textLength="83" x="1623.5" y="428.8369">buy it with cash</text><polygon fill="#FFFFF0" filter="url(#f1g1ouqrw4o2xn)" points="1598,476.4736,1732,476.4736,1744,495.3096,1732,514.1455,1598,514.1455,1586,495.3096,1598,476.4736" style="stroke: #6495ED; stroke-width: 1.0;"/><text fill="#A9A9A9" font-family="sans-serif" font-size="11" lengthAdjust="spacingAndGlyphs" textLength="134" x="1598" y="487.8926">6-12 months of "seasoning"</text><line style="stroke: #6495ED; stroke-width: 1.0;" x1="1586" x2="1744" y1="495.3096" y2="495.3096"/><line style="stroke: #6495ED; stroke-width: 1.0;" x1="1587.2742" x2="1742.7258" y1="497.3096" y2="497.3096"/><text fill="#A9A9A9" font-family="sans-serif" font-size="11" lengthAdjust="spacingAndGlyphs" textLength="86" x="1598" y="511.7285">(being rented out)</text><text fill="#696969" font-family="sans-serif" font-size="11" lengthAdjust="spacingAndGlyphs" textLength="12" x="1744" y="492.8926">no</text><ellipse cx="1778" cy="495.3096" fill="#FFFFFF" filter="url(#f1g1ouqrw4o2xn)" rx="11" ry="11" style="stroke: #FF7F50; stroke-width: 1.0;"/><ellipse cx="1778" cy="495.3096" fill="#FF7F50" rx="6" ry="6" style="stroke: #FFBFA7; stroke-width: 1.0;"/><path d="M1574,597.1455 L1569,614.6924 L1574,632.2393 M1756,597.1455 L1761,614.6924 L1756,632.2393 " fill="#FFFFF0" filter="url(#f1g1ouqrw4o2xn)" style="stroke: #6495ED; stroke-width: 1.0;"/><text fill="#696969" font-family="sans-serif" font-size="12" lengthAdjust="spacingAndGlyphs" textLength="172" x="1579" y="619.6025">pull out 75% of appraised value</text><rect fill="#FFFFF0" filter="url(#f1g1ouqrw4o2xn)" height="95.2188" style="stroke: #6495ED; stroke-width: 1.0;" width="139" x="1839" y="461.6377"/><path d="M1886,462.6377 L1886,474.7627 L1876,484.7627 L1839,484.7627 " fill="none" style="stroke: #6495ED; stroke-width: 1.0;"/><text fill="#6495ED" font-family="sans-serif" font-size="16" lengthAdjust="spacingAndGlyphs" textLength="37" x="1842" y="479.2471">Cash</text><rect fill="#FFFFF0" filter="url(#f1g1ouqrw4o2xn)" height="35.0938" rx="12.5" ry="12.5" style="stroke: #6495ED; stroke-width: 1.0;" width="119" x="1849" y="501.7627"/><text fill="#696969" font-family="sans-serif" font-size="12" lengthAdjust="spacingAndGlyphs" textLength="99" x="1859" y="524.2197">can buy 1 per year</text><rect fill="#000000" filter="url(#f1g1ouqrw4o2xn)" height="6" rx="2.5" ry="2.5" style="stroke: #000000; stroke-width: 1.0;" width="1982" x="10" y="820.8486"/><rect fill="#FFFFF0" filter="url(#f1g1ouqrw4o2xn)" height="35.0938" rx="12.5" ry="12.5" style="stroke: #6495ED; stroke-width: 1.0;" width="49" x="976.5" y="846.8486"/><text fill="#696969" font-family="sans-serif" font-size="12" lengthAdjust="spacingAndGlyphs" textLength="29" x="986.5" y="869.3057">apply</text><polygon fill="#FFFFF0" filter="url(#f1g1ouqrw4o2xn)" points="950,901.9424,1062,901.9424,1052,937.0361,940,937.0361" style="stroke: #6495ED; stroke-width: 1.0;"/><text fill="#696969" font-family="sans-serif" font-size="12" lengthAdjust="spacingAndGlyphs" textLength="102" x="950" y="924.3994">Qualification Letter</text><ellipse cx="1001" cy="967.0361" fill="#FFFFFF" filter="url(#f1g1ouqrw4o2xn)" rx="10" ry="10" style="stroke: #FF7F50; stroke-width: 1.5;"/><line style="stroke: #FF7F50; stroke-width: 2.5;" x1="994.8128" x2="1007.1872" y1="960.8489" y2="973.2233"/><line style="stroke: #FF7F50; stroke-width: 2.5;" x1="1007.1872" x2="994.8128" y1="960.8489" y2="973.2233"/><line style="stroke: #696969; stroke-width: 1.5;" x1="229.5" x2="229.5" y1="206.5156" y2="211.5156"/><line style="stroke: #696969; stroke-width: 1.5;" x1="296.5" x2="319.5" y1="194.5156" y2="194.5156"/><polygon fill="#696969" points="309.5,190.5156,319.5,194.5156,309.5,198.5156,313.5,194.5156" style="stroke: #696969; stroke-width: 1.0;"/><line style="stroke: #696969; stroke-width: 1.5;" x1="106.5" x2="106.5" y1="307.4346" y2="420.2275"/><polygon fill="#696969" points="102.5,410.2275,106.5,420.2275,110.5,410.2275,106.5,414.2275" style="stroke: #696969; stroke-width: 1.0;"/><line style="stroke: #696969; stroke-width: 1.5;" x1="179" x2="202" y1="295.4346" y2="295.4346"/><polygon fill="#696969" points="192,291.4346,202,295.4346,192,299.4346,196,295.4346" style="stroke: #696969; stroke-width: 1.0;"/><line style="stroke: #696969; stroke-width: 1.5;" x1="106.5" x2="106.5" y1="250.5156" y2="283.4346"/><polygon fill="#696969" points="102.5,273.4346,106.5,283.4346,110.5,273.4346,106.5,277.4346" style="stroke: #696969; stroke-width: 1.0;"/><line style="stroke: #696969; stroke-width: 1.5;" x1="315.5" x2="315.5" y1="250.5156" y2="283.4346"/><polygon fill="#696969" points="311.5,273.4346,315.5,283.4346,319.5,273.4346,315.5,277.4346" style="stroke: #696969; stroke-width: 1.0;"/><line style="stroke: #696969; stroke-width: 1.5;" x1="152.5" x2="256" y1="238.5156" y2="238.5156"/><polygon fill="#696969" points="246,234.5156,256,238.5156,246,242.5156,250,238.5156" style="stroke: #696969; stroke-width: 1.0;"/><line style="stroke: #696969; stroke-width: 1.5;" x1="229.5" x2="106.5" y1="211.5156" y2="211.5156"/><line style="stroke: #696969; stroke-width: 1.5;" x1="106.5" x2="106.5" y1="211.5156" y2="226.5156"/><polygon fill="#696969" points="102.5,216.5156,106.5,226.5156,110.5,216.5156,106.5,220.5156" style="stroke: #696969; stroke-width: 1.0;"/><line style="stroke: #696969; stroke-width: 1.5;" x1="375" x2="410" y1="238.5156" y2="238.5156"/><line style="stroke: #696969; stroke-width: 1.5;" x1="410" x2="410" y1="238.5156" y2="420.2275"/><polygon fill="#696969" points="406,410.2275,410,420.2275,414,410.2275,410,414.2275" style="stroke: #696969; stroke-width: 1.0;"/><line style="stroke: #696969; stroke-width: 1.5;" x1="106.5" x2="410" y1="420.2275" y2="420.2275"/><line style="stroke: #696969; stroke-width: 1.5;" x1="229.5" x2="229.5" y1="479.2275" y2="562.2275"/><polygon fill="#696969" points="225.5,552.2275,229.5,562.2275,233.5,552.2275,229.5,556.2275" style="stroke: #696969; stroke-width: 1.0;"/><line style="stroke: #696969; stroke-width: 1.5;" x1="285.5" x2="308.5" y1="467.2275" y2="467.2275"/><polygon fill="#696969" points="298.5,463.2275,308.5,467.2275,298.5,471.2275,302.5,467.2275" style="stroke: #696969; stroke-width: 1.0;"/><line style="stroke: #696969; stroke-width: 1.5;" x1="229.5" x2="229.5" y1="420.2275" y2="455.2275"/><polygon fill="#696969" points="225.5,445.2275,229.5,455.2275,233.5,445.2275,229.5,449.2275" style="stroke: #696969; stroke-width: 1.0;"/><line style="stroke: #696969; stroke-width: 1.5;" x1="229.5" x2="229.5" y1="586.2275" y2="669.2275"/><polygon fill="#696969" points="225.5,659.2275,229.5,669.2275,233.5,659.2275,229.5,663.2275" style="stroke: #696969; stroke-width: 1.0;"/><line style="stroke: #696969; stroke-width: 1.5;" x1="293" x2="322" y1="574.2275" y2="574.2275"/><polygon fill="#696969" points="312,570.2275,322,574.2275,312,578.2275,316,574.2275" style="stroke: #696969; stroke-width: 1.0;"/><line style="stroke: #696969; stroke-width: 1.5;" x1="229.5" x2="229.5" y1="693.2275" y2="720.8486"/><polygon fill="#696969" points="225.5,710.8486,229.5,720.8486,233.5,710.8486,229.5,714.8486" style="stroke: #696969; stroke-width: 1.0;"/><line style="stroke: #696969; stroke-width: 1.5;" x1="294" x2="323" y1="681.2275" y2="681.2275"/><polygon fill="#696969" points="313,677.2275,323,681.2275,313,685.2275,317,681.2275" style="stroke: #696969; stroke-width: 1.0;"/><line style="stroke: #696969; stroke-width: 1.5;" x1="229.5" x2="229.5" y1="744.8486" y2="764.8486"/><polygon fill="#696969" points="225.5,754.8486,229.5,764.8486,233.5,754.8486,229.5,758.8486" style="stroke: #696969; stroke-width: 1.0;"/><line style="stroke: #696969; stroke-width: 1.5;" x1="322.5" x2="351.5" y1="732.8486" y2="732.8486"/><polygon fill="#696969" points="341.5,728.8486,351.5,732.8486,341.5,736.8486,345.5,732.8486" style="stroke: #696969; stroke-width: 1.0;"/><line style="stroke: #696969; stroke-width: 1.5;" x1="229.5" x2="229.5" y1="788.8486" y2="820.8486"/><polygon fill="#696969" points="225.5,810.8486,229.5,820.8486,233.5,810.8486,229.5,814.8486" style="stroke: #696969; stroke-width: 1.0;"/><line style="stroke: #696969; stroke-width: 1.5;" x1="327" x2="356" y1="776.8486" y2="776.8486"/><polygon fill="#696969" points="346,772.8486,356,776.8486,346,780.8486,350,776.8486" style="stroke: #696969; stroke-width: 1.0;"/><line style="stroke: #696969; stroke-width: 1.5;" x1="581.5" x2="581.5" y1="437.2158" y2="520.2158"/><polygon fill="#696969" points="577.5,510.2158,581.5,520.2158,585.5,510.2158,581.5,514.2158" style="stroke: #696969; stroke-width: 1.0;"/><line style="stroke: #696969; stroke-width: 1.5;" x1="656" x2="679" y1="425.2158" y2="425.2158"/><polygon fill="#696969" points="669,421.2158,679,425.2158,669,429.2158,673,425.2158" style="stroke: #696969; stroke-width: 1.0;"/><line style="stroke: #696969; stroke-width: 1.5;" x1="581.5" x2="581.5" y1="555.3096" y2="590.3096"/><polygon fill="#696969" points="577.5,580.3096,581.5,590.3096,585.5,580.3096,581.5,584.3096" style="stroke: #696969; stroke-width: 1.0;"/><line style="stroke: #696969; stroke-width: 1.5;" x1="855.5" x2="855.5" y1="396.6689" y2="435.4736"/><polygon fill="#696969" points="851.5,425.4736,855.5,435.4736,859.5,425.4736,855.5,429.4736" style="stroke: #696969; stroke-width: 1.0;"/><line style="stroke: #696969; stroke-width: 1.5;" x1="855.5" x2="855.5" y1="470.5674" y2="505.5674"/><polygon fill="#696969" points="851.5,495.5674,855.5,505.5674,859.5,495.5674,855.5,499.5674" style="stroke: #696969; stroke-width: 1.0;"/><line style="stroke: #696969; stroke-width: 1.5;" x1="855.5" x2="855.5" y1="540.6611" y2="575.6611"/><polygon fill="#696969" points="851.5,565.6611,855.5,575.6611,859.5,565.6611,855.5,569.6611" style="stroke: #696969; stroke-width: 1.0;"/><line style="stroke: #696969; stroke-width: 1.5;" x1="855.5" x2="855.5" y1="610.7549" y2="645.7549"/><polygon fill="#696969" points="851.5,635.7549,855.5,645.7549,859.5,635.7549,855.5,639.7549" style="stroke: #696969; stroke-width: 1.0;"/><line style="stroke: #696969; stroke-width: 1.5;" x1="1163" x2="1163" y1="466.7627" y2="501.7627"/><polygon fill="#696969" points="1159,491.7627,1163,501.7627,1167,491.7627,1163,495.7627" style="stroke: #696969; stroke-width: 1.0;"/><line style="stroke: #696969; stroke-width: 1.5;" x1="1163" x2="1163" y1="536.8564" y2="571.8564"/><polygon fill="#696969" points="1159,561.8564,1163,571.8564,1167,561.8564,1163,565.8564" style="stroke: #696969; stroke-width: 1.0;"/><line style="stroke: #696969; stroke-width: 1.5;" x1="1420" x2="1420" y1="466.7627" y2="501.7627"/><polygon fill="#696969" points="1416,491.7627,1420,501.7627,1424,491.7627,1420,495.7627" style="stroke: #696969; stroke-width: 1.0;"/><line style="stroke: #696969; stroke-width: 1.5;" x1="1420" x2="1420" y1="536.8564" y2="571.8564"/><polygon fill="#696969" points="1416,561.8564,1420,571.8564,1424,561.8564,1420,565.8564" style="stroke: #696969; stroke-width: 1.0;"/><line style="stroke: #696969; stroke-width: 1.5;" x1="1665" x2="1665" y1="514.1455" y2="597.1455"/><polygon fill="#696969" points="1661,587.1455,1665,597.1455,1669,587.1455,1665,591.1455" style="stroke: #696969; stroke-width: 1.0;"/><line style="stroke: #696969; stroke-width: 1.5;" x1="1744" x2="1767" y1="495.3096" y2="495.3096"/><polygon fill="#696969" points="1757,491.3096,1767,495.3096,1757,499.3096,1761,495.3096" style="stroke: #696969; stroke-width: 1.0;"/><line style="stroke: #696969; stroke-width: 1.5;" x1="1665" x2="1665" y1="441.4736" y2="476.4736"/><polygon fill="#696969" points="1661,466.4736,1665,476.4736,1669,466.4736,1665,470.4736" style="stroke: #696969; stroke-width: 1.0;"/><line style="stroke: #696969; stroke-width: 1.5;" x1="229.5" x2="229.5" y1="131.375" y2="182.5156"/><polygon fill="#696969" points="225.5,172.5156,229.5,182.5156,233.5,172.5156,229.5,176.5156" style="stroke: #696969; stroke-width: 1.0;"/><line style="stroke: #696969; stroke-width: 1.5;" x1="581.5" x2="581.5" y1="131.375" y2="413.2158"/><polygon fill="#696969" points="577.5,403.2158,581.5,413.2158,585.5,403.2158,581.5,407.2158" style="stroke: #696969; stroke-width: 1.0;"/><line style="stroke: #696969; stroke-width: 1.5;" x1="855.5" x2="855.5" y1="131.375" y2="361.5752"/><polygon fill="#696969" points="851.5,351.5752,855.5,361.5752,859.5,351.5752,855.5,355.5752" style="stroke: #696969; stroke-width: 1.0;"/><line style="stroke: #696969; stroke-width: 1.5;" x1="1163" x2="1163" y1="131.375" y2="431.6689"/><polygon fill="#696969" points="1159,421.6689,1163,431.6689,1167,421.6689,1163,425.6689" style="stroke: #696969; stroke-width: 1.0;"/><line style="stroke: #696969; stroke-width: 1.5;" x1="1420" x2="1420" y1="131.375" y2="431.6689"/><polygon fill="#696969" points="1416,421.6689,1420,431.6689,1424,421.6689,1420,425.6689" style="stroke: #696969; stroke-width: 1.0;"/><line style="stroke: #696969; stroke-width: 1.5;" x1="1665" x2="1665" y1="131.375" y2="406.3799"/><polygon fill="#696969" points="1661,396.3799,1665,406.3799,1669,396.3799,1665,400.3799" style="stroke: #696969; stroke-width: 1.0;"/><line style="stroke: #696969; stroke-width: 1.5;" x1="1908.5" x2="1908.5" y1="131.375" y2="501.7627"/><polygon fill="#696969" points="1904.5,491.7627,1908.5,501.7627,1912.5,491.7627,1908.5,495.7627" style="stroke: #696969; stroke-width: 1.0;"/><line style="stroke: #696969; stroke-width: 1.5;" x1="581.5" x2="581.5" y1="625.4033" y2="820.8486"/><polygon fill="#696969" points="577.5,810.8486,581.5,820.8486,585.5,810.8486,581.5,814.8486" style="stroke: #696969; stroke-width: 1.0;"/><line style="stroke: #696969; stroke-width: 1.5;" x1="855.5" x2="855.5" y1="680.8486" y2="820.8486"/><polygon fill="#696969" points="851.5,810.8486,855.5,820.8486,859.5,810.8486,855.5,814.8486" style="stroke: #696969; stroke-width: 1.0;"/><line style="stroke: #696969; stroke-width: 1.5;" x1="1163" x2="1163" y1="606.9502" y2="820.8486"/><polygon fill="#696969" points="1159,810.8486,1163,820.8486,1167,810.8486,1163,814.8486" style="stroke: #696969; stroke-width: 1.0;"/><line style="stroke: #696969; stroke-width: 1.5;" x1="1420" x2="1420" y1="606.9502" y2="820.8486"/><polygon fill="#696969" points="1416,810.8486,1420,820.8486,1424,810.8486,1420,814.8486" style="stroke: #696969; stroke-width: 1.0;"/><line style="stroke: #696969; stroke-width: 1.5;" x1="1665" x2="1665" y1="632.2393" y2="820.8486"/><polygon fill="#696969" points="1661,810.8486,1665,820.8486,1669,810.8486,1665,814.8486" style="stroke: #696969; stroke-width: 1.0;"/><line style="stroke: #696969; stroke-width: 1.5;" x1="1908.5" x2="1908.5" y1="536.8564" y2="820.8486"/><polygon fill="#696969" points="1904.5,810.8486,1908.5,820.8486,1912.5,810.8486,1908.5,814.8486" style="stroke: #696969; stroke-width: 1.0;"/><line style="stroke: #696969; stroke-width: 1.5;" x1="1001" x2="1001" y1="105.375" y2="125.375"/><polygon fill="#696969" points="997,115.375,1001,125.375,1005,115.375,1001,119.375" style="stroke: #696969; stroke-width: 1.0;"/><line style="stroke: #696969; stroke-width: 1.5;" x1="1001" x2="1001" y1="826.8486" y2="846.8486"/><polygon fill="#696969" points="997,836.8486,1001,846.8486,1005,836.8486,1001,840.8486" style="stroke: #696969; stroke-width: 1.0;"/><line style="stroke: #696969; stroke-width: 1.5;" x1="1001" x2="1001" y1="881.9424" y2="901.9424"/><polygon fill="#696969" points="997,891.9424,1001,901.9424,1005,891.9424,1001,895.9424" style="stroke: #696969; stroke-width: 1.0;"/><line style="stroke: #696969; stroke-width: 1.5;" x1="1001" x2="1001" y1="937.0361" y2="957.0361"/><polygon fill="#696969" points="997,947.0361,1001,957.0361,1005,947.0361,1001,951.0361" style="stroke: #696969; stroke-width: 1.0;"/><rect fill="#B0C4DE" height="49.2188" rx="5" ry="5" style="stroke: #6495ED; stroke-width: 1.0;" width="178" x="911" y="984.0361"/><text fill="#FFFFFF" font-family="sans-serif" font-size="14" lengthAdjust="spacingAndGlyphs" textLength="40" x="917" y="1003.5693">Terms</text><text fill="#FFFFFF" font-family="sans-serif" font-size="14" font-weight="bold" lengthAdjust="spacingAndGlyphs" textLength="28" x="921" y="1023.1787">ARV</text><text fill="#FFFFFF" font-family="sans-serif" font-size="14" font-weight="bold" lengthAdjust="spacingAndGlyphs" textLength="122" x="957" y="1023.1787">after repair value</text><line style="stroke: #FFFFFF; stroke-width: 1.0;" x1="917" x2="1083" y1="1008.6455" y2="1008.6455"/><line style="stroke: #FFFFFF; stroke-width: 1.0;" x1="917" x2="1083" y1="1026.2549" y2="1026.2549"/><line style="stroke: #FFFFFF; stroke-width: 1.0;" x1="917" x2="917" y1="1008.6455" y2="1026.2549"/><line style="stroke: #FFFFFF; stroke-width: 1.0;" x1="953" x2="953" y1="1008.6455" y2="1026.2549"/><line style="stroke: #FFFFFF; stroke-width: 1.0;" x1="1083" x2="1083" y1="1008.6455" y2="1026.2549"/><text fill="#000080" font-family="sans-serif" font-size="14" lengthAdjust="spacingAndGlyphs" textLength="42" x="10" y="1056.7881">©2019</text><a target="_top" xlink:actuate="onRequest" xlink:href="http://www.lifestylesunlimited.com" xlink:show="new" xlink:title="http://www.lifestylesunlimited.com" xlink:type="simple"><text fill="#0000FF" font-family="sans-serif" font-size="14" lengthAdjust="spacingAndGlyphs" text-decoration="underline" textLength="122" x="56" y="1056.7881">LifeStyles Unlimited</text><line style="stroke: #0000FF; stroke-width: 1.0;" x1="56" x2="178" y1="1058.7881" y2="1058.7881"/></a><text fill="#000080" font-family="sans-serif" font-size="14" lengthAdjust="spacingAndGlyphs" textLength="279" x="182" y="1056.7881">| Generated Sat May 18 14:00:51 CDT 2019</text><!--
@startuml pre-qualification


skinparam {
  BorderColor Red
  PathHoverColor Blue
}

skinparam Title {
  FontColor Navy
  BackgroundColor PaleGoldenRod
  BorderColor Navy
  BorderRoundCorner 20
  FontSize 24
}

skinparam activity {
  BackgroundColor Ivory
  BorderColor CornflowerBlue
  BorderThickness 1
  FontColor DimGray
  

  Arrow {
    Color dimgray
    FontColor dimgray
  }

  Start {
    Color PHYSICAL
  }

  End {
    Color Coral
  }

  Diamond {
    BackgroundColor Ivory
    BorderColor CornflowerBlue
    FontColor DarkGray
  }

  BackgroundColor<< Exception >> Red
	BorderColor<< Exception >> White
}

skinparam Swimlane {
  BorderColor CornflowerBlue 
}

skinparam Partition {
  BackgroundColor Ivory
  BorderColor CornflowerBlue
  BorderThickness 1
  FontColor CornflowerBlue
  FontSize 16
  BorderRoundCorner 20
}

skinparam Note {
  BackgroundColor LightSteelBlue
  BorderColor CornflowerBlue
  FontColor White
}

skinparam Legend {
  BackgroundColor LightSteelBlue
  BorderColor CornflowerBlue
  FontColor White
}

skinparam Footer {
  FontColor Navy
}


left header 
	<font color=Navy size=24>[[../index.svg?sanitize=true ⌂ Home]]</font>
endheader


	Title Pre-Qualification

	start

  fork

    partition Conventional {

      if(  debt / income <= 50%) then(no)
        stop
      endif
      
      if(self-employed) then (yes)
        if(2 years profit tax returns) then(no)
          stop
        endif
      elseif(years employed > 2) then(no)
        stop
      endif
      
      if(credit score > 620) then(no)
        stop
      endif
      if(bankruptcy < 4 years) then(yes)
        stop
      endif
      if(foreclosure < 7 years) then(yes)
        stop
      endif
      if(short sale / deed-in-lieu < 4 years) then(yes)
        stop
      endif
      if(late mortgage payment < 12 months) then(yes)
        stop
      endif

    }

  fork again
    partition "Fannie Mae Purchase Money Mortgage" {
      if(house in perfect condition) then (no)
        stop
      endif
      :75-80% lending out}
      :15% down}
    }
    
  fork again
    partition "Hard Money Loan" {
      :70% ARV}
      note right: don't do 75%\nuntil refi
      :6-16.5% interest}
      :2-4 month term}
      :closes in 3 days}
      :will loan to anyone}
    }

  fork again
    partition "Rate and Term Refinance Loan" {
      :75%}
      :how to get out of hard money}
      #Plum:no more out of pocket?;
    }

  fork again
    partition "Delayed Financing" {
      #Plum:offer cash?;
      :75-80% of all in cost}
      :get all money back minus repairs}
    }

  fork again
    partition "Cash Out Refinance Loan" {
      :buy it with cash;
      if(6-12 months of "seasoning"\n====\n(being rented out)) then (no)
        stop
      endif
      :pull out 75% of appraised value}
    }
  fork again
    partition "Cash" {
      :can buy 1 per year;
    }
  end fork

  :apply;

  :Qualification Letter/

  end

  legend
    Terms
    | ARV | after repair value |
  end legend


left footer 
	<font size=14>©2019 [[http://www.lifestylesunlimited.com LifeStyles Unlimited]] | Generated Sat May 18 14:00:51 CDT 2019</font>
endfooter


@enduml

PlantUML version 1.2019.03(Sun Mar 10 06:04:44 CDT 2019)
(GPL source distribution)
Java Runtime: Java(TM) SE Runtime Environment
JVM: Java HotSpot(TM) 64-Bit Server VM
Java Version: 1.8.0_111-b14
Operating System: Windows 10
OS Version: 10.0
Default Encoding: Cp1252
Language: en
Country: US
--></g></svg>