<?xml version="1.0" encoding="UTF-8" standalone="no"?><svg xmlns="http://www.w3.org/2000/svg" xmlns:xlink="http://www.w3.org/1999/xlink" contentScriptType="application/ecmascript" contentStyleType="text/css" height="885px" preserveAspectRatio="none" style="width:1730px;height:885px;" version="1.1" viewBox="0 0 1730 885" width="1730px" zoomAndPan="magnify"><defs><style type="text/css"><![CDATA[path:hover { stroke: #0000FF !important;}]]></style><filter height="300%" id="fa1td5uomp3ub" width="300%" x="-1" y="-1"><feGaussianBlur result="blurOut" stdDeviation="2.0"/><feColorMatrix in="blurOut" result="blurOut2" type="matrix" values="0 0 0 0 0 0 0 0 0 0 0 0 0 0 0 0 0 0 .4 0"/><feOffset dx="4.0" dy="4.0" in="blurOut2" result="blurOut3"/><feBlend in="SourceGraphic" in2="blurOut3" mode="normal"/></filter></defs><g><a target="_top" xlink:actuate="onRequest" xlink:href="../index.svg" xlink:show="new" xlink:title="../index.svg" xlink:type="simple"><text fill="#0000FF" font-family="sans-serif" font-size="18" lengthAdjust="spacingAndGlyphs" text-decoration="underline" textLength="67" x="10" y="28.6855">⌂ Home</text><line style="stroke: #0000FF; stroke-width: 1.0;" x1="10" x2="77" y1="30.6855" y2="30.6855"/></a><rect fill="#EEE8AA" height="32.6406" rx="10" ry="10" style="stroke: #000080; stroke-width: 1.5;" width="149" x="789" y="34.6406"/><text fill="#000080" font-family="sans-serif" font-size="18" lengthAdjust="spacingAndGlyphs" textLength="133" x="797" y="58.3262">Pre-Qualification</text><ellipse cx="864.5" cy="80.2813" fill="#CCFFCC" filter="url(#fa1td5uomp3ub)" rx="10" ry="10" style="stroke: none; stroke-width: 1.0;"/><rect fill="#000000" filter="url(#fa1td5uomp3ub)" height="6" rx="2.5" ry="2.5" style="stroke: #000000; stroke-width: 1.0;" width="1709" x="10" y="110.2813"/><rect fill="#FFFFF0" filter="url(#fa1td5uomp3ub)" height="555.4658" style="stroke: #6495ED; stroke-width: 1.0;" width="411" x="24" y="127.2969"/><path d="M124,128.2969 L124,140.4219 L114,150.4219 L24,150.4219 " fill="none" style="stroke: #6495ED; stroke-width: 1.0;"/><text fill="#6495ED" font-family="sans-serif" font-size="16" lengthAdjust="spacingAndGlyphs" textLength="90" x="27" y="144.9063">Conventional</text><polygon fill="#FFFFF0" filter="url(#fa1td5uomp3ub)" points="174.5,167.4219,284.5,167.4219,296.5,179.4219,284.5,191.4219,174.5,191.4219,162.5,179.4219,174.5,167.4219" style="stroke: #6495ED; stroke-width: 1.5;"/><text fill="#A9A9A9" font-family="sans-serif" font-size="11" lengthAdjust="spacingAndGlyphs" textLength="104" x="180.5" y="183.9229">debt / income &lt;= 50%</text><text fill="#696969" font-family="sans-serif" font-size="11" lengthAdjust="spacingAndGlyphs" textLength="12" x="296.5" y="177.0049">no</text><ellipse cx="330.5" cy="179.4219" fill="#FFFFFF" filter="url(#fa1td5uomp3ub)" rx="11" ry="11" style="stroke: #FF7F50; stroke-width: 1.0;"/><ellipse cx="330.5" cy="179.4219" fill="#FF7F50" rx="6" ry="6" style="stroke: #FFBFA7; stroke-width: 1.0;"/><polygon fill="#FFFFF0" filter="url(#fa1td5uomp3ub)" points="72.5,211.4219,140.5,211.4219,152.5,223.4219,140.5,235.4219,72.5,235.4219,60.5,223.4219,72.5,211.4219" style="stroke: #6495ED; stroke-width: 1.5;"/><text fill="#696969" font-family="sans-serif" font-size="11" lengthAdjust="spacingAndGlyphs" textLength="18" x="110.5" y="246.8408">yes</text><text fill="#A9A9A9" font-family="sans-serif" font-size="11" lengthAdjust="spacingAndGlyphs" textLength="68" x="72.5" y="227.9229">self-employed</text><polygon fill="#FFFFF0" filter="url(#fa1td5uomp3ub)" points="46,268.3408,167,268.3408,179,280.3408,167,292.3408,46,292.3408,34,280.3408,46,268.3408" style="stroke: #6495ED; stroke-width: 1.5;"/><text fill="#A9A9A9" font-family="sans-serif" font-size="11" lengthAdjust="spacingAndGlyphs" textLength="121" x="46" y="284.8418">2 years profit tax returns</text><text fill="#696969" font-family="sans-serif" font-size="11" lengthAdjust="spacingAndGlyphs" textLength="12" x="179" y="277.9238">no</text><ellipse cx="213" cy="280.3408" fill="#FFFFFF" filter="url(#fa1td5uomp3ub)" rx="11" ry="11" style="stroke: #FF7F50; stroke-width: 1.0;"/><ellipse cx="213" cy="280.3408" fill="#FF7F50" rx="6" ry="6" style="stroke: #FFBFA7; stroke-width: 1.0;"/><polygon fill="#FFFFF0" filter="url(#fa1td5uomp3ub)" points="268,211.4219,363,211.4219,375,223.4219,363,235.4219,268,235.4219,256,223.4219,268,211.4219" style="stroke: #6495ED; stroke-width: 1.5;"/><text fill="#696969" font-family="sans-serif" font-size="11" lengthAdjust="spacingAndGlyphs" textLength="12" x="319.5" y="246.8408">no</text><text fill="#A9A9A9" font-family="sans-serif" font-size="11" lengthAdjust="spacingAndGlyphs" textLength="95" x="268" y="227.9229">years employed &gt; 2</text><ellipse cx="315.5" cy="279.3408" fill="#FFFFFF" filter="url(#fa1td5uomp3ub)" rx="11" ry="11" style="stroke: #FF7F50; stroke-width: 1.0;"/><ellipse cx="315.5" cy="279.3408" fill="#FF7F50" rx="6" ry="6" style="stroke: #FFBFA7; stroke-width: 1.0;"/><polygon fill="#FFFFF0" filter="url(#fa1td5uomp3ub)" points="185.5,367.04,273.5,367.04,285.5,379.04,273.5,391.04,185.5,391.04,173.5,379.04,185.5,367.04" style="stroke: #6495ED; stroke-width: 1.5;"/><text fill="#A9A9A9" font-family="sans-serif" font-size="11" lengthAdjust="spacingAndGlyphs" textLength="88" x="185.5" y="383.541">credit score &gt; 650</text><text fill="#696969" font-family="sans-serif" font-size="11" lengthAdjust="spacingAndGlyphs" textLength="12" x="285.5" y="376.623">no</text><ellipse cx="319.5" cy="379.04" fill="#FFFFFF" filter="url(#fa1td5uomp3ub)" rx="11" ry="11" style="stroke: #FF7F50; stroke-width: 1.0;"/><ellipse cx="319.5" cy="379.04" fill="#FF7F50" rx="6" ry="6" style="stroke: #FFBFA7; stroke-width: 1.0;"/><polygon fill="#FFFFF0" filter="url(#fa1td5uomp3ub)" points="178,474.04,281,474.04,293,486.04,281,498.04,178,498.04,166,486.04,178,474.04" style="stroke: #6495ED; stroke-width: 1.5;"/><text fill="#A9A9A9" font-family="sans-serif" font-size="11" lengthAdjust="spacingAndGlyphs" textLength="103" x="178" y="490.541">bankruptcy &lt; 4 years</text><text fill="#696969" font-family="sans-serif" font-size="11" lengthAdjust="spacingAndGlyphs" textLength="18" x="293" y="483.623">yes</text><ellipse cx="333" cy="486.04" fill="#FFFFFF" filter="url(#fa1td5uomp3ub)" rx="11" ry="11" style="stroke: #FF7F50; stroke-width: 1.0;"/><ellipse cx="333" cy="486.04" fill="#FF7F50" rx="6" ry="6" style="stroke: #FFBFA7; stroke-width: 1.0;"/><polygon fill="#FFFFF0" filter="url(#fa1td5uomp3ub)" points="177,558.7627,282,558.7627,294,570.7627,282,582.7627,177,582.7627,165,570.7627,177,558.7627" style="stroke: #6495ED; stroke-width: 1.5;"/><text fill="#A9A9A9" font-family="sans-serif" font-size="11" lengthAdjust="spacingAndGlyphs" textLength="105" x="177" y="575.2637">foreclosure &lt; 7 years</text><text fill="#696969" font-family="sans-serif" font-size="11" lengthAdjust="spacingAndGlyphs" textLength="18" x="294" y="568.3457">yes</text><ellipse cx="334" cy="570.7627" fill="#FFFFFF" filter="url(#fa1td5uomp3ub)" rx="11" ry="11" style="stroke: #FF7F50; stroke-width: 1.0;"/><ellipse cx="334" cy="570.7627" fill="#FF7F50" rx="6" ry="6" style="stroke: #FFBFA7; stroke-width: 1.0;"/><polygon fill="#FFFFF0" filter="url(#fa1td5uomp3ub)" points="148.5,602.7627,310.5,602.7627,322.5,614.7627,310.5,626.7627,148.5,626.7627,136.5,614.7627,148.5,602.7627" style="stroke: #6495ED; stroke-width: 1.5;"/><text fill="#A9A9A9" font-family="sans-serif" font-size="11" lengthAdjust="spacingAndGlyphs" textLength="162" x="148.5" y="619.2637">short sale / deed-in-lieu &lt; 4 years</text><text fill="#696969" font-family="sans-serif" font-size="11" lengthAdjust="spacingAndGlyphs" textLength="18" x="322.5" y="612.3457">yes</text><ellipse cx="362.5" cy="614.7627" fill="#FFFFFF" filter="url(#fa1td5uomp3ub)" rx="11" ry="11" style="stroke: #FF7F50; stroke-width: 1.0;"/><ellipse cx="362.5" cy="614.7627" fill="#FF7F50" rx="6" ry="6" style="stroke: #FFBFA7; stroke-width: 1.0;"/><polygon fill="#FFFFF0" filter="url(#fa1td5uomp3ub)" points="144,646.7627,315,646.7627,327,658.7627,315,670.7627,144,670.7627,132,658.7627,144,646.7627" style="stroke: #6495ED; stroke-width: 1.5;"/><text fill="#A9A9A9" font-family="sans-serif" font-size="11" lengthAdjust="spacingAndGlyphs" textLength="171" x="144" y="663.2637">late mortgage payment &lt; 12 months</text><text fill="#696969" font-family="sans-serif" font-size="11" lengthAdjust="spacingAndGlyphs" textLength="18" x="327" y="656.3457">yes</text><ellipse cx="367" cy="658.7627" fill="#FFFFFF" filter="url(#fa1td5uomp3ub)" rx="11" ry="11" style="stroke: #FF7F50; stroke-width: 1.0;"/><ellipse cx="367" cy="658.7627" fill="#FF7F50" rx="6" ry="6" style="stroke: #FFBFA7; stroke-width: 1.0;"/><rect fill="#FFFFF0" filter="url(#fa1td5uomp3ub)" height="202.2188" style="stroke: #6495ED; stroke-width: 1.0;" width="294" x="463" y="319.9502"/><path d="M747,320.9502 L747,333.0752 L737,343.0752 L463,343.0752 " fill="none" style="stroke: #6495ED; stroke-width: 1.0;"/><text fill="#6495ED" font-family="sans-serif" font-size="16" lengthAdjust="spacingAndGlyphs" textLength="274" x="466" y="337.5596">Fannie Mae Purchase Money Mortgage</text><polygon fill="#FFFFF0" filter="url(#fa1td5uomp3ub)" points="519,360.0752,644,360.0752,656,372.0752,644,384.0752,519,384.0752,507,372.0752,519,360.0752" style="stroke: #6495ED; stroke-width: 1.5;"/><text fill="#A9A9A9" font-family="sans-serif" font-size="11" lengthAdjust="spacingAndGlyphs" textLength="125" x="519" y="376.5762">house in perfect condition</text><text fill="#696969" font-family="sans-serif" font-size="11" lengthAdjust="spacingAndGlyphs" textLength="12" x="656" y="369.6582">no</text><ellipse cx="690" cy="372.0752" fill="#FFFFFF" filter="url(#fa1td5uomp3ub)" rx="11" ry="11" style="stroke: #FF7F50; stroke-width: 1.0;"/><ellipse cx="690" cy="372.0752" fill="#FF7F50" rx="6" ry="6" style="stroke: #FFBFA7; stroke-width: 1.0;"/><path d="M523,467.0752 L518,484.6221 L523,502.1689 M640,467.0752 L645,484.6221 L640,502.1689 " fill="#FFFFF0" filter="url(#fa1td5uomp3ub)" style="stroke: #6495ED; stroke-width: 1.5;"/><text fill="#696969" font-family="sans-serif" font-size="12" lengthAdjust="spacingAndGlyphs" textLength="107" x="528" y="489.5322">75-80% lending out</text><rect fill="#FFFFF0" filter="url(#fa1td5uomp3ub)" height="235.4063" style="stroke: #6495ED; stroke-width: 1.0;" width="143" x="785" y="303.3564"/><path d="M918,304.3564 L918,316.4814 L908,326.4814 L785,326.4814 " fill="none" style="stroke: #6495ED; stroke-width: 1.0;"/><text fill="#6495ED" font-family="sans-serif" font-size="16" lengthAdjust="spacingAndGlyphs" textLength="123" x="788" y="320.9658">Hard Money Loan</text><path d="M817,343.4814 L812,361.0283 L817,378.5752 M896,343.4814 L901,361.0283 L896,378.5752 " fill="#FFFFF0" filter="url(#fa1td5uomp3ub)" style="stroke: #6495ED; stroke-width: 1.5;"/><text fill="#696969" font-family="sans-serif" font-size="12" lengthAdjust="spacingAndGlyphs" textLength="69" x="822" y="365.9385">70-75% ARV</text><path d="M806.5,413.5752 L801.5,431.1221 L806.5,448.6689 M906.5,413.5752 L911.5,431.1221 L906.5,448.6689 " fill="#FFFFF0" filter="url(#fa1td5uomp3ub)" style="stroke: #6495ED; stroke-width: 1.5;"/><text fill="#696969" font-family="sans-serif" font-size="12" lengthAdjust="spacingAndGlyphs" textLength="90" x="811.5" y="436.0322">6-16.5% interest</text><path d="M809.5,483.6689 L804.5,501.2158 L809.5,518.7627 M903.5,483.6689 L908.5,501.2158 L903.5,518.7627 " fill="#FFFFF0" filter="url(#fa1td5uomp3ub)" style="stroke: #6495ED; stroke-width: 1.5;"/><text fill="#696969" font-family="sans-serif" font-size="12" lengthAdjust="spacingAndGlyphs" textLength="84" x="814.5" y="506.126">2-4 month term</text><rect fill="#FFFFF0" filter="url(#fa1td5uomp3ub)" height="165.3125" style="stroke: #6495ED; stroke-width: 1.0;" width="236" x="956" y="338.4033"/><path d="M1182,339.4033 L1182,351.5283 L1172,361.5283 L956,361.5283 " fill="none" style="stroke: #6495ED; stroke-width: 1.0;"/><text fill="#6495ED" font-family="sans-serif" font-size="16" lengthAdjust="spacingAndGlyphs" textLength="216" x="959" y="356.0127">Rate and Term Refinance Loan</text><path d="M1056.5,378.5283 L1051.5,396.0752 L1056.5,413.6221 M1091.5,378.5283 L1096.5,396.0752 L1091.5,413.6221 " fill="#FFFFF0" filter="url(#fa1td5uomp3ub)" style="stroke: #6495ED; stroke-width: 1.5;"/><text fill="#696969" font-family="sans-serif" font-size="12" lengthAdjust="spacingAndGlyphs" textLength="25" x="1061.5" y="400.9854">75%</text><rect fill="#DDA0DD" filter="url(#fa1td5uomp3ub)" height="35.0938" rx="12.5" ry="12.5" style="stroke: #6495ED; stroke-width: 1.5;" width="145" x="1001.5" y="448.6221"/><text fill="#696969" font-family="sans-serif" font-size="12" lengthAdjust="spacingAndGlyphs" textLength="125" x="1011.5" y="471.0791">no more out of pocket?</text><rect fill="#FFFFF0" filter="url(#fa1td5uomp3ub)" height="235.4063" style="stroke: #6495ED; stroke-width: 1.0;" width="222" x="1220" y="303.3564"/><path d="M1360,304.3564 L1360,316.4814 L1350,326.4814 L1220,326.4814 " fill="none" style="stroke: #6495ED; stroke-width: 1.0;"/><text fill="#6495ED" font-family="sans-serif" font-size="16" lengthAdjust="spacingAndGlyphs" textLength="130" x="1223" y="320.9658">Delayed Financing</text><path d="M1270.5,343.4814 L1265.5,361.0283 L1270.5,378.5752 M1391.5,343.4814 L1396.5,361.0283 L1391.5,378.5752 " fill="#FFFFF0" filter="url(#fa1td5uomp3ub)" style="stroke: #6495ED; stroke-width: 1.5;"/><text fill="#696969" font-family="sans-serif" font-size="12" lengthAdjust="spacingAndGlyphs" textLength="111" x="1275.5" y="365.9385">75-80% of all in cost</text><path d="M1235,413.5752 L1230,431.1221 L1235,448.6689 M1427,413.5752 L1432,431.1221 L1427,448.6689 " fill="#FFFFF0" filter="url(#fa1td5uomp3ub)" style="stroke: #6495ED; stroke-width: 1.5;"/><text fill="#696969" font-family="sans-serif" font-size="12" lengthAdjust="spacingAndGlyphs" textLength="182" x="1240" y="436.0322">get all money back minus repairs</text><rect fill="#DDA0DD" filter="url(#fa1td5uomp3ub)" height="35.0938" rx="12.5" ry="12.5" style="stroke: #6495ED; stroke-width: 1.5;" width="81" x="1290.5" y="483.6689"/><text fill="#696969" font-family="sans-serif" font-size="12" lengthAdjust="spacingAndGlyphs" textLength="61" x="1300.5" y="506.126">offer cash?</text><rect fill="#FFFFF0" filter="url(#fa1td5uomp3ub)" height="215.8906" style="stroke: #6495ED; stroke-width: 1.0;" width="235" x="1470" y="313.1143"/><path d="M1658,314.1143 L1658,326.2393 L1648,336.2393 L1470,336.2393 " fill="none" style="stroke: #6495ED; stroke-width: 1.0;"/><text fill="#6495ED" font-family="sans-serif" font-size="16" lengthAdjust="spacingAndGlyphs" textLength="178" x="1473" y="330.7236">Cash Out Refinance Loan</text><polygon fill="#FFFFF0" filter="url(#fa1td5uomp3ub)" points="1492,353.2393,1626,353.2393,1638,372.0752,1626,390.9111,1492,390.9111,1480,372.0752,1492,353.2393" style="stroke: #6495ED; stroke-width: 1.5;"/><text fill="#A9A9A9" font-family="sans-serif" font-size="11" lengthAdjust="spacingAndGlyphs" textLength="134" x="1492" y="364.6582">6-12 months of "seasoning"</text><line style="stroke: #6495ED; stroke-width: 1.0;" x1="1480" x2="1638" y1="372.0752" y2="372.0752"/><line style="stroke: #6495ED; stroke-width: 1.0;" x1="1481.2742" x2="1636.7258" y1="374.0752" y2="374.0752"/><text fill="#A9A9A9" font-family="sans-serif" font-size="11" lengthAdjust="spacingAndGlyphs" textLength="86" x="1492" y="388.4941">(being rented out)</text><text fill="#696969" font-family="sans-serif" font-size="11" lengthAdjust="spacingAndGlyphs" textLength="12" x="1638" y="369.6582">no</text><ellipse cx="1672" cy="372.0752" fill="#FFFFFF" filter="url(#fa1td5uomp3ub)" rx="11" ry="11" style="stroke: #FF7F50; stroke-width: 1.0;"/><ellipse cx="1672" cy="372.0752" fill="#FF7F50" rx="6" ry="6" style="stroke: #FFBFA7; stroke-width: 1.0;"/><path d="M1489.5,473.9111 L1484.5,491.458 L1489.5,509.0049 M1628.5,473.9111 L1633.5,491.458 L1628.5,509.0049 " fill="#FFFFF0" filter="url(#fa1td5uomp3ub)" style="stroke: #6495ED; stroke-width: 1.5;"/><text fill="#696969" font-family="sans-serif" font-size="12" lengthAdjust="spacingAndGlyphs" textLength="129" x="1494.5" y="496.3682">75% of appraised value</text><rect fill="#000000" filter="url(#fa1td5uomp3ub)" height="6" rx="2.5" ry="2.5" style="stroke: #000000; stroke-width: 1.0;" width="1709" x="10" y="702.7627"/><rect fill="#FFFFF0" filter="url(#fa1td5uomp3ub)" height="35.0938" rx="12.5" ry="12.5" style="stroke: #6495ED; stroke-width: 1.5;" width="49" x="840" y="728.7627"/><text fill="#696969" font-family="sans-serif" font-size="12" lengthAdjust="spacingAndGlyphs" textLength="29" x="850" y="751.2197">apply</text><polygon fill="#FFFFF0" filter="url(#fa1td5uomp3ub)" points="813.5,783.8564,925.5,783.8564,915.5,818.9502,803.5,818.9502" style="stroke: #6495ED; stroke-width: 1.5;"/><text fill="#696969" font-family="sans-serif" font-size="12" lengthAdjust="spacingAndGlyphs" textLength="102" x="813.5" y="806.3135">Qualification Letter</text><ellipse cx="864.5" cy="848.9502" fill="#FFFFFF" filter="url(#fa1td5uomp3ub)" rx="10" ry="10" style="stroke: #FF7F50; stroke-width: 1.5;"/><line style="stroke: #FF7F50; stroke-width: 2.5;" x1="858.3128" x2="870.6872" y1="842.763" y2="855.1374"/><line style="stroke: #FF7F50; stroke-width: 2.5;" x1="870.6872" x2="858.3128" y1="842.763" y2="855.1374"/><line style="stroke: #696969; stroke-width: 1.5;" x1="229.5" x2="229.5" y1="191.4219" y2="196.4219"/><line style="stroke: #696969; stroke-width: 1.5;" x1="296.5" x2="319.5" y1="179.4219" y2="179.4219"/><polygon fill="#696969" points="309.5,175.4219,319.5,179.4219,309.5,183.4219,313.5,179.4219" style="stroke: #696969; stroke-width: 1.0;"/><line style="stroke: #696969; stroke-width: 1.5;" x1="106.5" x2="106.5" y1="292.3408" y2="332.04"/><polygon fill="#696969" points="102.5,322.04,106.5,332.04,110.5,322.04,106.5,326.04" style="stroke: #696969; stroke-width: 1.0;"/><line style="stroke: #696969; stroke-width: 1.5;" x1="179" x2="202" y1="280.3408" y2="280.3408"/><polygon fill="#696969" points="192,276.3408,202,280.3408,192,284.3408,196,280.3408" style="stroke: #696969; stroke-width: 1.0;"/><line style="stroke: #696969; stroke-width: 1.5;" x1="106.5" x2="106.5" y1="235.4219" y2="268.3408"/><polygon fill="#696969" points="102.5,258.3408,106.5,268.3408,110.5,258.3408,106.5,262.3408" style="stroke: #696969; stroke-width: 1.0;"/><line style="stroke: #696969; stroke-width: 1.5;" x1="315.5" x2="315.5" y1="235.4219" y2="268.3408"/><polygon fill="#696969" points="311.5,258.3408,315.5,268.3408,319.5,258.3408,315.5,262.3408" style="stroke: #696969; stroke-width: 1.0;"/><line style="stroke: #696969; stroke-width: 1.5;" x1="152.5" x2="256" y1="223.4219" y2="223.4219"/><polygon fill="#696969" points="246,219.4219,256,223.4219,246,227.4219,250,223.4219" style="stroke: #696969; stroke-width: 1.0;"/><line style="stroke: #696969; stroke-width: 1.5;" x1="229.5" x2="106.5" y1="196.4219" y2="196.4219"/><line style="stroke: #696969; stroke-width: 1.5;" x1="106.5" x2="106.5" y1="196.4219" y2="211.4219"/><polygon fill="#696969" points="102.5,201.4219,106.5,211.4219,110.5,201.4219,106.5,205.4219" style="stroke: #696969; stroke-width: 1.0;"/><line style="stroke: #696969; stroke-width: 1.5;" x1="375" x2="410" y1="223.4219" y2="223.4219"/><line style="stroke: #696969; stroke-width: 1.5;" x1="410" x2="410" y1="223.4219" y2="332.04"/><polygon fill="#696969" points="406,322.04,410,332.04,414,322.04,410,326.04" style="stroke: #696969; stroke-width: 1.0;"/><line style="stroke: #696969; stroke-width: 1.5;" x1="106.5" x2="410" y1="332.04" y2="332.04"/><line style="stroke: #696969; stroke-width: 1.5;" x1="229.5" x2="229.5" y1="391.04" y2="474.04"/><polygon fill="#696969" points="225.5,464.04,229.5,474.04,233.5,464.04,229.5,468.04" style="stroke: #696969; stroke-width: 1.0;"/><line style="stroke: #696969; stroke-width: 1.5;" x1="285.5" x2="308.5" y1="379.04" y2="379.04"/><polygon fill="#696969" points="298.5,375.04,308.5,379.04,298.5,383.04,302.5,379.04" style="stroke: #696969; stroke-width: 1.0;"/><line style="stroke: #696969; stroke-width: 1.5;" x1="229.5" x2="229.5" y1="332.04" y2="367.04"/><polygon fill="#696969" points="225.5,357.04,229.5,367.04,233.5,357.04,229.5,361.04" style="stroke: #696969; stroke-width: 1.0;"/><line style="stroke: #696969; stroke-width: 1.5;" x1="229.5" x2="229.5" y1="498.04" y2="558.7627"/><polygon fill="#696969" points="225.5,548.7627,229.5,558.7627,233.5,548.7627,229.5,552.7627" style="stroke: #696969; stroke-width: 1.0;"/><line style="stroke: #696969; stroke-width: 1.5;" x1="293" x2="322" y1="486.04" y2="486.04"/><polygon fill="#696969" points="312,482.04,322,486.04,312,490.04,316,486.04" style="stroke: #696969; stroke-width: 1.0;"/><line style="stroke: #696969; stroke-width: 1.5;" x1="229.5" x2="229.5" y1="582.7627" y2="602.7627"/><polygon fill="#696969" points="225.5,592.7627,229.5,602.7627,233.5,592.7627,229.5,596.7627" style="stroke: #696969; stroke-width: 1.0;"/><line style="stroke: #696969; stroke-width: 1.5;" x1="294" x2="323" y1="570.7627" y2="570.7627"/><polygon fill="#696969" points="313,566.7627,323,570.7627,313,574.7627,317,570.7627" style="stroke: #696969; stroke-width: 1.0;"/><line style="stroke: #696969; stroke-width: 1.5;" x1="229.5" x2="229.5" y1="626.7627" y2="646.7627"/><polygon fill="#696969" points="225.5,636.7627,229.5,646.7627,233.5,636.7627,229.5,640.7627" style="stroke: #696969; stroke-width: 1.0;"/><line style="stroke: #696969; stroke-width: 1.5;" x1="322.5" x2="351.5" y1="614.7627" y2="614.7627"/><polygon fill="#696969" points="341.5,610.7627,351.5,614.7627,341.5,618.7627,345.5,614.7627" style="stroke: #696969; stroke-width: 1.0;"/><line style="stroke: #696969; stroke-width: 1.5;" x1="229.5" x2="229.5" y1="670.7627" y2="702.7627"/><polygon fill="#696969" points="225.5,692.7627,229.5,702.7627,233.5,692.7627,229.5,696.7627" style="stroke: #696969; stroke-width: 1.0;"/><line style="stroke: #696969; stroke-width: 1.5;" x1="327" x2="356" y1="658.7627" y2="658.7627"/><polygon fill="#696969" points="346,654.7627,356,658.7627,346,662.7627,350,658.7627" style="stroke: #696969; stroke-width: 1.0;"/><line style="stroke: #696969; stroke-width: 1.5;" x1="581.5" x2="581.5" y1="384.0752" y2="467.0752"/><polygon fill="#696969" points="577.5,457.0752,581.5,467.0752,585.5,457.0752,581.5,461.0752" style="stroke: #696969; stroke-width: 1.0;"/><line style="stroke: #696969; stroke-width: 1.5;" x1="656" x2="679" y1="372.0752" y2="372.0752"/><polygon fill="#696969" points="669,368.0752,679,372.0752,669,376.0752,673,372.0752" style="stroke: #696969; stroke-width: 1.0;"/><line style="stroke: #696969; stroke-width: 1.5;" x1="856.5" x2="856.5" y1="378.5752" y2="413.5752"/><polygon fill="#696969" points="852.5,403.5752,856.5,413.5752,860.5,403.5752,856.5,407.5752" style="stroke: #696969; stroke-width: 1.0;"/><line style="stroke: #696969; stroke-width: 1.5;" x1="856.5" x2="856.5" y1="448.6689" y2="483.6689"/><polygon fill="#696969" points="852.5,473.6689,856.5,483.6689,860.5,473.6689,856.5,477.6689" style="stroke: #696969; stroke-width: 1.0;"/><line style="stroke: #696969; stroke-width: 1.5;" x1="1074" x2="1074" y1="413.6221" y2="448.6221"/><polygon fill="#696969" points="1070,438.6221,1074,448.6221,1078,438.6221,1074,442.6221" style="stroke: #696969; stroke-width: 1.0;"/><line style="stroke: #696969; stroke-width: 1.5;" x1="1331" x2="1331" y1="378.5752" y2="413.5752"/><polygon fill="#696969" points="1327,403.5752,1331,413.5752,1335,403.5752,1331,407.5752" style="stroke: #696969; stroke-width: 1.0;"/><line style="stroke: #696969; stroke-width: 1.5;" x1="1331" x2="1331" y1="448.6689" y2="483.6689"/><polygon fill="#696969" points="1327,473.6689,1331,483.6689,1335,473.6689,1331,477.6689" style="stroke: #696969; stroke-width: 1.0;"/><line style="stroke: #696969; stroke-width: 1.5;" x1="1559" x2="1559" y1="390.9111" y2="473.9111"/><polygon fill="#696969" points="1555,463.9111,1559,473.9111,1563,463.9111,1559,467.9111" style="stroke: #696969; stroke-width: 1.0;"/><line style="stroke: #696969; stroke-width: 1.5;" x1="1638" x2="1661" y1="372.0752" y2="372.0752"/><polygon fill="#696969" points="1651,368.0752,1661,372.0752,1651,376.0752,1655,372.0752" style="stroke: #696969; stroke-width: 1.0;"/><line style="stroke: #696969; stroke-width: 1.5;" x1="229.5" x2="229.5" y1="116.2813" y2="167.4219"/><polygon fill="#696969" points="225.5,157.4219,229.5,167.4219,233.5,157.4219,229.5,161.4219" style="stroke: #696969; stroke-width: 1.0;"/><line style="stroke: #696969; stroke-width: 1.5;" x1="581.5" x2="581.5" y1="116.2813" y2="360.0752"/><polygon fill="#696969" points="577.5,350.0752,581.5,360.0752,585.5,350.0752,581.5,354.0752" style="stroke: #696969; stroke-width: 1.0;"/><line style="stroke: #696969; stroke-width: 1.5;" x1="856.5" x2="856.5" y1="116.2813" y2="343.4814"/><polygon fill="#696969" points="852.5,333.4814,856.5,343.4814,860.5,333.4814,856.5,337.4814" style="stroke: #696969; stroke-width: 1.0;"/><line style="stroke: #696969; stroke-width: 1.5;" x1="1074" x2="1074" y1="116.2813" y2="378.5283"/><polygon fill="#696969" points="1070,368.5283,1074,378.5283,1078,368.5283,1074,372.5283" style="stroke: #696969; stroke-width: 1.0;"/><line style="stroke: #696969; stroke-width: 1.5;" x1="1331" x2="1331" y1="116.2813" y2="343.4814"/><polygon fill="#696969" points="1327,333.4814,1331,343.4814,1335,333.4814,1331,337.4814" style="stroke: #696969; stroke-width: 1.0;"/><line style="stroke: #696969; stroke-width: 1.5;" x1="1559" x2="1559" y1="116.2813" y2="353.2393"/><polygon fill="#696969" points="1555,343.2393,1559,353.2393,1563,343.2393,1559,347.2393" style="stroke: #696969; stroke-width: 1.0;"/><line style="stroke: #696969; stroke-width: 1.5;" x1="581.5" x2="581.5" y1="502.1689" y2="702.7627"/><polygon fill="#696969" points="577.5,692.7627,581.5,702.7627,585.5,692.7627,581.5,696.7627" style="stroke: #696969; stroke-width: 1.0;"/><line style="stroke: #696969; stroke-width: 1.5;" x1="856.5" x2="856.5" y1="518.7627" y2="702.7627"/><polygon fill="#696969" points="852.5,692.7627,856.5,702.7627,860.5,692.7627,856.5,696.7627" style="stroke: #696969; stroke-width: 1.0;"/><line style="stroke: #696969; stroke-width: 1.5;" x1="1074" x2="1074" y1="483.7158" y2="702.7627"/><polygon fill="#696969" points="1070,692.7627,1074,702.7627,1078,692.7627,1074,696.7627" style="stroke: #696969; stroke-width: 1.0;"/><line style="stroke: #696969; stroke-width: 1.5;" x1="1331" x2="1331" y1="518.7627" y2="702.7627"/><polygon fill="#696969" points="1327,692.7627,1331,702.7627,1335,692.7627,1331,696.7627" style="stroke: #696969; stroke-width: 1.0;"/><line style="stroke: #696969; stroke-width: 1.5;" x1="1559" x2="1559" y1="509.0049" y2="702.7627"/><polygon fill="#696969" points="1555,692.7627,1559,702.7627,1563,692.7627,1559,696.7627" style="stroke: #696969; stroke-width: 1.0;"/><line style="stroke: #696969; stroke-width: 1.5;" x1="864.5" x2="864.5" y1="90.2813" y2="110.2813"/><polygon fill="#696969" points="860.5,100.2813,864.5,110.2813,868.5,100.2813,864.5,104.2813" style="stroke: #696969; stroke-width: 1.0;"/><line style="stroke: #696969; stroke-width: 1.5;" x1="864.5" x2="864.5" y1="708.7627" y2="728.7627"/><polygon fill="#696969" points="860.5,718.7627,864.5,728.7627,868.5,718.7627,864.5,722.7627" style="stroke: #696969; stroke-width: 1.0;"/><line style="stroke: #696969; stroke-width: 1.5;" x1="864.5" x2="864.5" y1="763.8564" y2="783.8564"/><polygon fill="#696969" points="860.5,773.8564,864.5,783.8564,868.5,773.8564,864.5,777.8564" style="stroke: #696969; stroke-width: 1.0;"/><line style="stroke: #696969; stroke-width: 1.5;" x1="864.5" x2="864.5" y1="818.9502" y2="838.9502"/><polygon fill="#696969" points="860.5,828.9502,864.5,838.9502,868.5,828.9502,864.5,832.9502" style="stroke: #696969; stroke-width: 1.0;"/><text fill="#000080" font-family="sans-serif" font-size="14" lengthAdjust="spacingAndGlyphs" textLength="42" x="10" y="872.4834">©2019</text><a target="_top" xlink:actuate="onRequest" xlink:href="http://www.lifestylesunlimited.com" xlink:show="new" xlink:title="http://www.lifestylesunlimited.com" xlink:type="simple"><text fill="#0000FF" font-family="sans-serif" font-size="14" lengthAdjust="spacingAndGlyphs" text-decoration="underline" textLength="122" x="56" y="872.4834">LifeStyles Unlimited</text><line style="stroke: #0000FF; stroke-width: 1.0;" x1="56" x2="178" y1="874.4834" y2="874.4834"/></a><text fill="#000080" font-family="sans-serif" font-size="14" lengthAdjust="spacingAndGlyphs" textLength="281" x="182" y="872.4834">| Generated Mon Apr 22 08:25:59 CDT 2019</text><!--
@startuml pre-qualification


skinparam {
  BorderColor Red
  PathHoverColor Blue
}

skinparam Title {
  FontColor Navy
  BackgroundColor PaleGoldenRod
  BorderColor Navy
  BorderRoundCorner 20
}

skinparam activity {
  BackgroundColor Ivory
  BorderColor CornflowerBlue
  FontColor DimGray
  

  Arrow {
    Color dimgray
    FontColor dimgray
  }

  Start {
    Color PHYSICAL
  }

  End {
    Color Coral
  }

  Diamond {
    BackgroundColor Ivory
    BorderColor CornflowerBlue
    FontColor DarkGray
  }

  BackgroundColor<< Exception >> Red
	BorderColor<< Exception >> White
}

skinparam Swimlane {
  BorderColor CornflowerBlue 
}

skinparam Partition {
  BackgroundColor Ivory
  BorderColor CornflowerBlue
  BorderThickness 1
  FontColor CornflowerBlue
  FontSize 16
  BorderRoundCorner 20
}

skinparam Note {
  BackgroundColor LightSteelBlue
  BorderColor CornflowerBlue
  FontColor White
}

skinparam Legend {
  BackgroundColor LightSteelBlue
  BorderColor CornflowerBlue
  FontColor White
}

skinparam Footer {
  FontColor Navy
}


left header 
	<font color=Navy size=18>[[../index.svg ⌂ Home]]</font>
endheader


	Title Pre-Qualification

	start

  fork

    partition Conventional {

      if(  debt / income <= 50%) then(no)
        stop
      endif
      
      if(self-employed) then (yes)
        if(2 years profit tax returns) then(no)
          stop
        endif
      elseif(years employed > 2) then(no)
        stop
      endif
      
      if(credit score > 650) then(no)
        stop
      endif
      if(bankruptcy < 4 years) then(yes)
        stop
      endif
      if(foreclosure < 7 years) then(yes)
        stop
      endif
      if(short sale / deed-in-lieu < 4 years) then(yes)
        stop
      endif
      if(late mortgage payment < 12 months) then(yes)
        stop
      endif

    }

  fork again
    partition "Fannie Mae Purchase Money Mortgage" {
      if(house in perfect condition) then (no)
        stop
      endif
      :75-80% lending out}
    }
    
  fork again
    partition "Hard Money Loan" {
      :70-75% ARV}
      :6-16.5% interest}
      :2-4 month term}
    }

  fork again
    partition "Rate and Term Refinance Loan" {
      :75%}
      #Plum:no more out of pocket?;
    }

  fork again
    partition "Delayed Financing" {
      :75-80% of all in cost}
      :get all money back minus repairs}
      #Plum:offer cash?;
    }

  fork again
    partition "Cash Out Refinance Loan" {
      if(6-12 months of "seasoning"\n====\n(being rented out)) then (no)
        stop
      endif
      :75% of appraised value}
    }
  end fork

  :apply;

  :Qualification Letter/

  end


left footer 
	<font size=14>©2019 [[http://www.lifestylesunlimited.com LifeStyles Unlimited]] | Generated Mon Apr 22 08:25:59 CDT 2019</font>
endfooter


@enduml

PlantUML version 1.2019.03(Sun Mar 10 06:04:44 CDT 2019)
(GPL source distribution)
Java Runtime: Java(TM) SE Runtime Environment
JVM: Java HotSpot(TM) 64-Bit Server VM
Java Version: 1.8.0_111-b14
Operating System: Windows 10
OS Version: 10.0
Default Encoding: Cp1252
Language: en
Country: US
--></g></svg>