<?xml version="1.0" encoding="UTF-8" standalone="no"?><svg xmlns="http://www.w3.org/2000/svg" xmlns:xlink="http://www.w3.org/1999/xlink" contentScriptType="application/ecmascript" contentStyleType="text/css" height="1024px" preserveAspectRatio="none" style="width:1830px;height:1024px;" version="1.1" viewBox="0 0 1830 1024" width="1830px" zoomAndPan="magnify"><defs><style type="text/css"><![CDATA[path:hover { stroke: #0000FF !important;}]]></style><filter height="300%" id="f1xzqjqr7brl8i" width="300%" x="-1" y="-1"><feGaussianBlur result="blurOut" stdDeviation="2.0"/><feColorMatrix in="blurOut" result="blurOut2" type="matrix" values="0 0 0 0 0 0 0 0 0 0 0 0 0 0 0 0 0 0 .4 0"/><feOffset dx="4.0" dy="4.0" in="blurOut2" result="blurOut3"/><feBlend in="SourceGraphic" in2="blurOut3" mode="normal"/></filter></defs><g><a target="_top" xlink:actuate="onRequest" xlink:href="../index.svg?sanitize=true" xlink:show="new" xlink:title="../index.svg?sanitize=true" xlink:type="simple"><text fill="#0000FF" font-family="sans-serif" font-size="24" lengthAdjust="spacingAndGlyphs" text-decoration="underline" textLength="90" x="10" y="34.9141">⌂ Home</text><line style="stroke: #0000FF; stroke-width: 1.0;" x1="10" x2="100" y1="36.9141" y2="36.9141"/></a><rect fill="#EEE8AA" height="40.1875" rx="10" ry="10" style="stroke: #000080; stroke-width: 1.5;" width="194" x="816.75" y="42.1875"/><text fill="#000080" font-family="sans-serif" font-size="24" lengthAdjust="spacingAndGlyphs" textLength="178" x="824.75" y="72.1016">Pre-Qualification</text><ellipse cx="914.75" cy="95.375" fill="#CCFFCC" filter="url(#f1xzqjqr7brl8i)" rx="10" ry="10" style="stroke: none; stroke-width: 1.0;"/><rect fill="#000000" filter="url(#f1xzqjqr7brl8i)" height="6" rx="2.5" ry="2.5" style="stroke: #000000; stroke-width: 1.0;" width="1809.5" x="10" y="125.375"/><rect fill="#FFFFF0" filter="url(#f1xzqjqr7brl8i)" height="612.3643" style="stroke: #6495ED; stroke-width: 1.0;" width="411" x="24" y="142.3906"/><path d="M124,143.3906 L124,155.5156 L114,165.5156 L24,165.5156 " fill="none" style="stroke: #6495ED; stroke-width: 1.0;"/><text fill="#6495ED" font-family="sans-serif" font-size="16" lengthAdjust="spacingAndGlyphs" textLength="90" x="27" y="160">Conventional</text><polygon fill="#FFFFF0" filter="url(#f1xzqjqr7brl8i)" points="174.5,182.5156,284.5,182.5156,296.5,194.5156,284.5,206.5156,174.5,206.5156,162.5,194.5156,174.5,182.5156" style="stroke: #6495ED; stroke-width: 1.0;"/><text fill="#A9A9A9" font-family="sans-serif" font-size="11" lengthAdjust="spacingAndGlyphs" textLength="104" x="180.5" y="199.0166">debt / income &lt;= 50%</text><text fill="#696969" font-family="sans-serif" font-size="11" lengthAdjust="spacingAndGlyphs" textLength="12" x="296.5" y="192.0986">no</text><ellipse cx="330.5" cy="194.5156" fill="#FFFFFF" filter="url(#f1xzqjqr7brl8i)" rx="11" ry="11" style="stroke: #FF7F50; stroke-width: 1.0;"/><ellipse cx="330.5" cy="194.5156" fill="#FF7F50" rx="6" ry="6" style="stroke: #FFBFA7; stroke-width: 1.0;"/><polygon fill="#FFFFF0" filter="url(#f1xzqjqr7brl8i)" points="72.5,226.5156,140.5,226.5156,152.5,238.5156,140.5,250.5156,72.5,250.5156,60.5,238.5156,72.5,226.5156" style="stroke: #6495ED; stroke-width: 1.0;"/><text fill="#696969" font-family="sans-serif" font-size="11" lengthAdjust="spacingAndGlyphs" textLength="18" x="110.5" y="261.9346">yes</text><text fill="#A9A9A9" font-family="sans-serif" font-size="11" lengthAdjust="spacingAndGlyphs" textLength="68" x="72.5" y="243.0166">self-employed</text><polygon fill="#FFFFF0" filter="url(#f1xzqjqr7brl8i)" points="46,283.4346,167,283.4346,179,295.4346,167,307.4346,46,307.4346,34,295.4346,46,283.4346" style="stroke: #6495ED; stroke-width: 1.0;"/><text fill="#A9A9A9" font-family="sans-serif" font-size="11" lengthAdjust="spacingAndGlyphs" textLength="121" x="46" y="299.9355">2 years profit tax returns</text><text fill="#696969" font-family="sans-serif" font-size="11" lengthAdjust="spacingAndGlyphs" textLength="12" x="179" y="293.0176">no</text><ellipse cx="213" cy="295.4346" fill="#FFFFFF" filter="url(#f1xzqjqr7brl8i)" rx="11" ry="11" style="stroke: #FF7F50; stroke-width: 1.0;"/><ellipse cx="213" cy="295.4346" fill="#FF7F50" rx="6" ry="6" style="stroke: #FFBFA7; stroke-width: 1.0;"/><polygon fill="#FFFFF0" filter="url(#f1xzqjqr7brl8i)" points="268,226.5156,363,226.5156,375,238.5156,363,250.5156,268,250.5156,256,238.5156,268,226.5156" style="stroke: #6495ED; stroke-width: 1.0;"/><text fill="#696969" font-family="sans-serif" font-size="11" lengthAdjust="spacingAndGlyphs" textLength="12" x="319.5" y="261.9346">no</text><text fill="#A9A9A9" font-family="sans-serif" font-size="11" lengthAdjust="spacingAndGlyphs" textLength="95" x="268" y="243.0166">years employed &gt; 2</text><ellipse cx="315.5" cy="294.4346" fill="#FFFFFF" filter="url(#f1xzqjqr7brl8i)" rx="11" ry="11" style="stroke: #FF7F50; stroke-width: 1.0;"/><ellipse cx="315.5" cy="294.4346" fill="#FF7F50" rx="6" ry="6" style="stroke: #FFBFA7; stroke-width: 1.0;"/><polygon fill="#FFFFF0" filter="url(#f1xzqjqr7brl8i)" points="185.5,420.1807,273.5,420.1807,285.5,432.1807,273.5,444.1807,185.5,444.1807,173.5,432.1807,185.5,420.1807" style="stroke: #6495ED; stroke-width: 1.0;"/><text fill="#A9A9A9" font-family="sans-serif" font-size="11" lengthAdjust="spacingAndGlyphs" textLength="88" x="185.5" y="436.6816">credit score &gt; 650</text><text fill="#696969" font-family="sans-serif" font-size="11" lengthAdjust="spacingAndGlyphs" textLength="12" x="285.5" y="429.7637">no</text><ellipse cx="319.5" cy="432.1807" fill="#FFFFFF" filter="url(#f1xzqjqr7brl8i)" rx="11" ry="11" style="stroke: #FF7F50; stroke-width: 1.0;"/><ellipse cx="319.5" cy="432.1807" fill="#FF7F50" rx="6" ry="6" style="stroke: #FFBFA7; stroke-width: 1.0;"/><polygon fill="#FFFFF0" filter="url(#f1xzqjqr7brl8i)" points="178,527.1807,281,527.1807,293,539.1807,281,551.1807,178,551.1807,166,539.1807,178,527.1807" style="stroke: #6495ED; stroke-width: 1.0;"/><text fill="#A9A9A9" font-family="sans-serif" font-size="11" lengthAdjust="spacingAndGlyphs" textLength="103" x="178" y="543.6816">bankruptcy &lt; 4 years</text><text fill="#696969" font-family="sans-serif" font-size="11" lengthAdjust="spacingAndGlyphs" textLength="18" x="293" y="536.7637">yes</text><ellipse cx="333" cy="539.1807" fill="#FFFFFF" filter="url(#f1xzqjqr7brl8i)" rx="11" ry="11" style="stroke: #FF7F50; stroke-width: 1.0;"/><ellipse cx="333" cy="539.1807" fill="#FF7F50" rx="6" ry="6" style="stroke: #FFBFA7; stroke-width: 1.0;"/><polygon fill="#FFFFF0" filter="url(#f1xzqjqr7brl8i)" points="177,630.7549,282,630.7549,294,642.7549,282,654.7549,177,654.7549,165,642.7549,177,630.7549" style="stroke: #6495ED; stroke-width: 1.0;"/><text fill="#A9A9A9" font-family="sans-serif" font-size="11" lengthAdjust="spacingAndGlyphs" textLength="105" x="177" y="647.2559">foreclosure &lt; 7 years</text><text fill="#696969" font-family="sans-serif" font-size="11" lengthAdjust="spacingAndGlyphs" textLength="18" x="294" y="640.3379">yes</text><ellipse cx="334" cy="642.7549" fill="#FFFFFF" filter="url(#f1xzqjqr7brl8i)" rx="11" ry="11" style="stroke: #FF7F50; stroke-width: 1.0;"/><ellipse cx="334" cy="642.7549" fill="#FF7F50" rx="6" ry="6" style="stroke: #FFBFA7; stroke-width: 1.0;"/><polygon fill="#FFFFF0" filter="url(#f1xzqjqr7brl8i)" points="148.5,674.7549,310.5,674.7549,322.5,686.7549,310.5,698.7549,148.5,698.7549,136.5,686.7549,148.5,674.7549" style="stroke: #6495ED; stroke-width: 1.0;"/><text fill="#A9A9A9" font-family="sans-serif" font-size="11" lengthAdjust="spacingAndGlyphs" textLength="162" x="148.5" y="691.2559">short sale / deed-in-lieu &lt; 4 years</text><text fill="#696969" font-family="sans-serif" font-size="11" lengthAdjust="spacingAndGlyphs" textLength="18" x="322.5" y="684.3379">yes</text><ellipse cx="362.5" cy="686.7549" fill="#FFFFFF" filter="url(#f1xzqjqr7brl8i)" rx="11" ry="11" style="stroke: #FF7F50; stroke-width: 1.0;"/><ellipse cx="362.5" cy="686.7549" fill="#FF7F50" rx="6" ry="6" style="stroke: #FFBFA7; stroke-width: 1.0;"/><polygon fill="#FFFFF0" filter="url(#f1xzqjqr7brl8i)" points="144,718.7549,315,718.7549,327,730.7549,315,742.7549,144,742.7549,132,730.7549,144,718.7549" style="stroke: #6495ED; stroke-width: 1.0;"/><text fill="#A9A9A9" font-family="sans-serif" font-size="11" lengthAdjust="spacingAndGlyphs" textLength="171" x="144" y="735.2559">late mortgage payment &lt; 12 months</text><text fill="#696969" font-family="sans-serif" font-size="11" lengthAdjust="spacingAndGlyphs" textLength="18" x="327" y="728.3379">yes</text><ellipse cx="367" cy="730.7549" fill="#FFFFFF" filter="url(#f1xzqjqr7brl8i)" rx="11" ry="11" style="stroke: #FF7F50; stroke-width: 1.0;"/><ellipse cx="367" cy="730.7549" fill="#FF7F50" rx="6" ry="6" style="stroke: #FFBFA7; stroke-width: 1.0;"/><rect fill="#FFFFF0" filter="url(#f1xzqjqr7brl8i)" height="202.2188" style="stroke: #6495ED; stroke-width: 1.0;" width="294" x="463" y="373.0908"/><path d="M747,374.0908 L747,386.2158 L737,396.2158 L463,396.2158 " fill="none" style="stroke: #6495ED; stroke-width: 1.0;"/><text fill="#6495ED" font-family="sans-serif" font-size="16" lengthAdjust="spacingAndGlyphs" textLength="274" x="466" y="390.7002">Fannie Mae Purchase Money Mortgage</text><polygon fill="#FFFFF0" filter="url(#f1xzqjqr7brl8i)" points="519,413.2158,644,413.2158,656,425.2158,644,437.2158,519,437.2158,507,425.2158,519,413.2158" style="stroke: #6495ED; stroke-width: 1.0;"/><text fill="#A9A9A9" font-family="sans-serif" font-size="11" lengthAdjust="spacingAndGlyphs" textLength="125" x="519" y="429.7168">house in perfect condition</text><text fill="#696969" font-family="sans-serif" font-size="11" lengthAdjust="spacingAndGlyphs" textLength="12" x="656" y="422.7988">no</text><ellipse cx="690" cy="425.2158" fill="#FFFFFF" filter="url(#f1xzqjqr7brl8i)" rx="11" ry="11" style="stroke: #FF7F50; stroke-width: 1.0;"/><ellipse cx="690" cy="425.2158" fill="#FF7F50" rx="6" ry="6" style="stroke: #FFBFA7; stroke-width: 1.0;"/><path d="M523,520.2158 L518,537.7627 L523,555.3096 M640,520.2158 L645,537.7627 L640,555.3096 " fill="#FFFFF0" filter="url(#f1xzqjqr7brl8i)" style="stroke: #6495ED; stroke-width: 1.0;"/><text fill="#696969" font-family="sans-serif" font-size="12" lengthAdjust="spacingAndGlyphs" textLength="107" x="528" y="542.6729">75-80% lending out</text><rect fill="#FFFFF0" filter="url(#f1xzqjqr7brl8i)" height="308.8789" style="stroke: #6495ED; stroke-width: 1.0;" width="226.5" x="785" y="318.4502"/><path d="M918,319.4502 L918,331.5752 L908,341.5752 L785,341.5752 " fill="none" style="stroke: #6495ED; stroke-width: 1.0;"/><text fill="#6495ED" font-family="sans-serif" font-size="16" lengthAdjust="spacingAndGlyphs" textLength="123" x="788" y="336.0596">Hard Money Loan</text><path d="M905.5,357.7705 L905.5,375.1221 L885.5,379.1221 L905.5,383.1221 L905.5,400.4736 A0,0 0 0 0 905.5,400.4736 L1001.5,400.4736 A0,0 0 0 0 1001.5,400.4736 L1001.5,367.7705 L991.5,357.7705 L905.5,357.7705 A0,0 0 0 0 905.5,357.7705 " fill="#B0C4DE" filter="url(#f1xzqjqr7brl8i)" style="stroke: #6495ED; stroke-width: 1.0;"/><path d="M991.5,357.7705 L991.5,367.7705 L1001.5,367.7705 L991.5,357.7705 " fill="#B0C4DE" style="stroke: #6495ED; stroke-width: 1.0;"/><text fill="#FFFFFF" font-family="sans-serif" font-size="13" lengthAdjust="spacingAndGlyphs" textLength="75" x="911.5" y="376.2656">don't do 75%</text><text fill="#FFFFFF" font-family="sans-serif" font-size="13" lengthAdjust="spacingAndGlyphs" textLength="45" x="911.5" y="392.6172">until refi</text><path d="M819.5,361.5752 L814.5,379.1221 L819.5,396.6689 M880.5,361.5752 L885.5,379.1221 L880.5,396.6689 " fill="#FFFFF0" filter="url(#f1xzqjqr7brl8i)" style="stroke: #6495ED; stroke-width: 1.0;"/><text fill="#696969" font-family="sans-serif" font-size="12" lengthAdjust="spacingAndGlyphs" textLength="51" x="824.5" y="384.0322">70% ARV</text><path d="M800,435.4736 L795,453.0205 L800,470.5674 M900,435.4736 L905,453.0205 L900,470.5674 " fill="#FFFFF0" filter="url(#f1xzqjqr7brl8i)" style="stroke: #6495ED; stroke-width: 1.0;"/><text fill="#696969" font-family="sans-serif" font-size="12" lengthAdjust="spacingAndGlyphs" textLength="90" x="805" y="457.9307">6-16.5% interest</text><path d="M803,505.5674 L798,523.1143 L803,540.6611 M897,505.5674 L902,523.1143 L897,540.6611 " fill="#FFFFF0" filter="url(#f1xzqjqr7brl8i)" style="stroke: #6495ED; stroke-width: 1.0;"/><text fill="#696969" font-family="sans-serif" font-size="12" lengthAdjust="spacingAndGlyphs" textLength="84" x="808" y="528.0244">2-4 month term</text><path d="M800.5,575.6611 L795.5,593.208 L800.5,610.7549 M899.5,575.6611 L904.5,593.208 L899.5,610.7549 " fill="#FFFFF0" filter="url(#f1xzqjqr7brl8i)" style="stroke: #6495ED; stroke-width: 1.0;"/><text fill="#696969" font-family="sans-serif" font-size="12" lengthAdjust="spacingAndGlyphs" textLength="89" x="805.5" y="598.1182">closes in 3 days</text><rect fill="#FFFFF0" filter="url(#f1xzqjqr7brl8i)" height="165.3125" style="stroke: #6495ED; stroke-width: 1.0;" width="236" x="1039.5" y="391.5439"/><path d="M1265.5,392.5439 L1265.5,404.6689 L1255.5,414.6689 L1039.5,414.6689 " fill="none" style="stroke: #6495ED; stroke-width: 1.0;"/><text fill="#6495ED" font-family="sans-serif" font-size="16" lengthAdjust="spacingAndGlyphs" textLength="216" x="1042.5" y="409.1533">Rate and Term Refinance Loan</text><path d="M1140,431.6689 L1135,449.2158 L1140,466.7627 M1175,431.6689 L1180,449.2158 L1175,466.7627 " fill="#FFFFF0" filter="url(#f1xzqjqr7brl8i)" style="stroke: #6495ED; stroke-width: 1.0;"/><text fill="#696969" font-family="sans-serif" font-size="12" lengthAdjust="spacingAndGlyphs" textLength="25" x="1145" y="454.126">75%</text><rect fill="#DDA0DD" filter="url(#f1xzqjqr7brl8i)" height="35.0938" rx="12.5" ry="12.5" style="stroke: #6495ED; stroke-width: 1.0;" width="145" x="1085" y="501.7627"/><text fill="#696969" font-family="sans-serif" font-size="12" lengthAdjust="spacingAndGlyphs" textLength="125" x="1095" y="524.2197">no more out of pocket?</text><rect fill="#FFFFF0" filter="url(#f1xzqjqr7brl8i)" height="235.4063" style="stroke: #6495ED; stroke-width: 1.0;" width="222" x="1303.5" y="356.4971"/><path d="M1443.5,357.4971 L1443.5,369.6221 L1433.5,379.6221 L1303.5,379.6221 " fill="none" style="stroke: #6495ED; stroke-width: 1.0;"/><text fill="#6495ED" font-family="sans-serif" font-size="16" lengthAdjust="spacingAndGlyphs" textLength="130" x="1306.5" y="374.1064">Delayed Financing</text><rect fill="#DDA0DD" filter="url(#f1xzqjqr7brl8i)" height="35.0938" rx="12.5" ry="12.5" style="stroke: #6495ED; stroke-width: 1.0;" width="81" x="1374" y="396.6221"/><text fill="#696969" font-family="sans-serif" font-size="12" lengthAdjust="spacingAndGlyphs" textLength="61" x="1384" y="419.0791">offer cash?</text><path d="M1354,466.7158 L1349,484.2627 L1354,501.8096 M1475,466.7158 L1480,484.2627 L1475,501.8096 " fill="#FFFFF0" filter="url(#f1xzqjqr7brl8i)" style="stroke: #6495ED; stroke-width: 1.0;"/><text fill="#696969" font-family="sans-serif" font-size="12" lengthAdjust="spacingAndGlyphs" textLength="111" x="1359" y="489.1729">75-80% of all in cost</text><path d="M1318.5,536.8096 L1313.5,554.3564 L1318.5,571.9033 M1510.5,536.8096 L1515.5,554.3564 L1510.5,571.9033 " fill="#FFFFF0" filter="url(#f1xzqjqr7brl8i)" style="stroke: #6495ED; stroke-width: 1.0;"/><text fill="#696969" font-family="sans-serif" font-size="12" lengthAdjust="spacingAndGlyphs" textLength="182" x="1323.5" y="559.2666">get all money back minus repairs</text><rect fill="#FFFFF0" filter="url(#f1xzqjqr7brl8i)" height="215.8906" style="stroke: #6495ED; stroke-width: 1.0;" width="252" x="1553.5" y="366.2549"/><path d="M1741.5,367.2549 L1741.5,379.3799 L1731.5,389.3799 L1553.5,389.3799 " fill="none" style="stroke: #6495ED; stroke-width: 1.0;"/><text fill="#6495ED" font-family="sans-serif" font-size="16" lengthAdjust="spacingAndGlyphs" textLength="178" x="1556.5" y="383.8643">Cash Out Refinance Loan</text><polygon fill="#FFFFF0" filter="url(#f1xzqjqr7brl8i)" points="1592.5,406.3799,1726.5,406.3799,1738.5,425.2158,1726.5,444.0518,1592.5,444.0518,1580.5,425.2158,1592.5,406.3799" style="stroke: #6495ED; stroke-width: 1.0;"/><text fill="#A9A9A9" font-family="sans-serif" font-size="11" lengthAdjust="spacingAndGlyphs" textLength="134" x="1592.5" y="417.7988">6-12 months of "seasoning"</text><line style="stroke: #6495ED; stroke-width: 1.0;" x1="1580.5" x2="1738.5" y1="425.2158" y2="425.2158"/><line style="stroke: #6495ED; stroke-width: 1.0;" x1="1581.7742" x2="1737.2258" y1="427.2158" y2="427.2158"/><text fill="#A9A9A9" font-family="sans-serif" font-size="11" lengthAdjust="spacingAndGlyphs" textLength="86" x="1592.5" y="441.6348">(being rented out)</text><text fill="#696969" font-family="sans-serif" font-size="11" lengthAdjust="spacingAndGlyphs" textLength="12" x="1738.5" y="422.7988">no</text><ellipse cx="1772.5" cy="425.2158" fill="#FFFFFF" filter="url(#f1xzqjqr7brl8i)" rx="11" ry="11" style="stroke: #FF7F50; stroke-width: 1.0;"/><ellipse cx="1772.5" cy="425.2158" fill="#FF7F50" rx="6" ry="6" style="stroke: #FFBFA7; stroke-width: 1.0;"/><path d="M1568.5,527.0518 L1563.5,544.5986 L1568.5,562.1455 M1750.5,527.0518 L1755.5,544.5986 L1750.5,562.1455 " fill="#FFFFF0" filter="url(#f1xzqjqr7brl8i)" style="stroke: #6495ED; stroke-width: 1.0;"/><text fill="#696969" font-family="sans-serif" font-size="12" lengthAdjust="spacingAndGlyphs" textLength="172" x="1573.5" y="549.5088">pull out 75% of appraised value</text><rect fill="#000000" filter="url(#f1xzqjqr7brl8i)" height="6" rx="2.5" ry="2.5" style="stroke: #000000; stroke-width: 1.0;" width="1809.5" x="10" y="774.7549"/><rect fill="#FFFFF0" filter="url(#f1xzqjqr7brl8i)" height="35.0938" rx="12.5" ry="12.5" style="stroke: #6495ED; stroke-width: 1.0;" width="49" x="890.25" y="800.7549"/><text fill="#696969" font-family="sans-serif" font-size="12" lengthAdjust="spacingAndGlyphs" textLength="29" x="900.25" y="823.2119">apply</text><polygon fill="#FFFFF0" filter="url(#f1xzqjqr7brl8i)" points="863.75,855.8486,975.75,855.8486,965.75,890.9424,853.75,890.9424" style="stroke: #6495ED; stroke-width: 1.0;"/><text fill="#696969" font-family="sans-serif" font-size="12" lengthAdjust="spacingAndGlyphs" textLength="102" x="863.75" y="878.3057">Qualification Letter</text><ellipse cx="914.75" cy="920.9424" fill="#FFFFFF" filter="url(#f1xzqjqr7brl8i)" rx="10" ry="10" style="stroke: #FF7F50; stroke-width: 1.5;"/><line style="stroke: #FF7F50; stroke-width: 2.5;" x1="908.5628" x2="920.9372" y1="914.7552" y2="927.1296"/><line style="stroke: #FF7F50; stroke-width: 2.5;" x1="920.9372" x2="908.5628" y1="914.7552" y2="927.1296"/><line style="stroke: #696969; stroke-width: 1.5;" x1="229.5" x2="229.5" y1="206.5156" y2="211.5156"/><line style="stroke: #696969; stroke-width: 1.5;" x1="296.5" x2="319.5" y1="194.5156" y2="194.5156"/><polygon fill="#696969" points="309.5,190.5156,319.5,194.5156,309.5,198.5156,313.5,194.5156" style="stroke: #696969; stroke-width: 1.0;"/><line style="stroke: #696969; stroke-width: 1.5;" x1="106.5" x2="106.5" y1="307.4346" y2="385.1807"/><polygon fill="#696969" points="102.5,375.1807,106.5,385.1807,110.5,375.1807,106.5,379.1807" style="stroke: #696969; stroke-width: 1.0;"/><line style="stroke: #696969; stroke-width: 1.5;" x1="179" x2="202" y1="295.4346" y2="295.4346"/><polygon fill="#696969" points="192,291.4346,202,295.4346,192,299.4346,196,295.4346" style="stroke: #696969; stroke-width: 1.0;"/><line style="stroke: #696969; stroke-width: 1.5;" x1="106.5" x2="106.5" y1="250.5156" y2="283.4346"/><polygon fill="#696969" points="102.5,273.4346,106.5,283.4346,110.5,273.4346,106.5,277.4346" style="stroke: #696969; stroke-width: 1.0;"/><line style="stroke: #696969; stroke-width: 1.5;" x1="315.5" x2="315.5" y1="250.5156" y2="283.4346"/><polygon fill="#696969" points="311.5,273.4346,315.5,283.4346,319.5,273.4346,315.5,277.4346" style="stroke: #696969; stroke-width: 1.0;"/><line style="stroke: #696969; stroke-width: 1.5;" x1="152.5" x2="256" y1="238.5156" y2="238.5156"/><polygon fill="#696969" points="246,234.5156,256,238.5156,246,242.5156,250,238.5156" style="stroke: #696969; stroke-width: 1.0;"/><line style="stroke: #696969; stroke-width: 1.5;" x1="229.5" x2="106.5" y1="211.5156" y2="211.5156"/><line style="stroke: #696969; stroke-width: 1.5;" x1="106.5" x2="106.5" y1="211.5156" y2="226.5156"/><polygon fill="#696969" points="102.5,216.5156,106.5,226.5156,110.5,216.5156,106.5,220.5156" style="stroke: #696969; stroke-width: 1.0;"/><line style="stroke: #696969; stroke-width: 1.5;" x1="375" x2="410" y1="238.5156" y2="238.5156"/><line style="stroke: #696969; stroke-width: 1.5;" x1="410" x2="410" y1="238.5156" y2="385.1807"/><polygon fill="#696969" points="406,375.1807,410,385.1807,414,375.1807,410,379.1807" style="stroke: #696969; stroke-width: 1.0;"/><line style="stroke: #696969; stroke-width: 1.5;" x1="106.5" x2="410" y1="385.1807" y2="385.1807"/><line style="stroke: #696969; stroke-width: 1.5;" x1="229.5" x2="229.5" y1="444.1807" y2="527.1807"/><polygon fill="#696969" points="225.5,517.1807,229.5,527.1807,233.5,517.1807,229.5,521.1807" style="stroke: #696969; stroke-width: 1.0;"/><line style="stroke: #696969; stroke-width: 1.5;" x1="285.5" x2="308.5" y1="432.1807" y2="432.1807"/><polygon fill="#696969" points="298.5,428.1807,308.5,432.1807,298.5,436.1807,302.5,432.1807" style="stroke: #696969; stroke-width: 1.0;"/><line style="stroke: #696969; stroke-width: 1.5;" x1="229.5" x2="229.5" y1="385.1807" y2="420.1807"/><polygon fill="#696969" points="225.5,410.1807,229.5,420.1807,233.5,410.1807,229.5,414.1807" style="stroke: #696969; stroke-width: 1.0;"/><line style="stroke: #696969; stroke-width: 1.5;" x1="229.5" x2="229.5" y1="551.1807" y2="630.7549"/><polygon fill="#696969" points="225.5,620.7549,229.5,630.7549,233.5,620.7549,229.5,624.7549" style="stroke: #696969; stroke-width: 1.0;"/><line style="stroke: #696969; stroke-width: 1.5;" x1="293" x2="322" y1="539.1807" y2="539.1807"/><polygon fill="#696969" points="312,535.1807,322,539.1807,312,543.1807,316,539.1807" style="stroke: #696969; stroke-width: 1.0;"/><line style="stroke: #696969; stroke-width: 1.5;" x1="229.5" x2="229.5" y1="654.7549" y2="674.7549"/><polygon fill="#696969" points="225.5,664.7549,229.5,674.7549,233.5,664.7549,229.5,668.7549" style="stroke: #696969; stroke-width: 1.0;"/><line style="stroke: #696969; stroke-width: 1.5;" x1="294" x2="323" y1="642.7549" y2="642.7549"/><polygon fill="#696969" points="313,638.7549,323,642.7549,313,646.7549,317,642.7549" style="stroke: #696969; stroke-width: 1.0;"/><line style="stroke: #696969; stroke-width: 1.5;" x1="229.5" x2="229.5" y1="698.7549" y2="718.7549"/><polygon fill="#696969" points="225.5,708.7549,229.5,718.7549,233.5,708.7549,229.5,712.7549" style="stroke: #696969; stroke-width: 1.0;"/><line style="stroke: #696969; stroke-width: 1.5;" x1="322.5" x2="351.5" y1="686.7549" y2="686.7549"/><polygon fill="#696969" points="341.5,682.7549,351.5,686.7549,341.5,690.7549,345.5,686.7549" style="stroke: #696969; stroke-width: 1.0;"/><line style="stroke: #696969; stroke-width: 1.5;" x1="229.5" x2="229.5" y1="742.7549" y2="774.7549"/><polygon fill="#696969" points="225.5,764.7549,229.5,774.7549,233.5,764.7549,229.5,768.7549" style="stroke: #696969; stroke-width: 1.0;"/><line style="stroke: #696969; stroke-width: 1.5;" x1="327" x2="356" y1="730.7549" y2="730.7549"/><polygon fill="#696969" points="346,726.7549,356,730.7549,346,734.7549,350,730.7549" style="stroke: #696969; stroke-width: 1.0;"/><line style="stroke: #696969; stroke-width: 1.5;" x1="581.5" x2="581.5" y1="437.2158" y2="520.2158"/><polygon fill="#696969" points="577.5,510.2158,581.5,520.2158,585.5,510.2158,581.5,514.2158" style="stroke: #696969; stroke-width: 1.0;"/><line style="stroke: #696969; stroke-width: 1.5;" x1="656" x2="679" y1="425.2158" y2="425.2158"/><polygon fill="#696969" points="669,421.2158,679,425.2158,669,429.2158,673,425.2158" style="stroke: #696969; stroke-width: 1.0;"/><line style="stroke: #696969; stroke-width: 1.5;" x1="850" x2="850" y1="396.6689" y2="435.4736"/><polygon fill="#696969" points="846,425.4736,850,435.4736,854,425.4736,850,429.4736" style="stroke: #696969; stroke-width: 1.0;"/><line style="stroke: #696969; stroke-width: 1.5;" x1="850" x2="850" y1="470.5674" y2="505.5674"/><polygon fill="#696969" points="846,495.5674,850,505.5674,854,495.5674,850,499.5674" style="stroke: #696969; stroke-width: 1.0;"/><line style="stroke: #696969; stroke-width: 1.5;" x1="850" x2="850" y1="540.6611" y2="575.6611"/><polygon fill="#696969" points="846,565.6611,850,575.6611,854,565.6611,850,569.6611" style="stroke: #696969; stroke-width: 1.0;"/><line style="stroke: #696969; stroke-width: 1.5;" x1="1157.5" x2="1157.5" y1="466.7627" y2="501.7627"/><polygon fill="#696969" points="1153.5,491.7627,1157.5,501.7627,1161.5,491.7627,1157.5,495.7627" style="stroke: #696969; stroke-width: 1.0;"/><line style="stroke: #696969; stroke-width: 1.5;" x1="1414.5" x2="1414.5" y1="431.7158" y2="466.7158"/><polygon fill="#696969" points="1410.5,456.7158,1414.5,466.7158,1418.5,456.7158,1414.5,460.7158" style="stroke: #696969; stroke-width: 1.0;"/><line style="stroke: #696969; stroke-width: 1.5;" x1="1414.5" x2="1414.5" y1="501.8096" y2="536.8096"/><polygon fill="#696969" points="1410.5,526.8096,1414.5,536.8096,1418.5,526.8096,1414.5,530.8096" style="stroke: #696969; stroke-width: 1.0;"/><line style="stroke: #696969; stroke-width: 1.5;" x1="1659.5" x2="1659.5" y1="444.0518" y2="527.0518"/><polygon fill="#696969" points="1655.5,517.0518,1659.5,527.0518,1663.5,517.0518,1659.5,521.0518" style="stroke: #696969; stroke-width: 1.0;"/><line style="stroke: #696969; stroke-width: 1.5;" x1="1738.5" x2="1761.5" y1="425.2158" y2="425.2158"/><polygon fill="#696969" points="1751.5,421.2158,1761.5,425.2158,1751.5,429.2158,1755.5,425.2158" style="stroke: #696969; stroke-width: 1.0;"/><line style="stroke: #696969; stroke-width: 1.5;" x1="229.5" x2="229.5" y1="131.375" y2="182.5156"/><polygon fill="#696969" points="225.5,172.5156,229.5,182.5156,233.5,172.5156,229.5,176.5156" style="stroke: #696969; stroke-width: 1.0;"/><line style="stroke: #696969; stroke-width: 1.5;" x1="581.5" x2="581.5" y1="131.375" y2="413.2158"/><polygon fill="#696969" points="577.5,403.2158,581.5,413.2158,585.5,403.2158,581.5,407.2158" style="stroke: #696969; stroke-width: 1.0;"/><line style="stroke: #696969; stroke-width: 1.5;" x1="850" x2="850" y1="131.375" y2="361.5752"/><polygon fill="#696969" points="846,351.5752,850,361.5752,854,351.5752,850,355.5752" style="stroke: #696969; stroke-width: 1.0;"/><line style="stroke: #696969; stroke-width: 1.5;" x1="1157.5" x2="1157.5" y1="131.375" y2="431.6689"/><polygon fill="#696969" points="1153.5,421.6689,1157.5,431.6689,1161.5,421.6689,1157.5,425.6689" style="stroke: #696969; stroke-width: 1.0;"/><line style="stroke: #696969; stroke-width: 1.5;" x1="1414.5" x2="1414.5" y1="131.375" y2="396.6221"/><polygon fill="#696969" points="1410.5,386.6221,1414.5,396.6221,1418.5,386.6221,1414.5,390.6221" style="stroke: #696969; stroke-width: 1.0;"/><line style="stroke: #696969; stroke-width: 1.5;" x1="1659.5" x2="1659.5" y1="131.375" y2="406.3799"/><polygon fill="#696969" points="1655.5,396.3799,1659.5,406.3799,1663.5,396.3799,1659.5,400.3799" style="stroke: #696969; stroke-width: 1.0;"/><line style="stroke: #696969; stroke-width: 1.5;" x1="581.5" x2="581.5" y1="555.3096" y2="774.7549"/><polygon fill="#696969" points="577.5,764.7549,581.5,774.7549,585.5,764.7549,581.5,768.7549" style="stroke: #696969; stroke-width: 1.0;"/><line style="stroke: #696969; stroke-width: 1.5;" x1="850" x2="850" y1="610.7549" y2="774.7549"/><polygon fill="#696969" points="846,764.7549,850,774.7549,854,764.7549,850,768.7549" style="stroke: #696969; stroke-width: 1.0;"/><line style="stroke: #696969; stroke-width: 1.5;" x1="1157.5" x2="1157.5" y1="536.8564" y2="774.7549"/><polygon fill="#696969" points="1153.5,764.7549,1157.5,774.7549,1161.5,764.7549,1157.5,768.7549" style="stroke: #696969; stroke-width: 1.0;"/><line style="stroke: #696969; stroke-width: 1.5;" x1="1414.5" x2="1414.5" y1="571.9033" y2="774.7549"/><polygon fill="#696969" points="1410.5,764.7549,1414.5,774.7549,1418.5,764.7549,1414.5,768.7549" style="stroke: #696969; stroke-width: 1.0;"/><line style="stroke: #696969; stroke-width: 1.5;" x1="1659.5" x2="1659.5" y1="562.1455" y2="774.7549"/><polygon fill="#696969" points="1655.5,764.7549,1659.5,774.7549,1663.5,764.7549,1659.5,768.7549" style="stroke: #696969; stroke-width: 1.0;"/><line style="stroke: #696969; stroke-width: 1.5;" x1="914.75" x2="914.75" y1="105.375" y2="125.375"/><polygon fill="#696969" points="910.75,115.375,914.75,125.375,918.75,115.375,914.75,119.375" style="stroke: #696969; stroke-width: 1.0;"/><line style="stroke: #696969; stroke-width: 1.5;" x1="914.75" x2="914.75" y1="780.7549" y2="800.7549"/><polygon fill="#696969" points="910.75,790.7549,914.75,800.7549,918.75,790.7549,914.75,794.7549" style="stroke: #696969; stroke-width: 1.0;"/><line style="stroke: #696969; stroke-width: 1.5;" x1="914.75" x2="914.75" y1="835.8486" y2="855.8486"/><polygon fill="#696969" points="910.75,845.8486,914.75,855.8486,918.75,845.8486,914.75,849.8486" style="stroke: #696969; stroke-width: 1.0;"/><line style="stroke: #696969; stroke-width: 1.5;" x1="914.75" x2="914.75" y1="890.9424" y2="910.9424"/><polygon fill="#696969" points="910.75,900.9424,914.75,910.9424,918.75,900.9424,914.75,904.9424" style="stroke: #696969; stroke-width: 1.0;"/><rect fill="#B0C4DE" height="49.2188" rx="5" ry="5" style="stroke: #6495ED; stroke-width: 1.0;" width="178" x="824.75" y="937.9424"/><text fill="#FFFFFF" font-family="sans-serif" font-size="14" lengthAdjust="spacingAndGlyphs" textLength="40" x="830.75" y="957.4756">Terms</text><text fill="#FFFFFF" font-family="sans-serif" font-size="14" font-weight="bold" lengthAdjust="spacingAndGlyphs" textLength="28" x="834.75" y="977.085">ARV</text><text fill="#FFFFFF" font-family="sans-serif" font-size="14" font-weight="bold" lengthAdjust="spacingAndGlyphs" textLength="122" x="870.75" y="977.085">after repair value</text><line style="stroke: #FFFFFF; stroke-width: 1.0;" x1="830.75" x2="996.75" y1="962.5518" y2="962.5518"/><line style="stroke: #FFFFFF; stroke-width: 1.0;" x1="830.75" x2="996.75" y1="980.1611" y2="980.1611"/><line style="stroke: #FFFFFF; stroke-width: 1.0;" x1="830.75" x2="830.75" y1="962.5518" y2="980.1611"/><line style="stroke: #FFFFFF; stroke-width: 1.0;" x1="866.75" x2="866.75" y1="962.5518" y2="980.1611"/><line style="stroke: #FFFFFF; stroke-width: 1.0;" x1="996.75" x2="996.75" y1="962.5518" y2="980.1611"/><text fill="#000080" font-family="sans-serif" font-size="14" lengthAdjust="spacingAndGlyphs" textLength="42" x="10" y="1010.6943">©2019</text><a target="_top" xlink:actuate="onRequest" xlink:href="http://www.lifestylesunlimited.com" xlink:show="new" xlink:title="http://www.lifestylesunlimited.com" xlink:type="simple"><text fill="#0000FF" font-family="sans-serif" font-size="14" lengthAdjust="spacingAndGlyphs" text-decoration="underline" textLength="122" x="56" y="1010.6943">LifeStyles Unlimited</text><line style="stroke: #0000FF; stroke-width: 1.0;" x1="56" x2="178" y1="1012.6943" y2="1012.6943"/></a><text fill="#000080" font-family="sans-serif" font-size="14" lengthAdjust="spacingAndGlyphs" textLength="283" x="182" y="1010.6943">| Generated Sun May 12 17:24:30 CDT 2019</text><!--
@startuml pre-qualification


skinparam {
  BorderColor Red
  PathHoverColor Blue
}

skinparam Title {
  FontColor Navy
  BackgroundColor PaleGoldenRod
  BorderColor Navy
  BorderRoundCorner 20
  FontSize 24
}

skinparam activity {
  BackgroundColor Ivory
  BorderColor CornflowerBlue
  BorderThickness 1
  FontColor DimGray
  

  Arrow {
    Color dimgray
    FontColor dimgray
  }

  Start {
    Color PHYSICAL
  }

  End {
    Color Coral
  }

  Diamond {
    BackgroundColor Ivory
    BorderColor CornflowerBlue
    FontColor DarkGray
  }

  BackgroundColor<< Exception >> Red
	BorderColor<< Exception >> White
}

skinparam Swimlane {
  BorderColor CornflowerBlue 
}

skinparam Partition {
  BackgroundColor Ivory
  BorderColor CornflowerBlue
  BorderThickness 1
  FontColor CornflowerBlue
  FontSize 16
  BorderRoundCorner 20
}

skinparam Note {
  BackgroundColor LightSteelBlue
  BorderColor CornflowerBlue
  FontColor White
}

skinparam Legend {
  BackgroundColor LightSteelBlue
  BorderColor CornflowerBlue
  FontColor White
}

skinparam Footer {
  FontColor Navy
}


left header 
	<font color=Navy size=24>[[../index.svg?sanitize=true ⌂ Home]]</font>
endheader


	Title Pre-Qualification

	start

  fork

    partition Conventional {

      if(  debt / income <= 50%) then(no)
        stop
      endif
      
      if(self-employed) then (yes)
        if(2 years profit tax returns) then(no)
          stop
        endif
      elseif(years employed > 2) then(no)
        stop
      endif
      
      if(credit score > 650) then(no)
        stop
      endif
      if(bankruptcy < 4 years) then(yes)
        stop
      endif
      if(foreclosure < 7 years) then(yes)
        stop
      endif
      if(short sale / deed-in-lieu < 4 years) then(yes)
        stop
      endif
      if(late mortgage payment < 12 months) then(yes)
        stop
      endif

    }

  fork again
    partition "Fannie Mae Purchase Money Mortgage" {
      if(house in perfect condition) then (no)
        stop
      endif
      :75-80% lending out}
    }
    
  fork again
    partition "Hard Money Loan" {
      :70% ARV}
      note right: don't do 75%\nuntil refi
      :6-16.5% interest}
      :2-4 month term}
      :closes in 3 days}
    }

  fork again
    partition "Rate and Term Refinance Loan" {
      :75%}
      #Plum:no more out of pocket?;
    }

  fork again
    partition "Delayed Financing" {
      #Plum:offer cash?;
      :75-80% of all in cost}
      :get all money back minus repairs}
    }

  fork again
    partition "Cash Out Refinance Loan" {
      if(6-12 months of "seasoning"\n====\n(being rented out)) then (no)
        stop
      endif
      :pull out 75% of appraised value}
    }
  end fork

  :apply;

  :Qualification Letter/

  end

  legend
    Terms
    | ARV | after repair value |
  end legend


left footer 
	<font size=14>©2019 [[http://www.lifestylesunlimited.com LifeStyles Unlimited]] | Generated Sun May 12 17:24:30 CDT 2019</font>
endfooter


@enduml

PlantUML version 1.2019.03(Sun Mar 10 06:04:44 CDT 2019)
(GPL source distribution)
Java Runtime: Java(TM) SE Runtime Environment
JVM: Java HotSpot(TM) 64-Bit Server VM
Java Version: 1.8.0_111-b14
Operating System: Windows 10
OS Version: 10.0
Default Encoding: Cp1252
Language: en
Country: US
--></g></svg>