<?xml version="1.0" encoding="UTF-8" standalone="no"?><svg xmlns="http://www.w3.org/2000/svg" xmlns:xlink="http://www.w3.org/1999/xlink" contentScriptType="application/ecmascript" contentStyleType="text/css" height="901px" preserveAspectRatio="none" style="width:1730px;height:901px;" version="1.1" viewBox="0 0 1730 901" width="1730px" zoomAndPan="magnify"><defs><style type="text/css"><![CDATA[path:hover { stroke: #0000FF !important;}]]></style><filter height="300%" id="fokv8u9ln7uef" width="300%" x="-1" y="-1"><feGaussianBlur result="blurOut" stdDeviation="2.0"/><feColorMatrix in="blurOut" result="blurOut2" type="matrix" values="0 0 0 0 0 0 0 0 0 0 0 0 0 0 0 0 0 0 .4 0"/><feOffset dx="4.0" dy="4.0" in="blurOut2" result="blurOut3"/><feBlend in="SourceGraphic" in2="blurOut3" mode="normal"/></filter></defs><g><a target="_top" xlink:actuate="onRequest" xlink:href="../index.svg" xlink:show="new" xlink:title="../index.svg" xlink:type="simple"><text fill="#0000FF" font-family="sans-serif" font-size="24" lengthAdjust="spacingAndGlyphs" text-decoration="underline" textLength="90" x="10" y="34.9141">⌂ Home</text><line style="stroke: #0000FF; stroke-width: 1.0;" x1="10" x2="100" y1="36.9141" y2="36.9141"/></a><rect fill="#EEE8AA" height="40.1875" rx="10" ry="10" style="stroke: #000080; stroke-width: 1.5;" width="194" x="766.5" y="42.1875"/><text fill="#000080" font-family="sans-serif" font-size="24" lengthAdjust="spacingAndGlyphs" textLength="178" x="774.5" y="72.1016">Pre-Qualification</text><ellipse cx="864.5" cy="95.375" fill="#CCFFCC" filter="url(#fokv8u9ln7uef)" rx="10" ry="10" style="stroke: none; stroke-width: 1.0;"/><rect fill="#000000" filter="url(#fokv8u9ln7uef)" height="6" rx="2.5" ry="2.5" style="stroke: #000000; stroke-width: 1.0;" width="1709" x="10" y="125.375"/><rect fill="#FFFFF0" filter="url(#fokv8u9ln7uef)" height="555.4658" style="stroke: #6495ED; stroke-width: 1.0;" width="411" x="24" y="142.3906"/><path d="M124,143.3906 L124,155.5156 L114,165.5156 L24,165.5156 " fill="none" style="stroke: #6495ED; stroke-width: 1.0;"/><text fill="#6495ED" font-family="sans-serif" font-size="16" lengthAdjust="spacingAndGlyphs" textLength="90" x="27" y="160">Conventional</text><polygon fill="#FFFFF0" filter="url(#fokv8u9ln7uef)" points="174.5,182.5156,284.5,182.5156,296.5,194.5156,284.5,206.5156,174.5,206.5156,162.5,194.5156,174.5,182.5156" style="stroke: #6495ED; stroke-width: 1.0;"/><text fill="#A9A9A9" font-family="sans-serif" font-size="11" lengthAdjust="spacingAndGlyphs" textLength="104" x="180.5" y="199.0166">debt / income &lt;= 50%</text><text fill="#696969" font-family="sans-serif" font-size="11" lengthAdjust="spacingAndGlyphs" textLength="12" x="296.5" y="192.0986">no</text><ellipse cx="330.5" cy="194.5156" fill="#FFFFFF" filter="url(#fokv8u9ln7uef)" rx="11" ry="11" style="stroke: #FF7F50; stroke-width: 1.0;"/><ellipse cx="330.5" cy="194.5156" fill="#FF7F50" rx="6" ry="6" style="stroke: #FFBFA7; stroke-width: 1.0;"/><polygon fill="#FFFFF0" filter="url(#fokv8u9ln7uef)" points="72.5,226.5156,140.5,226.5156,152.5,238.5156,140.5,250.5156,72.5,250.5156,60.5,238.5156,72.5,226.5156" style="stroke: #6495ED; stroke-width: 1.0;"/><text fill="#696969" font-family="sans-serif" font-size="11" lengthAdjust="spacingAndGlyphs" textLength="18" x="110.5" y="261.9346">yes</text><text fill="#A9A9A9" font-family="sans-serif" font-size="11" lengthAdjust="spacingAndGlyphs" textLength="68" x="72.5" y="243.0166">self-employed</text><polygon fill="#FFFFF0" filter="url(#fokv8u9ln7uef)" points="46,283.4346,167,283.4346,179,295.4346,167,307.4346,46,307.4346,34,295.4346,46,283.4346" style="stroke: #6495ED; stroke-width: 1.0;"/><text fill="#A9A9A9" font-family="sans-serif" font-size="11" lengthAdjust="spacingAndGlyphs" textLength="121" x="46" y="299.9355">2 years profit tax returns</text><text fill="#696969" font-family="sans-serif" font-size="11" lengthAdjust="spacingAndGlyphs" textLength="12" x="179" y="293.0176">no</text><ellipse cx="213" cy="295.4346" fill="#FFFFFF" filter="url(#fokv8u9ln7uef)" rx="11" ry="11" style="stroke: #FF7F50; stroke-width: 1.0;"/><ellipse cx="213" cy="295.4346" fill="#FF7F50" rx="6" ry="6" style="stroke: #FFBFA7; stroke-width: 1.0;"/><polygon fill="#FFFFF0" filter="url(#fokv8u9ln7uef)" points="268,226.5156,363,226.5156,375,238.5156,363,250.5156,268,250.5156,256,238.5156,268,226.5156" style="stroke: #6495ED; stroke-width: 1.0;"/><text fill="#696969" font-family="sans-serif" font-size="11" lengthAdjust="spacingAndGlyphs" textLength="12" x="319.5" y="261.9346">no</text><text fill="#A9A9A9" font-family="sans-serif" font-size="11" lengthAdjust="spacingAndGlyphs" textLength="95" x="268" y="243.0166">years employed &gt; 2</text><ellipse cx="315.5" cy="294.4346" fill="#FFFFFF" filter="url(#fokv8u9ln7uef)" rx="11" ry="11" style="stroke: #FF7F50; stroke-width: 1.0;"/><ellipse cx="315.5" cy="294.4346" fill="#FF7F50" rx="6" ry="6" style="stroke: #FFBFA7; stroke-width: 1.0;"/><polygon fill="#FFFFF0" filter="url(#fokv8u9ln7uef)" points="185.5,382.1338,273.5,382.1338,285.5,394.1338,273.5,406.1338,185.5,406.1338,173.5,394.1338,185.5,382.1338" style="stroke: #6495ED; stroke-width: 1.0;"/><text fill="#A9A9A9" font-family="sans-serif" font-size="11" lengthAdjust="spacingAndGlyphs" textLength="88" x="185.5" y="398.6348">credit score &gt; 650</text><text fill="#696969" font-family="sans-serif" font-size="11" lengthAdjust="spacingAndGlyphs" textLength="12" x="285.5" y="391.7168">no</text><ellipse cx="319.5" cy="394.1338" fill="#FFFFFF" filter="url(#fokv8u9ln7uef)" rx="11" ry="11" style="stroke: #FF7F50; stroke-width: 1.0;"/><ellipse cx="319.5" cy="394.1338" fill="#FF7F50" rx="6" ry="6" style="stroke: #FFBFA7; stroke-width: 1.0;"/><polygon fill="#FFFFF0" filter="url(#fokv8u9ln7uef)" points="178,489.1338,281,489.1338,293,501.1338,281,513.1338,178,513.1338,166,501.1338,178,489.1338" style="stroke: #6495ED; stroke-width: 1.0;"/><text fill="#A9A9A9" font-family="sans-serif" font-size="11" lengthAdjust="spacingAndGlyphs" textLength="103" x="178" y="505.6348">bankruptcy &lt; 4 years</text><text fill="#696969" font-family="sans-serif" font-size="11" lengthAdjust="spacingAndGlyphs" textLength="18" x="293" y="498.7168">yes</text><ellipse cx="333" cy="501.1338" fill="#FFFFFF" filter="url(#fokv8u9ln7uef)" rx="11" ry="11" style="stroke: #FF7F50; stroke-width: 1.0;"/><ellipse cx="333" cy="501.1338" fill="#FF7F50" rx="6" ry="6" style="stroke: #FFBFA7; stroke-width: 1.0;"/><polygon fill="#FFFFF0" filter="url(#fokv8u9ln7uef)" points="177,573.8564,282,573.8564,294,585.8564,282,597.8564,177,597.8564,165,585.8564,177,573.8564" style="stroke: #6495ED; stroke-width: 1.0;"/><text fill="#A9A9A9" font-family="sans-serif" font-size="11" lengthAdjust="spacingAndGlyphs" textLength="105" x="177" y="590.3574">foreclosure &lt; 7 years</text><text fill="#696969" font-family="sans-serif" font-size="11" lengthAdjust="spacingAndGlyphs" textLength="18" x="294" y="583.4395">yes</text><ellipse cx="334" cy="585.8564" fill="#FFFFFF" filter="url(#fokv8u9ln7uef)" rx="11" ry="11" style="stroke: #FF7F50; stroke-width: 1.0;"/><ellipse cx="334" cy="585.8564" fill="#FF7F50" rx="6" ry="6" style="stroke: #FFBFA7; stroke-width: 1.0;"/><polygon fill="#FFFFF0" filter="url(#fokv8u9ln7uef)" points="148.5,617.8564,310.5,617.8564,322.5,629.8564,310.5,641.8564,148.5,641.8564,136.5,629.8564,148.5,617.8564" style="stroke: #6495ED; stroke-width: 1.0;"/><text fill="#A9A9A9" font-family="sans-serif" font-size="11" lengthAdjust="spacingAndGlyphs" textLength="162" x="148.5" y="634.3574">short sale / deed-in-lieu &lt; 4 years</text><text fill="#696969" font-family="sans-serif" font-size="11" lengthAdjust="spacingAndGlyphs" textLength="18" x="322.5" y="627.4395">yes</text><ellipse cx="362.5" cy="629.8564" fill="#FFFFFF" filter="url(#fokv8u9ln7uef)" rx="11" ry="11" style="stroke: #FF7F50; stroke-width: 1.0;"/><ellipse cx="362.5" cy="629.8564" fill="#FF7F50" rx="6" ry="6" style="stroke: #FFBFA7; stroke-width: 1.0;"/><polygon fill="#FFFFF0" filter="url(#fokv8u9ln7uef)" points="144,661.8564,315,661.8564,327,673.8564,315,685.8564,144,685.8564,132,673.8564,144,661.8564" style="stroke: #6495ED; stroke-width: 1.0;"/><text fill="#A9A9A9" font-family="sans-serif" font-size="11" lengthAdjust="spacingAndGlyphs" textLength="171" x="144" y="678.3574">late mortgage payment &lt; 12 months</text><text fill="#696969" font-family="sans-serif" font-size="11" lengthAdjust="spacingAndGlyphs" textLength="18" x="327" y="671.4395">yes</text><ellipse cx="367" cy="673.8564" fill="#FFFFFF" filter="url(#fokv8u9ln7uef)" rx="11" ry="11" style="stroke: #FF7F50; stroke-width: 1.0;"/><ellipse cx="367" cy="673.8564" fill="#FF7F50" rx="6" ry="6" style="stroke: #FFBFA7; stroke-width: 1.0;"/><rect fill="#FFFFF0" filter="url(#fokv8u9ln7uef)" height="202.2188" style="stroke: #6495ED; stroke-width: 1.0;" width="294" x="463" y="335.0439"/><path d="M747,336.0439 L747,348.1689 L737,358.1689 L463,358.1689 " fill="none" style="stroke: #6495ED; stroke-width: 1.0;"/><text fill="#6495ED" font-family="sans-serif" font-size="16" lengthAdjust="spacingAndGlyphs" textLength="274" x="466" y="352.6533">Fannie Mae Purchase Money Mortgage</text><polygon fill="#FFFFF0" filter="url(#fokv8u9ln7uef)" points="519,375.1689,644,375.1689,656,387.1689,644,399.1689,519,399.1689,507,387.1689,519,375.1689" style="stroke: #6495ED; stroke-width: 1.0;"/><text fill="#A9A9A9" font-family="sans-serif" font-size="11" lengthAdjust="spacingAndGlyphs" textLength="125" x="519" y="391.6699">house in perfect condition</text><text fill="#696969" font-family="sans-serif" font-size="11" lengthAdjust="spacingAndGlyphs" textLength="12" x="656" y="384.752">no</text><ellipse cx="690" cy="387.1689" fill="#FFFFFF" filter="url(#fokv8u9ln7uef)" rx="11" ry="11" style="stroke: #FF7F50; stroke-width: 1.0;"/><ellipse cx="690" cy="387.1689" fill="#FF7F50" rx="6" ry="6" style="stroke: #FFBFA7; stroke-width: 1.0;"/><path d="M523,482.1689 L518,499.7158 L523,517.2627 M640,482.1689 L645,499.7158 L640,517.2627 " fill="#FFFFF0" filter="url(#fokv8u9ln7uef)" style="stroke: #6495ED; stroke-width: 1.0;"/><text fill="#696969" font-family="sans-serif" font-size="12" lengthAdjust="spacingAndGlyphs" textLength="107" x="528" y="504.626">75-80% lending out</text><rect fill="#FFFFF0" filter="url(#fokv8u9ln7uef)" height="235.4063" style="stroke: #6495ED; stroke-width: 1.0;" width="143" x="785" y="318.4502"/><path d="M918,319.4502 L918,331.5752 L908,341.5752 L785,341.5752 " fill="none" style="stroke: #6495ED; stroke-width: 1.0;"/><text fill="#6495ED" font-family="sans-serif" font-size="16" lengthAdjust="spacingAndGlyphs" textLength="123" x="788" y="336.0596">Hard Money Loan</text><path d="M817,358.5752 L812,376.1221 L817,393.6689 M896,358.5752 L901,376.1221 L896,393.6689 " fill="#FFFFF0" filter="url(#fokv8u9ln7uef)" style="stroke: #6495ED; stroke-width: 1.0;"/><text fill="#696969" font-family="sans-serif" font-size="12" lengthAdjust="spacingAndGlyphs" textLength="69" x="822" y="381.0322">70-75% ARV</text><path d="M806.5,428.6689 L801.5,446.2158 L806.5,463.7627 M906.5,428.6689 L911.5,446.2158 L906.5,463.7627 " fill="#FFFFF0" filter="url(#fokv8u9ln7uef)" style="stroke: #6495ED; stroke-width: 1.0;"/><text fill="#696969" font-family="sans-serif" font-size="12" lengthAdjust="spacingAndGlyphs" textLength="90" x="811.5" y="451.126">6-16.5% interest</text><path d="M809.5,498.7627 L804.5,516.3096 L809.5,533.8564 M903.5,498.7627 L908.5,516.3096 L903.5,533.8564 " fill="#FFFFF0" filter="url(#fokv8u9ln7uef)" style="stroke: #6495ED; stroke-width: 1.0;"/><text fill="#696969" font-family="sans-serif" font-size="12" lengthAdjust="spacingAndGlyphs" textLength="84" x="814.5" y="521.2197">2-4 month term</text><rect fill="#FFFFF0" filter="url(#fokv8u9ln7uef)" height="165.3125" style="stroke: #6495ED; stroke-width: 1.0;" width="236" x="956" y="353.4971"/><path d="M1182,354.4971 L1182,366.6221 L1172,376.6221 L956,376.6221 " fill="none" style="stroke: #6495ED; stroke-width: 1.0;"/><text fill="#6495ED" font-family="sans-serif" font-size="16" lengthAdjust="spacingAndGlyphs" textLength="216" x="959" y="371.1064">Rate and Term Refinance Loan</text><path d="M1056.5,393.6221 L1051.5,411.1689 L1056.5,428.7158 M1091.5,393.6221 L1096.5,411.1689 L1091.5,428.7158 " fill="#FFFFF0" filter="url(#fokv8u9ln7uef)" style="stroke: #6495ED; stroke-width: 1.0;"/><text fill="#696969" font-family="sans-serif" font-size="12" lengthAdjust="spacingAndGlyphs" textLength="25" x="1061.5" y="416.0791">75%</text><rect fill="#DDA0DD" filter="url(#fokv8u9ln7uef)" height="35.0938" rx="12.5" ry="12.5" style="stroke: #6495ED; stroke-width: 1.0;" width="145" x="1001.5" y="463.7158"/><text fill="#696969" font-family="sans-serif" font-size="12" lengthAdjust="spacingAndGlyphs" textLength="125" x="1011.5" y="486.1729">no more out of pocket?</text><rect fill="#FFFFF0" filter="url(#fokv8u9ln7uef)" height="235.4063" style="stroke: #6495ED; stroke-width: 1.0;" width="222" x="1220" y="318.4502"/><path d="M1360,319.4502 L1360,331.5752 L1350,341.5752 L1220,341.5752 " fill="none" style="stroke: #6495ED; stroke-width: 1.0;"/><text fill="#6495ED" font-family="sans-serif" font-size="16" lengthAdjust="spacingAndGlyphs" textLength="130" x="1223" y="336.0596">Delayed Financing</text><path d="M1270.5,358.5752 L1265.5,376.1221 L1270.5,393.6689 M1391.5,358.5752 L1396.5,376.1221 L1391.5,393.6689 " fill="#FFFFF0" filter="url(#fokv8u9ln7uef)" style="stroke: #6495ED; stroke-width: 1.0;"/><text fill="#696969" font-family="sans-serif" font-size="12" lengthAdjust="spacingAndGlyphs" textLength="111" x="1275.5" y="381.0322">75-80% of all in cost</text><path d="M1235,428.6689 L1230,446.2158 L1235,463.7627 M1427,428.6689 L1432,446.2158 L1427,463.7627 " fill="#FFFFF0" filter="url(#fokv8u9ln7uef)" style="stroke: #6495ED; stroke-width: 1.0;"/><text fill="#696969" font-family="sans-serif" font-size="12" lengthAdjust="spacingAndGlyphs" textLength="182" x="1240" y="451.126">get all money back minus repairs</text><rect fill="#DDA0DD" filter="url(#fokv8u9ln7uef)" height="35.0938" rx="12.5" ry="12.5" style="stroke: #6495ED; stroke-width: 1.0;" width="81" x="1290.5" y="498.7627"/><text fill="#696969" font-family="sans-serif" font-size="12" lengthAdjust="spacingAndGlyphs" textLength="61" x="1300.5" y="521.2197">offer cash?</text><rect fill="#FFFFF0" filter="url(#fokv8u9ln7uef)" height="215.8906" style="stroke: #6495ED; stroke-width: 1.0;" width="235" x="1470" y="328.208"/><path d="M1658,329.208 L1658,341.333 L1648,351.333 L1470,351.333 " fill="none" style="stroke: #6495ED; stroke-width: 1.0;"/><text fill="#6495ED" font-family="sans-serif" font-size="16" lengthAdjust="spacingAndGlyphs" textLength="178" x="1473" y="345.8174">Cash Out Refinance Loan</text><polygon fill="#FFFFF0" filter="url(#fokv8u9ln7uef)" points="1492,368.333,1626,368.333,1638,387.1689,1626,406.0049,1492,406.0049,1480,387.1689,1492,368.333" style="stroke: #6495ED; stroke-width: 1.0;"/><text fill="#A9A9A9" font-family="sans-serif" font-size="11" lengthAdjust="spacingAndGlyphs" textLength="134" x="1492" y="379.752">6-12 months of "seasoning"</text><line style="stroke: #6495ED; stroke-width: 1.0;" x1="1480" x2="1638" y1="387.1689" y2="387.1689"/><line style="stroke: #6495ED; stroke-width: 1.0;" x1="1481.2742" x2="1636.7258" y1="389.1689" y2="389.1689"/><text fill="#A9A9A9" font-family="sans-serif" font-size="11" lengthAdjust="spacingAndGlyphs" textLength="86" x="1492" y="403.5879">(being rented out)</text><text fill="#696969" font-family="sans-serif" font-size="11" lengthAdjust="spacingAndGlyphs" textLength="12" x="1638" y="384.752">no</text><ellipse cx="1672" cy="387.1689" fill="#FFFFFF" filter="url(#fokv8u9ln7uef)" rx="11" ry="11" style="stroke: #FF7F50; stroke-width: 1.0;"/><ellipse cx="1672" cy="387.1689" fill="#FF7F50" rx="6" ry="6" style="stroke: #FFBFA7; stroke-width: 1.0;"/><path d="M1489.5,489.0049 L1484.5,506.5518 L1489.5,524.0986 M1628.5,489.0049 L1633.5,506.5518 L1628.5,524.0986 " fill="#FFFFF0" filter="url(#fokv8u9ln7uef)" style="stroke: #6495ED; stroke-width: 1.0;"/><text fill="#696969" font-family="sans-serif" font-size="12" lengthAdjust="spacingAndGlyphs" textLength="129" x="1494.5" y="511.4619">75% of appraised value</text><rect fill="#000000" filter="url(#fokv8u9ln7uef)" height="6" rx="2.5" ry="2.5" style="stroke: #000000; stroke-width: 1.0;" width="1709" x="10" y="717.8564"/><rect fill="#FFFFF0" filter="url(#fokv8u9ln7uef)" height="35.0938" rx="12.5" ry="12.5" style="stroke: #6495ED; stroke-width: 1.0;" width="49" x="840" y="743.8564"/><text fill="#696969" font-family="sans-serif" font-size="12" lengthAdjust="spacingAndGlyphs" textLength="29" x="850" y="766.3135">apply</text><polygon fill="#FFFFF0" filter="url(#fokv8u9ln7uef)" points="813.5,798.9502,925.5,798.9502,915.5,834.0439,803.5,834.0439" style="stroke: #6495ED; stroke-width: 1.0;"/><text fill="#696969" font-family="sans-serif" font-size="12" lengthAdjust="spacingAndGlyphs" textLength="102" x="813.5" y="821.4072">Qualification Letter</text><ellipse cx="864.5" cy="864.0439" fill="#FFFFFF" filter="url(#fokv8u9ln7uef)" rx="10" ry="10" style="stroke: #FF7F50; stroke-width: 1.5;"/><line style="stroke: #FF7F50; stroke-width: 2.5;" x1="858.3128" x2="870.6872" y1="857.8568" y2="870.2311"/><line style="stroke: #FF7F50; stroke-width: 2.5;" x1="870.6872" x2="858.3128" y1="857.8568" y2="870.2311"/><line style="stroke: #696969; stroke-width: 1.5;" x1="229.5" x2="229.5" y1="206.5156" y2="211.5156"/><line style="stroke: #696969; stroke-width: 1.5;" x1="296.5" x2="319.5" y1="194.5156" y2="194.5156"/><polygon fill="#696969" points="309.5,190.5156,319.5,194.5156,309.5,198.5156,313.5,194.5156" style="stroke: #696969; stroke-width: 1.0;"/><line style="stroke: #696969; stroke-width: 1.5;" x1="106.5" x2="106.5" y1="307.4346" y2="347.1338"/><polygon fill="#696969" points="102.5,337.1338,106.5,347.1338,110.5,337.1338,106.5,341.1338" style="stroke: #696969; stroke-width: 1.0;"/><line style="stroke: #696969; stroke-width: 1.5;" x1="179" x2="202" y1="295.4346" y2="295.4346"/><polygon fill="#696969" points="192,291.4346,202,295.4346,192,299.4346,196,295.4346" style="stroke: #696969; stroke-width: 1.0;"/><line style="stroke: #696969; stroke-width: 1.5;" x1="106.5" x2="106.5" y1="250.5156" y2="283.4346"/><polygon fill="#696969" points="102.5,273.4346,106.5,283.4346,110.5,273.4346,106.5,277.4346" style="stroke: #696969; stroke-width: 1.0;"/><line style="stroke: #696969; stroke-width: 1.5;" x1="315.5" x2="315.5" y1="250.5156" y2="283.4346"/><polygon fill="#696969" points="311.5,273.4346,315.5,283.4346,319.5,273.4346,315.5,277.4346" style="stroke: #696969; stroke-width: 1.0;"/><line style="stroke: #696969; stroke-width: 1.5;" x1="152.5" x2="256" y1="238.5156" y2="238.5156"/><polygon fill="#696969" points="246,234.5156,256,238.5156,246,242.5156,250,238.5156" style="stroke: #696969; stroke-width: 1.0;"/><line style="stroke: #696969; stroke-width: 1.5;" x1="229.5" x2="106.5" y1="211.5156" y2="211.5156"/><line style="stroke: #696969; stroke-width: 1.5;" x1="106.5" x2="106.5" y1="211.5156" y2="226.5156"/><polygon fill="#696969" points="102.5,216.5156,106.5,226.5156,110.5,216.5156,106.5,220.5156" style="stroke: #696969; stroke-width: 1.0;"/><line style="stroke: #696969; stroke-width: 1.5;" x1="375" x2="410" y1="238.5156" y2="238.5156"/><line style="stroke: #696969; stroke-width: 1.5;" x1="410" x2="410" y1="238.5156" y2="347.1338"/><polygon fill="#696969" points="406,337.1338,410,347.1338,414,337.1338,410,341.1338" style="stroke: #696969; stroke-width: 1.0;"/><line style="stroke: #696969; stroke-width: 1.5;" x1="106.5" x2="410" y1="347.1338" y2="347.1338"/><line style="stroke: #696969; stroke-width: 1.5;" x1="229.5" x2="229.5" y1="406.1338" y2="489.1338"/><polygon fill="#696969" points="225.5,479.1338,229.5,489.1338,233.5,479.1338,229.5,483.1338" style="stroke: #696969; stroke-width: 1.0;"/><line style="stroke: #696969; stroke-width: 1.5;" x1="285.5" x2="308.5" y1="394.1338" y2="394.1338"/><polygon fill="#696969" points="298.5,390.1338,308.5,394.1338,298.5,398.1338,302.5,394.1338" style="stroke: #696969; stroke-width: 1.0;"/><line style="stroke: #696969; stroke-width: 1.5;" x1="229.5" x2="229.5" y1="347.1338" y2="382.1338"/><polygon fill="#696969" points="225.5,372.1338,229.5,382.1338,233.5,372.1338,229.5,376.1338" style="stroke: #696969; stroke-width: 1.0;"/><line style="stroke: #696969; stroke-width: 1.5;" x1="229.5" x2="229.5" y1="513.1338" y2="573.8564"/><polygon fill="#696969" points="225.5,563.8564,229.5,573.8564,233.5,563.8564,229.5,567.8564" style="stroke: #696969; stroke-width: 1.0;"/><line style="stroke: #696969; stroke-width: 1.5;" x1="293" x2="322" y1="501.1338" y2="501.1338"/><polygon fill="#696969" points="312,497.1338,322,501.1338,312,505.1338,316,501.1338" style="stroke: #696969; stroke-width: 1.0;"/><line style="stroke: #696969; stroke-width: 1.5;" x1="229.5" x2="229.5" y1="597.8564" y2="617.8564"/><polygon fill="#696969" points="225.5,607.8564,229.5,617.8564,233.5,607.8564,229.5,611.8564" style="stroke: #696969; stroke-width: 1.0;"/><line style="stroke: #696969; stroke-width: 1.5;" x1="294" x2="323" y1="585.8564" y2="585.8564"/><polygon fill="#696969" points="313,581.8564,323,585.8564,313,589.8564,317,585.8564" style="stroke: #696969; stroke-width: 1.0;"/><line style="stroke: #696969; stroke-width: 1.5;" x1="229.5" x2="229.5" y1="641.8564" y2="661.8564"/><polygon fill="#696969" points="225.5,651.8564,229.5,661.8564,233.5,651.8564,229.5,655.8564" style="stroke: #696969; stroke-width: 1.0;"/><line style="stroke: #696969; stroke-width: 1.5;" x1="322.5" x2="351.5" y1="629.8564" y2="629.8564"/><polygon fill="#696969" points="341.5,625.8564,351.5,629.8564,341.5,633.8564,345.5,629.8564" style="stroke: #696969; stroke-width: 1.0;"/><line style="stroke: #696969; stroke-width: 1.5;" x1="229.5" x2="229.5" y1="685.8564" y2="717.8564"/><polygon fill="#696969" points="225.5,707.8564,229.5,717.8564,233.5,707.8564,229.5,711.8564" style="stroke: #696969; stroke-width: 1.0;"/><line style="stroke: #696969; stroke-width: 1.5;" x1="327" x2="356" y1="673.8564" y2="673.8564"/><polygon fill="#696969" points="346,669.8564,356,673.8564,346,677.8564,350,673.8564" style="stroke: #696969; stroke-width: 1.0;"/><line style="stroke: #696969; stroke-width: 1.5;" x1="581.5" x2="581.5" y1="399.1689" y2="482.1689"/><polygon fill="#696969" points="577.5,472.1689,581.5,482.1689,585.5,472.1689,581.5,476.1689" style="stroke: #696969; stroke-width: 1.0;"/><line style="stroke: #696969; stroke-width: 1.5;" x1="656" x2="679" y1="387.1689" y2="387.1689"/><polygon fill="#696969" points="669,383.1689,679,387.1689,669,391.1689,673,387.1689" style="stroke: #696969; stroke-width: 1.0;"/><line style="stroke: #696969; stroke-width: 1.5;" x1="856.5" x2="856.5" y1="393.6689" y2="428.6689"/><polygon fill="#696969" points="852.5,418.6689,856.5,428.6689,860.5,418.6689,856.5,422.6689" style="stroke: #696969; stroke-width: 1.0;"/><line style="stroke: #696969; stroke-width: 1.5;" x1="856.5" x2="856.5" y1="463.7627" y2="498.7627"/><polygon fill="#696969" points="852.5,488.7627,856.5,498.7627,860.5,488.7627,856.5,492.7627" style="stroke: #696969; stroke-width: 1.0;"/><line style="stroke: #696969; stroke-width: 1.5;" x1="1074" x2="1074" y1="428.7158" y2="463.7158"/><polygon fill="#696969" points="1070,453.7158,1074,463.7158,1078,453.7158,1074,457.7158" style="stroke: #696969; stroke-width: 1.0;"/><line style="stroke: #696969; stroke-width: 1.5;" x1="1331" x2="1331" y1="393.6689" y2="428.6689"/><polygon fill="#696969" points="1327,418.6689,1331,428.6689,1335,418.6689,1331,422.6689" style="stroke: #696969; stroke-width: 1.0;"/><line style="stroke: #696969; stroke-width: 1.5;" x1="1331" x2="1331" y1="463.7627" y2="498.7627"/><polygon fill="#696969" points="1327,488.7627,1331,498.7627,1335,488.7627,1331,492.7627" style="stroke: #696969; stroke-width: 1.0;"/><line style="stroke: #696969; stroke-width: 1.5;" x1="1559" x2="1559" y1="406.0049" y2="489.0049"/><polygon fill="#696969" points="1555,479.0049,1559,489.0049,1563,479.0049,1559,483.0049" style="stroke: #696969; stroke-width: 1.0;"/><line style="stroke: #696969; stroke-width: 1.5;" x1="1638" x2="1661" y1="387.1689" y2="387.1689"/><polygon fill="#696969" points="1651,383.1689,1661,387.1689,1651,391.1689,1655,387.1689" style="stroke: #696969; stroke-width: 1.0;"/><line style="stroke: #696969; stroke-width: 1.5;" x1="229.5" x2="229.5" y1="131.375" y2="182.5156"/><polygon fill="#696969" points="225.5,172.5156,229.5,182.5156,233.5,172.5156,229.5,176.5156" style="stroke: #696969; stroke-width: 1.0;"/><line style="stroke: #696969; stroke-width: 1.5;" x1="581.5" x2="581.5" y1="131.375" y2="375.1689"/><polygon fill="#696969" points="577.5,365.1689,581.5,375.1689,585.5,365.1689,581.5,369.1689" style="stroke: #696969; stroke-width: 1.0;"/><line style="stroke: #696969; stroke-width: 1.5;" x1="856.5" x2="856.5" y1="131.375" y2="358.5752"/><polygon fill="#696969" points="852.5,348.5752,856.5,358.5752,860.5,348.5752,856.5,352.5752" style="stroke: #696969; stroke-width: 1.0;"/><line style="stroke: #696969; stroke-width: 1.5;" x1="1074" x2="1074" y1="131.375" y2="393.6221"/><polygon fill="#696969" points="1070,383.6221,1074,393.6221,1078,383.6221,1074,387.6221" style="stroke: #696969; stroke-width: 1.0;"/><line style="stroke: #696969; stroke-width: 1.5;" x1="1331" x2="1331" y1="131.375" y2="358.5752"/><polygon fill="#696969" points="1327,348.5752,1331,358.5752,1335,348.5752,1331,352.5752" style="stroke: #696969; stroke-width: 1.0;"/><line style="stroke: #696969; stroke-width: 1.5;" x1="1559" x2="1559" y1="131.375" y2="368.333"/><polygon fill="#696969" points="1555,358.333,1559,368.333,1563,358.333,1559,362.333" style="stroke: #696969; stroke-width: 1.0;"/><line style="stroke: #696969; stroke-width: 1.5;" x1="581.5" x2="581.5" y1="517.2627" y2="717.8564"/><polygon fill="#696969" points="577.5,707.8564,581.5,717.8564,585.5,707.8564,581.5,711.8564" style="stroke: #696969; stroke-width: 1.0;"/><line style="stroke: #696969; stroke-width: 1.5;" x1="856.5" x2="856.5" y1="533.8564" y2="717.8564"/><polygon fill="#696969" points="852.5,707.8564,856.5,717.8564,860.5,707.8564,856.5,711.8564" style="stroke: #696969; stroke-width: 1.0;"/><line style="stroke: #696969; stroke-width: 1.5;" x1="1074" x2="1074" y1="498.8096" y2="717.8564"/><polygon fill="#696969" points="1070,707.8564,1074,717.8564,1078,707.8564,1074,711.8564" style="stroke: #696969; stroke-width: 1.0;"/><line style="stroke: #696969; stroke-width: 1.5;" x1="1331" x2="1331" y1="533.8564" y2="717.8564"/><polygon fill="#696969" points="1327,707.8564,1331,717.8564,1335,707.8564,1331,711.8564" style="stroke: #696969; stroke-width: 1.0;"/><line style="stroke: #696969; stroke-width: 1.5;" x1="1559" x2="1559" y1="524.0986" y2="717.8564"/><polygon fill="#696969" points="1555,707.8564,1559,717.8564,1563,707.8564,1559,711.8564" style="stroke: #696969; stroke-width: 1.0;"/><line style="stroke: #696969; stroke-width: 1.5;" x1="864.5" x2="864.5" y1="105.375" y2="125.375"/><polygon fill="#696969" points="860.5,115.375,864.5,125.375,868.5,115.375,864.5,119.375" style="stroke: #696969; stroke-width: 1.0;"/><line style="stroke: #696969; stroke-width: 1.5;" x1="864.5" x2="864.5" y1="723.8564" y2="743.8564"/><polygon fill="#696969" points="860.5,733.8564,864.5,743.8564,868.5,733.8564,864.5,737.8564" style="stroke: #696969; stroke-width: 1.0;"/><line style="stroke: #696969; stroke-width: 1.5;" x1="864.5" x2="864.5" y1="778.9502" y2="798.9502"/><polygon fill="#696969" points="860.5,788.9502,864.5,798.9502,868.5,788.9502,864.5,792.9502" style="stroke: #696969; stroke-width: 1.0;"/><line style="stroke: #696969; stroke-width: 1.5;" x1="864.5" x2="864.5" y1="834.0439" y2="854.0439"/><polygon fill="#696969" points="860.5,844.0439,864.5,854.0439,868.5,844.0439,864.5,848.0439" style="stroke: #696969; stroke-width: 1.0;"/><text fill="#000080" font-family="sans-serif" font-size="14" lengthAdjust="spacingAndGlyphs" textLength="42" x="10" y="887.5771">©2019</text><a target="_top" xlink:actuate="onRequest" xlink:href="http://www.lifestylesunlimited.com" xlink:show="new" xlink:title="http://www.lifestylesunlimited.com" xlink:type="simple"><text fill="#0000FF" font-family="sans-serif" font-size="14" lengthAdjust="spacingAndGlyphs" text-decoration="underline" textLength="122" x="56" y="887.5771">LifeStyles Unlimited</text><line style="stroke: #0000FF; stroke-width: 1.0;" x1="56" x2="178" y1="889.5771" y2="889.5771"/></a><text fill="#000080" font-family="sans-serif" font-size="14" lengthAdjust="spacingAndGlyphs" textLength="279" x="182" y="887.5771">| Generated Sun Apr 28 19:55:47 CDT 2019</text><!--
@startuml pre-qualification


skinparam {
  BorderColor Red
  PathHoverColor Blue
}

skinparam Title {
  FontColor Navy
  BackgroundColor PaleGoldenRod
  BorderColor Navy
  BorderRoundCorner 20
  FontSize 24
}

skinparam activity {
  BackgroundColor Ivory
  BorderColor CornflowerBlue
  BorderThickness 1
  FontColor DimGray
  

  Arrow {
    Color dimgray
    FontColor dimgray
  }

  Start {
    Color PHYSICAL
  }

  End {
    Color Coral
  }

  Diamond {
    BackgroundColor Ivory
    BorderColor CornflowerBlue
    FontColor DarkGray
  }

  BackgroundColor<< Exception >> Red
	BorderColor<< Exception >> White
}

skinparam Swimlane {
  BorderColor CornflowerBlue 
}

skinparam Partition {
  BackgroundColor Ivory
  BorderColor CornflowerBlue
  BorderThickness 1
  FontColor CornflowerBlue
  FontSize 16
  BorderRoundCorner 20
}

skinparam Note {
  BackgroundColor LightSteelBlue
  BorderColor CornflowerBlue
  FontColor White
}

skinparam Legend {
  BackgroundColor LightSteelBlue
  BorderColor CornflowerBlue
  FontColor White
}

skinparam Footer {
  FontColor Navy
}


left header 
	<font color=Navy size=24>[[../index.svg ⌂ Home]]</font>
endheader


	Title Pre-Qualification

	start

  fork

    partition Conventional {

      if(  debt / income <= 50%) then(no)
        stop
      endif
      
      if(self-employed) then (yes)
        if(2 years profit tax returns) then(no)
          stop
        endif
      elseif(years employed > 2) then(no)
        stop
      endif
      
      if(credit score > 650) then(no)
        stop
      endif
      if(bankruptcy < 4 years) then(yes)
        stop
      endif
      if(foreclosure < 7 years) then(yes)
        stop
      endif
      if(short sale / deed-in-lieu < 4 years) then(yes)
        stop
      endif
      if(late mortgage payment < 12 months) then(yes)
        stop
      endif

    }

  fork again
    partition "Fannie Mae Purchase Money Mortgage" {
      if(house in perfect condition) then (no)
        stop
      endif
      :75-80% lending out}
    }
    
  fork again
    partition "Hard Money Loan" {
      :70-75% ARV}
      :6-16.5% interest}
      :2-4 month term}
    }

  fork again
    partition "Rate and Term Refinance Loan" {
      :75%}
      #Plum:no more out of pocket?;
    }

  fork again
    partition "Delayed Financing" {
      :75-80% of all in cost}
      :get all money back minus repairs}
      #Plum:offer cash?;
    }

  fork again
    partition "Cash Out Refinance Loan" {
      if(6-12 months of "seasoning"\n====\n(being rented out)) then (no)
        stop
      endif
      :75% of appraised value}
    }
  end fork

  :apply;

  :Qualification Letter/

  end


left footer 
	<font size=14>©2019 [[http://www.lifestylesunlimited.com LifeStyles Unlimited]] | Generated Sun Apr 28 19:55:47 CDT 2019</font>
endfooter


@enduml

PlantUML version 1.2019.03(Sun Mar 10 06:04:44 CDT 2019)
(GPL source distribution)
Java Runtime: Java(TM) SE Runtime Environment
JVM: Java HotSpot(TM) 64-Bit Server VM
Java Version: 1.8.0_111-b14
Operating System: Windows 10
OS Version: 10.0
Default Encoding: Cp1252
Language: en
Country: US
--></g></svg>