<?xml version="1.0" encoding="UTF-8" standalone="no"?><svg xmlns="http://www.w3.org/2000/svg" xmlns:xlink="http://www.w3.org/1999/xlink" contentScriptType="application/ecmascript" contentStyleType="text/css" height="1236px" preserveAspectRatio="none" style="width:473px;height:1236px;" version="1.1" viewBox="0 0 473 1236" width="473px" zoomAndPan="magnify"><defs><style type="text/css"><![CDATA[path:hover { stroke: #0000FF !important;}]]></style><filter height="300%" id="ffne819uo3fci" width="300%" x="-1" y="-1"><feGaussianBlur result="blurOut" stdDeviation="2.0"/><feColorMatrix in="blurOut" result="blurOut2" type="matrix" values="0 0 0 0 0 0 0 0 0 0 0 0 0 0 0 0 0 0 .4 0"/><feOffset dx="4.0" dy="4.0" in="blurOut2" result="blurOut3"/><feBlend in="SourceGraphic" in2="blurOut3" mode="normal"/></filter></defs><g><a target="_top" xlink:actuate="onRequest" xlink:href="../index.svg?sanitize=true" xlink:show="new" xlink:title="../index.svg?sanitize=true" xlink:type="simple"><text fill="#0000FF" font-family="sans-serif" font-size="24" lengthAdjust="spacingAndGlyphs" text-decoration="underline" textLength="90" x="10" y="34.9141">⌂ Home</text><line style="stroke: #0000FF; stroke-width: 1.0;" x1="10" x2="100" y1="36.9141" y2="36.9141"/></a><rect fill="#EEE8AA" height="40.1875" rx="10" ry="10" style="stroke: #000080; stroke-width: 1.5;" width="414" x="28" y="42.1875"/><text fill="#000080" font-family="sans-serif" font-size="24" lengthAdjust="spacingAndGlyphs" textLength="398" x="36" y="72.1016">Rehabbing (Repairing / Make Ready)</text><path d="M199.75,85.375 L199.75,110.9023 L179.75,114.9023 L199.75,118.9023 L199.75,144.4297 A0,0 0 0 0 199.75,144.4297 L373.75,144.4297 A0,0 0 0 0 373.75,144.4297 L373.75,95.375 L363.75,85.375 L199.75,85.375 A0,0 0 0 0 199.75,85.375 " fill="#B0C4DE" filter="url(#ffne819uo3fci)" style="stroke: #6495ED; stroke-width: 1.0;"/><path d="M363.75,85.375 L363.75,95.375 L373.75,95.375 L363.75,85.375 " fill="#B0C4DE" style="stroke: #6495ED; stroke-width: 1.0;"/><text fill="#FFFFFF" font-family="sans-serif" font-size="13" lengthAdjust="spacingAndGlyphs" textLength="153" x="205.75" y="103.8701">rehab all houses the same</text><text fill="#FFFFFF" font-family="sans-serif" font-size="13" lengthAdjust="spacingAndGlyphs" textLength="75" x="205.75" y="120.2217">fix everything</text><text fill="#FFFFFF" font-family="sans-serif" font-size="13" lengthAdjust="spacingAndGlyphs" textLength="93" x="205.75" y="136.5732">good for 3 years</text><ellipse cx="169.75" cy="114.9023" fill="#CCFFCC" filter="url(#ffne819uo3fci)" rx="10" ry="10" style="stroke: none; stroke-width: 1.0;"/><rect fill="#FFFFF0" filter="url(#ffne819uo3fci)" height="522.1953" style="stroke: #6495ED; stroke-width: 1.0;" width="358.5" x="56.75" y="155.4453"/><path d="M103.75,156.4453 L103.75,168.5703 L93.75,178.5703 L56.75,178.5703 " fill="none" style="stroke: #6495ED; stroke-width: 1.0;"/><text fill="#6495ED" font-family="sans-serif" font-size="16" lengthAdjust="spacingAndGlyphs" textLength="37" x="59.75" y="173.0547">Work</text><path d="M213.25,188.5703 L213.25,254.9766 L193.25,258.9766 L213.25,262.9766 L213.25,329.3828 A0,0 0 0 0 213.25,329.3828 L400.25,329.3828 A0,0 0 0 0 400.25,329.3828 L400.25,198.5703 L390.25,188.5703 L213.25,188.5703 A0,0 0 0 0 213.25,188.5703 " fill="#B0C4DE" filter="url(#ffne819uo3fci)" style="stroke: #6495ED; stroke-width: 1.0;"/><path d="M390.25,188.5703 L390.25,198.5703 L400.25,198.5703 L390.25,188.5703 " fill="#B0C4DE" style="stroke: #6495ED; stroke-width: 1.0;"/><ellipse cx="224.75" cy="202.4219" fill="#FFFFFF" rx="2.5" ry="2.5" style="stroke: #FFFFFF; stroke-width: 0.0;"/><text fill="#FFFFFF" font-family="sans-serif" font-size="13" lengthAdjust="spacingAndGlyphs" textLength="28" x="232.25" y="207.0654">PPG</text><ellipse cx="224.75" cy="218.7734" fill="#FFFFFF" rx="2.5" ry="2.5" style="stroke: #FFFFFF; stroke-width: 0.0;"/><text fill="#FFFFFF" font-family="sans-serif" font-size="13" lengthAdjust="spacingAndGlyphs" textLength="57" x="232.25" y="223.417">safety red</text><text fill="#FFFFFF" font-family="sans-serif" font-size="13" lengthAdjust="spacingAndGlyphs" textLength="57" x="283.25" y="239.7686">rustoleum</text><text fill="#FFFFFF" font-family="sans-serif" font-size="13" lengthAdjust="spacingAndGlyphs" textLength="93" x="283.25" y="256.1201">laminant = satin</text><ellipse cx="224.75" cy="267.8281" fill="#FFFFFF" rx="2.5" ry="2.5" style="stroke: #FFFFFF; stroke-width: 0.0;"/><text fill="#FFFFFF" font-family="sans-serif" font-size="13" lengthAdjust="spacingAndGlyphs" textLength="104" x="232.25" y="272.4717">stone mason grey</text><text fill="#FFFFFF" font-family="sans-serif" font-size="13" lengthAdjust="spacingAndGlyphs" textLength="72" x="283.25" y="288.8232">valspar color</text><text fill="#FFFFFF" font-family="sans-serif" font-size="13" lengthAdjust="spacingAndGlyphs" textLength="102" x="283.25" y="305.1748">semi-gloss sheen</text><ellipse cx="224.75" cy="316.8828" fill="#FFFFFF" rx="2.5" ry="2.5" style="stroke: #FFFFFF; stroke-width: 0.0;"/><text fill="#FFFFFF" font-family="sans-serif" font-size="13" lengthAdjust="spacingAndGlyphs" textLength="94" x="232.25" y="321.5264">never paint brick</text><rect fill="#FFFFF0" filter="url(#ffne819uo3fci)" height="35.0938" rx="12.5" ry="12.5" style="stroke: #6495ED; stroke-width: 1.0;" width="47" x="146.25" y="241.4297"/><text fill="#696969" font-family="sans-serif" font-size="12" lengthAdjust="spacingAndGlyphs" textLength="27" x="156.25" y="263.8867">paint</text><path d="M232.25,339.3828 L232.25,364.9102 L212.25,368.9102 L232.25,372.9102 L232.25,398.4375 A0,0 0 0 0 232.25,398.4375 L405.25,398.4375 A0,0 0 0 0 405.25,398.4375 L405.25,349.3828 L395.25,339.3828 L232.25,339.3828 A0,0 0 0 0 232.25,339.3828 " fill="#B0C4DE" filter="url(#ffne819uo3fci)" style="stroke: #6495ED; stroke-width: 1.0;"/><path d="M395.25,339.3828 L395.25,349.3828 L405.25,349.3828 L395.25,339.3828 " fill="#B0C4DE" style="stroke: #6495ED; stroke-width: 1.0;"/><text fill="#FFFFFF" font-family="sans-serif" font-size="13" lengthAdjust="spacingAndGlyphs" textLength="74" x="238.25" y="357.8779">butcherblock</text><text fill="#FFFFFF" font-family="sans-serif" font-size="13" lengthAdjust="spacingAndGlyphs" textLength="152" x="238.25" y="374.2295">can sand down / resurface</text><text fill="#FFFFFF" font-family="sans-serif" font-size="13" lengthAdjust="spacingAndGlyphs" textLength="63" x="238.25" y="390.5811">if damaged</text><rect fill="#FFFFF0" filter="url(#ffne819uo3fci)" height="35.0938" rx="12.5" ry="12.5" style="stroke: #6495ED; stroke-width: 1.0;" width="85" x="127.25" y="351.3633"/><text fill="#696969" font-family="sans-serif" font-size="12" lengthAdjust="spacingAndGlyphs" textLength="65" x="137.25" y="373.8203">countertops</text><path d="M216.75,422.8086 L216.75,431.9844 L196.75,435.9844 L216.75,439.9844 L216.75,449.1602 A0,0 0 0 0 216.75,449.1602 L241.75,449.1602 A0,0 0 0 0 241.75,449.1602 L241.75,432.8086 L231.75,422.8086 L216.75,422.8086 A0,0 0 0 0 216.75,422.8086 " fill="#B0C4DE" filter="url(#ffne819uo3fci)" style="stroke: #6495ED; stroke-width: 1.0;"/><path d="M231.75,422.8086 L231.75,432.8086 L241.75,432.8086 L231.75,422.8086 " fill="#B0C4DE" style="stroke: #6495ED; stroke-width: 1.0;"/><text fill="#FFFFFF" font-family="sans-serif" font-size="13" lengthAdjust="spacingAndGlyphs" textLength="0" x="226.75" y="441.3037"/><rect fill="#FFFFF0" filter="url(#ffne819uo3fci)" height="35.0938" rx="12.5" ry="12.5" style="stroke: #6495ED; stroke-width: 1.0;" width="54" x="142.75" y="418.4375"/><text fill="#696969" font-family="sans-serif" font-size="12" lengthAdjust="spacingAndGlyphs" textLength="34" x="152.75" y="440.8945">carpet</text><polygon fill="#FFFFF0" filter="url(#ffne819uo3fci)" points="134.75,473.5313,204.75,473.5313,216.75,485.5313,204.75,497.5313,134.75,497.5313,122.75,485.5313,134.75,473.5313" style="stroke: #6495ED; stroke-width: 1.0;"/><text fill="#A9A9A9" font-family="sans-serif" font-size="11" lengthAdjust="spacingAndGlyphs" textLength="70" x="134.75" y="490.0322">old hard wood</text><text fill="#696969" font-family="sans-serif" font-size="11" lengthAdjust="spacingAndGlyphs" textLength="18" x="104.75" y="483.1143">yes</text><text fill="#696969" font-family="sans-serif" font-size="11" lengthAdjust="spacingAndGlyphs" textLength="12" x="216.75" y="483.1143">no</text><rect fill="#FFFFF0" filter="url(#ffne819uo3fci)" height="35.0938" rx="12.5" ry="12.5" style="stroke: #6495ED; stroke-width: 1.0;" width="72" x="76.75" y="507.5313"/><text fill="#696969" font-family="sans-serif" font-size="12" lengthAdjust="spacingAndGlyphs" textLength="52" x="86.75" y="529.9883">resurface</text><path d="M277.25,507.5313 L277.25,533.0586 L257.25,537.0586 L277.25,541.0586 L277.25,566.5859 A0,0 0 0 0 277.25,566.5859 L386.25,566.5859 A0,0 0 0 0 386.25,566.5859 L386.25,517.5313 L376.25,507.5313 L277.25,507.5313 A0,0 0 0 0 277.25,507.5313 " fill="#B0C4DE" filter="url(#ffne819uo3fci)" style="stroke: #6495ED; stroke-width: 1.0;"/><path d="M376.25,507.5313 L376.25,517.5313 L386.25,517.5313 L376.25,507.5313 " fill="#B0C4DE" style="stroke: #6495ED; stroke-width: 1.0;"/><text fill="#FFFFFF" font-family="sans-serif" font-size="13" lengthAdjust="spacingAndGlyphs" textLength="81" x="283.25" y="526.0264">square planks</text><text fill="#FFFFFF" font-family="sans-serif" font-size="13" lengthAdjust="spacingAndGlyphs" textLength="60" x="283.25" y="542.3779">glued vinyl</text><text fill="#FFFFFF" font-family="sans-serif" font-size="13" lengthAdjust="spacingAndGlyphs" textLength="88" x="283.25" y="558.7295">not interlocking</text><rect fill="#FFFFF0" filter="url(#ffne819uo3fci)" height="35.0938" rx="12.5" ry="12.5" style="stroke: #6495ED; stroke-width: 1.0;" width="61" x="196.25" y="519.5117"/><text fill="#696969" font-family="sans-serif" font-size="12" lengthAdjust="spacingAndGlyphs" textLength="41" x="206.25" y="541.9688">flooring</text><polygon fill="#FFFFF0" filter="url(#ffne819uo3fci)" points="169.75,572.5859,181.75,584.5859,169.75,596.5859,157.75,584.5859,169.75,572.5859" style="stroke: #6495ED; stroke-width: 1.0;"/><path d="M230.25,606.5859 L230.25,632.1133 L210.25,636.1133 L230.25,640.1133 L230.25,665.6406 A0,0 0 0 0 230.25,665.6406 L354.25,665.6406 A0,0 0 0 0 354.25,665.6406 L354.25,616.5859 L344.25,606.5859 L230.25,606.5859 A0,0 0 0 0 230.25,606.5859 " fill="#B0C4DE" filter="url(#ffne819uo3fci)" style="stroke: #6495ED; stroke-width: 1.0;"/><path d="M344.25,606.5859 L344.25,616.5859 L354.25,616.5859 L344.25,606.5859 " fill="#B0C4DE" style="stroke: #6495ED; stroke-width: 1.0;"/><text fill="#FFFFFF" font-family="sans-serif" font-size="13" lengthAdjust="spacingAndGlyphs" textLength="62" x="236.25" y="625.0811">HD Supply</text><text fill="#FFFFFF" font-family="sans-serif" font-size="13" lengthAdjust="spacingAndGlyphs" textLength="84" x="236.25" y="641.4326">stainless steel</text><text fill="#FFFFFF" font-family="sans-serif" font-size="13" font-style="italic" lengthAdjust="spacingAndGlyphs" textLength="103" x="236.25" y="657.7842">do not provide frig</text><rect fill="#FFFFF0" filter="url(#ffne819uo3fci)" height="35.0938" rx="12.5" ry="12.5" style="stroke: #6495ED; stroke-width: 1.0;" width="81" x="129.25" y="618.5664"/><text fill="#696969" font-family="sans-serif" font-size="12" lengthAdjust="spacingAndGlyphs" textLength="61" x="139.25" y="641.0234">appliances</text><rect fill="#FFFFF0" filter="url(#ffne819uo3fci)" height="75.2813" rx="12.5" ry="12.5" style="stroke: #6495ED; stroke-width: 1.0;" width="142" x="98.75" y="697.6406"/><text fill="#696969" font-family="sans-serif" font-size="12" lengthAdjust="spacingAndGlyphs" textLength="122" x="108.75" y="720.0977">take photos of all work</text><line style="stroke: #6495ED; stroke-width: 1.0;" x1="98.75" x2="240.75" y1="727.7344" y2="727.7344"/><ellipse cx="114.25" cy="740.3281" fill="#696969" rx="2.5" ry="2.5" style="stroke: #696969; stroke-width: 0.0;"/><text fill="#696969" font-family="sans-serif" font-size="12" lengthAdjust="spacingAndGlyphs" textLength="60" x="119.75" y="745.1914">advertising</text><ellipse cx="114.25" cy="755.4219" fill="#696969" rx="2.5" ry="2.5" style="stroke: #696969; stroke-width: 0.0;"/><text fill="#696969" font-family="sans-serif" font-size="12" lengthAdjust="spacingAndGlyphs" textLength="94" x="119.75" y="760.2852">proof of condition</text><rect fill="#FFFFF0" filter="url(#ffne819uo3fci)" height="35.0938" style="stroke: #6495ED; stroke-width: 1.0;" width="109" x="115.25" y="841.8398"/><text fill="#696969" font-family="sans-serif" font-size="12" lengthAdjust="spacingAndGlyphs" textLength="89" x="125.25" y="864.2969">lifetime warranty</text><polygon fill="#FFFFF0" filter="url(#ffne819uo3fci)" points="128.75,792.9219,210.75,792.9219,222.75,804.9219,210.75,816.9219,128.75,816.9219,116.75,804.9219,128.75,792.9219" style="stroke: #6495ED; stroke-width: 1.0;"/><text fill="#696969" font-family="sans-serif" font-size="11" lengthAdjust="spacingAndGlyphs" textLength="18" x="173.75" y="828.3408">yes</text><text fill="#A9A9A9" font-family="sans-serif" font-size="11" lengthAdjust="spacingAndGlyphs" textLength="82" x="128.75" y="809.4229">foundation repair</text><polygon fill="#FFFFF0" filter="url(#ffne819uo3fci)" points="169.75,896.9336,181.75,908.9336,169.75,920.9336,157.75,908.9336,169.75,896.9336" style="stroke: #6495ED; stroke-width: 1.0;"/><rect fill="#FFFFF0" filter="url(#ffne819uo3fci)" height="50.1875" rx="12.5" ry="12.5" style="stroke: #6495ED; stroke-width: 1.0;" width="139" x="100.25" y="989.8516"/><text fill="#696969" font-family="sans-serif" font-size="12" lengthAdjust="spacingAndGlyphs" textLength="119" x="110.25" y="1012.3086">hard money inspector</text><text fill="#696969" font-family="sans-serif" font-size="12" lengthAdjust="spacingAndGlyphs" textLength="92" x="110.25" y="1027.4023">inspects all work</text><rect fill="#FFFFF0" filter="url(#ffne819uo3fci)" height="50.1875" rx="12.5" ry="12.5" style="stroke: #6495ED; stroke-width: 1.0;" width="123" x="108.25" y="1075.0391"/><text fill="#696969" font-family="sans-serif" font-size="12" lengthAdjust="spacingAndGlyphs" textLength="103" x="118.25" y="1097.4961">hard money lendor</text><text fill="#696969" font-family="sans-serif" font-size="12" lengthAdjust="spacingAndGlyphs" textLength="83" x="118.25" y="1112.5898">pays contractor</text><polygon fill="#FFFFF0" filter="url(#ffne819uo3fci)" points="141.25,940.9336,198.25,940.9336,210.25,952.9336,198.25,964.9336,141.25,964.9336,129.25,952.9336,141.25,940.9336" style="stroke: #6495ED; stroke-width: 1.0;"/><text fill="#696969" font-family="sans-serif" font-size="11" lengthAdjust="spacingAndGlyphs" textLength="18" x="173.75" y="976.3525">yes</text><text fill="#A9A9A9" font-family="sans-serif" font-size="11" lengthAdjust="spacingAndGlyphs" textLength="57" x="141.25" y="957.4346">hard money</text><polygon fill="#FFFFF0" filter="url(#ffne819uo3fci)" points="169.75,1145.2266,181.75,1157.2266,169.75,1169.2266,157.75,1157.2266,169.75,1145.2266" style="stroke: #6495ED; stroke-width: 1.0;"/><ellipse cx="169.75" cy="1199.2266" fill="#FFFFFF" filter="url(#ffne819uo3fci)" rx="10" ry="10" style="stroke: #FF7F50; stroke-width: 1.5;"/><line style="stroke: #FF7F50; stroke-width: 2.5;" x1="163.5628" x2="175.9372" y1="1193.0394" y2="1205.4137"/><line style="stroke: #FF7F50; stroke-width: 2.5;" x1="175.9372" x2="163.5628" y1="1193.0394" y2="1205.4137"/><line style="stroke: #696969; stroke-width: 1.5;" x1="169.75" x2="169.75" y1="276.5234" y2="351.3633"/><polygon fill="#696969" points="165.75,341.3633,169.75,351.3633,173.75,341.3633,169.75,345.3633" style="stroke: #696969; stroke-width: 1.0;"/><line style="stroke: #696969; stroke-width: 1.5;" x1="169.75" x2="169.75" y1="386.457" y2="418.4375"/><polygon fill="#696969" points="165.75,408.4375,169.75,418.4375,173.75,408.4375,169.75,412.4375" style="stroke: #696969; stroke-width: 1.0;"/><line style="stroke: #696969; stroke-width: 1.5;" x1="122.75" x2="112.75" y1="485.5313" y2="485.5313"/><line style="stroke: #696969; stroke-width: 1.5;" x1="112.75" x2="112.75" y1="485.5313" y2="507.5313"/><polygon fill="#696969" points="108.75,497.5313,112.75,507.5313,116.75,497.5313,112.75,501.5313" style="stroke: #696969; stroke-width: 1.0;"/><line style="stroke: #696969; stroke-width: 1.5;" x1="216.75" x2="226.75" y1="485.5313" y2="485.5313"/><line style="stroke: #696969; stroke-width: 1.5;" x1="226.75" x2="226.75" y1="485.5313" y2="519.5117"/><polygon fill="#696969" points="222.75,509.5117,226.75,519.5117,230.75,509.5117,226.75,513.5117" style="stroke: #696969; stroke-width: 1.0;"/><line style="stroke: #696969; stroke-width: 1.5;" x1="112.75" x2="112.75" y1="542.625" y2="584.5859"/><line style="stroke: #696969; stroke-width: 1.5;" x1="112.75" x2="157.75" y1="584.5859" y2="584.5859"/><polygon fill="#696969" points="147.75,580.5859,157.75,584.5859,147.75,588.5859,151.75,584.5859" style="stroke: #696969; stroke-width: 1.0;"/><line style="stroke: #696969; stroke-width: 1.5;" x1="226.75" x2="226.75" y1="554.6055" y2="584.5859"/><line style="stroke: #696969; stroke-width: 1.5;" x1="226.75" x2="181.75" y1="584.5859" y2="584.5859"/><polygon fill="#696969" points="191.75,580.5859,181.75,584.5859,191.75,588.5859,187.75,584.5859" style="stroke: #696969; stroke-width: 1.0;"/><line style="stroke: #696969; stroke-width: 1.5;" x1="169.75" x2="169.75" y1="453.5313" y2="473.5313"/><polygon fill="#696969" points="165.75,463.5313,169.75,473.5313,173.75,463.5313,169.75,467.5313" style="stroke: #696969; stroke-width: 1.0;"/><line style="stroke: #696969; stroke-width: 1.5;" x1="169.75" x2="169.75" y1="596.5859" y2="618.5664"/><polygon fill="#696969" points="165.75,608.5664,169.75,618.5664,173.75,608.5664,169.75,612.5664" style="stroke: #696969; stroke-width: 1.0;"/><line style="stroke: #696969; stroke-width: 1.5;" x1="169.75" x2="169.75" y1="124.9023" y2="241.4297"/><polygon fill="#696969" points="165.75,231.4297,169.75,241.4297,173.75,231.4297,169.75,235.4297" style="stroke: #696969; stroke-width: 1.0;"/><line style="stroke: #696969; stroke-width: 1.5;" x1="169.75" x2="169.75" y1="653.6602" y2="697.6406"/><polygon fill="#696969" points="165.75,687.6406,169.75,697.6406,173.75,687.6406,169.75,691.6406" style="stroke: #696969; stroke-width: 1.0;"/><line style="stroke: #696969; stroke-width: 1.5;" x1="169.75" x2="169.75" y1="816.9219" y2="841.8398"/><polygon fill="#696969" points="165.75,831.8398,169.75,841.8398,173.75,831.8398,169.75,835.8398" style="stroke: #696969; stroke-width: 1.0;"/><line style="stroke: #696969; stroke-width: 1.5;" x1="222.75" x2="234.75" y1="804.9219" y2="804.9219"/><polygon fill="#696969" points="230.75,849.3867,234.75,859.3867,238.75,849.3867,234.75,853.3867" style="stroke: #696969; stroke-width: 1.5;"/><line style="stroke: #696969; stroke-width: 1.5;" x1="234.75" x2="234.75" y1="804.9219" y2="908.9336"/><line style="stroke: #696969; stroke-width: 1.5;" x1="234.75" x2="181.75" y1="908.9336" y2="908.9336"/><polygon fill="#696969" points="191.75,904.9336,181.75,908.9336,191.75,912.9336,187.75,908.9336" style="stroke: #696969; stroke-width: 1.0;"/><line style="stroke: #696969; stroke-width: 1.5;" x1="169.75" x2="169.75" y1="876.9336" y2="896.9336"/><polygon fill="#696969" points="165.75,886.9336,169.75,896.9336,173.75,886.9336,169.75,890.9336" style="stroke: #696969; stroke-width: 1.0;"/><line style="stroke: #696969; stroke-width: 1.5;" x1="169.75" x2="169.75" y1="772.9219" y2="792.9219"/><polygon fill="#696969" points="165.75,782.9219,169.75,792.9219,173.75,782.9219,169.75,786.9219" style="stroke: #696969; stroke-width: 1.0;"/><line style="stroke: #696969; stroke-width: 1.5;" x1="169.75" x2="169.75" y1="1040.0391" y2="1075.0391"/><polygon fill="#696969" points="165.75,1065.0391,169.75,1075.0391,173.75,1065.0391,169.75,1069.0391" style="stroke: #696969; stroke-width: 1.0;"/><line style="stroke: #696969; stroke-width: 1.5;" x1="169.75" x2="169.75" y1="964.9336" y2="989.8516"/><polygon fill="#696969" points="165.75,979.8516,169.75,989.8516,173.75,979.8516,169.75,983.8516" style="stroke: #696969; stroke-width: 1.0;"/><line style="stroke: #696969; stroke-width: 1.5;" x1="210.25" x2="249.25" y1="952.9336" y2="952.9336"/><polygon fill="#696969" points="245.25,1047.5391,249.25,1057.5391,253.25,1047.5391,249.25,1051.5391" style="stroke: #696969; stroke-width: 1.5;"/><line style="stroke: #696969; stroke-width: 1.5;" x1="249.25" x2="249.25" y1="952.9336" y2="1157.2266"/><line style="stroke: #696969; stroke-width: 1.5;" x1="249.25" x2="181.75" y1="1157.2266" y2="1157.2266"/><polygon fill="#696969" points="191.75,1153.2266,181.75,1157.2266,191.75,1161.2266,187.75,1157.2266" style="stroke: #696969; stroke-width: 1.0;"/><line style="stroke: #696969; stroke-width: 1.5;" x1="169.75" x2="169.75" y1="1125.2266" y2="1145.2266"/><polygon fill="#696969" points="165.75,1135.2266,169.75,1145.2266,173.75,1135.2266,169.75,1139.2266" style="stroke: #696969; stroke-width: 1.0;"/><line style="stroke: #696969; stroke-width: 1.5;" x1="169.75" x2="169.75" y1="920.9336" y2="940.9336"/><polygon fill="#696969" points="165.75,930.9336,169.75,940.9336,173.75,930.9336,169.75,934.9336" style="stroke: #696969; stroke-width: 1.0;"/><line style="stroke: #696969; stroke-width: 1.5;" x1="169.75" x2="169.75" y1="1169.2266" y2="1189.2266"/><polygon fill="#696969" points="165.75,1179.2266,169.75,1189.2266,173.75,1179.2266,169.75,1183.2266" style="stroke: #696969; stroke-width: 1.0;"/><text fill="#000080" font-family="sans-serif" font-size="14" lengthAdjust="spacingAndGlyphs" textLength="42" x="10" y="1222.7598">©2019</text><a target="_top" xlink:actuate="onRequest" xlink:href="http://www.lifestylesunlimited.com" xlink:show="new" xlink:title="http://www.lifestylesunlimited.com" xlink:type="simple"><text fill="#0000FF" font-family="sans-serif" font-size="14" lengthAdjust="spacingAndGlyphs" text-decoration="underline" textLength="122" x="56" y="1222.7598">LifeStyles Unlimited</text><line style="stroke: #0000FF; stroke-width: 1.0;" x1="56" x2="178" y1="1224.7598" y2="1224.7598"/></a><text fill="#000080" font-family="sans-serif" font-size="14" lengthAdjust="spacingAndGlyphs" textLength="279" x="182" y="1222.7598">| Generated Sat May 18 14:00:53 CDT 2019</text><!--
@startuml rehabbing


skinparam {
  BorderColor Red
  PathHoverColor Blue
}

skinparam Title {
  FontColor Navy
  BackgroundColor PaleGoldenRod
  BorderColor Navy
  BorderRoundCorner 20
  FontSize 24
}

skinparam activity {
  BackgroundColor Ivory
  BorderColor CornflowerBlue
  BorderThickness 1
  FontColor DimGray
  

  Arrow {
    Color dimgray
    FontColor dimgray
  }

  Start {
    Color PHYSICAL
  }

  End {
    Color Coral
  }

  Diamond {
    BackgroundColor Ivory
    BorderColor CornflowerBlue
    FontColor DarkGray
  }

  BackgroundColor<< Exception >> Red
	BorderColor<< Exception >> White
}

skinparam Swimlane {
  BorderColor CornflowerBlue 
}

skinparam Partition {
  BackgroundColor Ivory
  BorderColor CornflowerBlue
  BorderThickness 1
  FontColor CornflowerBlue
  FontSize 16
  BorderRoundCorner 20
}

skinparam Note {
  BackgroundColor LightSteelBlue
  BorderColor CornflowerBlue
  FontColor White
}

skinparam Legend {
  BackgroundColor LightSteelBlue
  BorderColor CornflowerBlue
  FontColor White
}

skinparam Footer {
  FontColor Navy
}


left header 
	<font color=Navy size=24>[[../index.svg?sanitize=true ⌂ Home]]</font>
endheader


	Title Rehabbing (Repairing / Make Ready)

	start

	note right
		rehab all houses the same
		fix everything
		good for 3 years
	end note

	partition "Work" {
		:paint;
		note right
			* PPG
			* safety red
					rustoleum
					laminant = satin
			* stone mason grey
					valspar color
					semi-gloss sheen
			* never paint brick
		end note

		:countertops;
		note right
			butcherblock
			can sand down / resurface
			if damaged
		end note

		:carpet;
		note right

		end note

		if(old hard wood) then (yes)
			:resurface;
		else (no)
			:flooring;
			note right
				square planks
				glued vinyl 
				not interlocking
			end note
		endif

		:appliances;
		note right
			HD Supply
			stainless steel
			<i>do not provide frig
		end note
	}

	:take photos of all work
	- - - -
	* advertising
	* proof of condition;



	if(foundation repair) then (yes)
		:lifetime warranty]
	endif

	if(hard money) then (yes)
		:hard money inspector
		inspects all work;
		:hard money lendor
		pays contractor;
	endif

	end


left footer 
	<font size=14>©2019 [[http://www.lifestylesunlimited.com LifeStyles Unlimited]] | Generated Sat May 18 14:00:53 CDT 2019</font>
endfooter


@enduml

PlantUML version 1.2019.03(Sun Mar 10 06:04:44 CDT 2019)
(GPL source distribution)
Java Runtime: Java(TM) SE Runtime Environment
JVM: Java HotSpot(TM) 64-Bit Server VM
Java Version: 1.8.0_111-b14
Operating System: Windows 10
OS Version: 10.0
Default Encoding: Cp1252
Language: en
Country: US
--></g></svg>