<?xml version="1.0" encoding="UTF-8" standalone="no"?><svg xmlns="http://www.w3.org/2000/svg" xmlns:xlink="http://www.w3.org/1999/xlink" contentScriptType="application/ecmascript" contentStyleType="text/css" height="1236px" preserveAspectRatio="none" style="width:437px;height:1236px;" version="1.1" viewBox="0 0 437 1236" width="437px" zoomAndPan="magnify"><defs><style type="text/css"><![CDATA[path:hover { stroke: #0000FF !important;}]]></style><filter height="300%" id="fio8jypo1suxe" width="300%" x="-1" y="-1"><feGaussianBlur result="blurOut" stdDeviation="2.0"/><feColorMatrix in="blurOut" result="blurOut2" type="matrix" values="0 0 0 0 0 0 0 0 0 0 0 0 0 0 0 0 0 0 .4 0"/><feOffset dx="4.0" dy="4.0" in="blurOut2" result="blurOut3"/><feBlend in="SourceGraphic" in2="blurOut3" mode="normal"/></filter></defs><g><a href="../index.svg?sanitize=true" target="_top" xlink:actuate="onRequest" xlink:show="new" xlink:title="../index.svg?sanitize=true" xlink:type="simple"><text fill="#0000FF" font-family="sans-serif" font-size="24" lengthAdjust="spacingAndGlyphs" text-decoration="underline" textLength="90" x="10" y="34.9141">⌂ Home</text></a><rect fill="#EEE8AA" height="40.1875" rx="10" ry="10" style="stroke: #000080; stroke-width: 1.5;" width="414" x="12" y="42.1875"/><text fill="#000080" font-family="sans-serif" font-size="24" lengthAdjust="spacingAndGlyphs" textLength="398" x="20" y="72.1016">Rehabbing (Repairing / Make Ready)</text><path d="M183.75,85.375 L183.75,110.9023 L163.75,114.9023 L183.75,118.9023 L183.75,144.4297 A0,0 0 0 0 183.75,144.4297 L357.75,144.4297 A0,0 0 0 0 357.75,144.4297 L357.75,95.375 L347.75,85.375 L183.75,85.375 A0,0 0 0 0 183.75,85.375 " fill="#B0C4DE" filter="url(#fio8jypo1suxe)" style="stroke: #6495ED; stroke-width: 1.0;"/><path d="M347.75,85.375 L347.75,95.375 L357.75,95.375 L347.75,85.375 " fill="#B0C4DE" style="stroke: #6495ED; stroke-width: 1.0;"/><text fill="#FFFFFF" font-family="sans-serif" font-size="13" lengthAdjust="spacingAndGlyphs" textLength="153" x="189.75" y="103.8701">rehab all houses the same</text><text fill="#FFFFFF" font-family="sans-serif" font-size="13" lengthAdjust="spacingAndGlyphs" textLength="75" x="189.75" y="120.2217">fix everything</text><text fill="#FFFFFF" font-family="sans-serif" font-size="13" lengthAdjust="spacingAndGlyphs" textLength="93" x="189.75" y="136.5732">good for 3 years</text><ellipse cx="153.75" cy="114.9023" fill="#CCFFCC" filter="url(#fio8jypo1suxe)" rx="10" ry="10" style="stroke: none; stroke-width: 1.0;"/><rect fill="#FFFFF0" filter="url(#fio8jypo1suxe)" height="522.1953" style="stroke: #6495ED; stroke-width: 1.0;" width="358.5" x="40.75" y="155.4453"/><path d="M87.75,156.4453 L87.75,168.5703 L77.75,178.5703 L40.75,178.5703 " fill="none" style="stroke: #6495ED; stroke-width: 1.0;"/><text fill="#6495ED" font-family="sans-serif" font-size="16" lengthAdjust="spacingAndGlyphs" textLength="37" x="43.75" y="173.0547">Work</text><path d="M197.25,188.5703 L197.25,254.9766 L177.25,258.9766 L197.25,262.9766 L197.25,329.3828 A0,0 0 0 0 197.25,329.3828 L384.25,329.3828 A0,0 0 0 0 384.25,329.3828 L384.25,198.5703 L374.25,188.5703 L197.25,188.5703 A0,0 0 0 0 197.25,188.5703 " fill="#B0C4DE" filter="url(#fio8jypo1suxe)" style="stroke: #6495ED; stroke-width: 1.0;"/><path d="M374.25,188.5703 L374.25,198.5703 L384.25,198.5703 L374.25,188.5703 " fill="#B0C4DE" style="stroke: #6495ED; stroke-width: 1.0;"/><ellipse cx="208.75" cy="202.4219" fill="#FFFFFF" rx="2.5" ry="2.5" style="stroke: #FFFFFF; stroke-width: 0.0;"/><text fill="#FFFFFF" font-family="sans-serif" font-size="13" lengthAdjust="spacingAndGlyphs" textLength="28" x="216.25" y="207.0654">PPG</text><ellipse cx="208.75" cy="218.7734" fill="#FFFFFF" rx="2.5" ry="2.5" style="stroke: #FFFFFF; stroke-width: 0.0;"/><text fill="#FFFFFF" font-family="sans-serif" font-size="13" lengthAdjust="spacingAndGlyphs" textLength="57" x="216.25" y="223.417">safety red</text><text fill="#FFFFFF" font-family="sans-serif" font-size="13" lengthAdjust="spacingAndGlyphs" textLength="57" x="267.25" y="239.7686">rustoleum</text><text fill="#FFFFFF" font-family="sans-serif" font-size="13" lengthAdjust="spacingAndGlyphs" textLength="93" x="267.25" y="256.1201">laminant = satin</text><ellipse cx="208.75" cy="267.8281" fill="#FFFFFF" rx="2.5" ry="2.5" style="stroke: #FFFFFF; stroke-width: 0.0;"/><text fill="#FFFFFF" font-family="sans-serif" font-size="13" lengthAdjust="spacingAndGlyphs" textLength="104" x="216.25" y="272.4717">stone mason grey</text><text fill="#FFFFFF" font-family="sans-serif" font-size="13" lengthAdjust="spacingAndGlyphs" textLength="72" x="267.25" y="288.8232">valspar color</text><text fill="#FFFFFF" font-family="sans-serif" font-size="13" lengthAdjust="spacingAndGlyphs" textLength="102" x="267.25" y="305.1748">semi-gloss sheen</text><ellipse cx="208.75" cy="316.8828" fill="#FFFFFF" rx="2.5" ry="2.5" style="stroke: #FFFFFF; stroke-width: 0.0;"/><text fill="#FFFFFF" font-family="sans-serif" font-size="13" lengthAdjust="spacingAndGlyphs" textLength="94" x="216.25" y="321.5264">never paint brick</text><rect fill="#FFFFF0" filter="url(#fio8jypo1suxe)" height="35.0938" rx="12.5" ry="12.5" style="stroke: #6495ED; stroke-width: 1.0;" width="47" x="130.25" y="241.4297"/><text fill="#696969" font-family="sans-serif" font-size="12" lengthAdjust="spacingAndGlyphs" textLength="27" x="140.25" y="263.8867">paint</text><path d="M216.25,339.3828 L216.25,364.9102 L196.25,368.9102 L216.25,372.9102 L216.25,398.4375 A0,0 0 0 0 216.25,398.4375 L389.25,398.4375 A0,0 0 0 0 389.25,398.4375 L389.25,349.3828 L379.25,339.3828 L216.25,339.3828 A0,0 0 0 0 216.25,339.3828 " fill="#B0C4DE" filter="url(#fio8jypo1suxe)" style="stroke: #6495ED; stroke-width: 1.0;"/><path d="M379.25,339.3828 L379.25,349.3828 L389.25,349.3828 L379.25,339.3828 " fill="#B0C4DE" style="stroke: #6495ED; stroke-width: 1.0;"/><text fill="#FFFFFF" font-family="sans-serif" font-size="13" lengthAdjust="spacingAndGlyphs" textLength="74" x="222.25" y="357.8779">butcherblock</text><text fill="#FFFFFF" font-family="sans-serif" font-size="13" lengthAdjust="spacingAndGlyphs" textLength="152" x="222.25" y="374.2295">can sand down / resurface</text><text fill="#FFFFFF" font-family="sans-serif" font-size="13" lengthAdjust="spacingAndGlyphs" textLength="63" x="222.25" y="390.5811">if damaged</text><rect fill="#FFFFF0" filter="url(#fio8jypo1suxe)" height="35.0938" rx="12.5" ry="12.5" style="stroke: #6495ED; stroke-width: 1.0;" width="85" x="111.25" y="351.3633"/><text fill="#696969" font-family="sans-serif" font-size="12" lengthAdjust="spacingAndGlyphs" textLength="65" x="121.25" y="373.8203">countertops</text><path d="M200.75,422.8086 L200.75,431.9844 L180.75,435.9844 L200.75,439.9844 L200.75,449.1602 A0,0 0 0 0 200.75,449.1602 L225.75,449.1602 A0,0 0 0 0 225.75,449.1602 L225.75,432.8086 L215.75,422.8086 L200.75,422.8086 A0,0 0 0 0 200.75,422.8086 " fill="#B0C4DE" filter="url(#fio8jypo1suxe)" style="stroke: #6495ED; stroke-width: 1.0;"/><path d="M215.75,422.8086 L215.75,432.8086 L225.75,432.8086 L215.75,422.8086 " fill="#B0C4DE" style="stroke: #6495ED; stroke-width: 1.0;"/><text fill="#FFFFFF" font-family="sans-serif" font-size="13" lengthAdjust="spacingAndGlyphs" textLength="0" x="210.75" y="441.3037"/><rect fill="#FFFFF0" filter="url(#fio8jypo1suxe)" height="35.0938" rx="12.5" ry="12.5" style="stroke: #6495ED; stroke-width: 1.0;" width="54" x="126.75" y="418.4375"/><text fill="#696969" font-family="sans-serif" font-size="12" lengthAdjust="spacingAndGlyphs" textLength="34" x="136.75" y="440.8945">carpet</text><polygon fill="#FFFFF0" filter="url(#fio8jypo1suxe)" points="118.75,473.5313,188.75,473.5313,200.75,485.5313,188.75,497.5313,118.75,497.5313,106.75,485.5313,118.75,473.5313" style="stroke: #6495ED; stroke-width: 1.0;"/><text fill="#A9A9A9" font-family="sans-serif" font-size="11" lengthAdjust="spacingAndGlyphs" textLength="70" x="118.75" y="490.0322">old hard wood</text><text fill="#696969" font-family="sans-serif" font-size="11" lengthAdjust="spacingAndGlyphs" textLength="18" x="88.75" y="483.1143">yes</text><text fill="#696969" font-family="sans-serif" font-size="11" lengthAdjust="spacingAndGlyphs" textLength="12" x="200.75" y="483.1143">no</text><rect fill="#FFFFF0" filter="url(#fio8jypo1suxe)" height="35.0938" rx="12.5" ry="12.5" style="stroke: #6495ED; stroke-width: 1.0;" width="72" x="60.75" y="507.5313"/><text fill="#696969" font-family="sans-serif" font-size="12" lengthAdjust="spacingAndGlyphs" textLength="52" x="70.75" y="529.9883">resurface</text><path d="M261.25,507.5313 L261.25,533.0586 L241.25,537.0586 L261.25,541.0586 L261.25,566.5859 A0,0 0 0 0 261.25,566.5859 L370.25,566.5859 A0,0 0 0 0 370.25,566.5859 L370.25,517.5313 L360.25,507.5313 L261.25,507.5313 A0,0 0 0 0 261.25,507.5313 " fill="#B0C4DE" filter="url(#fio8jypo1suxe)" style="stroke: #6495ED; stroke-width: 1.0;"/><path d="M360.25,507.5313 L360.25,517.5313 L370.25,517.5313 L360.25,507.5313 " fill="#B0C4DE" style="stroke: #6495ED; stroke-width: 1.0;"/><text fill="#FFFFFF" font-family="sans-serif" font-size="13" lengthAdjust="spacingAndGlyphs" textLength="81" x="267.25" y="526.0264">square planks</text><text fill="#FFFFFF" font-family="sans-serif" font-size="13" lengthAdjust="spacingAndGlyphs" textLength="60" x="267.25" y="542.3779">glued vinyl</text><text fill="#FFFFFF" font-family="sans-serif" font-size="13" lengthAdjust="spacingAndGlyphs" textLength="88" x="267.25" y="558.7295">not interlocking</text><rect fill="#FFFFF0" filter="url(#fio8jypo1suxe)" height="35.0938" rx="12.5" ry="12.5" style="stroke: #6495ED; stroke-width: 1.0;" width="61" x="180.25" y="519.5117"/><text fill="#696969" font-family="sans-serif" font-size="12" lengthAdjust="spacingAndGlyphs" textLength="41" x="190.25" y="541.9688">flooring</text><polygon fill="#FFFFF0" filter="url(#fio8jypo1suxe)" points="153.75,572.5859,165.75,584.5859,153.75,596.5859,141.75,584.5859,153.75,572.5859" style="stroke: #6495ED; stroke-width: 1.0;"/><path d="M214.25,606.5859 L214.25,632.1133 L194.25,636.1133 L214.25,640.1133 L214.25,665.6406 A0,0 0 0 0 214.25,665.6406 L338.25,665.6406 A0,0 0 0 0 338.25,665.6406 L338.25,616.5859 L328.25,606.5859 L214.25,606.5859 A0,0 0 0 0 214.25,606.5859 " fill="#B0C4DE" filter="url(#fio8jypo1suxe)" style="stroke: #6495ED; stroke-width: 1.0;"/><path d="M328.25,606.5859 L328.25,616.5859 L338.25,616.5859 L328.25,606.5859 " fill="#B0C4DE" style="stroke: #6495ED; stroke-width: 1.0;"/><text fill="#FFFFFF" font-family="sans-serif" font-size="13" lengthAdjust="spacingAndGlyphs" textLength="62" x="220.25" y="625.0811">HD Supply</text><text fill="#FFFFFF" font-family="sans-serif" font-size="13" lengthAdjust="spacingAndGlyphs" textLength="84" x="220.25" y="641.4326">stainless steel</text><text fill="#FFFFFF" font-family="sans-serif" font-size="13" font-style="italic" lengthAdjust="spacingAndGlyphs" textLength="103" x="220.25" y="657.7842">do not provide frig</text><rect fill="#FFFFF0" filter="url(#fio8jypo1suxe)" height="35.0938" rx="12.5" ry="12.5" style="stroke: #6495ED; stroke-width: 1.0;" width="81" x="113.25" y="618.5664"/><text fill="#696969" font-family="sans-serif" font-size="12" lengthAdjust="spacingAndGlyphs" textLength="61" x="123.25" y="641.0234">appliances</text><rect fill="#FFFFF0" filter="url(#fio8jypo1suxe)" height="75.2813" rx="12.5" ry="12.5" style="stroke: #6495ED; stroke-width: 1.0;" width="142" x="82.75" y="697.6406"/><text fill="#696969" font-family="sans-serif" font-size="12" lengthAdjust="spacingAndGlyphs" textLength="122" x="92.75" y="720.0977">take photos of all work</text><line style="stroke: #6495ED; stroke-width: 1.0;" x1="82.75" x2="224.75" y1="727.7344" y2="727.7344"/><ellipse cx="98.25" cy="740.3281" fill="#696969" rx="2.5" ry="2.5" style="stroke: #696969; stroke-width: 0.0;"/><text fill="#696969" font-family="sans-serif" font-size="12" lengthAdjust="spacingAndGlyphs" textLength="60" x="103.75" y="745.1914">advertising</text><ellipse cx="98.25" cy="755.4219" fill="#696969" rx="2.5" ry="2.5" style="stroke: #696969; stroke-width: 0.0;"/><text fill="#696969" font-family="sans-serif" font-size="12" lengthAdjust="spacingAndGlyphs" textLength="94" x="103.75" y="760.2852">proof of condition</text><rect fill="#FFFFF0" filter="url(#fio8jypo1suxe)" height="35.0938" style="stroke: #6495ED; stroke-width: 1.0;" width="109" x="99.25" y="841.8398"/><text fill="#696969" font-family="sans-serif" font-size="12" lengthAdjust="spacingAndGlyphs" textLength="89" x="109.25" y="864.2969">lifetime warranty</text><polygon fill="#FFFFF0" filter="url(#fio8jypo1suxe)" points="112.75,792.9219,194.75,792.9219,206.75,804.9219,194.75,816.9219,112.75,816.9219,100.75,804.9219,112.75,792.9219" style="stroke: #6495ED; stroke-width: 1.0;"/><text fill="#696969" font-family="sans-serif" font-size="11" lengthAdjust="spacingAndGlyphs" textLength="18" x="157.75" y="828.3408">yes</text><text fill="#A9A9A9" font-family="sans-serif" font-size="11" lengthAdjust="spacingAndGlyphs" textLength="82" x="112.75" y="809.4229">foundation repair</text><polygon fill="#FFFFF0" filter="url(#fio8jypo1suxe)" points="153.75,896.9336,165.75,908.9336,153.75,920.9336,141.75,908.9336,153.75,896.9336" style="stroke: #6495ED; stroke-width: 1.0;"/><rect fill="#FFFFF0" filter="url(#fio8jypo1suxe)" height="50.1875" rx="12.5" ry="12.5" style="stroke: #6495ED; stroke-width: 1.0;" width="139" x="84.25" y="989.8516"/><text fill="#696969" font-family="sans-serif" font-size="12" lengthAdjust="spacingAndGlyphs" textLength="119" x="94.25" y="1012.3086">hard money inspector</text><text fill="#696969" font-family="sans-serif" font-size="12" lengthAdjust="spacingAndGlyphs" textLength="92" x="94.25" y="1027.4023">inspects all work</text><rect fill="#FFFFF0" filter="url(#fio8jypo1suxe)" height="50.1875" rx="12.5" ry="12.5" style="stroke: #6495ED; stroke-width: 1.0;" width="123" x="92.25" y="1075.0391"/><text fill="#696969" font-family="sans-serif" font-size="12" lengthAdjust="spacingAndGlyphs" textLength="103" x="102.25" y="1097.4961">hard money lendor</text><text fill="#696969" font-family="sans-serif" font-size="12" lengthAdjust="spacingAndGlyphs" textLength="83" x="102.25" y="1112.5898">pays contractor</text><polygon fill="#FFFFF0" filter="url(#fio8jypo1suxe)" points="125.25,940.9336,182.25,940.9336,194.25,952.9336,182.25,964.9336,125.25,964.9336,113.25,952.9336,125.25,940.9336" style="stroke: #6495ED; stroke-width: 1.0;"/><text fill="#696969" font-family="sans-serif" font-size="11" lengthAdjust="spacingAndGlyphs" textLength="18" x="157.75" y="976.3525">yes</text><text fill="#A9A9A9" font-family="sans-serif" font-size="11" lengthAdjust="spacingAndGlyphs" textLength="57" x="125.25" y="957.4346">hard money</text><polygon fill="#FFFFF0" filter="url(#fio8jypo1suxe)" points="153.75,1145.2266,165.75,1157.2266,153.75,1169.2266,141.75,1157.2266,153.75,1145.2266" style="stroke: #6495ED; stroke-width: 1.0;"/><ellipse cx="153.75" cy="1199.2266" fill="#FFFFFF" filter="url(#fio8jypo1suxe)" rx="10" ry="10" style="stroke: #FF7F50; stroke-width: 1.5;"/><line style="stroke: #FF7F50; stroke-width: 2.5;" x1="147.5628" x2="159.9372" y1="1193.0394" y2="1205.4137"/><line style="stroke: #FF7F50; stroke-width: 2.5;" x1="159.9372" x2="147.5628" y1="1193.0394" y2="1205.4137"/><line style="stroke: #696969; stroke-width: 1.5;" x1="153.75" x2="153.75" y1="276.5234" y2="351.3633"/><polygon fill="#696969" points="149.75,341.3633,153.75,351.3633,157.75,341.3633,153.75,345.3633" style="stroke: #696969; stroke-width: 1.0;"/><line style="stroke: #696969; stroke-width: 1.5;" x1="153.75" x2="153.75" y1="386.457" y2="418.4375"/><polygon fill="#696969" points="149.75,408.4375,153.75,418.4375,157.75,408.4375,153.75,412.4375" style="stroke: #696969; stroke-width: 1.0;"/><line style="stroke: #696969; stroke-width: 1.5;" x1="106.75" x2="96.75" y1="485.5313" y2="485.5313"/><line style="stroke: #696969; stroke-width: 1.5;" x1="96.75" x2="96.75" y1="485.5313" y2="507.5313"/><polygon fill="#696969" points="92.75,497.5313,96.75,507.5313,100.75,497.5313,96.75,501.5313" style="stroke: #696969; stroke-width: 1.0;"/><line style="stroke: #696969; stroke-width: 1.5;" x1="200.75" x2="210.75" y1="485.5313" y2="485.5313"/><line style="stroke: #696969; stroke-width: 1.5;" x1="210.75" x2="210.75" y1="485.5313" y2="519.5117"/><polygon fill="#696969" points="206.75,509.5117,210.75,519.5117,214.75,509.5117,210.75,513.5117" style="stroke: #696969; stroke-width: 1.0;"/><line style="stroke: #696969; stroke-width: 1.5;" x1="96.75" x2="96.75" y1="542.625" y2="584.5859"/><line style="stroke: #696969; stroke-width: 1.5;" x1="96.75" x2="141.75" y1="584.5859" y2="584.5859"/><polygon fill="#696969" points="131.75,580.5859,141.75,584.5859,131.75,588.5859,135.75,584.5859" style="stroke: #696969; stroke-width: 1.0;"/><line style="stroke: #696969; stroke-width: 1.5;" x1="210.75" x2="210.75" y1="554.6055" y2="584.5859"/><line style="stroke: #696969; stroke-width: 1.5;" x1="210.75" x2="165.75" y1="584.5859" y2="584.5859"/><polygon fill="#696969" points="175.75,580.5859,165.75,584.5859,175.75,588.5859,171.75,584.5859" style="stroke: #696969; stroke-width: 1.0;"/><line style="stroke: #696969; stroke-width: 1.5;" x1="153.75" x2="153.75" y1="453.5313" y2="473.5313"/><polygon fill="#696969" points="149.75,463.5313,153.75,473.5313,157.75,463.5313,153.75,467.5313" style="stroke: #696969; stroke-width: 1.0;"/><line style="stroke: #696969; stroke-width: 1.5;" x1="153.75" x2="153.75" y1="596.5859" y2="618.5664"/><polygon fill="#696969" points="149.75,608.5664,153.75,618.5664,157.75,608.5664,153.75,612.5664" style="stroke: #696969; stroke-width: 1.0;"/><line style="stroke: #696969; stroke-width: 1.5;" x1="153.75" x2="153.75" y1="124.9023" y2="241.4297"/><polygon fill="#696969" points="149.75,231.4297,153.75,241.4297,157.75,231.4297,153.75,235.4297" style="stroke: #696969; stroke-width: 1.0;"/><line style="stroke: #696969; stroke-width: 1.5;" x1="153.75" x2="153.75" y1="653.6602" y2="697.6406"/><polygon fill="#696969" points="149.75,687.6406,153.75,697.6406,157.75,687.6406,153.75,691.6406" style="stroke: #696969; stroke-width: 1.0;"/><line style="stroke: #696969; stroke-width: 1.5;" x1="153.75" x2="153.75" y1="816.9219" y2="841.8398"/><polygon fill="#696969" points="149.75,831.8398,153.75,841.8398,157.75,831.8398,153.75,835.8398" style="stroke: #696969; stroke-width: 1.0;"/><line style="stroke: #696969; stroke-width: 1.5;" x1="206.75" x2="218.75" y1="804.9219" y2="804.9219"/><polygon fill="#696969" points="214.75,849.3867,218.75,859.3867,222.75,849.3867,218.75,853.3867" style="stroke: #696969; stroke-width: 1.5;"/><line style="stroke: #696969; stroke-width: 1.5;" x1="218.75" x2="218.75" y1="804.9219" y2="908.9336"/><line style="stroke: #696969; stroke-width: 1.5;" x1="218.75" x2="165.75" y1="908.9336" y2="908.9336"/><polygon fill="#696969" points="175.75,904.9336,165.75,908.9336,175.75,912.9336,171.75,908.9336" style="stroke: #696969; stroke-width: 1.0;"/><line style="stroke: #696969; stroke-width: 1.5;" x1="153.75" x2="153.75" y1="876.9336" y2="896.9336"/><polygon fill="#696969" points="149.75,886.9336,153.75,896.9336,157.75,886.9336,153.75,890.9336" style="stroke: #696969; stroke-width: 1.0;"/><line style="stroke: #696969; stroke-width: 1.5;" x1="153.75" x2="153.75" y1="772.9219" y2="792.9219"/><polygon fill="#696969" points="149.75,782.9219,153.75,792.9219,157.75,782.9219,153.75,786.9219" style="stroke: #696969; stroke-width: 1.0;"/><line style="stroke: #696969; stroke-width: 1.5;" x1="153.75" x2="153.75" y1="1040.0391" y2="1075.0391"/><polygon fill="#696969" points="149.75,1065.0391,153.75,1075.0391,157.75,1065.0391,153.75,1069.0391" style="stroke: #696969; stroke-width: 1.0;"/><line style="stroke: #696969; stroke-width: 1.5;" x1="153.75" x2="153.75" y1="964.9336" y2="989.8516"/><polygon fill="#696969" points="149.75,979.8516,153.75,989.8516,157.75,979.8516,153.75,983.8516" style="stroke: #696969; stroke-width: 1.0;"/><line style="stroke: #696969; stroke-width: 1.5;" x1="194.25" x2="233.25" y1="952.9336" y2="952.9336"/><polygon fill="#696969" points="229.25,1047.5391,233.25,1057.5391,237.25,1047.5391,233.25,1051.5391" style="stroke: #696969; stroke-width: 1.5;"/><line style="stroke: #696969; stroke-width: 1.5;" x1="233.25" x2="233.25" y1="952.9336" y2="1157.2266"/><line style="stroke: #696969; stroke-width: 1.5;" x1="233.25" x2="165.75" y1="1157.2266" y2="1157.2266"/><polygon fill="#696969" points="175.75,1153.2266,165.75,1157.2266,175.75,1161.2266,171.75,1157.2266" style="stroke: #696969; stroke-width: 1.0;"/><line style="stroke: #696969; stroke-width: 1.5;" x1="153.75" x2="153.75" y1="1125.2266" y2="1145.2266"/><polygon fill="#696969" points="149.75,1135.2266,153.75,1145.2266,157.75,1135.2266,153.75,1139.2266" style="stroke: #696969; stroke-width: 1.0;"/><line style="stroke: #696969; stroke-width: 1.5;" x1="153.75" x2="153.75" y1="920.9336" y2="940.9336"/><polygon fill="#696969" points="149.75,930.9336,153.75,940.9336,157.75,930.9336,153.75,934.9336" style="stroke: #696969; stroke-width: 1.0;"/><line style="stroke: #696969; stroke-width: 1.5;" x1="153.75" x2="153.75" y1="1169.2266" y2="1189.2266"/><polygon fill="#696969" points="149.75,1179.2266,153.75,1189.2266,157.75,1179.2266,153.75,1183.2266" style="stroke: #696969; stroke-width: 1.0;"/><text fill="#000080" font-family="sans-serif" font-size="14" lengthAdjust="spacingAndGlyphs" textLength="42" x="10" y="1222.7598">©2019</text><a href="http://www.lifestylesunlimited.com" target="_top" xlink:actuate="onRequest" xlink:show="new" xlink:title="http://www.lifestylesunlimited.com" xlink:type="simple"><text fill="#0000FF" font-family="sans-serif" font-size="14" lengthAdjust="spacingAndGlyphs" text-decoration="underline" textLength="122" x="56" y="1222.7598">LifeStyles Unlimited</text></a><text fill="#000080" font-family="sans-serif" font-size="14" lengthAdjust="spacingAndGlyphs" textLength="131" x="182" y="1222.7598">| Generated %date%</text><!--
@startuml rehabbing


skinparam {
  BorderColor Red
  PathHoverColor Blue
}

skinparam Title {
  FontColor Navy
  BackgroundColor PaleGoldenRod
  BorderColor Navy
  BorderRoundCorner 20
  FontSize 24
}

skinparam activity {
  BackgroundColor Ivory
  BorderColor CornflowerBlue
  BorderThickness 1
  FontColor DimGray
  

  Arrow {
    Color dimgray
    FontColor dimgray
  }

  Start {
    Color PHYSICAL
  }

  End {
    Color Coral
  }

  Diamond {
    BackgroundColor Ivory
    BorderColor CornflowerBlue
    FontColor DarkGray
  }

  BackgroundColor<< Exception >> Red
	BorderColor<< Exception >> White
}

skinparam Swimlane {
  BorderColor CornflowerBlue 
}

skinparam Partition {
  BackgroundColor Ivory
  BorderColor CornflowerBlue
  BorderThickness 1
  FontColor CornflowerBlue
  FontSize 16
  BorderRoundCorner 20
}

skinparam Note {
  BackgroundColor LightSteelBlue
  BorderColor CornflowerBlue
  FontColor White
}

skinparam Legend {
  BackgroundColor LightSteelBlue
  BorderColor CornflowerBlue
  FontColor White
}

skinparam Footer {
  FontColor Navy
}


left header 
	<font color=Navy size=24>[[../index.svg?sanitize=true ⌂ Home]]</font>
endheader


	Title Rehabbing (Repairing / Make Ready)

	start

	note right
		rehab all houses the same
		fix everything
		good for 3 years
	end note

	partition "Work" {
		:paint;
		note right
			* PPG
			* safety red
					rustoleum
					laminant = satin
			* stone mason grey
					valspar color
					semi-gloss sheen
			* never paint brick
		end note

		:countertops;
		note right
			butcherblock
			can sand down / resurface
			if damaged
		end note

		:carpet;
		note right

		end note

		if(old hard wood) then (yes)
			:resurface;
		else (no)
			:flooring;
			note right
				square planks
				glued vinyl 
				not interlocking
			end note
		endif

		:appliances;
		note right
			HD Supply
			stainless steel
			<i>do not provide frig
		end note
	}

	:take photos of all work
	- - - -
	* advertising
	* proof of condition;



	if(foundation repair) then (yes)
		:lifetime warranty]
	endif

	if(hard money) then (yes)
		:hard money inspector
		inspects all work;
		:hard money lendor
		pays contractor;
	endif

	end


left footer 
	<font size=14>©2019 [[http://www.lifestylesunlimited.com LifeStyles Unlimited]] | Generated %date%</font>
endfooter


@enduml

PlantUML version 1.2019.06(Fri May 24 12:10:25 CDT 2019)
(GPL source distribution)
Java Runtime: Java(TM) SE Runtime Environment
JVM: Java HotSpot(TM) Client VM
Java Version: 1.8.0_211-b12
Operating System: Windows 10
OS Version: 10.0
Default Encoding: Cp1252
Language: en
Country: US
--></g></svg>