<?xml version="1.0" encoding="UTF-8" standalone="no"?><svg xmlns="http://www.w3.org/2000/svg" xmlns:xlink="http://www.w3.org/1999/xlink" contentScriptType="application/ecmascript" contentStyleType="text/css" height="433px" preserveAspectRatio="none" style="width:473px;height:433px;" version="1.1" viewBox="0 0 473 433" width="473px" zoomAndPan="magnify"><defs><style type="text/css"><![CDATA[path:hover { stroke: #0000FF !important;}]]></style><filter height="300%" id="f13ikizqnf9o33" width="300%" x="-1" y="-1"><feGaussianBlur result="blurOut" stdDeviation="2.0"/><feColorMatrix in="blurOut" result="blurOut2" type="matrix" values="0 0 0 0 0 0 0 0 0 0 0 0 0 0 0 0 0 0 .4 0"/><feOffset dx="4.0" dy="4.0" in="blurOut2" result="blurOut3"/><feBlend in="SourceGraphic" in2="blurOut3" mode="normal"/></filter></defs><g><a target="_top" xlink:actuate="onRequest" xlink:href="../index.svg?sanitize=true" xlink:show="new" xlink:title="../index.svg?sanitize=true" xlink:type="simple"><text fill="#0000FF" font-family="sans-serif" font-size="24" lengthAdjust="spacingAndGlyphs" text-decoration="underline" textLength="90" x="10" y="34.9141">⌂ Home</text><line style="stroke: #0000FF; stroke-width: 1.0;" x1="10" x2="100" y1="36.9141" y2="36.9141"/></a><rect fill="#EEE8AA" height="40.1875" rx="10" ry="10" style="stroke: #000080; stroke-width: 1.5;" width="90" x="190" y="42.1875"/><text fill="#000080" font-family="sans-serif" font-size="24" lengthAdjust="spacingAndGlyphs" textLength="74" x="198" y="72.1016">Selling</text><ellipse cx="100.5" cy="95.375" fill="#CCFFCC" filter="url(#f13ikizqnf9o33)" rx="10" ry="10" style="stroke: none; stroke-width: 1.0;"/><path d="M182.5,121.5703 L182.5,138.9219 L162.5,142.9219 L182.5,146.9219 L182.5,164.2734 A0,0 0 0 0 182.5,164.2734 L442.5,164.2734 A0,0 0 0 0 442.5,164.2734 L442.5,131.5703 L432.5,121.5703 L182.5,121.5703 A0,0 0 0 0 182.5,121.5703 " fill="#B0C4DE" filter="url(#f13ikizqnf9o33)" style="stroke: #6495ED; stroke-width: 1.0;"/><path d="M432.5,121.5703 L432.5,131.5703 L442.5,131.5703 L432.5,121.5703 " fill="#B0C4DE" style="stroke: #6495ED; stroke-width: 1.0;"/><ellipse cx="194" cy="135.4219" fill="#FFFFFF" rx="2.5" ry="2.5" style="stroke: #FFFFFF; stroke-width: 0.0;"/><text fill="#FFFFFF" font-family="sans-serif" font-size="13" lengthAdjust="spacingAndGlyphs" textLength="226" x="201.5" y="140.0654">before maintainance becomes an issue</text><ellipse cx="194" cy="151.7734" fill="#FFFFFF" rx="2.5" ry="2.5" style="stroke: #FFFFFF; stroke-width: 0.0;"/><text fill="#FFFFFF" font-family="sans-serif" font-size="13" lengthAdjust="spacingAndGlyphs" textLength="181" x="201.5" y="156.417">long term capital gains are less</text><polygon fill="#FFFFF0" filter="url(#f13ikizqnf9o33)" points="38.5,125.375,162.5,125.375,172.5,142.9219,162.5,160.4688,38.5,160.4688" style="stroke: #6495ED; stroke-width: 1.0;"/><path d="M53.5,139.4688 C51.297,139.4688 49.5,141.2658 49.5,143.4688 C49.5,145.6718 51.297,147.4688 53.5,147.4688 C55.703,147.4688 57.5,145.6718 57.5,143.4688 C57.5,141.2658 55.703,139.4688 53.5,139.4688 M53.5,140.4688 C55.163,140.4688 56.5,141.8058 56.5,143.4688 C56.5,145.1318 55.163,146.4688 53.5,146.4688 C51.837,146.4688 50.5,145.1318 50.5,143.4688 C50.5,141.8058 51.837,140.4688 53.5,140.4688 M53,141.4688 L53,143.6878 L53.156,143.8128 L53.656,144.3128 L54,144.6878 L54.719,143.9688 L54.344,143.6248 L54,143.2808 L54,141.4678 L53,141.4678 " fill="#696969" style="stroke: ; stroke-width: 0.0; stroke-dasharray: ;"/><text fill="#696969" font-family="sans-serif" font-size="12" lengthAdjust="spacingAndGlyphs" textLength="91" x="61.5" y="147.832">owned 1-3 years</text><path d="M169.5,232.6445 L169.5,241.8203 L149.5,245.8203 L169.5,249.8203 L169.5,258.9961 A0,0 0 0 0 169.5,258.9961 L220.5,258.9961 A0,0 0 0 0 220.5,258.9961 L220.5,242.6445 L210.5,232.6445 L169.5,232.6445 A0,0 0 0 0 169.5,232.6445 " fill="#B0C4DE" filter="url(#f13ikizqnf9o33)" style="stroke: #6495ED; stroke-width: 1.0;"/><path d="M210.5,232.6445 L210.5,242.6445 L220.5,242.6445 L210.5,232.6445 " fill="#B0C4DE" style="stroke: #6495ED; stroke-width: 1.0;"/><text fill="#FFFFFF" font-family="sans-serif" font-size="13" lengthAdjust="spacingAndGlyphs" textLength="30" x="175.5" y="251.1396">how?</text><rect fill="#CCFFCC" filter="url(#f13ikizqnf9o33)" height="35.0938" style="stroke: #6495ED; stroke-width: 1.0;" width="98" x="51.5" y="228.2734"/><path d="M65.5,242.3672 L65.5,243.3672 L64.75,243.3672 C64.064,243.3672 63.5,243.9312 63.5,244.6172 L63.5,245.1172 C63.5,245.7952 63.937,246.3592 64.594,246.5232 L67.157,247.1792 C67.3,247.2152 67.501,247.4752 67.501,247.6172 L67.501,248.1172 C67.501,248.2512 67.385,248.3672 67.251,248.3672 L64.751,248.3672 C64.635,248.3672 64.539,248.3302 64.501,248.3042 L64.501,247.3662 L63.501,247.3662 L63.501,248.3662 C63.501,248.7082 63.704,248.9932 63.939,249.1472 C64.173,249.3022 64.457,249.3662 64.752,249.3662 L65.502,249.3662 L65.502,250.3662 L66.502,250.3662 L66.502,249.3662 L67.252,249.3662 C67.938,249.3662 68.502,248.8022 68.502,248.1162 L68.502,247.6162 C68.502,246.9382 68.065,246.3742 67.408,246.2102 L64.845,245.5542 C64.702,245.5182 64.501,245.2582 64.501,245.1162 L64.501,244.6162 C64.501,244.4822 64.617,244.3662 64.751,244.3662 L67.251,244.3662 C67.367,244.3662 67.463,244.4032 67.501,244.4292 L67.501,245.3672 L68.501,245.3672 L68.501,244.3672 C68.501,244.0252 68.298,243.7402 68.063,243.5862 C67.829,243.4312 67.545,243.3672 67.25,243.3672 L66.5,243.3672 L66.5,242.3672 L65.5,242.3672 " fill="#696969" style="stroke: ; stroke-width: 0.0; stroke-dasharray: ;"/><text fill="#696969" font-family="sans-serif" font-size="12" lengthAdjust="spacingAndGlyphs" textLength="65" x="74.5" y="250.7305">realtor fee 0</text><polygon fill="#FFFFF0" filter="url(#f13ikizqnf9o33)" points="63,184.2734,138,184.2734,150,196.2734,138,208.2734,63,208.2734,51,196.2734,63,184.2734" style="stroke: #6495ED; stroke-width: 1.0;"/><text fill="#A9A9A9" font-family="sans-serif" font-size="11" lengthAdjust="spacingAndGlyphs" textLength="75" x="63" y="200.7744">selling to tenant</text><polygon fill="#FFFFF0" filter="url(#f13ikizqnf9o33)" points="100.5,283.3672,112.5,295.3672,100.5,307.3672,88.5,295.3672,100.5,283.3672" style="stroke: #6495ED; stroke-width: 1.0;"/><path d="M168.5,323.5625 L168.5,340.9141 L148.5,344.9141 L168.5,348.9141 L168.5,366.2656 A0,0 0 0 0 168.5,366.2656 L430.5,366.2656 A0,0 0 0 0 430.5,366.2656 L430.5,333.5625 L420.5,323.5625 L168.5,323.5625 A0,0 0 0 0 168.5,323.5625 " fill="#B0C4DE" filter="url(#f13ikizqnf9o33)" style="stroke: #6495ED; stroke-width: 1.0;"/><path d="M420.5,323.5625 L420.5,333.5625 L430.5,333.5625 L420.5,323.5625 " fill="#B0C4DE" style="stroke: #6495ED; stroke-width: 1.0;"/><ellipse cx="180" cy="337.4141" fill="#FFFFFF" rx="2.5" ry="2.5" style="stroke: #FFFFFF; stroke-width: 0.0;"/><text fill="#FFFFFF" font-family="sans-serif" font-size="13" lengthAdjust="spacingAndGlyphs" textLength="189" x="187.5" y="342.0576">way faster than regular cash flow</text><ellipse cx="180" cy="353.7656" fill="#FFFFFF" rx="2.5" ry="2.5" style="stroke: #FFFFFF; stroke-width: 0.0;"/><text fill="#FFFFFF" font-family="sans-serif" font-size="13" lengthAdjust="spacingAndGlyphs" textLength="228" x="187.5" y="358.4092">only way to get into bigger / more deals</text><rect fill="#FFFFF0" filter="url(#f13ikizqnf9o33)" height="35.0938" rx="12.5" ry="12.5" style="stroke: #6495ED; stroke-width: 1.0;" width="96" x="52.5" y="327.3672"/><text fill="#696969" font-family="sans-serif" font-size="12" lengthAdjust="spacingAndGlyphs" textLength="76" x="62.5" y="349.8242">equity capture</text><ellipse cx="100.5" cy="396.2656" fill="#FFFFFF" filter="url(#f13ikizqnf9o33)" rx="10" ry="10" style="stroke: #FF7F50; stroke-width: 1.5;"/><line style="stroke: #FF7F50; stroke-width: 2.5;" x1="94.3128" x2="106.6872" y1="390.0784" y2="402.4528"/><line style="stroke: #FF7F50; stroke-width: 2.5;" x1="106.6872" x2="94.3128" y1="390.0784" y2="402.4528"/><line style="stroke: #696969; stroke-width: 1.5;" x1="100.5" x2="100.5" y1="105.375" y2="125.375"/><polygon fill="#696969" points="96.5,115.375,100.5,125.375,104.5,115.375,100.5,119.375" style="stroke: #696969; stroke-width: 1.0;"/><line style="stroke: #696969; stroke-width: 1.5;" x1="100.5" x2="100.5" y1="208.2734" y2="228.2734"/><polygon fill="#696969" points="96.5,218.2734,100.5,228.2734,104.5,218.2734,100.5,222.2734" style="stroke: #696969; stroke-width: 1.0;"/><line style="stroke: #696969; stroke-width: 1.5;" x1="150" x2="230.5" y1="196.2734" y2="196.2734"/><polygon fill="#696969" points="226.5,235.8203,230.5,245.8203,234.5,235.8203,230.5,239.8203" style="stroke: #696969; stroke-width: 1.5;"/><line style="stroke: #696969; stroke-width: 1.5;" x1="230.5" x2="230.5" y1="196.2734" y2="295.3672"/><line style="stroke: #696969; stroke-width: 1.5;" x1="230.5" x2="112.5" y1="295.3672" y2="295.3672"/><polygon fill="#696969" points="122.5,291.3672,112.5,295.3672,122.5,299.3672,118.5,295.3672" style="stroke: #696969; stroke-width: 1.0;"/><line style="stroke: #696969; stroke-width: 1.5;" x1="100.5" x2="100.5" y1="263.3672" y2="283.3672"/><polygon fill="#696969" points="96.5,273.3672,100.5,283.3672,104.5,273.3672,100.5,277.3672" style="stroke: #696969; stroke-width: 1.0;"/><line style="stroke: #696969; stroke-width: 1.5;" x1="100.5" x2="100.5" y1="160.4688" y2="184.2734"/><polygon fill="#696969" points="96.5,174.2734,100.5,184.2734,104.5,174.2734,100.5,178.2734" style="stroke: #696969; stroke-width: 1.0;"/><line style="stroke: #696969; stroke-width: 1.5;" x1="100.5" x2="100.5" y1="307.3672" y2="327.3672"/><polygon fill="#696969" points="96.5,317.3672,100.5,327.3672,104.5,317.3672,100.5,321.3672" style="stroke: #696969; stroke-width: 1.0;"/><line style="stroke: #696969; stroke-width: 1.5;" x1="100.5" x2="100.5" y1="362.4609" y2="386.2656"/><polygon fill="#696969" points="96.5,376.2656,100.5,386.2656,104.5,376.2656,100.5,380.2656" style="stroke: #696969; stroke-width: 1.0;"/><text fill="#000080" font-family="sans-serif" font-size="14" lengthAdjust="spacingAndGlyphs" textLength="42" x="10" y="419.7988">©2019</text><a target="_top" xlink:actuate="onRequest" xlink:href="http://www.lifestylesunlimited.com" xlink:show="new" xlink:title="http://www.lifestylesunlimited.com" xlink:type="simple"><text fill="#0000FF" font-family="sans-serif" font-size="14" lengthAdjust="spacingAndGlyphs" text-decoration="underline" textLength="122" x="56" y="419.7988">LifeStyles Unlimited</text><line style="stroke: #0000FF; stroke-width: 1.0;" x1="56" x2="178" y1="421.7988" y2="421.7988"/></a><text fill="#000080" font-family="sans-serif" font-size="14" lengthAdjust="spacingAndGlyphs" textLength="279" x="182" y="419.7988">| Generated Sat May 18 14:00:53 CDT 2019</text><!--
@startuml selling


skinparam {
  BorderColor Red
  PathHoverColor Blue
}

skinparam Title {
  FontColor Navy
  BackgroundColor PaleGoldenRod
  BorderColor Navy
  BorderRoundCorner 20
  FontSize 24
}

skinparam activity {
  BackgroundColor Ivory
  BorderColor CornflowerBlue
  BorderThickness 1
  FontColor DimGray
  

  Arrow {
    Color dimgray
    FontColor dimgray
  }

  Start {
    Color PHYSICAL
  }

  End {
    Color Coral
  }

  Diamond {
    BackgroundColor Ivory
    BorderColor CornflowerBlue
    FontColor DarkGray
  }

  BackgroundColor<< Exception >> Red
	BorderColor<< Exception >> White
}

skinparam Swimlane {
  BorderColor CornflowerBlue 
}

skinparam Partition {
  BackgroundColor Ivory
  BorderColor CornflowerBlue
  BorderThickness 1
  FontColor CornflowerBlue
  FontSize 16
  BorderRoundCorner 20
}

skinparam Note {
  BackgroundColor LightSteelBlue
  BorderColor CornflowerBlue
  FontColor White
}

skinparam Legend {
  BackgroundColor LightSteelBlue
  BorderColor CornflowerBlue
  FontColor White
}

skinparam Footer {
  FontColor Navy
}


left header 
	<font color=Navy size=24>[[../index.svg?sanitize=true ⌂ Home]]</font>
endheader


	Title Selling

	start
	:<&clock> owned 1-3 years>
	note right
		* before maintainance becomes an issue
		* long term capital gains are less
	end note
	if(selling to tenant)
		#PHYSICAL:<&dollar> realtor fee 0]
		note right: how?
	else
	endif
	:equity capture;
	note right
		* way faster than regular cash flow
		* only way to get into bigger / more deals
	end note

	end


left footer 
	<font size=14>©2019 [[http://www.lifestylesunlimited.com LifeStyles Unlimited]] | Generated Sat May 18 14:00:53 CDT 2019</font>
endfooter


@enduml

PlantUML version 1.2019.03(Sun Mar 10 06:04:44 CDT 2019)
(GPL source distribution)
Java Runtime: Java(TM) SE Runtime Environment
JVM: Java HotSpot(TM) 64-Bit Server VM
Java Version: 1.8.0_111-b14
Operating System: Windows 10
OS Version: 10.0
Default Encoding: Cp1252
Language: en
Country: US
--></g></svg>