<?xml version="1.0" encoding="UTF-8" standalone="no"?><svg xmlns="http://www.w3.org/2000/svg" xmlns:xlink="http://www.w3.org/1999/xlink" contentScriptType="application/ecmascript" contentStyleType="text/css" height="433px" preserveAspectRatio="none" style="width:477px;height:433px;" version="1.1" viewBox="0 0 477 433" width="477px" zoomAndPan="magnify"><defs><style type="text/css"><![CDATA[path:hover { stroke: #0000FF !important;}]]></style><filter height="300%" id="fnkk4tfcq8v5s" width="300%" x="-1" y="-1"><feGaussianBlur result="blurOut" stdDeviation="2.0"/><feColorMatrix in="blurOut" result="blurOut2" type="matrix" values="0 0 0 0 0 0 0 0 0 0 0 0 0 0 0 0 0 0 .4 0"/><feOffset dx="4.0" dy="4.0" in="blurOut2" result="blurOut3"/><feBlend in="SourceGraphic" in2="blurOut3" mode="normal"/></filter></defs><g><a target="_top" xlink:actuate="onRequest" xlink:href="../index.svg?sanitize=true" xlink:show="new" xlink:title="../index.svg?sanitize=true" xlink:type="simple"><text fill="#0000FF" font-family="sans-serif" font-size="24" lengthAdjust="spacingAndGlyphs" text-decoration="underline" textLength="90" x="10" y="34.9141">⌂ Home</text><line style="stroke: #0000FF; stroke-width: 1.0;" x1="10" x2="100" y1="36.9141" y2="36.9141"/></a><rect fill="#EEE8AA" height="40.1875" rx="10" ry="10" style="stroke: #000080; stroke-width: 1.5;" width="90" x="192" y="42.1875"/><text fill="#000080" font-family="sans-serif" font-size="24" lengthAdjust="spacingAndGlyphs" textLength="74" x="200" y="72.1016">Selling</text><ellipse cx="102.5" cy="95.375" fill="#CCFFCC" filter="url(#fnkk4tfcq8v5s)" rx="10" ry="10" style="stroke: none; stroke-width: 1.0;"/><path d="M184.5,121.5703 L184.5,138.9219 L164.5,142.9219 L184.5,146.9219 L184.5,164.2734 A0,0 0 0 0 184.5,164.2734 L444.5,164.2734 A0,0 0 0 0 444.5,164.2734 L444.5,131.5703 L434.5,121.5703 L184.5,121.5703 A0,0 0 0 0 184.5,121.5703 " fill="#B0C4DE" filter="url(#fnkk4tfcq8v5s)" style="stroke: #6495ED; stroke-width: 1.0;"/><path d="M434.5,121.5703 L434.5,131.5703 L444.5,131.5703 L434.5,121.5703 " fill="#B0C4DE" style="stroke: #6495ED; stroke-width: 1.0;"/><ellipse cx="196" cy="135.4219" fill="#FFFFFF" rx="2.5" ry="2.5" style="stroke: #FFFFFF; stroke-width: 0.0;"/><text fill="#FFFFFF" font-family="sans-serif" font-size="13" lengthAdjust="spacingAndGlyphs" textLength="226" x="203.5" y="140.0654">before maintainance becomes an issue</text><ellipse cx="196" cy="151.7734" fill="#FFFFFF" rx="2.5" ry="2.5" style="stroke: #FFFFFF; stroke-width: 0.0;"/><text fill="#FFFFFF" font-family="sans-serif" font-size="13" lengthAdjust="spacingAndGlyphs" textLength="181" x="203.5" y="156.417">long term capital gains are less</text><polygon fill="#FFFFF0" filter="url(#fnkk4tfcq8v5s)" points="40.5,125.375,164.5,125.375,174.5,142.9219,164.5,160.4688,40.5,160.4688" style="stroke: #6495ED; stroke-width: 1.0;"/><path d="M55.5,139.4688 C53.297,139.4688 51.5,141.2658 51.5,143.4688 C51.5,145.6718 53.297,147.4688 55.5,147.4688 C57.703,147.4688 59.5,145.6718 59.5,143.4688 C59.5,141.2658 57.703,139.4688 55.5,139.4688 M55.5,140.4688 C57.163,140.4688 58.5,141.8058 58.5,143.4688 C58.5,145.1318 57.163,146.4688 55.5,146.4688 C53.837,146.4688 52.5,145.1318 52.5,143.4688 C52.5,141.8058 53.837,140.4688 55.5,140.4688 M55,141.4688 L55,143.6878 L55.156,143.8128 L55.656,144.3128 L56,144.6878 L56.719,143.9688 L56.344,143.6248 L56,143.2808 L56,141.4678 L55,141.4678 " fill="#696969" style="stroke: ; stroke-width: 0.0; stroke-dasharray: ;"/><text fill="#696969" font-family="sans-serif" font-size="12" lengthAdjust="spacingAndGlyphs" textLength="91" x="63.5" y="147.832">owned 1-3 years</text><path d="M171.5,232.6445 L171.5,241.8203 L151.5,245.8203 L171.5,249.8203 L171.5,258.9961 A0,0 0 0 0 171.5,258.9961 L222.5,258.9961 A0,0 0 0 0 222.5,258.9961 L222.5,242.6445 L212.5,232.6445 L171.5,232.6445 A0,0 0 0 0 171.5,232.6445 " fill="#B0C4DE" filter="url(#fnkk4tfcq8v5s)" style="stroke: #6495ED; stroke-width: 1.0;"/><path d="M212.5,232.6445 L212.5,242.6445 L222.5,242.6445 L212.5,232.6445 " fill="#B0C4DE" style="stroke: #6495ED; stroke-width: 1.0;"/><text fill="#FFFFFF" font-family="sans-serif" font-size="13" lengthAdjust="spacingAndGlyphs" textLength="30" x="177.5" y="251.1396">how?</text><rect fill="#CCFFCC" filter="url(#fnkk4tfcq8v5s)" height="35.0938" style="stroke: #6495ED; stroke-width: 1.0;" width="98" x="53.5" y="228.2734"/><path d="M67.5,242.3672 L67.5,243.3672 L66.75,243.3672 C66.064,243.3672 65.5,243.9312 65.5,244.6172 L65.5,245.1172 C65.5,245.7952 65.937,246.3592 66.594,246.5232 L69.157,247.1792 C69.3,247.2152 69.501,247.4752 69.501,247.6172 L69.501,248.1172 C69.501,248.2512 69.385,248.3672 69.251,248.3672 L66.751,248.3672 C66.635,248.3672 66.539,248.3302 66.501,248.3042 L66.501,247.3662 L65.501,247.3662 L65.501,248.3662 C65.501,248.7082 65.704,248.9932 65.939,249.1472 C66.173,249.3022 66.457,249.3662 66.752,249.3662 L67.502,249.3662 L67.502,250.3662 L68.502,250.3662 L68.502,249.3662 L69.252,249.3662 C69.938,249.3662 70.502,248.8022 70.502,248.1162 L70.502,247.6162 C70.502,246.9382 70.065,246.3742 69.408,246.2102 L66.845,245.5542 C66.702,245.5182 66.501,245.2582 66.501,245.1162 L66.501,244.6162 C66.501,244.4822 66.617,244.3662 66.751,244.3662 L69.251,244.3662 C69.367,244.3662 69.463,244.4032 69.501,244.4292 L69.501,245.3672 L70.501,245.3672 L70.501,244.3672 C70.501,244.0252 70.298,243.7402 70.063,243.5862 C69.829,243.4312 69.545,243.3672 69.25,243.3672 L68.5,243.3672 L68.5,242.3672 L67.5,242.3672 " fill="#696969" style="stroke: ; stroke-width: 0.0; stroke-dasharray: ;"/><text fill="#696969" font-family="sans-serif" font-size="12" lengthAdjust="spacingAndGlyphs" textLength="65" x="76.5" y="250.7305">realtor fee 0</text><polygon fill="#FFFFF0" filter="url(#fnkk4tfcq8v5s)" points="65,184.2734,140,184.2734,152,196.2734,140,208.2734,65,208.2734,53,196.2734,65,184.2734" style="stroke: #6495ED; stroke-width: 1.0;"/><text fill="#A9A9A9" font-family="sans-serif" font-size="11" lengthAdjust="spacingAndGlyphs" textLength="75" x="65" y="200.7744">selling to tenant</text><polygon fill="#FFFFF0" filter="url(#fnkk4tfcq8v5s)" points="102.5,283.3672,114.5,295.3672,102.5,307.3672,90.5,295.3672,102.5,283.3672" style="stroke: #6495ED; stroke-width: 1.0;"/><path d="M170.5,323.5625 L170.5,340.9141 L150.5,344.9141 L170.5,348.9141 L170.5,366.2656 A0,0 0 0 0 170.5,366.2656 L432.5,366.2656 A0,0 0 0 0 432.5,366.2656 L432.5,333.5625 L422.5,323.5625 L170.5,323.5625 A0,0 0 0 0 170.5,323.5625 " fill="#B0C4DE" filter="url(#fnkk4tfcq8v5s)" style="stroke: #6495ED; stroke-width: 1.0;"/><path d="M422.5,323.5625 L422.5,333.5625 L432.5,333.5625 L422.5,323.5625 " fill="#B0C4DE" style="stroke: #6495ED; stroke-width: 1.0;"/><ellipse cx="182" cy="337.4141" fill="#FFFFFF" rx="2.5" ry="2.5" style="stroke: #FFFFFF; stroke-width: 0.0;"/><text fill="#FFFFFF" font-family="sans-serif" font-size="13" lengthAdjust="spacingAndGlyphs" textLength="189" x="189.5" y="342.0576">way faster than regular cash flow</text><ellipse cx="182" cy="353.7656" fill="#FFFFFF" rx="2.5" ry="2.5" style="stroke: #FFFFFF; stroke-width: 0.0;"/><text fill="#FFFFFF" font-family="sans-serif" font-size="13" lengthAdjust="spacingAndGlyphs" textLength="228" x="189.5" y="358.4092">only way to get into bigger / more deals</text><rect fill="#FFFFF0" filter="url(#fnkk4tfcq8v5s)" height="35.0938" rx="12.5" ry="12.5" style="stroke: #6495ED; stroke-width: 1.0;" width="96" x="54.5" y="327.3672"/><text fill="#696969" font-family="sans-serif" font-size="12" lengthAdjust="spacingAndGlyphs" textLength="76" x="64.5" y="349.8242">equity capture</text><ellipse cx="102.5" cy="396.2656" fill="#FFFFFF" filter="url(#fnkk4tfcq8v5s)" rx="10" ry="10" style="stroke: #FF7F50; stroke-width: 1.5;"/><line style="stroke: #FF7F50; stroke-width: 2.5;" x1="96.3128" x2="108.6872" y1="390.0784" y2="402.4528"/><line style="stroke: #FF7F50; stroke-width: 2.5;" x1="108.6872" x2="96.3128" y1="390.0784" y2="402.4528"/><line style="stroke: #696969; stroke-width: 1.5;" x1="102.5" x2="102.5" y1="105.375" y2="125.375"/><polygon fill="#696969" points="98.5,115.375,102.5,125.375,106.5,115.375,102.5,119.375" style="stroke: #696969; stroke-width: 1.0;"/><line style="stroke: #696969; stroke-width: 1.5;" x1="102.5" x2="102.5" y1="208.2734" y2="228.2734"/><polygon fill="#696969" points="98.5,218.2734,102.5,228.2734,106.5,218.2734,102.5,222.2734" style="stroke: #696969; stroke-width: 1.0;"/><line style="stroke: #696969; stroke-width: 1.5;" x1="152" x2="232.5" y1="196.2734" y2="196.2734"/><polygon fill="#696969" points="228.5,235.8203,232.5,245.8203,236.5,235.8203,232.5,239.8203" style="stroke: #696969; stroke-width: 1.5;"/><line style="stroke: #696969; stroke-width: 1.5;" x1="232.5" x2="232.5" y1="196.2734" y2="295.3672"/><line style="stroke: #696969; stroke-width: 1.5;" x1="232.5" x2="114.5" y1="295.3672" y2="295.3672"/><polygon fill="#696969" points="124.5,291.3672,114.5,295.3672,124.5,299.3672,120.5,295.3672" style="stroke: #696969; stroke-width: 1.0;"/><line style="stroke: #696969; stroke-width: 1.5;" x1="102.5" x2="102.5" y1="263.3672" y2="283.3672"/><polygon fill="#696969" points="98.5,273.3672,102.5,283.3672,106.5,273.3672,102.5,277.3672" style="stroke: #696969; stroke-width: 1.0;"/><line style="stroke: #696969; stroke-width: 1.5;" x1="102.5" x2="102.5" y1="160.4688" y2="184.2734"/><polygon fill="#696969" points="98.5,174.2734,102.5,184.2734,106.5,174.2734,102.5,178.2734" style="stroke: #696969; stroke-width: 1.0;"/><line style="stroke: #696969; stroke-width: 1.5;" x1="102.5" x2="102.5" y1="307.3672" y2="327.3672"/><polygon fill="#696969" points="98.5,317.3672,102.5,327.3672,106.5,317.3672,102.5,321.3672" style="stroke: #696969; stroke-width: 1.0;"/><line style="stroke: #696969; stroke-width: 1.5;" x1="102.5" x2="102.5" y1="362.4609" y2="386.2656"/><polygon fill="#696969" points="98.5,376.2656,102.5,386.2656,106.5,376.2656,102.5,380.2656" style="stroke: #696969; stroke-width: 1.0;"/><text fill="#000080" font-family="sans-serif" font-size="14" lengthAdjust="spacingAndGlyphs" textLength="42" x="10" y="419.7988">©2019</text><a target="_top" xlink:actuate="onRequest" xlink:href="http://www.lifestylesunlimited.com" xlink:show="new" xlink:title="http://www.lifestylesunlimited.com" xlink:type="simple"><text fill="#0000FF" font-family="sans-serif" font-size="14" lengthAdjust="spacingAndGlyphs" text-decoration="underline" textLength="122" x="56" y="419.7988">LifeStyles Unlimited</text><line style="stroke: #0000FF; stroke-width: 1.0;" x1="56" x2="178" y1="421.7988" y2="421.7988"/></a><text fill="#000080" font-family="sans-serif" font-size="14" lengthAdjust="spacingAndGlyphs" textLength="283" x="182" y="419.7988">| Generated Sun May 12 17:24:33 CDT 2019</text><!--
@startuml selling


skinparam {
  BorderColor Red
  PathHoverColor Blue
}

skinparam Title {
  FontColor Navy
  BackgroundColor PaleGoldenRod
  BorderColor Navy
  BorderRoundCorner 20
  FontSize 24
}

skinparam activity {
  BackgroundColor Ivory
  BorderColor CornflowerBlue
  BorderThickness 1
  FontColor DimGray
  

  Arrow {
    Color dimgray
    FontColor dimgray
  }

  Start {
    Color PHYSICAL
  }

  End {
    Color Coral
  }

  Diamond {
    BackgroundColor Ivory
    BorderColor CornflowerBlue
    FontColor DarkGray
  }

  BackgroundColor<< Exception >> Red
	BorderColor<< Exception >> White
}

skinparam Swimlane {
  BorderColor CornflowerBlue 
}

skinparam Partition {
  BackgroundColor Ivory
  BorderColor CornflowerBlue
  BorderThickness 1
  FontColor CornflowerBlue
  FontSize 16
  BorderRoundCorner 20
}

skinparam Note {
  BackgroundColor LightSteelBlue
  BorderColor CornflowerBlue
  FontColor White
}

skinparam Legend {
  BackgroundColor LightSteelBlue
  BorderColor CornflowerBlue
  FontColor White
}

skinparam Footer {
  FontColor Navy
}


left header 
	<font color=Navy size=24>[[../index.svg?sanitize=true ⌂ Home]]</font>
endheader


	Title Selling

	start
	:<&clock> owned 1-3 years>
	note right
		* before maintainance becomes an issue
		* long term capital gains are less
	end note
	if(selling to tenant)
		#PHYSICAL:<&dollar> realtor fee 0]
		note right: how?
	else
	endif
	:equity capture;
	note right
		* way faster than regular cash flow
		* only way to get into bigger / more deals
	end note

	end


left footer 
	<font size=14>©2019 [[http://www.lifestylesunlimited.com LifeStyles Unlimited]] | Generated Sun May 12 17:24:33 CDT 2019</font>
endfooter


@enduml

PlantUML version 1.2019.03(Sun Mar 10 06:04:44 CDT 2019)
(GPL source distribution)
Java Runtime: Java(TM) SE Runtime Environment
JVM: Java HotSpot(TM) 64-Bit Server VM
Java Version: 1.8.0_111-b14
Operating System: Windows 10
OS Version: 10.0
Default Encoding: Cp1252
Language: en
Country: US
--></g></svg>