<?xml version="1.0" encoding="UTF-8" standalone="no"?><svg xmlns="http://www.w3.org/2000/svg" xmlns:xlink="http://www.w3.org/1999/xlink" contentScriptType="application/ecmascript" contentStyleType="text/css" height="315px" preserveAspectRatio="none" style="width:473px;height:315px;" version="1.1" viewBox="0 0 473 315" width="473px" zoomAndPan="magnify"><defs><style type="text/css"><![CDATA[path:hover { stroke: #0000FF !important;}]]></style><filter height="300%" id="f104twqiaejjps" width="300%" x="-1" y="-1"><feGaussianBlur result="blurOut" stdDeviation="2.0"/><feColorMatrix in="blurOut" result="blurOut2" type="matrix" values="0 0 0 0 0 0 0 0 0 0 0 0 0 0 0 0 0 0 .4 0"/><feOffset dx="4.0" dy="4.0" in="blurOut2" result="blurOut3"/><feBlend in="SourceGraphic" in2="blurOut3" mode="normal"/></filter></defs><g><a target="_top" xlink:actuate="onRequest" xlink:href="../index.svg?sanitize=true" xlink:show="new" xlink:title="../index.svg?sanitize=true" xlink:type="simple"><text fill="#0000FF" font-family="sans-serif" font-size="24" lengthAdjust="spacingAndGlyphs" text-decoration="underline" textLength="90" x="10" y="34.9141">⌂ Home</text><line style="stroke: #0000FF; stroke-width: 1.0;" x1="10" x2="100" y1="36.9141" y2="36.9141"/></a><rect fill="#EEE8AA" height="40.1875" rx="10" ry="10" style="stroke: #000080; stroke-width: 1.5;" width="90" x="190" y="42.1875"/><text fill="#000080" font-family="sans-serif" font-size="24" lengthAdjust="spacingAndGlyphs" textLength="74" x="198" y="72.1016">Selling</text><ellipse cx="193.25" cy="95.375" fill="#CCFFCC" filter="url(#f104twqiaejjps)" rx="10" ry="10" style="stroke: none; stroke-width: 1.0;"/><path d="M262.25,173.7461 L262.25,182.9219 L242.25,186.9219 L262.25,190.9219 L262.25,200.0977 A0,0 0 0 0 262.25,200.0977 L313.25,200.0977 A0,0 0 0 0 313.25,200.0977 L313.25,183.7461 L303.25,173.7461 L262.25,173.7461 A0,0 0 0 0 262.25,173.7461 " fill="#B0C4DE" filter="url(#f104twqiaejjps)" style="stroke: #6495ED; stroke-width: 1.0;"/><path d="M303.25,173.7461 L303.25,183.7461 L313.25,183.7461 L303.25,173.7461 " fill="#B0C4DE" style="stroke: #6495ED; stroke-width: 1.0;"/><text fill="#FFFFFF" font-family="sans-serif" font-size="13" lengthAdjust="spacingAndGlyphs" textLength="30" x="268.25" y="192.2412">how?</text><rect fill="#CCFFCC" filter="url(#f104twqiaejjps)" height="35.0938" style="stroke: #6495ED; stroke-width: 1.0;" width="98" x="144.25" y="169.375"/><path d="M158.25,183.4688 L158.25,184.4688 L157.5,184.4688 C156.814,184.4688 156.25,185.0328 156.25,185.7188 L156.25,186.2188 C156.25,186.8968 156.687,187.4608 157.344,187.6248 L159.907,188.2808 C160.05,188.3168 160.251,188.5768 160.251,188.7188 L160.251,189.2188 C160.251,189.3528 160.135,189.4688 160.001,189.4688 L157.501,189.4688 C157.385,189.4688 157.289,189.4318 157.251,189.4058 L157.251,188.4678 L156.251,188.4678 L156.251,189.4678 C156.251,189.8098 156.454,190.0948 156.689,190.2488 C156.923,190.4038 157.207,190.4678 157.502,190.4678 L158.252,190.4678 L158.252,191.4678 L159.252,191.4678 L159.252,190.4678 L160.002,190.4678 C160.688,190.4678 161.252,189.9038 161.252,189.2178 L161.252,188.7178 C161.252,188.0398 160.815,187.4758 160.158,187.3118 L157.595,186.6558 C157.452,186.6198 157.251,186.3598 157.251,186.2178 L157.251,185.7178 C157.251,185.5838 157.367,185.4678 157.501,185.4678 L160.001,185.4678 C160.117,185.4678 160.213,185.5048 160.251,185.5308 L160.251,186.4688 L161.251,186.4688 L161.251,185.4688 C161.251,185.1268 161.048,184.8418 160.813,184.6878 C160.579,184.5328 160.295,184.4688 160,184.4688 L159.25,184.4688 L159.25,183.4688 L158.25,183.4688 " fill="#696969" style="stroke: ; stroke-width: 0.0; stroke-dasharray: ;"/><text fill="#696969" font-family="sans-serif" font-size="12" lengthAdjust="spacingAndGlyphs" textLength="65" x="167.25" y="191.832">realtor fee 0</text><polygon fill="#FFFFF0" filter="url(#f104twqiaejjps)" points="155.75,125.375,230.75,125.375,242.75,137.375,230.75,149.375,155.75,149.375,143.75,137.375,155.75,125.375" style="stroke: #6495ED; stroke-width: 1.0;"/><text fill="#A9A9A9" font-family="sans-serif" font-size="11" lengthAdjust="spacingAndGlyphs" textLength="75" x="155.75" y="141.876">selling to tenant</text><polygon fill="#FFFFF0" filter="url(#f104twqiaejjps)" points="193.25,224.4688,205.25,236.4688,193.25,248.4688,181.25,236.4688,193.25,224.4688" style="stroke: #6495ED; stroke-width: 1.0;"/><ellipse cx="193.25" cy="278.4688" fill="#FFFFFF" filter="url(#f104twqiaejjps)" rx="10" ry="10" style="stroke: #FF7F50; stroke-width: 1.5;"/><line style="stroke: #FF7F50; stroke-width: 2.5;" x1="187.0628" x2="199.4372" y1="272.2816" y2="284.6559"/><line style="stroke: #FF7F50; stroke-width: 2.5;" x1="199.4372" x2="187.0628" y1="272.2816" y2="284.6559"/><line style="stroke: #696969; stroke-width: 1.5;" x1="193.25" x2="193.25" y1="149.375" y2="169.375"/><polygon fill="#696969" points="189.25,159.375,193.25,169.375,197.25,159.375,193.25,163.375" style="stroke: #696969; stroke-width: 1.0;"/><line style="stroke: #696969; stroke-width: 1.5;" x1="242.75" x2="323.25" y1="137.375" y2="137.375"/><polygon fill="#696969" points="319.25,176.9219,323.25,186.9219,327.25,176.9219,323.25,180.9219" style="stroke: #696969; stroke-width: 1.5;"/><line style="stroke: #696969; stroke-width: 1.5;" x1="323.25" x2="323.25" y1="137.375" y2="236.4688"/><line style="stroke: #696969; stroke-width: 1.5;" x1="323.25" x2="205.25" y1="236.4688" y2="236.4688"/><polygon fill="#696969" points="215.25,232.4688,205.25,236.4688,215.25,240.4688,211.25,236.4688" style="stroke: #696969; stroke-width: 1.0;"/><line style="stroke: #696969; stroke-width: 1.5;" x1="193.25" x2="193.25" y1="204.4688" y2="224.4688"/><polygon fill="#696969" points="189.25,214.4688,193.25,224.4688,197.25,214.4688,193.25,218.4688" style="stroke: #696969; stroke-width: 1.0;"/><line style="stroke: #696969; stroke-width: 1.5;" x1="193.25" x2="193.25" y1="105.375" y2="125.375"/><polygon fill="#696969" points="189.25,115.375,193.25,125.375,197.25,115.375,193.25,119.375" style="stroke: #696969; stroke-width: 1.0;"/><line style="stroke: #696969; stroke-width: 1.5;" x1="193.25" x2="193.25" y1="248.4688" y2="268.4688"/><polygon fill="#696969" points="189.25,258.4688,193.25,268.4688,197.25,258.4688,193.25,262.4688" style="stroke: #696969; stroke-width: 1.0;"/><text fill="#000080" font-family="sans-serif" font-size="14" lengthAdjust="spacingAndGlyphs" textLength="42" x="10" y="302.002">©2019</text><a target="_top" xlink:actuate="onRequest" xlink:href="http://www.lifestylesunlimited.com" xlink:show="new" xlink:title="http://www.lifestylesunlimited.com" xlink:type="simple"><text fill="#0000FF" font-family="sans-serif" font-size="14" lengthAdjust="spacingAndGlyphs" text-decoration="underline" textLength="122" x="56" y="302.002">LifeStyles Unlimited</text><line style="stroke: #0000FF; stroke-width: 1.0;" x1="56" x2="178" y1="304.002" y2="304.002"/></a><text fill="#000080" font-family="sans-serif" font-size="14" lengthAdjust="spacingAndGlyphs" textLength="279" x="182" y="302.002">| Generated Sun Apr 28 21:11:27 CDT 2019</text><!--
@startuml selling


skinparam {
  BorderColor Red
  PathHoverColor Blue
}

skinparam Title {
  FontColor Navy
  BackgroundColor PaleGoldenRod
  BorderColor Navy
  BorderRoundCorner 20
  FontSize 24
}

skinparam activity {
  BackgroundColor Ivory
  BorderColor CornflowerBlue
  BorderThickness 1
  FontColor DimGray
  

  Arrow {
    Color dimgray
    FontColor dimgray
  }

  Start {
    Color PHYSICAL
  }

  End {
    Color Coral
  }

  Diamond {
    BackgroundColor Ivory
    BorderColor CornflowerBlue
    FontColor DarkGray
  }

  BackgroundColor<< Exception >> Red
	BorderColor<< Exception >> White
}

skinparam Swimlane {
  BorderColor CornflowerBlue 
}

skinparam Partition {
  BackgroundColor Ivory
  BorderColor CornflowerBlue
  BorderThickness 1
  FontColor CornflowerBlue
  FontSize 16
  BorderRoundCorner 20
}

skinparam Note {
  BackgroundColor LightSteelBlue
  BorderColor CornflowerBlue
  FontColor White
}

skinparam Legend {
  BackgroundColor LightSteelBlue
  BorderColor CornflowerBlue
  FontColor White
}

skinparam Footer {
  FontColor Navy
}


left header 
	<font color=Navy size=24>[[../index.svg?sanitize=true ⌂ Home]]</font>
endheader


	Title Selling

	start

	if(selling to tenant)
		#PHYSICAL:<&dollar> realtor fee 0]
		note right: how?
	else
	endif

	

	end


left footer 
	<font size=14>©2019 [[http://www.lifestylesunlimited.com LifeStyles Unlimited]] | Generated Sun Apr 28 21:11:27 CDT 2019</font>
endfooter


@enduml

PlantUML version 1.2019.03(Sun Mar 10 06:04:44 CDT 2019)
(GPL source distribution)
Java Runtime: Java(TM) SE Runtime Environment
JVM: Java HotSpot(TM) 64-Bit Server VM
Java Version: 1.8.0_111-b14
Operating System: Windows 10
OS Version: 10.0
Default Encoding: Cp1252
Language: en
Country: US
--></g></svg>