<?xml version="1.0" encoding="UTF-8" standalone="no"?><svg xmlns="http://www.w3.org/2000/svg" xmlns:xlink="http://www.w3.org/1999/xlink" contentScriptType="application/ecmascript" contentStyleType="text/css" height="300px" preserveAspectRatio="none" style="width:475px;height:300px;" version="1.1" viewBox="0 0 475 300" width="475px" zoomAndPan="magnify"><defs><style type="text/css"><![CDATA[path:hover { stroke: #0000FF !important;}]]></style><filter height="300%" id="f16x3ewixqhsw8" width="300%" x="-1" y="-1"><feGaussianBlur result="blurOut" stdDeviation="2.0"/><feColorMatrix in="blurOut" result="blurOut2" type="matrix" values="0 0 0 0 0 0 0 0 0 0 0 0 0 0 0 0 0 0 .4 0"/><feOffset dx="4.0" dy="4.0" in="blurOut2" result="blurOut3"/><feBlend in="SourceGraphic" in2="blurOut3" mode="normal"/></filter></defs><g><a target="_top" xlink:actuate="onRequest" xlink:href="../index.svg" xlink:show="new" xlink:title="../index.svg" xlink:type="simple"><text fill="#0000FF" font-family="sans-serif" font-size="18" lengthAdjust="spacingAndGlyphs" text-decoration="underline" textLength="67" x="10" y="28.6855">⌂ Home</text><line style="stroke: #0000FF; stroke-width: 1.0;" x1="10" x2="77" y1="30.6855" y2="30.6855"/></a><rect fill="#EEE8AA" height="32.6406" rx="10" ry="10" style="stroke: #000080; stroke-width: 1.5;" width="70" x="201" y="34.6406"/><text fill="#000080" font-family="sans-serif" font-size="18" lengthAdjust="spacingAndGlyphs" textLength="54" x="209" y="58.3262">Selling</text><ellipse cx="194.25" cy="80.2813" fill="#CCFFCC" filter="url(#f16x3ewixqhsw8)" rx="10" ry="10" style="stroke: none; stroke-width: 1.0;"/><path d="M263.25,158.6523 L263.25,167.8281 L243.25,171.8281 L263.25,175.8281 L263.25,185.0039 A0,0 0 0 0 263.25,185.0039 L314.25,185.0039 A0,0 0 0 0 314.25,185.0039 L314.25,168.6523 L304.25,158.6523 L263.25,158.6523 A0,0 0 0 0 263.25,158.6523 " fill="#B0C4DE" filter="url(#f16x3ewixqhsw8)" style="stroke: #6495ED; stroke-width: 1.0;"/><path d="M304.25,158.6523 L304.25,168.6523 L314.25,168.6523 L304.25,158.6523 " fill="#B0C4DE" style="stroke: #6495ED; stroke-width: 1.0;"/><text fill="#FFFFFF" font-family="sans-serif" font-size="13" lengthAdjust="spacingAndGlyphs" textLength="30" x="269.25" y="177.1475">how?</text><rect fill="#CCFFCC" filter="url(#f16x3ewixqhsw8)" height="35.0938" style="stroke: #6495ED; stroke-width: 1.5;" width="98" x="145.25" y="154.2813"/><path d="M159.25,168.375 L159.25,169.375 L158.5,169.375 C157.814,169.375 157.25,169.939 157.25,170.625 L157.25,171.125 C157.25,171.803 157.687,172.367 158.344,172.531 L160.907,173.187 C161.05,173.223 161.251,173.483 161.251,173.625 L161.251,174.125 C161.251,174.259 161.135,174.375 161.001,174.375 L158.501,174.375 C158.385,174.375 158.289,174.338 158.251,174.312 L158.251,173.374 L157.251,173.374 L157.251,174.374 C157.251,174.716 157.454,175.001 157.689,175.155 C157.923,175.31 158.207,175.374 158.502,175.374 L159.252,175.374 L159.252,176.374 L160.252,176.374 L160.252,175.374 L161.002,175.374 C161.688,175.374 162.252,174.81 162.252,174.124 L162.252,173.624 C162.252,172.946 161.815,172.382 161.158,172.218 L158.595,171.562 C158.452,171.526 158.251,171.266 158.251,171.124 L158.251,170.624 C158.251,170.49 158.367,170.374 158.501,170.374 L161.001,170.374 C161.117,170.374 161.213,170.411 161.251,170.437 L161.251,171.375 L162.251,171.375 L162.251,170.375 C162.251,170.033 162.048,169.748 161.813,169.594 C161.579,169.439 161.295,169.375 161,169.375 L160.25,169.375 L160.25,168.375 L159.25,168.375 " fill="#696969" style="stroke: ; stroke-width: 0.0; stroke-dasharray: ;"/><text fill="#696969" font-family="sans-serif" font-size="12" lengthAdjust="spacingAndGlyphs" textLength="65" x="168.25" y="176.7383">realtor fee 0</text><polygon fill="#FFFFF0" filter="url(#f16x3ewixqhsw8)" points="156.75,110.2813,231.75,110.2813,243.75,122.2813,231.75,134.2813,156.75,134.2813,144.75,122.2813,156.75,110.2813" style="stroke: #6495ED; stroke-width: 1.5;"/><text fill="#A9A9A9" font-family="sans-serif" font-size="11" lengthAdjust="spacingAndGlyphs" textLength="75" x="156.75" y="126.7822">selling to tenant</text><polygon fill="#FFFFF0" filter="url(#f16x3ewixqhsw8)" points="194.25,209.375,206.25,221.375,194.25,233.375,182.25,221.375,194.25,209.375" style="stroke: #6495ED; stroke-width: 1.5;"/><ellipse cx="194.25" cy="263.375" fill="#FFFFFF" filter="url(#f16x3ewixqhsw8)" rx="10" ry="10" style="stroke: #FF7F50; stroke-width: 1.5;"/><line style="stroke: #FF7F50; stroke-width: 2.5;" x1="188.0628" x2="200.4372" y1="257.1878" y2="269.5622"/><line style="stroke: #FF7F50; stroke-width: 2.5;" x1="200.4372" x2="188.0628" y1="257.1878" y2="269.5622"/><line style="stroke: #696969; stroke-width: 1.5;" x1="194.25" x2="194.25" y1="134.2813" y2="154.2813"/><polygon fill="#696969" points="190.25,144.2813,194.25,154.2813,198.25,144.2813,194.25,148.2813" style="stroke: #696969; stroke-width: 1.0;"/><line style="stroke: #696969; stroke-width: 1.5;" x1="243.75" x2="324.25" y1="122.2813" y2="122.2813"/><polygon fill="#696969" points="320.25,161.8281,324.25,171.8281,328.25,161.8281,324.25,165.8281" style="stroke: #696969; stroke-width: 1.5;"/><line style="stroke: #696969; stroke-width: 1.5;" x1="324.25" x2="324.25" y1="122.2813" y2="221.375"/><line style="stroke: #696969; stroke-width: 1.5;" x1="324.25" x2="206.25" y1="221.375" y2="221.375"/><polygon fill="#696969" points="216.25,217.375,206.25,221.375,216.25,225.375,212.25,221.375" style="stroke: #696969; stroke-width: 1.0;"/><line style="stroke: #696969; stroke-width: 1.5;" x1="194.25" x2="194.25" y1="189.375" y2="209.375"/><polygon fill="#696969" points="190.25,199.375,194.25,209.375,198.25,199.375,194.25,203.375" style="stroke: #696969; stroke-width: 1.0;"/><line style="stroke: #696969; stroke-width: 1.5;" x1="194.25" x2="194.25" y1="90.2813" y2="110.2813"/><polygon fill="#696969" points="190.25,100.2813,194.25,110.2813,198.25,100.2813,194.25,104.2813" style="stroke: #696969; stroke-width: 1.0;"/><line style="stroke: #696969; stroke-width: 1.5;" x1="194.25" x2="194.25" y1="233.375" y2="253.375"/><polygon fill="#696969" points="190.25,243.375,194.25,253.375,198.25,243.375,194.25,247.375" style="stroke: #696969; stroke-width: 1.0;"/><text fill="#000080" font-family="sans-serif" font-size="14" lengthAdjust="spacingAndGlyphs" textLength="42" x="10" y="286.9082">©2019</text><a target="_top" xlink:actuate="onRequest" xlink:href="http://www.lifestylesunlimited.com" xlink:show="new" xlink:title="http://www.lifestylesunlimited.com" xlink:type="simple"><text fill="#0000FF" font-family="sans-serif" font-size="14" lengthAdjust="spacingAndGlyphs" text-decoration="underline" textLength="122" x="56" y="286.9082">LifeStyles Unlimited</text><line style="stroke: #0000FF; stroke-width: 1.0;" x1="56" x2="178" y1="288.9082" y2="288.9082"/></a><text fill="#000080" font-family="sans-serif" font-size="14" lengthAdjust="spacingAndGlyphs" textLength="281" x="182" y="286.9082">| Generated Mon Apr 22 08:26:01 CDT 2019</text><!--
@startuml selling


skinparam {
  BorderColor Red
  PathHoverColor Blue
}

skinparam Title {
  FontColor Navy
  BackgroundColor PaleGoldenRod
  BorderColor Navy
  BorderRoundCorner 20
}

skinparam activity {
  BackgroundColor Ivory
  BorderColor CornflowerBlue
  FontColor DimGray
  

  Arrow {
    Color dimgray
    FontColor dimgray
  }

  Start {
    Color PHYSICAL
  }

  End {
    Color Coral
  }

  Diamond {
    BackgroundColor Ivory
    BorderColor CornflowerBlue
    FontColor DarkGray
  }

  BackgroundColor<< Exception >> Red
	BorderColor<< Exception >> White
}

skinparam Swimlane {
  BorderColor CornflowerBlue 
}

skinparam Partition {
  BackgroundColor Ivory
  BorderColor CornflowerBlue
  BorderThickness 1
  FontColor CornflowerBlue
  FontSize 16
  BorderRoundCorner 20
}

skinparam Note {
  BackgroundColor LightSteelBlue
  BorderColor CornflowerBlue
  FontColor White
}

skinparam Legend {
  BackgroundColor LightSteelBlue
  BorderColor CornflowerBlue
  FontColor White
}

skinparam Footer {
  FontColor Navy
}


left header 
	<font color=Navy size=18>[[../index.svg ⌂ Home]]</font>
endheader


	Title Selling

	start

	if(selling to tenant)
		#PHYSICAL:<&dollar> realtor fee 0]
		note right: how?
	else
	endif

	

	end


left footer 
	<font size=14>©2019 [[http://www.lifestylesunlimited.com LifeStyles Unlimited]] | Generated Mon Apr 22 08:26:01 CDT 2019</font>
endfooter


@enduml

PlantUML version 1.2019.03(Sun Mar 10 06:04:44 CDT 2019)
(GPL source distribution)
Java Runtime: Java(TM) SE Runtime Environment
JVM: Java HotSpot(TM) 64-Bit Server VM
Java Version: 1.8.0_111-b14
Operating System: Windows 10
OS Version: 10.0
Default Encoding: Cp1252
Language: en
Country: US
--></g></svg>