<?xml version="1.0" encoding="UTF-8" standalone="no"?><svg xmlns="http://www.w3.org/2000/svg" xmlns:xlink="http://www.w3.org/1999/xlink" contentScriptType="application/ecmascript" contentStyleType="text/css" height="433px" preserveAspectRatio="none" style="width:436px;height:433px;" version="1.1" viewBox="0 0 436 433" width="436px" zoomAndPan="magnify"><defs><style type="text/css"><![CDATA[path:hover { stroke: #0000FF !important;}]]></style><filter height="300%" id="f1q5mk1ncc7sb1" width="300%" x="-1" y="-1"><feGaussianBlur result="blurOut" stdDeviation="2.0"/><feColorMatrix in="blurOut" result="blurOut2" type="matrix" values="0 0 0 0 0 0 0 0 0 0 0 0 0 0 0 0 0 0 .4 0"/><feOffset dx="4.0" dy="4.0" in="blurOut2" result="blurOut3"/><feBlend in="SourceGraphic" in2="blurOut3" mode="normal"/></filter></defs><g><a href="../index.svg?sanitize=true" target="_top" xlink:actuate="onRequest" xlink:show="new" xlink:title="../index.svg?sanitize=true" xlink:type="simple"><text fill="#0000FF" font-family="sans-serif" font-size="24" lengthAdjust="spacingAndGlyphs" text-decoration="underline" textLength="90" x="10" y="34.9141">⌂ Home</text></a><rect fill="#EEE8AA" height="40.1875" rx="10" ry="10" style="stroke: #000080; stroke-width: 1.5;" width="90" x="171.5" y="42.1875"/><text fill="#000080" font-family="sans-serif" font-size="24" lengthAdjust="spacingAndGlyphs" textLength="74" x="179.5" y="72.1016">Selling</text><ellipse cx="82" cy="95.375" fill="#CCFFCC" filter="url(#f1q5mk1ncc7sb1)" rx="10" ry="10" style="stroke: none; stroke-width: 1.0;"/><path d="M164,121.5703 L164,138.9219 L144,142.9219 L164,146.9219 L164,164.2734 A0,0 0 0 0 164,164.2734 L424,164.2734 A0,0 0 0 0 424,164.2734 L424,131.5703 L414,121.5703 L164,121.5703 A0,0 0 0 0 164,121.5703 " fill="#B0C4DE" filter="url(#f1q5mk1ncc7sb1)" style="stroke: #6495ED; stroke-width: 1.0;"/><path d="M414,121.5703 L414,131.5703 L424,131.5703 L414,121.5703 " fill="#B0C4DE" style="stroke: #6495ED; stroke-width: 1.0;"/><ellipse cx="175.5" cy="135.4219" fill="#FFFFFF" rx="2.5" ry="2.5" style="stroke: #FFFFFF; stroke-width: 0.0;"/><text fill="#FFFFFF" font-family="sans-serif" font-size="13" lengthAdjust="spacingAndGlyphs" textLength="226" x="183" y="140.0654">before maintainance becomes an issue</text><ellipse cx="175.5" cy="151.7734" fill="#FFFFFF" rx="2.5" ry="2.5" style="stroke: #FFFFFF; stroke-width: 0.0;"/><text fill="#FFFFFF" font-family="sans-serif" font-size="13" lengthAdjust="spacingAndGlyphs" textLength="181" x="183" y="156.417">long term capital gains are less</text><polygon fill="#FFFFF0" filter="url(#f1q5mk1ncc7sb1)" points="20,125.375,144,125.375,154,142.9219,144,160.4688,20,160.4688" style="stroke: #6495ED; stroke-width: 1.0;"/><path d="M35,139.4688 C32.797,139.4688 31,141.2658 31,143.4688 C31,145.6718 32.797,147.4688 35,147.4688 C37.203,147.4688 39,145.6718 39,143.4688 C39,141.2658 37.203,139.4688 35,139.4688 M35,140.4688 C36.663,140.4688 38,141.8058 38,143.4688 C38,145.1318 36.663,146.4688 35,146.4688 C33.337,146.4688 32,145.1318 32,143.4688 C32,141.8058 33.337,140.4688 35,140.4688 M34.5,141.4688 L34.5,143.6878 L34.656,143.8128 L35.156,144.3128 L35.5,144.6878 L36.219,143.9688 L35.844,143.6248 L35.5,143.2808 L35.5,141.4678 L34.5,141.4678 " fill="#696969" style="stroke: ; stroke-width: 0.0; stroke-dasharray: ;"/><text fill="#696969" font-family="sans-serif" font-size="12" lengthAdjust="spacingAndGlyphs" textLength="91" x="43" y="147.832">owned 1-3 years</text><path d="M151,232.6445 L151,241.8203 L131,245.8203 L151,249.8203 L151,258.9961 A0,0 0 0 0 151,258.9961 L202,258.9961 A0,0 0 0 0 202,258.9961 L202,242.6445 L192,232.6445 L151,232.6445 A0,0 0 0 0 151,232.6445 " fill="#B0C4DE" filter="url(#f1q5mk1ncc7sb1)" style="stroke: #6495ED; stroke-width: 1.0;"/><path d="M192,232.6445 L192,242.6445 L202,242.6445 L192,232.6445 " fill="#B0C4DE" style="stroke: #6495ED; stroke-width: 1.0;"/><text fill="#FFFFFF" font-family="sans-serif" font-size="13" lengthAdjust="spacingAndGlyphs" textLength="30" x="157" y="251.1396">how?</text><rect fill="#CCFFCC" filter="url(#f1q5mk1ncc7sb1)" height="35.0938" style="stroke: #6495ED; stroke-width: 1.0;" width="98" x="33" y="228.2734"/><path d="M47,242.3672 L47,243.3672 L46.25,243.3672 C45.564,243.3672 45,243.9312 45,244.6172 L45,245.1172 C45,245.7952 45.437,246.3592 46.094,246.5232 L48.657,247.1792 C48.8,247.2152 49.001,247.4752 49.001,247.6172 L49.001,248.1172 C49.001,248.2512 48.885,248.3672 48.751,248.3672 L46.251,248.3672 C46.135,248.3672 46.039,248.3302 46.001,248.3042 L46.001,247.3662 L45.001,247.3662 L45.001,248.3662 C45.001,248.7082 45.204,248.9932 45.439,249.1472 C45.673,249.3022 45.957,249.3662 46.252,249.3662 L47.002,249.3662 L47.002,250.3662 L48.002,250.3662 L48.002,249.3662 L48.752,249.3662 C49.438,249.3662 50.002,248.8022 50.002,248.1162 L50.002,247.6162 C50.002,246.9382 49.565,246.3742 48.908,246.2102 L46.345,245.5542 C46.202,245.5182 46.001,245.2582 46.001,245.1162 L46.001,244.6162 C46.001,244.4822 46.117,244.3662 46.251,244.3662 L48.751,244.3662 C48.867,244.3662 48.963,244.4032 49.001,244.4292 L49.001,245.3672 L50.001,245.3672 L50.001,244.3672 C50.001,244.0252 49.798,243.7402 49.563,243.5862 C49.329,243.4312 49.045,243.3672 48.75,243.3672 L48,243.3672 L48,242.3672 L47,242.3672 " fill="#696969" style="stroke: ; stroke-width: 0.0; stroke-dasharray: ;"/><text fill="#696969" font-family="sans-serif" font-size="12" lengthAdjust="spacingAndGlyphs" textLength="65" x="56" y="250.7305">realtor fee 0</text><polygon fill="#FFFFF0" filter="url(#f1q5mk1ncc7sb1)" points="44.5,184.2734,119.5,184.2734,131.5,196.2734,119.5,208.2734,44.5,208.2734,32.5,196.2734,44.5,184.2734" style="stroke: #6495ED; stroke-width: 1.0;"/><text fill="#A9A9A9" font-family="sans-serif" font-size="11" lengthAdjust="spacingAndGlyphs" textLength="75" x="44.5" y="200.7744">selling to tenant</text><polygon fill="#FFFFF0" filter="url(#f1q5mk1ncc7sb1)" points="82,283.3672,94,295.3672,82,307.3672,70,295.3672,82,283.3672" style="stroke: #6495ED; stroke-width: 1.0;"/><path d="M150,323.5625 L150,340.9141 L130,344.9141 L150,348.9141 L150,366.2656 A0,0 0 0 0 150,366.2656 L412,366.2656 A0,0 0 0 0 412,366.2656 L412,333.5625 L402,323.5625 L150,323.5625 A0,0 0 0 0 150,323.5625 " fill="#B0C4DE" filter="url(#f1q5mk1ncc7sb1)" style="stroke: #6495ED; stroke-width: 1.0;"/><path d="M402,323.5625 L402,333.5625 L412,333.5625 L402,323.5625 " fill="#B0C4DE" style="stroke: #6495ED; stroke-width: 1.0;"/><ellipse cx="161.5" cy="337.4141" fill="#FFFFFF" rx="2.5" ry="2.5" style="stroke: #FFFFFF; stroke-width: 0.0;"/><text fill="#FFFFFF" font-family="sans-serif" font-size="13" lengthAdjust="spacingAndGlyphs" textLength="189" x="169" y="342.0576">way faster than regular cash flow</text><ellipse cx="161.5" cy="353.7656" fill="#FFFFFF" rx="2.5" ry="2.5" style="stroke: #FFFFFF; stroke-width: 0.0;"/><text fill="#FFFFFF" font-family="sans-serif" font-size="13" lengthAdjust="spacingAndGlyphs" textLength="228" x="169" y="358.4092">only way to get into bigger / more deals</text><rect fill="#FFFFF0" filter="url(#f1q5mk1ncc7sb1)" height="35.0938" rx="12.5" ry="12.5" style="stroke: #6495ED; stroke-width: 1.0;" width="96" x="34" y="327.3672"/><text fill="#696969" font-family="sans-serif" font-size="12" lengthAdjust="spacingAndGlyphs" textLength="76" x="44" y="349.8242">equity capture</text><ellipse cx="82" cy="396.2656" fill="#FFFFFF" filter="url(#f1q5mk1ncc7sb1)" rx="10" ry="10" style="stroke: #FF7F50; stroke-width: 1.5;"/><line style="stroke: #FF7F50; stroke-width: 2.5;" x1="75.8128" x2="88.1872" y1="390.0784" y2="402.4528"/><line style="stroke: #FF7F50; stroke-width: 2.5;" x1="88.1872" x2="75.8128" y1="390.0784" y2="402.4528"/><line style="stroke: #696969; stroke-width: 1.5;" x1="82" x2="82" y1="105.375" y2="125.375"/><polygon fill="#696969" points="78,115.375,82,125.375,86,115.375,82,119.375" style="stroke: #696969; stroke-width: 1.0;"/><line style="stroke: #696969; stroke-width: 1.5;" x1="82" x2="82" y1="208.2734" y2="228.2734"/><polygon fill="#696969" points="78,218.2734,82,228.2734,86,218.2734,82,222.2734" style="stroke: #696969; stroke-width: 1.0;"/><line style="stroke: #696969; stroke-width: 1.5;" x1="131.5" x2="212" y1="196.2734" y2="196.2734"/><polygon fill="#696969" points="208,235.8203,212,245.8203,216,235.8203,212,239.8203" style="stroke: #696969; stroke-width: 1.5;"/><line style="stroke: #696969; stroke-width: 1.5;" x1="212" x2="212" y1="196.2734" y2="295.3672"/><line style="stroke: #696969; stroke-width: 1.5;" x1="212" x2="94" y1="295.3672" y2="295.3672"/><polygon fill="#696969" points="104,291.3672,94,295.3672,104,299.3672,100,295.3672" style="stroke: #696969; stroke-width: 1.0;"/><line style="stroke: #696969; stroke-width: 1.5;" x1="82" x2="82" y1="263.3672" y2="283.3672"/><polygon fill="#696969" points="78,273.3672,82,283.3672,86,273.3672,82,277.3672" style="stroke: #696969; stroke-width: 1.0;"/><line style="stroke: #696969; stroke-width: 1.5;" x1="82" x2="82" y1="160.4688" y2="184.2734"/><polygon fill="#696969" points="78,174.2734,82,184.2734,86,174.2734,82,178.2734" style="stroke: #696969; stroke-width: 1.0;"/><line style="stroke: #696969; stroke-width: 1.5;" x1="82" x2="82" y1="307.3672" y2="327.3672"/><polygon fill="#696969" points="78,317.3672,82,327.3672,86,317.3672,82,321.3672" style="stroke: #696969; stroke-width: 1.0;"/><line style="stroke: #696969; stroke-width: 1.5;" x1="82" x2="82" y1="362.4609" y2="386.2656"/><polygon fill="#696969" points="78,376.2656,82,386.2656,86,376.2656,82,380.2656" style="stroke: #696969; stroke-width: 1.0;"/><text fill="#000080" font-family="sans-serif" font-size="14" lengthAdjust="spacingAndGlyphs" textLength="42" x="10" y="419.7988">©2019</text><a href="http://www.lifestylesunlimited.com" target="_top" xlink:actuate="onRequest" xlink:show="new" xlink:title="http://www.lifestylesunlimited.com" xlink:type="simple"><text fill="#0000FF" font-family="sans-serif" font-size="14" lengthAdjust="spacingAndGlyphs" text-decoration="underline" textLength="122" x="56" y="419.7988">LifeStyles Unlimited</text></a><text fill="#000080" font-family="sans-serif" font-size="14" lengthAdjust="spacingAndGlyphs" textLength="131" x="182" y="419.7988">| Generated %date%</text><!--
@startuml selling


skinparam {
  BorderColor Red
  PathHoverColor Blue
}

skinparam Title {
  FontColor Navy
  BackgroundColor PaleGoldenRod
  BorderColor Navy
  BorderRoundCorner 20
  FontSize 24
}

skinparam activity {
  BackgroundColor Ivory
  BorderColor CornflowerBlue
  BorderThickness 1
  FontColor DimGray
  

  Arrow {
    Color dimgray
    FontColor dimgray
  }

  Start {
    Color PHYSICAL
  }

  End {
    Color Coral
  }

  Diamond {
    BackgroundColor Ivory
    BorderColor CornflowerBlue
    FontColor DarkGray
  }

  BackgroundColor<< Exception >> Red
	BorderColor<< Exception >> White
}

skinparam Swimlane {
  BorderColor CornflowerBlue 
}

skinparam Partition {
  BackgroundColor Ivory
  BorderColor CornflowerBlue
  BorderThickness 1
  FontColor CornflowerBlue
  FontSize 16
  BorderRoundCorner 20
}

skinparam Note {
  BackgroundColor LightSteelBlue
  BorderColor CornflowerBlue
  FontColor White
}

skinparam Legend {
  BackgroundColor LightSteelBlue
  BorderColor CornflowerBlue
  FontColor White
}

skinparam Footer {
  FontColor Navy
}


left header 
	<font color=Navy size=24>[[../index.svg?sanitize=true ⌂ Home]]</font>
endheader


	Title Selling

	start
	:<&clock> owned 1-3 years>
	note right
		* before maintainance becomes an issue
		* long term capital gains are less
	end note
	if(selling to tenant)
		#PHYSICAL:<&dollar> realtor fee 0]
		note right: how?
	else
	endif
	:equity capture;
	note right
		* way faster than regular cash flow
		* only way to get into bigger / more deals
	end note

	end


left footer 
	<font size=14>©2019 [[http://www.lifestylesunlimited.com LifeStyles Unlimited]] | Generated %date%</font>
endfooter


@enduml

PlantUML version 1.2019.06(Fri May 24 12:10:25 CDT 2019)
(GPL source distribution)
Java Runtime: Java(TM) SE Runtime Environment
JVM: Java HotSpot(TM) Client VM
Java Version: 1.8.0_211-b12
Operating System: Windows 10
OS Version: 10.0
Default Encoding: Cp1252
Language: en
Country: US
--></g></svg>