<?xml version="1.0" encoding="UTF-8" standalone="no"?><svg xmlns="http://www.w3.org/2000/svg" xmlns:xlink="http://www.w3.org/1999/xlink" contentScriptType="application/ecmascript" contentStyleType="text/css" height="1354px" preserveAspectRatio="none" style="width:605px;height:1354px;" version="1.1" viewBox="0 0 605 1354" width="605px" zoomAndPan="magnify"><defs><style type="text/css"><![CDATA[path:hover { stroke: #0000FF !important;}]]></style><filter height="300%" id="fggtokk3ui2m4" width="300%" x="-1" y="-1"><feGaussianBlur result="blurOut" stdDeviation="2.0"/><feColorMatrix in="blurOut" result="blurOut2" type="matrix" values="0 0 0 0 0 0 0 0 0 0 0 0 0 0 0 0 0 0 .4 0"/><feOffset dx="4.0" dy="4.0" in="blurOut2" result="blurOut3"/><feBlend in="SourceGraphic" in2="blurOut3" mode="normal"/></filter></defs><g><a target="_top" xlink:actuate="onRequest" xlink:href="../index.svg?sanitize=true" xlink:show="new" xlink:title="../index.svg?sanitize=true" xlink:type="simple"><text fill="#0000FF" font-family="sans-serif" font-size="24" lengthAdjust="spacingAndGlyphs" text-decoration="underline" textLength="90" x="10" y="34.9141">⌂ Home</text><line style="stroke: #0000FF; stroke-width: 1.0;" x1="10" x2="100" y1="36.9141" y2="36.9141"/></a><rect fill="#EEE8AA" height="40.1875" rx="10" ry="10" style="stroke: #000080; stroke-width: 1.5;" width="218" x="192" y="42.1875"/><text fill="#000080" font-family="sans-serif" font-size="24" lengthAdjust="spacingAndGlyphs" textLength="202" x="200" y="72.1016">Single Family Deal</text><ellipse cx="298.5" cy="95.375" fill="#CCFFCC" filter="url(#fggtokk3ui2m4)" rx="10" ry="10" style="stroke: none; stroke-width: 1.0;"/><a target="_top" xlink:actuate="onRequest" xlink:href="finding.svg?sanitize=true" xlink:show="new" xlink:title="finding.svg?sanitize=true" xlink:type="simple"><rect fill="#87CEFA" filter="url(#fggtokk3ui2m4)" height="35.0938" rx="12.5" ry="12.5" style="stroke: #6495ED; stroke-width: 1.0;" width="40" x="278.5" y="125.375"/><text fill="#696969" font-family="sans-serif" font-size="12" lengthAdjust="spacingAndGlyphs" textLength="20" x="288.5" y="147.832">find</text></a><rect fill="#FFFFF0" filter="url(#fggtokk3ui2m4)" height="35.0938" rx="12.5" ry="12.5" style="stroke: #6495ED; stroke-width: 1.0;" width="69" x="264" y="180.4688"/><text fill="#696969" font-family="sans-serif" font-size="12" lengthAdjust="spacingAndGlyphs" textLength="49" x="274" y="202.9258">compare</text><a target="_top" xlink:actuate="onRequest" xlink:href="evaluating.svg?sanitize=true" xlink:show="new" xlink:title="evaluating.svg?sanitize=true" xlink:type="simple"><rect fill="#87CEFA" filter="url(#fggtokk3ui2m4)" height="35.0938" rx="12.5" ry="12.5" style="stroke: #6495ED; stroke-width: 1.0;" width="63" x="267" y="235.5625"/><text fill="#696969" font-family="sans-serif" font-size="12" lengthAdjust="spacingAndGlyphs" textLength="43" x="277" y="258.0195">analyse</text></a><rect fill="#FFFFF0" filter="url(#fggtokk3ui2m4)" height="35.0938" rx="12.5" ry="12.5" style="stroke: #6495ED; stroke-width: 1.0;" width="41" x="278" y="290.6563"/><text fill="#696969" font-family="sans-serif" font-size="12" lengthAdjust="spacingAndGlyphs" textLength="21" x="288" y="313.1133">visit</text><a target="_top" xlink:actuate="onRequest" xlink:href="negotiating.svg?sanitize=true" xlink:show="new" xlink:title="negotiating.svg?sanitize=true" xlink:type="simple"><rect fill="#87CEFA" filter="url(#fggtokk3ui2m4)" height="35.0938" rx="12.5" ry="12.5" style="stroke: #6495ED; stroke-width: 1.0;" width="63" x="267" y="345.75"/><text fill="#696969" font-family="sans-serif" font-size="12" lengthAdjust="spacingAndGlyphs" textLength="43" x="277" y="368.207">contract</text></a><a target="_top" xlink:actuate="onRequest" xlink:href="due-diligence.svg?sanitize=true" xlink:show="new" xlink:title="due-diligence.svg?sanitize=true" xlink:type="simple"><rect fill="#87CEFA" filter="url(#fggtokk3ui2m4)" height="35.0938" rx="12.5" ry="12.5" style="stroke: #6495ED; stroke-width: 1.0;" width="60" x="268.5" y="400.8438"/><text fill="#696969" font-family="sans-serif" font-size="12" lengthAdjust="spacingAndGlyphs" textLength="40" x="278.5" y="423.3008">inspect</text></a><a target="_top" xlink:actuate="onRequest" xlink:href="closing.svg?sanitize=true" xlink:show="new" xlink:title="closing.svg?sanitize=true" xlink:type="simple"><rect fill="#87CEFA" filter="url(#fggtokk3ui2m4)" height="35.0938" rx="12.5" ry="12.5" style="stroke: #6495ED; stroke-width: 1.0;" width="50" x="273.5" y="455.9375"/><text fill="#696969" font-family="sans-serif" font-size="12" lengthAdjust="spacingAndGlyphs" textLength="30" x="283.5" y="478.3945">close</text></a><rect fill="#000000" filter="url(#fggtokk3ui2m4)" height="6" rx="2.5" ry="2.5" style="stroke: #000000; stroke-width: 1.0;" width="577" x="10" y="511.0313"/><rect fill="#000000" filter="url(#fggtokk3ui2m4)" height="6" rx="2.5" ry="2.5" style="stroke: #000000; stroke-width: 1.0;" width="426" x="24" y="581.0313"/><rect fill="#000000" filter="url(#fggtokk3ui2m4)" height="6" rx="2.5" ry="2.5" style="stroke: #000000; stroke-width: 1.0;" width="178" x="62.5" y="607.0313"/><a target="_top" xlink:actuate="onRequest" xlink:href="rehabbing.svg?sanitize=true" xlink:show="new" xlink:title="rehabbing.svg?sanitize=true" xlink:type="simple"><rect fill="#87CEFA" filter="url(#fggtokk3ui2m4)" height="35.0938" rx="12.5" ry="12.5" style="stroke: #6495ED; stroke-width: 1.0;" width="52" x="76.5" y="668.0781"/><text fill="#696969" font-family="sans-serif" font-size="12" lengthAdjust="spacingAndGlyphs" textLength="32" x="86.5" y="690.5352">rehab</text></a><a target="_top" xlink:actuate="onRequest" xlink:href="advertising.svg?sanitize=true" xlink:show="new" xlink:title="advertising.svg?sanitize=true" xlink:type="simple"><rect fill="#87CEFA" filter="url(#fggtokk3ui2m4)" height="35.0938" rx="12.5" ry="12.5" style="stroke: #6495ED; stroke-width: 1.0;" width="70" x="156.5" y="633.0313"/><text fill="#696969" font-family="sans-serif" font-size="12" lengthAdjust="spacingAndGlyphs" textLength="50" x="166.5" y="655.4883">advertise</text></a><a target="_top" xlink:actuate="onRequest" xlink:href="leasing.svg?sanitize=true" xlink:show="new" xlink:title="leasing.svg?sanitize=true" xlink:type="simple"><rect fill="#87CEFA" filter="url(#fggtokk3ui2m4)" height="35.0938" rx="12.5" ry="12.5" style="stroke: #6495ED; stroke-width: 1.0;" width="51" x="166" y="703.125"/><text fill="#696969" font-family="sans-serif" font-size="12" lengthAdjust="spacingAndGlyphs" textLength="31" x="176" y="725.582">lease</text></a><rect fill="#000000" filter="url(#fggtokk3ui2m4)" height="6" rx="2.5" ry="2.5" style="stroke: #000000; stroke-width: 1.0;" width="178" x="62.5" y="758.2188"/><rect fill="#000000" filter="url(#fggtokk3ui2m4)" height="6" rx="2.5" ry="2.5" style="stroke: #000000; stroke-width: 1.0;" width="227" x="38" y="806.4717"/><rect fill="#FFFFF0" filter="url(#fggtokk3ui2m4)" height="35.0938" rx="12.5" ry="12.5" style="stroke: #6495ED; stroke-width: 1.0;" width="68" x="52" y="946.4365"/><text fill="#696969" font-family="sans-serif" font-size="12" lengthAdjust="spacingAndGlyphs" textLength="48" x="62" y="968.8936">maintain</text><rect fill="#FFFFF0" filter="url(#fggtokk3ui2m4)" height="35.0938" rx="12.5" ry="12.5" style="stroke: #6495ED; stroke-width: 1.0;" width="79" x="148" y="904.4717"/><text fill="#696969" font-family="sans-serif" font-size="12" lengthAdjust="spacingAndGlyphs" textLength="59" x="158" y="926.9287">collect rent</text><polygon fill="#FFFFF0" filter="url(#fggtokk3ui2m4)" points="187.5,832.4717,199.5,844.4717,187.5,856.4717,175.5,844.4717,187.5,832.4717" style="stroke: #6495ED; stroke-width: 1.0;"/><polygon fill="#FFFFF0" filter="url(#fggtokk3ui2m4)" points="163.5,987.5654,211.5,987.5654,223.5,999.5654,211.5,1011.5654,163.5,1011.5654,151.5,999.5654,163.5,987.5654" style="stroke: #6495ED; stroke-width: 1.0;"/><text fill="#A9A9A9" font-family="sans-serif" font-size="11" lengthAdjust="spacingAndGlyphs" textLength="48" x="163.5" y="1004.0664">rent paid?</text><a target="_top" xlink:actuate="onRequest" xlink:href="evict.svg?sanitize=true" xlink:show="new" xlink:title="evict.svg?sanitize=true" xlink:type="simple"><rect fill="#87CEFA" filter="url(#fggtokk3ui2m4)" height="35.0938" rx="12.5" ry="12.5" style="stroke: #6495ED; stroke-width: 1.0;" width="44" x="165.5" y="1053.8184"/><text fill="#696969" font-family="sans-serif" font-size="12" lengthAdjust="spacingAndGlyphs" textLength="24" x="175.5" y="1076.2754">evict</text></a><rect fill="#000000" filter="url(#fggtokk3ui2m4)" height="6" rx="2.5" ry="2.5" style="stroke: #000000; stroke-width: 1.0;" width="227" x="38" y="1108.9121"/><polygon fill="#FFFFF0" filter="url(#fggtokk3ui2m4)" points="335.5,808.3779,393.5,808.3779,403.5,825.9248,393.5,843.4717,335.5,843.4717" style="stroke: #6495ED; stroke-width: 1.0;"/><text fill="#696969" font-family="sans-serif" font-size="12" lengthAdjust="spacingAndGlyphs" textLength="38" x="345.5" y="830.835">May 15</text><a target="_top" xlink:actuate="onRequest" xlink:href="protest-property-taxes.svg?sanitize=true" xlink:show="new" xlink:title="protest-property-taxes.svg?sanitize=true" xlink:type="simple"><rect fill="#87CEFA" filter="url(#fggtokk3ui2m4)" height="35.0938" rx="12.5" ry="12.5" style="stroke: #6495ED; stroke-width: 1.0;" width="143" x="293" y="878.4717"/><text fill="#696969" font-family="sans-serif" font-size="12" lengthAdjust="spacingAndGlyphs" textLength="123" x="303" y="900.9287">Protest Property Taxes</text></a><rect fill="#000000" filter="url(#fggtokk3ui2m4)" height="6" rx="2.5" ry="2.5" style="stroke: #000000; stroke-width: 1.0;" width="426" x="24" y="1134.9121"/><polygon fill="#FFFFF0" filter="url(#fggtokk3ui2m4)" points="237,537.0313,249,549.0313,237,561.0313,225,549.0313,237,537.0313" style="stroke: #6495ED; stroke-width: 1.0;"/><polygon fill="#FFFFF0" filter="url(#fggtokk3ui2m4)" points="222.5,1182.7471,251.5,1182.7471,263.5,1194.7471,251.5,1206.7471,222.5,1206.7471,210.5,1194.7471,222.5,1182.7471" style="stroke: #6495ED; stroke-width: 1.0;"/><text fill="#A9A9A9" font-family="sans-serif" font-size="11" lengthAdjust="spacingAndGlyphs" textLength="29" x="222.5" y="1199.248">keep?</text><polygon fill="#FFFFF0" filter="url(#fggtokk3ui2m4)" points="502,843.4248,573,843.4248,583,860.9717,573,878.5186,502,878.5186" style="stroke: #6495ED; stroke-width: 1.0;"/><text fill="#696969" font-family="sans-serif" font-size="12" lengthAdjust="spacingAndGlyphs" textLength="51" x="512" y="865.8818">1-3 years</text><rect fill="#000000" filter="url(#fggtokk3ui2m4)" height="6" rx="2.5" ry="2.5" style="stroke: #000000; stroke-width: 1.0;" width="577" x="10" y="1226.7471"/><a target="_top" xlink:actuate="onRequest" xlink:href="selling.svg?sanitize=true" xlink:show="new" xlink:title="selling.svg?sanitize=true" xlink:type="simple"><rect fill="#87CEFA" filter="url(#fggtokk3ui2m4)" height="35.0938" rx="12.5" ry="12.5" style="stroke: #6495ED; stroke-width: 1.0;" width="40" x="278.5" y="1252.7471"/><text fill="#696969" font-family="sans-serif" font-size="12" lengthAdjust="spacingAndGlyphs" textLength="20" x="288.5" y="1275.2041">sell</text></a><ellipse cx="298.5" cy="1317.8408" fill="#FFFFFF" filter="url(#fggtokk3ui2m4)" rx="10" ry="10" style="stroke: #FF7F50; stroke-width: 1.5;"/><line style="stroke: #FF7F50; stroke-width: 2.5;" x1="292.3128" x2="304.6872" y1="1311.6536" y2="1324.028"/><line style="stroke: #FF7F50; stroke-width: 2.5;" x1="304.6872" x2="292.3128" y1="1311.6536" y2="1324.028"/><line style="stroke: #696969; stroke-width: 1.5;" x1="298.5" x2="298.5" y1="105.375" y2="125.375"/><polygon fill="#696969" points="294.5,115.375,298.5,125.375,302.5,115.375,298.5,119.375" style="stroke: #696969; stroke-width: 1.0;"/><line style="stroke: #696969; stroke-width: 1.5;" x1="298.5" x2="298.5" y1="160.4688" y2="180.4688"/><polygon fill="#696969" points="294.5,170.4688,298.5,180.4688,302.5,170.4688,298.5,174.4688" style="stroke: #696969; stroke-width: 1.0;"/><line style="stroke: #696969; stroke-width: 1.5;" x1="298.5" x2="298.5" y1="215.5625" y2="235.5625"/><polygon fill="#696969" points="294.5,225.5625,298.5,235.5625,302.5,225.5625,298.5,229.5625" style="stroke: #696969; stroke-width: 1.0;"/><line style="stroke: #696969; stroke-width: 1.5;" x1="298.5" x2="298.5" y1="270.6563" y2="290.6563"/><polygon fill="#696969" points="294.5,280.6563,298.5,290.6563,302.5,280.6563,298.5,284.6563" style="stroke: #696969; stroke-width: 1.0;"/><line style="stroke: #696969; stroke-width: 1.5;" x1="298.5" x2="298.5" y1="325.75" y2="345.75"/><polygon fill="#696969" points="294.5,335.75,298.5,345.75,302.5,335.75,298.5,339.75" style="stroke: #696969; stroke-width: 1.0;"/><line style="stroke: #696969; stroke-width: 1.5;" x1="298.5" x2="298.5" y1="380.8438" y2="400.8438"/><polygon fill="#696969" points="294.5,390.8438,298.5,400.8438,302.5,390.8438,298.5,394.8438" style="stroke: #696969; stroke-width: 1.0;"/><line style="stroke: #696969; stroke-width: 1.5;" x1="298.5" x2="298.5" y1="435.9375" y2="455.9375"/><polygon fill="#696969" points="294.5,445.9375,298.5,455.9375,302.5,445.9375,298.5,449.9375" style="stroke: #696969; stroke-width: 1.0;"/><line style="stroke: #696969; stroke-width: 1.5;" x1="191.5" x2="191.5" y1="668.125" y2="703.125"/><polygon fill="#696969" points="187.5,693.125,191.5,703.125,195.5,693.125,191.5,697.125" style="stroke: #696969; stroke-width: 1.0;"/><line style="stroke: #696969; stroke-width: 1.5;" x1="102.5" x2="102.5" y1="613.0313" y2="668.0781"/><polygon fill="#696969" points="98.5,658.0781,102.5,668.0781,106.5,658.0781,102.5,662.0781" style="stroke: #696969; stroke-width: 1.0;"/><line style="stroke: #696969; stroke-width: 1.5;" x1="191.5" x2="191.5" y1="613.0313" y2="633.0313"/><polygon fill="#696969" points="187.5,623.0313,191.5,633.0313,195.5,623.0313,191.5,627.0313" style="stroke: #696969; stroke-width: 1.0;"/><line style="stroke: #696969; stroke-width: 1.5;" x1="102.5" x2="102.5" y1="703.1719" y2="758.2188"/><polygon fill="#696969" points="98.5,748.2188,102.5,758.2188,106.5,748.2188,102.5,752.2188" style="stroke: #696969; stroke-width: 1.0;"/><line style="stroke: #696969; stroke-width: 1.5;" x1="191.5" x2="191.5" y1="738.2188" y2="758.2188"/><polygon fill="#696969" points="187.5,748.2188,191.5,758.2188,195.5,748.2188,191.5,752.2188" style="stroke: #696969; stroke-width: 1.0;"/><line style="stroke: #696969; stroke-width: 1.5;" x1="187.5" x2="187.5" y1="856.4717" y2="904.4717"/><polygon fill="#696969" points="183.5,894.4717,187.5,904.4717,191.5,894.4717,187.5,898.4717" style="stroke: #696969; stroke-width: 1.0;"/><path d="M194.3333,869.887 L194.3333,870.8037 L195.25,870.8037 L195.25,870.8321 C193.6944,871.053 192.5,872.3969 192.5,874.012 C192.5,875.7803 193.9401,877.2204 195.7083,877.2204 C197.4766,877.2204 198.9167,875.7803 198.9167,874.012 C198.9167,873.5995 198.8378,873.2109 198.7159,872.8662 L197.8561,873.1815 C197.9542,873.4602 197.9991,873.7279 197.9991,874.012 C197.9991,875.2871 196.9825,876.3037 195.7074,876.3037 C194.4323,876.3037 193.4158,875.2871 193.4158,874.012 C193.4158,872.737 194.4323,871.7204 195.7074,871.7204 C195.9806,871.7204 196.2437,871.7671 196.5095,871.8634 L196.8248,871.0035 C196.6223,870.9293 196.3931,870.8945 196.1658,870.8605 L196.1658,870.8028 L197.0824,870.8028 L197.0824,869.8861 L194.3324,869.8861 M198.9158,870.9174 C195.547,873.484 195.547,873.484 195.3637,873.6674 C195.1803,873.8507 195.1803,874.1431 195.3637,874.3265 C195.547,874.5098 195.8394,874.5098 196.0228,874.3265 C196.2061,874.1523 198.9158,870.9174 198.9158,870.9174 " fill="#696969" style="stroke: ; stroke-width: 0.0; stroke-dasharray: ;"/><text fill="#696969" font-family="sans-serif" font-size="11" lengthAdjust="spacingAndGlyphs" textLength="40" x="191.5" y="888.6393">rent due</text><line style="stroke: #696969; stroke-width: 1.5;" x1="223.5" x2="239" y1="999.5654" y2="999.5654"/><polygon fill="#696969" points="235,932.0186,239,922.0186,243,932.0186,239,928.0186" style="stroke: #696969; stroke-width: 1.5;"/><line style="stroke: #696969; stroke-width: 1.5;" x1="239" x2="239" y1="844.4717" y2="999.5654"/><line style="stroke: #696969; stroke-width: 1.5;" x1="239" x2="199.5" y1="844.4717" y2="844.4717"/><polygon fill="#696969" points="209.5,840.4717,199.5,844.4717,209.5,848.4717,205.5,844.4717" style="stroke: #696969; stroke-width: 1.0;"/><text fill="#696969" font-family="sans-serif" font-size="11" lengthAdjust="spacingAndGlyphs" textLength="18" x="243" y="1004.0664">yes</text><line style="stroke: #696969; stroke-width: 1.5;" x1="187.5" x2="187.5" y1="939.5654" y2="987.5654"/><polygon fill="#696969" points="183.5,977.5654,187.5,987.5654,191.5,977.5654,187.5,981.5654" style="stroke: #696969; stroke-width: 1.0;"/><line style="stroke: #696969; stroke-width: 1.5;" x1="187.5" x2="187.5" y1="1011.5654" y2="1053.8184"/><polygon fill="#696969" points="183.5,1043.8184,187.5,1053.8184,191.5,1043.8184,187.5,1047.8184" style="stroke: #696969; stroke-width: 1.0;"/><text fill="#696969" font-family="sans-serif" font-size="11" lengthAdjust="spacingAndGlyphs" textLength="12" x="191.5" y="1033.9014">no</text><line style="stroke: #696969; stroke-width: 1.5;" x1="86" x2="86" y1="812.4717" y2="946.4365"/><polygon fill="#696969" points="82,936.4365,86,946.4365,90,936.4365,86,940.4365" style="stroke: #696969; stroke-width: 1.0;"/><line style="stroke: #696969; stroke-width: 1.5;" x1="187.5" x2="187.5" y1="812.4717" y2="832.4717"/><polygon fill="#696969" points="183.5,822.4717,187.5,832.4717,191.5,822.4717,187.5,826.4717" style="stroke: #696969; stroke-width: 1.0;"/><line style="stroke: #696969; stroke-width: 1.5;" x1="86" x2="86" y1="981.5303" y2="1108.9121"/><polygon fill="#696969" points="82,1098.9121,86,1108.9121,90,1098.9121,86,1102.9121" style="stroke: #696969; stroke-width: 1.0;"/><line style="stroke: #696969; stroke-width: 1.5;" x1="187.5" x2="187.5" y1="1088.9121" y2="1108.9121"/><polygon fill="#696969" points="183.5,1098.9121,187.5,1108.9121,191.5,1098.9121,187.5,1102.9121" style="stroke: #696969; stroke-width: 1.0;"/><line style="stroke: #696969; stroke-width: 1.5;" x1="151.5" x2="151.5" y1="764.2188" y2="806.4717"/><polygon fill="#696969" points="147.5,796.4717,151.5,806.4717,155.5,796.4717,151.5,800.4717" style="stroke: #696969; stroke-width: 1.0;"/><text fill="#696969" font-family="sans-serif" font-size="11" lengthAdjust="spacingAndGlyphs" textLength="37" x="155.5" y="786.5547">move in</text><line style="stroke: #696969; stroke-width: 1.5;" x1="364.5" x2="364.5" y1="843.4717" y2="878.4717"/><polygon fill="#696969" points="360.5,868.4717,364.5,878.4717,368.5,868.4717,364.5,872.4717" style="stroke: #696969; stroke-width: 1.0;"/><line style="stroke: #696969; stroke-width: 1.5;" x1="151.5" x2="151.5" y1="587.0313" y2="607.0313"/><polygon fill="#696969" points="147.5,597.0313,151.5,607.0313,155.5,597.0313,151.5,601.0313" style="stroke: #696969; stroke-width: 1.0;"/><line style="stroke: #696969; stroke-width: 1.5;" x1="364.5" x2="364.5" y1="587.0313" y2="808.3779"/><polygon fill="#696969" points="360.5,798.3779,364.5,808.3779,368.5,798.3779,364.5,802.3779" style="stroke: #696969; stroke-width: 1.0;"/><line style="stroke: #696969; stroke-width: 1.5;" x1="151.5" x2="151.5" y1="1114.9121" y2="1134.9121"/><polygon fill="#696969" points="147.5,1124.9121,151.5,1134.9121,155.5,1124.9121,151.5,1128.9121" style="stroke: #696969; stroke-width: 1.0;"/><line style="stroke: #696969; stroke-width: 1.5;" x1="364.5" x2="364.5" y1="913.5654" y2="1134.9121"/><polygon fill="#696969" points="360.5,1124.9121,364.5,1134.9121,368.5,1124.9121,364.5,1128.9121" style="stroke: #696969; stroke-width: 1.0;"/><line style="stroke: #696969; stroke-width: 1.5;" x1="237" x2="237" y1="561.0313" y2="581.0313"/><polygon fill="#696969" points="233,571.0313,237,581.0313,241,571.0313,237,575.0313" style="stroke: #696969; stroke-width: 1.0;"/><line style="stroke: #696969; stroke-width: 1.5;" x1="263.5" x2="462" y1="1194.7471" y2="1194.7471"/><polygon fill="#696969" points="458,870.9717,462,860.9717,466,870.9717,462,866.9717" style="stroke: #696969; stroke-width: 1.5;"/><line style="stroke: #696969; stroke-width: 1.5;" x1="462" x2="462" y1="549.0313" y2="1194.7471"/><line style="stroke: #696969; stroke-width: 1.5;" x1="462" x2="249" y1="549.0313" y2="549.0313"/><polygon fill="#696969" points="259,545.0313,249,549.0313,259,553.0313,255,549.0313" style="stroke: #696969; stroke-width: 1.0;"/><text fill="#696969" font-family="sans-serif" font-size="11" lengthAdjust="spacingAndGlyphs" textLength="18" x="466" y="1199.248">yes</text><line style="stroke: #696969; stroke-width: 1.5;" x1="237" x2="237" y1="1140.9121" y2="1182.7471"/><polygon fill="#696969" points="233,1172.7471,237,1182.7471,241,1172.7471,237,1176.7471" style="stroke: #696969; stroke-width: 1.0;"/><text fill="#696969" font-family="sans-serif" font-size="11" lengthAdjust="spacingAndGlyphs" textLength="44" x="241" y="1163.248">move out</text><line style="stroke: #696969; stroke-width: 1.5;" x1="237" x2="237" y1="517.0313" y2="537.0313"/><polygon fill="#696969" points="233,527.0313,237,537.0313,241,527.0313,237,531.0313" style="stroke: #696969; stroke-width: 1.0;"/><line style="stroke: #696969; stroke-width: 1.5;" x1="537.5" x2="537.5" y1="517.0313" y2="843.4248"/><polygon fill="#696969" points="533.5,833.4248,537.5,843.4248,541.5,833.4248,537.5,837.4248" style="stroke: #696969; stroke-width: 1.0;"/><line style="stroke: #696969; stroke-width: 1.5;" x1="237" x2="237" y1="1206.7471" y2="1226.7471"/><polygon fill="#696969" points="233,1216.7471,237,1226.7471,241,1216.7471,237,1220.7471" style="stroke: #696969; stroke-width: 1.0;"/><text fill="#696969" font-family="sans-serif" font-size="11" lengthAdjust="spacingAndGlyphs" textLength="12" x="241" y="1221.248">no</text><line style="stroke: #696969; stroke-width: 1.5;" x1="537.5" x2="537.5" y1="878.5186" y2="1226.7471"/><polygon fill="#696969" points="533.5,1216.7471,537.5,1226.7471,541.5,1216.7471,537.5,1220.7471" style="stroke: #696969; stroke-width: 1.0;"/><line style="stroke: #696969; stroke-width: 1.5;" x1="298.5" x2="298.5" y1="491.0313" y2="511.0313"/><polygon fill="#696969" points="294.5,501.0313,298.5,511.0313,302.5,501.0313,298.5,505.0313" style="stroke: #696969; stroke-width: 1.0;"/><line style="stroke: #696969; stroke-width: 1.5;" x1="298.5" x2="298.5" y1="1232.7471" y2="1252.7471"/><polygon fill="#696969" points="294.5,1242.7471,298.5,1252.7471,302.5,1242.7471,298.5,1246.7471" style="stroke: #696969; stroke-width: 1.0;"/><line style="stroke: #696969; stroke-width: 1.5;" x1="298.5" x2="298.5" y1="1287.8408" y2="1307.8408"/><polygon fill="#696969" points="294.5,1297.8408,298.5,1307.8408,302.5,1297.8408,298.5,1301.8408" style="stroke: #696969; stroke-width: 1.0;"/><text fill="#000080" font-family="sans-serif" font-size="14" lengthAdjust="spacingAndGlyphs" textLength="42" x="10" y="1341.374">©2019</text><a target="_top" xlink:actuate="onRequest" xlink:href="http://www.lifestylesunlimited.com" xlink:show="new" xlink:title="http://www.lifestylesunlimited.com" xlink:type="simple"><text fill="#0000FF" font-family="sans-serif" font-size="14" lengthAdjust="spacingAndGlyphs" text-decoration="underline" textLength="122" x="56" y="1341.374">LifeStyles Unlimited</text><line style="stroke: #0000FF; stroke-width: 1.0;" x1="56" x2="178" y1="1343.374" y2="1343.374"/></a><text fill="#000080" font-family="sans-serif" font-size="14" lengthAdjust="spacingAndGlyphs" textLength="279" x="182" y="1341.374">| Generated Sun Apr 28 21:14:10 CDT 2019</text><!--
@startuml single-family-deal


skinparam {
  BorderColor Red
  PathHoverColor Blue
}

skinparam Title {
  FontColor Navy
  BackgroundColor PaleGoldenRod
  BorderColor Navy
  BorderRoundCorner 20
  FontSize 24
}

skinparam activity {
  BackgroundColor Ivory
  BorderColor CornflowerBlue
  BorderThickness 1
  FontColor DimGray
  

  Arrow {
    Color dimgray
    FontColor dimgray
  }

  Start {
    Color PHYSICAL
  }

  End {
    Color Coral
  }

  Diamond {
    BackgroundColor Ivory
    BorderColor CornflowerBlue
    FontColor DarkGray
  }

  BackgroundColor<< Exception >> Red
	BorderColor<< Exception >> White
}

skinparam Swimlane {
  BorderColor CornflowerBlue 
}

skinparam Partition {
  BackgroundColor Ivory
  BorderColor CornflowerBlue
  BorderThickness 1
  FontColor CornflowerBlue
  FontSize 16
  BorderRoundCorner 20
}

skinparam Note {
  BackgroundColor LightSteelBlue
  BorderColor CornflowerBlue
  FontColor White
}

skinparam Legend {
  BackgroundColor LightSteelBlue
  BorderColor CornflowerBlue
  FontColor White
}

skinparam Footer {
  FontColor Navy
}


left header 
	<font color=Navy size=24>[[../index.svg?sanitize=true ⌂ Home]]</font>
endheader


	Title Single Family Deal

	start

	[[finding.svg?sanitize=true]]#LightSkyBlue:find;
	:compare;
	[[evaluating.svg?sanitize=true]]#LightSkyBlue:analyse;
	:visit;
	[[negotiating.svg?sanitize=true]]#LightSkyBlue:contract;
	[[due-diligence.svg?sanitize=true]]#LightSkyBlue:inspect;
	[[closing.svg?sanitize=true]]#LightSkyBlue:close;
	fork
		repeat
			fork
				fork
					[[rehabbing.svg?sanitize=true]]#LightSkyBlue:rehab;
				fork again
					[[advertising.svg?sanitize=true]]#LightSkyBlue:advertise;
					[[leasing.svg?sanitize=true]]#LightSkyBlue:lease;
				end fork
				-> move in;
				fork
					:maintain;
				fork again
					repeat
						-><&timer>\nrent due;
						:collect rent;
					repeat while(rent paid?)->yes
					->no;
					[[evict.svg?sanitize=true]]#LightSkyBlue:evict;
				end fork
			fork again
				:May 15>
				[[protest-property-taxes.svg?sanitize=true]]#LightSkyBlue:Protest Property Taxes;
			end fork

				-> move out;
			repeat while(keep?)->yes
			->no;
	fork again
		:1-3 years>
	end fork
	[[selling.svg?sanitize=true]]#LightSkyBlue:sell;
	end


left footer 
	<font size=14>©2019 [[http://www.lifestylesunlimited.com LifeStyles Unlimited]] | Generated Sun Apr 28 21:14:10 CDT 2019</font>
endfooter


@enduml

PlantUML version 1.2019.03(Sun Mar 10 06:04:44 CDT 2019)
(GPL source distribution)
Java Runtime: Java(TM) SE Runtime Environment
JVM: Java HotSpot(TM) 64-Bit Server VM
Java Version: 1.8.0_111-b14
Operating System: Windows 10
OS Version: 10.0
Default Encoding: Cp1252
Language: en
Country: US
--></g></svg>