<?xml version="1.0" encoding="UTF-8" standalone="no"?><svg xmlns="http://www.w3.org/2000/svg" xmlns:xlink="http://www.w3.org/1999/xlink" contentScriptType="application/ecmascript" contentStyleType="text/css" height="1439px" preserveAspectRatio="none" style="width:645px;height:1439px;" version="1.1" viewBox="0 0 645 1439" width="645px" zoomAndPan="magnify"><defs><style type="text/css"><![CDATA[path:hover { stroke: #0000FF !important;}]]></style><filter height="300%" id="fuzuuqgggz16m" width="300%" x="-1" y="-1"><feGaussianBlur result="blurOut" stdDeviation="2.0"/><feColorMatrix in="blurOut" result="blurOut2" type="matrix" values="0 0 0 0 0 0 0 0 0 0 0 0 0 0 0 0 0 0 .4 0"/><feOffset dx="4.0" dy="4.0" in="blurOut2" result="blurOut3"/><feBlend in="SourceGraphic" in2="blurOut3" mode="normal"/></filter></defs><g><a target="_top" xlink:actuate="onRequest" xlink:href="../index.svg?sanitize=true" xlink:show="new" xlink:title="../index.svg?sanitize=true" xlink:type="simple"><text fill="#0000FF" font-family="sans-serif" font-size="24" lengthAdjust="spacingAndGlyphs" text-decoration="underline" textLength="90" x="10" y="34.9141">⌂ Home</text><line style="stroke: #0000FF; stroke-width: 1.0;" x1="10" x2="100" y1="36.9141" y2="36.9141"/></a><rect fill="#EEE8AA" height="40.1875" rx="10" ry="10" style="stroke: #000080; stroke-width: 1.5;" width="218" x="212" y="42.1875"/><text fill="#000080" font-family="sans-serif" font-size="24" lengthAdjust="spacingAndGlyphs" textLength="202" x="220" y="72.1016">Single Family Deal</text><ellipse cx="318.5" cy="95.375" fill="#CCFFCC" filter="url(#fuzuuqgggz16m)" rx="10" ry="10" style="stroke: none; stroke-width: 1.0;"/><a target="_top" xlink:actuate="onRequest" xlink:href="../unlimited-lifestyle/insuring.svg?sanitize=true" xlink:show="new" xlink:title="../unlimited-lifestyle/insuring.svg?sanitize=true" xlink:type="simple"><rect fill="#87CEFA" filter="url(#fuzuuqgggz16m)" height="35.0938" rx="12.5" ry="12.5" style="stroke: #6495ED; stroke-width: 1.0;" width="55" x="291" y="125.375"/><text fill="#696969" font-family="sans-serif" font-size="12" lengthAdjust="spacingAndGlyphs" textLength="35" x="301" y="147.832">insure</text></a><a target="_top" xlink:actuate="onRequest" xlink:href="finding.svg?sanitize=true" xlink:show="new" xlink:title="finding.svg?sanitize=true" xlink:type="simple"><rect fill="#87CEFA" filter="url(#fuzuuqgggz16m)" height="35.0938" rx="12.5" ry="12.5" style="stroke: #6495ED; stroke-width: 1.0;" width="40" x="298.5" y="180.4688"/><text fill="#696969" font-family="sans-serif" font-size="12" lengthAdjust="spacingAndGlyphs" textLength="20" x="308.5" y="202.9258">find</text></a><rect fill="#FFFFF0" filter="url(#fuzuuqgggz16m)" height="35.0938" rx="12.5" ry="12.5" style="stroke: #6495ED; stroke-width: 1.0;" width="69" x="284" y="235.5625"/><text fill="#696969" font-family="sans-serif" font-size="12" lengthAdjust="spacingAndGlyphs" textLength="49" x="294" y="258.0195">compare</text><a target="_top" xlink:actuate="onRequest" xlink:href="evaluating.svg?sanitize=true" xlink:show="new" xlink:title="evaluating.svg?sanitize=true" xlink:type="simple"><rect fill="#87CEFA" filter="url(#fuzuuqgggz16m)" height="35.0938" rx="12.5" ry="12.5" style="stroke: #6495ED; stroke-width: 1.0;" width="63" x="287" y="290.6563"/><text fill="#696969" font-family="sans-serif" font-size="12" lengthAdjust="spacingAndGlyphs" textLength="43" x="297" y="313.1133">analyse</text></a><rect fill="#FFFFF0" filter="url(#fuzuuqgggz16m)" height="35.0938" rx="12.5" ry="12.5" style="stroke: #6495ED; stroke-width: 1.0;" width="41" x="298" y="345.75"/><text fill="#696969" font-family="sans-serif" font-size="12" lengthAdjust="spacingAndGlyphs" textLength="21" x="308" y="368.207">visit</text><a target="_top" xlink:actuate="onRequest" xlink:href="negotiating.svg?sanitize=true" xlink:show="new" xlink:title="negotiating.svg?sanitize=true" xlink:type="simple"><rect fill="#87CEFA" filter="url(#fuzuuqgggz16m)" height="35.0938" rx="12.5" ry="12.5" style="stroke: #6495ED; stroke-width: 1.0;" width="63" x="287" y="400.8438"/><text fill="#696969" font-family="sans-serif" font-size="12" lengthAdjust="spacingAndGlyphs" textLength="43" x="297" y="423.3008">contract</text></a><a target="_top" xlink:actuate="onRequest" xlink:href="due-diligence.svg?sanitize=true" xlink:show="new" xlink:title="due-diligence.svg?sanitize=true" xlink:type="simple"><rect fill="#87CEFA" filter="url(#fuzuuqgggz16m)" height="35.0938" rx="12.5" ry="12.5" style="stroke: #6495ED; stroke-width: 1.0;" width="60" x="288.5" y="455.9375"/><text fill="#696969" font-family="sans-serif" font-size="12" lengthAdjust="spacingAndGlyphs" textLength="40" x="298.5" y="478.3945">inspect</text></a><a target="_top" xlink:actuate="onRequest" xlink:href="closing.svg?sanitize=true" xlink:show="new" xlink:title="closing.svg?sanitize=true" xlink:type="simple"><rect fill="#87CEFA" filter="url(#fuzuuqgggz16m)" height="35.0938" rx="12.5" ry="12.5" style="stroke: #6495ED; stroke-width: 1.0;" width="50" x="293.5" y="511.0313"/><text fill="#696969" font-family="sans-serif" font-size="12" lengthAdjust="spacingAndGlyphs" textLength="30" x="303.5" y="533.4883">close</text></a><rect fill="#000000" filter="url(#fuzuuqgggz16m)" height="6" rx="2.5" ry="2.5" style="stroke: #000000; stroke-width: 1.0;" width="617" x="10" y="566.125"/><rect fill="#000000" filter="url(#fuzuuqgggz16m)" height="6" rx="2.5" ry="2.5" style="stroke: #000000; stroke-width: 1.0;" width="466" x="24" y="636.125"/><rect fill="#000000" filter="url(#fuzuuqgggz16m)" height="6" rx="2.5" ry="2.5" style="stroke: #000000; stroke-width: 1.0;" width="178" x="85.5" y="662.125"/><a target="_top" xlink:actuate="onRequest" xlink:href="rehabbing.svg?sanitize=true" xlink:show="new" xlink:title="rehabbing.svg?sanitize=true" xlink:type="simple"><rect fill="#87CEFA" filter="url(#fuzuuqgggz16m)" height="35.0938" rx="12.5" ry="12.5" style="stroke: #6495ED; stroke-width: 1.0;" width="52" x="99.5" y="723.1719"/><text fill="#696969" font-family="sans-serif" font-size="12" lengthAdjust="spacingAndGlyphs" textLength="32" x="109.5" y="745.6289">rehab</text></a><a target="_top" xlink:actuate="onRequest" xlink:href="advertising.svg?sanitize=true" xlink:show="new" xlink:title="advertising.svg?sanitize=true" xlink:type="simple"><rect fill="#87CEFA" filter="url(#fuzuuqgggz16m)" height="35.0938" rx="12.5" ry="12.5" style="stroke: #6495ED; stroke-width: 1.0;" width="70" x="179.5" y="688.125"/><text fill="#696969" font-family="sans-serif" font-size="12" lengthAdjust="spacingAndGlyphs" textLength="50" x="189.5" y="710.582">advertise</text></a><a target="_top" xlink:actuate="onRequest" xlink:href="leasing.svg?sanitize=true" xlink:show="new" xlink:title="leasing.svg?sanitize=true" xlink:type="simple"><rect fill="#87CEFA" filter="url(#fuzuuqgggz16m)" height="35.0938" rx="12.5" ry="12.5" style="stroke: #6495ED; stroke-width: 1.0;" width="51" x="189" y="758.2188"/><text fill="#696969" font-family="sans-serif" font-size="12" lengthAdjust="spacingAndGlyphs" textLength="31" x="199" y="780.6758">lease</text></a><rect fill="#000000" filter="url(#fuzuuqgggz16m)" height="6" rx="2.5" ry="2.5" style="stroke: #000000; stroke-width: 1.0;" width="178" x="85.5" y="813.3125"/><rect fill="#000000" filter="url(#fuzuuqgggz16m)" height="6" rx="2.5" ry="2.5" style="stroke: #000000; stroke-width: 1.0;" width="273" x="38" y="861.5654"/><rect fill="#FFFFF0" filter="url(#fuzuuqgggz16m)" height="35.0938" rx="12.5" ry="12.5" style="stroke: #6495ED; stroke-width: 1.0;" width="68" x="52" y="1016.624"/><text fill="#696969" font-family="sans-serif" font-size="12" lengthAdjust="spacingAndGlyphs" textLength="48" x="62" y="1039.0811">maintain</text><rect fill="#CCFFCC" filter="url(#fuzuuqgggz16m)" height="65.2813" style="stroke: #6495ED; stroke-width: 1.0;" width="125" x="148" y="959.5654"/><path d="M162,973.6592 L162,974.6592 L161.25,974.6592 C160.564,974.6592 160,975.2232 160,975.9092 L160,976.4092 C160,977.0872 160.437,977.6512 161.094,977.8152 L163.657,978.4712 C163.8,978.5072 164.001,978.7672 164.001,978.9092 L164.001,979.4092 C164.001,979.5432 163.885,979.6592 163.751,979.6592 L161.251,979.6592 C161.135,979.6592 161.039,979.6222 161.001,979.5962 L161.001,978.6582 L160.001,978.6582 L160.001,979.6582 C160.001,980.0002 160.204,980.2852 160.439,980.4392 C160.673,980.5942 160.957,980.6582 161.252,980.6582 L162.002,980.6582 L162.002,981.6582 L163.002,981.6582 L163.002,980.6582 L163.752,980.6582 C164.438,980.6582 165.002,980.0942 165.002,979.4082 L165.002,978.9082 C165.002,978.2302 164.565,977.6662 163.908,977.5022 L161.345,976.8462 C161.202,976.8102 161.001,976.5502 161.001,976.4082 L161.001,975.9082 C161.001,975.7742 161.117,975.6582 161.251,975.6582 L163.751,975.6582 C163.867,975.6582 163.963,975.6952 164.001,975.7212 L164.001,976.6592 L165.001,976.6592 L165.001,975.6592 C165.001,975.3172 164.798,975.0322 164.563,974.8782 C164.329,974.7232 164.045,974.6592 163.75,974.6592 L163,974.6592 L163,973.6592 L162,973.6592 " fill="#696969" style="stroke: ; stroke-width: 0.0; stroke-dasharray: ;"/><text fill="#696969" font-family="sans-serif" font-size="12" lengthAdjust="spacingAndGlyphs" textLength="21" x="171" y="982.0225">rent</text><text fill="#696969" font-family="sans-serif" font-size="12" font-style="italic" lengthAdjust="spacingAndGlyphs" textLength="102" x="158" y="997.1162">principal pay down</text><text fill="#696969" font-family="sans-serif" font-size="12" font-style="italic" lengthAdjust="spacingAndGlyphs" textLength="81" x="158" y="1012.21">build up equity</text><polygon fill="#FFFFF0" filter="url(#fuzuuqgggz16m)" points="210.5,887.5654,222.5,899.5654,210.5,911.5654,198.5,899.5654,210.5,887.5654" style="stroke: #6495ED; stroke-width: 1.0;"/><polygon fill="#FFFFF0" filter="url(#fuzuuqgggz16m)" points="186.5,1071.7178,234.5,1071.7178,246.5,1083.7178,234.5,1095.7178,186.5,1095.7178,174.5,1083.7178,186.5,1071.7178" style="stroke: #6495ED; stroke-width: 1.0;"/><text fill="#A9A9A9" font-family="sans-serif" font-size="11" lengthAdjust="spacingAndGlyphs" textLength="48" x="186.5" y="1088.2188">rent paid?</text><a target="_top" xlink:actuate="onRequest" xlink:href="evicting.svg?sanitize=true" xlink:show="new" xlink:title="evicting.svg?sanitize=true" xlink:type="simple"><rect fill="#87CEFA" filter="url(#fuzuuqgggz16m)" height="35.0938" rx="12.5" ry="12.5" style="stroke: #6495ED; stroke-width: 1.0;" width="44" x="188.5" y="1137.9707"/><text fill="#696969" font-family="sans-serif" font-size="12" lengthAdjust="spacingAndGlyphs" textLength="24" x="198.5" y="1160.4277">evict</text></a><rect fill="#000000" filter="url(#fuzuuqgggz16m)" height="6" rx="2.5" ry="2.5" style="stroke: #000000; stroke-width: 1.0;" width="273" x="38" y="1193.0645"/><polygon fill="#FFFFF0" filter="url(#fuzuuqgggz16m)" points="378.5,878.5654,436.5,878.5654,446.5,896.1123,436.5,913.6592,378.5,913.6592" style="stroke: #6495ED; stroke-width: 1.0;"/><text fill="#696969" font-family="sans-serif" font-size="12" lengthAdjust="spacingAndGlyphs" textLength="38" x="388.5" y="901.0225">May 15</text><a target="_top" xlink:actuate="onRequest" xlink:href="protest-property-taxes.svg?sanitize=true" xlink:show="new" xlink:title="protest-property-taxes.svg?sanitize=true" xlink:type="simple"><rect fill="#87CEFA" filter="url(#fuzuuqgggz16m)" height="35.0938" rx="12.5" ry="12.5" style="stroke: #6495ED; stroke-width: 1.0;" width="137" x="339" y="948.6592"/><text fill="#696969" font-family="sans-serif" font-size="12" lengthAdjust="spacingAndGlyphs" textLength="117" x="349" y="971.1162">protest property taxes</text></a><rect fill="#000000" filter="url(#fuzuuqgggz16m)" height="6" rx="2.5" ry="2.5" style="stroke: #000000; stroke-width: 1.0;" width="466" x="24" y="1219.0645"/><polygon fill="#FFFFF0" filter="url(#fuzuuqgggz16m)" points="257,592.125,269,604.125,257,616.125,245,604.125,257,592.125" style="stroke: #6495ED; stroke-width: 1.0;"/><polygon fill="#FFFFF0" filter="url(#fuzuuqgggz16m)" points="242.5,1266.8994,271.5,1266.8994,283.5,1278.8994,271.5,1290.8994,242.5,1290.8994,230.5,1278.8994,242.5,1266.8994" style="stroke: #6495ED; stroke-width: 1.0;"/><text fill="#A9A9A9" font-family="sans-serif" font-size="11" lengthAdjust="spacingAndGlyphs" textLength="29" x="242.5" y="1283.4004">keep?</text><polygon fill="#FFFFF0" filter="url(#fuzuuqgggz16m)" points="542,913.6123,613,913.6123,623,931.1592,613,948.7061,542,948.7061" style="stroke: #6495ED; stroke-width: 1.0;"/><text fill="#696969" font-family="sans-serif" font-size="12" lengthAdjust="spacingAndGlyphs" textLength="51" x="552" y="936.0693">1-3 years</text><rect fill="#000000" filter="url(#fuzuuqgggz16m)" height="6" rx="2.5" ry="2.5" style="stroke: #000000; stroke-width: 1.0;" width="617" x="10" y="1310.8994"/><a target="_top" xlink:actuate="onRequest" xlink:href="selling.svg?sanitize=true" xlink:show="new" xlink:title="selling.svg?sanitize=true" xlink:type="simple"><rect fill="#87CEFA" filter="url(#fuzuuqgggz16m)" height="35.0938" rx="12.5" ry="12.5" style="stroke: #6495ED; stroke-width: 1.0;" width="40" x="298.5" y="1336.8994"/><text fill="#696969" font-family="sans-serif" font-size="12" lengthAdjust="spacingAndGlyphs" textLength="20" x="308.5" y="1359.3564">sell</text></a><ellipse cx="318.5" cy="1401.9932" fill="#FFFFFF" filter="url(#fuzuuqgggz16m)" rx="10" ry="10" style="stroke: #FF7F50; stroke-width: 1.5;"/><line style="stroke: #FF7F50; stroke-width: 2.5;" x1="312.3128" x2="324.6872" y1="1395.806" y2="1408.1803"/><line style="stroke: #FF7F50; stroke-width: 2.5;" x1="324.6872" x2="312.3128" y1="1395.806" y2="1408.1803"/><line style="stroke: #696969; stroke-width: 1.5;" x1="318.5" x2="318.5" y1="105.375" y2="125.375"/><polygon fill="#696969" points="314.5,115.375,318.5,125.375,322.5,115.375,318.5,119.375" style="stroke: #696969; stroke-width: 1.0;"/><line style="stroke: #696969; stroke-width: 1.5;" x1="318.5" x2="318.5" y1="160.4688" y2="180.4688"/><polygon fill="#696969" points="314.5,170.4688,318.5,180.4688,322.5,170.4688,318.5,174.4688" style="stroke: #696969; stroke-width: 1.0;"/><line style="stroke: #696969; stroke-width: 1.5;" x1="318.5" x2="318.5" y1="215.5625" y2="235.5625"/><polygon fill="#696969" points="314.5,225.5625,318.5,235.5625,322.5,225.5625,318.5,229.5625" style="stroke: #696969; stroke-width: 1.0;"/><line style="stroke: #696969; stroke-width: 1.5;" x1="318.5" x2="318.5" y1="270.6563" y2="290.6563"/><polygon fill="#696969" points="314.5,280.6563,318.5,290.6563,322.5,280.6563,318.5,284.6563" style="stroke: #696969; stroke-width: 1.0;"/><line style="stroke: #696969; stroke-width: 1.5;" x1="318.5" x2="318.5" y1="325.75" y2="345.75"/><polygon fill="#696969" points="314.5,335.75,318.5,345.75,322.5,335.75,318.5,339.75" style="stroke: #696969; stroke-width: 1.0;"/><line style="stroke: #696969; stroke-width: 1.5;" x1="318.5" x2="318.5" y1="380.8438" y2="400.8438"/><polygon fill="#696969" points="314.5,390.8438,318.5,400.8438,322.5,390.8438,318.5,394.8438" style="stroke: #696969; stroke-width: 1.0;"/><line style="stroke: #696969; stroke-width: 1.5;" x1="318.5" x2="318.5" y1="435.9375" y2="455.9375"/><polygon fill="#696969" points="314.5,445.9375,318.5,455.9375,322.5,445.9375,318.5,449.9375" style="stroke: #696969; stroke-width: 1.0;"/><line style="stroke: #696969; stroke-width: 1.5;" x1="318.5" x2="318.5" y1="491.0313" y2="511.0313"/><polygon fill="#696969" points="314.5,501.0313,318.5,511.0313,322.5,501.0313,318.5,505.0313" style="stroke: #696969; stroke-width: 1.0;"/><line style="stroke: #696969; stroke-width: 1.5;" x1="214.5" x2="214.5" y1="723.2188" y2="758.2188"/><polygon fill="#696969" points="210.5,748.2188,214.5,758.2188,218.5,748.2188,214.5,752.2188" style="stroke: #696969; stroke-width: 1.0;"/><line style="stroke: #696969; stroke-width: 1.5;" x1="125.5" x2="125.5" y1="668.125" y2="723.1719"/><polygon fill="#696969" points="121.5,713.1719,125.5,723.1719,129.5,713.1719,125.5,717.1719" style="stroke: #696969; stroke-width: 1.0;"/><line style="stroke: #696969; stroke-width: 1.5;" x1="214.5" x2="214.5" y1="668.125" y2="688.125"/><polygon fill="#696969" points="210.5,678.125,214.5,688.125,218.5,678.125,214.5,682.125" style="stroke: #696969; stroke-width: 1.0;"/><line style="stroke: #696969; stroke-width: 1.5;" x1="125.5" x2="125.5" y1="758.2656" y2="813.3125"/><polygon fill="#696969" points="121.5,803.3125,125.5,813.3125,129.5,803.3125,125.5,807.3125" style="stroke: #696969; stroke-width: 1.0;"/><line style="stroke: #696969; stroke-width: 1.5;" x1="214.5" x2="214.5" y1="793.3125" y2="813.3125"/><polygon fill="#696969" points="210.5,803.3125,214.5,813.3125,218.5,803.3125,214.5,807.3125" style="stroke: #696969; stroke-width: 1.0;"/><line style="stroke: #696969; stroke-width: 1.5;" x1="210.5" x2="210.5" y1="911.5654" y2="959.5654"/><polygon fill="#696969" points="206.5,949.5654,210.5,959.5654,214.5,949.5654,210.5,953.5654" style="stroke: #696969; stroke-width: 1.0;"/><path d="M217.3333,924.9808 L217.3333,925.8975 L218.25,925.8975 L218.25,925.9259 C216.6944,926.1468 215.5,927.4906 215.5,929.1058 C215.5,930.874 216.9401,932.3141 218.7083,932.3141 C220.4766,932.3141 221.9167,930.874 221.9167,929.1058 C221.9167,928.6933 221.8378,928.3046 221.7159,927.96 L220.8561,928.2753 C220.9542,928.554 220.9991,928.8216 220.9991,929.1058 C220.9991,930.3809 219.9825,931.3975 218.7074,931.3975 C217.4323,931.3975 216.4158,930.3809 216.4158,929.1058 C216.4158,927.8307 217.4323,926.8141 218.7074,926.8141 C218.9806,926.8141 219.2437,926.8609 219.5095,926.9571 L219.8248,926.0973 C219.6223,926.023 219.3931,925.9882 219.1658,925.9543 L219.1658,925.8965 L220.0824,925.8965 L220.0824,924.9799 L217.3324,924.9799 M221.9158,926.0111 C218.547,928.5778 218.547,928.5778 218.3637,928.7611 C218.1803,928.9445 218.1803,929.2369 218.3637,929.4202 C218.547,929.6035 218.8394,929.6035 219.0228,929.4202 C219.2061,929.246 221.9158,926.0111 221.9158,926.0111 " fill="#696969" style="stroke: ; stroke-width: 0.0; stroke-dasharray: ;"/><text fill="#696969" font-family="sans-serif" font-size="11" lengthAdjust="spacingAndGlyphs" textLength="40" x="214.5" y="943.7331">rent due</text><line style="stroke: #696969; stroke-width: 1.5;" x1="246.5" x2="285" y1="1083.7178" y2="1083.7178"/><polygon fill="#696969" points="281,1002.2061,285,992.2061,289,1002.2061,285,998.2061" style="stroke: #696969; stroke-width: 1.5;"/><line style="stroke: #696969; stroke-width: 1.5;" x1="285" x2="285" y1="899.5654" y2="1083.7178"/><line style="stroke: #696969; stroke-width: 1.5;" x1="285" x2="222.5" y1="899.5654" y2="899.5654"/><polygon fill="#696969" points="232.5,895.5654,222.5,899.5654,232.5,903.5654,228.5,899.5654" style="stroke: #696969; stroke-width: 1.0;"/><text fill="#696969" font-family="sans-serif" font-size="11" lengthAdjust="spacingAndGlyphs" textLength="18" x="289" y="1088.2188">yes</text><line style="stroke: #696969; stroke-width: 1.5;" x1="210.5" x2="210.5" y1="1024.8467" y2="1071.7178"/><polygon fill="#696969" points="206.5,1061.7178,210.5,1071.7178,214.5,1061.7178,210.5,1065.7178" style="stroke: #696969; stroke-width: 1.0;"/><line style="stroke: #696969; stroke-width: 1.5;" x1="210.5" x2="210.5" y1="1095.7178" y2="1137.9707"/><polygon fill="#696969" points="206.5,1127.9707,210.5,1137.9707,214.5,1127.9707,210.5,1131.9707" style="stroke: #696969; stroke-width: 1.0;"/><text fill="#696969" font-family="sans-serif" font-size="11" lengthAdjust="spacingAndGlyphs" textLength="12" x="214.5" y="1118.0537">no</text><line style="stroke: #696969; stroke-width: 1.5;" x1="86" x2="86" y1="867.5654" y2="1016.624"/><polygon fill="#696969" points="82,1006.624,86,1016.624,90,1006.624,86,1010.624" style="stroke: #696969; stroke-width: 1.0;"/><line style="stroke: #696969; stroke-width: 1.5;" x1="210.5" x2="210.5" y1="867.5654" y2="887.5654"/><polygon fill="#696969" points="206.5,877.5654,210.5,887.5654,214.5,877.5654,210.5,881.5654" style="stroke: #696969; stroke-width: 1.0;"/><line style="stroke: #696969; stroke-width: 1.5;" x1="86" x2="86" y1="1051.7178" y2="1193.0645"/><polygon fill="#696969" points="82,1183.0645,86,1193.0645,90,1183.0645,86,1187.0645" style="stroke: #696969; stroke-width: 1.0;"/><line style="stroke: #696969; stroke-width: 1.5;" x1="210.5" x2="210.5" y1="1173.0645" y2="1193.0645"/><polygon fill="#696969" points="206.5,1183.0645,210.5,1193.0645,214.5,1183.0645,210.5,1187.0645" style="stroke: #696969; stroke-width: 1.0;"/><line style="stroke: #696969; stroke-width: 1.5;" x1="174.5" x2="174.5" y1="819.3125" y2="861.5654"/><polygon fill="#696969" points="170.5,851.5654,174.5,861.5654,178.5,851.5654,174.5,855.5654" style="stroke: #696969; stroke-width: 1.0;"/><text fill="#696969" font-family="sans-serif" font-size="11" lengthAdjust="spacingAndGlyphs" textLength="37" x="178.5" y="841.6484">move in</text><line style="stroke: #696969; stroke-width: 1.5;" x1="407.5" x2="407.5" y1="913.6592" y2="948.6592"/><polygon fill="#696969" points="403.5,938.6592,407.5,948.6592,411.5,938.6592,407.5,942.6592" style="stroke: #696969; stroke-width: 1.0;"/><line style="stroke: #696969; stroke-width: 1.5;" x1="174.5" x2="174.5" y1="642.125" y2="662.125"/><polygon fill="#696969" points="170.5,652.125,174.5,662.125,178.5,652.125,174.5,656.125" style="stroke: #696969; stroke-width: 1.0;"/><line style="stroke: #696969; stroke-width: 1.5;" x1="407.5" x2="407.5" y1="642.125" y2="878.5654"/><polygon fill="#696969" points="403.5,868.5654,407.5,878.5654,411.5,868.5654,407.5,872.5654" style="stroke: #696969; stroke-width: 1.0;"/><line style="stroke: #696969; stroke-width: 1.5;" x1="174.5" x2="174.5" y1="1199.0645" y2="1219.0645"/><polygon fill="#696969" points="170.5,1209.0645,174.5,1219.0645,178.5,1209.0645,174.5,1213.0645" style="stroke: #696969; stroke-width: 1.0;"/><line style="stroke: #696969; stroke-width: 1.5;" x1="407.5" x2="407.5" y1="983.7529" y2="1219.0645"/><polygon fill="#696969" points="403.5,1209.0645,407.5,1219.0645,411.5,1209.0645,407.5,1213.0645" style="stroke: #696969; stroke-width: 1.0;"/><line style="stroke: #696969; stroke-width: 1.5;" x1="257" x2="257" y1="616.125" y2="636.125"/><polygon fill="#696969" points="253,626.125,257,636.125,261,626.125,257,630.125" style="stroke: #696969; stroke-width: 1.0;"/><line style="stroke: #696969; stroke-width: 1.5;" x1="283.5" x2="502" y1="1278.8994" y2="1278.8994"/><polygon fill="#696969" points="498,941.1592,502,931.1592,506,941.1592,502,937.1592" style="stroke: #696969; stroke-width: 1.5;"/><line style="stroke: #696969; stroke-width: 1.5;" x1="502" x2="502" y1="604.125" y2="1278.8994"/><line style="stroke: #696969; stroke-width: 1.5;" x1="502" x2="269" y1="604.125" y2="604.125"/><polygon fill="#696969" points="279,600.125,269,604.125,279,608.125,275,604.125" style="stroke: #696969; stroke-width: 1.0;"/><text fill="#696969" font-family="sans-serif" font-size="11" lengthAdjust="spacingAndGlyphs" textLength="18" x="506" y="1283.4004">yes</text><line style="stroke: #696969; stroke-width: 1.5;" x1="257" x2="257" y1="1225.0645" y2="1266.8994"/><polygon fill="#696969" points="253,1256.8994,257,1266.8994,261,1256.8994,257,1260.8994" style="stroke: #696969; stroke-width: 1.0;"/><text fill="#696969" font-family="sans-serif" font-size="11" lengthAdjust="spacingAndGlyphs" textLength="44" x="261" y="1247.4004">move out</text><line style="stroke: #696969; stroke-width: 1.5;" x1="257" x2="257" y1="572.125" y2="592.125"/><polygon fill="#696969" points="253,582.125,257,592.125,261,582.125,257,586.125" style="stroke: #696969; stroke-width: 1.0;"/><line style="stroke: #696969; stroke-width: 1.5;" x1="577.5" x2="577.5" y1="572.125" y2="913.6123"/><polygon fill="#696969" points="573.5,903.6123,577.5,913.6123,581.5,903.6123,577.5,907.6123" style="stroke: #696969; stroke-width: 1.0;"/><line style="stroke: #696969; stroke-width: 1.5;" x1="257" x2="257" y1="1290.8994" y2="1310.8994"/><polygon fill="#696969" points="253,1300.8994,257,1310.8994,261,1300.8994,257,1304.8994" style="stroke: #696969; stroke-width: 1.0;"/><text fill="#696969" font-family="sans-serif" font-size="11" lengthAdjust="spacingAndGlyphs" textLength="12" x="261" y="1305.4004">no</text><line style="stroke: #696969; stroke-width: 1.5;" x1="577.5" x2="577.5" y1="948.7061" y2="1310.8994"/><polygon fill="#696969" points="573.5,1300.8994,577.5,1310.8994,581.5,1300.8994,577.5,1304.8994" style="stroke: #696969; stroke-width: 1.0;"/><line style="stroke: #696969; stroke-width: 1.5;" x1="318.5" x2="318.5" y1="546.125" y2="566.125"/><polygon fill="#696969" points="314.5,556.125,318.5,566.125,322.5,556.125,318.5,560.125" style="stroke: #696969; stroke-width: 1.0;"/><line style="stroke: #696969; stroke-width: 1.5;" x1="318.5" x2="318.5" y1="1316.8994" y2="1336.8994"/><polygon fill="#696969" points="314.5,1326.8994,318.5,1336.8994,322.5,1326.8994,318.5,1330.8994" style="stroke: #696969; stroke-width: 1.0;"/><line style="stroke: #696969; stroke-width: 1.5;" x1="318.5" x2="318.5" y1="1371.9932" y2="1391.9932"/><polygon fill="#696969" points="314.5,1381.9932,318.5,1391.9932,322.5,1381.9932,318.5,1385.9932" style="stroke: #696969; stroke-width: 1.0;"/><text fill="#000080" font-family="sans-serif" font-size="14" lengthAdjust="spacingAndGlyphs" textLength="42" x="10" y="1425.5264">©2019</text><a target="_top" xlink:actuate="onRequest" xlink:href="http://www.lifestylesunlimited.com" xlink:show="new" xlink:title="http://www.lifestylesunlimited.com" xlink:type="simple"><text fill="#0000FF" font-family="sans-serif" font-size="14" lengthAdjust="spacingAndGlyphs" text-decoration="underline" textLength="122" x="56" y="1425.5264">LifeStyles Unlimited</text><line style="stroke: #0000FF; stroke-width: 1.0;" x1="56" x2="178" y1="1427.5264" y2="1427.5264"/></a><text fill="#000080" font-family="sans-serif" font-size="14" lengthAdjust="spacingAndGlyphs" textLength="283" x="182" y="1425.5264">| Generated Sun May 12 17:24:34 CDT 2019</text><!--
@startuml single-family-deal


skinparam {
  BorderColor Red
  PathHoverColor Blue
}

skinparam Title {
  FontColor Navy
  BackgroundColor PaleGoldenRod
  BorderColor Navy
  BorderRoundCorner 20
  FontSize 24
}

skinparam activity {
  BackgroundColor Ivory
  BorderColor CornflowerBlue
  BorderThickness 1
  FontColor DimGray
  

  Arrow {
    Color dimgray
    FontColor dimgray
  }

  Start {
    Color PHYSICAL
  }

  End {
    Color Coral
  }

  Diamond {
    BackgroundColor Ivory
    BorderColor CornflowerBlue
    FontColor DarkGray
  }

  BackgroundColor<< Exception >> Red
	BorderColor<< Exception >> White
}

skinparam Swimlane {
  BorderColor CornflowerBlue 
}

skinparam Partition {
  BackgroundColor Ivory
  BorderColor CornflowerBlue
  BorderThickness 1
  FontColor CornflowerBlue
  FontSize 16
  BorderRoundCorner 20
}

skinparam Note {
  BackgroundColor LightSteelBlue
  BorderColor CornflowerBlue
  FontColor White
}

skinparam Legend {
  BackgroundColor LightSteelBlue
  BorderColor CornflowerBlue
  FontColor White
}

skinparam Footer {
  FontColor Navy
}


left header 
	<font color=Navy size=24>[[../index.svg?sanitize=true ⌂ Home]]</font>
endheader


	Title Single Family Deal

	start

	[[../unlimited-lifestyle/insuring.svg?sanitize=true]]#LightSkyBlue:insure;

	[[finding.svg?sanitize=true]]#LightSkyBlue:find;
	:compare;
	[[evaluating.svg?sanitize=true]]#LightSkyBlue:analyse;
	:visit;
	[[negotiating.svg?sanitize=true]]#LightSkyBlue:contract;
	[[due-diligence.svg?sanitize=true]]#LightSkyBlue:inspect;
	[[closing.svg?sanitize=true]]#LightSkyBlue:close;
	fork
		repeat
			fork
				fork
					[[rehabbing.svg?sanitize=true]]#LightSkyBlue:rehab;
				fork again
					[[advertising.svg?sanitize=true]]#LightSkyBlue:advertise;
					[[leasing.svg?sanitize=true]]#LightSkyBlue:lease;
				end fork
				-> move in;
				fork
					:maintain;
				fork again
					repeat
						-><&timer>\nrent due;
						#PHYSICAL:<&dollar> rent
						<i>principal pay down 
						<i>build up equity]
					repeat while(rent paid?)->yes
					->no;
					[[evicting.svg?sanitize=true]]#LightSkyBlue:evict;
				end fork
			fork again
				:May 15>
				[[protest-property-taxes.svg?sanitize=true]]#LightSkyBlue:protest property taxes;
			end fork

				-> move out;
			repeat while(keep?)->yes
			->no;
	fork again
		:1-3 years>
	end fork
	[[selling.svg?sanitize=true]]#LightSkyBlue:sell;
	end


left footer 
	<font size=14>©2019 [[http://www.lifestylesunlimited.com LifeStyles Unlimited]] | Generated Sun May 12 17:24:34 CDT 2019</font>
endfooter


@enduml

PlantUML version 1.2019.03(Sun Mar 10 06:04:44 CDT 2019)
(GPL source distribution)
Java Runtime: Java(TM) SE Runtime Environment
JVM: Java HotSpot(TM) 64-Bit Server VM
Java Version: 1.8.0_111-b14
Operating System: Windows 10
OS Version: 10.0
Default Encoding: Cp1252
Language: en
Country: US
--></g></svg>