<?xml version="1.0" encoding="UTF-8" standalone="no"?><svg xmlns="http://www.w3.org/2000/svg" xmlns:xlink="http://www.w3.org/1999/xlink" contentScriptType="application/ecmascript" contentStyleType="text/css" height="1287px" preserveAspectRatio="none" style="width:475px;height:1287px;" version="1.1" viewBox="0 0 475 1287" width="475px" zoomAndPan="magnify"><defs><style type="text/css"><![CDATA[path:hover { stroke: #0000FF !important;}]]></style><filter height="300%" id="faxwaul06jicd" width="300%" x="-1" y="-1"><feGaussianBlur result="blurOut" stdDeviation="2.0"/><feColorMatrix in="blurOut" result="blurOut2" type="matrix" values="0 0 0 0 0 0 0 0 0 0 0 0 0 0 0 0 0 0 .4 0"/><feOffset dx="4.0" dy="4.0" in="blurOut2" result="blurOut3"/><feBlend in="SourceGraphic" in2="blurOut3" mode="normal"/></filter></defs><g><a target="_top" xlink:actuate="onRequest" xlink:href="../index.svg" xlink:show="new" xlink:title="../index.svg" xlink:type="simple"><text fill="#0000FF" font-family="sans-serif" font-size="18" lengthAdjust="spacingAndGlyphs" text-decoration="underline" textLength="67" x="10" y="28.6855">⌂ Home</text><line style="stroke: #0000FF; stroke-width: 1.0;" x1="10" x2="77" y1="30.6855" y2="30.6855"/></a><rect fill="#EEE8AA" height="32.6406" rx="10" ry="10" style="stroke: #000080; stroke-width: 1.5;" width="165" x="153.5" y="34.6406"/><text fill="#000080" font-family="sans-serif" font-size="18" lengthAdjust="spacingAndGlyphs" textLength="149" x="161.5" y="58.3262">Single Family Deal</text><ellipse cx="233.5" cy="80.2813" fill="#CCFFCC" filter="url(#faxwaul06jicd)" rx="10" ry="10" style="stroke: none; stroke-width: 1.0;"/><a target="_top" xlink:actuate="onRequest" xlink:href="finding.svg?sanitize=true" xlink:show="new" xlink:title="finding.svg?sanitize=true" xlink:type="simple"><rect fill="#87CEFA" filter="url(#faxwaul06jicd)" height="35.0938" rx="12.5" ry="12.5" style="stroke: #6495ED; stroke-width: 1.5;" width="40" x="213.5" y="110.2813"/><text fill="#696969" font-family="sans-serif" font-size="12" lengthAdjust="spacingAndGlyphs" textLength="20" x="223.5" y="132.7383">find</text></a><rect fill="#FFFFF0" filter="url(#faxwaul06jicd)" height="35.0938" rx="12.5" ry="12.5" style="stroke: #6495ED; stroke-width: 1.5;" width="69" x="199" y="165.375"/><text fill="#696969" font-family="sans-serif" font-size="12" lengthAdjust="spacingAndGlyphs" textLength="49" x="209" y="187.832">compare</text><a target="_top" xlink:actuate="onRequest" xlink:href="evaluating.svg?sanitize=true" xlink:show="new" xlink:title="evaluating.svg?sanitize=true" xlink:type="simple"><rect fill="#87CEFA" filter="url(#faxwaul06jicd)" height="35.0938" rx="12.5" ry="12.5" style="stroke: #6495ED; stroke-width: 1.5;" width="63" x="202" y="220.4688"/><text fill="#696969" font-family="sans-serif" font-size="12" lengthAdjust="spacingAndGlyphs" textLength="43" x="212" y="242.9258">analyse</text></a><rect fill="#FFFFF0" filter="url(#faxwaul06jicd)" height="35.0938" rx="12.5" ry="12.5" style="stroke: #6495ED; stroke-width: 1.5;" width="41" x="213" y="275.5625"/><text fill="#696969" font-family="sans-serif" font-size="12" lengthAdjust="spacingAndGlyphs" textLength="21" x="223" y="298.0195">visit</text><a target="_top" xlink:actuate="onRequest" xlink:href="negotiating.svg?sanitize=true" xlink:show="new" xlink:title="negotiating.svg?sanitize=true" xlink:type="simple"><rect fill="#87CEFA" filter="url(#faxwaul06jicd)" height="35.0938" rx="12.5" ry="12.5" style="stroke: #6495ED; stroke-width: 1.5;" width="63" x="202" y="330.6563"/><text fill="#696969" font-family="sans-serif" font-size="12" lengthAdjust="spacingAndGlyphs" textLength="43" x="212" y="353.1133">contract</text></a><a target="_top" xlink:actuate="onRequest" xlink:href="due-diligence.svg?sanitize=true" xlink:show="new" xlink:title="due-diligence.svg?sanitize=true" xlink:type="simple"><rect fill="#87CEFA" filter="url(#faxwaul06jicd)" height="35.0938" rx="12.5" ry="12.5" style="stroke: #6495ED; stroke-width: 1.5;" width="60" x="203.5" y="385.75"/><text fill="#696969" font-family="sans-serif" font-size="12" lengthAdjust="spacingAndGlyphs" textLength="40" x="213.5" y="408.207">inspect</text></a><a target="_top" xlink:actuate="onRequest" xlink:href="closing.svg?sanitize=true" xlink:show="new" xlink:title="closing.svg?sanitize=true" xlink:type="simple"><rect fill="#87CEFA" filter="url(#faxwaul06jicd)" height="35.0938" rx="12.5" ry="12.5" style="stroke: #6495ED; stroke-width: 1.5;" width="50" x="208.5" y="440.8438"/><text fill="#696969" font-family="sans-serif" font-size="12" lengthAdjust="spacingAndGlyphs" textLength="30" x="218.5" y="463.3008">close</text></a><rect fill="#000000" filter="url(#faxwaul06jicd)" height="6" rx="2.5" ry="2.5" style="stroke: #000000; stroke-width: 1.0;" width="378" x="44.5" y="495.9375"/><rect fill="#000000" filter="url(#faxwaul06jicd)" height="6" rx="2.5" ry="2.5" style="stroke: #000000; stroke-width: 1.0;" width="178" x="83" y="565.9375"/><a target="_top" xlink:actuate="onRequest" xlink:href="rehabbing.svg?sanitize=true" xlink:show="new" xlink:title="rehabbing.svg?sanitize=true" xlink:type="simple"><rect fill="#87CEFA" filter="url(#faxwaul06jicd)" height="35.0938" rx="12.5" ry="12.5" style="stroke: #6495ED; stroke-width: 1.5;" width="52" x="97" y="626.9844"/><text fill="#696969" font-family="sans-serif" font-size="12" lengthAdjust="spacingAndGlyphs" textLength="32" x="107" y="649.4414">rehab</text></a><a target="_top" xlink:actuate="onRequest" xlink:href="advertise.svg?sanitize=true" xlink:show="new" xlink:title="advertise.svg?sanitize=true" xlink:type="simple"><rect fill="#87CEFA" filter="url(#faxwaul06jicd)" height="35.0938" rx="12.5" ry="12.5" style="stroke: #6495ED; stroke-width: 1.5;" width="70" x="177" y="591.9375"/><text fill="#696969" font-family="sans-serif" font-size="12" lengthAdjust="spacingAndGlyphs" textLength="50" x="187" y="614.3945">advertise</text></a><a target="_top" xlink:actuate="onRequest" xlink:href="leasing.svg?sanitize=true" xlink:show="new" xlink:title="leasing.svg?sanitize=true" xlink:type="simple"><rect fill="#87CEFA" filter="url(#faxwaul06jicd)" height="35.0938" rx="12.5" ry="12.5" style="stroke: #6495ED; stroke-width: 1.5;" width="51" x="186.5" y="662.0313"/><text fill="#696969" font-family="sans-serif" font-size="12" lengthAdjust="spacingAndGlyphs" textLength="31" x="196.5" y="684.4883">lease</text></a><rect fill="#000000" filter="url(#faxwaul06jicd)" height="6" rx="2.5" ry="2.5" style="stroke: #000000; stroke-width: 1.0;" width="178" x="83" y="717.125"/><rect fill="#000000" filter="url(#faxwaul06jicd)" height="6" rx="2.5" ry="2.5" style="stroke: #000000; stroke-width: 1.0;" width="227" x="58.5" y="765.3779"/><rect fill="#FFFFF0" filter="url(#faxwaul06jicd)" height="35.0938" rx="12.5" ry="12.5" style="stroke: #6495ED; stroke-width: 1.5;" width="68" x="72.5" y="905.3428"/><text fill="#696969" font-family="sans-serif" font-size="12" lengthAdjust="spacingAndGlyphs" textLength="48" x="82.5" y="927.7998">maintain</text><rect fill="#FFFFF0" filter="url(#faxwaul06jicd)" height="35.0938" rx="12.5" ry="12.5" style="stroke: #6495ED; stroke-width: 1.5;" width="79" x="168.5" y="863.3779"/><text fill="#696969" font-family="sans-serif" font-size="12" lengthAdjust="spacingAndGlyphs" textLength="59" x="178.5" y="885.835">collect rent</text><polygon fill="#FFFFF0" filter="url(#faxwaul06jicd)" points="208,791.3779,220,803.3779,208,815.3779,196,803.3779,208,791.3779" style="stroke: #6495ED; stroke-width: 1.5;"/><polygon fill="#FFFFF0" filter="url(#faxwaul06jicd)" points="184,946.4717,232,946.4717,244,958.4717,232,970.4717,184,970.4717,172,958.4717,184,946.4717" style="stroke: #6495ED; stroke-width: 1.5;"/><text fill="#A9A9A9" font-family="sans-serif" font-size="11" lengthAdjust="spacingAndGlyphs" textLength="48" x="184" y="962.9727">rent paid?</text><a target="_top" xlink:actuate="onRequest" xlink:href="evict.svg?sanitize=true" xlink:show="new" xlink:title="evict.svg?sanitize=true" xlink:type="simple"><rect fill="#87CEFA" filter="url(#faxwaul06jicd)" height="35.0938" rx="12.5" ry="12.5" style="stroke: #6495ED; stroke-width: 1.5;" width="44" x="186" y="1012.7246"/><text fill="#696969" font-family="sans-serif" font-size="12" lengthAdjust="spacingAndGlyphs" textLength="24" x="196" y="1035.1816">evict</text></a><rect fill="#000000" filter="url(#faxwaul06jicd)" height="6" rx="2.5" ry="2.5" style="stroke: #000000; stroke-width: 1.0;" width="227" x="58.5" y="1067.8184"/><polygon fill="#FFFFF0" filter="url(#faxwaul06jicd)" points="172,521.9375,184,533.9375,172,545.9375,160,533.9375,172,521.9375" style="stroke: #6495ED; stroke-width: 1.5;"/><polygon fill="#FFFFF0" filter="url(#faxwaul06jicd)" points="157.5,1115.6533,186.5,1115.6533,198.5,1127.6533,186.5,1139.6533,157.5,1139.6533,145.5,1127.6533,157.5,1115.6533" style="stroke: #6495ED; stroke-width: 1.5;"/><text fill="#A9A9A9" font-family="sans-serif" font-size="11" lengthAdjust="spacingAndGlyphs" textLength="29" x="157.5" y="1132.1543">keep?</text><polygon fill="#FFFFF0" filter="url(#faxwaul06jicd)" points="337.5,802.3311,408.5,802.3311,418.5,819.8779,408.5,837.4248,337.5,837.4248" style="stroke: #6495ED; stroke-width: 1.5;"/><text fill="#696969" font-family="sans-serif" font-size="12" lengthAdjust="spacingAndGlyphs" textLength="51" x="347.5" y="824.7881">1-3 years</text><rect fill="#000000" filter="url(#faxwaul06jicd)" height="6" rx="2.5" ry="2.5" style="stroke: #000000; stroke-width: 1.0;" width="378" x="44.5" y="1159.6533"/><a target="_top" xlink:actuate="onRequest" xlink:href="selling.svg?sanitize=true" xlink:show="new" xlink:title="selling.svg?sanitize=true" xlink:type="simple"><rect fill="#87CEFA" filter="url(#faxwaul06jicd)" height="35.0938" rx="12.5" ry="12.5" style="stroke: #6495ED; stroke-width: 1.5;" width="40" x="213.5" y="1185.6533"/><text fill="#696969" font-family="sans-serif" font-size="12" lengthAdjust="spacingAndGlyphs" textLength="20" x="223.5" y="1208.1104">sell</text></a><ellipse cx="233.5" cy="1250.7471" fill="#FFFFFF" filter="url(#faxwaul06jicd)" rx="10" ry="10" style="stroke: #FF7F50; stroke-width: 1.5;"/><line style="stroke: #FF7F50; stroke-width: 2.5;" x1="227.3128" x2="239.6872" y1="1244.5599" y2="1256.9343"/><line style="stroke: #FF7F50; stroke-width: 2.5;" x1="239.6872" x2="227.3128" y1="1244.5599" y2="1256.9343"/><line style="stroke: #696969; stroke-width: 1.5;" x1="233.5" x2="233.5" y1="90.2813" y2="110.2813"/><polygon fill="#696969" points="229.5,100.2813,233.5,110.2813,237.5,100.2813,233.5,104.2813" style="stroke: #696969; stroke-width: 1.0;"/><line style="stroke: #696969; stroke-width: 1.5;" x1="233.5" x2="233.5" y1="145.375" y2="165.375"/><polygon fill="#696969" points="229.5,155.375,233.5,165.375,237.5,155.375,233.5,159.375" style="stroke: #696969; stroke-width: 1.0;"/><line style="stroke: #696969; stroke-width: 1.5;" x1="233.5" x2="233.5" y1="200.4688" y2="220.4688"/><polygon fill="#696969" points="229.5,210.4688,233.5,220.4688,237.5,210.4688,233.5,214.4688" style="stroke: #696969; stroke-width: 1.0;"/><line style="stroke: #696969; stroke-width: 1.5;" x1="233.5" x2="233.5" y1="255.5625" y2="275.5625"/><polygon fill="#696969" points="229.5,265.5625,233.5,275.5625,237.5,265.5625,233.5,269.5625" style="stroke: #696969; stroke-width: 1.0;"/><line style="stroke: #696969; stroke-width: 1.5;" x1="233.5" x2="233.5" y1="310.6563" y2="330.6563"/><polygon fill="#696969" points="229.5,320.6563,233.5,330.6563,237.5,320.6563,233.5,324.6563" style="stroke: #696969; stroke-width: 1.0;"/><line style="stroke: #696969; stroke-width: 1.5;" x1="233.5" x2="233.5" y1="365.75" y2="385.75"/><polygon fill="#696969" points="229.5,375.75,233.5,385.75,237.5,375.75,233.5,379.75" style="stroke: #696969; stroke-width: 1.0;"/><line style="stroke: #696969; stroke-width: 1.5;" x1="233.5" x2="233.5" y1="420.8438" y2="440.8438"/><polygon fill="#696969" points="229.5,430.8438,233.5,440.8438,237.5,430.8438,233.5,434.8438" style="stroke: #696969; stroke-width: 1.0;"/><line style="stroke: #696969; stroke-width: 1.5;" x1="212" x2="212" y1="627.0313" y2="662.0313"/><polygon fill="#696969" points="208,652.0313,212,662.0313,216,652.0313,212,656.0313" style="stroke: #696969; stroke-width: 1.0;"/><line style="stroke: #696969; stroke-width: 1.5;" x1="123" x2="123" y1="571.9375" y2="626.9844"/><polygon fill="#696969" points="119,616.9844,123,626.9844,127,616.9844,123,620.9844" style="stroke: #696969; stroke-width: 1.0;"/><line style="stroke: #696969; stroke-width: 1.5;" x1="212" x2="212" y1="571.9375" y2="591.9375"/><polygon fill="#696969" points="208,581.9375,212,591.9375,216,581.9375,212,585.9375" style="stroke: #696969; stroke-width: 1.0;"/><line style="stroke: #696969; stroke-width: 1.5;" x1="123" x2="123" y1="662.0781" y2="717.125"/><polygon fill="#696969" points="119,707.125,123,717.125,127,707.125,123,711.125" style="stroke: #696969; stroke-width: 1.0;"/><line style="stroke: #696969; stroke-width: 1.5;" x1="212" x2="212" y1="697.125" y2="717.125"/><polygon fill="#696969" points="208,707.125,212,717.125,216,707.125,212,711.125" style="stroke: #696969; stroke-width: 1.0;"/><line style="stroke: #696969; stroke-width: 1.5;" x1="208" x2="208" y1="815.3779" y2="863.3779"/><polygon fill="#696969" points="204,853.3779,208,863.3779,212,853.3779,208,857.3779" style="stroke: #696969; stroke-width: 1.0;"/><path d="M214.8333,828.7933 L214.8333,829.71 L215.75,829.71 L215.75,829.7384 C214.1944,829.9593 213,831.3031 213,832.9183 C213,834.6865 214.4401,836.1266 216.2083,836.1266 C217.9766,836.1266 219.4167,834.6865 219.4167,832.9183 C219.4167,832.5058 219.3378,832.1171 219.2159,831.7725 L218.3561,832.0878 C218.4542,832.3665 218.4991,832.6341 218.4991,832.9183 C218.4991,834.1934 217.4825,835.21 216.2074,835.21 C214.9323,835.21 213.9158,834.1934 213.9158,832.9183 C213.9158,831.6432 214.9323,830.6266 216.2074,830.6266 C216.4806,830.6266 216.7437,830.6734 217.0095,830.7696 L217.3248,829.9098 C217.1223,829.8355 216.8931,829.8007 216.6658,829.7668 L216.6658,829.709 L217.5824,829.709 L217.5824,828.7924 L214.8324,828.7924 M219.4158,829.8236 C216.047,832.3903 216.047,832.3903 215.8637,832.5736 C215.6803,832.757 215.6803,833.0494 215.8637,833.2327 C216.047,833.416 216.3394,833.416 216.5228,833.2327 C216.7061,833.0585 219.4158,829.8236 219.4158,829.8236 " fill="#696969" style="stroke: ; stroke-width: 0.0; stroke-dasharray: ;"/><text fill="#696969" font-family="sans-serif" font-size="11" lengthAdjust="spacingAndGlyphs" textLength="40" x="212" y="847.5456">rent due</text><line style="stroke: #696969; stroke-width: 1.5;" x1="244" x2="259.5" y1="958.4717" y2="958.4717"/><polygon fill="#696969" points="255.5,890.9248,259.5,880.9248,263.5,890.9248,259.5,886.9248" style="stroke: #696969; stroke-width: 1.5;"/><line style="stroke: #696969; stroke-width: 1.5;" x1="259.5" x2="259.5" y1="803.3779" y2="958.4717"/><line style="stroke: #696969; stroke-width: 1.5;" x1="259.5" x2="220" y1="803.3779" y2="803.3779"/><polygon fill="#696969" points="230,799.3779,220,803.3779,230,807.3779,226,803.3779" style="stroke: #696969; stroke-width: 1.0;"/><text fill="#696969" font-family="sans-serif" font-size="11" lengthAdjust="spacingAndGlyphs" textLength="18" x="263.5" y="962.9727">yes</text><line style="stroke: #696969; stroke-width: 1.5;" x1="208" x2="208" y1="898.4717" y2="946.4717"/><polygon fill="#696969" points="204,936.4717,208,946.4717,212,936.4717,208,940.4717" style="stroke: #696969; stroke-width: 1.0;"/><line style="stroke: #696969; stroke-width: 1.5;" x1="208" x2="208" y1="970.4717" y2="1012.7246"/><polygon fill="#696969" points="204,1002.7246,208,1012.7246,212,1002.7246,208,1006.7246" style="stroke: #696969; stroke-width: 1.0;"/><text fill="#696969" font-family="sans-serif" font-size="11" lengthAdjust="spacingAndGlyphs" textLength="12" x="212" y="992.8076">no</text><line style="stroke: #696969; stroke-width: 1.5;" x1="106.5" x2="106.5" y1="771.3779" y2="905.3428"/><polygon fill="#696969" points="102.5,895.3428,106.5,905.3428,110.5,895.3428,106.5,899.3428" style="stroke: #696969; stroke-width: 1.0;"/><line style="stroke: #696969; stroke-width: 1.5;" x1="208" x2="208" y1="771.3779" y2="791.3779"/><polygon fill="#696969" points="204,781.3779,208,791.3779,212,781.3779,208,785.3779" style="stroke: #696969; stroke-width: 1.0;"/><line style="stroke: #696969; stroke-width: 1.5;" x1="106.5" x2="106.5" y1="940.4365" y2="1067.8184"/><polygon fill="#696969" points="102.5,1057.8184,106.5,1067.8184,110.5,1057.8184,106.5,1061.8184" style="stroke: #696969; stroke-width: 1.0;"/><line style="stroke: #696969; stroke-width: 1.5;" x1="208" x2="208" y1="1047.8184" y2="1067.8184"/><polygon fill="#696969" points="204,1057.8184,208,1067.8184,212,1057.8184,208,1061.8184" style="stroke: #696969; stroke-width: 1.0;"/><line style="stroke: #696969; stroke-width: 1.5;" x1="172" x2="172" y1="723.125" y2="765.3779"/><polygon fill="#696969" points="168,755.3779,172,765.3779,176,755.3779,172,759.3779" style="stroke: #696969; stroke-width: 1.0;"/><text fill="#696969" font-family="sans-serif" font-size="11" lengthAdjust="spacingAndGlyphs" textLength="37" x="176" y="745.4609">move in</text><line style="stroke: #696969; stroke-width: 1.5;" x1="172" x2="172" y1="545.9375" y2="565.9375"/><polygon fill="#696969" points="168,555.9375,172,565.9375,176,555.9375,172,559.9375" style="stroke: #696969; stroke-width: 1.0;"/><line style="stroke: #696969; stroke-width: 1.5;" x1="198.5" x2="297.5" y1="1127.6533" y2="1127.6533"/><polygon fill="#696969" points="293.5,829.8779,297.5,819.8779,301.5,829.8779,297.5,825.8779" style="stroke: #696969; stroke-width: 1.5;"/><line style="stroke: #696969; stroke-width: 1.5;" x1="297.5" x2="297.5" y1="533.9375" y2="1127.6533"/><line style="stroke: #696969; stroke-width: 1.5;" x1="297.5" x2="184" y1="533.9375" y2="533.9375"/><polygon fill="#696969" points="194,529.9375,184,533.9375,194,537.9375,190,533.9375" style="stroke: #696969; stroke-width: 1.0;"/><text fill="#696969" font-family="sans-serif" font-size="11" lengthAdjust="spacingAndGlyphs" textLength="18" x="301.5" y="1132.1543">yes</text><line style="stroke: #696969; stroke-width: 1.5;" x1="172" x2="172" y1="1073.8184" y2="1115.6533"/><polygon fill="#696969" points="168,1105.6533,172,1115.6533,176,1105.6533,172,1109.6533" style="stroke: #696969; stroke-width: 1.0;"/><text fill="#696969" font-family="sans-serif" font-size="11" lengthAdjust="spacingAndGlyphs" textLength="44" x="176" y="1096.1543">move out</text><line style="stroke: #696969; stroke-width: 1.5;" x1="172" x2="172" y1="501.9375" y2="521.9375"/><polygon fill="#696969" points="168,511.9375,172,521.9375,176,511.9375,172,515.9375" style="stroke: #696969; stroke-width: 1.0;"/><line style="stroke: #696969; stroke-width: 1.5;" x1="373" x2="373" y1="501.9375" y2="802.3311"/><polygon fill="#696969" points="369,792.3311,373,802.3311,377,792.3311,373,796.3311" style="stroke: #696969; stroke-width: 1.0;"/><line style="stroke: #696969; stroke-width: 1.5;" x1="172" x2="172" y1="1139.6533" y2="1159.6533"/><polygon fill="#696969" points="168,1149.6533,172,1159.6533,176,1149.6533,172,1153.6533" style="stroke: #696969; stroke-width: 1.0;"/><text fill="#696969" font-family="sans-serif" font-size="11" lengthAdjust="spacingAndGlyphs" textLength="12" x="176" y="1154.1543">no</text><line style="stroke: #696969; stroke-width: 1.5;" x1="373" x2="373" y1="837.4248" y2="1159.6533"/><polygon fill="#696969" points="369,1149.6533,373,1159.6533,377,1149.6533,373,1153.6533" style="stroke: #696969; stroke-width: 1.0;"/><line style="stroke: #696969; stroke-width: 1.5;" x1="233.5" x2="233.5" y1="475.9375" y2="495.9375"/><polygon fill="#696969" points="229.5,485.9375,233.5,495.9375,237.5,485.9375,233.5,489.9375" style="stroke: #696969; stroke-width: 1.0;"/><line style="stroke: #696969; stroke-width: 1.5;" x1="233.5" x2="233.5" y1="1165.6533" y2="1185.6533"/><polygon fill="#696969" points="229.5,1175.6533,233.5,1185.6533,237.5,1175.6533,233.5,1179.6533" style="stroke: #696969; stroke-width: 1.0;"/><line style="stroke: #696969; stroke-width: 1.5;" x1="233.5" x2="233.5" y1="1220.7471" y2="1240.7471"/><polygon fill="#696969" points="229.5,1230.7471,233.5,1240.7471,237.5,1230.7471,233.5,1234.7471" style="stroke: #696969; stroke-width: 1.0;"/><text fill="#000080" font-family="sans-serif" font-size="14" lengthAdjust="spacingAndGlyphs" textLength="42" x="10" y="1274.2803">©2019</text><a target="_top" xlink:actuate="onRequest" xlink:href="http://www.lifestylesunlimited.com" xlink:show="new" xlink:title="http://www.lifestylesunlimited.com" xlink:type="simple"><text fill="#0000FF" font-family="sans-serif" font-size="14" lengthAdjust="spacingAndGlyphs" text-decoration="underline" textLength="122" x="56" y="1274.2803">LifeStyles Unlimited</text><line style="stroke: #0000FF; stroke-width: 1.0;" x1="56" x2="178" y1="1276.2803" y2="1276.2803"/></a><text fill="#000080" font-family="sans-serif" font-size="14" lengthAdjust="spacingAndGlyphs" textLength="281" x="182" y="1274.2803">| Generated Mon Apr 22 08:26:02 CDT 2019</text><!--
@startuml single-family-deal


skinparam {
  BorderColor Red
  PathHoverColor Blue
}

skinparam Title {
  FontColor Navy
  BackgroundColor PaleGoldenRod
  BorderColor Navy
  BorderRoundCorner 20
}

skinparam activity {
  BackgroundColor Ivory
  BorderColor CornflowerBlue
  FontColor DimGray
  

  Arrow {
    Color dimgray
    FontColor dimgray
  }

  Start {
    Color PHYSICAL
  }

  End {
    Color Coral
  }

  Diamond {
    BackgroundColor Ivory
    BorderColor CornflowerBlue
    FontColor DarkGray
  }

  BackgroundColor<< Exception >> Red
	BorderColor<< Exception >> White
}

skinparam Swimlane {
  BorderColor CornflowerBlue 
}

skinparam Partition {
  BackgroundColor Ivory
  BorderColor CornflowerBlue
  BorderThickness 1
  FontColor CornflowerBlue
  FontSize 16
  BorderRoundCorner 20
}

skinparam Note {
  BackgroundColor LightSteelBlue
  BorderColor CornflowerBlue
  FontColor White
}

skinparam Legend {
  BackgroundColor LightSteelBlue
  BorderColor CornflowerBlue
  FontColor White
}

skinparam Footer {
  FontColor Navy
}


left header 
	<font color=Navy size=18>[[../index.svg ⌂ Home]]</font>
endheader


	Title Single Family Deal

	start

	[[finding.svg?sanitize=true]]#LightSkyBlue:find;
	:compare;
	[[evaluating.svg?sanitize=true]]#LightSkyBlue:analyse;
	:visit;
	[[negotiating.svg?sanitize=true]]#LightSkyBlue:contract;
	[[due-diligence.svg?sanitize=true]]#LightSkyBlue:inspect;
	[[closing.svg?sanitize=true]]#LightSkyBlue:close;
	fork
		repeat
			fork
				[[rehabbing.svg?sanitize=true]]#LightSkyBlue:rehab;
			fork again
			  [[advertise.svg?sanitize=true]]#LightSkyBlue:advertise;
				[[leasing.svg?sanitize=true]]#LightSkyBlue:lease;
			end fork
			-> move in;
			fork
				:maintain;
			fork again
				repeat
					-><&timer>\nrent due;
					:collect rent;
				repeat while(rent paid?)->yes
				->no;
				[[evict.svg?sanitize=true]]#LightSkyBlue:evict;
			end fork
			-> move out;
		repeat while(keep?)->yes
		->no;
	fork again
		:1-3 years>
	end fork
	[[selling.svg?sanitize=true]]#LightSkyBlue:sell;
	end


left footer 
	<font size=14>©2019 [[http://www.lifestylesunlimited.com LifeStyles Unlimited]] | Generated Mon Apr 22 08:26:02 CDT 2019</font>
endfooter


@enduml

PlantUML version 1.2019.03(Sun Mar 10 06:04:44 CDT 2019)
(GPL source distribution)
Java Runtime: Java(TM) SE Runtime Environment
JVM: Java HotSpot(TM) 64-Bit Server VM
Java Version: 1.8.0_111-b14
Operating System: Windows 10
OS Version: 10.0
Default Encoding: Cp1252
Language: en
Country: US
--></g></svg>