<?xml version="1.0" encoding="UTF-8" standalone="no"?><svg xmlns="http://www.w3.org/2000/svg" xmlns:xlink="http://www.w3.org/1999/xlink" contentScriptType="application/ecmascript" contentStyleType="text/css" height="1181px" preserveAspectRatio="none" style="width:406px;height:1181px;" version="1.1" viewBox="0 0 406 1181" width="406px" zoomAndPan="magnify"><defs><style type="text/css"><![CDATA[path:hover { stroke: #0000FF !important;}]]></style><filter height="300%" id="f150rbgzpoh3ah" width="300%" x="-1" y="-1"><feGaussianBlur result="blurOut" stdDeviation="2.0"/><feColorMatrix in="blurOut" result="blurOut2" type="matrix" values="0 0 0 0 0 0 0 0 0 0 0 0 0 0 0 0 0 0 .4 0"/><feOffset dx="4.0" dy="4.0" in="blurOut2" result="blurOut3"/><feBlend in="SourceGraphic" in2="blurOut3" mode="normal"/></filter></defs><g><a target="_top" xlink:actuate="onRequest" xlink:href="../index.svg" xlink:show="new" xlink:title="../index.svg" xlink:type="simple"><text fill="#0000FF" font-family="sans-serif" font-size="10" lengthAdjust="spacingAndGlyphs" text-decoration="underline" textLength="39" x="10" y="20.3809">⌂ Home</text><line style="stroke: #0000FF; stroke-width: 1.0;" x1="10" x2="49" y1="22.3809" y2="22.3809"/></a><rect fill="#EEE8AA" height="32.6406" rx="10" ry="10" style="stroke: #000080; stroke-width: 1.5;" width="165" x="119" y="24.5781"/><text fill="#000080" font-family="sans-serif" font-size="18" lengthAdjust="spacingAndGlyphs" textLength="149" x="127" y="48.2637">Single Family Deal</text><ellipse cx="199" cy="70.2188" fill="#000080" filter="url(#f150rbgzpoh3ah)" rx="10" ry="10" style="stroke: none; stroke-width: 1.0;"/><rect fill="#FFFFF0" filter="url(#f150rbgzpoh3ah)" height="35.0938" rx="12.5" ry="12.5" style="stroke: #6495ED; stroke-width: 1.5;" width="40" x="179" y="100.2188"/><text fill="#A9A9A9" font-family="sans-serif" font-size="12" lengthAdjust="spacingAndGlyphs" textLength="20" x="189" y="122.6758">find</text><rect fill="#FFFFF0" filter="url(#f150rbgzpoh3ah)" height="35.0938" rx="12.5" ry="12.5" style="stroke: #6495ED; stroke-width: 1.5;" width="69" x="164.5" y="155.3125"/><text fill="#A9A9A9" font-family="sans-serif" font-size="12" lengthAdjust="spacingAndGlyphs" textLength="49" x="174.5" y="177.7695">compare</text><rect fill="#FFFFF0" filter="url(#f150rbgzpoh3ah)" height="35.0938" rx="12.5" ry="12.5" style="stroke: #6495ED; stroke-width: 1.5;" width="63" x="167.5" y="210.4063"/><text fill="#A9A9A9" font-family="sans-serif" font-size="12" lengthAdjust="spacingAndGlyphs" textLength="43" x="177.5" y="232.8633">analyse</text><rect fill="#FFFFF0" filter="url(#f150rbgzpoh3ah)" height="35.0938" rx="12.5" ry="12.5" style="stroke: #6495ED; stroke-width: 1.5;" width="41" x="178.5" y="265.5"/><text fill="#A9A9A9" font-family="sans-serif" font-size="12" lengthAdjust="spacingAndGlyphs" textLength="21" x="188.5" y="287.957">visit</text><rect fill="#FFFFF0" filter="url(#f150rbgzpoh3ah)" height="35.0938" rx="12.5" ry="12.5" style="stroke: #6495ED; stroke-width: 1.5;" width="63" x="167.5" y="320.5938"/><text fill="#A9A9A9" font-family="sans-serif" font-size="12" lengthAdjust="spacingAndGlyphs" textLength="43" x="177.5" y="343.0508">contract</text><rect fill="#FFFFF0" filter="url(#f150rbgzpoh3ah)" height="35.0938" rx="12.5" ry="12.5" style="stroke: #6495ED; stroke-width: 1.5;" width="60" x="169" y="375.6875"/><text fill="#A9A9A9" font-family="sans-serif" font-size="12" lengthAdjust="spacingAndGlyphs" textLength="40" x="179" y="398.1445">inspect</text><rect fill="#FFFFF0" filter="url(#f150rbgzpoh3ah)" height="35.0938" rx="12.5" ry="12.5" style="stroke: #6495ED; stroke-width: 1.5;" width="50" x="174" y="430.7813"/><text fill="#A9A9A9" font-family="sans-serif" font-size="12" lengthAdjust="spacingAndGlyphs" textLength="30" x="184" y="453.2383">close</text><rect fill="#000000" filter="url(#f150rbgzpoh3ah)" height="6" rx="2.5" ry="2.5" style="stroke: #000000; stroke-width: 1.0;" width="378" x="10" y="485.875"/><rect fill="#000000" filter="url(#f150rbgzpoh3ah)" height="6" rx="2.5" ry="2.5" style="stroke: #000000; stroke-width: 1.0;" width="159" x="58" y="555.875"/><rect fill="#FFFFF0" filter="url(#f150rbgzpoh3ah)" height="35.0938" rx="12.5" ry="12.5" style="stroke: #6495ED; stroke-width: 1.5;" width="52" x="72" y="581.875"/><text fill="#A9A9A9" font-family="sans-serif" font-size="12" lengthAdjust="spacingAndGlyphs" textLength="32" x="82" y="604.332">rehab</text><rect fill="#FFFFF0" filter="url(#f150rbgzpoh3ah)" height="35.0938" rx="12.5" ry="12.5" style="stroke: #6495ED; stroke-width: 1.5;" width="51" x="152" y="581.875"/><text fill="#A9A9A9" font-family="sans-serif" font-size="12" lengthAdjust="spacingAndGlyphs" textLength="31" x="162" y="604.332">lease</text><rect fill="#000000" filter="url(#f150rbgzpoh3ah)" height="6" rx="2.5" ry="2.5" style="stroke: #000000; stroke-width: 1.0;" width="159" x="58" y="636.9688"/><rect fill="#000000" filter="url(#f150rbgzpoh3ah)" height="6" rx="2.5" ry="2.5" style="stroke: #000000; stroke-width: 1.0;" width="227" x="24" y="685.2217"/><rect fill="#FFFFF0" filter="url(#f150rbgzpoh3ah)" height="35.0938" rx="12.5" ry="12.5" style="stroke: #6495ED; stroke-width: 1.5;" width="68" x="38" y="818.2686"/><text fill="#A9A9A9" font-family="sans-serif" font-size="12" lengthAdjust="spacingAndGlyphs" textLength="48" x="48" y="840.7256">maintain</text><rect fill="#FFFFF0" filter="url(#f150rbgzpoh3ah)" height="35.0938" rx="12.5" ry="12.5" style="stroke: #6495ED; stroke-width: 1.5;" width="79" x="134" y="783.2217"/><text fill="#A9A9A9" font-family="sans-serif" font-size="12" lengthAdjust="spacingAndGlyphs" textLength="59" x="144" y="805.6787">collect rent</text><polygon fill="#FFFFF0" filter="url(#f150rbgzpoh3ah)" points="173.5,711.2217,185.5,723.2217,173.5,735.2217,161.5,723.2217,173.5,711.2217" style="stroke: #6495ED; stroke-width: 1.5;"/><polygon fill="#FFFFF0" filter="url(#f150rbgzpoh3ah)" points="149.5,866.3154,197.5,866.3154,209.5,878.3154,197.5,890.3154,149.5,890.3154,137.5,878.3154,149.5,866.3154" style="stroke: #6495ED; stroke-width: 1.5;"/><text fill="#A9A9A9" font-family="sans-serif" font-size="11" lengthAdjust="spacingAndGlyphs" textLength="48" x="149.5" y="882.8164">rent paid?</text><rect fill="#FFFFF0" filter="url(#f150rbgzpoh3ah)" height="35.0938" rx="12.5" ry="12.5" style="stroke: #6495ED; stroke-width: 1.5;" width="44" x="151.5" y="910.3154"/><text fill="#A9A9A9" font-family="sans-serif" font-size="12" lengthAdjust="spacingAndGlyphs" textLength="24" x="161.5" y="932.7725">evict</text><rect fill="#000000" filter="url(#f150rbgzpoh3ah)" height="6" rx="2.5" ry="2.5" style="stroke: #000000; stroke-width: 1.0;" width="227" x="24" y="965.4092"/><polygon fill="#FFFFF0" filter="url(#f150rbgzpoh3ah)" points="137.5,511.875,149.5,523.875,137.5,535.875,125.5,523.875,137.5,511.875" style="stroke: #6495ED; stroke-width: 1.5;"/><polygon fill="#FFFFF0" filter="url(#f150rbgzpoh3ah)" points="123,1013.2441,152,1013.2441,164,1025.2441,152,1037.2441,123,1037.2441,111,1025.2441,123,1013.2441" style="stroke: #6495ED; stroke-width: 1.5;"/><text fill="#A9A9A9" font-family="sans-serif" font-size="11" lengthAdjust="spacingAndGlyphs" textLength="29" x="123" y="1029.7451">keep?</text><polygon fill="#FFFFF0" filter="url(#f150rbgzpoh3ah)" points="303,750.3037,374,750.3037,384,767.8506,374,785.3975,303,785.3975" style="stroke: #6495ED; stroke-width: 1.5;"/><text fill="#A9A9A9" font-family="sans-serif" font-size="12" lengthAdjust="spacingAndGlyphs" textLength="51" x="313" y="772.7607">1-3 years</text><rect fill="#000000" filter="url(#f150rbgzpoh3ah)" height="6" rx="2.5" ry="2.5" style="stroke: #000000; stroke-width: 1.0;" width="378" x="10" y="1057.2441"/><rect fill="#FFFFF0" filter="url(#f150rbgzpoh3ah)" height="35.0938" rx="12.5" ry="12.5" style="stroke: #6495ED; stroke-width: 1.5;" width="40" x="179" y="1083.2441"/><text fill="#A9A9A9" font-family="sans-serif" font-size="12" lengthAdjust="spacingAndGlyphs" textLength="20" x="189" y="1105.7012">sell</text><ellipse cx="199" cy="1148.3379" fill="#FFFFFF" filter="url(#f150rbgzpoh3ah)" rx="10" ry="10" style="stroke: #FF0000; stroke-width: 1.5;"/><line style="stroke: #FF0000; stroke-width: 2.5;" x1="192.8128" x2="205.1872" y1="1142.1507" y2="1154.5251"/><line style="stroke: #FF0000; stroke-width: 2.5;" x1="205.1872" x2="192.8128" y1="1142.1507" y2="1154.5251"/><line style="stroke: #696969; stroke-width: 1.5;" x1="199" x2="199" y1="80.2188" y2="100.2188"/><polygon fill="#696969" points="195,90.2188,199,100.2188,203,90.2188,199,94.2188" style="stroke: #696969; stroke-width: 1.0;"/><line style="stroke: #696969; stroke-width: 1.5;" x1="199" x2="199" y1="135.3125" y2="155.3125"/><polygon fill="#696969" points="195,145.3125,199,155.3125,203,145.3125,199,149.3125" style="stroke: #696969; stroke-width: 1.0;"/><line style="stroke: #696969; stroke-width: 1.5;" x1="199" x2="199" y1="190.4063" y2="210.4063"/><polygon fill="#696969" points="195,200.4063,199,210.4063,203,200.4063,199,204.4063" style="stroke: #696969; stroke-width: 1.0;"/><line style="stroke: #696969; stroke-width: 1.5;" x1="199" x2="199" y1="245.5" y2="265.5"/><polygon fill="#696969" points="195,255.5,199,265.5,203,255.5,199,259.5" style="stroke: #696969; stroke-width: 1.0;"/><line style="stroke: #696969; stroke-width: 1.5;" x1="199" x2="199" y1="300.5938" y2="320.5938"/><polygon fill="#696969" points="195,310.5938,199,320.5938,203,310.5938,199,314.5938" style="stroke: #696969; stroke-width: 1.0;"/><line style="stroke: #696969; stroke-width: 1.5;" x1="199" x2="199" y1="355.6875" y2="375.6875"/><polygon fill="#696969" points="195,365.6875,199,375.6875,203,365.6875,199,369.6875" style="stroke: #696969; stroke-width: 1.0;"/><line style="stroke: #696969; stroke-width: 1.5;" x1="199" x2="199" y1="410.7813" y2="430.7813"/><polygon fill="#696969" points="195,420.7813,199,430.7813,203,420.7813,199,424.7813" style="stroke: #696969; stroke-width: 1.0;"/><line style="stroke: #696969; stroke-width: 1.5;" x1="98" x2="98" y1="561.875" y2="581.875"/><polygon fill="#696969" points="94,571.875,98,581.875,102,571.875,98,575.875" style="stroke: #696969; stroke-width: 1.0;"/><line style="stroke: #696969; stroke-width: 1.5;" x1="177.5" x2="177.5" y1="561.875" y2="581.875"/><polygon fill="#696969" points="173.5,571.875,177.5,581.875,181.5,571.875,177.5,575.875" style="stroke: #696969; stroke-width: 1.0;"/><line style="stroke: #696969; stroke-width: 1.5;" x1="98" x2="98" y1="616.9688" y2="636.9688"/><polygon fill="#696969" points="94,626.9688,98,636.9688,102,626.9688,98,630.9688" style="stroke: #696969; stroke-width: 1.0;"/><line style="stroke: #696969; stroke-width: 1.5;" x1="177.5" x2="177.5" y1="616.9688" y2="636.9688"/><polygon fill="#696969" points="173.5,626.9688,177.5,636.9688,181.5,626.9688,177.5,630.9688" style="stroke: #696969; stroke-width: 1.0;"/><line style="stroke: #696969; stroke-width: 1.5;" x1="173.5" x2="173.5" y1="735.2217" y2="783.2217"/><polygon fill="#696969" points="169.5,773.2217,173.5,783.2217,177.5,773.2217,173.5,777.2217" style="stroke: #696969; stroke-width: 1.0;"/><line style="stroke: #696969; stroke-width: 1.5;" x1="209.5" x2="225" y1="878.3154" y2="878.3154"/><polygon fill="#696969" points="221,810.7686,225,800.7686,229,810.7686,225,806.7686" style="stroke: #696969; stroke-width: 1.5;"/><line style="stroke: #696969; stroke-width: 1.5;" x1="225" x2="225" y1="723.2217" y2="878.3154"/><line style="stroke: #696969; stroke-width: 1.5;" x1="225" x2="185.5" y1="723.2217" y2="723.2217"/><polygon fill="#696969" points="195.5,719.2217,185.5,723.2217,195.5,727.2217,191.5,723.2217" style="stroke: #696969; stroke-width: 1.0;"/><line style="stroke: #696969; stroke-width: 1.5;" x1="173.5" x2="173.5" y1="818.3154" y2="866.3154"/><polygon fill="#696969" points="169.5,856.3154,173.5,866.3154,177.5,856.3154,173.5,860.3154" style="stroke: #696969; stroke-width: 1.0;"/><line style="stroke: #696969; stroke-width: 1.5;" x1="173.5" x2="173.5" y1="890.3154" y2="910.3154"/><polygon fill="#696969" points="169.5,900.3154,173.5,910.3154,177.5,900.3154,173.5,904.3154" style="stroke: #696969; stroke-width: 1.0;"/><line style="stroke: #696969; stroke-width: 1.5;" x1="72" x2="72" y1="691.2217" y2="818.2686"/><polygon fill="#696969" points="68,808.2686,72,818.2686,76,808.2686,72,812.2686" style="stroke: #696969; stroke-width: 1.0;"/><line style="stroke: #696969; stroke-width: 1.5;" x1="173.5" x2="173.5" y1="691.2217" y2="711.2217"/><polygon fill="#696969" points="169.5,701.2217,173.5,711.2217,177.5,701.2217,173.5,705.2217" style="stroke: #696969; stroke-width: 1.0;"/><line style="stroke: #696969; stroke-width: 1.5;" x1="72" x2="72" y1="853.3623" y2="965.4092"/><polygon fill="#696969" points="68,955.4092,72,965.4092,76,955.4092,72,959.4092" style="stroke: #696969; stroke-width: 1.0;"/><line style="stroke: #696969; stroke-width: 1.5;" x1="173.5" x2="173.5" y1="945.4092" y2="965.4092"/><polygon fill="#696969" points="169.5,955.4092,173.5,965.4092,177.5,955.4092,173.5,959.4092" style="stroke: #696969; stroke-width: 1.0;"/><line style="stroke: #696969; stroke-width: 1.5;" x1="137.5" x2="137.5" y1="642.9688" y2="685.2217"/><polygon fill="#696969" points="133.5,675.2217,137.5,685.2217,141.5,675.2217,137.5,679.2217" style="stroke: #696969; stroke-width: 1.0;"/><text fill="#696969" font-family="sans-serif" font-size="11" lengthAdjust="spacingAndGlyphs" textLength="37" x="141.5" y="665.3047">move in</text><line style="stroke: #696969; stroke-width: 1.5;" x1="137.5" x2="137.5" y1="535.875" y2="555.875"/><polygon fill="#696969" points="133.5,545.875,137.5,555.875,141.5,545.875,137.5,549.875" style="stroke: #696969; stroke-width: 1.0;"/><line style="stroke: #696969; stroke-width: 1.5;" x1="164" x2="263" y1="1025.2441" y2="1025.2441"/><polygon fill="#696969" points="259,777.8506,263,767.8506,267,777.8506,263,773.8506" style="stroke: #696969; stroke-width: 1.5;"/><line style="stroke: #696969; stroke-width: 1.5;" x1="263" x2="263" y1="523.875" y2="1025.2441"/><line style="stroke: #696969; stroke-width: 1.5;" x1="263" x2="149.5" y1="523.875" y2="523.875"/><polygon fill="#696969" points="159.5,519.875,149.5,523.875,159.5,527.875,155.5,523.875" style="stroke: #696969; stroke-width: 1.0;"/><line style="stroke: #696969; stroke-width: 1.5;" x1="137.5" x2="137.5" y1="971.4092" y2="1013.2441"/><polygon fill="#696969" points="133.5,1003.2441,137.5,1013.2441,141.5,1003.2441,137.5,1007.2441" style="stroke: #696969; stroke-width: 1.0;"/><text fill="#696969" font-family="sans-serif" font-size="11" lengthAdjust="spacingAndGlyphs" textLength="44" x="141.5" y="993.7451">move out</text><line style="stroke: #696969; stroke-width: 1.5;" x1="137.5" x2="137.5" y1="491.875" y2="511.875"/><polygon fill="#696969" points="133.5,501.875,137.5,511.875,141.5,501.875,137.5,505.875" style="stroke: #696969; stroke-width: 1.0;"/><line style="stroke: #696969; stroke-width: 1.5;" x1="338.5" x2="338.5" y1="491.875" y2="750.3037"/><polygon fill="#696969" points="334.5,740.3037,338.5,750.3037,342.5,740.3037,338.5,744.3037" style="stroke: #696969; stroke-width: 1.0;"/><line style="stroke: #696969; stroke-width: 1.5;" x1="137.5" x2="137.5" y1="1037.2441" y2="1057.2441"/><polygon fill="#696969" points="133.5,1047.2441,137.5,1057.2441,141.5,1047.2441,137.5,1051.2441" style="stroke: #696969; stroke-width: 1.0;"/><line style="stroke: #696969; stroke-width: 1.5;" x1="338.5" x2="338.5" y1="785.3975" y2="1057.2441"/><polygon fill="#696969" points="334.5,1047.2441,338.5,1057.2441,342.5,1047.2441,338.5,1051.2441" style="stroke: #696969; stroke-width: 1.0;"/><line style="stroke: #696969; stroke-width: 1.5;" x1="199" x2="199" y1="465.875" y2="485.875"/><polygon fill="#696969" points="195,475.875,199,485.875,203,475.875,199,479.875" style="stroke: #696969; stroke-width: 1.0;"/><line style="stroke: #696969; stroke-width: 1.5;" x1="199" x2="199" y1="1063.2441" y2="1083.2441"/><polygon fill="#696969" points="195,1073.2441,199,1083.2441,203,1073.2441,199,1077.2441" style="stroke: #696969; stroke-width: 1.0;"/><line style="stroke: #696969; stroke-width: 1.5;" x1="199" x2="199" y1="1118.3379" y2="1138.3379"/><polygon fill="#696969" points="195,1128.3379,199,1138.3379,203,1128.3379,199,1132.3379" style="stroke: #696969; stroke-width: 1.0;"/><text fill="#000080" font-family="sans-serif" font-size="10" lengthAdjust="spacingAndGlyphs" textLength="31" x="10" y="1167.7188">©2019</text><a target="_top" xlink:actuate="onRequest" xlink:href="http://www.lifestylesunlimited.com" xlink:show="new" xlink:title="http://www.lifestylesunlimited.com" xlink:type="simple"><text fill="#0000FF" font-family="sans-serif" font-size="10" lengthAdjust="spacingAndGlyphs" text-decoration="underline" textLength="95" x="44" y="1167.7188">LifeStyles Unlimited</text><line style="stroke: #0000FF; stroke-width: 1.0;" x1="44" x2="139" y1="1169.7188" y2="1169.7188"/></a><text fill="#000080" font-family="sans-serif" font-size="10" lengthAdjust="spacingAndGlyphs" textLength="210" x="142" y="1167.7188">| Generated Mon Apr 15 12:34:16 CDT 2019</text><!--
@startuml single-family-deal


skinparam {
  BorderColor Red
  PathHoverColor Blue
}

skinparam Title {
  FontColor Navy
  BackgroundColor PaleGoldenRod
  BorderColor Navy
  BorderRoundCorner 20
}

skinparam activity {
  BackgroundColor Ivory
  BorderColor CornflowerBlue
  FontColor DarkGray

  Arrow {
    Color dimgray
    FontColor dimgray
  }

  Start {
    Color Navy
  }

  End {
    Color Red
  }

  Diamond {
    BackgroundColor Ivory
    BorderColor CornflowerBlue
    FontColor DarkGray
  }

  BackgroundColor<< Exception >> Red
	BorderColor<< Exception >> White
}

skinparam Swimlane {
  BorderColor CornflowerBlue 
}

skinparam Partition {
  BackgroundColor DarkSeaGreen
  BorderColor CornflowerBlue
  BorderThickness 1
  FontColor White
  FontSize 16
}
skinparam Note {
  BackgroundColor LightSteelBlue
  BorderColor CornflowerBlue
  FontColor White
}

skinparam Footer {
  FontColor Navy
}


left header 
	<font color=Navy>[[../index.svg ⌂ Home]]</font>
endheader


	Title Single Family Deal

	start

	:find;
	:compare;
	:analyse;
	:visit;
	:contract;
	:inspect;
	:close;
	fork
		repeat
			fork
				:rehab;
			fork again
				:lease;
			end fork
			-> move in;
			fork
				:maintain;
			fork again
				repeat
					:collect rent;
				repeat while(rent paid?)
				:evict;
			end fork
			-> move out;
		repeat while(keep?)
	fork again
		:1-3 years>
	end fork
	:sell;
	end

left footer 
	©2019 [[http://www.lifestylesunlimited.com LifeStyles Unlimited]] | Generated Mon Apr 15 12:34:16 CDT 2019
endfooter


@enduml

PlantUML version 1.2019.03(Sun Mar 10 06:04:44 CDT 2019)
(GPL source distribution)
Java Runtime: Java(TM) SE Runtime Environment
JVM: Java HotSpot(TM) 64-Bit Server VM
Java Version: 1.8.0_201-b09
Operating System: Windows 10
OS Version: 10.0
Default Encoding: Cp1252
Language: en
Country: US
--></g></svg>