<?xml version="1.0" encoding="UTF-8" standalone="no"?><svg xmlns="http://www.w3.org/2000/svg" xmlns:xlink="http://www.w3.org/1999/xlink" contentScriptType="application/ecmascript" contentStyleType="text/css" height="1273px" preserveAspectRatio="none" style="width:406px;height:1273px;" version="1.1" viewBox="0 0 406 1273" width="406px" zoomAndPan="magnify"><defs><style type="text/css"><![CDATA[path:hover { stroke: #0000FF !important;}]]></style><filter height="300%" id="f13ih0qlsdz0rq" width="300%" x="-1" y="-1"><feGaussianBlur result="blurOut" stdDeviation="2.0"/><feColorMatrix in="blurOut" result="blurOut2" type="matrix" values="0 0 0 0 0 0 0 0 0 0 0 0 0 0 0 0 0 0 .4 0"/><feOffset dx="4.0" dy="4.0" in="blurOut2" result="blurOut3"/><feBlend in="SourceGraphic" in2="blurOut3" mode="normal"/></filter></defs><g><a target="_top" xlink:actuate="onRequest" xlink:href="../index.svg" xlink:show="new" xlink:title="../index.svg" xlink:type="simple"><text fill="#0000FF" font-family="sans-serif" font-size="10" lengthAdjust="spacingAndGlyphs" text-decoration="underline" textLength="39" x="10" y="20.3809">⌂ Home</text><line style="stroke: #0000FF; stroke-width: 1.0;" x1="10" x2="49" y1="22.3809" y2="22.3809"/></a><rect fill="#EEE8AA" height="32.6406" rx="10" ry="10" style="stroke: #000080; stroke-width: 1.5;" width="165" x="119" y="24.5781"/><text fill="#000080" font-family="sans-serif" font-size="18" lengthAdjust="spacingAndGlyphs" textLength="149" x="127" y="48.2637">Single Family Deal</text><ellipse cx="199" cy="70.2188" fill="#CCFFCC" filter="url(#f13ih0qlsdz0rq)" rx="10" ry="10" style="stroke: none; stroke-width: 1.0;"/><a target="_top" xlink:actuate="onRequest" xlink:href="finding.svg?sanitize=true" xlink:show="new" xlink:title="finding.svg?sanitize=true" xlink:type="simple"><rect fill="#87CEFA" filter="url(#f13ih0qlsdz0rq)" height="35.0938" rx="12.5" ry="12.5" style="stroke: #6495ED; stroke-width: 1.5;" width="40" x="179" y="100.2188"/><text fill="#696969" font-family="sans-serif" font-size="12" lengthAdjust="spacingAndGlyphs" textLength="20" x="189" y="122.6758">find</text></a><rect fill="#FFFFF0" filter="url(#f13ih0qlsdz0rq)" height="35.0938" rx="12.5" ry="12.5" style="stroke: #6495ED; stroke-width: 1.5;" width="69" x="164.5" y="155.3125"/><text fill="#696969" font-family="sans-serif" font-size="12" lengthAdjust="spacingAndGlyphs" textLength="49" x="174.5" y="177.7695">compare</text><a target="_top" xlink:actuate="onRequest" xlink:href="evaluating.svg?sanitize=true" xlink:show="new" xlink:title="evaluating.svg?sanitize=true" xlink:type="simple"><rect fill="#87CEFA" filter="url(#f13ih0qlsdz0rq)" height="35.0938" rx="12.5" ry="12.5" style="stroke: #6495ED; stroke-width: 1.5;" width="63" x="167.5" y="210.4063"/><text fill="#696969" font-family="sans-serif" font-size="12" lengthAdjust="spacingAndGlyphs" textLength="43" x="177.5" y="232.8633">analyse</text></a><rect fill="#FFFFF0" filter="url(#f13ih0qlsdz0rq)" height="35.0938" rx="12.5" ry="12.5" style="stroke: #6495ED; stroke-width: 1.5;" width="41" x="178.5" y="265.5"/><text fill="#696969" font-family="sans-serif" font-size="12" lengthAdjust="spacingAndGlyphs" textLength="21" x="188.5" y="287.957">visit</text><a target="_top" xlink:actuate="onRequest" xlink:href="negotiating.svg?sanitize=true" xlink:show="new" xlink:title="negotiating.svg?sanitize=true" xlink:type="simple"><rect fill="#87CEFA" filter="url(#f13ih0qlsdz0rq)" height="35.0938" rx="12.5" ry="12.5" style="stroke: #6495ED; stroke-width: 1.5;" width="63" x="167.5" y="320.5938"/><text fill="#696969" font-family="sans-serif" font-size="12" lengthAdjust="spacingAndGlyphs" textLength="43" x="177.5" y="343.0508">contract</text></a><a target="_top" xlink:actuate="onRequest" xlink:href="due-diligence.svg?sanitize=true" xlink:show="new" xlink:title="due-diligence.svg?sanitize=true" xlink:type="simple"><rect fill="#87CEFA" filter="url(#f13ih0qlsdz0rq)" height="35.0938" rx="12.5" ry="12.5" style="stroke: #6495ED; stroke-width: 1.5;" width="60" x="169" y="375.6875"/><text fill="#696969" font-family="sans-serif" font-size="12" lengthAdjust="spacingAndGlyphs" textLength="40" x="179" y="398.1445">inspect</text></a><a target="_top" xlink:actuate="onRequest" xlink:href="closing.svg?sanitize=true" xlink:show="new" xlink:title="closing.svg?sanitize=true" xlink:type="simple"><rect fill="#87CEFA" filter="url(#f13ih0qlsdz0rq)" height="35.0938" rx="12.5" ry="12.5" style="stroke: #6495ED; stroke-width: 1.5;" width="50" x="174" y="430.7813"/><text fill="#696969" font-family="sans-serif" font-size="12" lengthAdjust="spacingAndGlyphs" textLength="30" x="184" y="453.2383">close</text></a><rect fill="#000000" filter="url(#f13ih0qlsdz0rq)" height="6" rx="2.5" ry="2.5" style="stroke: #000000; stroke-width: 1.0;" width="378" x="10" y="485.875"/><rect fill="#000000" filter="url(#f13ih0qlsdz0rq)" height="6" rx="2.5" ry="2.5" style="stroke: #000000; stroke-width: 1.0;" width="178" x="48.5" y="555.875"/><a target="_top" xlink:actuate="onRequest" xlink:href="rehabbing.svg?sanitize=true" xlink:show="new" xlink:title="rehabbing.svg?sanitize=true" xlink:type="simple"><rect fill="#87CEFA" filter="url(#f13ih0qlsdz0rq)" height="35.0938" rx="12.5" ry="12.5" style="stroke: #6495ED; stroke-width: 1.5;" width="52" x="62.5" y="616.9219"/><text fill="#696969" font-family="sans-serif" font-size="12" lengthAdjust="spacingAndGlyphs" textLength="32" x="72.5" y="639.3789">rehab</text></a><a target="_top" xlink:actuate="onRequest" xlink:href="advertise.svg?sanitize=true" xlink:show="new" xlink:title="advertise.svg?sanitize=true" xlink:type="simple"><rect fill="#87CEFA" filter="url(#f13ih0qlsdz0rq)" height="35.0938" rx="12.5" ry="12.5" style="stroke: #6495ED; stroke-width: 1.5;" width="70" x="142.5" y="581.875"/><text fill="#696969" font-family="sans-serif" font-size="12" lengthAdjust="spacingAndGlyphs" textLength="50" x="152.5" y="604.332">advertise</text></a><a target="_top" xlink:actuate="onRequest" xlink:href="leasing.svg?sanitize=true" xlink:show="new" xlink:title="leasing.svg?sanitize=true" xlink:type="simple"><rect fill="#87CEFA" filter="url(#f13ih0qlsdz0rq)" height="35.0938" rx="12.5" ry="12.5" style="stroke: #6495ED; stroke-width: 1.5;" width="51" x="152" y="651.9688"/><text fill="#696969" font-family="sans-serif" font-size="12" lengthAdjust="spacingAndGlyphs" textLength="31" x="162" y="674.4258">lease</text></a><rect fill="#000000" filter="url(#f13ih0qlsdz0rq)" height="6" rx="2.5" ry="2.5" style="stroke: #000000; stroke-width: 1.0;" width="178" x="48.5" y="707.0625"/><rect fill="#000000" filter="url(#f13ih0qlsdz0rq)" height="6" rx="2.5" ry="2.5" style="stroke: #000000; stroke-width: 1.0;" width="227" x="24" y="755.3154"/><rect fill="#FFFFF0" filter="url(#f13ih0qlsdz0rq)" height="35.0938" rx="12.5" ry="12.5" style="stroke: #6495ED; stroke-width: 1.5;" width="68" x="38" y="895.2803"/><text fill="#696969" font-family="sans-serif" font-size="12" lengthAdjust="spacingAndGlyphs" textLength="48" x="48" y="917.7373">maintain</text><rect fill="#FFFFF0" filter="url(#f13ih0qlsdz0rq)" height="35.0938" rx="12.5" ry="12.5" style="stroke: #6495ED; stroke-width: 1.5;" width="79" x="134" y="853.3154"/><text fill="#696969" font-family="sans-serif" font-size="12" lengthAdjust="spacingAndGlyphs" textLength="59" x="144" y="875.7725">collect rent</text><polygon fill="#FFFFF0" filter="url(#f13ih0qlsdz0rq)" points="173.5,781.3154,185.5,793.3154,173.5,805.3154,161.5,793.3154,173.5,781.3154" style="stroke: #6495ED; stroke-width: 1.5;"/><polygon fill="#FFFFF0" filter="url(#f13ih0qlsdz0rq)" points="149.5,936.4092,197.5,936.4092,209.5,948.4092,197.5,960.4092,149.5,960.4092,137.5,948.4092,149.5,936.4092" style="stroke: #6495ED; stroke-width: 1.5;"/><text fill="#A9A9A9" font-family="sans-serif" font-size="11" lengthAdjust="spacingAndGlyphs" textLength="48" x="149.5" y="952.9102">rent paid?</text><a target="_top" xlink:actuate="onRequest" xlink:href="evict.svg?sanitize=true" xlink:show="new" xlink:title="evict.svg?sanitize=true" xlink:type="simple"><rect fill="#87CEFA" filter="url(#f13ih0qlsdz0rq)" height="35.0938" rx="12.5" ry="12.5" style="stroke: #6495ED; stroke-width: 1.5;" width="44" x="151.5" y="1002.6621"/><text fill="#696969" font-family="sans-serif" font-size="12" lengthAdjust="spacingAndGlyphs" textLength="24" x="161.5" y="1025.1191">evict</text></a><rect fill="#000000" filter="url(#f13ih0qlsdz0rq)" height="6" rx="2.5" ry="2.5" style="stroke: #000000; stroke-width: 1.0;" width="227" x="24" y="1057.7559"/><polygon fill="#FFFFF0" filter="url(#f13ih0qlsdz0rq)" points="137.5,511.875,149.5,523.875,137.5,535.875,125.5,523.875,137.5,511.875" style="stroke: #6495ED; stroke-width: 1.5;"/><polygon fill="#FFFFF0" filter="url(#f13ih0qlsdz0rq)" points="123,1105.5908,152,1105.5908,164,1117.5908,152,1129.5908,123,1129.5908,111,1117.5908,123,1105.5908" style="stroke: #6495ED; stroke-width: 1.5;"/><text fill="#A9A9A9" font-family="sans-serif" font-size="11" lengthAdjust="spacingAndGlyphs" textLength="29" x="123" y="1122.0918">keep?</text><polygon fill="#FFFFF0" filter="url(#f13ih0qlsdz0rq)" points="303,792.2686,374,792.2686,384,809.8154,374,827.3623,303,827.3623" style="stroke: #6495ED; stroke-width: 1.5;"/><text fill="#696969" font-family="sans-serif" font-size="12" lengthAdjust="spacingAndGlyphs" textLength="51" x="313" y="814.7256">1-3 years</text><rect fill="#000000" filter="url(#f13ih0qlsdz0rq)" height="6" rx="2.5" ry="2.5" style="stroke: #000000; stroke-width: 1.0;" width="378" x="10" y="1149.5908"/><a target="_top" xlink:actuate="onRequest" xlink:href="selling.svg?sanitize=true" xlink:show="new" xlink:title="selling.svg?sanitize=true" xlink:type="simple"><rect fill="#87CEFA" filter="url(#f13ih0qlsdz0rq)" height="35.0938" rx="12.5" ry="12.5" style="stroke: #6495ED; stroke-width: 1.5;" width="40" x="179" y="1175.5908"/><text fill="#696969" font-family="sans-serif" font-size="12" lengthAdjust="spacingAndGlyphs" textLength="20" x="189" y="1198.0479">sell</text></a><ellipse cx="199" cy="1240.6846" fill="#FFFFFF" filter="url(#f13ih0qlsdz0rq)" rx="10" ry="10" style="stroke: #FF7F50; stroke-width: 1.5;"/><line style="stroke: #FF7F50; stroke-width: 2.5;" x1="192.8128" x2="205.1872" y1="1234.4974" y2="1246.8718"/><line style="stroke: #FF7F50; stroke-width: 2.5;" x1="205.1872" x2="192.8128" y1="1234.4974" y2="1246.8718"/><line style="stroke: #696969; stroke-width: 1.5;" x1="199" x2="199" y1="80.2188" y2="100.2188"/><polygon fill="#696969" points="195,90.2188,199,100.2188,203,90.2188,199,94.2188" style="stroke: #696969; stroke-width: 1.0;"/><line style="stroke: #696969; stroke-width: 1.5;" x1="199" x2="199" y1="135.3125" y2="155.3125"/><polygon fill="#696969" points="195,145.3125,199,155.3125,203,145.3125,199,149.3125" style="stroke: #696969; stroke-width: 1.0;"/><line style="stroke: #696969; stroke-width: 1.5;" x1="199" x2="199" y1="190.4063" y2="210.4063"/><polygon fill="#696969" points="195,200.4063,199,210.4063,203,200.4063,199,204.4063" style="stroke: #696969; stroke-width: 1.0;"/><line style="stroke: #696969; stroke-width: 1.5;" x1="199" x2="199" y1="245.5" y2="265.5"/><polygon fill="#696969" points="195,255.5,199,265.5,203,255.5,199,259.5" style="stroke: #696969; stroke-width: 1.0;"/><line style="stroke: #696969; stroke-width: 1.5;" x1="199" x2="199" y1="300.5938" y2="320.5938"/><polygon fill="#696969" points="195,310.5938,199,320.5938,203,310.5938,199,314.5938" style="stroke: #696969; stroke-width: 1.0;"/><line style="stroke: #696969; stroke-width: 1.5;" x1="199" x2="199" y1="355.6875" y2="375.6875"/><polygon fill="#696969" points="195,365.6875,199,375.6875,203,365.6875,199,369.6875" style="stroke: #696969; stroke-width: 1.0;"/><line style="stroke: #696969; stroke-width: 1.5;" x1="199" x2="199" y1="410.7813" y2="430.7813"/><polygon fill="#696969" points="195,420.7813,199,430.7813,203,420.7813,199,424.7813" style="stroke: #696969; stroke-width: 1.0;"/><line style="stroke: #696969; stroke-width: 1.5;" x1="177.5" x2="177.5" y1="616.9688" y2="651.9688"/><polygon fill="#696969" points="173.5,641.9688,177.5,651.9688,181.5,641.9688,177.5,645.9688" style="stroke: #696969; stroke-width: 1.0;"/><line style="stroke: #696969; stroke-width: 1.5;" x1="88.5" x2="88.5" y1="561.875" y2="616.9219"/><polygon fill="#696969" points="84.5,606.9219,88.5,616.9219,92.5,606.9219,88.5,610.9219" style="stroke: #696969; stroke-width: 1.0;"/><line style="stroke: #696969; stroke-width: 1.5;" x1="177.5" x2="177.5" y1="561.875" y2="581.875"/><polygon fill="#696969" points="173.5,571.875,177.5,581.875,181.5,571.875,177.5,575.875" style="stroke: #696969; stroke-width: 1.0;"/><line style="stroke: #696969; stroke-width: 1.5;" x1="88.5" x2="88.5" y1="652.0156" y2="707.0625"/><polygon fill="#696969" points="84.5,697.0625,88.5,707.0625,92.5,697.0625,88.5,701.0625" style="stroke: #696969; stroke-width: 1.0;"/><line style="stroke: #696969; stroke-width: 1.5;" x1="177.5" x2="177.5" y1="687.0625" y2="707.0625"/><polygon fill="#696969" points="173.5,697.0625,177.5,707.0625,181.5,697.0625,177.5,701.0625" style="stroke: #696969; stroke-width: 1.0;"/><line style="stroke: #696969; stroke-width: 1.5;" x1="173.5" x2="173.5" y1="805.3154" y2="853.3154"/><polygon fill="#696969" points="169.5,843.3154,173.5,853.3154,177.5,843.3154,173.5,847.3154" style="stroke: #696969; stroke-width: 1.0;"/><path d="M180.3333,818.7308 L180.3333,819.6475 L181.25,819.6475 L181.25,819.6759 C179.6944,819.8968 178.5,821.2406 178.5,822.8558 C178.5,824.624 179.9401,826.0641 181.7083,826.0641 C183.4766,826.0641 184.9167,824.624 184.9167,822.8558 C184.9167,822.4433 184.8378,822.0546 184.7159,821.71 L183.8561,822.0253 C183.9542,822.304 183.9991,822.5716 183.9991,822.8558 C183.9991,824.1309 182.9825,825.1475 181.7074,825.1475 C180.4323,825.1475 179.4158,824.1309 179.4158,822.8558 C179.4158,821.5807 180.4323,820.5641 181.7074,820.5641 C181.9806,820.5641 182.2437,820.6109 182.5095,820.7071 L182.8248,819.8473 C182.6223,819.773 182.3931,819.7382 182.1658,819.7043 L182.1658,819.6465 L183.0824,819.6465 L183.0824,818.7299 L180.3324,818.7299 M184.9158,819.7611 C181.547,822.3278 181.547,822.3278 181.3637,822.5111 C181.1803,822.6945 181.1803,822.9869 181.3637,823.1702 C181.547,823.3535 181.8394,823.3535 182.0228,823.1702 C182.2061,822.996 184.9158,819.7611 184.9158,819.7611 " fill="#696969" style="stroke: ; stroke-width: 0.0; stroke-dasharray: ;"/><text fill="#696969" font-family="sans-serif" font-size="11" lengthAdjust="spacingAndGlyphs" textLength="40" x="177.5" y="837.4831">rent due</text><line style="stroke: #696969; stroke-width: 1.5;" x1="209.5" x2="225" y1="948.4092" y2="948.4092"/><polygon fill="#696969" points="221,880.8623,225,870.8623,229,880.8623,225,876.8623" style="stroke: #696969; stroke-width: 1.5;"/><line style="stroke: #696969; stroke-width: 1.5;" x1="225" x2="225" y1="793.3154" y2="948.4092"/><line style="stroke: #696969; stroke-width: 1.5;" x1="225" x2="185.5" y1="793.3154" y2="793.3154"/><polygon fill="#696969" points="195.5,789.3154,185.5,793.3154,195.5,797.3154,191.5,793.3154" style="stroke: #696969; stroke-width: 1.0;"/><text fill="#696969" font-family="sans-serif" font-size="11" lengthAdjust="spacingAndGlyphs" textLength="18" x="229" y="952.9102">yes</text><line style="stroke: #696969; stroke-width: 1.5;" x1="173.5" x2="173.5" y1="888.4092" y2="936.4092"/><polygon fill="#696969" points="169.5,926.4092,173.5,936.4092,177.5,926.4092,173.5,930.4092" style="stroke: #696969; stroke-width: 1.0;"/><line style="stroke: #696969; stroke-width: 1.5;" x1="173.5" x2="173.5" y1="960.4092" y2="1002.6621"/><polygon fill="#696969" points="169.5,992.6621,173.5,1002.6621,177.5,992.6621,173.5,996.6621" style="stroke: #696969; stroke-width: 1.0;"/><text fill="#696969" font-family="sans-serif" font-size="11" lengthAdjust="spacingAndGlyphs" textLength="12" x="177.5" y="982.7451">no</text><line style="stroke: #696969; stroke-width: 1.5;" x1="72" x2="72" y1="761.3154" y2="895.2803"/><polygon fill="#696969" points="68,885.2803,72,895.2803,76,885.2803,72,889.2803" style="stroke: #696969; stroke-width: 1.0;"/><line style="stroke: #696969; stroke-width: 1.5;" x1="173.5" x2="173.5" y1="761.3154" y2="781.3154"/><polygon fill="#696969" points="169.5,771.3154,173.5,781.3154,177.5,771.3154,173.5,775.3154" style="stroke: #696969; stroke-width: 1.0;"/><line style="stroke: #696969; stroke-width: 1.5;" x1="72" x2="72" y1="930.374" y2="1057.7559"/><polygon fill="#696969" points="68,1047.7559,72,1057.7559,76,1047.7559,72,1051.7559" style="stroke: #696969; stroke-width: 1.0;"/><line style="stroke: #696969; stroke-width: 1.5;" x1="173.5" x2="173.5" y1="1037.7559" y2="1057.7559"/><polygon fill="#696969" points="169.5,1047.7559,173.5,1057.7559,177.5,1047.7559,173.5,1051.7559" style="stroke: #696969; stroke-width: 1.0;"/><line style="stroke: #696969; stroke-width: 1.5;" x1="137.5" x2="137.5" y1="713.0625" y2="755.3154"/><polygon fill="#696969" points="133.5,745.3154,137.5,755.3154,141.5,745.3154,137.5,749.3154" style="stroke: #696969; stroke-width: 1.0;"/><text fill="#696969" font-family="sans-serif" font-size="11" lengthAdjust="spacingAndGlyphs" textLength="37" x="141.5" y="735.3984">move in</text><line style="stroke: #696969; stroke-width: 1.5;" x1="137.5" x2="137.5" y1="535.875" y2="555.875"/><polygon fill="#696969" points="133.5,545.875,137.5,555.875,141.5,545.875,137.5,549.875" style="stroke: #696969; stroke-width: 1.0;"/><line style="stroke: #696969; stroke-width: 1.5;" x1="164" x2="263" y1="1117.5908" y2="1117.5908"/><polygon fill="#696969" points="259,819.8154,263,809.8154,267,819.8154,263,815.8154" style="stroke: #696969; stroke-width: 1.5;"/><line style="stroke: #696969; stroke-width: 1.5;" x1="263" x2="263" y1="523.875" y2="1117.5908"/><line style="stroke: #696969; stroke-width: 1.5;" x1="263" x2="149.5" y1="523.875" y2="523.875"/><polygon fill="#696969" points="159.5,519.875,149.5,523.875,159.5,527.875,155.5,523.875" style="stroke: #696969; stroke-width: 1.0;"/><text fill="#696969" font-family="sans-serif" font-size="11" lengthAdjust="spacingAndGlyphs" textLength="18" x="267" y="1122.0918">yes</text><line style="stroke: #696969; stroke-width: 1.5;" x1="137.5" x2="137.5" y1="1063.7559" y2="1105.5908"/><polygon fill="#696969" points="133.5,1095.5908,137.5,1105.5908,141.5,1095.5908,137.5,1099.5908" style="stroke: #696969; stroke-width: 1.0;"/><text fill="#696969" font-family="sans-serif" font-size="11" lengthAdjust="spacingAndGlyphs" textLength="44" x="141.5" y="1086.0918">move out</text><line style="stroke: #696969; stroke-width: 1.5;" x1="137.5" x2="137.5" y1="491.875" y2="511.875"/><polygon fill="#696969" points="133.5,501.875,137.5,511.875,141.5,501.875,137.5,505.875" style="stroke: #696969; stroke-width: 1.0;"/><line style="stroke: #696969; stroke-width: 1.5;" x1="338.5" x2="338.5" y1="491.875" y2="792.2686"/><polygon fill="#696969" points="334.5,782.2686,338.5,792.2686,342.5,782.2686,338.5,786.2686" style="stroke: #696969; stroke-width: 1.0;"/><line style="stroke: #696969; stroke-width: 1.5;" x1="137.5" x2="137.5" y1="1129.5908" y2="1149.5908"/><polygon fill="#696969" points="133.5,1139.5908,137.5,1149.5908,141.5,1139.5908,137.5,1143.5908" style="stroke: #696969; stroke-width: 1.0;"/><text fill="#696969" font-family="sans-serif" font-size="11" lengthAdjust="spacingAndGlyphs" textLength="12" x="141.5" y="1144.0918">no</text><line style="stroke: #696969; stroke-width: 1.5;" x1="338.5" x2="338.5" y1="827.3623" y2="1149.5908"/><polygon fill="#696969" points="334.5,1139.5908,338.5,1149.5908,342.5,1139.5908,338.5,1143.5908" style="stroke: #696969; stroke-width: 1.0;"/><line style="stroke: #696969; stroke-width: 1.5;" x1="199" x2="199" y1="465.875" y2="485.875"/><polygon fill="#696969" points="195,475.875,199,485.875,203,475.875,199,479.875" style="stroke: #696969; stroke-width: 1.0;"/><line style="stroke: #696969; stroke-width: 1.5;" x1="199" x2="199" y1="1155.5908" y2="1175.5908"/><polygon fill="#696969" points="195,1165.5908,199,1175.5908,203,1165.5908,199,1169.5908" style="stroke: #696969; stroke-width: 1.0;"/><line style="stroke: #696969; stroke-width: 1.5;" x1="199" x2="199" y1="1210.6846" y2="1230.6846"/><polygon fill="#696969" points="195,1220.6846,199,1230.6846,203,1220.6846,199,1224.6846" style="stroke: #696969; stroke-width: 1.0;"/><text fill="#000080" font-family="sans-serif" font-size="10" lengthAdjust="spacingAndGlyphs" textLength="31" x="10" y="1260.0654">©2019</text><a target="_top" xlink:actuate="onRequest" xlink:href="http://www.lifestylesunlimited.com" xlink:show="new" xlink:title="http://www.lifestylesunlimited.com" xlink:type="simple"><text fill="#0000FF" font-family="sans-serif" font-size="10" lengthAdjust="spacingAndGlyphs" text-decoration="underline" textLength="95" x="44" y="1260.0654">LifeStyles Unlimited</text><line style="stroke: #0000FF; stroke-width: 1.0;" x1="44" x2="139" y1="1262.0654" y2="1262.0654"/></a><text fill="#000080" font-family="sans-serif" font-size="10" lengthAdjust="spacingAndGlyphs" textLength="205" x="142" y="1260.0654">| Generated Sat Apr 20 19:28:24 CDT 2019</text><!--
@startuml single-family-deal


skinparam {
  BorderColor Red
  PathHoverColor Blue
}

skinparam Title {
  FontColor Navy
  BackgroundColor PaleGoldenRod
  BorderColor Navy
  BorderRoundCorner 20
}

skinparam activity {
  BackgroundColor Ivory
  BorderColor CornflowerBlue
  FontColor DimGray
  

  Arrow {
    Color dimgray
    FontColor dimgray
  }

  Start {
    Color PHYSICAL
  }

  End {
    Color Coral
  }

  Diamond {
    BackgroundColor Ivory
    BorderColor CornflowerBlue
    FontColor DarkGray
  }

  BackgroundColor<< Exception >> Red
	BorderColor<< Exception >> White
}

skinparam Swimlane {
  BorderColor CornflowerBlue 
}

skinparam Partition {
  BackgroundColor Ivory
  BorderColor CornflowerBlue
  BorderThickness 1
  FontColor CornflowerBlue
  FontSize 16
  BorderRoundCorner 20
}

skinparam Note {
  BackgroundColor LightSteelBlue
  BorderColor CornflowerBlue
  FontColor White
}

skinparam Legend {
  BackgroundColor LightSteelBlue
  BorderColor CornflowerBlue
  FontColor White
}

skinparam Footer {
  FontColor Navy
}


left header 
	<font color=Navy>[[../index.svg ⌂ Home]]</font>
endheader


	Title Single Family Deal

	start

	[[finding.svg?sanitize=true]]#LightSkyBlue:find;
	:compare;
	[[evaluating.svg?sanitize=true]]#LightSkyBlue:analyse;
	:visit;
	[[negotiating.svg?sanitize=true]]#LightSkyBlue:contract;
	[[due-diligence.svg?sanitize=true]]#LightSkyBlue:inspect;
	[[closing.svg?sanitize=true]]#LightSkyBlue:close;
	fork
		repeat
			fork
				[[rehabbing.svg?sanitize=true]]#LightSkyBlue:rehab;
			fork again
			  [[advertise.svg?sanitize=true]]#LightSkyBlue:advertise;
				[[leasing.svg?sanitize=true]]#LightSkyBlue:lease;
			end fork
			-> move in;
			fork
				:maintain;
			fork again
				repeat
					-><&timer>\nrent due;
					:collect rent;
				repeat while(rent paid?)->yes
				->no;
				[[evict.svg?sanitize=true]]#LightSkyBlue:evict;
			end fork
			-> move out;
		repeat while(keep?)->yes
		->no;
	fork again
		:1-3 years>
	end fork
	[[selling.svg?sanitize=true]]#LightSkyBlue:sell;
	end


left footer 
	©2019 [[http://www.lifestylesunlimited.com LifeStyles Unlimited]] | Generated Sat Apr 20 19:28:24 CDT 2019
endfooter


@enduml

PlantUML version 1.2019.03(Sun Mar 10 06:04:44 CDT 2019)
(GPL source distribution)
Java Runtime: Java(TM) SE Runtime Environment
JVM: Java HotSpot(TM) 64-Bit Server VM
Java Version: 1.8.0_111-b14
Operating System: Windows 10
OS Version: 10.0
Default Encoding: Cp1252
Language: en
Country: US
--></g></svg>