<?xml version="1.0" encoding="UTF-8" standalone="no"?><svg xmlns="http://www.w3.org/2000/svg" xmlns:xlink="http://www.w3.org/1999/xlink" contentScriptType="application/ecmascript" contentStyleType="text/css" height="1673px" preserveAspectRatio="none" style="width:840px;height:1673px;" version="1.1" viewBox="0 0 840 1673" width="840px" zoomAndPan="magnify"><defs><style type="text/css"><![CDATA[path:hover { stroke: #0000FF !important;}]]></style><filter height="300%" id="f1p7kq88vdadxz" width="300%" x="-1" y="-1"><feGaussianBlur result="blurOut" stdDeviation="2.0"/><feColorMatrix in="blurOut" result="blurOut2" type="matrix" values="0 0 0 0 0 0 0 0 0 0 0 0 0 0 0 0 0 0 .4 0"/><feOffset dx="4.0" dy="4.0" in="blurOut2" result="blurOut3"/><feBlend in="SourceGraphic" in2="blurOut3" mode="normal"/></filter></defs><g><a href="../index.svg?sanitize=true" target="_top" xlink:actuate="onRequest" xlink:show="new" xlink:title="../index.svg?sanitize=true" xlink:type="simple"><text fill="#0000FF" font-family="sans-serif" font-size="24" lengthAdjust="spacingAndGlyphs" text-decoration="underline" textLength="90" x="10" y="34.9141">⌂ Home</text></a><rect fill="#EEE8AA" height="40.1875" rx="10" ry="10" style="stroke: #000080; stroke-width: 1.5;" width="218" x="309.5" y="42.1875"/><text fill="#000080" font-family="sans-serif" font-size="24" lengthAdjust="spacingAndGlyphs" textLength="202" x="317.5" y="72.1016">Single Family Deal</text><ellipse cx="417.5" cy="95.375" fill="#CCFFCC" filter="url(#f1p7kq88vdadxz)" rx="10" ry="10" style="stroke: none; stroke-width: 1.0;"/><a href="../unlimited-lifestyle/insuring.svg?sanitize=true" target="_top" xlink:actuate="onRequest" xlink:show="new" xlink:title="../unlimited-lifestyle/insuring.svg?sanitize=true" xlink:type="simple"><rect fill="#87CEFA" filter="url(#f1p7kq88vdadxz)" height="35.0938" rx="12.5" ry="12.5" style="stroke: #6495ED; stroke-width: 1.0;" width="55" x="390" y="125.375"/><text fill="#696969" font-family="sans-serif" font-size="12" lengthAdjust="spacingAndGlyphs" textLength="35" x="400" y="147.832">insure</text></a><a href="finding.svg?sanitize=true" target="_top" xlink:actuate="onRequest" xlink:show="new" xlink:title="finding.svg?sanitize=true" xlink:type="simple"><rect fill="#87CEFA" filter="url(#f1p7kq88vdadxz)" height="35.0938" rx="12.5" ry="12.5" style="stroke: #6495ED; stroke-width: 1.0;" width="40" x="397.5" y="180.4688"/><text fill="#696969" font-family="sans-serif" font-size="12" lengthAdjust="spacingAndGlyphs" textLength="20" x="407.5" y="202.9258">find</text></a><rect fill="#FFFFF0" filter="url(#f1p7kq88vdadxz)" height="35.0938" rx="12.5" ry="12.5" style="stroke: #6495ED; stroke-width: 1.0;" width="69" x="383" y="235.5625"/><text fill="#696969" font-family="sans-serif" font-size="12" lengthAdjust="spacingAndGlyphs" textLength="49" x="393" y="258.0195">compare</text><a href="evaluating.svg?sanitize=true" target="_top" xlink:actuate="onRequest" xlink:show="new" xlink:title="evaluating.svg?sanitize=true" xlink:type="simple"><rect fill="#87CEFA" filter="url(#f1p7kq88vdadxz)" height="35.0938" rx="12.5" ry="12.5" style="stroke: #6495ED; stroke-width: 1.0;" width="63" x="386" y="290.6563"/><text fill="#696969" font-family="sans-serif" font-size="12" lengthAdjust="spacingAndGlyphs" textLength="43" x="396" y="313.1133">analyse</text></a><rect fill="#FFFFF0" filter="url(#f1p7kq88vdadxz)" height="35.0938" rx="12.5" ry="12.5" style="stroke: #6495ED; stroke-width: 1.0;" width="41" x="397" y="345.75"/><text fill="#696969" font-family="sans-serif" font-size="12" lengthAdjust="spacingAndGlyphs" textLength="21" x="407" y="368.207">visit</text><path d="M469,390.8438 L469,416.3711 L449,420.3711 L469,424.3711 L469,449.8984 A0,0 0 0 0 469,449.8984 L612,449.8984 A0,0 0 0 0 612,449.8984 L612,400.8438 L602,390.8438 L469,390.8438 A0,0 0 0 0 469,390.8438 " fill="#B0C4DE" filter="url(#f1p7kq88vdadxz)" style="stroke: #6495ED; stroke-width: 1.0;"/><path d="M602,390.8438 L602,400.8438 L612,400.8438 L602,390.8438 " fill="#B0C4DE" style="stroke: #6495ED; stroke-width: 1.0;"/><text fill="#FFFFFF" font-family="sans-serif" font-size="13" lengthAdjust="spacingAndGlyphs" textLength="122" x="475" y="409.3389">need to make money</text><text fill="#FFFFFF" font-family="sans-serif" font-size="13" lengthAdjust="spacingAndGlyphs" textLength="94" x="475" y="425.6904">on the front end,</text><text fill="#FFFFFF" font-family="sans-serif" font-size="13" lengthAdjust="spacingAndGlyphs" textLength="97" x="475" y="442.042">not the back end</text><a href="negotiating.svg?sanitize=true" target="_top" xlink:actuate="onRequest" xlink:show="new" xlink:title="negotiating.svg?sanitize=true" xlink:type="simple"><rect fill="#87CEFA" filter="url(#f1p7kq88vdadxz)" height="35.0938" rx="12.5" ry="12.5" style="stroke: #6495ED; stroke-width: 1.0;" width="63" x="386" y="402.8242"/><text fill="#696969" font-family="sans-serif" font-size="12" lengthAdjust="spacingAndGlyphs" textLength="43" x="396" y="425.2813">contract</text></a><a href="due-diligence.svg?sanitize=true" target="_top" xlink:actuate="onRequest" xlink:show="new" xlink:title="due-diligence.svg?sanitize=true" xlink:type="simple"><rect fill="#87CEFA" filter="url(#f1p7kq88vdadxz)" height="35.0938" rx="12.5" ry="12.5" style="stroke: #6495ED; stroke-width: 1.0;" width="60" x="387.5" y="469.8984"/><text fill="#696969" font-family="sans-serif" font-size="12" lengthAdjust="spacingAndGlyphs" textLength="40" x="397.5" y="492.3555">inspect</text></a><a href="closing.svg?sanitize=true" target="_top" xlink:actuate="onRequest" xlink:show="new" xlink:title="closing.svg?sanitize=true" xlink:type="simple"><rect fill="#87CEFA" filter="url(#f1p7kq88vdadxz)" height="35.0938" rx="12.5" ry="12.5" style="stroke: #6495ED; stroke-width: 1.0;" width="50" x="392.5" y="524.9922"/><text fill="#696969" font-family="sans-serif" font-size="12" lengthAdjust="spacingAndGlyphs" textLength="30" x="402.5" y="547.4492">close</text></a><rect fill="#000000" filter="url(#f1p7kq88vdadxz)" height="6" rx="2.5" ry="2.5" style="stroke: #000000; stroke-width: 1.0;" width="819" x="10" y="580.0859"/><rect fill="#000000" filter="url(#f1p7kq88vdadxz)" height="6" rx="2.5" ry="2.5" style="stroke: #000000; stroke-width: 1.0;" width="462" x="22" y="650.0859"/><rect fill="#000000" filter="url(#f1p7kq88vdadxz)" height="6" rx="2.5" ry="2.5" style="stroke: #000000; stroke-width: 1.0;" width="178" x="79.5" y="676.0859"/><a href="rehabbing.svg?sanitize=true" target="_top" xlink:actuate="onRequest" xlink:show="new" xlink:title="rehabbing.svg?sanitize=true" xlink:type="simple"><rect fill="#87CEFA" filter="url(#f1p7kq88vdadxz)" height="35.0938" rx="12.5" ry="12.5" style="stroke: #6495ED; stroke-width: 1.0;" width="52" x="93.5" y="737.1328"/><text fill="#696969" font-family="sans-serif" font-size="12" lengthAdjust="spacingAndGlyphs" textLength="32" x="103.5" y="759.5898">rehab</text></a><a href="advertising.svg?sanitize=true" target="_top" xlink:actuate="onRequest" xlink:show="new" xlink:title="advertising.svg?sanitize=true" xlink:type="simple"><rect fill="#87CEFA" filter="url(#f1p7kq88vdadxz)" height="35.0938" rx="12.5" ry="12.5" style="stroke: #6495ED; stroke-width: 1.0;" width="70" x="173.5" y="702.0859"/><text fill="#696969" font-family="sans-serif" font-size="12" lengthAdjust="spacingAndGlyphs" textLength="50" x="183.5" y="724.543">advertise</text></a><a href="leasing.svg?sanitize=true" target="_top" xlink:actuate="onRequest" xlink:show="new" xlink:title="leasing.svg?sanitize=true" xlink:type="simple"><rect fill="#87CEFA" filter="url(#f1p7kq88vdadxz)" height="35.0938" rx="12.5" ry="12.5" style="stroke: #6495ED; stroke-width: 1.0;" width="51" x="183" y="772.1797"/><text fill="#696969" font-family="sans-serif" font-size="12" lengthAdjust="spacingAndGlyphs" textLength="31" x="193" y="794.6367">lease</text></a><rect fill="#000000" filter="url(#f1p7kq88vdadxz)" height="6" rx="2.5" ry="2.5" style="stroke: #000000; stroke-width: 1.0;" width="178" x="79.5" y="827.2734"/><rect fill="#000000" filter="url(#f1p7kq88vdadxz)" height="6" rx="2.5" ry="2.5" style="stroke: #000000; stroke-width: 1.0;" width="271" x="34" y="875.5264"/><rect fill="#FFFFF0" filter="url(#f1p7kq88vdadxz)" height="35.0938" rx="12.5" ry="12.5" style="stroke: #6495ED; stroke-width: 1.0;" width="68" x="46" y="1030.585"/><text fill="#696969" font-family="sans-serif" font-size="12" lengthAdjust="spacingAndGlyphs" textLength="48" x="56" y="1053.042">maintain</text><rect fill="#CCFFCC" filter="url(#f1p7kq88vdadxz)" height="65.2813" style="stroke: #6495ED; stroke-width: 1.0;" width="125" x="142" y="973.5264"/><path d="M156,987.6201 L156,988.6201 L155.25,988.6201 C154.564,988.6201 154,989.1841 154,989.8701 L154,990.3701 C154,991.0481 154.437,991.6121 155.094,991.7761 L157.657,992.4321 C157.8,992.4681 158.001,992.7281 158.001,992.8701 L158.001,993.3701 C158.001,993.5041 157.885,993.6201 157.751,993.6201 L155.251,993.6201 C155.135,993.6201 155.039,993.5831 155.001,993.5571 L155.001,992.6191 L154.001,992.6191 L154.001,993.6191 C154.001,993.9611 154.204,994.2461 154.439,994.4001 C154.673,994.5551 154.957,994.6191 155.252,994.6191 L156.002,994.6191 L156.002,995.6191 L157.002,995.6191 L157.002,994.6191 L157.752,994.6191 C158.438,994.6191 159.002,994.0551 159.002,993.3691 L159.002,992.8691 C159.002,992.1911 158.565,991.6271 157.908,991.4631 L155.345,990.8071 C155.202,990.7711 155.001,990.5111 155.001,990.3691 L155.001,989.8691 C155.001,989.7351 155.117,989.6191 155.251,989.6191 L157.751,989.6191 C157.867,989.6191 157.963,989.6561 158.001,989.6821 L158.001,990.6201 L159.001,990.6201 L159.001,989.6201 C159.001,989.2781 158.798,988.9931 158.563,988.8391 C158.329,988.6841 158.045,988.6201 157.75,988.6201 L157,988.6201 L157,987.6201 L156,987.6201 " fill="#696969" style="stroke: ; stroke-width: 0.0; stroke-dasharray: ;"/><text fill="#696969" font-family="sans-serif" font-size="12" lengthAdjust="spacingAndGlyphs" textLength="21" x="165" y="995.9834">rent</text><text fill="#696969" font-family="sans-serif" font-size="12" font-style="italic" lengthAdjust="spacingAndGlyphs" textLength="102" x="152" y="1011.0771">principal pay down</text><text fill="#696969" font-family="sans-serif" font-size="12" font-style="italic" lengthAdjust="spacingAndGlyphs" textLength="81" x="152" y="1026.1709">build up equity</text><polygon fill="#FFFFF0" filter="url(#f1p7kq88vdadxz)" points="204.5,901.5264,216.5,913.5264,204.5,925.5264,192.5,913.5264,204.5,901.5264" style="stroke: #6495ED; stroke-width: 1.0;"/><polygon fill="#FFFFF0" filter="url(#f1p7kq88vdadxz)" points="180.5,1085.6787,228.5,1085.6787,240.5,1097.6787,228.5,1109.6787,180.5,1109.6787,168.5,1097.6787,180.5,1085.6787" style="stroke: #6495ED; stroke-width: 1.0;"/><text fill="#A9A9A9" font-family="sans-serif" font-size="11" lengthAdjust="spacingAndGlyphs" textLength="48" x="180.5" y="1102.1797">rent paid?</text><a href="evicting.svg?sanitize=true" target="_top" xlink:actuate="onRequest" xlink:show="new" xlink:title="evicting.svg?sanitize=true" xlink:type="simple"><rect fill="#87CEFA" filter="url(#f1p7kq88vdadxz)" height="35.0938" rx="12.5" ry="12.5" style="stroke: #6495ED; stroke-width: 1.0;" width="44" x="182.5" y="1151.9316"/><text fill="#696969" font-family="sans-serif" font-size="12" lengthAdjust="spacingAndGlyphs" textLength="24" x="192.5" y="1174.3887">evict</text></a><rect fill="#000000" filter="url(#f1p7kq88vdadxz)" height="6" rx="2.5" ry="2.5" style="stroke: #000000; stroke-width: 1.0;" width="271" x="34" y="1207.0254"/><polygon fill="#FFFFF0" filter="url(#f1p7kq88vdadxz)" points="372.5,892.5264,430.5,892.5264,440.5,910.0732,430.5,927.6201,372.5,927.6201" style="stroke: #6495ED; stroke-width: 1.0;"/><text fill="#696969" font-family="sans-serif" font-size="12" lengthAdjust="spacingAndGlyphs" textLength="38" x="382.5" y="914.9834">May 15</text><a href="protest-property-taxes.svg?sanitize=true" target="_top" xlink:actuate="onRequest" xlink:show="new" xlink:title="protest-property-taxes.svg?sanitize=true" xlink:type="simple"><rect fill="#87CEFA" filter="url(#f1p7kq88vdadxz)" height="35.0938" rx="12.5" ry="12.5" style="stroke: #6495ED; stroke-width: 1.0;" width="137" x="333" y="962.6201"/><text fill="#696969" font-family="sans-serif" font-size="12" lengthAdjust="spacingAndGlyphs" textLength="117" x="343" y="985.0771">protest property taxes</text></a><rect fill="#000000" filter="url(#f1p7kq88vdadxz)" height="6" rx="2.5" ry="2.5" style="stroke: #000000; stroke-width: 1.0;" width="462" x="22" y="1233.0254"/><polygon fill="#FFFFF0" filter="url(#f1p7kq88vdadxz)" points="251,606.0859,263,618.0859,251,630.0859,239,618.0859,251,606.0859" style="stroke: #6495ED; stroke-width: 1.0;"/><polygon fill="#FFFFF0" filter="url(#f1p7kq88vdadxz)" points="236.5,1280.8604,265.5,1280.8604,277.5,1292.8604,265.5,1304.8604,236.5,1304.8604,224.5,1292.8604,236.5,1280.8604" style="stroke: #6495ED; stroke-width: 1.0;"/><text fill="#A9A9A9" font-family="sans-serif" font-size="11" lengthAdjust="spacingAndGlyphs" textLength="29" x="236.5" y="1297.3613">keep?</text><path d="M627,899.2412 L627,941.1201 L607,945.1201 L627,949.1201 L627,990.999 A0,0 0 0 0 627,990.999 L817,990.999 A0,0 0 0 0 817,990.999 L817,909.2412 L807,899.2412 L627,899.2412 A0,0 0 0 0 627,899.2412 " fill="#B0C4DE" filter="url(#f1p7kq88vdadxz)" style="stroke: #6495ED; stroke-width: 1.0;"/><path d="M807,899.2412 L807,909.2412 L817,909.2412 L807,899.2412 " fill="#B0C4DE" style="stroke: #6495ED; stroke-width: 1.0;"/><text fill="#FFFFFF" font-family="sans-serif" font-size="13" lengthAdjust="spacingAndGlyphs" textLength="169" x="633" y="917.7363">must hold 2 years as a rental</text><text fill="#FFFFFF" font-family="sans-serif" font-size="13" lengthAdjust="spacingAndGlyphs" textLength="136" x="633" y="934.0879">to be able to depreciate</text><text fill="#FFFFFF" font-family="sans-serif" font-size="13" lengthAdjust="spacingAndGlyphs" textLength="138" x="633" y="950.4395">where the rental income</text><text fill="#FFFFFF" font-family="sans-serif" font-size="13" lengthAdjust="spacingAndGlyphs" textLength="86" x="633" y="966.791">is tax free on a</text><text fill="#FFFFFF" font-family="sans-serif" font-size="13" lengthAdjust="spacingAndGlyphs" textLength="88" x="633" y="983.1426">1031 exchange</text><polygon fill="#FFFFF0" filter="url(#f1p7kq88vdadxz)" points="536,927.5732,607,927.5732,617,945.1201,607,962.667,536,962.667" style="stroke: #6495ED; stroke-width: 1.0;"/><text fill="#696969" font-family="sans-serif" font-size="12" lengthAdjust="spacingAndGlyphs" textLength="51" x="546" y="950.0303">2-3 years</text><rect fill="#000000" filter="url(#f1p7kq88vdadxz)" height="6" rx="2.5" ry="2.5" style="stroke: #000000; stroke-width: 1.0;" width="819" x="10" y="1324.8604"/><rect fill="#000000" filter="url(#f1p7kq88vdadxz)" height="6" rx="2.5" ry="2.5" style="stroke: #000000; stroke-width: 1.0;" width="214" x="310.5" y="1386.9492"/><a href="selling.svg?sanitize=true" target="_top" xlink:actuate="onRequest" xlink:show="new" xlink:title="selling.svg?sanitize=true" xlink:type="simple"><rect fill="#87CEFA" filter="url(#f1p7kq88vdadxz)" height="35.0938" rx="12.5" ry="12.5" style="stroke: #6495ED; stroke-width: 1.0;" width="40" x="324.5" y="1412.9492"/><text fill="#696969" font-family="sans-serif" font-size="12" lengthAdjust="spacingAndGlyphs" textLength="20" x="334.5" y="1435.4063">sell</text></a><rect fill="#FFFFF0" filter="url(#f1p7kq88vdadxz)" height="35.0938" rx="12.5" ry="12.5" style="stroke: #6495ED; stroke-width: 1.0;" width="118" x="392.5" y="1412.9492"/><text fill="#696969" font-family="sans-serif" font-size="12" lengthAdjust="spacingAndGlyphs" textLength="98" x="402.5" y="1435.4063">refinance property</text><rect fill="#000000" filter="url(#f1p7kq88vdadxz)" height="6" rx="2.5" ry="2.5" style="stroke: #000000; stroke-width: 1.0;" width="214" x="310.5" y="1468.043"/><rect fill="#000000" filter="url(#f1p7kq88vdadxz)" height="6" rx="2.5" ry="2.5" style="stroke: #000000; stroke-width: 1.0;" width="311" x="262" y="1494.043"/><rect fill="#CCFFCC" filter="url(#f1p7kq88vdadxz)" height="35.0938" rx="12.5" ry="12.5" style="stroke: #6495ED; stroke-width: 1.0;" width="150" x="276" y="1532.5898"/><path d="M290,1546.6836 L290,1547.6836 L289.25,1547.6836 C288.564,1547.6836 288,1548.2476 288,1548.9336 L288,1549.4336 C288,1550.1116 288.437,1550.6756 289.094,1550.8396 L291.657,1551.4956 C291.8,1551.5316 292.001,1551.7916 292.001,1551.9336 L292.001,1552.4336 C292.001,1552.5676 291.885,1552.6836 291.751,1552.6836 L289.251,1552.6836 C289.135,1552.6836 289.039,1552.6466 289.001,1552.6206 L289.001,1551.6826 L288.001,1551.6826 L288.001,1552.6826 C288.001,1553.0246 288.204,1553.3096 288.439,1553.4636 C288.673,1553.6186 288.957,1553.6826 289.252,1553.6826 L290.002,1553.6826 L290.002,1554.6826 L291.002,1554.6826 L291.002,1553.6826 L291.752,1553.6826 C292.438,1553.6826 293.002,1553.1186 293.002,1552.4326 L293.002,1551.9326 C293.002,1551.2546 292.565,1550.6906 291.908,1550.5266 L289.345,1549.8706 C289.202,1549.8346 289.001,1549.5746 289.001,1549.4326 L289.001,1548.9326 C289.001,1548.7986 289.117,1548.6826 289.251,1548.6826 L291.751,1548.6826 C291.867,1548.6826 291.963,1548.7196 292.001,1548.7456 L292.001,1549.6836 L293.001,1549.6836 L293.001,1548.6836 C293.001,1548.3416 292.798,1548.0566 292.563,1547.9026 C292.329,1547.7476 292.045,1547.6836 291.75,1547.6836 L291,1547.6836 L291,1546.6836 L290,1546.6836 " fill="#696969" style="stroke: ; stroke-width: 0.0; stroke-dasharray: ;"/><text fill="#696969" font-family="sans-serif" font-size="12" lengthAdjust="spacingAndGlyphs" textLength="117" x="299" y="1555.0469">cash -&gt; cash account</text><rect fill="#FFFFF0" filter="url(#f1p7kq88vdadxz)" height="60.1875" style="stroke: #6495ED; stroke-width: 1.0;" width="105" x="454" y="1520.043"/><text fill="#696969" font-family="sans-serif" font-size="12" lengthAdjust="spacingAndGlyphs" textLength="85" x="464" y="1542.5">1031 Exchange</text><line style="stroke: #6495ED; stroke-width: 1.0;" x1="454" x2="559" y1="1550.1367" y2="1550.1367"/><text fill="#696969" font-family="sans-serif" font-size="12" lengthAdjust="spacingAndGlyphs" textLength="82" x="464" y="1567.5938">make it tax free</text><rect fill="#000000" filter="url(#f1p7kq88vdadxz)" height="6" rx="2.5" ry="2.5" style="stroke: #000000; stroke-width: 1.0;" width="311" x="262" y="1600.2305"/><ellipse cx="417.5" cy="1636.2305" fill="#FFFFFF" filter="url(#f1p7kq88vdadxz)" rx="10" ry="10" style="stroke: #FF7F50; stroke-width: 1.5;"/><line style="stroke: #FF7F50; stroke-width: 2.5;" x1="411.3128" x2="423.6872" y1="1630.0433" y2="1642.4177"/><line style="stroke: #FF7F50; stroke-width: 2.5;" x1="423.6872" x2="411.3128" y1="1630.0433" y2="1642.4177"/><line style="stroke: #696969; stroke-width: 1.5;" x1="417.5" x2="417.5" y1="105.375" y2="125.375"/><polygon fill="#696969" points="413.5,115.375,417.5,125.375,421.5,115.375,417.5,119.375" style="stroke: #696969; stroke-width: 1.0;"/><line style="stroke: #696969; stroke-width: 1.5;" x1="417.5" x2="417.5" y1="160.4688" y2="180.4688"/><polygon fill="#696969" points="413.5,170.4688,417.5,180.4688,421.5,170.4688,417.5,174.4688" style="stroke: #696969; stroke-width: 1.0;"/><line style="stroke: #696969; stroke-width: 1.5;" x1="417.5" x2="417.5" y1="215.5625" y2="235.5625"/><polygon fill="#696969" points="413.5,225.5625,417.5,235.5625,421.5,225.5625,417.5,229.5625" style="stroke: #696969; stroke-width: 1.0;"/><line style="stroke: #696969; stroke-width: 1.5;" x1="417.5" x2="417.5" y1="270.6563" y2="290.6563"/><polygon fill="#696969" points="413.5,280.6563,417.5,290.6563,421.5,280.6563,417.5,284.6563" style="stroke: #696969; stroke-width: 1.0;"/><line style="stroke: #696969; stroke-width: 1.5;" x1="417.5" x2="417.5" y1="325.75" y2="345.75"/><polygon fill="#696969" points="413.5,335.75,417.5,345.75,421.5,335.75,417.5,339.75" style="stroke: #696969; stroke-width: 1.0;"/><line style="stroke: #696969; stroke-width: 1.5;" x1="417.5" x2="417.5" y1="380.8438" y2="402.8242"/><polygon fill="#696969" points="413.5,392.8242,417.5,402.8242,421.5,392.8242,417.5,396.8242" style="stroke: #696969; stroke-width: 1.0;"/><line style="stroke: #696969; stroke-width: 1.5;" x1="417.5" x2="417.5" y1="437.918" y2="469.8984"/><polygon fill="#696969" points="413.5,459.8984,417.5,469.8984,421.5,459.8984,417.5,463.8984" style="stroke: #696969; stroke-width: 1.0;"/><line style="stroke: #696969; stroke-width: 1.5;" x1="417.5" x2="417.5" y1="504.9922" y2="524.9922"/><polygon fill="#696969" points="413.5,514.9922,417.5,524.9922,421.5,514.9922,417.5,518.9922" style="stroke: #696969; stroke-width: 1.0;"/><line style="stroke: #696969; stroke-width: 1.5;" x1="208.5" x2="208.5" y1="737.1797" y2="772.1797"/><polygon fill="#696969" points="204.5,762.1797,208.5,772.1797,212.5,762.1797,208.5,766.1797" style="stroke: #696969; stroke-width: 1.0;"/><line style="stroke: #696969; stroke-width: 1.5;" x1="119.5" x2="119.5" y1="682.0859" y2="737.1328"/><polygon fill="#696969" points="115.5,727.1328,119.5,737.1328,123.5,727.1328,119.5,731.1328" style="stroke: #696969; stroke-width: 1.0;"/><line style="stroke: #696969; stroke-width: 1.5;" x1="208.5" x2="208.5" y1="682.0859" y2="702.0859"/><polygon fill="#696969" points="204.5,692.0859,208.5,702.0859,212.5,692.0859,208.5,696.0859" style="stroke: #696969; stroke-width: 1.0;"/><line style="stroke: #696969; stroke-width: 1.5;" x1="119.5" x2="119.5" y1="772.2266" y2="827.2734"/><polygon fill="#696969" points="115.5,817.2734,119.5,827.2734,123.5,817.2734,119.5,821.2734" style="stroke: #696969; stroke-width: 1.0;"/><line style="stroke: #696969; stroke-width: 1.5;" x1="208.5" x2="208.5" y1="807.2734" y2="827.2734"/><polygon fill="#696969" points="204.5,817.2734,208.5,827.2734,212.5,817.2734,208.5,821.2734" style="stroke: #696969; stroke-width: 1.0;"/><line style="stroke: #696969; stroke-width: 1.5;" x1="204.5" x2="204.5" y1="925.5264" y2="973.5264"/><polygon fill="#696969" points="200.5,963.5264,204.5,973.5264,208.5,963.5264,204.5,967.5264" style="stroke: #696969; stroke-width: 1.0;"/><path d="M211.3333,938.9417 L211.3333,939.8584 L212.25,939.8584 L212.25,939.8868 C210.6944,940.1077 209.5,941.4516 209.5,943.0667 C209.5,944.835 210.9401,946.2751 212.7083,946.2751 C214.4766,946.2751 215.9167,944.835 215.9167,943.0667 C215.9167,942.6542 215.8378,942.2656 215.7159,941.9209 L214.8561,942.2362 C214.9542,942.5149 214.9991,942.7826 214.9991,943.0667 C214.9991,944.3418 213.9825,945.3584 212.7074,945.3584 C211.4323,945.3584 210.4158,944.3418 210.4158,943.0667 C210.4158,941.7916 211.4323,940.7751 212.7074,940.7751 C212.9806,940.7751 213.2437,940.8218 213.5095,940.9181 L213.8248,940.0582 C213.6223,939.984 213.3931,939.9491 213.1658,939.9152 L213.1658,939.8575 L214.0824,939.8575 L214.0824,938.9408 L211.3324,938.9408 M215.9158,939.9721 C212.547,942.5387 212.547,942.5387 212.3637,942.7221 C212.1803,942.9054 212.1803,943.1978 212.3637,943.3811 C212.547,943.5645 212.8394,943.5645 213.0228,943.3811 C213.2061,943.207 215.9158,939.9721 215.9158,939.9721 " fill="#696969" style="stroke: ; stroke-width: 0.0; stroke-dasharray: ;"/><text fill="#696969" font-family="sans-serif" font-size="11" lengthAdjust="spacingAndGlyphs" textLength="40" x="208.5" y="957.694">rent due</text><line style="stroke: #696969; stroke-width: 1.5;" x1="240.5" x2="279" y1="1097.6787" y2="1097.6787"/><polygon fill="#696969" points="275,1016.167,279,1006.167,283,1016.167,279,1012.167" style="stroke: #696969; stroke-width: 1.5;"/><line style="stroke: #696969; stroke-width: 1.5;" x1="279" x2="279" y1="913.5264" y2="1097.6787"/><line style="stroke: #696969; stroke-width: 1.5;" x1="279" x2="216.5" y1="913.5264" y2="913.5264"/><polygon fill="#696969" points="226.5,909.5264,216.5,913.5264,226.5,917.5264,222.5,913.5264" style="stroke: #696969; stroke-width: 1.0;"/><text fill="#696969" font-family="sans-serif" font-size="11" lengthAdjust="spacingAndGlyphs" textLength="18" x="283" y="1102.1797">yes</text><line style="stroke: #696969; stroke-width: 1.5;" x1="204.5" x2="204.5" y1="1038.8076" y2="1085.6787"/><polygon fill="#696969" points="200.5,1075.6787,204.5,1085.6787,208.5,1075.6787,204.5,1079.6787" style="stroke: #696969; stroke-width: 1.0;"/><line style="stroke: #696969; stroke-width: 1.5;" x1="204.5" x2="204.5" y1="1109.6787" y2="1151.9316"/><polygon fill="#696969" points="200.5,1141.9316,204.5,1151.9316,208.5,1141.9316,204.5,1145.9316" style="stroke: #696969; stroke-width: 1.0;"/><text fill="#696969" font-family="sans-serif" font-size="11" lengthAdjust="spacingAndGlyphs" textLength="12" x="208.5" y="1132.0146">no</text><line style="stroke: #696969; stroke-width: 1.5;" x1="80" x2="80" y1="881.5264" y2="1030.585"/><polygon fill="#696969" points="76,1020.585,80,1030.585,84,1020.585,80,1024.585" style="stroke: #696969; stroke-width: 1.0;"/><line style="stroke: #696969; stroke-width: 1.5;" x1="204.5" x2="204.5" y1="881.5264" y2="901.5264"/><polygon fill="#696969" points="200.5,891.5264,204.5,901.5264,208.5,891.5264,204.5,895.5264" style="stroke: #696969; stroke-width: 1.0;"/><line style="stroke: #696969; stroke-width: 1.5;" x1="80" x2="80" y1="1065.6787" y2="1207.0254"/><polygon fill="#696969" points="76,1197.0254,80,1207.0254,84,1197.0254,80,1201.0254" style="stroke: #696969; stroke-width: 1.0;"/><line style="stroke: #696969; stroke-width: 1.5;" x1="204.5" x2="204.5" y1="1187.0254" y2="1207.0254"/><polygon fill="#696969" points="200.5,1197.0254,204.5,1207.0254,208.5,1197.0254,204.5,1201.0254" style="stroke: #696969; stroke-width: 1.0;"/><line style="stroke: #696969; stroke-width: 1.5;" x1="168.5" x2="168.5" y1="833.2734" y2="875.5264"/><polygon fill="#696969" points="164.5,865.5264,168.5,875.5264,172.5,865.5264,168.5,869.5264" style="stroke: #696969; stroke-width: 1.0;"/><text fill="#696969" font-family="sans-serif" font-size="11" lengthAdjust="spacingAndGlyphs" textLength="37" x="172.5" y="855.6094">move in</text><line style="stroke: #696969; stroke-width: 1.5;" x1="401.5" x2="401.5" y1="927.6201" y2="962.6201"/><polygon fill="#696969" points="397.5,952.6201,401.5,962.6201,405.5,952.6201,401.5,956.6201" style="stroke: #696969; stroke-width: 1.0;"/><line style="stroke: #696969; stroke-width: 1.5;" x1="168.5" x2="168.5" y1="656.0859" y2="676.0859"/><polygon fill="#696969" points="164.5,666.0859,168.5,676.0859,172.5,666.0859,168.5,670.0859" style="stroke: #696969; stroke-width: 1.0;"/><line style="stroke: #696969; stroke-width: 1.5;" x1="401.5" x2="401.5" y1="656.0859" y2="892.5264"/><polygon fill="#696969" points="397.5,882.5264,401.5,892.5264,405.5,882.5264,401.5,886.5264" style="stroke: #696969; stroke-width: 1.0;"/><line style="stroke: #696969; stroke-width: 1.5;" x1="168.5" x2="168.5" y1="1213.0254" y2="1233.0254"/><polygon fill="#696969" points="164.5,1223.0254,168.5,1233.0254,172.5,1223.0254,168.5,1227.0254" style="stroke: #696969; stroke-width: 1.0;"/><line style="stroke: #696969; stroke-width: 1.5;" x1="401.5" x2="401.5" y1="997.7139" y2="1233.0254"/><polygon fill="#696969" points="397.5,1223.0254,401.5,1233.0254,405.5,1223.0254,401.5,1227.0254" style="stroke: #696969; stroke-width: 1.0;"/><line style="stroke: #696969; stroke-width: 1.5;" x1="251" x2="251" y1="630.0859" y2="650.0859"/><polygon fill="#696969" points="247,640.0859,251,650.0859,255,640.0859,251,644.0859" style="stroke: #696969; stroke-width: 1.0;"/><line style="stroke: #696969; stroke-width: 1.5;" x1="277.5" x2="496" y1="1292.8604" y2="1292.8604"/><polygon fill="#696969" points="492,955.1201,496,945.1201,500,955.1201,496,951.1201" style="stroke: #696969; stroke-width: 1.5;"/><line style="stroke: #696969; stroke-width: 1.5;" x1="496" x2="496" y1="618.0859" y2="1292.8604"/><line style="stroke: #696969; stroke-width: 1.5;" x1="496" x2="263" y1="618.0859" y2="618.0859"/><polygon fill="#696969" points="273,614.0859,263,618.0859,273,622.0859,269,618.0859" style="stroke: #696969; stroke-width: 1.0;"/><text fill="#696969" font-family="sans-serif" font-size="11" lengthAdjust="spacingAndGlyphs" textLength="18" x="500" y="1297.3613">yes</text><line style="stroke: #696969; stroke-width: 1.5;" x1="251" x2="251" y1="1239.0254" y2="1280.8604"/><polygon fill="#696969" points="247,1270.8604,251,1280.8604,255,1270.8604,251,1274.8604" style="stroke: #696969; stroke-width: 1.0;"/><text fill="#696969" font-family="sans-serif" font-size="11" lengthAdjust="spacingAndGlyphs" textLength="44" x="255" y="1261.3613">move out</text><line style="stroke: #696969; stroke-width: 1.5;" x1="251" x2="251" y1="586.0859" y2="606.0859"/><polygon fill="#696969" points="247,596.0859,251,606.0859,255,596.0859,251,600.0859" style="stroke: #696969; stroke-width: 1.0;"/><line style="stroke: #696969; stroke-width: 1.5;" x1="571.5" x2="571.5" y1="586.0859" y2="927.5732"/><polygon fill="#696969" points="567.5,917.5732,571.5,927.5732,575.5,917.5732,571.5,921.5732" style="stroke: #696969; stroke-width: 1.0;"/><line style="stroke: #696969; stroke-width: 1.5;" x1="251" x2="251" y1="1304.8604" y2="1324.8604"/><polygon fill="#696969" points="247,1314.8604,251,1324.8604,255,1314.8604,251,1318.8604" style="stroke: #696969; stroke-width: 1.0;"/><text fill="#696969" font-family="sans-serif" font-size="11" lengthAdjust="spacingAndGlyphs" textLength="12" x="255" y="1319.3613">no</text><line style="stroke: #696969; stroke-width: 1.5;" x1="571.5" x2="571.5" y1="962.667" y2="1324.8604"/><polygon fill="#696969" points="567.5,1314.8604,571.5,1324.8604,575.5,1314.8604,571.5,1318.8604" style="stroke: #696969; stroke-width: 1.0;"/><line style="stroke: #696969; stroke-width: 1.5;" x1="417.5" x2="417.5" y1="560.0859" y2="580.0859"/><polygon fill="#696969" points="413.5,570.0859,417.5,580.0859,421.5,570.0859,417.5,574.0859" style="stroke: #696969; stroke-width: 1.0;"/><line style="stroke: #696969; stroke-width: 1.5;" x1="344.5" x2="344.5" y1="1392.9492" y2="1412.9492"/><polygon fill="#696969" points="340.5,1402.9492,344.5,1412.9492,348.5,1402.9492,344.5,1406.9492" style="stroke: #696969; stroke-width: 1.0;"/><line style="stroke: #696969; stroke-width: 1.5;" x1="451.5" x2="451.5" y1="1392.9492" y2="1412.9492"/><polygon fill="#696969" points="447.5,1402.9492,451.5,1412.9492,455.5,1402.9492,451.5,1406.9492" style="stroke: #696969; stroke-width: 1.0;"/><line style="stroke: #696969; stroke-width: 1.5;" x1="344.5" x2="344.5" y1="1448.043" y2="1468.043"/><polygon fill="#696969" points="340.5,1458.043,344.5,1468.043,348.5,1458.043,344.5,1462.043" style="stroke: #696969; stroke-width: 1.0;"/><line style="stroke: #696969; stroke-width: 1.5;" x1="451.5" x2="451.5" y1="1448.043" y2="1468.043"/><polygon fill="#696969" points="447.5,1458.043,451.5,1468.043,455.5,1458.043,451.5,1462.043" style="stroke: #696969; stroke-width: 1.0;"/><line style="stroke: #696969; stroke-width: 1.5;" x1="417.5" x2="417.5" y1="1330.8604" y2="1386.9492"/><polygon fill="#696969" points="413.5,1376.9492,417.5,1386.9492,421.5,1376.9492,417.5,1380.9492" style="stroke: #696969; stroke-width: 1.0;"/><text fill="#696969" font-family="sans-serif" font-size="11" lengthAdjust="spacingAndGlyphs" textLength="51" x="421.5" y="1353.1963">exit capital</text><text fill="#696969" font-family="sans-serif" font-size="11" lengthAdjust="spacingAndGlyphs" textLength="77" x="421.5" y="1367.0322">take capital gain</text><line style="stroke: #696969; stroke-width: 1.5;" x1="351" x2="351" y1="1500.043" y2="1532.5898"/><polygon fill="#696969" points="347,1522.5898,351,1532.5898,355,1522.5898,351,1526.5898" style="stroke: #696969; stroke-width: 1.0;"/><line style="stroke: #696969; stroke-width: 1.5;" x1="506.5" x2="506.5" y1="1500.043" y2="1520.043"/><polygon fill="#696969" points="502.5,1510.043,506.5,1520.043,510.5,1510.043,506.5,1514.043" style="stroke: #696969; stroke-width: 1.0;"/><line style="stroke: #696969; stroke-width: 1.5;" x1="351" x2="351" y1="1567.6836" y2="1600.2305"/><polygon fill="#696969" points="347,1590.2305,351,1600.2305,355,1590.2305,351,1594.2305" style="stroke: #696969; stroke-width: 1.0;"/><line style="stroke: #696969; stroke-width: 1.5;" x1="506.5" x2="506.5" y1="1580.2305" y2="1600.2305"/><polygon fill="#696969" points="502.5,1590.2305,506.5,1600.2305,510.5,1590.2305,506.5,1594.2305" style="stroke: #696969; stroke-width: 1.0;"/><line style="stroke: #696969; stroke-width: 1.5;" x1="417.5" x2="417.5" y1="1474.043" y2="1494.043"/><polygon fill="#696969" points="413.5,1484.043,417.5,1494.043,421.5,1484.043,417.5,1488.043" style="stroke: #696969; stroke-width: 1.0;"/><line style="stroke: #696969; stroke-width: 1.5;" x1="417.5" x2="417.5" y1="1606.2305" y2="1626.2305"/><polygon fill="#696969" points="413.5,1616.2305,417.5,1626.2305,421.5,1616.2305,417.5,1620.2305" style="stroke: #696969; stroke-width: 1.0;"/><text fill="#000080" font-family="sans-serif" font-size="14" lengthAdjust="spacingAndGlyphs" textLength="42" x="10" y="1659.7637">©2019</text><a href="http://www.lifestylesunlimited.com" target="_top" xlink:actuate="onRequest" xlink:show="new" xlink:title="http://www.lifestylesunlimited.com" xlink:type="simple"><text fill="#0000FF" font-family="sans-serif" font-size="14" lengthAdjust="spacingAndGlyphs" text-decoration="underline" textLength="122" x="56" y="1659.7637">LifeStyles Unlimited</text></a><text fill="#000080" font-family="sans-serif" font-size="14" lengthAdjust="spacingAndGlyphs" textLength="131" x="182" y="1659.7637">| Generated %date%</text><!--
@startuml single-family-deal


skinparam {
  BorderColor Red
  PathHoverColor Blue
}

skinparam Title {
  FontColor Navy
  BackgroundColor PaleGoldenRod
  BorderColor Navy
  BorderRoundCorner 20
  FontSize 24
}

skinparam activity {
  BackgroundColor Ivory
  BorderColor CornflowerBlue
  BorderThickness 1
  FontColor DimGray
  

  Arrow {
    Color dimgray
    FontColor dimgray
  }

  Start {
    Color PHYSICAL
  }

  End {
    Color Coral
  }

  Diamond {
    BackgroundColor Ivory
    BorderColor CornflowerBlue
    FontColor DarkGray
  }

  BackgroundColor<< Exception >> Red
	BorderColor<< Exception >> White
}

skinparam Swimlane {
  BorderColor CornflowerBlue 
}

skinparam Partition {
  BackgroundColor Ivory
  BorderColor CornflowerBlue
  BorderThickness 1
  FontColor CornflowerBlue
  FontSize 16
  BorderRoundCorner 20
}

skinparam Note {
  BackgroundColor LightSteelBlue
  BorderColor CornflowerBlue
  FontColor White
}

skinparam Legend {
  BackgroundColor LightSteelBlue
  BorderColor CornflowerBlue
  FontColor White
}

skinparam Footer {
  FontColor Navy
}


left header 
	<font color=Navy size=24>[[../index.svg?sanitize=true ⌂ Home]]</font>
endheader


	Title Single Family Deal

	start

	[[../unlimited-lifestyle/insuring.svg?sanitize=true]]#LightSkyBlue:insure;

	[[finding.svg?sanitize=true]]#LightSkyBlue:find;
	:compare;
	[[evaluating.svg?sanitize=true]]#LightSkyBlue:analyse;
	:visit;
	[[negotiating.svg?sanitize=true]]#LightSkyBlue:contract;
	note right
		need to make money
		on the front end,
		not the back end
	end note
	[[due-diligence.svg?sanitize=true]]#LightSkyBlue:inspect;
	[[closing.svg?sanitize=true]]#LightSkyBlue:close;
	fork
		repeat
			fork
				fork
					[[rehabbing.svg?sanitize=true]]#LightSkyBlue:rehab;
				fork again
					[[advertising.svg?sanitize=true]]#LightSkyBlue:advertise;
					[[leasing.svg?sanitize=true]]#LightSkyBlue:lease;
				end fork
				-> move in;
				fork
					:maintain;
				fork again
					repeat
						-><&timer>\nrent due;
						#PHYSICAL:<&dollar> rent
						<i>principal pay down 
						<i>build up equity]
					repeat while(rent paid?)->yes
					->no;
					[[evicting.svg?sanitize=true]]#LightSkyBlue:evict;
				end fork
			fork again
				:May 15>
				[[protest-property-taxes.svg?sanitize=true]]#LightSkyBlue:protest property taxes;
			end fork

				-> move out;
			repeat while(keep?)->yes
			->no;
	fork again
		:2-3 years>
		note right
			must hold 2 years as a rental
			to be able to depreciate
			where the rental income 
			is tax free on a
			1031 exchange
		end note
	end fork
	->exit capital
	take capital gain;
	fork
		[[selling.svg?sanitize=true]]#LightSkyBlue:sell;
	fork again
		:refinance property;
	end fork
	fork
		#PHYSICAL:<&dollar> cash -> cash account;
	fork again
		:1031 Exchange
		- - - -
		make it tax free]
	end fork

	end


left footer 
	<font size=14>©2019 [[http://www.lifestylesunlimited.com LifeStyles Unlimited]] | Generated %date%</font>
endfooter


@enduml

PlantUML version 1.2019.06(Fri May 24 12:10:25 CDT 2019)
(GPL source distribution)
Java Runtime: Java(TM) SE Runtime Environment
JVM: Java HotSpot(TM) Client VM
Java Version: 1.8.0_211-b12
Operating System: Windows 10
OS Version: 10.0
Default Encoding: Cp1252
Language: en
Country: US
--></g></svg>