<?xml version="1.0" encoding="UTF-8" standalone="no"?><svg xmlns="http://www.w3.org/2000/svg" xmlns:xlink="http://www.w3.org/1999/xlink" contentScriptType="application/ecmascript" contentStyleType="text/css" height="462px" preserveAspectRatio="none" style="width:2035px;height:462px;" version="1.1" viewBox="0 0 2035 462" width="2035px" zoomAndPan="magnify"><defs><style type="text/css"><![CDATA[path:hover { stroke: #0000FF !important;}]]></style><filter height="300%" id="f1ido1n98igalu" width="300%" x="-1" y="-1"><feGaussianBlur result="blurOut" stdDeviation="2.0"/><feColorMatrix in="blurOut" result="blurOut2" type="matrix" values="0 0 0 0 0 0 0 0 0 0 0 0 0 0 0 0 0 0 .4 0"/><feOffset dx="4.0" dy="4.0" in="blurOut2" result="blurOut3"/><feBlend in="SourceGraphic" in2="blurOut3" mode="normal"/></filter></defs><g><a target="_top" xlink:actuate="onRequest" xlink:href="../index.svg?sanitize=true" xlink:show="new" xlink:title="../index.svg?sanitize=true" xlink:type="simple"><text fill="#0000FF" font-family="sans-serif" font-size="24" lengthAdjust="spacingAndGlyphs" text-decoration="underline" textLength="90" x="10" y="34.9141">⌂ Home</text><line style="stroke: #0000FF; stroke-width: 1.0;" x1="10" x2="100" y1="36.9141" y2="36.9141"/></a><rect fill="#EEE8AA" height="40.1875" rx="10" ry="10" style="stroke: #000080; stroke-width: 1.5;" width="138" x="947" y="42.1875"/><text fill="#000080" font-family="sans-serif" font-size="24" lengthAdjust="spacingAndGlyphs" textLength="122" x="955" y="72.1016">Build Team</text><ellipse cx="1003.5" cy="95.375" fill="#CCFFCC" filter="url(#f1ido1n98igalu)" rx="10" ry="10" style="stroke: none; stroke-width: 1.0;"/><rect fill="#FFFFF0" filter="url(#f1ido1n98igalu)" height="35.0938" rx="12.5" ry="12.5" style="stroke: #6495ED; stroke-width: 1.0;" width="61" x="973" y="169.375"/><text fill="#696969" font-family="sans-serif" font-size="12" lengthAdjust="spacingAndGlyphs" textLength="41" x="983" y="191.832">choose</text><rect fill="#000000" filter="url(#f1ido1n98igalu)" height="6" rx="2.5" ry="2.5" style="stroke: #000000; stroke-width: 1.0;" width="1987" x="10" y="224.4688"/><rect fill="#FFFFF0" filter="url(#f1ido1n98igalu)" height="35.0938" rx="12.5" ry="12.5" style="stroke: #6495ED; stroke-width: 1.0;" width="59" x="24" y="263.0156"/><text fill="#696969" font-family="sans-serif" font-size="12" lengthAdjust="spacingAndGlyphs" textLength="39" x="34" y="285.4727">mentor</text><rect fill="#FFFFF0" filter="url(#f1ido1n98igalu)" height="35.0938" rx="12.5" ry="12.5" style="stroke: #6495ED; stroke-width: 1.0;" width="62" x="111" y="263.0156"/><text fill="#696969" font-family="sans-serif" font-size="12" lengthAdjust="spacingAndGlyphs" textLength="42" x="121" y="285.4727">lenders</text><rect fill="#FFFFF0" filter="url(#f1ido1n98igalu)" height="60.1875" rx="12.5" ry="12.5" style="stroke: #6495ED; stroke-width: 1.0;" width="170" x="201" y="250.4688"/><text fill="#696969" font-family="sans-serif" font-size="12" lengthAdjust="spacingAndGlyphs" textLength="150" x="211" y="272.9258">real estate agents / brokers</text><line style="stroke: #6495ED; stroke-width: 1.0;" x1="201" x2="371" y1="280.5625" y2="280.5625"/><text fill="#696969" font-family="sans-serif" font-size="12" lengthAdjust="spacingAndGlyphs" textLength="58" x="211" y="298.0195">20 of them</text><rect fill="#FFFFF0" filter="url(#f1ido1n98igalu)" height="60.1875" rx="12.5" ry="12.5" style="stroke: #6495ED; stroke-width: 1.0;" width="113" x="399" y="250.4688"/><text fill="#696969" font-family="sans-serif" font-size="12" lengthAdjust="spacingAndGlyphs" textLength="93" x="409" y="272.9258">home inspectors</text><line style="stroke: #6495ED; stroke-width: 1.0;" x1="399" x2="512" y1="280.5625" y2="280.5625"/><text fill="#696969" font-family="sans-serif" font-size="12" lengthAdjust="spacingAndGlyphs" textLength="72" x="409" y="298.0195">licensed only</text><rect fill="#FFFFF0" filter="url(#f1ido1n98igalu)" height="35.0938" rx="12.5" ry="12.5" style="stroke: #6495ED; stroke-width: 1.0;" width="116" x="540" y="263.0156"/><text fill="#696969" font-family="sans-serif" font-size="12" lengthAdjust="spacingAndGlyphs" textLength="96" x="550" y="285.4727">insurance agents</text><rect fill="#FFFFF0" filter="url(#f1ido1n98igalu)" height="35.0938" rx="12.5" ry="12.5" style="stroke: #6495ED; stroke-width: 1.0;" width="119" x="684" y="263.0156"/><text fill="#696969" font-family="sans-serif" font-size="12" lengthAdjust="spacingAndGlyphs" textLength="99" x="694" y="285.4727">general contractor</text><rect fill="#FFFFF0" filter="url(#f1ido1n98igalu)" height="35.0938" rx="12.5" ry="12.5" style="stroke: #6495ED; stroke-width: 1.0;" width="52" x="831" y="263.0156"/><text fill="#696969" font-family="sans-serif" font-size="12" lengthAdjust="spacingAndGlyphs" textLength="32" x="841" y="285.4727">roofer</text><rect fill="#FFFFF0" filter="url(#f1ido1n98igalu)" height="35.0938" rx="12.5" ry="12.5" style="stroke: #6495ED; stroke-width: 1.0;" width="134" x="911" y="263.0156"/><text fill="#696969" font-family="sans-serif" font-size="12" lengthAdjust="spacingAndGlyphs" textLength="114" x="921" y="285.4727">foundation specialist</text><rect fill="#FFFFF0" filter="url(#f1ido1n98igalu)" height="35.0938" rx="12.5" ry="12.5" style="stroke: #6495ED; stroke-width: 1.0;" width="112" x="1073" y="263.0156"/><text fill="#696969" font-family="sans-serif" font-size="12" lengthAdjust="spacingAndGlyphs" textLength="92" x="1083" y="285.4727">termite inspector</text><rect fill="#FFFFF0" filter="url(#f1ido1n98igalu)" height="60.1875" rx="12.5" ry="12.5" style="stroke: #6495ED; stroke-width: 1.0;" width="141" x="1213" y="250.4688"/><text fill="#696969" font-family="sans-serif" font-size="12" lengthAdjust="spacingAndGlyphs" textLength="121" x="1223" y="272.9258">property management</text><line style="stroke: #6495ED; stroke-width: 1.0;" x1="1213" x2="1354" y1="280.5625" y2="280.5625"/><text fill="#696969" font-family="sans-serif" font-size="12" lengthAdjust="spacingAndGlyphs" textLength="93" x="1223" y="298.0195">out of town deals</text><rect fill="#FFFFF0" filter="url(#f1ido1n98igalu)" height="60.1875" rx="12.5" ry="12.5" style="stroke: #6495ED; stroke-width: 1.0;" width="165" x="1382" y="250.4688"/><text fill="#696969" font-family="sans-serif" font-size="12" lengthAdjust="spacingAndGlyphs" textLength="145" x="1392" y="272.9258">tenant screening company</text><line style="stroke: #6495ED; stroke-width: 1.0;" x1="1382" x2="1547" y1="280.5625" y2="280.5625"/><text fill="#696969" font-family="sans-serif" font-size="12" lengthAdjust="spacingAndGlyphs" textLength="125" x="1392" y="298.0195">NTN $15 &amp; charge $50</text><rect fill="#FFFFF0" filter="url(#f1ido1n98igalu)" height="60.1875" rx="12.5" ry="12.5" style="stroke: #6495ED; stroke-width: 1.0;" width="114" x="1575" y="250.4688"/><text fill="#696969" font-family="sans-serif" font-size="12" lengthAdjust="spacingAndGlyphs" textLength="43" x="1585" y="272.9258">attorney</text><line style="stroke: #6495ED; stroke-width: 1.0;" x1="1575" x2="1689" y1="280.5625" y2="280.5625"/><text fill="#696969" font-family="sans-serif" font-size="12" lengthAdjust="spacingAndGlyphs" textLength="94" x="1585" y="298.0195">real estate expert</text><rect fill="#FFFFF0" filter="url(#f1ido1n98igalu)" height="60.1875" rx="12.5" ry="12.5" style="stroke: #6495ED; stroke-width: 1.0;" width="114" x="1717" y="250.4688"/><text fill="#696969" font-family="sans-serif" font-size="12" lengthAdjust="spacingAndGlyphs" textLength="20" x="1727" y="272.9258">cpa</text><line style="stroke: #6495ED; stroke-width: 1.0;" x1="1717" x2="1831" y1="280.5625" y2="280.5625"/><text fill="#696969" font-family="sans-serif" font-size="12" lengthAdjust="spacingAndGlyphs" textLength="94" x="1727" y="298.0195">real estate expert</text><rect fill="#FFFFF0" filter="url(#f1ido1n98igalu)" height="60.1875" rx="12.5" ry="12.5" style="stroke: #6495ED; stroke-width: 1.0;" width="124" x="1859" y="250.4688"/><text fill="#696969" font-family="sans-serif" font-size="12" lengthAdjust="spacingAndGlyphs" textLength="104" x="1869" y="272.9258">business checking</text><line style="stroke: #6495ED; stroke-width: 1.0;" x1="1859" x2="1983" y1="280.5625" y2="280.5625"/><text fill="#696969" font-family="sans-serif" font-size="12" lengthAdjust="spacingAndGlyphs" textLength="64" x="1869" y="298.0195">can get free</text><rect fill="#000000" filter="url(#f1ido1n98igalu)" height="6" rx="2.5" ry="2.5" style="stroke: #000000; stroke-width: 1.0;" width="1987" x="10" y="330.6563"/><polygon fill="#FFFFF0" filter="url(#f1ido1n98igalu)" points="1003.5,125.375,1015.5,137.375,1003.5,149.375,991.5,137.375,1003.5,125.375" style="stroke: #6495ED; stroke-width: 1.0;"/><polygon fill="#FFFFF0" filter="url(#f1ido1n98igalu)" points="938.5,356.6563,1068.5,356.6563,1080.5,368.6563,1068.5,380.6563,938.5,380.6563,926.5,368.6563,938.5,356.6563" style="stroke: #6495ED; stroke-width: 1.0;"/><text fill="#A9A9A9" font-family="sans-serif" font-size="11" lengthAdjust="spacingAndGlyphs" textLength="130" x="938.5" y="373.1572">primary and two alternates</text><rect fill="#CCFFCC" filter="url(#f1ido1n98igalu)" height="35.0938" rx="12.5" ry="12.5" style="stroke: #6495ED; stroke-width: 1.0;" width="81" x="963" y="400.6563"/><text fill="#696969" font-family="sans-serif" font-size="12" lengthAdjust="spacingAndGlyphs" textLength="61" x="973" y="423.1133">team ready</text><line style="stroke: #696969; stroke-width: 1.5;" x1="53.5" x2="53.5" y1="230.4688" y2="263.0156"/><polygon fill="#696969" points="49.5,253.0156,53.5,263.0156,57.5,253.0156,53.5,257.0156" style="stroke: #696969; stroke-width: 1.0;"/><line style="stroke: #696969; stroke-width: 1.5;" x1="142" x2="142" y1="230.4688" y2="263.0156"/><polygon fill="#696969" points="138,253.0156,142,263.0156,146,253.0156,142,257.0156" style="stroke: #696969; stroke-width: 1.0;"/><line style="stroke: #696969; stroke-width: 1.5;" x1="286" x2="286" y1="230.4688" y2="250.4688"/><polygon fill="#696969" points="282,240.4688,286,250.4688,290,240.4688,286,244.4688" style="stroke: #696969; stroke-width: 1.0;"/><line style="stroke: #696969; stroke-width: 1.5;" x1="455.5" x2="455.5" y1="230.4688" y2="250.4688"/><polygon fill="#696969" points="451.5,240.4688,455.5,250.4688,459.5,240.4688,455.5,244.4688" style="stroke: #696969; stroke-width: 1.0;"/><line style="stroke: #696969; stroke-width: 1.5;" x1="598" x2="598" y1="230.4688" y2="263.0156"/><polygon fill="#696969" points="594,253.0156,598,263.0156,602,253.0156,598,257.0156" style="stroke: #696969; stroke-width: 1.0;"/><line style="stroke: #696969; stroke-width: 1.5;" x1="743.5" x2="743.5" y1="230.4688" y2="263.0156"/><polygon fill="#696969" points="739.5,253.0156,743.5,263.0156,747.5,253.0156,743.5,257.0156" style="stroke: #696969; stroke-width: 1.0;"/><line style="stroke: #696969; stroke-width: 1.5;" x1="857" x2="857" y1="230.4688" y2="263.0156"/><polygon fill="#696969" points="853,253.0156,857,263.0156,861,253.0156,857,257.0156" style="stroke: #696969; stroke-width: 1.0;"/><line style="stroke: #696969; stroke-width: 1.5;" x1="978" x2="978" y1="230.4688" y2="263.0156"/><polygon fill="#696969" points="974,253.0156,978,263.0156,982,253.0156,978,257.0156" style="stroke: #696969; stroke-width: 1.0;"/><line style="stroke: #696969; stroke-width: 1.5;" x1="1129" x2="1129" y1="230.4688" y2="263.0156"/><polygon fill="#696969" points="1125,253.0156,1129,263.0156,1133,253.0156,1129,257.0156" style="stroke: #696969; stroke-width: 1.0;"/><line style="stroke: #696969; stroke-width: 1.5;" x1="1283.5" x2="1283.5" y1="230.4688" y2="250.4688"/><polygon fill="#696969" points="1279.5,240.4688,1283.5,250.4688,1287.5,240.4688,1283.5,244.4688" style="stroke: #696969; stroke-width: 1.0;"/><line style="stroke: #696969; stroke-width: 1.5;" x1="1464.5" x2="1464.5" y1="230.4688" y2="250.4688"/><polygon fill="#696969" points="1460.5,240.4688,1464.5,250.4688,1468.5,240.4688,1464.5,244.4688" style="stroke: #696969; stroke-width: 1.0;"/><line style="stroke: #696969; stroke-width: 1.5;" x1="1632" x2="1632" y1="230.4688" y2="250.4688"/><polygon fill="#696969" points="1628,240.4688,1632,250.4688,1636,240.4688,1632,244.4688" style="stroke: #696969; stroke-width: 1.0;"/><line style="stroke: #696969; stroke-width: 1.5;" x1="1774" x2="1774" y1="230.4688" y2="250.4688"/><polygon fill="#696969" points="1770,240.4688,1774,250.4688,1778,240.4688,1774,244.4688" style="stroke: #696969; stroke-width: 1.0;"/><line style="stroke: #696969; stroke-width: 1.5;" x1="1921" x2="1921" y1="230.4688" y2="250.4688"/><polygon fill="#696969" points="1917,240.4688,1921,250.4688,1925,240.4688,1921,244.4688" style="stroke: #696969; stroke-width: 1.0;"/><line style="stroke: #696969; stroke-width: 1.5;" x1="53.5" x2="53.5" y1="298.1094" y2="330.6563"/><polygon fill="#696969" points="49.5,320.6563,53.5,330.6563,57.5,320.6563,53.5,324.6563" style="stroke: #696969; stroke-width: 1.0;"/><line style="stroke: #696969; stroke-width: 1.5;" x1="142" x2="142" y1="298.1094" y2="330.6563"/><polygon fill="#696969" points="138,320.6563,142,330.6563,146,320.6563,142,324.6563" style="stroke: #696969; stroke-width: 1.0;"/><line style="stroke: #696969; stroke-width: 1.5;" x1="286" x2="286" y1="310.6563" y2="330.6563"/><polygon fill="#696969" points="282,320.6563,286,330.6563,290,320.6563,286,324.6563" style="stroke: #696969; stroke-width: 1.0;"/><line style="stroke: #696969; stroke-width: 1.5;" x1="455.5" x2="455.5" y1="310.6563" y2="330.6563"/><polygon fill="#696969" points="451.5,320.6563,455.5,330.6563,459.5,320.6563,455.5,324.6563" style="stroke: #696969; stroke-width: 1.0;"/><line style="stroke: #696969; stroke-width: 1.5;" x1="598" x2="598" y1="298.1094" y2="330.6563"/><polygon fill="#696969" points="594,320.6563,598,330.6563,602,320.6563,598,324.6563" style="stroke: #696969; stroke-width: 1.0;"/><line style="stroke: #696969; stroke-width: 1.5;" x1="743.5" x2="743.5" y1="298.1094" y2="330.6563"/><polygon fill="#696969" points="739.5,320.6563,743.5,330.6563,747.5,320.6563,743.5,324.6563" style="stroke: #696969; stroke-width: 1.0;"/><line style="stroke: #696969; stroke-width: 1.5;" x1="857" x2="857" y1="298.1094" y2="330.6563"/><polygon fill="#696969" points="853,320.6563,857,330.6563,861,320.6563,857,324.6563" style="stroke: #696969; stroke-width: 1.0;"/><line style="stroke: #696969; stroke-width: 1.5;" x1="978" x2="978" y1="298.1094" y2="330.6563"/><polygon fill="#696969" points="974,320.6563,978,330.6563,982,320.6563,978,324.6563" style="stroke: #696969; stroke-width: 1.0;"/><line style="stroke: #696969; stroke-width: 1.5;" x1="1129" x2="1129" y1="298.1094" y2="330.6563"/><polygon fill="#696969" points="1125,320.6563,1129,330.6563,1133,320.6563,1129,324.6563" style="stroke: #696969; stroke-width: 1.0;"/><line style="stroke: #696969; stroke-width: 1.5;" x1="1283.5" x2="1283.5" y1="310.6563" y2="330.6563"/><polygon fill="#696969" points="1279.5,320.6563,1283.5,330.6563,1287.5,320.6563,1283.5,324.6563" style="stroke: #696969; stroke-width: 1.0;"/><line style="stroke: #696969; stroke-width: 1.5;" x1="1464.5" x2="1464.5" y1="310.6563" y2="330.6563"/><polygon fill="#696969" points="1460.5,320.6563,1464.5,330.6563,1468.5,320.6563,1464.5,324.6563" style="stroke: #696969; stroke-width: 1.0;"/><line style="stroke: #696969; stroke-width: 1.5;" x1="1632" x2="1632" y1="310.6563" y2="330.6563"/><polygon fill="#696969" points="1628,320.6563,1632,330.6563,1636,320.6563,1632,324.6563" style="stroke: #696969; stroke-width: 1.0;"/><line style="stroke: #696969; stroke-width: 1.5;" x1="1774" x2="1774" y1="310.6563" y2="330.6563"/><polygon fill="#696969" points="1770,320.6563,1774,330.6563,1778,320.6563,1774,324.6563" style="stroke: #696969; stroke-width: 1.0;"/><line style="stroke: #696969; stroke-width: 1.5;" x1="1921" x2="1921" y1="310.6563" y2="330.6563"/><polygon fill="#696969" points="1917,320.6563,1921,330.6563,1925,320.6563,1921,324.6563" style="stroke: #696969; stroke-width: 1.0;"/><line style="stroke: #696969; stroke-width: 1.5;" x1="1003.5" x2="1003.5" y1="204.4688" y2="224.4688"/><polygon fill="#696969" points="999.5,214.4688,1003.5,224.4688,1007.5,214.4688,1003.5,218.4688" style="stroke: #696969; stroke-width: 1.0;"/><line style="stroke: #696969; stroke-width: 1.5;" x1="1003.5" x2="1003.5" y1="149.375" y2="169.375"/><polygon fill="#696969" points="999.5,159.375,1003.5,169.375,1007.5,159.375,1003.5,163.375" style="stroke: #696969; stroke-width: 1.0;"/><line style="stroke: #696969; stroke-width: 1.5;" x1="1080.5" x2="2009" y1="368.6563" y2="368.6563"/><polygon fill="#696969" points="2005,255.5156,2009,245.5156,2013,255.5156,2009,251.5156" style="stroke: #696969; stroke-width: 1.5;"/><line style="stroke: #696969; stroke-width: 1.5;" x1="2009" x2="2009" y1="137.375" y2="368.6563"/><line style="stroke: #696969; stroke-width: 1.5;" x1="2009" x2="1015.5" y1="137.375" y2="137.375"/><polygon fill="#696969" points="1025.5,133.375,1015.5,137.375,1025.5,141.375,1021.5,137.375" style="stroke: #696969; stroke-width: 1.0;"/><line style="stroke: #696969; stroke-width: 1.5;" x1="1003.5" x2="1003.5" y1="336.6563" y2="356.6563"/><polygon fill="#696969" points="999.5,346.6563,1003.5,356.6563,1007.5,346.6563,1003.5,350.6563" style="stroke: #696969; stroke-width: 1.0;"/><line style="stroke: #696969; stroke-width: 1.5;" x1="1003.5" x2="1003.5" y1="105.375" y2="125.375"/><polygon fill="#696969" points="999.5,115.375,1003.5,125.375,1007.5,115.375,1003.5,119.375" style="stroke: #696969; stroke-width: 1.0;"/><line style="stroke: #696969; stroke-width: 1.5;" x1="1003.5" x2="1003.5" y1="380.6563" y2="400.6563"/><polygon fill="#696969" points="999.5,390.6563,1003.5,400.6563,1007.5,390.6563,1003.5,394.6563" style="stroke: #696969; stroke-width: 1.0;"/><text fill="#000080" font-family="sans-serif" font-size="14" lengthAdjust="spacingAndGlyphs" textLength="42" x="10" y="449.2832">©2019</text><a target="_top" xlink:actuate="onRequest" xlink:href="http://www.lifestylesunlimited.com" xlink:show="new" xlink:title="http://www.lifestylesunlimited.com" xlink:type="simple"><text fill="#0000FF" font-family="sans-serif" font-size="14" lengthAdjust="spacingAndGlyphs" text-decoration="underline" textLength="122" x="56" y="449.2832">LifeStyles Unlimited</text><line style="stroke: #0000FF; stroke-width: 1.0;" x1="56" x2="178" y1="451.2832" y2="451.2832"/></a><text fill="#000080" font-family="sans-serif" font-size="14" lengthAdjust="spacingAndGlyphs" textLength="279" x="182" y="449.2832">| Generated Sat May 18 14:00:55 CDT 2019</text><!--
@startuml team-building


skinparam {
  BorderColor Red
  PathHoverColor Blue
}

skinparam Title {
  FontColor Navy
  BackgroundColor PaleGoldenRod
  BorderColor Navy
  BorderRoundCorner 20
  FontSize 24
}

skinparam activity {
  BackgroundColor Ivory
  BorderColor CornflowerBlue
  BorderThickness 1
  FontColor DimGray
  

  Arrow {
    Color dimgray
    FontColor dimgray
  }

  Start {
    Color PHYSICAL
  }

  End {
    Color Coral
  }

  Diamond {
    BackgroundColor Ivory
    BorderColor CornflowerBlue
    FontColor DarkGray
  }

  BackgroundColor<< Exception >> Red
	BorderColor<< Exception >> White
}

skinparam Swimlane {
  BorderColor CornflowerBlue 
}

skinparam Partition {
  BackgroundColor Ivory
  BorderColor CornflowerBlue
  BorderThickness 1
  FontColor CornflowerBlue
  FontSize 16
  BorderRoundCorner 20
}

skinparam Note {
  BackgroundColor LightSteelBlue
  BorderColor CornflowerBlue
  FontColor White
}

skinparam Legend {
  BackgroundColor LightSteelBlue
  BorderColor CornflowerBlue
  FontColor White
}

skinparam Footer {
  FontColor Navy
}


left header 
	<font color=Navy size=24>[[../index.svg?sanitize=true ⌂ Home]]</font>
endheader


	Title Build Team

	start

	repeat

		:choose;

		fork
			:mentor;
		fork again
			:lenders;
		fork again
			:real estate agents / brokers
			- - - -
			20 of them;
		fork again
			:home inspectors
			- - - -
			licensed only;
		fork again
			:insurance agents;
		fork again
			:general contractor;
		fork again
			:roofer;
		fork again
			:foundation specialist;
		fork again
			:termite inspector;
		fork again
			:property management
			- - - -
			out of town deals;
		fork again
			:tenant screening company
			- - - -
			NTN $15 & charge $50;
		fork again
			:attorney
			- - - -
			real estate expert;
		fork again
			:cpa
			- - - -
			real estate expert;
		fork again
			:business checking
			- - - -
			can get free;
		end fork
	repeat while (primary and two alternates)
	#PHYSICAL:team ready;
	


left footer 
	<font size=14>©2019 [[http://www.lifestylesunlimited.com LifeStyles Unlimited]] | Generated Sat May 18 14:00:55 CDT 2019</font>
endfooter


@enduml

PlantUML version 1.2019.03(Sun Mar 10 06:04:44 CDT 2019)
(GPL source distribution)
Java Runtime: Java(TM) SE Runtime Environment
JVM: Java HotSpot(TM) 64-Bit Server VM
Java Version: 1.8.0_111-b14
Operating System: Windows 10
OS Version: 10.0
Default Encoding: Cp1252
Language: en
Country: US
--></g></svg>