<?xml version="1.0" encoding="UTF-8" standalone="no"?><svg xmlns="http://www.w3.org/2000/svg" xmlns:xlink="http://www.w3.org/1999/xlink" contentScriptType="application/ecmascript" contentStyleType="text/css" height="462px" preserveAspectRatio="none" style="width:1998px;height:462px;" version="1.1" viewBox="0 0 1998 462" width="1998px" zoomAndPan="magnify"><defs><style type="text/css"><![CDATA[path:hover { stroke: #0000FF !important;}]]></style><filter height="300%" id="f1h3wibogs00d2" width="300%" x="-1" y="-1"><feGaussianBlur result="blurOut" stdDeviation="2.0"/><feColorMatrix in="blurOut" result="blurOut2" type="matrix" values="0 0 0 0 0 0 0 0 0 0 0 0 0 0 0 0 0 0 .4 0"/><feOffset dx="4.0" dy="4.0" in="blurOut2" result="blurOut3"/><feBlend in="SourceGraphic" in2="blurOut3" mode="normal"/></filter></defs><g><a target="_top" xlink:actuate="onRequest" xlink:href="../index.svg?sanitize=true" xlink:show="new" xlink:title="../index.svg?sanitize=true" xlink:type="simple"><text fill="#0000FF" font-family="sans-serif" font-size="24" lengthAdjust="spacingAndGlyphs" text-decoration="underline" textLength="90" x="10" y="34.9141">⌂ Home</text><line style="stroke: #0000FF; stroke-width: 1.0;" x1="10" x2="100" y1="36.9141" y2="36.9141"/></a><rect fill="#EEE8AA" height="40.1875" rx="10" ry="10" style="stroke: #000080; stroke-width: 1.5;" width="138" x="928.5" y="42.1875"/><text fill="#000080" font-family="sans-serif" font-size="24" lengthAdjust="spacingAndGlyphs" textLength="122" x="936.5" y="72.1016">Build Team</text><ellipse cx="985" cy="95.375" fill="#CCFFCC" filter="url(#f1h3wibogs00d2)" rx="10" ry="10" style="stroke: none; stroke-width: 1.0;"/><rect fill="#FFFFF0" filter="url(#f1h3wibogs00d2)" height="35.0938" rx="12.5" ry="12.5" style="stroke: #6495ED; stroke-width: 1.0;" width="61" x="954.5" y="169.375"/><text fill="#696969" font-family="sans-serif" font-size="12" lengthAdjust="spacingAndGlyphs" textLength="41" x="964.5" y="191.832">choose</text><rect fill="#000000" filter="url(#f1h3wibogs00d2)" height="6" rx="2.5" ry="2.5" style="stroke: #000000; stroke-width: 1.0;" width="1950" x="10" y="224.4688"/><rect fill="#FFFFF0" filter="url(#f1h3wibogs00d2)" height="35.0938" rx="12.5" ry="12.5" style="stroke: #6495ED; stroke-width: 1.0;" width="59" x="24" y="263.0156"/><text fill="#696969" font-family="sans-serif" font-size="12" lengthAdjust="spacingAndGlyphs" textLength="39" x="34" y="285.4727">mentor</text><rect fill="#FFFFF0" filter="url(#f1h3wibogs00d2)" height="35.0938" rx="12.5" ry="12.5" style="stroke: #6495ED; stroke-width: 1.0;" width="62" x="111" y="263.0156"/><text fill="#696969" font-family="sans-serif" font-size="12" lengthAdjust="spacingAndGlyphs" textLength="42" x="121" y="285.4727">lenders</text><rect fill="#FFFFF0" filter="url(#f1h3wibogs00d2)" height="35.0938" rx="12.5" ry="12.5" style="stroke: #6495ED; stroke-width: 1.0;" width="170" x="201" y="263.0156"/><text fill="#696969" font-family="sans-serif" font-size="12" lengthAdjust="spacingAndGlyphs" textLength="150" x="211" y="285.4727">real estate agents / brokers</text><rect fill="#FFFFF0" filter="url(#f1h3wibogs00d2)" height="60.1875" rx="12.5" ry="12.5" style="stroke: #6495ED; stroke-width: 1.0;" width="113" x="399" y="250.4688"/><text fill="#696969" font-family="sans-serif" font-size="12" lengthAdjust="spacingAndGlyphs" textLength="93" x="409" y="272.9258">home inspectors</text><line style="stroke: #6495ED; stroke-width: 1.0;" x1="399" x2="512" y1="280.5625" y2="280.5625"/><text fill="#696969" font-family="sans-serif" font-size="12" lengthAdjust="spacingAndGlyphs" textLength="72" x="409" y="298.0195">licensed only</text><rect fill="#FFFFF0" filter="url(#f1h3wibogs00d2)" height="35.0938" rx="12.5" ry="12.5" style="stroke: #6495ED; stroke-width: 1.0;" width="116" x="540" y="263.0156"/><text fill="#696969" font-family="sans-serif" font-size="12" lengthAdjust="spacingAndGlyphs" textLength="96" x="550" y="285.4727">insurance agents</text><rect fill="#FFFFF0" filter="url(#f1h3wibogs00d2)" height="35.0938" rx="12.5" ry="12.5" style="stroke: #6495ED; stroke-width: 1.0;" width="119" x="684" y="263.0156"/><text fill="#696969" font-family="sans-serif" font-size="12" lengthAdjust="spacingAndGlyphs" textLength="99" x="694" y="285.4727">general contractor</text><rect fill="#FFFFF0" filter="url(#f1h3wibogs00d2)" height="35.0938" rx="12.5" ry="12.5" style="stroke: #6495ED; stroke-width: 1.0;" width="52" x="831" y="263.0156"/><text fill="#696969" font-family="sans-serif" font-size="12" lengthAdjust="spacingAndGlyphs" textLength="32" x="841" y="285.4727">roofer</text><rect fill="#FFFFF0" filter="url(#f1h3wibogs00d2)" height="35.0938" rx="12.5" ry="12.5" style="stroke: #6495ED; stroke-width: 1.0;" width="134" x="911" y="263.0156"/><text fill="#696969" font-family="sans-serif" font-size="12" lengthAdjust="spacingAndGlyphs" textLength="114" x="921" y="285.4727">foundation specialist</text><rect fill="#FFFFF0" filter="url(#f1h3wibogs00d2)" height="35.0938" rx="12.5" ry="12.5" style="stroke: #6495ED; stroke-width: 1.0;" width="112" x="1073" y="263.0156"/><text fill="#696969" font-family="sans-serif" font-size="12" lengthAdjust="spacingAndGlyphs" textLength="92" x="1083" y="285.4727">termite inspector</text><rect fill="#FFFFF0" filter="url(#f1h3wibogs00d2)" height="35.0938" rx="12.5" ry="12.5" style="stroke: #6495ED; stroke-width: 1.0;" width="141" x="1213" y="263.0156"/><text fill="#696969" font-family="sans-serif" font-size="12" lengthAdjust="spacingAndGlyphs" textLength="121" x="1223" y="285.4727">property management</text><rect fill="#FFFFF0" filter="url(#f1h3wibogs00d2)" height="35.0938" rx="12.5" ry="12.5" style="stroke: #6495ED; stroke-width: 1.0;" width="165" x="1382" y="263.0156"/><text fill="#696969" font-family="sans-serif" font-size="12" lengthAdjust="spacingAndGlyphs" textLength="145" x="1392" y="285.4727">tenant screening company</text><rect fill="#FFFFF0" filter="url(#f1h3wibogs00d2)" height="60.1875" rx="12.5" ry="12.5" style="stroke: #6495ED; stroke-width: 1.0;" width="151" x="1575" y="250.4688"/><text fill="#696969" font-family="sans-serif" font-size="12" lengthAdjust="spacingAndGlyphs" textLength="43" x="1585" y="272.9258">attorney</text><line style="stroke: #6495ED; stroke-width: 1.0;" x1="1575" x2="1726" y1="280.5625" y2="280.5625"/><text fill="#696969" font-family="sans-serif" font-size="12" lengthAdjust="spacingAndGlyphs" textLength="131" x="1585" y="298.0195">understands real estate</text><rect fill="#FFFFF0" filter="url(#f1h3wibogs00d2)" height="35.0938" rx="12.5" ry="12.5" style="stroke: #6495ED; stroke-width: 1.0;" width="40" x="1754" y="263.0156"/><text fill="#696969" font-family="sans-serif" font-size="12" lengthAdjust="spacingAndGlyphs" textLength="20" x="1764" y="285.4727">cpa</text><rect fill="#FFFFF0" filter="url(#f1h3wibogs00d2)" height="60.1875" rx="12.5" ry="12.5" style="stroke: #6495ED; stroke-width: 1.0;" width="124" x="1822" y="250.4688"/><text fill="#696969" font-family="sans-serif" font-size="12" lengthAdjust="spacingAndGlyphs" textLength="104" x="1832" y="272.9258">business checking</text><line style="stroke: #6495ED; stroke-width: 1.0;" x1="1822" x2="1946" y1="280.5625" y2="280.5625"/><text fill="#696969" font-family="sans-serif" font-size="12" lengthAdjust="spacingAndGlyphs" textLength="64" x="1832" y="298.0195">can get free</text><rect fill="#000000" filter="url(#f1h3wibogs00d2)" height="6" rx="2.5" ry="2.5" style="stroke: #000000; stroke-width: 1.0;" width="1950" x="10" y="330.6563"/><polygon fill="#FFFFF0" filter="url(#f1h3wibogs00d2)" points="985,125.375,997,137.375,985,149.375,973,137.375,985,125.375" style="stroke: #6495ED; stroke-width: 1.0;"/><polygon fill="#FFFFF0" filter="url(#f1h3wibogs00d2)" points="920,356.6563,1050,356.6563,1062,368.6563,1050,380.6563,920,380.6563,908,368.6563,920,356.6563" style="stroke: #6495ED; stroke-width: 1.0;"/><text fill="#A9A9A9" font-family="sans-serif" font-size="11" lengthAdjust="spacingAndGlyphs" textLength="130" x="920" y="373.1572">primary and two alternates</text><rect fill="#CCFFCC" filter="url(#f1h3wibogs00d2)" height="35.0938" rx="12.5" ry="12.5" style="stroke: #6495ED; stroke-width: 1.0;" width="81" x="944.5" y="400.6563"/><text fill="#696969" font-family="sans-serif" font-size="12" lengthAdjust="spacingAndGlyphs" textLength="61" x="954.5" y="423.1133">team ready</text><line style="stroke: #696969; stroke-width: 1.5;" x1="53.5" x2="53.5" y1="230.4688" y2="263.0156"/><polygon fill="#696969" points="49.5,253.0156,53.5,263.0156,57.5,253.0156,53.5,257.0156" style="stroke: #696969; stroke-width: 1.0;"/><line style="stroke: #696969; stroke-width: 1.5;" x1="142" x2="142" y1="230.4688" y2="263.0156"/><polygon fill="#696969" points="138,253.0156,142,263.0156,146,253.0156,142,257.0156" style="stroke: #696969; stroke-width: 1.0;"/><line style="stroke: #696969; stroke-width: 1.5;" x1="286" x2="286" y1="230.4688" y2="263.0156"/><polygon fill="#696969" points="282,253.0156,286,263.0156,290,253.0156,286,257.0156" style="stroke: #696969; stroke-width: 1.0;"/><line style="stroke: #696969; stroke-width: 1.5;" x1="455.5" x2="455.5" y1="230.4688" y2="250.4688"/><polygon fill="#696969" points="451.5,240.4688,455.5,250.4688,459.5,240.4688,455.5,244.4688" style="stroke: #696969; stroke-width: 1.0;"/><line style="stroke: #696969; stroke-width: 1.5;" x1="598" x2="598" y1="230.4688" y2="263.0156"/><polygon fill="#696969" points="594,253.0156,598,263.0156,602,253.0156,598,257.0156" style="stroke: #696969; stroke-width: 1.0;"/><line style="stroke: #696969; stroke-width: 1.5;" x1="743.5" x2="743.5" y1="230.4688" y2="263.0156"/><polygon fill="#696969" points="739.5,253.0156,743.5,263.0156,747.5,253.0156,743.5,257.0156" style="stroke: #696969; stroke-width: 1.0;"/><line style="stroke: #696969; stroke-width: 1.5;" x1="857" x2="857" y1="230.4688" y2="263.0156"/><polygon fill="#696969" points="853,253.0156,857,263.0156,861,253.0156,857,257.0156" style="stroke: #696969; stroke-width: 1.0;"/><line style="stroke: #696969; stroke-width: 1.5;" x1="978" x2="978" y1="230.4688" y2="263.0156"/><polygon fill="#696969" points="974,253.0156,978,263.0156,982,253.0156,978,257.0156" style="stroke: #696969; stroke-width: 1.0;"/><line style="stroke: #696969; stroke-width: 1.5;" x1="1129" x2="1129" y1="230.4688" y2="263.0156"/><polygon fill="#696969" points="1125,253.0156,1129,263.0156,1133,253.0156,1129,257.0156" style="stroke: #696969; stroke-width: 1.0;"/><line style="stroke: #696969; stroke-width: 1.5;" x1="1283.5" x2="1283.5" y1="230.4688" y2="263.0156"/><polygon fill="#696969" points="1279.5,253.0156,1283.5,263.0156,1287.5,253.0156,1283.5,257.0156" style="stroke: #696969; stroke-width: 1.0;"/><line style="stroke: #696969; stroke-width: 1.5;" x1="1464.5" x2="1464.5" y1="230.4688" y2="263.0156"/><polygon fill="#696969" points="1460.5,253.0156,1464.5,263.0156,1468.5,253.0156,1464.5,257.0156" style="stroke: #696969; stroke-width: 1.0;"/><line style="stroke: #696969; stroke-width: 1.5;" x1="1650.5" x2="1650.5" y1="230.4688" y2="250.4688"/><polygon fill="#696969" points="1646.5,240.4688,1650.5,250.4688,1654.5,240.4688,1650.5,244.4688" style="stroke: #696969; stroke-width: 1.0;"/><line style="stroke: #696969; stroke-width: 1.5;" x1="1774" x2="1774" y1="230.4688" y2="263.0156"/><polygon fill="#696969" points="1770,253.0156,1774,263.0156,1778,253.0156,1774,257.0156" style="stroke: #696969; stroke-width: 1.0;"/><line style="stroke: #696969; stroke-width: 1.5;" x1="1884" x2="1884" y1="230.4688" y2="250.4688"/><polygon fill="#696969" points="1880,240.4688,1884,250.4688,1888,240.4688,1884,244.4688" style="stroke: #696969; stroke-width: 1.0;"/><line style="stroke: #696969; stroke-width: 1.5;" x1="53.5" x2="53.5" y1="298.1094" y2="330.6563"/><polygon fill="#696969" points="49.5,320.6563,53.5,330.6563,57.5,320.6563,53.5,324.6563" style="stroke: #696969; stroke-width: 1.0;"/><line style="stroke: #696969; stroke-width: 1.5;" x1="142" x2="142" y1="298.1094" y2="330.6563"/><polygon fill="#696969" points="138,320.6563,142,330.6563,146,320.6563,142,324.6563" style="stroke: #696969; stroke-width: 1.0;"/><line style="stroke: #696969; stroke-width: 1.5;" x1="286" x2="286" y1="298.1094" y2="330.6563"/><polygon fill="#696969" points="282,320.6563,286,330.6563,290,320.6563,286,324.6563" style="stroke: #696969; stroke-width: 1.0;"/><line style="stroke: #696969; stroke-width: 1.5;" x1="455.5" x2="455.5" y1="310.6563" y2="330.6563"/><polygon fill="#696969" points="451.5,320.6563,455.5,330.6563,459.5,320.6563,455.5,324.6563" style="stroke: #696969; stroke-width: 1.0;"/><line style="stroke: #696969; stroke-width: 1.5;" x1="598" x2="598" y1="298.1094" y2="330.6563"/><polygon fill="#696969" points="594,320.6563,598,330.6563,602,320.6563,598,324.6563" style="stroke: #696969; stroke-width: 1.0;"/><line style="stroke: #696969; stroke-width: 1.5;" x1="743.5" x2="743.5" y1="298.1094" y2="330.6563"/><polygon fill="#696969" points="739.5,320.6563,743.5,330.6563,747.5,320.6563,743.5,324.6563" style="stroke: #696969; stroke-width: 1.0;"/><line style="stroke: #696969; stroke-width: 1.5;" x1="857" x2="857" y1="298.1094" y2="330.6563"/><polygon fill="#696969" points="853,320.6563,857,330.6563,861,320.6563,857,324.6563" style="stroke: #696969; stroke-width: 1.0;"/><line style="stroke: #696969; stroke-width: 1.5;" x1="978" x2="978" y1="298.1094" y2="330.6563"/><polygon fill="#696969" points="974,320.6563,978,330.6563,982,320.6563,978,324.6563" style="stroke: #696969; stroke-width: 1.0;"/><line style="stroke: #696969; stroke-width: 1.5;" x1="1129" x2="1129" y1="298.1094" y2="330.6563"/><polygon fill="#696969" points="1125,320.6563,1129,330.6563,1133,320.6563,1129,324.6563" style="stroke: #696969; stroke-width: 1.0;"/><line style="stroke: #696969; stroke-width: 1.5;" x1="1283.5" x2="1283.5" y1="298.1094" y2="330.6563"/><polygon fill="#696969" points="1279.5,320.6563,1283.5,330.6563,1287.5,320.6563,1283.5,324.6563" style="stroke: #696969; stroke-width: 1.0;"/><line style="stroke: #696969; stroke-width: 1.5;" x1="1464.5" x2="1464.5" y1="298.1094" y2="330.6563"/><polygon fill="#696969" points="1460.5,320.6563,1464.5,330.6563,1468.5,320.6563,1464.5,324.6563" style="stroke: #696969; stroke-width: 1.0;"/><line style="stroke: #696969; stroke-width: 1.5;" x1="1650.5" x2="1650.5" y1="310.6563" y2="330.6563"/><polygon fill="#696969" points="1646.5,320.6563,1650.5,330.6563,1654.5,320.6563,1650.5,324.6563" style="stroke: #696969; stroke-width: 1.0;"/><line style="stroke: #696969; stroke-width: 1.5;" x1="1774" x2="1774" y1="298.1094" y2="330.6563"/><polygon fill="#696969" points="1770,320.6563,1774,330.6563,1778,320.6563,1774,324.6563" style="stroke: #696969; stroke-width: 1.0;"/><line style="stroke: #696969; stroke-width: 1.5;" x1="1884" x2="1884" y1="310.6563" y2="330.6563"/><polygon fill="#696969" points="1880,320.6563,1884,330.6563,1888,320.6563,1884,324.6563" style="stroke: #696969; stroke-width: 1.0;"/><line style="stroke: #696969; stroke-width: 1.5;" x1="985" x2="985" y1="204.4688" y2="224.4688"/><polygon fill="#696969" points="981,214.4688,985,224.4688,989,214.4688,985,218.4688" style="stroke: #696969; stroke-width: 1.0;"/><line style="stroke: #696969; stroke-width: 1.5;" x1="985" x2="985" y1="149.375" y2="169.375"/><polygon fill="#696969" points="981,159.375,985,169.375,989,159.375,985,163.375" style="stroke: #696969; stroke-width: 1.0;"/><line style="stroke: #696969; stroke-width: 1.5;" x1="1062" x2="1972" y1="368.6563" y2="368.6563"/><polygon fill="#696969" points="1968,255.5156,1972,245.5156,1976,255.5156,1972,251.5156" style="stroke: #696969; stroke-width: 1.5;"/><line style="stroke: #696969; stroke-width: 1.5;" x1="1972" x2="1972" y1="137.375" y2="368.6563"/><line style="stroke: #696969; stroke-width: 1.5;" x1="1972" x2="997" y1="137.375" y2="137.375"/><polygon fill="#696969" points="1007,133.375,997,137.375,1007,141.375,1003,137.375" style="stroke: #696969; stroke-width: 1.0;"/><line style="stroke: #696969; stroke-width: 1.5;" x1="985" x2="985" y1="336.6563" y2="356.6563"/><polygon fill="#696969" points="981,346.6563,985,356.6563,989,346.6563,985,350.6563" style="stroke: #696969; stroke-width: 1.0;"/><line style="stroke: #696969; stroke-width: 1.5;" x1="985" x2="985" y1="105.375" y2="125.375"/><polygon fill="#696969" points="981,115.375,985,125.375,989,115.375,985,119.375" style="stroke: #696969; stroke-width: 1.0;"/><line style="stroke: #696969; stroke-width: 1.5;" x1="985" x2="985" y1="380.6563" y2="400.6563"/><polygon fill="#696969" points="981,390.6563,985,400.6563,989,390.6563,985,394.6563" style="stroke: #696969; stroke-width: 1.0;"/><text fill="#000080" font-family="sans-serif" font-size="14" lengthAdjust="spacingAndGlyphs" textLength="42" x="10" y="449.2832">©2019</text><a target="_top" xlink:actuate="onRequest" xlink:href="http://www.lifestylesunlimited.com" xlink:show="new" xlink:title="http://www.lifestylesunlimited.com" xlink:type="simple"><text fill="#0000FF" font-family="sans-serif" font-size="14" lengthAdjust="spacingAndGlyphs" text-decoration="underline" textLength="122" x="56" y="449.2832">LifeStyles Unlimited</text><line style="stroke: #0000FF; stroke-width: 1.0;" x1="56" x2="178" y1="451.2832" y2="451.2832"/></a><text fill="#000080" font-family="sans-serif" font-size="14" lengthAdjust="spacingAndGlyphs" textLength="283" x="182" y="449.2832">| Generated Sun May 12 17:24:35 CDT 2019</text><!--
@startuml team-building


skinparam {
  BorderColor Red
  PathHoverColor Blue
}

skinparam Title {
  FontColor Navy
  BackgroundColor PaleGoldenRod
  BorderColor Navy
  BorderRoundCorner 20
  FontSize 24
}

skinparam activity {
  BackgroundColor Ivory
  BorderColor CornflowerBlue
  BorderThickness 1
  FontColor DimGray
  

  Arrow {
    Color dimgray
    FontColor dimgray
  }

  Start {
    Color PHYSICAL
  }

  End {
    Color Coral
  }

  Diamond {
    BackgroundColor Ivory
    BorderColor CornflowerBlue
    FontColor DarkGray
  }

  BackgroundColor<< Exception >> Red
	BorderColor<< Exception >> White
}

skinparam Swimlane {
  BorderColor CornflowerBlue 
}

skinparam Partition {
  BackgroundColor Ivory
  BorderColor CornflowerBlue
  BorderThickness 1
  FontColor CornflowerBlue
  FontSize 16
  BorderRoundCorner 20
}

skinparam Note {
  BackgroundColor LightSteelBlue
  BorderColor CornflowerBlue
  FontColor White
}

skinparam Legend {
  BackgroundColor LightSteelBlue
  BorderColor CornflowerBlue
  FontColor White
}

skinparam Footer {
  FontColor Navy
}


left header 
	<font color=Navy size=24>[[../index.svg?sanitize=true ⌂ Home]]</font>
endheader


	Title Build Team

	start

	repeat

		:choose;

		fork
			:mentor;
		fork again
			:lenders;
		fork again
			:real estate agents / brokers;
		fork again
			:home inspectors
			- - - -
			licensed only;
		fork again
			:insurance agents;
		fork again
			:general contractor;
		fork again
			:roofer;
		fork again
			:foundation specialist;
		fork again
			:termite inspector;
		fork again
			:property management;
		fork again
			:tenant screening company;
		fork again
			:attorney
			- - - -
			understands real estate;
		fork again
			:cpa;
		fork again
			:business checking
			- - - -
			can get free;
		end fork
	repeat while (primary and two alternates)
	#PHYSICAL:team ready;
	


left footer 
	<font size=14>©2019 [[http://www.lifestylesunlimited.com LifeStyles Unlimited]] | Generated Sun May 12 17:24:35 CDT 2019</font>
endfooter


@enduml

PlantUML version 1.2019.03(Sun Mar 10 06:04:44 CDT 2019)
(GPL source distribution)
Java Runtime: Java(TM) SE Runtime Environment
JVM: Java HotSpot(TM) 64-Bit Server VM
Java Version: 1.8.0_111-b14
Operating System: Windows 10
OS Version: 10.0
Default Encoding: Cp1252
Language: en
Country: US
--></g></svg>