<?xml version="1.0" encoding="UTF-8" standalone="no"?><svg xmlns="http://www.w3.org/2000/svg" xmlns:xlink="http://www.w3.org/1999/xlink" contentScriptType="application/ecmascript" contentStyleType="text/css" height="422px" preserveAspectRatio="none" style="width:2204px;height:422px;" version="1.1" viewBox="0 0 2204 422" width="2204px" zoomAndPan="magnify"><defs><style type="text/css"><![CDATA[path:hover { stroke: #0000FF !important;}]]></style><filter height="300%" id="f9bqgq1gfn8pt" width="300%" x="-1" y="-1"><feGaussianBlur result="blurOut" stdDeviation="2.0"/><feColorMatrix in="blurOut" result="blurOut2" type="matrix" values="0 0 0 0 0 0 0 0 0 0 0 0 0 0 0 0 0 0 .4 0"/><feOffset dx="4.0" dy="4.0" in="blurOut2" result="blurOut3"/><feBlend in="SourceGraphic" in2="blurOut3" mode="normal"/></filter></defs><g><a target="_top" xlink:actuate="onRequest" xlink:href="../index.svg" xlink:show="new" xlink:title="../index.svg" xlink:type="simple"><text fill="#0000FF" font-family="sans-serif" font-size="18" lengthAdjust="spacingAndGlyphs" text-decoration="underline" textLength="67" x="10" y="28.6855">⌂ Home</text><line style="stroke: #0000FF; stroke-width: 1.0;" x1="10" x2="77" y1="30.6855" y2="30.6855"/></a><rect fill="#EEE8AA" height="32.6406" rx="10" ry="10" style="stroke: #000080; stroke-width: 1.5;" width="107" x="1047" y="34.6406"/><text fill="#000080" font-family="sans-serif" font-size="18" lengthAdjust="spacingAndGlyphs" textLength="91" x="1055" y="58.3262">Build Team</text><ellipse cx="1088" cy="80.2813" fill="#CCFFCC" filter="url(#f9bqgq1gfn8pt)" rx="10" ry="10" style="stroke: none; stroke-width: 1.0;"/><rect fill="#FFFFF0" filter="url(#f9bqgq1gfn8pt)" height="35.0938" rx="12.5" ry="12.5" style="stroke: #6495ED; stroke-width: 1.5;" width="61" x="1057.5" y="154.2813"/><text fill="#696969" font-family="sans-serif" font-size="12" lengthAdjust="spacingAndGlyphs" textLength="41" x="1067.5" y="176.7383">choose</text><rect fill="#000000" filter="url(#f9bqgq1gfn8pt)" height="6" rx="2.5" ry="2.5" style="stroke: #000000; stroke-width: 1.0;" width="2156" x="10" y="209.375"/><rect fill="#FFFFF0" filter="url(#f9bqgq1gfn8pt)" height="35.0938" rx="12.5" ry="12.5" style="stroke: #6495ED; stroke-width: 1.5;" width="59" x="24" y="235.375"/><text fill="#696969" font-family="sans-serif" font-size="12" lengthAdjust="spacingAndGlyphs" textLength="39" x="34" y="257.832">mentor</text><rect fill="#FFFFF0" filter="url(#f9bqgq1gfn8pt)" height="35.0938" rx="12.5" ry="12.5" style="stroke: #6495ED; stroke-width: 1.5;" width="62" x="111" y="235.375"/><text fill="#696969" font-family="sans-serif" font-size="12" lengthAdjust="spacingAndGlyphs" textLength="42" x="121" y="257.832">lenders</text><rect fill="#FFFFF0" filter="url(#f9bqgq1gfn8pt)" height="35.0938" rx="12.5" ry="12.5" style="stroke: #6495ED; stroke-width: 1.5;" width="170" x="201" y="235.375"/><text fill="#696969" font-family="sans-serif" font-size="12" lengthAdjust="spacingAndGlyphs" textLength="150" x="211" y="257.832">real estate agents / brokers</text><path d="M532,239.7461 L532,248.9219 L512,252.9219 L532,256.9219 L532,266.0977 A0,0 0 0 0 532,266.0977 L629,266.0977 A0,0 0 0 0 629,266.0977 L629,249.7461 L619,239.7461 L532,239.7461 A0,0 0 0 0 532,239.7461 " fill="#B0C4DE" filter="url(#f9bqgq1gfn8pt)" style="stroke: #6495ED; stroke-width: 1.0;"/><path d="M619,239.7461 L619,249.7461 L629,249.7461 L619,239.7461 " fill="#B0C4DE" style="stroke: #6495ED; stroke-width: 1.0;"/><text fill="#FFFFFF" font-family="sans-serif" font-size="13" lengthAdjust="spacingAndGlyphs" textLength="76" x="538" y="258.2412">licensed only</text><rect fill="#FFFFF0" filter="url(#f9bqgq1gfn8pt)" height="35.0938" rx="12.5" ry="12.5" style="stroke: #6495ED; stroke-width: 1.5;" width="113" x="399" y="235.375"/><text fill="#696969" font-family="sans-serif" font-size="12" lengthAdjust="spacingAndGlyphs" textLength="93" x="409" y="257.832">home inspectors</text><rect fill="#FFFFF0" filter="url(#f9bqgq1gfn8pt)" height="35.0938" rx="12.5" ry="12.5" style="stroke: #6495ED; stroke-width: 1.5;" width="116" x="657" y="235.375"/><text fill="#696969" font-family="sans-serif" font-size="12" lengthAdjust="spacingAndGlyphs" textLength="96" x="667" y="257.832">insurance agents</text><rect fill="#FFFFF0" filter="url(#f9bqgq1gfn8pt)" height="35.0938" rx="12.5" ry="12.5" style="stroke: #6495ED; stroke-width: 1.5;" width="119" x="801" y="235.375"/><text fill="#696969" font-family="sans-serif" font-size="12" lengthAdjust="spacingAndGlyphs" textLength="99" x="811" y="257.832">general contractor</text><rect fill="#FFFFF0" filter="url(#f9bqgq1gfn8pt)" height="35.0938" rx="12.5" ry="12.5" style="stroke: #6495ED; stroke-width: 1.5;" width="52" x="948" y="235.375"/><text fill="#696969" font-family="sans-serif" font-size="12" lengthAdjust="spacingAndGlyphs" textLength="32" x="958" y="257.832">roofer</text><rect fill="#FFFFF0" filter="url(#f9bqgq1gfn8pt)" height="35.0938" rx="12.5" ry="12.5" style="stroke: #6495ED; stroke-width: 1.5;" width="134" x="1028" y="235.375"/><text fill="#696969" font-family="sans-serif" font-size="12" lengthAdjust="spacingAndGlyphs" textLength="114" x="1038" y="257.832">foundation specialist</text><rect fill="#FFFFF0" filter="url(#f9bqgq1gfn8pt)" height="35.0938" rx="12.5" ry="12.5" style="stroke: #6495ED; stroke-width: 1.5;" width="112" x="1190" y="235.375"/><text fill="#696969" font-family="sans-serif" font-size="12" lengthAdjust="spacingAndGlyphs" textLength="92" x="1200" y="257.832">termite inspector</text><rect fill="#FFFFF0" filter="url(#f9bqgq1gfn8pt)" height="35.0938" rx="12.5" ry="12.5" style="stroke: #6495ED; stroke-width: 1.5;" width="141" x="1330" y="235.375"/><text fill="#696969" font-family="sans-serif" font-size="12" lengthAdjust="spacingAndGlyphs" textLength="121" x="1340" y="257.832">property management</text><rect fill="#FFFFF0" filter="url(#f9bqgq1gfn8pt)" height="35.0938" rx="12.5" ry="12.5" style="stroke: #6495ED; stroke-width: 1.5;" width="165" x="1499" y="235.375"/><text fill="#696969" font-family="sans-serif" font-size="12" lengthAdjust="spacingAndGlyphs" textLength="145" x="1509" y="257.832">tenant screening company</text><path d="M1775,239.7461 L1775,248.9219 L1755,252.9219 L1775,256.9219 L1775,266.0977 A0,0 0 0 0 1775,266.0977 L1932,266.0977 A0,0 0 0 0 1932,266.0977 L1932,249.7461 L1922,239.7461 L1775,239.7461 A0,0 0 0 0 1775,239.7461 " fill="#B0C4DE" filter="url(#f9bqgq1gfn8pt)" style="stroke: #6495ED; stroke-width: 1.0;"/><path d="M1922,239.7461 L1922,249.7461 L1932,249.7461 L1922,239.7461 " fill="#B0C4DE" style="stroke: #6495ED; stroke-width: 1.0;"/><text fill="#FFFFFF" font-family="sans-serif" font-size="13" lengthAdjust="spacingAndGlyphs" textLength="136" x="1781" y="258.2412">understands real estate</text><rect fill="#FFFFF0" filter="url(#f9bqgq1gfn8pt)" height="35.0938" rx="12.5" ry="12.5" style="stroke: #6495ED; stroke-width: 1.5;" width="63" x="1692" y="235.375"/><text fill="#696969" font-family="sans-serif" font-size="12" lengthAdjust="spacingAndGlyphs" textLength="43" x="1702" y="257.832">attorney</text><rect fill="#FFFFF0" filter="url(#f9bqgq1gfn8pt)" height="35.0938" rx="12.5" ry="12.5" style="stroke: #6495ED; stroke-width: 1.5;" width="40" x="1960" y="235.375"/><text fill="#696969" font-family="sans-serif" font-size="12" lengthAdjust="spacingAndGlyphs" textLength="20" x="1970" y="257.832">cpa</text><rect fill="#FFFFF0" filter="url(#f9bqgq1gfn8pt)" height="35.0938" rx="12.5" ry="12.5" style="stroke: #6495ED; stroke-width: 1.5;" width="124" x="2028" y="235.375"/><text fill="#696969" font-family="sans-serif" font-size="12" lengthAdjust="spacingAndGlyphs" textLength="104" x="2038" y="257.832">business checking</text><rect fill="#000000" filter="url(#f9bqgq1gfn8pt)" height="6" rx="2.5" ry="2.5" style="stroke: #000000; stroke-width: 1.0;" width="2156" x="10" y="290.4688"/><polygon fill="#FFFFF0" filter="url(#f9bqgq1gfn8pt)" points="1088,110.2813,1100,122.2813,1088,134.2813,1076,122.2813,1088,110.2813" style="stroke: #6495ED; stroke-width: 1.5;"/><polygon fill="#FFFFF0" filter="url(#f9bqgq1gfn8pt)" points="1023,316.4688,1153,316.4688,1165,328.4688,1153,340.4688,1023,340.4688,1011,328.4688,1023,316.4688" style="stroke: #6495ED; stroke-width: 1.5;"/><text fill="#A9A9A9" font-family="sans-serif" font-size="11" lengthAdjust="spacingAndGlyphs" textLength="130" x="1023" y="332.9697">primary and two alternates</text><rect fill="#CCFFCC" filter="url(#f9bqgq1gfn8pt)" height="35.0938" rx="12.5" ry="12.5" style="stroke: #6495ED; stroke-width: 1.5;" width="81" x="1047.5" y="360.4688"/><text fill="#696969" font-family="sans-serif" font-size="12" lengthAdjust="spacingAndGlyphs" textLength="61" x="1057.5" y="382.9258">team ready</text><line style="stroke: #696969; stroke-width: 1.5;" x1="53.5" x2="53.5" y1="215.375" y2="235.375"/><polygon fill="#696969" points="49.5,225.375,53.5,235.375,57.5,225.375,53.5,229.375" style="stroke: #696969; stroke-width: 1.0;"/><line style="stroke: #696969; stroke-width: 1.5;" x1="142" x2="142" y1="215.375" y2="235.375"/><polygon fill="#696969" points="138,225.375,142,235.375,146,225.375,142,229.375" style="stroke: #696969; stroke-width: 1.0;"/><line style="stroke: #696969; stroke-width: 1.5;" x1="286" x2="286" y1="215.375" y2="235.375"/><polygon fill="#696969" points="282,225.375,286,235.375,290,225.375,286,229.375" style="stroke: #696969; stroke-width: 1.0;"/><line style="stroke: #696969; stroke-width: 1.5;" x1="455.5" x2="455.5" y1="215.375" y2="235.375"/><polygon fill="#696969" points="451.5,225.375,455.5,235.375,459.5,225.375,455.5,229.375" style="stroke: #696969; stroke-width: 1.0;"/><line style="stroke: #696969; stroke-width: 1.5;" x1="715" x2="715" y1="215.375" y2="235.375"/><polygon fill="#696969" points="711,225.375,715,235.375,719,225.375,715,229.375" style="stroke: #696969; stroke-width: 1.0;"/><line style="stroke: #696969; stroke-width: 1.5;" x1="860.5" x2="860.5" y1="215.375" y2="235.375"/><polygon fill="#696969" points="856.5,225.375,860.5,235.375,864.5,225.375,860.5,229.375" style="stroke: #696969; stroke-width: 1.0;"/><line style="stroke: #696969; stroke-width: 1.5;" x1="974" x2="974" y1="215.375" y2="235.375"/><polygon fill="#696969" points="970,225.375,974,235.375,978,225.375,974,229.375" style="stroke: #696969; stroke-width: 1.0;"/><line style="stroke: #696969; stroke-width: 1.5;" x1="1095" x2="1095" y1="215.375" y2="235.375"/><polygon fill="#696969" points="1091,225.375,1095,235.375,1099,225.375,1095,229.375" style="stroke: #696969; stroke-width: 1.0;"/><line style="stroke: #696969; stroke-width: 1.5;" x1="1246" x2="1246" y1="215.375" y2="235.375"/><polygon fill="#696969" points="1242,225.375,1246,235.375,1250,225.375,1246,229.375" style="stroke: #696969; stroke-width: 1.0;"/><line style="stroke: #696969; stroke-width: 1.5;" x1="1400.5" x2="1400.5" y1="215.375" y2="235.375"/><polygon fill="#696969" points="1396.5,225.375,1400.5,235.375,1404.5,225.375,1400.5,229.375" style="stroke: #696969; stroke-width: 1.0;"/><line style="stroke: #696969; stroke-width: 1.5;" x1="1581.5" x2="1581.5" y1="215.375" y2="235.375"/><polygon fill="#696969" points="1577.5,225.375,1581.5,235.375,1585.5,225.375,1581.5,229.375" style="stroke: #696969; stroke-width: 1.0;"/><line style="stroke: #696969; stroke-width: 1.5;" x1="1723.5" x2="1723.5" y1="215.375" y2="235.375"/><polygon fill="#696969" points="1719.5,225.375,1723.5,235.375,1727.5,225.375,1723.5,229.375" style="stroke: #696969; stroke-width: 1.0;"/><line style="stroke: #696969; stroke-width: 1.5;" x1="1980" x2="1980" y1="215.375" y2="235.375"/><polygon fill="#696969" points="1976,225.375,1980,235.375,1984,225.375,1980,229.375" style="stroke: #696969; stroke-width: 1.0;"/><line style="stroke: #696969; stroke-width: 1.5;" x1="2090" x2="2090" y1="215.375" y2="235.375"/><polygon fill="#696969" points="2086,225.375,2090,235.375,2094,225.375,2090,229.375" style="stroke: #696969; stroke-width: 1.0;"/><line style="stroke: #696969; stroke-width: 1.5;" x1="53.5" x2="53.5" y1="270.4688" y2="290.4688"/><polygon fill="#696969" points="49.5,280.4688,53.5,290.4688,57.5,280.4688,53.5,284.4688" style="stroke: #696969; stroke-width: 1.0;"/><line style="stroke: #696969; stroke-width: 1.5;" x1="142" x2="142" y1="270.4688" y2="290.4688"/><polygon fill="#696969" points="138,280.4688,142,290.4688,146,280.4688,142,284.4688" style="stroke: #696969; stroke-width: 1.0;"/><line style="stroke: #696969; stroke-width: 1.5;" x1="286" x2="286" y1="270.4688" y2="290.4688"/><polygon fill="#696969" points="282,280.4688,286,290.4688,290,280.4688,286,284.4688" style="stroke: #696969; stroke-width: 1.0;"/><line style="stroke: #696969; stroke-width: 1.5;" x1="455.5" x2="455.5" y1="270.4688" y2="290.4688"/><polygon fill="#696969" points="451.5,280.4688,455.5,290.4688,459.5,280.4688,455.5,284.4688" style="stroke: #696969; stroke-width: 1.0;"/><line style="stroke: #696969; stroke-width: 1.5;" x1="715" x2="715" y1="270.4688" y2="290.4688"/><polygon fill="#696969" points="711,280.4688,715,290.4688,719,280.4688,715,284.4688" style="stroke: #696969; stroke-width: 1.0;"/><line style="stroke: #696969; stroke-width: 1.5;" x1="860.5" x2="860.5" y1="270.4688" y2="290.4688"/><polygon fill="#696969" points="856.5,280.4688,860.5,290.4688,864.5,280.4688,860.5,284.4688" style="stroke: #696969; stroke-width: 1.0;"/><line style="stroke: #696969; stroke-width: 1.5;" x1="974" x2="974" y1="270.4688" y2="290.4688"/><polygon fill="#696969" points="970,280.4688,974,290.4688,978,280.4688,974,284.4688" style="stroke: #696969; stroke-width: 1.0;"/><line style="stroke: #696969; stroke-width: 1.5;" x1="1095" x2="1095" y1="270.4688" y2="290.4688"/><polygon fill="#696969" points="1091,280.4688,1095,290.4688,1099,280.4688,1095,284.4688" style="stroke: #696969; stroke-width: 1.0;"/><line style="stroke: #696969; stroke-width: 1.5;" x1="1246" x2="1246" y1="270.4688" y2="290.4688"/><polygon fill="#696969" points="1242,280.4688,1246,290.4688,1250,280.4688,1246,284.4688" style="stroke: #696969; stroke-width: 1.0;"/><line style="stroke: #696969; stroke-width: 1.5;" x1="1400.5" x2="1400.5" y1="270.4688" y2="290.4688"/><polygon fill="#696969" points="1396.5,280.4688,1400.5,290.4688,1404.5,280.4688,1400.5,284.4688" style="stroke: #696969; stroke-width: 1.0;"/><line style="stroke: #696969; stroke-width: 1.5;" x1="1581.5" x2="1581.5" y1="270.4688" y2="290.4688"/><polygon fill="#696969" points="1577.5,280.4688,1581.5,290.4688,1585.5,280.4688,1581.5,284.4688" style="stroke: #696969; stroke-width: 1.0;"/><line style="stroke: #696969; stroke-width: 1.5;" x1="1723.5" x2="1723.5" y1="270.4688" y2="290.4688"/><polygon fill="#696969" points="1719.5,280.4688,1723.5,290.4688,1727.5,280.4688,1723.5,284.4688" style="stroke: #696969; stroke-width: 1.0;"/><line style="stroke: #696969; stroke-width: 1.5;" x1="1980" x2="1980" y1="270.4688" y2="290.4688"/><polygon fill="#696969" points="1976,280.4688,1980,290.4688,1984,280.4688,1980,284.4688" style="stroke: #696969; stroke-width: 1.0;"/><line style="stroke: #696969; stroke-width: 1.5;" x1="2090" x2="2090" y1="270.4688" y2="290.4688"/><polygon fill="#696969" points="2086,280.4688,2090,290.4688,2094,280.4688,2090,284.4688" style="stroke: #696969; stroke-width: 1.0;"/><line style="stroke: #696969; stroke-width: 1.5;" x1="1088" x2="1088" y1="189.375" y2="209.375"/><polygon fill="#696969" points="1084,199.375,1088,209.375,1092,199.375,1088,203.375" style="stroke: #696969; stroke-width: 1.0;"/><line style="stroke: #696969; stroke-width: 1.5;" x1="1088" x2="1088" y1="134.2813" y2="154.2813"/><polygon fill="#696969" points="1084,144.2813,1088,154.2813,1092,144.2813,1088,148.2813" style="stroke: #696969; stroke-width: 1.0;"/><line style="stroke: #696969; stroke-width: 1.5;" x1="1165" x2="2178" y1="328.4688" y2="328.4688"/><polygon fill="#696969" points="2174,227.875,2178,217.875,2182,227.875,2178,223.875" style="stroke: #696969; stroke-width: 1.5;"/><line style="stroke: #696969; stroke-width: 1.5;" x1="2178" x2="2178" y1="122.2813" y2="328.4688"/><line style="stroke: #696969; stroke-width: 1.5;" x1="2178" x2="1100" y1="122.2813" y2="122.2813"/><polygon fill="#696969" points="1110,118.2813,1100,122.2813,1110,126.2813,1106,122.2813" style="stroke: #696969; stroke-width: 1.0;"/><line style="stroke: #696969; stroke-width: 1.5;" x1="1088" x2="1088" y1="296.4688" y2="316.4688"/><polygon fill="#696969" points="1084,306.4688,1088,316.4688,1092,306.4688,1088,310.4688" style="stroke: #696969; stroke-width: 1.0;"/><line style="stroke: #696969; stroke-width: 1.5;" x1="1088" x2="1088" y1="90.2813" y2="110.2813"/><polygon fill="#696969" points="1084,100.2813,1088,110.2813,1092,100.2813,1088,104.2813" style="stroke: #696969; stroke-width: 1.0;"/><line style="stroke: #696969; stroke-width: 1.5;" x1="1088" x2="1088" y1="340.4688" y2="360.4688"/><polygon fill="#696969" points="1084,350.4688,1088,360.4688,1092,350.4688,1088,354.4688" style="stroke: #696969; stroke-width: 1.0;"/><text fill="#000080" font-family="sans-serif" font-size="14" lengthAdjust="spacingAndGlyphs" textLength="42" x="10" y="409.0957">©2019</text><a target="_top" xlink:actuate="onRequest" xlink:href="http://www.lifestylesunlimited.com" xlink:show="new" xlink:title="http://www.lifestylesunlimited.com" xlink:type="simple"><text fill="#0000FF" font-family="sans-serif" font-size="14" lengthAdjust="spacingAndGlyphs" text-decoration="underline" textLength="122" x="56" y="409.0957">LifeStyles Unlimited</text><line style="stroke: #0000FF; stroke-width: 1.0;" x1="56" x2="178" y1="411.0957" y2="411.0957"/></a><text fill="#000080" font-family="sans-serif" font-size="14" lengthAdjust="spacingAndGlyphs" textLength="281" x="182" y="409.0957">| Generated Mon Apr 22 08:26:03 CDT 2019</text><!--
@startuml team-building


skinparam {
  BorderColor Red
  PathHoverColor Blue
}

skinparam Title {
  FontColor Navy
  BackgroundColor PaleGoldenRod
  BorderColor Navy
  BorderRoundCorner 20
}

skinparam activity {
  BackgroundColor Ivory
  BorderColor CornflowerBlue
  FontColor DimGray
  

  Arrow {
    Color dimgray
    FontColor dimgray
  }

  Start {
    Color PHYSICAL
  }

  End {
    Color Coral
  }

  Diamond {
    BackgroundColor Ivory
    BorderColor CornflowerBlue
    FontColor DarkGray
  }

  BackgroundColor<< Exception >> Red
	BorderColor<< Exception >> White
}

skinparam Swimlane {
  BorderColor CornflowerBlue 
}

skinparam Partition {
  BackgroundColor Ivory
  BorderColor CornflowerBlue
  BorderThickness 1
  FontColor CornflowerBlue
  FontSize 16
  BorderRoundCorner 20
}

skinparam Note {
  BackgroundColor LightSteelBlue
  BorderColor CornflowerBlue
  FontColor White
}

skinparam Legend {
  BackgroundColor LightSteelBlue
  BorderColor CornflowerBlue
  FontColor White
}

skinparam Footer {
  FontColor Navy
}


left header 
	<font color=Navy size=18>[[../index.svg ⌂ Home]]</font>
endheader


	Title Build Team

	start

	repeat

		:choose;

		fork
			:mentor;
		fork again
			:lenders;
		fork again
			:real estate agents / brokers;
		fork again
			:home inspectors;
			note right: licensed only
		fork again
			:insurance agents;
		fork again
			:general contractor;
		fork again
			:roofer;
		fork again
			:foundation specialist;
		fork again
			:termite inspector;
		fork again
			:property management;
		fork again
			:tenant screening company;
		fork again
			:attorney;
			note right: understands real estate
		fork again
			:cpa;
		fork again
			:business checking;
		end fork
	repeat while (primary and two alternates)
	#PHYSICAL:team ready;
	


left footer 
	<font size=14>©2019 [[http://www.lifestylesunlimited.com LifeStyles Unlimited]] | Generated Mon Apr 22 08:26:03 CDT 2019</font>
endfooter


@enduml

PlantUML version 1.2019.03(Sun Mar 10 06:04:44 CDT 2019)
(GPL source distribution)
Java Runtime: Java(TM) SE Runtime Environment
JVM: Java HotSpot(TM) 64-Bit Server VM
Java Version: 1.8.0_111-b14
Operating System: Windows 10
OS Version: 10.0
Default Encoding: Cp1252
Language: en
Country: US
--></g></svg>