<?xml version="1.0" encoding="UTF-8" standalone="no"?><svg xmlns="http://www.w3.org/2000/svg" xmlns:xlink="http://www.w3.org/1999/xlink" contentScriptType="application/ecmascript" contentStyleType="text/css" height="462px" preserveAspectRatio="none" style="width:1815px;height:462px;" version="1.1" viewBox="0 0 1815 462" width="1815px" zoomAndPan="magnify"><defs><style type="text/css"><![CDATA[path:hover { stroke: #0000FF !important;}]]></style><filter height="300%" id="f1bnstbg22nooo" width="300%" x="-1" y="-1"><feGaussianBlur result="blurOut" stdDeviation="2.0"/><feColorMatrix in="blurOut" result="blurOut2" type="matrix" values="0 0 0 0 0 0 0 0 0 0 0 0 0 0 0 0 0 0 .4 0"/><feOffset dx="4.0" dy="4.0" in="blurOut2" result="blurOut3"/><feBlend in="SourceGraphic" in2="blurOut3" mode="normal"/></filter></defs><g><a href="../index.svg?sanitize=true" target="_top" xlink:actuate="onRequest" xlink:show="new" xlink:title="../index.svg?sanitize=true" xlink:type="simple"><text fill="#0000FF" font-family="sans-serif" font-size="24" lengthAdjust="spacingAndGlyphs" text-decoration="underline" textLength="90" x="10" y="34.9141">⌂ Home</text></a><rect fill="#EEE8AA" height="40.1875" rx="10" ry="10" style="stroke: #000080; stroke-width: 1.5;" width="138" x="837" y="42.1875"/><text fill="#000080" font-family="sans-serif" font-size="24" lengthAdjust="spacingAndGlyphs" textLength="122" x="845" y="72.1016">Build Team</text><ellipse cx="875.5" cy="95.375" fill="#CCFFCC" filter="url(#f1bnstbg22nooo)" rx="10" ry="10" style="stroke: none; stroke-width: 1.0;"/><rect fill="#FFFFF0" filter="url(#f1bnstbg22nooo)" height="35.0938" rx="12.5" ry="12.5" style="stroke: #6495ED; stroke-width: 1.0;" width="61" x="845" y="169.375"/><text fill="#696969" font-family="sans-serif" font-size="12" lengthAdjust="spacingAndGlyphs" textLength="41" x="855" y="191.832">choose</text><rect fill="#000000" filter="url(#f1bnstbg22nooo)" height="6" rx="2.5" ry="2.5" style="stroke: #000000; stroke-width: 1.0;" width="1767" x="10" y="224.4688"/><rect fill="#FFFFF0" filter="url(#f1bnstbg22nooo)" height="35.0938" rx="12.5" ry="12.5" style="stroke: #6495ED; stroke-width: 1.0;" width="59" x="22" y="263.0156"/><text fill="#696969" font-family="sans-serif" font-size="12" lengthAdjust="spacingAndGlyphs" textLength="39" x="32" y="285.4727">mentor</text><rect fill="#FFFFF0" filter="url(#f1bnstbg22nooo)" height="35.0938" rx="12.5" ry="12.5" style="stroke: #6495ED; stroke-width: 1.0;" width="62" x="91" y="263.0156"/><text fill="#696969" font-family="sans-serif" font-size="12" lengthAdjust="spacingAndGlyphs" textLength="42" x="101" y="285.4727">lenders</text><rect fill="#FFFFF0" filter="url(#f1bnstbg22nooo)" height="60.1875" rx="12.5" ry="12.5" style="stroke: #6495ED; stroke-width: 1.0;" width="170" x="163" y="250.4688"/><text fill="#696969" font-family="sans-serif" font-size="12" lengthAdjust="spacingAndGlyphs" textLength="150" x="173" y="272.9258">real estate agents / brokers</text><line style="stroke: #6495ED; stroke-width: 1.0;" x1="163" x2="333" y1="280.5625" y2="280.5625"/><text fill="#696969" font-family="sans-serif" font-size="12" lengthAdjust="spacingAndGlyphs" textLength="58" x="173" y="298.0195">20 of them</text><rect fill="#FFFFF0" filter="url(#f1bnstbg22nooo)" height="60.1875" rx="12.5" ry="12.5" style="stroke: #6495ED; stroke-width: 1.0;" width="113" x="343" y="250.4688"/><text fill="#696969" font-family="sans-serif" font-size="12" lengthAdjust="spacingAndGlyphs" textLength="93" x="353" y="272.9258">home inspectors</text><line style="stroke: #6495ED; stroke-width: 1.0;" x1="343" x2="456" y1="280.5625" y2="280.5625"/><text fill="#696969" font-family="sans-serif" font-size="12" lengthAdjust="spacingAndGlyphs" textLength="72" x="353" y="298.0195">licensed only</text><rect fill="#FFFFF0" filter="url(#f1bnstbg22nooo)" height="35.0938" rx="12.5" ry="12.5" style="stroke: #6495ED; stroke-width: 1.0;" width="116" x="466" y="263.0156"/><text fill="#696969" font-family="sans-serif" font-size="12" lengthAdjust="spacingAndGlyphs" textLength="96" x="476" y="285.4727">insurance agents</text><rect fill="#FFFFF0" filter="url(#f1bnstbg22nooo)" height="35.0938" rx="12.5" ry="12.5" style="stroke: #6495ED; stroke-width: 1.0;" width="119" x="592" y="263.0156"/><text fill="#696969" font-family="sans-serif" font-size="12" lengthAdjust="spacingAndGlyphs" textLength="99" x="602" y="285.4727">general contractor</text><rect fill="#FFFFF0" filter="url(#f1bnstbg22nooo)" height="35.0938" rx="12.5" ry="12.5" style="stroke: #6495ED; stroke-width: 1.0;" width="52" x="721" y="263.0156"/><text fill="#696969" font-family="sans-serif" font-size="12" lengthAdjust="spacingAndGlyphs" textLength="32" x="731" y="285.4727">roofer</text><rect fill="#FFFFF0" filter="url(#f1bnstbg22nooo)" height="35.0938" rx="12.5" ry="12.5" style="stroke: #6495ED; stroke-width: 1.0;" width="134" x="783" y="263.0156"/><text fill="#696969" font-family="sans-serif" font-size="12" lengthAdjust="spacingAndGlyphs" textLength="114" x="793" y="285.4727">foundation specialist</text><rect fill="#FFFFF0" filter="url(#f1bnstbg22nooo)" height="35.0938" rx="12.5" ry="12.5" style="stroke: #6495ED; stroke-width: 1.0;" width="112" x="945" y="263.0156"/><text fill="#696969" font-family="sans-serif" font-size="12" lengthAdjust="spacingAndGlyphs" textLength="92" x="955" y="285.4727">termite inspector</text><rect fill="#FFFFF0" filter="url(#f1bnstbg22nooo)" height="60.1875" rx="12.5" ry="12.5" style="stroke: #6495ED; stroke-width: 1.0;" width="141" x="1067" y="250.4688"/><text fill="#696969" font-family="sans-serif" font-size="12" lengthAdjust="spacingAndGlyphs" textLength="121" x="1077" y="272.9258">property management</text><line style="stroke: #6495ED; stroke-width: 1.0;" x1="1067" x2="1208" y1="280.5625" y2="280.5625"/><text fill="#696969" font-family="sans-serif" font-size="12" lengthAdjust="spacingAndGlyphs" textLength="93" x="1077" y="298.0195">out of town deals</text><rect fill="#FFFFF0" filter="url(#f1bnstbg22nooo)" height="60.1875" rx="12.5" ry="12.5" style="stroke: #6495ED; stroke-width: 1.0;" width="165" x="1218" y="250.4688"/><text fill="#696969" font-family="sans-serif" font-size="12" lengthAdjust="spacingAndGlyphs" textLength="145" x="1228" y="272.9258">tenant screening company</text><line style="stroke: #6495ED; stroke-width: 1.0;" x1="1218" x2="1383" y1="280.5625" y2="280.5625"/><text fill="#696969" font-family="sans-serif" font-size="12" lengthAdjust="spacingAndGlyphs" textLength="125" x="1228" y="298.0195">NTN $15 &amp; charge $50</text><rect fill="#FFFFF0" filter="url(#f1bnstbg22nooo)" height="60.1875" rx="12.5" ry="12.5" style="stroke: #6495ED; stroke-width: 1.0;" width="114" x="1393" y="250.4688"/><text fill="#696969" font-family="sans-serif" font-size="12" lengthAdjust="spacingAndGlyphs" textLength="43" x="1403" y="272.9258">attorney</text><line style="stroke: #6495ED; stroke-width: 1.0;" x1="1393" x2="1507" y1="280.5625" y2="280.5625"/><text fill="#696969" font-family="sans-serif" font-size="12" lengthAdjust="spacingAndGlyphs" textLength="94" x="1403" y="298.0195">real estate expert</text><rect fill="#FFFFF0" filter="url(#f1bnstbg22nooo)" height="60.1875" rx="12.5" ry="12.5" style="stroke: #6495ED; stroke-width: 1.0;" width="114" x="1517" y="250.4688"/><text fill="#696969" font-family="sans-serif" font-size="12" lengthAdjust="spacingAndGlyphs" textLength="20" x="1527" y="272.9258">cpa</text><line style="stroke: #6495ED; stroke-width: 1.0;" x1="1517" x2="1631" y1="280.5625" y2="280.5625"/><text fill="#696969" font-family="sans-serif" font-size="12" lengthAdjust="spacingAndGlyphs" textLength="94" x="1527" y="298.0195">real estate expert</text><rect fill="#FFFFF0" filter="url(#f1bnstbg22nooo)" height="60.1875" rx="12.5" ry="12.5" style="stroke: #6495ED; stroke-width: 1.0;" width="124" x="1641" y="250.4688"/><text fill="#696969" font-family="sans-serif" font-size="12" lengthAdjust="spacingAndGlyphs" textLength="104" x="1651" y="272.9258">business checking</text><line style="stroke: #6495ED; stroke-width: 1.0;" x1="1641" x2="1765" y1="280.5625" y2="280.5625"/><text fill="#696969" font-family="sans-serif" font-size="12" lengthAdjust="spacingAndGlyphs" textLength="64" x="1651" y="298.0195">can get free</text><rect fill="#000000" filter="url(#f1bnstbg22nooo)" height="6" rx="2.5" ry="2.5" style="stroke: #000000; stroke-width: 1.0;" width="1767" x="10" y="330.6563"/><polygon fill="#FFFFF0" filter="url(#f1bnstbg22nooo)" points="875.5,125.375,887.5,137.375,875.5,149.375,863.5,137.375,875.5,125.375" style="stroke: #6495ED; stroke-width: 1.0;"/><polygon fill="#FFFFF0" filter="url(#f1bnstbg22nooo)" points="810.5,356.6563,940.5,356.6563,952.5,368.6563,940.5,380.6563,810.5,380.6563,798.5,368.6563,810.5,356.6563" style="stroke: #6495ED; stroke-width: 1.0;"/><text fill="#A9A9A9" font-family="sans-serif" font-size="11" lengthAdjust="spacingAndGlyphs" textLength="130" x="810.5" y="373.1572">primary and two alternates</text><rect fill="#CCFFCC" filter="url(#f1bnstbg22nooo)" height="35.0938" rx="12.5" ry="12.5" style="stroke: #6495ED; stroke-width: 1.0;" width="81" x="835" y="400.6563"/><text fill="#696969" font-family="sans-serif" font-size="12" lengthAdjust="spacingAndGlyphs" textLength="61" x="845" y="423.1133">team ready</text><line style="stroke: #696969; stroke-width: 1.5;" x1="51.5" x2="51.5" y1="230.4688" y2="263.0156"/><polygon fill="#696969" points="47.5,253.0156,51.5,263.0156,55.5,253.0156,51.5,257.0156" style="stroke: #696969; stroke-width: 1.0;"/><line style="stroke: #696969; stroke-width: 1.5;" x1="122" x2="122" y1="230.4688" y2="263.0156"/><polygon fill="#696969" points="118,253.0156,122,263.0156,126,253.0156,122,257.0156" style="stroke: #696969; stroke-width: 1.0;"/><line style="stroke: #696969; stroke-width: 1.5;" x1="248" x2="248" y1="230.4688" y2="250.4688"/><polygon fill="#696969" points="244,240.4688,248,250.4688,252,240.4688,248,244.4688" style="stroke: #696969; stroke-width: 1.0;"/><line style="stroke: #696969; stroke-width: 1.5;" x1="399.5" x2="399.5" y1="230.4688" y2="250.4688"/><polygon fill="#696969" points="395.5,240.4688,399.5,250.4688,403.5,240.4688,399.5,244.4688" style="stroke: #696969; stroke-width: 1.0;"/><line style="stroke: #696969; stroke-width: 1.5;" x1="524" x2="524" y1="230.4688" y2="263.0156"/><polygon fill="#696969" points="520,253.0156,524,263.0156,528,253.0156,524,257.0156" style="stroke: #696969; stroke-width: 1.0;"/><line style="stroke: #696969; stroke-width: 1.5;" x1="651.5" x2="651.5" y1="230.4688" y2="263.0156"/><polygon fill="#696969" points="647.5,253.0156,651.5,263.0156,655.5,253.0156,651.5,257.0156" style="stroke: #696969; stroke-width: 1.0;"/><line style="stroke: #696969; stroke-width: 1.5;" x1="747" x2="747" y1="230.4688" y2="263.0156"/><polygon fill="#696969" points="743,253.0156,747,263.0156,751,253.0156,747,257.0156" style="stroke: #696969; stroke-width: 1.0;"/><line style="stroke: #696969; stroke-width: 1.5;" x1="850" x2="850" y1="230.4688" y2="263.0156"/><polygon fill="#696969" points="846,253.0156,850,263.0156,854,253.0156,850,257.0156" style="stroke: #696969; stroke-width: 1.0;"/><line style="stroke: #696969; stroke-width: 1.5;" x1="1001" x2="1001" y1="230.4688" y2="263.0156"/><polygon fill="#696969" points="997,253.0156,1001,263.0156,1005,253.0156,1001,257.0156" style="stroke: #696969; stroke-width: 1.0;"/><line style="stroke: #696969; stroke-width: 1.5;" x1="1137.5" x2="1137.5" y1="230.4688" y2="250.4688"/><polygon fill="#696969" points="1133.5,240.4688,1137.5,250.4688,1141.5,240.4688,1137.5,244.4688" style="stroke: #696969; stroke-width: 1.0;"/><line style="stroke: #696969; stroke-width: 1.5;" x1="1300.5" x2="1300.5" y1="230.4688" y2="250.4688"/><polygon fill="#696969" points="1296.5,240.4688,1300.5,250.4688,1304.5,240.4688,1300.5,244.4688" style="stroke: #696969; stroke-width: 1.0;"/><line style="stroke: #696969; stroke-width: 1.5;" x1="1450" x2="1450" y1="230.4688" y2="250.4688"/><polygon fill="#696969" points="1446,240.4688,1450,250.4688,1454,240.4688,1450,244.4688" style="stroke: #696969; stroke-width: 1.0;"/><line style="stroke: #696969; stroke-width: 1.5;" x1="1574" x2="1574" y1="230.4688" y2="250.4688"/><polygon fill="#696969" points="1570,240.4688,1574,250.4688,1578,240.4688,1574,244.4688" style="stroke: #696969; stroke-width: 1.0;"/><line style="stroke: #696969; stroke-width: 1.5;" x1="1703" x2="1703" y1="230.4688" y2="250.4688"/><polygon fill="#696969" points="1699,240.4688,1703,250.4688,1707,240.4688,1703,244.4688" style="stroke: #696969; stroke-width: 1.0;"/><line style="stroke: #696969; stroke-width: 1.5;" x1="51.5" x2="51.5" y1="298.1094" y2="330.6563"/><polygon fill="#696969" points="47.5,320.6563,51.5,330.6563,55.5,320.6563,51.5,324.6563" style="stroke: #696969; stroke-width: 1.0;"/><line style="stroke: #696969; stroke-width: 1.5;" x1="122" x2="122" y1="298.1094" y2="330.6563"/><polygon fill="#696969" points="118,320.6563,122,330.6563,126,320.6563,122,324.6563" style="stroke: #696969; stroke-width: 1.0;"/><line style="stroke: #696969; stroke-width: 1.5;" x1="248" x2="248" y1="310.6563" y2="330.6563"/><polygon fill="#696969" points="244,320.6563,248,330.6563,252,320.6563,248,324.6563" style="stroke: #696969; stroke-width: 1.0;"/><line style="stroke: #696969; stroke-width: 1.5;" x1="399.5" x2="399.5" y1="310.6563" y2="330.6563"/><polygon fill="#696969" points="395.5,320.6563,399.5,330.6563,403.5,320.6563,399.5,324.6563" style="stroke: #696969; stroke-width: 1.0;"/><line style="stroke: #696969; stroke-width: 1.5;" x1="524" x2="524" y1="298.1094" y2="330.6563"/><polygon fill="#696969" points="520,320.6563,524,330.6563,528,320.6563,524,324.6563" style="stroke: #696969; stroke-width: 1.0;"/><line style="stroke: #696969; stroke-width: 1.5;" x1="651.5" x2="651.5" y1="298.1094" y2="330.6563"/><polygon fill="#696969" points="647.5,320.6563,651.5,330.6563,655.5,320.6563,651.5,324.6563" style="stroke: #696969; stroke-width: 1.0;"/><line style="stroke: #696969; stroke-width: 1.5;" x1="747" x2="747" y1="298.1094" y2="330.6563"/><polygon fill="#696969" points="743,320.6563,747,330.6563,751,320.6563,747,324.6563" style="stroke: #696969; stroke-width: 1.0;"/><line style="stroke: #696969; stroke-width: 1.5;" x1="850" x2="850" y1="298.1094" y2="330.6563"/><polygon fill="#696969" points="846,320.6563,850,330.6563,854,320.6563,850,324.6563" style="stroke: #696969; stroke-width: 1.0;"/><line style="stroke: #696969; stroke-width: 1.5;" x1="1001" x2="1001" y1="298.1094" y2="330.6563"/><polygon fill="#696969" points="997,320.6563,1001,330.6563,1005,320.6563,1001,324.6563" style="stroke: #696969; stroke-width: 1.0;"/><line style="stroke: #696969; stroke-width: 1.5;" x1="1137.5" x2="1137.5" y1="310.6563" y2="330.6563"/><polygon fill="#696969" points="1133.5,320.6563,1137.5,330.6563,1141.5,320.6563,1137.5,324.6563" style="stroke: #696969; stroke-width: 1.0;"/><line style="stroke: #696969; stroke-width: 1.5;" x1="1300.5" x2="1300.5" y1="310.6563" y2="330.6563"/><polygon fill="#696969" points="1296.5,320.6563,1300.5,330.6563,1304.5,320.6563,1300.5,324.6563" style="stroke: #696969; stroke-width: 1.0;"/><line style="stroke: #696969; stroke-width: 1.5;" x1="1450" x2="1450" y1="310.6563" y2="330.6563"/><polygon fill="#696969" points="1446,320.6563,1450,330.6563,1454,320.6563,1450,324.6563" style="stroke: #696969; stroke-width: 1.0;"/><line style="stroke: #696969; stroke-width: 1.5;" x1="1574" x2="1574" y1="310.6563" y2="330.6563"/><polygon fill="#696969" points="1570,320.6563,1574,330.6563,1578,320.6563,1574,324.6563" style="stroke: #696969; stroke-width: 1.0;"/><line style="stroke: #696969; stroke-width: 1.5;" x1="1703" x2="1703" y1="310.6563" y2="330.6563"/><polygon fill="#696969" points="1699,320.6563,1703,330.6563,1707,320.6563,1703,324.6563" style="stroke: #696969; stroke-width: 1.0;"/><line style="stroke: #696969; stroke-width: 1.5;" x1="875.5" x2="875.5" y1="204.4688" y2="224.4688"/><polygon fill="#696969" points="871.5,214.4688,875.5,224.4688,879.5,214.4688,875.5,218.4688" style="stroke: #696969; stroke-width: 1.0;"/><line style="stroke: #696969; stroke-width: 1.5;" x1="875.5" x2="875.5" y1="149.375" y2="169.375"/><polygon fill="#696969" points="871.5,159.375,875.5,169.375,879.5,159.375,875.5,163.375" style="stroke: #696969; stroke-width: 1.0;"/><line style="stroke: #696969; stroke-width: 1.5;" x1="952.5" x2="1789" y1="368.6563" y2="368.6563"/><polygon fill="#696969" points="1785,255.5156,1789,245.5156,1793,255.5156,1789,251.5156" style="stroke: #696969; stroke-width: 1.5;"/><line style="stroke: #696969; stroke-width: 1.5;" x1="1789" x2="1789" y1="137.375" y2="368.6563"/><line style="stroke: #696969; stroke-width: 1.5;" x1="1789" x2="887.5" y1="137.375" y2="137.375"/><polygon fill="#696969" points="897.5,133.375,887.5,137.375,897.5,141.375,893.5,137.375" style="stroke: #696969; stroke-width: 1.0;"/><line style="stroke: #696969; stroke-width: 1.5;" x1="875.5" x2="875.5" y1="336.6563" y2="356.6563"/><polygon fill="#696969" points="871.5,346.6563,875.5,356.6563,879.5,346.6563,875.5,350.6563" style="stroke: #696969; stroke-width: 1.0;"/><line style="stroke: #696969; stroke-width: 1.5;" x1="875.5" x2="875.5" y1="105.375" y2="125.375"/><polygon fill="#696969" points="871.5,115.375,875.5,125.375,879.5,115.375,875.5,119.375" style="stroke: #696969; stroke-width: 1.0;"/><line style="stroke: #696969; stroke-width: 1.5;" x1="875.5" x2="875.5" y1="380.6563" y2="400.6563"/><polygon fill="#696969" points="871.5,390.6563,875.5,400.6563,879.5,390.6563,875.5,394.6563" style="stroke: #696969; stroke-width: 1.0;"/><text fill="#000080" font-family="sans-serif" font-size="14" lengthAdjust="spacingAndGlyphs" textLength="42" x="10" y="449.2832">©2019</text><a href="http://www.lifestylesunlimited.com" target="_top" xlink:actuate="onRequest" xlink:show="new" xlink:title="http://www.lifestylesunlimited.com" xlink:type="simple"><text fill="#0000FF" font-family="sans-serif" font-size="14" lengthAdjust="spacingAndGlyphs" text-decoration="underline" textLength="122" x="56" y="449.2832">LifeStyles Unlimited</text></a><text fill="#000080" font-family="sans-serif" font-size="14" lengthAdjust="spacingAndGlyphs" textLength="131" x="182" y="449.2832">| Generated %date%</text><!--
@startuml team-building


skinparam {
  BorderColor Red
  PathHoverColor Blue
}

skinparam Title {
  FontColor Navy
  BackgroundColor PaleGoldenRod
  BorderColor Navy
  BorderRoundCorner 20
  FontSize 24
}

skinparam activity {
  BackgroundColor Ivory
  BorderColor CornflowerBlue
  BorderThickness 1
  FontColor DimGray
  

  Arrow {
    Color dimgray
    FontColor dimgray
  }

  Start {
    Color PHYSICAL
  }

  End {
    Color Coral
  }

  Diamond {
    BackgroundColor Ivory
    BorderColor CornflowerBlue
    FontColor DarkGray
  }

  BackgroundColor<< Exception >> Red
	BorderColor<< Exception >> White
}

skinparam Swimlane {
  BorderColor CornflowerBlue 
}

skinparam Partition {
  BackgroundColor Ivory
  BorderColor CornflowerBlue
  BorderThickness 1
  FontColor CornflowerBlue
  FontSize 16
  BorderRoundCorner 20
}

skinparam Note {
  BackgroundColor LightSteelBlue
  BorderColor CornflowerBlue
  FontColor White
}

skinparam Legend {
  BackgroundColor LightSteelBlue
  BorderColor CornflowerBlue
  FontColor White
}

skinparam Footer {
  FontColor Navy
}


left header 
	<font color=Navy size=24>[[../index.svg?sanitize=true ⌂ Home]]</font>
endheader


	Title Build Team

	start

	repeat

		:choose;

		fork
			:mentor;
		fork again
			:lenders;
		fork again
			:real estate agents / brokers
			- - - -
			20 of them;
		fork again
			:home inspectors
			- - - -
			licensed only;
		fork again
			:insurance agents;
		fork again
			:general contractor;
		fork again
			:roofer;
		fork again
			:foundation specialist;
		fork again
			:termite inspector;
		fork again
			:property management
			- - - -
			out of town deals;
		fork again
			:tenant screening company
			- - - -
			NTN $15 & charge $50;
		fork again
			:attorney
			- - - -
			real estate expert;
		fork again
			:cpa
			- - - -
			real estate expert;
		fork again
			:business checking
			- - - -
			can get free;
		end fork
	repeat while (primary and two alternates)
	#PHYSICAL:team ready;
	


left footer 
	<font size=14>©2019 [[http://www.lifestylesunlimited.com LifeStyles Unlimited]] | Generated %date%</font>
endfooter


@enduml

PlantUML version 1.2019.06(Fri May 24 12:10:25 CDT 2019)
(GPL source distribution)
Java Runtime: Java(TM) SE Runtime Environment
JVM: Java HotSpot(TM) Client VM
Java Version: 1.8.0_211-b12
Operating System: Windows 10
OS Version: 10.0
Default Encoding: Cp1252
Language: en
Country: US
--></g></svg>