<?xml version="1.0" encoding="UTF-8" standalone="no"?><svg xmlns="http://www.w3.org/2000/svg" xmlns:xlink="http://www.w3.org/1999/xlink" contentScriptType="application/ecmascript" contentStyleType="text/css" height="408px" preserveAspectRatio="none" style="width:2204px;height:408px;" version="1.1" viewBox="0 0 2204 408" width="2204px" zoomAndPan="magnify"><defs><style type="text/css"><![CDATA[path:hover { stroke: #0000FF !important;}]]></style><filter height="300%" id="fuirmcnzbz5he" width="300%" x="-1" y="-1"><feGaussianBlur result="blurOut" stdDeviation="2.0"/><feColorMatrix in="blurOut" result="blurOut2" type="matrix" values="0 0 0 0 0 0 0 0 0 0 0 0 0 0 0 0 0 0 .4 0"/><feOffset dx="4.0" dy="4.0" in="blurOut2" result="blurOut3"/><feBlend in="SourceGraphic" in2="blurOut3" mode="normal"/></filter></defs><g><a target="_top" xlink:actuate="onRequest" xlink:href="../index.svg" xlink:show="new" xlink:title="../index.svg" xlink:type="simple"><text fill="#0000FF" font-family="sans-serif" font-size="10" lengthAdjust="spacingAndGlyphs" text-decoration="underline" textLength="39" x="10" y="20.3809">⌂ Home</text><line style="stroke: #0000FF; stroke-width: 1.0;" x1="10" x2="49" y1="22.3809" y2="22.3809"/></a><rect fill="#EEE8AA" height="32.6406" rx="10" ry="10" style="stroke: #000080; stroke-width: 1.5;" width="107" x="1047" y="24.5781"/><text fill="#000080" font-family="sans-serif" font-size="18" lengthAdjust="spacingAndGlyphs" textLength="91" x="1055" y="48.2637">Build Team</text><ellipse cx="1088" cy="70.2188" fill="#CCFFCC" filter="url(#fuirmcnzbz5he)" rx="10" ry="10" style="stroke: none; stroke-width: 1.0;"/><rect fill="#FFFFF0" filter="url(#fuirmcnzbz5he)" height="35.0938" rx="12.5" ry="12.5" style="stroke: #6495ED; stroke-width: 1.5;" width="61" x="1057.5" y="144.2188"/><text fill="#696969" font-family="sans-serif" font-size="12" lengthAdjust="spacingAndGlyphs" textLength="41" x="1067.5" y="166.6758">choose</text><rect fill="#000000" filter="url(#fuirmcnzbz5he)" height="6" rx="2.5" ry="2.5" style="stroke: #000000; stroke-width: 1.0;" width="2156" x="10" y="199.3125"/><rect fill="#FFFFF0" filter="url(#fuirmcnzbz5he)" height="35.0938" rx="12.5" ry="12.5" style="stroke: #6495ED; stroke-width: 1.5;" width="59" x="24" y="225.3125"/><text fill="#696969" font-family="sans-serif" font-size="12" lengthAdjust="spacingAndGlyphs" textLength="39" x="34" y="247.7695">mentor</text><rect fill="#FFFFF0" filter="url(#fuirmcnzbz5he)" height="35.0938" rx="12.5" ry="12.5" style="stroke: #6495ED; stroke-width: 1.5;" width="62" x="111" y="225.3125"/><text fill="#696969" font-family="sans-serif" font-size="12" lengthAdjust="spacingAndGlyphs" textLength="42" x="121" y="247.7695">lenders</text><rect fill="#FFFFF0" filter="url(#fuirmcnzbz5he)" height="35.0938" rx="12.5" ry="12.5" style="stroke: #6495ED; stroke-width: 1.5;" width="170" x="201" y="225.3125"/><text fill="#696969" font-family="sans-serif" font-size="12" lengthAdjust="spacingAndGlyphs" textLength="150" x="211" y="247.7695">real estate agents / brokers</text><path d="M532,229.6836 L532,238.8594 L512,242.8594 L532,246.8594 L532,256.0352 A0,0 0 0 0 532,256.0352 L629,256.0352 A0,0 0 0 0 629,256.0352 L629,239.6836 L619,229.6836 L532,229.6836 A0,0 0 0 0 532,229.6836 " fill="#B0C4DE" filter="url(#fuirmcnzbz5he)" style="stroke: #6495ED; stroke-width: 1.0;"/><path d="M619,229.6836 L619,239.6836 L629,239.6836 L619,229.6836 " fill="#B0C4DE" style="stroke: #6495ED; stroke-width: 1.0;"/><text fill="#FFFFFF" font-family="sans-serif" font-size="13" lengthAdjust="spacingAndGlyphs" textLength="76" x="538" y="248.1787">licensed only</text><rect fill="#FFFFF0" filter="url(#fuirmcnzbz5he)" height="35.0938" rx="12.5" ry="12.5" style="stroke: #6495ED; stroke-width: 1.5;" width="113" x="399" y="225.3125"/><text fill="#696969" font-family="sans-serif" font-size="12" lengthAdjust="spacingAndGlyphs" textLength="93" x="409" y="247.7695">home inspectors</text><rect fill="#FFFFF0" filter="url(#fuirmcnzbz5he)" height="35.0938" rx="12.5" ry="12.5" style="stroke: #6495ED; stroke-width: 1.5;" width="116" x="657" y="225.3125"/><text fill="#696969" font-family="sans-serif" font-size="12" lengthAdjust="spacingAndGlyphs" textLength="96" x="667" y="247.7695">insurance agents</text><rect fill="#FFFFF0" filter="url(#fuirmcnzbz5he)" height="35.0938" rx="12.5" ry="12.5" style="stroke: #6495ED; stroke-width: 1.5;" width="119" x="801" y="225.3125"/><text fill="#696969" font-family="sans-serif" font-size="12" lengthAdjust="spacingAndGlyphs" textLength="99" x="811" y="247.7695">general contractor</text><rect fill="#FFFFF0" filter="url(#fuirmcnzbz5he)" height="35.0938" rx="12.5" ry="12.5" style="stroke: #6495ED; stroke-width: 1.5;" width="52" x="948" y="225.3125"/><text fill="#696969" font-family="sans-serif" font-size="12" lengthAdjust="spacingAndGlyphs" textLength="32" x="958" y="247.7695">roofer</text><rect fill="#FFFFF0" filter="url(#fuirmcnzbz5he)" height="35.0938" rx="12.5" ry="12.5" style="stroke: #6495ED; stroke-width: 1.5;" width="134" x="1028" y="225.3125"/><text fill="#696969" font-family="sans-serif" font-size="12" lengthAdjust="spacingAndGlyphs" textLength="114" x="1038" y="247.7695">foundation specialist</text><rect fill="#FFFFF0" filter="url(#fuirmcnzbz5he)" height="35.0938" rx="12.5" ry="12.5" style="stroke: #6495ED; stroke-width: 1.5;" width="112" x="1190" y="225.3125"/><text fill="#696969" font-family="sans-serif" font-size="12" lengthAdjust="spacingAndGlyphs" textLength="92" x="1200" y="247.7695">termite inspector</text><rect fill="#FFFFF0" filter="url(#fuirmcnzbz5he)" height="35.0938" rx="12.5" ry="12.5" style="stroke: #6495ED; stroke-width: 1.5;" width="141" x="1330" y="225.3125"/><text fill="#696969" font-family="sans-serif" font-size="12" lengthAdjust="spacingAndGlyphs" textLength="121" x="1340" y="247.7695">property management</text><rect fill="#FFFFF0" filter="url(#fuirmcnzbz5he)" height="35.0938" rx="12.5" ry="12.5" style="stroke: #6495ED; stroke-width: 1.5;" width="165" x="1499" y="225.3125"/><text fill="#696969" font-family="sans-serif" font-size="12" lengthAdjust="spacingAndGlyphs" textLength="145" x="1509" y="247.7695">tenant screening company</text><path d="M1775,229.6836 L1775,238.8594 L1755,242.8594 L1775,246.8594 L1775,256.0352 A0,0 0 0 0 1775,256.0352 L1932,256.0352 A0,0 0 0 0 1932,256.0352 L1932,239.6836 L1922,229.6836 L1775,229.6836 A0,0 0 0 0 1775,229.6836 " fill="#B0C4DE" filter="url(#fuirmcnzbz5he)" style="stroke: #6495ED; stroke-width: 1.0;"/><path d="M1922,229.6836 L1922,239.6836 L1932,239.6836 L1922,229.6836 " fill="#B0C4DE" style="stroke: #6495ED; stroke-width: 1.0;"/><text fill="#FFFFFF" font-family="sans-serif" font-size="13" lengthAdjust="spacingAndGlyphs" textLength="136" x="1781" y="248.1787">understands real estate</text><rect fill="#FFFFF0" filter="url(#fuirmcnzbz5he)" height="35.0938" rx="12.5" ry="12.5" style="stroke: #6495ED; stroke-width: 1.5;" width="63" x="1692" y="225.3125"/><text fill="#696969" font-family="sans-serif" font-size="12" lengthAdjust="spacingAndGlyphs" textLength="43" x="1702" y="247.7695">attorney</text><rect fill="#FFFFF0" filter="url(#fuirmcnzbz5he)" height="35.0938" rx="12.5" ry="12.5" style="stroke: #6495ED; stroke-width: 1.5;" width="40" x="1960" y="225.3125"/><text fill="#696969" font-family="sans-serif" font-size="12" lengthAdjust="spacingAndGlyphs" textLength="20" x="1970" y="247.7695">cpa</text><rect fill="#FFFFF0" filter="url(#fuirmcnzbz5he)" height="35.0938" rx="12.5" ry="12.5" style="stroke: #6495ED; stroke-width: 1.5;" width="124" x="2028" y="225.3125"/><text fill="#696969" font-family="sans-serif" font-size="12" lengthAdjust="spacingAndGlyphs" textLength="104" x="2038" y="247.7695">business checking</text><rect fill="#000000" filter="url(#fuirmcnzbz5he)" height="6" rx="2.5" ry="2.5" style="stroke: #000000; stroke-width: 1.0;" width="2156" x="10" y="280.4063"/><polygon fill="#FFFFF0" filter="url(#fuirmcnzbz5he)" points="1088,100.2188,1100,112.2188,1088,124.2188,1076,112.2188,1088,100.2188" style="stroke: #6495ED; stroke-width: 1.5;"/><polygon fill="#FFFFF0" filter="url(#fuirmcnzbz5he)" points="1023,306.4063,1153,306.4063,1165,318.4063,1153,330.4063,1023,330.4063,1011,318.4063,1023,306.4063" style="stroke: #6495ED; stroke-width: 1.5;"/><text fill="#A9A9A9" font-family="sans-serif" font-size="11" lengthAdjust="spacingAndGlyphs" textLength="130" x="1023" y="322.9072">primary and two alternates</text><rect fill="#CCFFCC" filter="url(#fuirmcnzbz5he)" height="35.0938" rx="12.5" ry="12.5" style="stroke: #6495ED; stroke-width: 1.5;" width="81" x="1047.5" y="350.4063"/><text fill="#696969" font-family="sans-serif" font-size="12" lengthAdjust="spacingAndGlyphs" textLength="61" x="1057.5" y="372.8633">team ready</text><line style="stroke: #696969; stroke-width: 1.5;" x1="53.5" x2="53.5" y1="205.3125" y2="225.3125"/><polygon fill="#696969" points="49.5,215.3125,53.5,225.3125,57.5,215.3125,53.5,219.3125" style="stroke: #696969; stroke-width: 1.0;"/><line style="stroke: #696969; stroke-width: 1.5;" x1="142" x2="142" y1="205.3125" y2="225.3125"/><polygon fill="#696969" points="138,215.3125,142,225.3125,146,215.3125,142,219.3125" style="stroke: #696969; stroke-width: 1.0;"/><line style="stroke: #696969; stroke-width: 1.5;" x1="286" x2="286" y1="205.3125" y2="225.3125"/><polygon fill="#696969" points="282,215.3125,286,225.3125,290,215.3125,286,219.3125" style="stroke: #696969; stroke-width: 1.0;"/><line style="stroke: #696969; stroke-width: 1.5;" x1="455.5" x2="455.5" y1="205.3125" y2="225.3125"/><polygon fill="#696969" points="451.5,215.3125,455.5,225.3125,459.5,215.3125,455.5,219.3125" style="stroke: #696969; stroke-width: 1.0;"/><line style="stroke: #696969; stroke-width: 1.5;" x1="715" x2="715" y1="205.3125" y2="225.3125"/><polygon fill="#696969" points="711,215.3125,715,225.3125,719,215.3125,715,219.3125" style="stroke: #696969; stroke-width: 1.0;"/><line style="stroke: #696969; stroke-width: 1.5;" x1="860.5" x2="860.5" y1="205.3125" y2="225.3125"/><polygon fill="#696969" points="856.5,215.3125,860.5,225.3125,864.5,215.3125,860.5,219.3125" style="stroke: #696969; stroke-width: 1.0;"/><line style="stroke: #696969; stroke-width: 1.5;" x1="974" x2="974" y1="205.3125" y2="225.3125"/><polygon fill="#696969" points="970,215.3125,974,225.3125,978,215.3125,974,219.3125" style="stroke: #696969; stroke-width: 1.0;"/><line style="stroke: #696969; stroke-width: 1.5;" x1="1095" x2="1095" y1="205.3125" y2="225.3125"/><polygon fill="#696969" points="1091,215.3125,1095,225.3125,1099,215.3125,1095,219.3125" style="stroke: #696969; stroke-width: 1.0;"/><line style="stroke: #696969; stroke-width: 1.5;" x1="1246" x2="1246" y1="205.3125" y2="225.3125"/><polygon fill="#696969" points="1242,215.3125,1246,225.3125,1250,215.3125,1246,219.3125" style="stroke: #696969; stroke-width: 1.0;"/><line style="stroke: #696969; stroke-width: 1.5;" x1="1400.5" x2="1400.5" y1="205.3125" y2="225.3125"/><polygon fill="#696969" points="1396.5,215.3125,1400.5,225.3125,1404.5,215.3125,1400.5,219.3125" style="stroke: #696969; stroke-width: 1.0;"/><line style="stroke: #696969; stroke-width: 1.5;" x1="1581.5" x2="1581.5" y1="205.3125" y2="225.3125"/><polygon fill="#696969" points="1577.5,215.3125,1581.5,225.3125,1585.5,215.3125,1581.5,219.3125" style="stroke: #696969; stroke-width: 1.0;"/><line style="stroke: #696969; stroke-width: 1.5;" x1="1723.5" x2="1723.5" y1="205.3125" y2="225.3125"/><polygon fill="#696969" points="1719.5,215.3125,1723.5,225.3125,1727.5,215.3125,1723.5,219.3125" style="stroke: #696969; stroke-width: 1.0;"/><line style="stroke: #696969; stroke-width: 1.5;" x1="1980" x2="1980" y1="205.3125" y2="225.3125"/><polygon fill="#696969" points="1976,215.3125,1980,225.3125,1984,215.3125,1980,219.3125" style="stroke: #696969; stroke-width: 1.0;"/><line style="stroke: #696969; stroke-width: 1.5;" x1="2090" x2="2090" y1="205.3125" y2="225.3125"/><polygon fill="#696969" points="2086,215.3125,2090,225.3125,2094,215.3125,2090,219.3125" style="stroke: #696969; stroke-width: 1.0;"/><line style="stroke: #696969; stroke-width: 1.5;" x1="53.5" x2="53.5" y1="260.4063" y2="280.4063"/><polygon fill="#696969" points="49.5,270.4063,53.5,280.4063,57.5,270.4063,53.5,274.4063" style="stroke: #696969; stroke-width: 1.0;"/><line style="stroke: #696969; stroke-width: 1.5;" x1="142" x2="142" y1="260.4063" y2="280.4063"/><polygon fill="#696969" points="138,270.4063,142,280.4063,146,270.4063,142,274.4063" style="stroke: #696969; stroke-width: 1.0;"/><line style="stroke: #696969; stroke-width: 1.5;" x1="286" x2="286" y1="260.4063" y2="280.4063"/><polygon fill="#696969" points="282,270.4063,286,280.4063,290,270.4063,286,274.4063" style="stroke: #696969; stroke-width: 1.0;"/><line style="stroke: #696969; stroke-width: 1.5;" x1="455.5" x2="455.5" y1="260.4063" y2="280.4063"/><polygon fill="#696969" points="451.5,270.4063,455.5,280.4063,459.5,270.4063,455.5,274.4063" style="stroke: #696969; stroke-width: 1.0;"/><line style="stroke: #696969; stroke-width: 1.5;" x1="715" x2="715" y1="260.4063" y2="280.4063"/><polygon fill="#696969" points="711,270.4063,715,280.4063,719,270.4063,715,274.4063" style="stroke: #696969; stroke-width: 1.0;"/><line style="stroke: #696969; stroke-width: 1.5;" x1="860.5" x2="860.5" y1="260.4063" y2="280.4063"/><polygon fill="#696969" points="856.5,270.4063,860.5,280.4063,864.5,270.4063,860.5,274.4063" style="stroke: #696969; stroke-width: 1.0;"/><line style="stroke: #696969; stroke-width: 1.5;" x1="974" x2="974" y1="260.4063" y2="280.4063"/><polygon fill="#696969" points="970,270.4063,974,280.4063,978,270.4063,974,274.4063" style="stroke: #696969; stroke-width: 1.0;"/><line style="stroke: #696969; stroke-width: 1.5;" x1="1095" x2="1095" y1="260.4063" y2="280.4063"/><polygon fill="#696969" points="1091,270.4063,1095,280.4063,1099,270.4063,1095,274.4063" style="stroke: #696969; stroke-width: 1.0;"/><line style="stroke: #696969; stroke-width: 1.5;" x1="1246" x2="1246" y1="260.4063" y2="280.4063"/><polygon fill="#696969" points="1242,270.4063,1246,280.4063,1250,270.4063,1246,274.4063" style="stroke: #696969; stroke-width: 1.0;"/><line style="stroke: #696969; stroke-width: 1.5;" x1="1400.5" x2="1400.5" y1="260.4063" y2="280.4063"/><polygon fill="#696969" points="1396.5,270.4063,1400.5,280.4063,1404.5,270.4063,1400.5,274.4063" style="stroke: #696969; stroke-width: 1.0;"/><line style="stroke: #696969; stroke-width: 1.5;" x1="1581.5" x2="1581.5" y1="260.4063" y2="280.4063"/><polygon fill="#696969" points="1577.5,270.4063,1581.5,280.4063,1585.5,270.4063,1581.5,274.4063" style="stroke: #696969; stroke-width: 1.0;"/><line style="stroke: #696969; stroke-width: 1.5;" x1="1723.5" x2="1723.5" y1="260.4063" y2="280.4063"/><polygon fill="#696969" points="1719.5,270.4063,1723.5,280.4063,1727.5,270.4063,1723.5,274.4063" style="stroke: #696969; stroke-width: 1.0;"/><line style="stroke: #696969; stroke-width: 1.5;" x1="1980" x2="1980" y1="260.4063" y2="280.4063"/><polygon fill="#696969" points="1976,270.4063,1980,280.4063,1984,270.4063,1980,274.4063" style="stroke: #696969; stroke-width: 1.0;"/><line style="stroke: #696969; stroke-width: 1.5;" x1="2090" x2="2090" y1="260.4063" y2="280.4063"/><polygon fill="#696969" points="2086,270.4063,2090,280.4063,2094,270.4063,2090,274.4063" style="stroke: #696969; stroke-width: 1.0;"/><line style="stroke: #696969; stroke-width: 1.5;" x1="1088" x2="1088" y1="179.3125" y2="199.3125"/><polygon fill="#696969" points="1084,189.3125,1088,199.3125,1092,189.3125,1088,193.3125" style="stroke: #696969; stroke-width: 1.0;"/><line style="stroke: #696969; stroke-width: 1.5;" x1="1088" x2="1088" y1="124.2188" y2="144.2188"/><polygon fill="#696969" points="1084,134.2188,1088,144.2188,1092,134.2188,1088,138.2188" style="stroke: #696969; stroke-width: 1.0;"/><line style="stroke: #696969; stroke-width: 1.5;" x1="1165" x2="2178" y1="318.4063" y2="318.4063"/><polygon fill="#696969" points="2174,217.8125,2178,207.8125,2182,217.8125,2178,213.8125" style="stroke: #696969; stroke-width: 1.5;"/><line style="stroke: #696969; stroke-width: 1.5;" x1="2178" x2="2178" y1="112.2188" y2="318.4063"/><line style="stroke: #696969; stroke-width: 1.5;" x1="2178" x2="1100" y1="112.2188" y2="112.2188"/><polygon fill="#696969" points="1110,108.2188,1100,112.2188,1110,116.2188,1106,112.2188" style="stroke: #696969; stroke-width: 1.0;"/><line style="stroke: #696969; stroke-width: 1.5;" x1="1088" x2="1088" y1="286.4063" y2="306.4063"/><polygon fill="#696969" points="1084,296.4063,1088,306.4063,1092,296.4063,1088,300.4063" style="stroke: #696969; stroke-width: 1.0;"/><line style="stroke: #696969; stroke-width: 1.5;" x1="1088" x2="1088" y1="80.2188" y2="100.2188"/><polygon fill="#696969" points="1084,90.2188,1088,100.2188,1092,90.2188,1088,94.2188" style="stroke: #696969; stroke-width: 1.0;"/><line style="stroke: #696969; stroke-width: 1.5;" x1="1088" x2="1088" y1="330.4063" y2="350.4063"/><polygon fill="#696969" points="1084,340.4063,1088,350.4063,1092,340.4063,1088,344.4063" style="stroke: #696969; stroke-width: 1.0;"/><text fill="#000080" font-family="sans-serif" font-size="10" lengthAdjust="spacingAndGlyphs" textLength="31" x="10" y="394.8809">©2019</text><a target="_top" xlink:actuate="onRequest" xlink:href="http://www.lifestylesunlimited.com" xlink:show="new" xlink:title="http://www.lifestylesunlimited.com" xlink:type="simple"><text fill="#0000FF" font-family="sans-serif" font-size="10" lengthAdjust="spacingAndGlyphs" text-decoration="underline" textLength="95" x="44" y="394.8809">LifeStyles Unlimited</text><line style="stroke: #0000FF; stroke-width: 1.0;" x1="44" x2="139" y1="396.8809" y2="396.8809"/></a><text fill="#000080" font-family="sans-serif" font-size="10" lengthAdjust="spacingAndGlyphs" textLength="205" x="142" y="394.8809">| Generated Sat Apr 20 19:28:25 CDT 2019</text><!--
@startuml team-building


skinparam {
  BorderColor Red
  PathHoverColor Blue
}

skinparam Title {
  FontColor Navy
  BackgroundColor PaleGoldenRod
  BorderColor Navy
  BorderRoundCorner 20
}

skinparam activity {
  BackgroundColor Ivory
  BorderColor CornflowerBlue
  FontColor DimGray
  

  Arrow {
    Color dimgray
    FontColor dimgray
  }

  Start {
    Color PHYSICAL
  }

  End {
    Color Coral
  }

  Diamond {
    BackgroundColor Ivory
    BorderColor CornflowerBlue
    FontColor DarkGray
  }

  BackgroundColor<< Exception >> Red
	BorderColor<< Exception >> White
}

skinparam Swimlane {
  BorderColor CornflowerBlue 
}

skinparam Partition {
  BackgroundColor Ivory
  BorderColor CornflowerBlue
  BorderThickness 1
  FontColor CornflowerBlue
  FontSize 16
  BorderRoundCorner 20
}

skinparam Note {
  BackgroundColor LightSteelBlue
  BorderColor CornflowerBlue
  FontColor White
}

skinparam Legend {
  BackgroundColor LightSteelBlue
  BorderColor CornflowerBlue
  FontColor White
}

skinparam Footer {
  FontColor Navy
}


left header 
	<font color=Navy>[[../index.svg ⌂ Home]]</font>
endheader


	Title Build Team

	start

	repeat

		:choose;

		fork
			:mentor;
		fork again
			:lenders;
		fork again
			:real estate agents / brokers;
		fork again
			:home inspectors;
			note right: licensed only
		fork again
			:insurance agents;
		fork again
			:general contractor;
		fork again
			:roofer;
		fork again
			:foundation specialist;
		fork again
			:termite inspector;
		fork again
			:property management;
		fork again
			:tenant screening company;
		fork again
			:attorney;
			note right: understands real estate
		fork again
			:cpa;
		fork again
			:business checking;
		end fork
	repeat while (primary and two alternates)
	#PHYSICAL:team ready;
	


left footer 
	©2019 [[http://www.lifestylesunlimited.com LifeStyles Unlimited]] | Generated Sat Apr 20 19:28:25 CDT 2019
endfooter


@enduml

PlantUML version 1.2019.03(Sun Mar 10 06:04:44 CDT 2019)
(GPL source distribution)
Java Runtime: Java(TM) SE Runtime Environment
JVM: Java HotSpot(TM) 64-Bit Server VM
Java Version: 1.8.0_111-b14
Operating System: Windows 10
OS Version: 10.0
Default Encoding: Cp1252
Language: en
Country: US
--></g></svg>