<?xml version="1.0" encoding="UTF-8" standalone="no"?><svg xmlns="http://www.w3.org/2000/svg" xmlns:xlink="http://www.w3.org/1999/xlink" contentScriptType="application/ecmascript" contentStyleType="text/css" height="437px" preserveAspectRatio="none" style="width:2204px;height:437px;" version="1.1" viewBox="0 0 2204 437" width="2204px" zoomAndPan="magnify"><defs><style type="text/css"><![CDATA[path:hover { stroke: #0000FF !important;}]]></style><filter height="300%" id="fcke4gufckbq1" width="300%" x="-1" y="-1"><feGaussianBlur result="blurOut" stdDeviation="2.0"/><feColorMatrix in="blurOut" result="blurOut2" type="matrix" values="0 0 0 0 0 0 0 0 0 0 0 0 0 0 0 0 0 0 .4 0"/><feOffset dx="4.0" dy="4.0" in="blurOut2" result="blurOut3"/><feBlend in="SourceGraphic" in2="blurOut3" mode="normal"/></filter></defs><g><a target="_top" xlink:actuate="onRequest" xlink:href="../index.svg" xlink:show="new" xlink:title="../index.svg" xlink:type="simple"><text fill="#0000FF" font-family="sans-serif" font-size="24" lengthAdjust="spacingAndGlyphs" text-decoration="underline" textLength="90" x="10" y="34.9141">⌂ Home</text><line style="stroke: #0000FF; stroke-width: 1.0;" x1="10" x2="100" y1="36.9141" y2="36.9141"/></a><rect fill="#EEE8AA" height="40.1875" rx="10" ry="10" style="stroke: #000080; stroke-width: 1.5;" width="138" x="1031.5" y="42.1875"/><text fill="#000080" font-family="sans-serif" font-size="24" lengthAdjust="spacingAndGlyphs" textLength="122" x="1039.5" y="72.1016">Build Team</text><ellipse cx="1088" cy="95.375" fill="#CCFFCC" filter="url(#fcke4gufckbq1)" rx="10" ry="10" style="stroke: none; stroke-width: 1.0;"/><rect fill="#FFFFF0" filter="url(#fcke4gufckbq1)" height="35.0938" rx="12.5" ry="12.5" style="stroke: #6495ED; stroke-width: 1.0;" width="61" x="1057.5" y="169.375"/><text fill="#696969" font-family="sans-serif" font-size="12" lengthAdjust="spacingAndGlyphs" textLength="41" x="1067.5" y="191.832">choose</text><rect fill="#000000" filter="url(#fcke4gufckbq1)" height="6" rx="2.5" ry="2.5" style="stroke: #000000; stroke-width: 1.0;" width="2156" x="10" y="224.4688"/><rect fill="#FFFFF0" filter="url(#fcke4gufckbq1)" height="35.0938" rx="12.5" ry="12.5" style="stroke: #6495ED; stroke-width: 1.0;" width="59" x="24" y="250.4688"/><text fill="#696969" font-family="sans-serif" font-size="12" lengthAdjust="spacingAndGlyphs" textLength="39" x="34" y="272.9258">mentor</text><rect fill="#FFFFF0" filter="url(#fcke4gufckbq1)" height="35.0938" rx="12.5" ry="12.5" style="stroke: #6495ED; stroke-width: 1.0;" width="62" x="111" y="250.4688"/><text fill="#696969" font-family="sans-serif" font-size="12" lengthAdjust="spacingAndGlyphs" textLength="42" x="121" y="272.9258">lenders</text><rect fill="#FFFFF0" filter="url(#fcke4gufckbq1)" height="35.0938" rx="12.5" ry="12.5" style="stroke: #6495ED; stroke-width: 1.0;" width="170" x="201" y="250.4688"/><text fill="#696969" font-family="sans-serif" font-size="12" lengthAdjust="spacingAndGlyphs" textLength="150" x="211" y="272.9258">real estate agents / brokers</text><path d="M532,254.8398 L532,264.0156 L512,268.0156 L532,272.0156 L532,281.1914 A0,0 0 0 0 532,281.1914 L629,281.1914 A0,0 0 0 0 629,281.1914 L629,264.8398 L619,254.8398 L532,254.8398 A0,0 0 0 0 532,254.8398 " fill="#B0C4DE" filter="url(#fcke4gufckbq1)" style="stroke: #6495ED; stroke-width: 1.0;"/><path d="M619,254.8398 L619,264.8398 L629,264.8398 L619,254.8398 " fill="#B0C4DE" style="stroke: #6495ED; stroke-width: 1.0;"/><text fill="#FFFFFF" font-family="sans-serif" font-size="13" lengthAdjust="spacingAndGlyphs" textLength="76" x="538" y="273.335">licensed only</text><rect fill="#FFFFF0" filter="url(#fcke4gufckbq1)" height="35.0938" rx="12.5" ry="12.5" style="stroke: #6495ED; stroke-width: 1.0;" width="113" x="399" y="250.4688"/><text fill="#696969" font-family="sans-serif" font-size="12" lengthAdjust="spacingAndGlyphs" textLength="93" x="409" y="272.9258">home inspectors</text><rect fill="#FFFFF0" filter="url(#fcke4gufckbq1)" height="35.0938" rx="12.5" ry="12.5" style="stroke: #6495ED; stroke-width: 1.0;" width="116" x="657" y="250.4688"/><text fill="#696969" font-family="sans-serif" font-size="12" lengthAdjust="spacingAndGlyphs" textLength="96" x="667" y="272.9258">insurance agents</text><rect fill="#FFFFF0" filter="url(#fcke4gufckbq1)" height="35.0938" rx="12.5" ry="12.5" style="stroke: #6495ED; stroke-width: 1.0;" width="119" x="801" y="250.4688"/><text fill="#696969" font-family="sans-serif" font-size="12" lengthAdjust="spacingAndGlyphs" textLength="99" x="811" y="272.9258">general contractor</text><rect fill="#FFFFF0" filter="url(#fcke4gufckbq1)" height="35.0938" rx="12.5" ry="12.5" style="stroke: #6495ED; stroke-width: 1.0;" width="52" x="948" y="250.4688"/><text fill="#696969" font-family="sans-serif" font-size="12" lengthAdjust="spacingAndGlyphs" textLength="32" x="958" y="272.9258">roofer</text><rect fill="#FFFFF0" filter="url(#fcke4gufckbq1)" height="35.0938" rx="12.5" ry="12.5" style="stroke: #6495ED; stroke-width: 1.0;" width="134" x="1028" y="250.4688"/><text fill="#696969" font-family="sans-serif" font-size="12" lengthAdjust="spacingAndGlyphs" textLength="114" x="1038" y="272.9258">foundation specialist</text><rect fill="#FFFFF0" filter="url(#fcke4gufckbq1)" height="35.0938" rx="12.5" ry="12.5" style="stroke: #6495ED; stroke-width: 1.0;" width="112" x="1190" y="250.4688"/><text fill="#696969" font-family="sans-serif" font-size="12" lengthAdjust="spacingAndGlyphs" textLength="92" x="1200" y="272.9258">termite inspector</text><rect fill="#FFFFF0" filter="url(#fcke4gufckbq1)" height="35.0938" rx="12.5" ry="12.5" style="stroke: #6495ED; stroke-width: 1.0;" width="141" x="1330" y="250.4688"/><text fill="#696969" font-family="sans-serif" font-size="12" lengthAdjust="spacingAndGlyphs" textLength="121" x="1340" y="272.9258">property management</text><rect fill="#FFFFF0" filter="url(#fcke4gufckbq1)" height="35.0938" rx="12.5" ry="12.5" style="stroke: #6495ED; stroke-width: 1.0;" width="165" x="1499" y="250.4688"/><text fill="#696969" font-family="sans-serif" font-size="12" lengthAdjust="spacingAndGlyphs" textLength="145" x="1509" y="272.9258">tenant screening company</text><path d="M1775,254.8398 L1775,264.0156 L1755,268.0156 L1775,272.0156 L1775,281.1914 A0,0 0 0 0 1775,281.1914 L1932,281.1914 A0,0 0 0 0 1932,281.1914 L1932,264.8398 L1922,254.8398 L1775,254.8398 A0,0 0 0 0 1775,254.8398 " fill="#B0C4DE" filter="url(#fcke4gufckbq1)" style="stroke: #6495ED; stroke-width: 1.0;"/><path d="M1922,254.8398 L1922,264.8398 L1932,264.8398 L1922,254.8398 " fill="#B0C4DE" style="stroke: #6495ED; stroke-width: 1.0;"/><text fill="#FFFFFF" font-family="sans-serif" font-size="13" lengthAdjust="spacingAndGlyphs" textLength="136" x="1781" y="273.335">understands real estate</text><rect fill="#FFFFF0" filter="url(#fcke4gufckbq1)" height="35.0938" rx="12.5" ry="12.5" style="stroke: #6495ED; stroke-width: 1.0;" width="63" x="1692" y="250.4688"/><text fill="#696969" font-family="sans-serif" font-size="12" lengthAdjust="spacingAndGlyphs" textLength="43" x="1702" y="272.9258">attorney</text><rect fill="#FFFFF0" filter="url(#fcke4gufckbq1)" height="35.0938" rx="12.5" ry="12.5" style="stroke: #6495ED; stroke-width: 1.0;" width="40" x="1960" y="250.4688"/><text fill="#696969" font-family="sans-serif" font-size="12" lengthAdjust="spacingAndGlyphs" textLength="20" x="1970" y="272.9258">cpa</text><rect fill="#FFFFF0" filter="url(#fcke4gufckbq1)" height="35.0938" rx="12.5" ry="12.5" style="stroke: #6495ED; stroke-width: 1.0;" width="124" x="2028" y="250.4688"/><text fill="#696969" font-family="sans-serif" font-size="12" lengthAdjust="spacingAndGlyphs" textLength="104" x="2038" y="272.9258">business checking</text><rect fill="#000000" filter="url(#fcke4gufckbq1)" height="6" rx="2.5" ry="2.5" style="stroke: #000000; stroke-width: 1.0;" width="2156" x="10" y="305.5625"/><polygon fill="#FFFFF0" filter="url(#fcke4gufckbq1)" points="1088,125.375,1100,137.375,1088,149.375,1076,137.375,1088,125.375" style="stroke: #6495ED; stroke-width: 1.0;"/><polygon fill="#FFFFF0" filter="url(#fcke4gufckbq1)" points="1023,331.5625,1153,331.5625,1165,343.5625,1153,355.5625,1023,355.5625,1011,343.5625,1023,331.5625" style="stroke: #6495ED; stroke-width: 1.0;"/><text fill="#A9A9A9" font-family="sans-serif" font-size="11" lengthAdjust="spacingAndGlyphs" textLength="130" x="1023" y="348.0635">primary and two alternates</text><rect fill="#CCFFCC" filter="url(#fcke4gufckbq1)" height="35.0938" rx="12.5" ry="12.5" style="stroke: #6495ED; stroke-width: 1.0;" width="81" x="1047.5" y="375.5625"/><text fill="#696969" font-family="sans-serif" font-size="12" lengthAdjust="spacingAndGlyphs" textLength="61" x="1057.5" y="398.0195">team ready</text><line style="stroke: #696969; stroke-width: 1.5;" x1="53.5" x2="53.5" y1="230.4688" y2="250.4688"/><polygon fill="#696969" points="49.5,240.4688,53.5,250.4688,57.5,240.4688,53.5,244.4688" style="stroke: #696969; stroke-width: 1.0;"/><line style="stroke: #696969; stroke-width: 1.5;" x1="142" x2="142" y1="230.4688" y2="250.4688"/><polygon fill="#696969" points="138,240.4688,142,250.4688,146,240.4688,142,244.4688" style="stroke: #696969; stroke-width: 1.0;"/><line style="stroke: #696969; stroke-width: 1.5;" x1="286" x2="286" y1="230.4688" y2="250.4688"/><polygon fill="#696969" points="282,240.4688,286,250.4688,290,240.4688,286,244.4688" style="stroke: #696969; stroke-width: 1.0;"/><line style="stroke: #696969; stroke-width: 1.5;" x1="455.5" x2="455.5" y1="230.4688" y2="250.4688"/><polygon fill="#696969" points="451.5,240.4688,455.5,250.4688,459.5,240.4688,455.5,244.4688" style="stroke: #696969; stroke-width: 1.0;"/><line style="stroke: #696969; stroke-width: 1.5;" x1="715" x2="715" y1="230.4688" y2="250.4688"/><polygon fill="#696969" points="711,240.4688,715,250.4688,719,240.4688,715,244.4688" style="stroke: #696969; stroke-width: 1.0;"/><line style="stroke: #696969; stroke-width: 1.5;" x1="860.5" x2="860.5" y1="230.4688" y2="250.4688"/><polygon fill="#696969" points="856.5,240.4688,860.5,250.4688,864.5,240.4688,860.5,244.4688" style="stroke: #696969; stroke-width: 1.0;"/><line style="stroke: #696969; stroke-width: 1.5;" x1="974" x2="974" y1="230.4688" y2="250.4688"/><polygon fill="#696969" points="970,240.4688,974,250.4688,978,240.4688,974,244.4688" style="stroke: #696969; stroke-width: 1.0;"/><line style="stroke: #696969; stroke-width: 1.5;" x1="1095" x2="1095" y1="230.4688" y2="250.4688"/><polygon fill="#696969" points="1091,240.4688,1095,250.4688,1099,240.4688,1095,244.4688" style="stroke: #696969; stroke-width: 1.0;"/><line style="stroke: #696969; stroke-width: 1.5;" x1="1246" x2="1246" y1="230.4688" y2="250.4688"/><polygon fill="#696969" points="1242,240.4688,1246,250.4688,1250,240.4688,1246,244.4688" style="stroke: #696969; stroke-width: 1.0;"/><line style="stroke: #696969; stroke-width: 1.5;" x1="1400.5" x2="1400.5" y1="230.4688" y2="250.4688"/><polygon fill="#696969" points="1396.5,240.4688,1400.5,250.4688,1404.5,240.4688,1400.5,244.4688" style="stroke: #696969; stroke-width: 1.0;"/><line style="stroke: #696969; stroke-width: 1.5;" x1="1581.5" x2="1581.5" y1="230.4688" y2="250.4688"/><polygon fill="#696969" points="1577.5,240.4688,1581.5,250.4688,1585.5,240.4688,1581.5,244.4688" style="stroke: #696969; stroke-width: 1.0;"/><line style="stroke: #696969; stroke-width: 1.5;" x1="1723.5" x2="1723.5" y1="230.4688" y2="250.4688"/><polygon fill="#696969" points="1719.5,240.4688,1723.5,250.4688,1727.5,240.4688,1723.5,244.4688" style="stroke: #696969; stroke-width: 1.0;"/><line style="stroke: #696969; stroke-width: 1.5;" x1="1980" x2="1980" y1="230.4688" y2="250.4688"/><polygon fill="#696969" points="1976,240.4688,1980,250.4688,1984,240.4688,1980,244.4688" style="stroke: #696969; stroke-width: 1.0;"/><line style="stroke: #696969; stroke-width: 1.5;" x1="2090" x2="2090" y1="230.4688" y2="250.4688"/><polygon fill="#696969" points="2086,240.4688,2090,250.4688,2094,240.4688,2090,244.4688" style="stroke: #696969; stroke-width: 1.0;"/><line style="stroke: #696969; stroke-width: 1.5;" x1="53.5" x2="53.5" y1="285.5625" y2="305.5625"/><polygon fill="#696969" points="49.5,295.5625,53.5,305.5625,57.5,295.5625,53.5,299.5625" style="stroke: #696969; stroke-width: 1.0;"/><line style="stroke: #696969; stroke-width: 1.5;" x1="142" x2="142" y1="285.5625" y2="305.5625"/><polygon fill="#696969" points="138,295.5625,142,305.5625,146,295.5625,142,299.5625" style="stroke: #696969; stroke-width: 1.0;"/><line style="stroke: #696969; stroke-width: 1.5;" x1="286" x2="286" y1="285.5625" y2="305.5625"/><polygon fill="#696969" points="282,295.5625,286,305.5625,290,295.5625,286,299.5625" style="stroke: #696969; stroke-width: 1.0;"/><line style="stroke: #696969; stroke-width: 1.5;" x1="455.5" x2="455.5" y1="285.5625" y2="305.5625"/><polygon fill="#696969" points="451.5,295.5625,455.5,305.5625,459.5,295.5625,455.5,299.5625" style="stroke: #696969; stroke-width: 1.0;"/><line style="stroke: #696969; stroke-width: 1.5;" x1="715" x2="715" y1="285.5625" y2="305.5625"/><polygon fill="#696969" points="711,295.5625,715,305.5625,719,295.5625,715,299.5625" style="stroke: #696969; stroke-width: 1.0;"/><line style="stroke: #696969; stroke-width: 1.5;" x1="860.5" x2="860.5" y1="285.5625" y2="305.5625"/><polygon fill="#696969" points="856.5,295.5625,860.5,305.5625,864.5,295.5625,860.5,299.5625" style="stroke: #696969; stroke-width: 1.0;"/><line style="stroke: #696969; stroke-width: 1.5;" x1="974" x2="974" y1="285.5625" y2="305.5625"/><polygon fill="#696969" points="970,295.5625,974,305.5625,978,295.5625,974,299.5625" style="stroke: #696969; stroke-width: 1.0;"/><line style="stroke: #696969; stroke-width: 1.5;" x1="1095" x2="1095" y1="285.5625" y2="305.5625"/><polygon fill="#696969" points="1091,295.5625,1095,305.5625,1099,295.5625,1095,299.5625" style="stroke: #696969; stroke-width: 1.0;"/><line style="stroke: #696969; stroke-width: 1.5;" x1="1246" x2="1246" y1="285.5625" y2="305.5625"/><polygon fill="#696969" points="1242,295.5625,1246,305.5625,1250,295.5625,1246,299.5625" style="stroke: #696969; stroke-width: 1.0;"/><line style="stroke: #696969; stroke-width: 1.5;" x1="1400.5" x2="1400.5" y1="285.5625" y2="305.5625"/><polygon fill="#696969" points="1396.5,295.5625,1400.5,305.5625,1404.5,295.5625,1400.5,299.5625" style="stroke: #696969; stroke-width: 1.0;"/><line style="stroke: #696969; stroke-width: 1.5;" x1="1581.5" x2="1581.5" y1="285.5625" y2="305.5625"/><polygon fill="#696969" points="1577.5,295.5625,1581.5,305.5625,1585.5,295.5625,1581.5,299.5625" style="stroke: #696969; stroke-width: 1.0;"/><line style="stroke: #696969; stroke-width: 1.5;" x1="1723.5" x2="1723.5" y1="285.5625" y2="305.5625"/><polygon fill="#696969" points="1719.5,295.5625,1723.5,305.5625,1727.5,295.5625,1723.5,299.5625" style="stroke: #696969; stroke-width: 1.0;"/><line style="stroke: #696969; stroke-width: 1.5;" x1="1980" x2="1980" y1="285.5625" y2="305.5625"/><polygon fill="#696969" points="1976,295.5625,1980,305.5625,1984,295.5625,1980,299.5625" style="stroke: #696969; stroke-width: 1.0;"/><line style="stroke: #696969; stroke-width: 1.5;" x1="2090" x2="2090" y1="285.5625" y2="305.5625"/><polygon fill="#696969" points="2086,295.5625,2090,305.5625,2094,295.5625,2090,299.5625" style="stroke: #696969; stroke-width: 1.0;"/><line style="stroke: #696969; stroke-width: 1.5;" x1="1088" x2="1088" y1="204.4688" y2="224.4688"/><polygon fill="#696969" points="1084,214.4688,1088,224.4688,1092,214.4688,1088,218.4688" style="stroke: #696969; stroke-width: 1.0;"/><line style="stroke: #696969; stroke-width: 1.5;" x1="1088" x2="1088" y1="149.375" y2="169.375"/><polygon fill="#696969" points="1084,159.375,1088,169.375,1092,159.375,1088,163.375" style="stroke: #696969; stroke-width: 1.0;"/><line style="stroke: #696969; stroke-width: 1.5;" x1="1165" x2="2178" y1="343.5625" y2="343.5625"/><polygon fill="#696969" points="2174,242.9688,2178,232.9688,2182,242.9688,2178,238.9688" style="stroke: #696969; stroke-width: 1.5;"/><line style="stroke: #696969; stroke-width: 1.5;" x1="2178" x2="2178" y1="137.375" y2="343.5625"/><line style="stroke: #696969; stroke-width: 1.5;" x1="2178" x2="1100" y1="137.375" y2="137.375"/><polygon fill="#696969" points="1110,133.375,1100,137.375,1110,141.375,1106,137.375" style="stroke: #696969; stroke-width: 1.0;"/><line style="stroke: #696969; stroke-width: 1.5;" x1="1088" x2="1088" y1="311.5625" y2="331.5625"/><polygon fill="#696969" points="1084,321.5625,1088,331.5625,1092,321.5625,1088,325.5625" style="stroke: #696969; stroke-width: 1.0;"/><line style="stroke: #696969; stroke-width: 1.5;" x1="1088" x2="1088" y1="105.375" y2="125.375"/><polygon fill="#696969" points="1084,115.375,1088,125.375,1092,115.375,1088,119.375" style="stroke: #696969; stroke-width: 1.0;"/><line style="stroke: #696969; stroke-width: 1.5;" x1="1088" x2="1088" y1="355.5625" y2="375.5625"/><polygon fill="#696969" points="1084,365.5625,1088,375.5625,1092,365.5625,1088,369.5625" style="stroke: #696969; stroke-width: 1.0;"/><text fill="#000080" font-family="sans-serif" font-size="14" lengthAdjust="spacingAndGlyphs" textLength="42" x="10" y="424.1895">©2019</text><a target="_top" xlink:actuate="onRequest" xlink:href="http://www.lifestylesunlimited.com" xlink:show="new" xlink:title="http://www.lifestylesunlimited.com" xlink:type="simple"><text fill="#0000FF" font-family="sans-serif" font-size="14" lengthAdjust="spacingAndGlyphs" text-decoration="underline" textLength="122" x="56" y="424.1895">LifeStyles Unlimited</text><line style="stroke: #0000FF; stroke-width: 1.0;" x1="56" x2="178" y1="426.1895" y2="426.1895"/></a><text fill="#000080" font-family="sans-serif" font-size="14" lengthAdjust="spacingAndGlyphs" textLength="279" x="182" y="424.1895">| Generated Sun Apr 28 19:55:52 CDT 2019</text><!--
@startuml team-building


skinparam {
  BorderColor Red
  PathHoverColor Blue
}

skinparam Title {
  FontColor Navy
  BackgroundColor PaleGoldenRod
  BorderColor Navy
  BorderRoundCorner 20
  FontSize 24
}

skinparam activity {
  BackgroundColor Ivory
  BorderColor CornflowerBlue
  BorderThickness 1
  FontColor DimGray
  

  Arrow {
    Color dimgray
    FontColor dimgray
  }

  Start {
    Color PHYSICAL
  }

  End {
    Color Coral
  }

  Diamond {
    BackgroundColor Ivory
    BorderColor CornflowerBlue
    FontColor DarkGray
  }

  BackgroundColor<< Exception >> Red
	BorderColor<< Exception >> White
}

skinparam Swimlane {
  BorderColor CornflowerBlue 
}

skinparam Partition {
  BackgroundColor Ivory
  BorderColor CornflowerBlue
  BorderThickness 1
  FontColor CornflowerBlue
  FontSize 16
  BorderRoundCorner 20
}

skinparam Note {
  BackgroundColor LightSteelBlue
  BorderColor CornflowerBlue
  FontColor White
}

skinparam Legend {
  BackgroundColor LightSteelBlue
  BorderColor CornflowerBlue
  FontColor White
}

skinparam Footer {
  FontColor Navy
}


left header 
	<font color=Navy size=24>[[../index.svg ⌂ Home]]</font>
endheader


	Title Build Team

	start

	repeat

		:choose;

		fork
			:mentor;
		fork again
			:lenders;
		fork again
			:real estate agents / brokers;
		fork again
			:home inspectors;
			note right: licensed only
		fork again
			:insurance agents;
		fork again
			:general contractor;
		fork again
			:roofer;
		fork again
			:foundation specialist;
		fork again
			:termite inspector;
		fork again
			:property management;
		fork again
			:tenant screening company;
		fork again
			:attorney;
			note right: understands real estate
		fork again
			:cpa;
		fork again
			:business checking;
		end fork
	repeat while (primary and two alternates)
	#PHYSICAL:team ready;
	


left footer 
	<font size=14>©2019 [[http://www.lifestylesunlimited.com LifeStyles Unlimited]] | Generated Sun Apr 28 19:55:52 CDT 2019</font>
endfooter


@enduml

PlantUML version 1.2019.03(Sun Mar 10 06:04:44 CDT 2019)
(GPL source distribution)
Java Runtime: Java(TM) SE Runtime Environment
JVM: Java HotSpot(TM) 64-Bit Server VM
Java Version: 1.8.0_111-b14
Operating System: Windows 10
OS Version: 10.0
Default Encoding: Cp1252
Language: en
Country: US
--></g></svg>