<?xml version="1.0" encoding="UTF-8" standalone="no"?><svg xmlns="http://www.w3.org/2000/svg" xmlns:xlink="http://www.w3.org/1999/xlink" contentScriptType="application/ecmascript" contentStyleType="text/css" height="478px" preserveAspectRatio="none" style="width:473px;height:478px;" version="1.1" viewBox="0 0 473 478" width="473px" zoomAndPan="magnify"><defs><style type="text/css"><![CDATA[path:hover { stroke: #0000FF !important;}]]></style><filter height="300%" id="f1x53ic8l3bvmq" width="300%" x="-1" y="-1"><feGaussianBlur result="blurOut" stdDeviation="2.0"/><feColorMatrix in="blurOut" result="blurOut2" type="matrix" values="0 0 0 0 0 0 0 0 0 0 0 0 0 0 0 0 0 0 .4 0"/><feOffset dx="4.0" dy="4.0" in="blurOut2" result="blurOut3"/><feBlend in="SourceGraphic" in2="blurOut3" mode="normal"/></filter></defs><g><a target="_top" xlink:actuate="onRequest" xlink:href="../index.svg?sanitize=true" xlink:show="new" xlink:title="../index.svg?sanitize=true" xlink:type="simple"><text fill="#0000FF" font-family="sans-serif" font-size="24" lengthAdjust="spacingAndGlyphs" text-decoration="underline" textLength="90" x="10" y="34.9141">⌂ Home</text><line style="stroke: #0000FF; stroke-width: 1.0;" x1="10" x2="100" y1="36.9141" y2="36.9141"/></a><rect fill="#EEE8AA" height="40.1875" rx="10" ry="10" style="stroke: #000080; stroke-width: 1.5;" width="151" x="159.5" y="42.1875"/><text fill="#000080" font-family="sans-serif" font-size="24" lengthAdjust="spacingAndGlyphs" textLength="135" x="167.5" y="72.1016">Credit Cards</text><ellipse cx="163.75" cy="95.375" fill="#CCFFCC" filter="url(#f1x53ic8l3bvmq)" rx="10" ry="10" style="stroke: none; stroke-width: 1.0;"/><rect fill="#000000" filter="url(#f1x53ic8l3bvmq)" height="6" rx="2.5" ry="2.5" style="stroke: #000000; stroke-width: 1.0;" width="179" x="74.25" y="169.375"/><rect fill="#FFFFF0" filter="url(#f1x53ic8l3bvmq)" height="35.0938" rx="12.5" ry="12.5" style="stroke: #6495ED; stroke-width: 1.0;" width="55" x="88.25" y="195.375"/><text fill="#696969" font-family="sans-serif" font-size="12" lengthAdjust="spacingAndGlyphs" textLength="35" x="98.25" y="217.832">spend</text><polygon fill="#FFFFF0" filter="url(#f1x53ic8l3bvmq)" points="171.25,195.375,239.25,195.375,249.25,212.9219,239.25,230.4688,171.25,230.4688" style="stroke: #6495ED; stroke-width: 1.0;"/><text fill="#696969" font-family="sans-serif" font-size="12" lengthAdjust="spacingAndGlyphs" textLength="48" x="181.25" y="217.832">due date</text><rect fill="#000000" filter="url(#f1x53ic8l3bvmq)" height="6" rx="2.5" ry="2.5" style="stroke: #000000; stroke-width: 1.0;" width="179" x="74.25" y="250.4688"/><path d="M221.75,280.8398 L221.75,290.0156 L201.75,294.0156 L221.75,298.0156 L221.75,307.1914 A0,0 0 0 0 221.75,307.1914 L353.75,307.1914 A0,0 0 0 0 353.75,307.1914 L353.75,290.8398 L343.75,280.8398 L221.75,280.8398 A0,0 0 0 0 221.75,280.8398 " fill="#B0C4DE" filter="url(#f1x53ic8l3bvmq)" style="stroke: #6495ED; stroke-width: 1.0;"/><path d="M343.75,280.8398 L343.75,290.8398 L353.75,290.8398 L343.75,280.8398 " fill="#B0C4DE" style="stroke: #6495ED; stroke-width: 1.0;"/><text fill="#FFFFFF" font-family="sans-serif" font-size="13" lengthAdjust="spacingAndGlyphs" textLength="111" x="227.75" y="299.335">cash back program</text><rect fill="#FFFFF0" filter="url(#f1x53ic8l3bvmq)" height="35.0938" rx="12.5" ry="12.5" style="stroke: #6495ED; stroke-width: 1.0;" width="76" x="125.75" y="276.4688"/><text fill="#696969" font-family="sans-serif" font-size="12" lengthAdjust="spacingAndGlyphs" textLength="56" x="135.75" y="298.9258">cash back</text><rect fill="#FFFFF0" filter="url(#f1x53ic8l3bvmq)" height="35.0938" rx="12.5" ry="12.5" style="stroke: #6495ED; stroke-width: 1.0;" width="71" x="128.25" y="331.5625"/><text fill="#696969" font-family="sans-serif" font-size="12" lengthAdjust="spacingAndGlyphs" textLength="51" x="138.25" y="354.0195">pay in full</text><polygon fill="#FFFFF0" filter="url(#f1x53ic8l3bvmq)" points="163.75,125.375,175.75,137.375,163.75,149.375,151.75,137.375,163.75,125.375" style="stroke: #6495ED; stroke-width: 1.0;"/><polygon fill="#FFFFF0" filter="url(#f1x53ic8l3bvmq)" points="163.75,386.6563,163.75,386.6563,175.75,398.6563,163.75,410.6563,163.75,410.6563,151.75,398.6563,163.75,386.6563" style="stroke: #6495ED; stroke-width: 1.0;"/><ellipse cx="163.75" cy="441.5752" fill="#FFFFFF" filter="url(#f1x53ic8l3bvmq)" rx="10" ry="10" style="stroke: #FF7F50; stroke-width: 1.5;"/><line style="stroke: #FF7F50; stroke-width: 2.5;" x1="157.5628" x2="169.9372" y1="435.388" y2="447.7624"/><line style="stroke: #FF7F50; stroke-width: 2.5;" x1="169.9372" x2="157.5628" y1="435.388" y2="447.7624"/><line style="stroke: #696969; stroke-width: 1.5;" x1="115.75" x2="115.75" y1="175.375" y2="195.375"/><polygon fill="#696969" points="111.75,185.375,115.75,195.375,119.75,185.375,115.75,189.375" style="stroke: #696969; stroke-width: 1.0;"/><line style="stroke: #696969; stroke-width: 1.5;" x1="205.25" x2="205.25" y1="175.375" y2="195.375"/><polygon fill="#696969" points="201.25,185.375,205.25,195.375,209.25,185.375,205.25,189.375" style="stroke: #696969; stroke-width: 1.0;"/><line style="stroke: #696969; stroke-width: 1.5;" x1="115.75" x2="115.75" y1="230.4688" y2="250.4688"/><polygon fill="#696969" points="111.75,240.4688,115.75,250.4688,119.75,240.4688,115.75,244.4688" style="stroke: #696969; stroke-width: 1.0;"/><line style="stroke: #696969; stroke-width: 1.5;" x1="205.25" x2="205.25" y1="230.4688" y2="250.4688"/><polygon fill="#696969" points="201.25,240.4688,205.25,250.4688,209.25,240.4688,205.25,244.4688" style="stroke: #696969; stroke-width: 1.0;"/><line style="stroke: #696969; stroke-width: 1.5;" x1="163.75" x2="163.75" y1="256.4688" y2="276.4688"/><polygon fill="#696969" points="159.75,266.4688,163.75,276.4688,167.75,266.4688,163.75,270.4688" style="stroke: #696969; stroke-width: 1.0;"/><line style="stroke: #696969; stroke-width: 1.5;" x1="163.75" x2="163.75" y1="311.5625" y2="331.5625"/><polygon fill="#696969" points="159.75,321.5625,163.75,331.5625,167.75,321.5625,163.75,325.5625" style="stroke: #696969; stroke-width: 1.0;"/><line style="stroke: #696969; stroke-width: 1.5;" x1="163.75" x2="163.75" y1="149.375" y2="169.375"/><polygon fill="#696969" points="159.75,159.375,163.75,169.375,167.75,159.375,163.75,163.375" style="stroke: #696969; stroke-width: 1.0;"/><line style="stroke: #696969; stroke-width: 1.5;" x1="175.75" x2="365.75" y1="398.6563" y2="398.6563"/><polygon fill="#696969" points="361.75,278.0156,365.75,268.0156,369.75,278.0156,365.75,274.0156" style="stroke: #696969; stroke-width: 1.5;"/><line style="stroke: #696969; stroke-width: 1.5;" x1="365.75" x2="365.75" y1="137.375" y2="398.6563"/><line style="stroke: #696969; stroke-width: 1.5;" x1="365.75" x2="175.75" y1="137.375" y2="137.375"/><polygon fill="#696969" points="185.75,133.375,175.75,137.375,185.75,141.375,181.75,137.375" style="stroke: #696969; stroke-width: 1.0;"/><text fill="#696969" font-family="sans-serif" font-size="11" lengthAdjust="spacingAndGlyphs" textLength="22" x="369.75" y="396.2393">build</text><text fill="#696969" font-family="sans-serif" font-size="11" lengthAdjust="spacingAndGlyphs" textLength="27" x="369.75" y="410.0752">credit</text><line style="stroke: #696969; stroke-width: 1.5;" x1="163.75" x2="163.75" y1="366.6563" y2="386.6563"/><polygon fill="#696969" points="159.75,376.6563,163.75,386.6563,167.75,376.6563,163.75,380.6563" style="stroke: #696969; stroke-width: 1.0;"/><line style="stroke: #696969; stroke-width: 1.5;" x1="163.75" x2="163.75" y1="105.375" y2="125.375"/><polygon fill="#696969" points="159.75,115.375,163.75,125.375,167.75,115.375,163.75,119.375" style="stroke: #696969; stroke-width: 1.0;"/><line style="stroke: #696969; stroke-width: 1.5;" x1="163.75" x2="163.75" y1="410.6563" y2="431.5752"/><polygon fill="#696969" points="159.75,421.5752,163.75,431.5752,167.75,421.5752,163.75,425.5752" style="stroke: #696969; stroke-width: 1.0;"/><text fill="#000080" font-family="sans-serif" font-size="14" lengthAdjust="spacingAndGlyphs" textLength="42" x="10" y="465.1084">©2019</text><a target="_top" xlink:actuate="onRequest" xlink:href="http://www.lifestylesunlimited.com" xlink:show="new" xlink:title="http://www.lifestylesunlimited.com" xlink:type="simple"><text fill="#0000FF" font-family="sans-serif" font-size="14" lengthAdjust="spacingAndGlyphs" text-decoration="underline" textLength="122" x="56" y="465.1084">LifeStyles Unlimited</text><line style="stroke: #0000FF; stroke-width: 1.0;" x1="56" x2="178" y1="467.1084" y2="467.1084"/></a><text fill="#000080" font-family="sans-serif" font-size="14" lengthAdjust="spacingAndGlyphs" textLength="279" x="182" y="465.1084">| Generated Sun Apr 28 21:19:16 CDT 2019</text><!--
@startuml credit-cards


skinparam {
  BorderColor Red
  PathHoverColor Blue
}

skinparam Title {
  FontColor Navy
  BackgroundColor PaleGoldenRod
  BorderColor Navy
  BorderRoundCorner 20
  FontSize 24
}

skinparam activity {
  BackgroundColor Ivory
  BorderColor CornflowerBlue
  BorderThickness 1
  FontColor DimGray
  

  Arrow {
    Color dimgray
    FontColor dimgray
  }

  Start {
    Color PHYSICAL
  }

  End {
    Color Coral
  }

  Diamond {
    BackgroundColor Ivory
    BorderColor CornflowerBlue
    FontColor DarkGray
  }

  BackgroundColor<< Exception >> Red
	BorderColor<< Exception >> White
}

skinparam Swimlane {
  BorderColor CornflowerBlue 
}

skinparam Partition {
  BackgroundColor Ivory
  BorderColor CornflowerBlue
  BorderThickness 1
  FontColor CornflowerBlue
  FontSize 16
  BorderRoundCorner 20
}

skinparam Note {
  BackgroundColor LightSteelBlue
  BorderColor CornflowerBlue
  FontColor White
}

skinparam Legend {
  BackgroundColor LightSteelBlue
  BorderColor CornflowerBlue
  FontColor White
}

skinparam Footer {
  FontColor Navy
}


left header 
	<font color=Navy size=24>[[../index.svg?sanitize=true ⌂ Home]]</font>
endheader


	Title Credit Cards

	start

	repeat
		fork
			:spend;
		fork again
			:due date>
		end fork
		:cash back;
		note right: cash back program
		:pay in full;

	repeat while () -> build\ncredit

	end


left footer 
	<font size=14>©2019 [[http://www.lifestylesunlimited.com LifeStyles Unlimited]] | Generated Sun Apr 28 21:19:16 CDT 2019</font>
endfooter


@enduml

PlantUML version 1.2019.03(Sun Mar 10 06:04:44 CDT 2019)
(GPL source distribution)
Java Runtime: Java(TM) SE Runtime Environment
JVM: Java HotSpot(TM) 64-Bit Server VM
Java Version: 1.8.0_111-b14
Operating System: Windows 10
OS Version: 10.0
Default Encoding: Cp1252
Language: en
Country: US
--></g></svg>