<?xml version="1.0" encoding="UTF-8" standalone="no"?><svg xmlns="http://www.w3.org/2000/svg" xmlns:xlink="http://www.w3.org/1999/xlink" contentScriptType="application/ecmascript" contentStyleType="text/css" height="478px" preserveAspectRatio="none" style="width:342px;height:478px;" version="1.1" viewBox="0 0 342 478" width="342px" zoomAndPan="magnify"><defs><style type="text/css"><![CDATA[path:hover { stroke: #0000FF !important;}]]></style><filter height="300%" id="f2sb6re7nfqta" width="300%" x="-1" y="-1"><feGaussianBlur result="blurOut" stdDeviation="2.0"/><feColorMatrix in="blurOut" result="blurOut2" type="matrix" values="0 0 0 0 0 0 0 0 0 0 0 0 0 0 0 0 0 0 .4 0"/><feOffset dx="4.0" dy="4.0" in="blurOut2" result="blurOut3"/><feBlend in="SourceGraphic" in2="blurOut3" mode="normal"/></filter></defs><g><a href="../index.svg?sanitize=true" target="_top" xlink:actuate="onRequest" xlink:show="new" xlink:title="../index.svg?sanitize=true" xlink:type="simple"><text fill="#0000FF" font-family="sans-serif" font-size="24" lengthAdjust="spacingAndGlyphs" text-decoration="underline" textLength="90" x="10" y="34.9141">⌂ Home</text></a><rect fill="#EEE8AA" height="40.1875" rx="10" ry="10" style="stroke: #000080; stroke-width: 1.5;" width="151" x="94.25" y="42.1875"/><text fill="#000080" font-family="sans-serif" font-size="24" lengthAdjust="spacingAndGlyphs" textLength="135" x="102.25" y="72.1016">Credit Cards</text><ellipse cx="97.5" cy="95.375" fill="#CCFFCC" filter="url(#f2sb6re7nfqta)" rx="10" ry="10" style="stroke: none; stroke-width: 1.0;"/><rect fill="#000000" filter="url(#f2sb6re7nfqta)" height="6" rx="2.5" ry="2.5" style="stroke: #000000; stroke-width: 1.0;" width="177" x="10" y="169.375"/><rect fill="#FFFFF0" filter="url(#f2sb6re7nfqta)" height="35.0938" rx="12.5" ry="12.5" style="stroke: #6495ED; stroke-width: 1.0;" width="55" x="22" y="195.375"/><text fill="#696969" font-family="sans-serif" font-size="12" lengthAdjust="spacingAndGlyphs" textLength="35" x="32" y="217.832">spend</text><polygon fill="#FFFFF0" filter="url(#f2sb6re7nfqta)" points="105,195.375,173,195.375,183,212.9219,173,230.4688,105,230.4688" style="stroke: #6495ED; stroke-width: 1.0;"/><text fill="#696969" font-family="sans-serif" font-size="12" lengthAdjust="spacingAndGlyphs" textLength="48" x="115" y="217.832">due date</text><rect fill="#000000" filter="url(#f2sb6re7nfqta)" height="6" rx="2.5" ry="2.5" style="stroke: #000000; stroke-width: 1.0;" width="177" x="10" y="250.4688"/><path d="M155.5,280.8398 L155.5,290.0156 L135.5,294.0156 L155.5,298.0156 L155.5,307.1914 A0,0 0 0 0 155.5,307.1914 L287.5,307.1914 A0,0 0 0 0 287.5,307.1914 L287.5,290.8398 L277.5,280.8398 L155.5,280.8398 A0,0 0 0 0 155.5,280.8398 " fill="#B0C4DE" filter="url(#f2sb6re7nfqta)" style="stroke: #6495ED; stroke-width: 1.0;"/><path d="M277.5,280.8398 L277.5,290.8398 L287.5,290.8398 L277.5,280.8398 " fill="#B0C4DE" style="stroke: #6495ED; stroke-width: 1.0;"/><text fill="#FFFFFF" font-family="sans-serif" font-size="13" lengthAdjust="spacingAndGlyphs" textLength="111" x="161.5" y="299.335">cash back program</text><rect fill="#FFFFF0" filter="url(#f2sb6re7nfqta)" height="35.0938" rx="12.5" ry="12.5" style="stroke: #6495ED; stroke-width: 1.0;" width="76" x="59.5" y="276.4688"/><text fill="#696969" font-family="sans-serif" font-size="12" lengthAdjust="spacingAndGlyphs" textLength="56" x="69.5" y="298.9258">cash back</text><rect fill="#FFFFF0" filter="url(#f2sb6re7nfqta)" height="35.0938" rx="12.5" ry="12.5" style="stroke: #6495ED; stroke-width: 1.0;" width="71" x="62" y="331.5625"/><text fill="#696969" font-family="sans-serif" font-size="12" lengthAdjust="spacingAndGlyphs" textLength="51" x="72" y="354.0195">pay in full</text><polygon fill="#FFFFF0" filter="url(#f2sb6re7nfqta)" points="97.5,125.375,109.5,137.375,97.5,149.375,85.5,137.375,97.5,125.375" style="stroke: #6495ED; stroke-width: 1.0;"/><polygon fill="#FFFFF0" filter="url(#f2sb6re7nfqta)" points="97.5,386.6563,97.5,386.6563,109.5,398.6563,97.5,410.6563,97.5,410.6563,85.5,398.6563,97.5,386.6563" style="stroke: #6495ED; stroke-width: 1.0;"/><ellipse cx="97.5" cy="441.5752" fill="#FFFFFF" filter="url(#f2sb6re7nfqta)" rx="10" ry="10" style="stroke: #FF7F50; stroke-width: 1.5;"/><line style="stroke: #FF7F50; stroke-width: 2.5;" x1="91.3128" x2="103.6872" y1="435.388" y2="447.7624"/><line style="stroke: #FF7F50; stroke-width: 2.5;" x1="103.6872" x2="91.3128" y1="435.388" y2="447.7624"/><line style="stroke: #696969; stroke-width: 1.5;" x1="49.5" x2="49.5" y1="175.375" y2="195.375"/><polygon fill="#696969" points="45.5,185.375,49.5,195.375,53.5,185.375,49.5,189.375" style="stroke: #696969; stroke-width: 1.0;"/><line style="stroke: #696969; stroke-width: 1.5;" x1="139" x2="139" y1="175.375" y2="195.375"/><polygon fill="#696969" points="135,185.375,139,195.375,143,185.375,139,189.375" style="stroke: #696969; stroke-width: 1.0;"/><line style="stroke: #696969; stroke-width: 1.5;" x1="49.5" x2="49.5" y1="230.4688" y2="250.4688"/><polygon fill="#696969" points="45.5,240.4688,49.5,250.4688,53.5,240.4688,49.5,244.4688" style="stroke: #696969; stroke-width: 1.0;"/><line style="stroke: #696969; stroke-width: 1.5;" x1="139" x2="139" y1="230.4688" y2="250.4688"/><polygon fill="#696969" points="135,240.4688,139,250.4688,143,240.4688,139,244.4688" style="stroke: #696969; stroke-width: 1.0;"/><line style="stroke: #696969; stroke-width: 1.5;" x1="97.5" x2="97.5" y1="256.4688" y2="276.4688"/><polygon fill="#696969" points="93.5,266.4688,97.5,276.4688,101.5,266.4688,97.5,270.4688" style="stroke: #696969; stroke-width: 1.0;"/><line style="stroke: #696969; stroke-width: 1.5;" x1="97.5" x2="97.5" y1="311.5625" y2="331.5625"/><polygon fill="#696969" points="93.5,321.5625,97.5,331.5625,101.5,321.5625,97.5,325.5625" style="stroke: #696969; stroke-width: 1.0;"/><line style="stroke: #696969; stroke-width: 1.5;" x1="97.5" x2="97.5" y1="149.375" y2="169.375"/><polygon fill="#696969" points="93.5,159.375,97.5,169.375,101.5,159.375,97.5,163.375" style="stroke: #696969; stroke-width: 1.0;"/><line style="stroke: #696969; stroke-width: 1.5;" x1="109.5" x2="299.5" y1="398.6563" y2="398.6563"/><polygon fill="#696969" points="295.5,278.0156,299.5,268.0156,303.5,278.0156,299.5,274.0156" style="stroke: #696969; stroke-width: 1.5;"/><line style="stroke: #696969; stroke-width: 1.5;" x1="299.5" x2="299.5" y1="137.375" y2="398.6563"/><line style="stroke: #696969; stroke-width: 1.5;" x1="299.5" x2="109.5" y1="137.375" y2="137.375"/><polygon fill="#696969" points="119.5,133.375,109.5,137.375,119.5,141.375,115.5,137.375" style="stroke: #696969; stroke-width: 1.0;"/><text fill="#696969" font-family="sans-serif" font-size="11" lengthAdjust="spacingAndGlyphs" textLength="22" x="303.5" y="396.2393">build</text><text fill="#696969" font-family="sans-serif" font-size="11" lengthAdjust="spacingAndGlyphs" textLength="27" x="303.5" y="410.0752">credit</text><line style="stroke: #696969; stroke-width: 1.5;" x1="97.5" x2="97.5" y1="366.6563" y2="386.6563"/><polygon fill="#696969" points="93.5,376.6563,97.5,386.6563,101.5,376.6563,97.5,380.6563" style="stroke: #696969; stroke-width: 1.0;"/><line style="stroke: #696969; stroke-width: 1.5;" x1="97.5" x2="97.5" y1="105.375" y2="125.375"/><polygon fill="#696969" points="93.5,115.375,97.5,125.375,101.5,115.375,97.5,119.375" style="stroke: #696969; stroke-width: 1.0;"/><line style="stroke: #696969; stroke-width: 1.5;" x1="97.5" x2="97.5" y1="410.6563" y2="431.5752"/><polygon fill="#696969" points="93.5,421.5752,97.5,431.5752,101.5,421.5752,97.5,425.5752" style="stroke: #696969; stroke-width: 1.0;"/><text fill="#000080" font-family="sans-serif" font-size="14" lengthAdjust="spacingAndGlyphs" textLength="42" x="10" y="465.1084">©2019</text><a href="http://www.lifestylesunlimited.com" target="_top" xlink:actuate="onRequest" xlink:show="new" xlink:title="http://www.lifestylesunlimited.com" xlink:type="simple"><text fill="#0000FF" font-family="sans-serif" font-size="14" lengthAdjust="spacingAndGlyphs" text-decoration="underline" textLength="122" x="56" y="465.1084">LifeStyles Unlimited</text></a><text fill="#000080" font-family="sans-serif" font-size="14" lengthAdjust="spacingAndGlyphs" textLength="131" x="182" y="465.1084">| Generated %date%</text><!--
@startuml credit-cards


skinparam {
  BorderColor Red
  PathHoverColor Blue
}

skinparam Title {
  FontColor Navy
  BackgroundColor PaleGoldenRod
  BorderColor Navy
  BorderRoundCorner 20
  FontSize 24
}

skinparam activity {
  BackgroundColor Ivory
  BorderColor CornflowerBlue
  BorderThickness 1
  FontColor DimGray
  

  Arrow {
    Color dimgray
    FontColor dimgray
  }

  Start {
    Color PHYSICAL
  }

  End {
    Color Coral
  }

  Diamond {
    BackgroundColor Ivory
    BorderColor CornflowerBlue
    FontColor DarkGray
  }

  BackgroundColor<< Exception >> Red
	BorderColor<< Exception >> White
}

skinparam Swimlane {
  BorderColor CornflowerBlue 
}

skinparam Partition {
  BackgroundColor Ivory
  BorderColor CornflowerBlue
  BorderThickness 1
  FontColor CornflowerBlue
  FontSize 16
  BorderRoundCorner 20
}

skinparam Note {
  BackgroundColor LightSteelBlue
  BorderColor CornflowerBlue
  FontColor White
}

skinparam Legend {
  BackgroundColor LightSteelBlue
  BorderColor CornflowerBlue
  FontColor White
}

skinparam Footer {
  FontColor Navy
}


left header 
	<font color=Navy size=24>[[../index.svg?sanitize=true ⌂ Home]]</font>
endheader


	Title Credit Cards

	start

	repeat
		fork
			:spend;
		fork again
			:due date>
		end fork
		:cash back;
		note right: cash back program
		:pay in full;

	repeat while () -> build\ncredit

	end


left footer 
	<font size=14>©2019 [[http://www.lifestylesunlimited.com LifeStyles Unlimited]] | Generated %date%</font>
endfooter


@enduml

PlantUML version 1.2019.06(Fri May 24 12:10:25 CDT 2019)
(GPL source distribution)
Java Runtime: Java(TM) SE Runtime Environment
JVM: Java HotSpot(TM) Client VM
Java Version: 1.8.0_211-b12
Operating System: Windows 10
OS Version: 10.0
Default Encoding: Cp1252
Language: en
Country: US
--></g></svg>