<?xml version="1.0" encoding="UTF-8" standalone="no"?><svg xmlns="http://www.w3.org/2000/svg" xmlns:xlink="http://www.w3.org/1999/xlink" contentScriptType="application/ecmascript" contentStyleType="text/css" height="478px" preserveAspectRatio="none" style="width:477px;height:478px;" version="1.1" viewBox="0 0 477 478" width="477px" zoomAndPan="magnify"><defs><style type="text/css"><![CDATA[path:hover { stroke: #0000FF !important;}]]></style><filter height="300%" id="fcd0733egbyid" width="300%" x="-1" y="-1"><feGaussianBlur result="blurOut" stdDeviation="2.0"/><feColorMatrix in="blurOut" result="blurOut2" type="matrix" values="0 0 0 0 0 0 0 0 0 0 0 0 0 0 0 0 0 0 .4 0"/><feOffset dx="4.0" dy="4.0" in="blurOut2" result="blurOut3"/><feBlend in="SourceGraphic" in2="blurOut3" mode="normal"/></filter></defs><g><a target="_top" xlink:actuate="onRequest" xlink:href="../index.svg?sanitize=true" xlink:show="new" xlink:title="../index.svg?sanitize=true" xlink:type="simple"><text fill="#0000FF" font-family="sans-serif" font-size="24" lengthAdjust="spacingAndGlyphs" text-decoration="underline" textLength="90" x="10" y="34.9141">⌂ Home</text><line style="stroke: #0000FF; stroke-width: 1.0;" x1="10" x2="100" y1="36.9141" y2="36.9141"/></a><rect fill="#EEE8AA" height="40.1875" rx="10" ry="10" style="stroke: #000080; stroke-width: 1.5;" width="151" x="161.5" y="42.1875"/><text fill="#000080" font-family="sans-serif" font-size="24" lengthAdjust="spacingAndGlyphs" textLength="135" x="169.5" y="72.1016">Credit Cards</text><ellipse cx="165.75" cy="95.375" fill="#CCFFCC" filter="url(#fcd0733egbyid)" rx="10" ry="10" style="stroke: none; stroke-width: 1.0;"/><rect fill="#000000" filter="url(#fcd0733egbyid)" height="6" rx="2.5" ry="2.5" style="stroke: #000000; stroke-width: 1.0;" width="179" x="76.25" y="169.375"/><rect fill="#FFFFF0" filter="url(#fcd0733egbyid)" height="35.0938" rx="12.5" ry="12.5" style="stroke: #6495ED; stroke-width: 1.0;" width="55" x="90.25" y="195.375"/><text fill="#696969" font-family="sans-serif" font-size="12" lengthAdjust="spacingAndGlyphs" textLength="35" x="100.25" y="217.832">spend</text><polygon fill="#FFFFF0" filter="url(#fcd0733egbyid)" points="173.25,195.375,241.25,195.375,251.25,212.9219,241.25,230.4688,173.25,230.4688" style="stroke: #6495ED; stroke-width: 1.0;"/><text fill="#696969" font-family="sans-serif" font-size="12" lengthAdjust="spacingAndGlyphs" textLength="48" x="183.25" y="217.832">due date</text><rect fill="#000000" filter="url(#fcd0733egbyid)" height="6" rx="2.5" ry="2.5" style="stroke: #000000; stroke-width: 1.0;" width="179" x="76.25" y="250.4688"/><path d="M223.75,280.8398 L223.75,290.0156 L203.75,294.0156 L223.75,298.0156 L223.75,307.1914 A0,0 0 0 0 223.75,307.1914 L355.75,307.1914 A0,0 0 0 0 355.75,307.1914 L355.75,290.8398 L345.75,280.8398 L223.75,280.8398 A0,0 0 0 0 223.75,280.8398 " fill="#B0C4DE" filter="url(#fcd0733egbyid)" style="stroke: #6495ED; stroke-width: 1.0;"/><path d="M345.75,280.8398 L345.75,290.8398 L355.75,290.8398 L345.75,280.8398 " fill="#B0C4DE" style="stroke: #6495ED; stroke-width: 1.0;"/><text fill="#FFFFFF" font-family="sans-serif" font-size="13" lengthAdjust="spacingAndGlyphs" textLength="111" x="229.75" y="299.335">cash back program</text><rect fill="#FFFFF0" filter="url(#fcd0733egbyid)" height="35.0938" rx="12.5" ry="12.5" style="stroke: #6495ED; stroke-width: 1.0;" width="76" x="127.75" y="276.4688"/><text fill="#696969" font-family="sans-serif" font-size="12" lengthAdjust="spacingAndGlyphs" textLength="56" x="137.75" y="298.9258">cash back</text><rect fill="#FFFFF0" filter="url(#fcd0733egbyid)" height="35.0938" rx="12.5" ry="12.5" style="stroke: #6495ED; stroke-width: 1.0;" width="71" x="130.25" y="331.5625"/><text fill="#696969" font-family="sans-serif" font-size="12" lengthAdjust="spacingAndGlyphs" textLength="51" x="140.25" y="354.0195">pay in full</text><polygon fill="#FFFFF0" filter="url(#fcd0733egbyid)" points="165.75,125.375,177.75,137.375,165.75,149.375,153.75,137.375,165.75,125.375" style="stroke: #6495ED; stroke-width: 1.0;"/><polygon fill="#FFFFF0" filter="url(#fcd0733egbyid)" points="165.75,386.6563,165.75,386.6563,177.75,398.6563,165.75,410.6563,165.75,410.6563,153.75,398.6563,165.75,386.6563" style="stroke: #6495ED; stroke-width: 1.0;"/><ellipse cx="165.75" cy="441.5752" fill="#FFFFFF" filter="url(#fcd0733egbyid)" rx="10" ry="10" style="stroke: #FF7F50; stroke-width: 1.5;"/><line style="stroke: #FF7F50; stroke-width: 2.5;" x1="159.5628" x2="171.9372" y1="435.388" y2="447.7624"/><line style="stroke: #FF7F50; stroke-width: 2.5;" x1="171.9372" x2="159.5628" y1="435.388" y2="447.7624"/><line style="stroke: #696969; stroke-width: 1.5;" x1="117.75" x2="117.75" y1="175.375" y2="195.375"/><polygon fill="#696969" points="113.75,185.375,117.75,195.375,121.75,185.375,117.75,189.375" style="stroke: #696969; stroke-width: 1.0;"/><line style="stroke: #696969; stroke-width: 1.5;" x1="207.25" x2="207.25" y1="175.375" y2="195.375"/><polygon fill="#696969" points="203.25,185.375,207.25,195.375,211.25,185.375,207.25,189.375" style="stroke: #696969; stroke-width: 1.0;"/><line style="stroke: #696969; stroke-width: 1.5;" x1="117.75" x2="117.75" y1="230.4688" y2="250.4688"/><polygon fill="#696969" points="113.75,240.4688,117.75,250.4688,121.75,240.4688,117.75,244.4688" style="stroke: #696969; stroke-width: 1.0;"/><line style="stroke: #696969; stroke-width: 1.5;" x1="207.25" x2="207.25" y1="230.4688" y2="250.4688"/><polygon fill="#696969" points="203.25,240.4688,207.25,250.4688,211.25,240.4688,207.25,244.4688" style="stroke: #696969; stroke-width: 1.0;"/><line style="stroke: #696969; stroke-width: 1.5;" x1="165.75" x2="165.75" y1="256.4688" y2="276.4688"/><polygon fill="#696969" points="161.75,266.4688,165.75,276.4688,169.75,266.4688,165.75,270.4688" style="stroke: #696969; stroke-width: 1.0;"/><line style="stroke: #696969; stroke-width: 1.5;" x1="165.75" x2="165.75" y1="311.5625" y2="331.5625"/><polygon fill="#696969" points="161.75,321.5625,165.75,331.5625,169.75,321.5625,165.75,325.5625" style="stroke: #696969; stroke-width: 1.0;"/><line style="stroke: #696969; stroke-width: 1.5;" x1="165.75" x2="165.75" y1="149.375" y2="169.375"/><polygon fill="#696969" points="161.75,159.375,165.75,169.375,169.75,159.375,165.75,163.375" style="stroke: #696969; stroke-width: 1.0;"/><line style="stroke: #696969; stroke-width: 1.5;" x1="177.75" x2="367.75" y1="398.6563" y2="398.6563"/><polygon fill="#696969" points="363.75,278.0156,367.75,268.0156,371.75,278.0156,367.75,274.0156" style="stroke: #696969; stroke-width: 1.5;"/><line style="stroke: #696969; stroke-width: 1.5;" x1="367.75" x2="367.75" y1="137.375" y2="398.6563"/><line style="stroke: #696969; stroke-width: 1.5;" x1="367.75" x2="177.75" y1="137.375" y2="137.375"/><polygon fill="#696969" points="187.75,133.375,177.75,137.375,187.75,141.375,183.75,137.375" style="stroke: #696969; stroke-width: 1.0;"/><text fill="#696969" font-family="sans-serif" font-size="11" lengthAdjust="spacingAndGlyphs" textLength="22" x="371.75" y="396.2393">build</text><text fill="#696969" font-family="sans-serif" font-size="11" lengthAdjust="spacingAndGlyphs" textLength="27" x="371.75" y="410.0752">credit</text><line style="stroke: #696969; stroke-width: 1.5;" x1="165.75" x2="165.75" y1="366.6563" y2="386.6563"/><polygon fill="#696969" points="161.75,376.6563,165.75,386.6563,169.75,376.6563,165.75,380.6563" style="stroke: #696969; stroke-width: 1.0;"/><line style="stroke: #696969; stroke-width: 1.5;" x1="165.75" x2="165.75" y1="105.375" y2="125.375"/><polygon fill="#696969" points="161.75,115.375,165.75,125.375,169.75,115.375,165.75,119.375" style="stroke: #696969; stroke-width: 1.0;"/><line style="stroke: #696969; stroke-width: 1.5;" x1="165.75" x2="165.75" y1="410.6563" y2="431.5752"/><polygon fill="#696969" points="161.75,421.5752,165.75,431.5752,169.75,421.5752,165.75,425.5752" style="stroke: #696969; stroke-width: 1.0;"/><text fill="#000080" font-family="sans-serif" font-size="14" lengthAdjust="spacingAndGlyphs" textLength="42" x="10" y="465.1084">©2019</text><a target="_top" xlink:actuate="onRequest" xlink:href="http://www.lifestylesunlimited.com" xlink:show="new" xlink:title="http://www.lifestylesunlimited.com" xlink:type="simple"><text fill="#0000FF" font-family="sans-serif" font-size="14" lengthAdjust="spacingAndGlyphs" text-decoration="underline" textLength="122" x="56" y="465.1084">LifeStyles Unlimited</text><line style="stroke: #0000FF; stroke-width: 1.0;" x1="56" x2="178" y1="467.1084" y2="467.1084"/></a><text fill="#000080" font-family="sans-serif" font-size="14" lengthAdjust="spacingAndGlyphs" textLength="283" x="182" y="465.1084">| Generated Sun May 12 17:24:37 CDT 2019</text><!--
@startuml credit-cards


skinparam {
  BorderColor Red
  PathHoverColor Blue
}

skinparam Title {
  FontColor Navy
  BackgroundColor PaleGoldenRod
  BorderColor Navy
  BorderRoundCorner 20
  FontSize 24
}

skinparam activity {
  BackgroundColor Ivory
  BorderColor CornflowerBlue
  BorderThickness 1
  FontColor DimGray
  

  Arrow {
    Color dimgray
    FontColor dimgray
  }

  Start {
    Color PHYSICAL
  }

  End {
    Color Coral
  }

  Diamond {
    BackgroundColor Ivory
    BorderColor CornflowerBlue
    FontColor DarkGray
  }

  BackgroundColor<< Exception >> Red
	BorderColor<< Exception >> White
}

skinparam Swimlane {
  BorderColor CornflowerBlue 
}

skinparam Partition {
  BackgroundColor Ivory
  BorderColor CornflowerBlue
  BorderThickness 1
  FontColor CornflowerBlue
  FontSize 16
  BorderRoundCorner 20
}

skinparam Note {
  BackgroundColor LightSteelBlue
  BorderColor CornflowerBlue
  FontColor White
}

skinparam Legend {
  BackgroundColor LightSteelBlue
  BorderColor CornflowerBlue
  FontColor White
}

skinparam Footer {
  FontColor Navy
}


left header 
	<font color=Navy size=24>[[../index.svg?sanitize=true ⌂ Home]]</font>
endheader


	Title Credit Cards

	start

	repeat
		fork
			:spend;
		fork again
			:due date>
		end fork
		:cash back;
		note right: cash back program
		:pay in full;

	repeat while () -> build\ncredit

	end


left footer 
	<font size=14>©2019 [[http://www.lifestylesunlimited.com LifeStyles Unlimited]] | Generated Sun May 12 17:24:37 CDT 2019</font>
endfooter


@enduml

PlantUML version 1.2019.03(Sun Mar 10 06:04:44 CDT 2019)
(GPL source distribution)
Java Runtime: Java(TM) SE Runtime Environment
JVM: Java HotSpot(TM) 64-Bit Server VM
Java Version: 1.8.0_111-b14
Operating System: Windows 10
OS Version: 10.0
Default Encoding: Cp1252
Language: en
Country: US
--></g></svg>