<?xml version="1.0" encoding="UTF-8" standalone="no"?><svg xmlns="http://www.w3.org/2000/svg" xmlns:xlink="http://www.w3.org/1999/xlink" contentScriptType="application/ecmascript" contentStyleType="text/css" height="449px" preserveAspectRatio="none" style="width:362px;height:449px;" version="1.1" viewBox="0 0 362 449" width="362px" zoomAndPan="magnify"><defs><style type="text/css"><![CDATA[path:hover { stroke: #0000FF !important;}]]></style><filter height="300%" id="f1d5yuvlcmghh0" width="300%" x="-1" y="-1"><feGaussianBlur result="blurOut" stdDeviation="2.0"/><feColorMatrix in="blurOut" result="blurOut2" type="matrix" values="0 0 0 0 0 0 0 0 0 0 0 0 0 0 0 0 0 0 .4 0"/><feOffset dx="4.0" dy="4.0" in="blurOut2" result="blurOut3"/><feBlend in="SourceGraphic" in2="blurOut3" mode="normal"/></filter></defs><g><a target="_top" xlink:actuate="onRequest" xlink:href="../index.svg" xlink:show="new" xlink:title="../index.svg" xlink:type="simple"><text fill="#0000FF" font-family="sans-serif" font-size="10" lengthAdjust="spacingAndGlyphs" text-decoration="underline" textLength="39" x="10" y="20.3809">⌂ Home</text><line style="stroke: #0000FF; stroke-width: 1.0;" x1="10" x2="49" y1="22.3809" y2="22.3809"/></a><rect fill="#EEE8AA" height="32.6406" rx="10" ry="10" style="stroke: #000080; stroke-width: 1.5;" width="117" x="121" y="24.5781"/><text fill="#000080" font-family="sans-serif" font-size="18" lengthAdjust="spacingAndGlyphs" textLength="101" x="129" y="48.2637">Credit Cards</text><ellipse cx="108.25" cy="70.2188" fill="#000080" filter="url(#f1d5yuvlcmghh0)" rx="10" ry="10" style="stroke: none; stroke-width: 1.0;"/><rect fill="#000000" filter="url(#f1d5yuvlcmghh0)" height="6" rx="2.5" ry="2.5" style="stroke: #000000; stroke-width: 1.0;" width="179" x="18.75" y="144.2188"/><rect fill="#FFFFF0" filter="url(#f1d5yuvlcmghh0)" height="35.0938" rx="12.5" ry="12.5" style="stroke: #6495ED; stroke-width: 1.5;" width="55" x="32.75" y="170.2188"/><text fill="#A9A9A9" font-family="sans-serif" font-size="12" lengthAdjust="spacingAndGlyphs" textLength="35" x="42.75" y="192.6758">spend</text><polygon fill="#FFFFF0" filter="url(#f1d5yuvlcmghh0)" points="115.75,170.2188,183.75,170.2188,193.75,187.7656,183.75,205.3125,115.75,205.3125" style="stroke: #6495ED; stroke-width: 1.5;"/><text fill="#A9A9A9" font-family="sans-serif" font-size="12" lengthAdjust="spacingAndGlyphs" textLength="48" x="125.75" y="192.6758">due date</text><rect fill="#000000" filter="url(#f1d5yuvlcmghh0)" height="6" rx="2.5" ry="2.5" style="stroke: #000000; stroke-width: 1.0;" width="179" x="18.75" y="225.3125"/><path d="M166.25,255.6836 L166.25,264.8594 L146.25,268.8594 L166.25,272.8594 L166.25,282.0352 A0,0 0 0 0 166.25,282.0352 L298.25,282.0352 A0,0 0 0 0 298.25,282.0352 L298.25,265.6836 L288.25,255.6836 L166.25,255.6836 A0,0 0 0 0 166.25,255.6836 " fill="#B0C4DE" filter="url(#f1d5yuvlcmghh0)" style="stroke: #6495ED; stroke-width: 1.0;"/><path d="M288.25,255.6836 L288.25,265.6836 L298.25,265.6836 L288.25,255.6836 " fill="#B0C4DE" style="stroke: #6495ED; stroke-width: 1.0;"/><text fill="#FFFFFF" font-family="sans-serif" font-size="13" lengthAdjust="spacingAndGlyphs" textLength="111" x="172.25" y="274.1787">cash back program</text><rect fill="#FFFFF0" filter="url(#f1d5yuvlcmghh0)" height="35.0938" rx="12.5" ry="12.5" style="stroke: #6495ED; stroke-width: 1.5;" width="76" x="70.25" y="251.3125"/><text fill="#A9A9A9" font-family="sans-serif" font-size="12" lengthAdjust="spacingAndGlyphs" textLength="56" x="80.25" y="273.7695">cash back</text><rect fill="#FFFFF0" filter="url(#f1d5yuvlcmghh0)" height="35.0938" rx="12.5" ry="12.5" style="stroke: #6495ED; stroke-width: 1.5;" width="71" x="72.75" y="306.4063"/><text fill="#A9A9A9" font-family="sans-serif" font-size="12" lengthAdjust="spacingAndGlyphs" textLength="51" x="82.75" y="328.8633">pay in full</text><polygon fill="#FFFFF0" filter="url(#f1d5yuvlcmghh0)" points="108.25,100.2188,120.25,112.2188,108.25,124.2188,96.25,112.2188,108.25,100.2188" style="stroke: #6495ED; stroke-width: 1.5;"/><polygon fill="#FFFFF0" filter="url(#f1d5yuvlcmghh0)" points="108.25,361.5,108.25,361.5,120.25,373.5,108.25,385.5,108.25,385.5,96.25,373.5,108.25,361.5" style="stroke: #6495ED; stroke-width: 1.5;"/><ellipse cx="108.25" cy="416.4189" fill="#FFFFFF" filter="url(#f1d5yuvlcmghh0)" rx="10" ry="10" style="stroke: #FF0000; stroke-width: 1.5;"/><line style="stroke: #FF0000; stroke-width: 2.5;" x1="102.0628" x2="114.4372" y1="410.2318" y2="422.6061"/><line style="stroke: #FF0000; stroke-width: 2.5;" x1="114.4372" x2="102.0628" y1="410.2318" y2="422.6061"/><line style="stroke: #696969; stroke-width: 1.5;" x1="60.25" x2="60.25" y1="150.2188" y2="170.2188"/><polygon fill="#696969" points="56.25,160.2188,60.25,170.2188,64.25,160.2188,60.25,164.2188" style="stroke: #696969; stroke-width: 1.0;"/><line style="stroke: #696969; stroke-width: 1.5;" x1="149.75" x2="149.75" y1="150.2188" y2="170.2188"/><polygon fill="#696969" points="145.75,160.2188,149.75,170.2188,153.75,160.2188,149.75,164.2188" style="stroke: #696969; stroke-width: 1.0;"/><line style="stroke: #696969; stroke-width: 1.5;" x1="60.25" x2="60.25" y1="205.3125" y2="225.3125"/><polygon fill="#696969" points="56.25,215.3125,60.25,225.3125,64.25,215.3125,60.25,219.3125" style="stroke: #696969; stroke-width: 1.0;"/><line style="stroke: #696969; stroke-width: 1.5;" x1="149.75" x2="149.75" y1="205.3125" y2="225.3125"/><polygon fill="#696969" points="145.75,215.3125,149.75,225.3125,153.75,215.3125,149.75,219.3125" style="stroke: #696969; stroke-width: 1.0;"/><line style="stroke: #696969; stroke-width: 1.5;" x1="108.25" x2="108.25" y1="231.3125" y2="251.3125"/><polygon fill="#696969" points="104.25,241.3125,108.25,251.3125,112.25,241.3125,108.25,245.3125" style="stroke: #696969; stroke-width: 1.0;"/><line style="stroke: #696969; stroke-width: 1.5;" x1="108.25" x2="108.25" y1="286.4063" y2="306.4063"/><polygon fill="#696969" points="104.25,296.4063,108.25,306.4063,112.25,296.4063,108.25,300.4063" style="stroke: #696969; stroke-width: 1.0;"/><line style="stroke: #696969; stroke-width: 1.5;" x1="108.25" x2="108.25" y1="124.2188" y2="144.2188"/><polygon fill="#696969" points="104.25,134.2188,108.25,144.2188,112.25,134.2188,108.25,138.2188" style="stroke: #696969; stroke-width: 1.0;"/><line style="stroke: #696969; stroke-width: 1.5;" x1="120.25" x2="310.25" y1="373.5" y2="373.5"/><polygon fill="#696969" points="306.25,252.8594,310.25,242.8594,314.25,252.8594,310.25,248.8594" style="stroke: #696969; stroke-width: 1.5;"/><line style="stroke: #696969; stroke-width: 1.5;" x1="310.25" x2="310.25" y1="112.2188" y2="373.5"/><line style="stroke: #696969; stroke-width: 1.5;" x1="310.25" x2="120.25" y1="112.2188" y2="112.2188"/><polygon fill="#696969" points="130.25,108.2188,120.25,112.2188,130.25,116.2188,126.25,112.2188" style="stroke: #696969; stroke-width: 1.0;"/><text fill="#696969" font-family="sans-serif" font-size="11" lengthAdjust="spacingAndGlyphs" textLength="22" x="314.25" y="371.083">build</text><text fill="#696969" font-family="sans-serif" font-size="11" lengthAdjust="spacingAndGlyphs" textLength="27" x="314.25" y="384.9189">credit</text><line style="stroke: #696969; stroke-width: 1.5;" x1="108.25" x2="108.25" y1="341.5" y2="361.5"/><polygon fill="#696969" points="104.25,351.5,108.25,361.5,112.25,351.5,108.25,355.5" style="stroke: #696969; stroke-width: 1.0;"/><line style="stroke: #696969; stroke-width: 1.5;" x1="108.25" x2="108.25" y1="80.2188" y2="100.2188"/><polygon fill="#696969" points="104.25,90.2188,108.25,100.2188,112.25,90.2188,108.25,94.2188" style="stroke: #696969; stroke-width: 1.0;"/><line style="stroke: #696969; stroke-width: 1.5;" x1="108.25" x2="108.25" y1="385.5" y2="406.4189"/><polygon fill="#696969" points="104.25,396.4189,108.25,406.4189,112.25,396.4189,108.25,400.4189" style="stroke: #696969; stroke-width: 1.0;"/><text fill="#000080" font-family="sans-serif" font-size="10" lengthAdjust="spacingAndGlyphs" textLength="31" x="10" y="435.7998">©2019</text><a target="_top" xlink:actuate="onRequest" xlink:href="http://www.lifestylesunlimited.com" xlink:show="new" xlink:title="http://www.lifestylesunlimited.com" xlink:type="simple"><text fill="#0000FF" font-family="sans-serif" font-size="10" lengthAdjust="spacingAndGlyphs" text-decoration="underline" textLength="95" x="44" y="435.7998">LifeStyles Unlimited</text><line style="stroke: #0000FF; stroke-width: 1.0;" x1="44" x2="139" y1="437.7998" y2="437.7998"/></a><text fill="#000080" font-family="sans-serif" font-size="10" lengthAdjust="spacingAndGlyphs" textLength="208" x="142" y="435.7998">| Generated Sun Apr 14 12:09:51 CDT 2019</text><!--
@startuml credit-cards


skinparam {
  BorderColor Red
  PathHoverColor Blue
}

skinparam Title {
  FontColor Navy
  BackgroundColor PaleGoldenRod
  BorderColor Navy
  BorderRoundCorner 20
}

skinparam activity {
  BackgroundColor Ivory
  BorderColor CornflowerBlue
  FontColor DarkGray

  Arrow {
    Color dimgray
    FontColor dimgray
  }

  Start {
    Color Navy
  }

  End {
    Color Red
  }

  Diamond {
    BackgroundColor Ivory
    BorderColor CornflowerBlue
    FontColor DarkGray
  }

  BackgroundColor<< Exception >> Red
	BorderColor<< Exception >> White
}

skinparam Swimlane {
  BorderColor CornflowerBlue 
}

skinparam Partition {
  BackgroundColor DarkSeaGreen
  BorderColor CornflowerBlue
  BorderThickness 1
  FontColor White
  FontSize 16
}
skinparam Note {
  BackgroundColor LightSteelBlue
  BorderColor CornflowerBlue
  FontColor White
}

skinparam Footer {
  FontColor Navy
}


left header 
	<font color=Navy>[[../index.svg ⌂ Home]]</font>
endheader


	Title Credit Cards

	start

	repeat
		fork
			:spend;
		fork again
			:due date>
		end fork
		:cash back;
		note right: cash back program
		:pay in full;

	repeat while () -> build\ncredit

	end

left footer 
	©2019 [[http://www.lifestylesunlimited.com LifeStyles Unlimited]] | Generated Sun Apr 14 12:09:51 CDT 2019
endfooter


@enduml

PlantUML version 1.2019.03(Sun Mar 10 06:04:44 CDT 2019)
(GPL source distribution)
Java Runtime: Java(TM) SE Runtime Environment
JVM: Java HotSpot(TM) 64-Bit Server VM
Java Version: 1.8.0_111-b14
Operating System: Windows 10
OS Version: 10.0
Default Encoding: Cp1252
Language: en
Country: US
--></g></svg>