<?xml version="1.0" encoding="UTF-8" standalone="no"?><svg xmlns="http://www.w3.org/2000/svg" xmlns:xlink="http://www.w3.org/1999/xlink" contentScriptType="application/ecmascript" contentStyleType="text/css" height="449px" preserveAspectRatio="none" style="width:364px;height:449px;" version="1.1" viewBox="0 0 364 449" width="364px" zoomAndPan="magnify"><defs><style type="text/css"><![CDATA[path:hover { stroke: #0000FF !important;}]]></style><filter height="300%" id="folj5xd70y3oi" width="300%" x="-1" y="-1"><feGaussianBlur result="blurOut" stdDeviation="2.0"/><feColorMatrix in="blurOut" result="blurOut2" type="matrix" values="0 0 0 0 0 0 0 0 0 0 0 0 0 0 0 0 0 0 .4 0"/><feOffset dx="4.0" dy="4.0" in="blurOut2" result="blurOut3"/><feBlend in="SourceGraphic" in2="blurOut3" mode="normal"/></filter></defs><g><a target="_top" xlink:actuate="onRequest" xlink:href="../index.svg" xlink:show="new" xlink:title="../index.svg" xlink:type="simple"><text fill="#0000FF" font-family="sans-serif" font-size="10" lengthAdjust="spacingAndGlyphs" text-decoration="underline" textLength="39" x="10" y="20.3809">⌂ Home</text><line style="stroke: #0000FF; stroke-width: 1.0;" x1="10" x2="49" y1="22.3809" y2="22.3809"/></a><rect fill="#EEE8AA" height="32.6406" rx="10" ry="10" style="stroke: #000080; stroke-width: 1.5;" width="117" x="122" y="24.5781"/><text fill="#000080" font-family="sans-serif" font-size="18" lengthAdjust="spacingAndGlyphs" textLength="101" x="130" y="48.2637">Credit Cards</text><ellipse cx="109.25" cy="70.2188" fill="#000080" filter="url(#folj5xd70y3oi)" rx="10" ry="10" style="stroke: none; stroke-width: 1.0;"/><rect fill="#000000" filter="url(#folj5xd70y3oi)" height="6" rx="2.5" ry="2.5" style="stroke: #000000; stroke-width: 1.0;" width="179" x="19.75" y="144.2188"/><rect fill="#FFFFF0" filter="url(#folj5xd70y3oi)" height="35.0938" rx="12.5" ry="12.5" style="stroke: #6495ED; stroke-width: 1.5;" width="55" x="33.75" y="170.2188"/><text fill="#A9A9A9" font-family="sans-serif" font-size="12" lengthAdjust="spacingAndGlyphs" textLength="35" x="43.75" y="192.6758">spend</text><polygon fill="#FFFFF0" filter="url(#folj5xd70y3oi)" points="116.75,170.2188,184.75,170.2188,194.75,187.7656,184.75,205.3125,116.75,205.3125" style="stroke: #6495ED; stroke-width: 1.5;"/><text fill="#A9A9A9" font-family="sans-serif" font-size="12" lengthAdjust="spacingAndGlyphs" textLength="48" x="126.75" y="192.6758">due date</text><rect fill="#000000" filter="url(#folj5xd70y3oi)" height="6" rx="2.5" ry="2.5" style="stroke: #000000; stroke-width: 1.0;" width="179" x="19.75" y="225.3125"/><path d="M167.25,255.6836 L167.25,264.8594 L147.25,268.8594 L167.25,272.8594 L167.25,282.0352 A0,0 0 0 0 167.25,282.0352 L299.25,282.0352 A0,0 0 0 0 299.25,282.0352 L299.25,265.6836 L289.25,255.6836 L167.25,255.6836 A0,0 0 0 0 167.25,255.6836 " fill="#B0C4DE" filter="url(#folj5xd70y3oi)" style="stroke: #6495ED; stroke-width: 1.0;"/><path d="M289.25,255.6836 L289.25,265.6836 L299.25,265.6836 L289.25,255.6836 " fill="#B0C4DE" style="stroke: #6495ED; stroke-width: 1.0;"/><text fill="#FFFFFF" font-family="sans-serif" font-size="13" lengthAdjust="spacingAndGlyphs" textLength="111" x="173.25" y="274.1787">cash back program</text><rect fill="#FFFFF0" filter="url(#folj5xd70y3oi)" height="35.0938" rx="12.5" ry="12.5" style="stroke: #6495ED; stroke-width: 1.5;" width="76" x="71.25" y="251.3125"/><text fill="#A9A9A9" font-family="sans-serif" font-size="12" lengthAdjust="spacingAndGlyphs" textLength="56" x="81.25" y="273.7695">cash back</text><rect fill="#FFFFF0" filter="url(#folj5xd70y3oi)" height="35.0938" rx="12.5" ry="12.5" style="stroke: #6495ED; stroke-width: 1.5;" width="71" x="73.75" y="306.4063"/><text fill="#A9A9A9" font-family="sans-serif" font-size="12" lengthAdjust="spacingAndGlyphs" textLength="51" x="83.75" y="328.8633">pay in full</text><polygon fill="#FFFFF0" filter="url(#folj5xd70y3oi)" points="109.25,100.2188,121.25,112.2188,109.25,124.2188,97.25,112.2188,109.25,100.2188" style="stroke: #6495ED; stroke-width: 1.5;"/><polygon fill="#FFFFF0" filter="url(#folj5xd70y3oi)" points="109.25,361.5,109.25,361.5,121.25,373.5,109.25,385.5,109.25,385.5,97.25,373.5,109.25,361.5" style="stroke: #6495ED; stroke-width: 1.5;"/><ellipse cx="109.25" cy="416.4189" fill="#FFFFFF" filter="url(#folj5xd70y3oi)" rx="10" ry="10" style="stroke: #FF0000; stroke-width: 1.5;"/><line style="stroke: #FF0000; stroke-width: 2.5;" x1="103.0628" x2="115.4372" y1="410.2318" y2="422.6061"/><line style="stroke: #FF0000; stroke-width: 2.5;" x1="115.4372" x2="103.0628" y1="410.2318" y2="422.6061"/><line style="stroke: #696969; stroke-width: 1.5;" x1="61.25" x2="61.25" y1="150.2188" y2="170.2188"/><polygon fill="#696969" points="57.25,160.2188,61.25,170.2188,65.25,160.2188,61.25,164.2188" style="stroke: #696969; stroke-width: 1.0;"/><line style="stroke: #696969; stroke-width: 1.5;" x1="150.75" x2="150.75" y1="150.2188" y2="170.2188"/><polygon fill="#696969" points="146.75,160.2188,150.75,170.2188,154.75,160.2188,150.75,164.2188" style="stroke: #696969; stroke-width: 1.0;"/><line style="stroke: #696969; stroke-width: 1.5;" x1="61.25" x2="61.25" y1="205.3125" y2="225.3125"/><polygon fill="#696969" points="57.25,215.3125,61.25,225.3125,65.25,215.3125,61.25,219.3125" style="stroke: #696969; stroke-width: 1.0;"/><line style="stroke: #696969; stroke-width: 1.5;" x1="150.75" x2="150.75" y1="205.3125" y2="225.3125"/><polygon fill="#696969" points="146.75,215.3125,150.75,225.3125,154.75,215.3125,150.75,219.3125" style="stroke: #696969; stroke-width: 1.0;"/><line style="stroke: #696969; stroke-width: 1.5;" x1="109.25" x2="109.25" y1="231.3125" y2="251.3125"/><polygon fill="#696969" points="105.25,241.3125,109.25,251.3125,113.25,241.3125,109.25,245.3125" style="stroke: #696969; stroke-width: 1.0;"/><line style="stroke: #696969; stroke-width: 1.5;" x1="109.25" x2="109.25" y1="286.4063" y2="306.4063"/><polygon fill="#696969" points="105.25,296.4063,109.25,306.4063,113.25,296.4063,109.25,300.4063" style="stroke: #696969; stroke-width: 1.0;"/><line style="stroke: #696969; stroke-width: 1.5;" x1="109.25" x2="109.25" y1="124.2188" y2="144.2188"/><polygon fill="#696969" points="105.25,134.2188,109.25,144.2188,113.25,134.2188,109.25,138.2188" style="stroke: #696969; stroke-width: 1.0;"/><line style="stroke: #696969; stroke-width: 1.5;" x1="121.25" x2="311.25" y1="373.5" y2="373.5"/><polygon fill="#696969" points="307.25,252.8594,311.25,242.8594,315.25,252.8594,311.25,248.8594" style="stroke: #696969; stroke-width: 1.5;"/><line style="stroke: #696969; stroke-width: 1.5;" x1="311.25" x2="311.25" y1="112.2188" y2="373.5"/><line style="stroke: #696969; stroke-width: 1.5;" x1="311.25" x2="121.25" y1="112.2188" y2="112.2188"/><polygon fill="#696969" points="131.25,108.2188,121.25,112.2188,131.25,116.2188,127.25,112.2188" style="stroke: #696969; stroke-width: 1.0;"/><text fill="#696969" font-family="sans-serif" font-size="11" lengthAdjust="spacingAndGlyphs" textLength="22" x="315.25" y="371.083">build</text><text fill="#696969" font-family="sans-serif" font-size="11" lengthAdjust="spacingAndGlyphs" textLength="27" x="315.25" y="384.9189">credit</text><line style="stroke: #696969; stroke-width: 1.5;" x1="109.25" x2="109.25" y1="341.5" y2="361.5"/><polygon fill="#696969" points="105.25,351.5,109.25,361.5,113.25,351.5,109.25,355.5" style="stroke: #696969; stroke-width: 1.0;"/><line style="stroke: #696969; stroke-width: 1.5;" x1="109.25" x2="109.25" y1="80.2188" y2="100.2188"/><polygon fill="#696969" points="105.25,90.2188,109.25,100.2188,113.25,90.2188,109.25,94.2188" style="stroke: #696969; stroke-width: 1.0;"/><line style="stroke: #696969; stroke-width: 1.5;" x1="109.25" x2="109.25" y1="385.5" y2="406.4189"/><polygon fill="#696969" points="105.25,396.4189,109.25,406.4189,113.25,396.4189,109.25,400.4189" style="stroke: #696969; stroke-width: 1.0;"/><text fill="#000080" font-family="sans-serif" font-size="10" lengthAdjust="spacingAndGlyphs" textLength="31" x="10" y="435.7998">©2019</text><a target="_top" xlink:actuate="onRequest" xlink:href="http://www.lifestylesunlimited.com" xlink:show="new" xlink:title="http://www.lifestylesunlimited.com" xlink:type="simple"><text fill="#0000FF" font-family="sans-serif" font-size="10" lengthAdjust="spacingAndGlyphs" text-decoration="underline" textLength="95" x="44" y="435.7998">LifeStyles Unlimited</text><line style="stroke: #0000FF; stroke-width: 1.0;" x1="44" x2="139" y1="437.7998" y2="437.7998"/></a><text fill="#000080" font-family="sans-serif" font-size="10" lengthAdjust="spacingAndGlyphs" textLength="210" x="142" y="435.7998">| Generated Mon Apr 15 12:34:21 CDT 2019</text><!--
@startuml credit-cards


skinparam {
  BorderColor Red
  PathHoverColor Blue
}

skinparam Title {
  FontColor Navy
  BackgroundColor PaleGoldenRod
  BorderColor Navy
  BorderRoundCorner 20
}

skinparam activity {
  BackgroundColor Ivory
  BorderColor CornflowerBlue
  FontColor DarkGray

  Arrow {
    Color dimgray
    FontColor dimgray
  }

  Start {
    Color Navy
  }

  End {
    Color Red
  }

  Diamond {
    BackgroundColor Ivory
    BorderColor CornflowerBlue
    FontColor DarkGray
  }

  BackgroundColor<< Exception >> Red
	BorderColor<< Exception >> White
}

skinparam Swimlane {
  BorderColor CornflowerBlue 
}

skinparam Partition {
  BackgroundColor DarkSeaGreen
  BorderColor CornflowerBlue
  BorderThickness 1
  FontColor White
  FontSize 16
}
skinparam Note {
  BackgroundColor LightSteelBlue
  BorderColor CornflowerBlue
  FontColor White
}

skinparam Footer {
  FontColor Navy
}


left header 
	<font color=Navy>[[../index.svg ⌂ Home]]</font>
endheader


	Title Credit Cards

	start

	repeat
		fork
			:spend;
		fork again
			:due date>
		end fork
		:cash back;
		note right: cash back program
		:pay in full;

	repeat while () -> build\ncredit

	end

left footer 
	©2019 [[http://www.lifestylesunlimited.com LifeStyles Unlimited]] | Generated Mon Apr 15 12:34:21 CDT 2019
endfooter


@enduml

PlantUML version 1.2019.03(Sun Mar 10 06:04:44 CDT 2019)
(GPL source distribution)
Java Runtime: Java(TM) SE Runtime Environment
JVM: Java HotSpot(TM) 64-Bit Server VM
Java Version: 1.8.0_201-b09
Operating System: Windows 10
OS Version: 10.0
Default Encoding: Cp1252
Language: en
Country: US
--></g></svg>