<?xml version="1.0" encoding="UTF-8" standalone="no"?><svg xmlns="http://www.w3.org/2000/svg" xmlns:xlink="http://www.w3.org/1999/xlink" contentScriptType="application/ecmascript" contentStyleType="text/css" height="449px" preserveAspectRatio="none" style="width:359px;height:449px;" version="1.1" viewBox="0 0 359 449" width="359px" zoomAndPan="magnify"><defs><style type="text/css"><![CDATA[path:hover { stroke: #0000FF !important;}]]></style><filter height="300%" id="f1lwetvx5yltb7" width="300%" x="-1" y="-1"><feGaussianBlur result="blurOut" stdDeviation="2.0"/><feColorMatrix in="blurOut" result="blurOut2" type="matrix" values="0 0 0 0 0 0 0 0 0 0 0 0 0 0 0 0 0 0 .4 0"/><feOffset dx="4.0" dy="4.0" in="blurOut2" result="blurOut3"/><feBlend in="SourceGraphic" in2="blurOut3" mode="normal"/></filter></defs><g><a target="_top" xlink:actuate="onRequest" xlink:href="../index.svg" xlink:show="new" xlink:title="../index.svg" xlink:type="simple"><text fill="#0000FF" font-family="sans-serif" font-size="10" lengthAdjust="spacingAndGlyphs" text-decoration="underline" textLength="39" x="10" y="20.3809">⌂ Home</text><line style="stroke: #0000FF; stroke-width: 1.0;" x1="10" x2="49" y1="22.3809" y2="22.3809"/></a><rect fill="#EEE8AA" height="32.6406" rx="10" ry="10" style="stroke: #000080; stroke-width: 1.5;" width="117" x="119.5" y="24.5781"/><text fill="#000080" font-family="sans-serif" font-size="18" lengthAdjust="spacingAndGlyphs" textLength="101" x="127.5" y="48.2637">Credit Cards</text><ellipse cx="106.75" cy="70.2188" fill="#CCFFCC" filter="url(#f1lwetvx5yltb7)" rx="10" ry="10" style="stroke: none; stroke-width: 1.0;"/><rect fill="#000000" filter="url(#f1lwetvx5yltb7)" height="6" rx="2.5" ry="2.5" style="stroke: #000000; stroke-width: 1.0;" width="179" x="17.25" y="144.2188"/><rect fill="#FFFFF0" filter="url(#f1lwetvx5yltb7)" height="35.0938" rx="12.5" ry="12.5" style="stroke: #6495ED; stroke-width: 1.5;" width="55" x="31.25" y="170.2188"/><text fill="#696969" font-family="sans-serif" font-size="12" lengthAdjust="spacingAndGlyphs" textLength="35" x="41.25" y="192.6758">spend</text><polygon fill="#FFFFF0" filter="url(#f1lwetvx5yltb7)" points="114.25,170.2188,182.25,170.2188,192.25,187.7656,182.25,205.3125,114.25,205.3125" style="stroke: #6495ED; stroke-width: 1.5;"/><text fill="#696969" font-family="sans-serif" font-size="12" lengthAdjust="spacingAndGlyphs" textLength="48" x="124.25" y="192.6758">due date</text><rect fill="#000000" filter="url(#f1lwetvx5yltb7)" height="6" rx="2.5" ry="2.5" style="stroke: #000000; stroke-width: 1.0;" width="179" x="17.25" y="225.3125"/><path d="M164.75,255.6836 L164.75,264.8594 L144.75,268.8594 L164.75,272.8594 L164.75,282.0352 A0,0 0 0 0 164.75,282.0352 L296.75,282.0352 A0,0 0 0 0 296.75,282.0352 L296.75,265.6836 L286.75,255.6836 L164.75,255.6836 A0,0 0 0 0 164.75,255.6836 " fill="#B0C4DE" filter="url(#f1lwetvx5yltb7)" style="stroke: #6495ED; stroke-width: 1.0;"/><path d="M286.75,255.6836 L286.75,265.6836 L296.75,265.6836 L286.75,255.6836 " fill="#B0C4DE" style="stroke: #6495ED; stroke-width: 1.0;"/><text fill="#FFFFFF" font-family="sans-serif" font-size="13" lengthAdjust="spacingAndGlyphs" textLength="111" x="170.75" y="274.1787">cash back program</text><rect fill="#FFFFF0" filter="url(#f1lwetvx5yltb7)" height="35.0938" rx="12.5" ry="12.5" style="stroke: #6495ED; stroke-width: 1.5;" width="76" x="68.75" y="251.3125"/><text fill="#696969" font-family="sans-serif" font-size="12" lengthAdjust="spacingAndGlyphs" textLength="56" x="78.75" y="273.7695">cash back</text><rect fill="#FFFFF0" filter="url(#f1lwetvx5yltb7)" height="35.0938" rx="12.5" ry="12.5" style="stroke: #6495ED; stroke-width: 1.5;" width="71" x="71.25" y="306.4063"/><text fill="#696969" font-family="sans-serif" font-size="12" lengthAdjust="spacingAndGlyphs" textLength="51" x="81.25" y="328.8633">pay in full</text><polygon fill="#FFFFF0" filter="url(#f1lwetvx5yltb7)" points="106.75,100.2188,118.75,112.2188,106.75,124.2188,94.75,112.2188,106.75,100.2188" style="stroke: #6495ED; stroke-width: 1.5;"/><polygon fill="#FFFFF0" filter="url(#f1lwetvx5yltb7)" points="106.75,361.5,106.75,361.5,118.75,373.5,106.75,385.5,106.75,385.5,94.75,373.5,106.75,361.5" style="stroke: #6495ED; stroke-width: 1.5;"/><ellipse cx="106.75" cy="416.4189" fill="#FFFFFF" filter="url(#f1lwetvx5yltb7)" rx="10" ry="10" style="stroke: #FF7F50; stroke-width: 1.5;"/><line style="stroke: #FF7F50; stroke-width: 2.5;" x1="100.5628" x2="112.9372" y1="410.2318" y2="422.6061"/><line style="stroke: #FF7F50; stroke-width: 2.5;" x1="112.9372" x2="100.5628" y1="410.2318" y2="422.6061"/><line style="stroke: #696969; stroke-width: 1.5;" x1="58.75" x2="58.75" y1="150.2188" y2="170.2188"/><polygon fill="#696969" points="54.75,160.2188,58.75,170.2188,62.75,160.2188,58.75,164.2188" style="stroke: #696969; stroke-width: 1.0;"/><line style="stroke: #696969; stroke-width: 1.5;" x1="148.25" x2="148.25" y1="150.2188" y2="170.2188"/><polygon fill="#696969" points="144.25,160.2188,148.25,170.2188,152.25,160.2188,148.25,164.2188" style="stroke: #696969; stroke-width: 1.0;"/><line style="stroke: #696969; stroke-width: 1.5;" x1="58.75" x2="58.75" y1="205.3125" y2="225.3125"/><polygon fill="#696969" points="54.75,215.3125,58.75,225.3125,62.75,215.3125,58.75,219.3125" style="stroke: #696969; stroke-width: 1.0;"/><line style="stroke: #696969; stroke-width: 1.5;" x1="148.25" x2="148.25" y1="205.3125" y2="225.3125"/><polygon fill="#696969" points="144.25,215.3125,148.25,225.3125,152.25,215.3125,148.25,219.3125" style="stroke: #696969; stroke-width: 1.0;"/><line style="stroke: #696969; stroke-width: 1.5;" x1="106.75" x2="106.75" y1="231.3125" y2="251.3125"/><polygon fill="#696969" points="102.75,241.3125,106.75,251.3125,110.75,241.3125,106.75,245.3125" style="stroke: #696969; stroke-width: 1.0;"/><line style="stroke: #696969; stroke-width: 1.5;" x1="106.75" x2="106.75" y1="286.4063" y2="306.4063"/><polygon fill="#696969" points="102.75,296.4063,106.75,306.4063,110.75,296.4063,106.75,300.4063" style="stroke: #696969; stroke-width: 1.0;"/><line style="stroke: #696969; stroke-width: 1.5;" x1="106.75" x2="106.75" y1="124.2188" y2="144.2188"/><polygon fill="#696969" points="102.75,134.2188,106.75,144.2188,110.75,134.2188,106.75,138.2188" style="stroke: #696969; stroke-width: 1.0;"/><line style="stroke: #696969; stroke-width: 1.5;" x1="118.75" x2="308.75" y1="373.5" y2="373.5"/><polygon fill="#696969" points="304.75,252.8594,308.75,242.8594,312.75,252.8594,308.75,248.8594" style="stroke: #696969; stroke-width: 1.5;"/><line style="stroke: #696969; stroke-width: 1.5;" x1="308.75" x2="308.75" y1="112.2188" y2="373.5"/><line style="stroke: #696969; stroke-width: 1.5;" x1="308.75" x2="118.75" y1="112.2188" y2="112.2188"/><polygon fill="#696969" points="128.75,108.2188,118.75,112.2188,128.75,116.2188,124.75,112.2188" style="stroke: #696969; stroke-width: 1.0;"/><text fill="#696969" font-family="sans-serif" font-size="11" lengthAdjust="spacingAndGlyphs" textLength="22" x="312.75" y="371.083">build</text><text fill="#696969" font-family="sans-serif" font-size="11" lengthAdjust="spacingAndGlyphs" textLength="27" x="312.75" y="384.9189">credit</text><line style="stroke: #696969; stroke-width: 1.5;" x1="106.75" x2="106.75" y1="341.5" y2="361.5"/><polygon fill="#696969" points="102.75,351.5,106.75,361.5,110.75,351.5,106.75,355.5" style="stroke: #696969; stroke-width: 1.0;"/><line style="stroke: #696969; stroke-width: 1.5;" x1="106.75" x2="106.75" y1="80.2188" y2="100.2188"/><polygon fill="#696969" points="102.75,90.2188,106.75,100.2188,110.75,90.2188,106.75,94.2188" style="stroke: #696969; stroke-width: 1.0;"/><line style="stroke: #696969; stroke-width: 1.5;" x1="106.75" x2="106.75" y1="385.5" y2="406.4189"/><polygon fill="#696969" points="102.75,396.4189,106.75,406.4189,110.75,396.4189,106.75,400.4189" style="stroke: #696969; stroke-width: 1.0;"/><text fill="#000080" font-family="sans-serif" font-size="10" lengthAdjust="spacingAndGlyphs" textLength="31" x="10" y="435.7998">©2019</text><a target="_top" xlink:actuate="onRequest" xlink:href="http://www.lifestylesunlimited.com" xlink:show="new" xlink:title="http://www.lifestylesunlimited.com" xlink:type="simple"><text fill="#0000FF" font-family="sans-serif" font-size="10" lengthAdjust="spacingAndGlyphs" text-decoration="underline" textLength="95" x="44" y="435.7998">LifeStyles Unlimited</text><line style="stroke: #0000FF; stroke-width: 1.0;" x1="44" x2="139" y1="437.7998" y2="437.7998"/></a><text fill="#000080" font-family="sans-serif" font-size="10" lengthAdjust="spacingAndGlyphs" textLength="205" x="142" y="435.7998">| Generated Sat Apr 20 19:28:27 CDT 2019</text><!--
@startuml credit-cards


skinparam {
  BorderColor Red
  PathHoverColor Blue
}

skinparam Title {
  FontColor Navy
  BackgroundColor PaleGoldenRod
  BorderColor Navy
  BorderRoundCorner 20
}

skinparam activity {
  BackgroundColor Ivory
  BorderColor CornflowerBlue
  FontColor DimGray
  

  Arrow {
    Color dimgray
    FontColor dimgray
  }

  Start {
    Color PHYSICAL
  }

  End {
    Color Coral
  }

  Diamond {
    BackgroundColor Ivory
    BorderColor CornflowerBlue
    FontColor DarkGray
  }

  BackgroundColor<< Exception >> Red
	BorderColor<< Exception >> White
}

skinparam Swimlane {
  BorderColor CornflowerBlue 
}

skinparam Partition {
  BackgroundColor Ivory
  BorderColor CornflowerBlue
  BorderThickness 1
  FontColor CornflowerBlue
  FontSize 16
  BorderRoundCorner 20
}

skinparam Note {
  BackgroundColor LightSteelBlue
  BorderColor CornflowerBlue
  FontColor White
}

skinparam Legend {
  BackgroundColor LightSteelBlue
  BorderColor CornflowerBlue
  FontColor White
}

skinparam Footer {
  FontColor Navy
}


left header 
	<font color=Navy>[[../index.svg ⌂ Home]]</font>
endheader


	Title Credit Cards

	start

	repeat
		fork
			:spend;
		fork again
			:due date>
		end fork
		:cash back;
		note right: cash back program
		:pay in full;

	repeat while () -> build\ncredit

	end


left footer 
	©2019 [[http://www.lifestylesunlimited.com LifeStyles Unlimited]] | Generated Sat Apr 20 19:28:27 CDT 2019
endfooter


@enduml

PlantUML version 1.2019.03(Sun Mar 10 06:04:44 CDT 2019)
(GPL source distribution)
Java Runtime: Java(TM) SE Runtime Environment
JVM: Java HotSpot(TM) 64-Bit Server VM
Java Version: 1.8.0_111-b14
Operating System: Windows 10
OS Version: 10.0
Default Encoding: Cp1252
Language: en
Country: US
--></g></svg>