<?xml version="1.0" encoding="UTF-8" standalone="no"?><svg xmlns="http://www.w3.org/2000/svg" xmlns:xlink="http://www.w3.org/1999/xlink" contentScriptType="application/ecmascript" contentStyleType="text/css" height="463px" preserveAspectRatio="none" style="width:475px;height:463px;" version="1.1" viewBox="0 0 475 463" width="475px" zoomAndPan="magnify"><defs><style type="text/css"><![CDATA[path:hover { stroke: #0000FF !important;}]]></style><filter height="300%" id="f202i35hivws" width="300%" x="-1" y="-1"><feGaussianBlur result="blurOut" stdDeviation="2.0"/><feColorMatrix in="blurOut" result="blurOut2" type="matrix" values="0 0 0 0 0 0 0 0 0 0 0 0 0 0 0 0 0 0 .4 0"/><feOffset dx="4.0" dy="4.0" in="blurOut2" result="blurOut3"/><feBlend in="SourceGraphic" in2="blurOut3" mode="normal"/></filter></defs><g><a target="_top" xlink:actuate="onRequest" xlink:href="../index.svg" xlink:show="new" xlink:title="../index.svg" xlink:type="simple"><text fill="#0000FF" font-family="sans-serif" font-size="18" lengthAdjust="spacingAndGlyphs" text-decoration="underline" textLength="67" x="10" y="28.6855">⌂ Home</text><line style="stroke: #0000FF; stroke-width: 1.0;" x1="10" x2="77" y1="30.6855" y2="30.6855"/></a><rect fill="#EEE8AA" height="32.6406" rx="10" ry="10" style="stroke: #000080; stroke-width: 1.5;" width="117" x="177.5" y="34.6406"/><text fill="#000080" font-family="sans-serif" font-size="18" lengthAdjust="spacingAndGlyphs" textLength="101" x="185.5" y="58.3262">Credit Cards</text><ellipse cx="164.75" cy="80.2813" fill="#CCFFCC" filter="url(#f202i35hivws)" rx="10" ry="10" style="stroke: none; stroke-width: 1.0;"/><rect fill="#000000" filter="url(#f202i35hivws)" height="6" rx="2.5" ry="2.5" style="stroke: #000000; stroke-width: 1.0;" width="179" x="75.25" y="154.2813"/><rect fill="#FFFFF0" filter="url(#f202i35hivws)" height="35.0938" rx="12.5" ry="12.5" style="stroke: #6495ED; stroke-width: 1.5;" width="55" x="89.25" y="180.2813"/><text fill="#696969" font-family="sans-serif" font-size="12" lengthAdjust="spacingAndGlyphs" textLength="35" x="99.25" y="202.7383">spend</text><polygon fill="#FFFFF0" filter="url(#f202i35hivws)" points="172.25,180.2813,240.25,180.2813,250.25,197.8281,240.25,215.375,172.25,215.375" style="stroke: #6495ED; stroke-width: 1.5;"/><text fill="#696969" font-family="sans-serif" font-size="12" lengthAdjust="spacingAndGlyphs" textLength="48" x="182.25" y="202.7383">due date</text><rect fill="#000000" filter="url(#f202i35hivws)" height="6" rx="2.5" ry="2.5" style="stroke: #000000; stroke-width: 1.0;" width="179" x="75.25" y="235.375"/><path d="M222.75,265.7461 L222.75,274.9219 L202.75,278.9219 L222.75,282.9219 L222.75,292.0977 A0,0 0 0 0 222.75,292.0977 L354.75,292.0977 A0,0 0 0 0 354.75,292.0977 L354.75,275.7461 L344.75,265.7461 L222.75,265.7461 A0,0 0 0 0 222.75,265.7461 " fill="#B0C4DE" filter="url(#f202i35hivws)" style="stroke: #6495ED; stroke-width: 1.0;"/><path d="M344.75,265.7461 L344.75,275.7461 L354.75,275.7461 L344.75,265.7461 " fill="#B0C4DE" style="stroke: #6495ED; stroke-width: 1.0;"/><text fill="#FFFFFF" font-family="sans-serif" font-size="13" lengthAdjust="spacingAndGlyphs" textLength="111" x="228.75" y="284.2412">cash back program</text><rect fill="#FFFFF0" filter="url(#f202i35hivws)" height="35.0938" rx="12.5" ry="12.5" style="stroke: #6495ED; stroke-width: 1.5;" width="76" x="126.75" y="261.375"/><text fill="#696969" font-family="sans-serif" font-size="12" lengthAdjust="spacingAndGlyphs" textLength="56" x="136.75" y="283.832">cash back</text><rect fill="#FFFFF0" filter="url(#f202i35hivws)" height="35.0938" rx="12.5" ry="12.5" style="stroke: #6495ED; stroke-width: 1.5;" width="71" x="129.25" y="316.4688"/><text fill="#696969" font-family="sans-serif" font-size="12" lengthAdjust="spacingAndGlyphs" textLength="51" x="139.25" y="338.9258">pay in full</text><polygon fill="#FFFFF0" filter="url(#f202i35hivws)" points="164.75,110.2813,176.75,122.2813,164.75,134.2813,152.75,122.2813,164.75,110.2813" style="stroke: #6495ED; stroke-width: 1.5;"/><polygon fill="#FFFFF0" filter="url(#f202i35hivws)" points="164.75,371.5625,164.75,371.5625,176.75,383.5625,164.75,395.5625,164.75,395.5625,152.75,383.5625,164.75,371.5625" style="stroke: #6495ED; stroke-width: 1.5;"/><ellipse cx="164.75" cy="426.4814" fill="#FFFFFF" filter="url(#f202i35hivws)" rx="10" ry="10" style="stroke: #FF7F50; stroke-width: 1.5;"/><line style="stroke: #FF7F50; stroke-width: 2.5;" x1="158.5628" x2="170.9372" y1="420.2943" y2="432.6686"/><line style="stroke: #FF7F50; stroke-width: 2.5;" x1="170.9372" x2="158.5628" y1="420.2943" y2="432.6686"/><line style="stroke: #696969; stroke-width: 1.5;" x1="116.75" x2="116.75" y1="160.2813" y2="180.2813"/><polygon fill="#696969" points="112.75,170.2813,116.75,180.2813,120.75,170.2813,116.75,174.2813" style="stroke: #696969; stroke-width: 1.0;"/><line style="stroke: #696969; stroke-width: 1.5;" x1="206.25" x2="206.25" y1="160.2813" y2="180.2813"/><polygon fill="#696969" points="202.25,170.2813,206.25,180.2813,210.25,170.2813,206.25,174.2813" style="stroke: #696969; stroke-width: 1.0;"/><line style="stroke: #696969; stroke-width: 1.5;" x1="116.75" x2="116.75" y1="215.375" y2="235.375"/><polygon fill="#696969" points="112.75,225.375,116.75,235.375,120.75,225.375,116.75,229.375" style="stroke: #696969; stroke-width: 1.0;"/><line style="stroke: #696969; stroke-width: 1.5;" x1="206.25" x2="206.25" y1="215.375" y2="235.375"/><polygon fill="#696969" points="202.25,225.375,206.25,235.375,210.25,225.375,206.25,229.375" style="stroke: #696969; stroke-width: 1.0;"/><line style="stroke: #696969; stroke-width: 1.5;" x1="164.75" x2="164.75" y1="241.375" y2="261.375"/><polygon fill="#696969" points="160.75,251.375,164.75,261.375,168.75,251.375,164.75,255.375" style="stroke: #696969; stroke-width: 1.0;"/><line style="stroke: #696969; stroke-width: 1.5;" x1="164.75" x2="164.75" y1="296.4688" y2="316.4688"/><polygon fill="#696969" points="160.75,306.4688,164.75,316.4688,168.75,306.4688,164.75,310.4688" style="stroke: #696969; stroke-width: 1.0;"/><line style="stroke: #696969; stroke-width: 1.5;" x1="164.75" x2="164.75" y1="134.2813" y2="154.2813"/><polygon fill="#696969" points="160.75,144.2813,164.75,154.2813,168.75,144.2813,164.75,148.2813" style="stroke: #696969; stroke-width: 1.0;"/><line style="stroke: #696969; stroke-width: 1.5;" x1="176.75" x2="366.75" y1="383.5625" y2="383.5625"/><polygon fill="#696969" points="362.75,262.9219,366.75,252.9219,370.75,262.9219,366.75,258.9219" style="stroke: #696969; stroke-width: 1.5;"/><line style="stroke: #696969; stroke-width: 1.5;" x1="366.75" x2="366.75" y1="122.2813" y2="383.5625"/><line style="stroke: #696969; stroke-width: 1.5;" x1="366.75" x2="176.75" y1="122.2813" y2="122.2813"/><polygon fill="#696969" points="186.75,118.2813,176.75,122.2813,186.75,126.2813,182.75,122.2813" style="stroke: #696969; stroke-width: 1.0;"/><text fill="#696969" font-family="sans-serif" font-size="11" lengthAdjust="spacingAndGlyphs" textLength="22" x="370.75" y="381.1455">build</text><text fill="#696969" font-family="sans-serif" font-size="11" lengthAdjust="spacingAndGlyphs" textLength="27" x="370.75" y="394.9814">credit</text><line style="stroke: #696969; stroke-width: 1.5;" x1="164.75" x2="164.75" y1="351.5625" y2="371.5625"/><polygon fill="#696969" points="160.75,361.5625,164.75,371.5625,168.75,361.5625,164.75,365.5625" style="stroke: #696969; stroke-width: 1.0;"/><line style="stroke: #696969; stroke-width: 1.5;" x1="164.75" x2="164.75" y1="90.2813" y2="110.2813"/><polygon fill="#696969" points="160.75,100.2813,164.75,110.2813,168.75,100.2813,164.75,104.2813" style="stroke: #696969; stroke-width: 1.0;"/><line style="stroke: #696969; stroke-width: 1.5;" x1="164.75" x2="164.75" y1="395.5625" y2="416.4814"/><polygon fill="#696969" points="160.75,406.4814,164.75,416.4814,168.75,406.4814,164.75,410.4814" style="stroke: #696969; stroke-width: 1.0;"/><text fill="#000080" font-family="sans-serif" font-size="14" lengthAdjust="spacingAndGlyphs" textLength="42" x="10" y="450.0146">©2019</text><a target="_top" xlink:actuate="onRequest" xlink:href="http://www.lifestylesunlimited.com" xlink:show="new" xlink:title="http://www.lifestylesunlimited.com" xlink:type="simple"><text fill="#0000FF" font-family="sans-serif" font-size="14" lengthAdjust="spacingAndGlyphs" text-decoration="underline" textLength="122" x="56" y="450.0146">LifeStyles Unlimited</text><line style="stroke: #0000FF; stroke-width: 1.0;" x1="56" x2="178" y1="452.0146" y2="452.0146"/></a><text fill="#000080" font-family="sans-serif" font-size="14" lengthAdjust="spacingAndGlyphs" textLength="281" x="182" y="450.0146">| Generated Mon Apr 22 08:26:05 CDT 2019</text><!--
@startuml credit-cards


skinparam {
  BorderColor Red
  PathHoverColor Blue
}

skinparam Title {
  FontColor Navy
  BackgroundColor PaleGoldenRod
  BorderColor Navy
  BorderRoundCorner 20
}

skinparam activity {
  BackgroundColor Ivory
  BorderColor CornflowerBlue
  FontColor DimGray
  

  Arrow {
    Color dimgray
    FontColor dimgray
  }

  Start {
    Color PHYSICAL
  }

  End {
    Color Coral
  }

  Diamond {
    BackgroundColor Ivory
    BorderColor CornflowerBlue
    FontColor DarkGray
  }

  BackgroundColor<< Exception >> Red
	BorderColor<< Exception >> White
}

skinparam Swimlane {
  BorderColor CornflowerBlue 
}

skinparam Partition {
  BackgroundColor Ivory
  BorderColor CornflowerBlue
  BorderThickness 1
  FontColor CornflowerBlue
  FontSize 16
  BorderRoundCorner 20
}

skinparam Note {
  BackgroundColor LightSteelBlue
  BorderColor CornflowerBlue
  FontColor White
}

skinparam Legend {
  BackgroundColor LightSteelBlue
  BorderColor CornflowerBlue
  FontColor White
}

skinparam Footer {
  FontColor Navy
}


left header 
	<font color=Navy size=18>[[../index.svg ⌂ Home]]</font>
endheader


	Title Credit Cards

	start

	repeat
		fork
			:spend;
		fork again
			:due date>
		end fork
		:cash back;
		note right: cash back program
		:pay in full;

	repeat while () -> build\ncredit

	end


left footer 
	<font size=14>©2019 [[http://www.lifestylesunlimited.com LifeStyles Unlimited]] | Generated Mon Apr 22 08:26:05 CDT 2019</font>
endfooter


@enduml

PlantUML version 1.2019.03(Sun Mar 10 06:04:44 CDT 2019)
(GPL source distribution)
Java Runtime: Java(TM) SE Runtime Environment
JVM: Java HotSpot(TM) 64-Bit Server VM
Java Version: 1.8.0_111-b14
Operating System: Windows 10
OS Version: 10.0
Default Encoding: Cp1252
Language: en
Country: US
--></g></svg>