<?xml version="1.0" encoding="UTF-8" standalone="no"?><svg xmlns="http://www.w3.org/2000/svg" xmlns:xlink="http://www.w3.org/1999/xlink" contentScriptType="application/ecmascript" contentStyleType="text/css" height="646px" preserveAspectRatio="none" style="width:1379px;height:646px;" version="1.1" viewBox="0 0 1379 646" width="1379px" zoomAndPan="magnify"><defs><style type="text/css"><![CDATA[path:hover { stroke: #0000FF !important;}]]></style><filter height="300%" id="f16m6bi952xvdk" width="300%" x="-1" y="-1"><feGaussianBlur result="blurOut" stdDeviation="2.0"/><feColorMatrix in="blurOut" result="blurOut2" type="matrix" values="0 0 0 0 0 0 0 0 0 0 0 0 0 0 0 0 0 0 .4 0"/><feOffset dx="4.0" dy="4.0" in="blurOut2" result="blurOut3"/><feBlend in="SourceGraphic" in2="blurOut3" mode="normal"/></filter></defs><g><a href="../index.svg?sanitize=true" target="_top" xlink:actuate="onRequest" xlink:show="new" xlink:title="../index.svg?sanitize=true" xlink:type="simple"><text fill="#0000FF" font-family="sans-serif" font-size="24" lengthAdjust="spacingAndGlyphs" text-decoration="underline" textLength="90" x="10" y="34.9141">⌂ Home</text></a><rect fill="#EEE8AA" height="70.375" rx="10" ry="10" style="stroke: #000080; stroke-width: 1.5;" width="315" x="530.5" y="42.1875"/><text fill="#000080" font-family="sans-serif" font-size="24" lengthAdjust="spacingAndGlyphs" textLength="299" x="538.5" y="72.1016">Financial Freedom Program</text><text fill="#000080" font-family="sans-serif" font-size="24" lengthAdjust="spacingAndGlyphs" textLength="62" x="657" y="102.2891">(FFP)</text><ellipse cx="674.5" cy="125.5625" fill="#CCFFCC" filter="url(#f16m6bi952xvdk)" rx="10" ry="10" style="stroke: none; stroke-width: 1.0;"/><rect fill="#CCFFCC" filter="url(#f16m6bi952xvdk)" height="35.0938" style="stroke: #6495ED; stroke-width: 1.0;" width="54" x="647.5" y="155.5625"/><path d="M661.5,169.6563 L661.5,170.6563 L660.75,170.6563 C660.064,170.6563 659.5,171.2203 659.5,171.9063 L659.5,172.4063 C659.5,173.0843 659.937,173.6483 660.594,173.8123 L663.157,174.4683 C663.3,174.5043 663.501,174.7643 663.501,174.9063 L663.501,175.4063 C663.501,175.5403 663.385,175.6563 663.251,175.6563 L660.751,175.6563 C660.635,175.6563 660.539,175.6193 660.501,175.5933 L660.501,174.6553 L659.501,174.6553 L659.501,175.6553 C659.501,175.9973 659.704,176.2823 659.939,176.4363 C660.173,176.5913 660.457,176.6553 660.752,176.6553 L661.502,176.6553 L661.502,177.6553 L662.502,177.6553 L662.502,176.6553 L663.252,176.6553 C663.938,176.6553 664.502,176.0913 664.502,175.4053 L664.502,174.9053 C664.502,174.2273 664.065,173.6633 663.408,173.4993 L660.845,172.8433 C660.702,172.8073 660.501,172.5473 660.501,172.4053 L660.501,171.9053 C660.501,171.7713 660.617,171.6553 660.751,171.6553 L663.251,171.6553 C663.367,171.6553 663.463,171.6923 663.501,171.7183 L663.501,172.6563 L664.501,172.6563 L664.501,171.6563 C664.501,171.3143 664.298,171.0293 664.063,170.8753 C663.829,170.7203 663.545,170.6563 663.25,170.6563 L662.5,170.6563 L662.5,169.6563 L661.5,169.6563 " fill="#696969" style="stroke: ; stroke-width: 0.0; stroke-dasharray: ;"/><text fill="#696969" font-family="sans-serif" font-size="12" lengthAdjust="spacingAndGlyphs" textLength="21" x="670.5" y="178.0195">500</text><rect fill="#FFFFF0" filter="url(#f16m6bi952xvdk)" height="35.0938" rx="12.5" ry="12.5" style="stroke: #6495ED; stroke-width: 1.0;" width="51" x="649" y="276.4912"/><text fill="#696969" font-family="sans-serif" font-size="12" lengthAdjust="spacingAndGlyphs" textLength="31" x="659" y="298.9482">active</text><rect fill="#000000" filter="url(#f16m6bi952xvdk)" height="6" rx="2.5" ry="2.5" style="stroke: #000000; stroke-width: 1.0;" width="1331" x="10" y="331.585"/><rect fill="#FFFFF0" filter="url(#f16m6bi952xvdk)" height="50.1875" rx="12.5" ry="12.5" style="stroke: #6495ED; stroke-width: 1.0;" width="171" x="22" y="372.6787"/><text fill="#696969" font-family="sans-serif" font-size="12" lengthAdjust="spacingAndGlyphs" textLength="30" x="32" y="395.1357">2-day</text><text fill="#696969" font-family="sans-serif" font-size="12" lengthAdjust="spacingAndGlyphs" textLength="151" x="32" y="410.2295">financial freedom seminars</text><a href="https://www.lifestyleshub.com" target="_top" xlink:actuate="onRequest" xlink:show="new" xlink:title="https://www.lifestyleshub.com" xlink:type="simple"><rect fill="#87CEFA" filter="url(#f16m6bi952xvdk)" height="75.2813" rx="12.5" ry="12.5" style="stroke: #6495ED; stroke-width: 1.0;" width="105" x="203" y="360.1318"/><path d="M218,374.2256 C215.79,374.2256 214,376.0156 214,378.2256 C214,380.4356 215.79,382.2256 218,382.2256 C220.21,382.2256 222,380.4356 222,378.2256 C222,376.0156 220.21,374.2256 218,374.2256 M218,375.2256 C218.333,375.2256 218.637,375.3116 218.938,375.4136 C218.724,375.6106 218.488,375.7966 218.532,375.9766 C218.572,376.1566 219.22,376.1066 219.22,376.4766 C219.22,376.7466 218.795,376.8226 219.095,377.1326 C219.445,377.4826 218.459,378.1106 218.439,378.5706 C218.409,379.4006 219.28,379.5396 219.97,379.5396 C220.394,379.5396 220.473,379.7346 220.439,379.9776 C219.893,380.7356 219.001,381.2276 218.001,381.2276 C217.623,381.2276 217.272,381.1376 216.938,381.0086 C217.162,380.5666 216.625,379.6646 216.157,379.3836 C215.931,379.1576 215.468,379.2696 215.188,379.1646 C215.096,378.8936 215.01,378.6196 215,378.3206 C215.031,378.2706 215.081,378.2266 215.156,378.2266 C215.346,378.2266 215.61,378.6006 215.75,378.5706 C215.93,378.5306 215.008,377.2576 215.437,377.0076 C215.637,376.8876 216.046,377.4016 215.906,376.8516 C215.786,376.3416 216.272,376.5756 216.562,376.4456 C216.822,376.3356 217.017,376.0316 216.687,375.8516 L216.468,375.6636 C216.918,375.3936 217.44,375.2256 217.999,375.2256 M220.312,376.3196 C220.496,376.5416 220.635,376.8006 220.75,377.0696 L220.562,377.2886 C220.272,377.5586 220.235,377.0766 220.124,376.9756 C219.994,376.8656 219.486,377.0006 219.436,376.8506 C219.359,376.6696 219.935,376.4326 220.311,376.3196 " fill="#696969" style="stroke: ; stroke-width: 0.0; stroke-dasharray: ;"/><text fill="#696969" font-family="sans-serif" font-size="12" lengthAdjust="spacingAndGlyphs" textLength="72" x="226" y="382.5889">lifestyles hub</text><line style="stroke: #6495ED; stroke-width: 1.0;" x1="203" x2="308" y1="390.2256" y2="390.2256"/><text fill="#696969" font-family="sans-serif" font-size="12" lengthAdjust="spacingAndGlyphs" textLength="48" x="213" y="407.6826">calendar</text><text fill="#696969" font-family="sans-serif" font-size="12" lengthAdjust="spacingAndGlyphs" textLength="62" x="213" y="422.7764">documents</text></a><a href="https://ffp-lifestylesunlimited.bridgeapp.com" target="_top" xlink:actuate="onRequest" xlink:show="new" xlink:title="https://ffp-lifestylesunlimited.bridgeapp.com" xlink:type="simple"><rect fill="#87CEFA" filter="url(#f16m6bi952xvdk)" height="75.2813" rx="12.5" ry="12.5" style="stroke: #6495ED; stroke-width: 1.0;" width="82" x="318" y="360.1318"/><path d="M333,374.2256 C330.79,374.2256 329,376.0156 329,378.2256 C329,380.4356 330.79,382.2256 333,382.2256 C335.21,382.2256 337,380.4356 337,378.2256 C337,376.0156 335.21,374.2256 333,374.2256 M333,375.2256 C333.333,375.2256 333.637,375.3116 333.938,375.4136 C333.724,375.6106 333.488,375.7966 333.532,375.9766 C333.572,376.1566 334.22,376.1066 334.22,376.4766 C334.22,376.7466 333.795,376.8226 334.095,377.1326 C334.445,377.4826 333.459,378.1106 333.439,378.5706 C333.409,379.4006 334.28,379.5396 334.97,379.5396 C335.394,379.5396 335.473,379.7346 335.439,379.9776 C334.893,380.7356 334.001,381.2276 333.001,381.2276 C332.623,381.2276 332.272,381.1376 331.938,381.0086 C332.162,380.5666 331.625,379.6646 331.157,379.3836 C330.931,379.1576 330.468,379.2696 330.188,379.1646 C330.096,378.8936 330.01,378.6196 330,378.3206 C330.031,378.2706 330.081,378.2266 330.156,378.2266 C330.346,378.2266 330.61,378.6006 330.75,378.5706 C330.93,378.5306 330.008,377.2576 330.437,377.0076 C330.637,376.8876 331.046,377.4016 330.906,376.8516 C330.786,376.3416 331.272,376.5756 331.562,376.4456 C331.822,376.3356 332.017,376.0316 331.687,375.8516 L331.468,375.6636 C331.918,375.3936 332.44,375.2256 332.999,375.2256 M335.312,376.3196 C335.496,376.5416 335.635,376.8006 335.75,377.0696 L335.562,377.2886 C335.272,377.5586 335.235,377.0766 335.124,376.9756 C334.994,376.8656 334.486,377.0006 334.436,376.8506 C334.359,376.6696 334.935,376.4326 335.311,376.3196 " fill="#696969" style="stroke: ; stroke-width: 0.0; stroke-dasharray: ;"/><text fill="#696969" font-family="sans-serif" font-size="12" lengthAdjust="spacingAndGlyphs" textLength="35" x="341" y="382.5889">bridge</text><line style="stroke: #6495ED; stroke-width: 1.0;" x1="318" x2="400" y1="390.2256" y2="390.2256"/><text fill="#696969" font-family="sans-serif" font-size="12" lengthAdjust="spacingAndGlyphs" textLength="48" x="328" y="407.6826">calendar</text><text fill="#696969" font-family="sans-serif" font-size="12" lengthAdjust="spacingAndGlyphs" textLength="62" x="328" y="422.7764">documents</text></a><a href="http://www.lifestylesunlimited.com/category/radio_shows" target="_top" xlink:actuate="onRequest" xlink:show="new" xlink:title="http://www.lifestylesunlimited.com/category/radio_shows" xlink:type="simple"><rect fill="#87CEFA" filter="url(#f16m6bi952xvdk)" height="35.0938" rx="12.5" ry="12.5" style="stroke: #6495ED; stroke-width: 1.0;" width="101" x="410" y="380.2256"/><path d="M425,394.3193 C422.79,394.3193 421,396.1093 421,398.3193 C421,400.5293 422.79,402.3193 425,402.3193 C427.21,402.3193 429,400.5293 429,398.3193 C429,396.1093 427.21,394.3193 425,394.3193 M425,395.3193 C425.333,395.3193 425.637,395.4053 425.938,395.5073 C425.724,395.7043 425.488,395.8903 425.532,396.0703 C425.572,396.2503 426.22,396.2003 426.22,396.5703 C426.22,396.8403 425.795,396.9163 426.095,397.2263 C426.445,397.5763 425.459,398.2043 425.439,398.6643 C425.409,399.4943 426.28,399.6333 426.97,399.6333 C427.394,399.6333 427.473,399.8283 427.439,400.0713 C426.893,400.8293 426.001,401.3213 425.001,401.3213 C424.623,401.3213 424.272,401.2313 423.938,401.1023 C424.162,400.6603 423.625,399.7583 423.157,399.4773 C422.931,399.2513 422.468,399.3633 422.188,399.2583 C422.096,398.9873 422.01,398.7133 422,398.4143 C422.031,398.3643 422.081,398.3203 422.156,398.3203 C422.346,398.3203 422.61,398.6943 422.75,398.6643 C422.93,398.6243 422.008,397.3513 422.437,397.1013 C422.637,396.9813 423.046,397.4953 422.906,396.9453 C422.786,396.4353 423.272,396.6693 423.562,396.5393 C423.822,396.4293 424.017,396.1253 423.687,395.9453 L423.468,395.7573 C423.918,395.4873 424.44,395.3193 424.999,395.3193 M427.312,396.4133 C427.496,396.6353 427.635,396.8943 427.75,397.1633 L427.562,397.3823 C427.272,397.6523 427.235,397.1703 427.124,397.0693 C426.994,396.9593 426.486,397.0943 426.436,396.9443 C426.359,396.7633 426.935,396.5263 427.311,396.4133 " fill="#696969" style="stroke: ; stroke-width: 0.0; stroke-dasharray: ;"/><text fill="#696969" font-family="sans-serif" font-size="12" lengthAdjust="spacingAndGlyphs" textLength="68" x="433" y="402.6826">radio shows</text></a><rect fill="#FFFFF0" filter="url(#f16m6bi952xvdk)" height="35.0938" rx="12.5" ry="12.5" style="stroke: #6495ED; stroke-width: 1.0;" width="99" x="521" y="380.2256"/><text fill="#696969" font-family="sans-serif" font-size="12" lengthAdjust="spacingAndGlyphs" textLength="79" x="531" y="402.6826">special events</text><rect fill="#FFFFF0" filter="url(#f16m6bi952xvdk)" height="35.0938" rx="12.5" ry="12.5" style="stroke: #6495ED; stroke-width: 1.0;" width="91" x="630" y="380.2256"/><text fill="#696969" font-family="sans-serif" font-size="12" lengthAdjust="spacingAndGlyphs" textLength="71" x="640" y="402.6826">case studies</text><a href="http://wealthandpassiveincomeexpo.com" target="_top" xlink:actuate="onRequest" xlink:show="new" xlink:title="http://wealthandpassiveincomeexpo.com" xlink:type="simple"><rect fill="#87CEFA" filter="url(#f16m6bi952xvdk)" height="80.375" rx="12.5" ry="12.5" style="stroke: #6495ED; stroke-width: 1.0;" width="160" x="731" y="357.585"/><path d="M746,371.6787 C743.79,371.6787 742,373.4687 742,375.6787 C742,377.8887 743.79,379.6787 746,379.6787 C748.21,379.6787 750,377.8887 750,375.6787 C750,373.4687 748.21,371.6787 746,371.6787 M746,372.6787 C746.333,372.6787 746.637,372.7647 746.938,372.8667 C746.724,373.0637 746.488,373.2497 746.532,373.4297 C746.572,373.6097 747.22,373.5597 747.22,373.9297 C747.22,374.1997 746.795,374.2757 747.095,374.5857 C747.445,374.9357 746.459,375.5637 746.439,376.0237 C746.409,376.8537 747.28,376.9927 747.97,376.9927 C748.394,376.9927 748.473,377.1877 748.439,377.4307 C747.893,378.1887 747.001,378.6807 746.001,378.6807 C745.623,378.6807 745.272,378.5907 744.938,378.4617 C745.162,378.0197 744.625,377.1177 744.157,376.8367 C743.931,376.6107 743.468,376.7227 743.188,376.6177 C743.096,376.3467 743.01,376.0727 743,375.7737 C743.031,375.7237 743.081,375.6797 743.156,375.6797 C743.346,375.6797 743.61,376.0537 743.75,376.0237 C743.93,375.9837 743.008,374.7107 743.437,374.4607 C743.637,374.3407 744.046,374.8547 743.906,374.3047 C743.786,373.7947 744.272,374.0287 744.562,373.8987 C744.822,373.7887 745.017,373.4847 744.687,373.3047 L744.468,373.1167 C744.918,372.8467 745.44,372.6787 745.999,372.6787 M748.312,373.7727 C748.496,373.9947 748.635,374.2537 748.75,374.5227 L748.562,374.7417 C748.272,375.0117 748.235,374.5297 748.124,374.4287 C747.994,374.3187 747.486,374.4537 747.436,374.3037 C747.359,374.1227 747.935,373.8857 748.311,373.7727 " fill="#696969" style="stroke: ; stroke-width: 0.0; stroke-dasharray: ;"/><text fill="#696969" font-family="sans-serif" font-size="12" lengthAdjust="spacingAndGlyphs" textLength="38" x="754" y="380.042">annual</text><text fill="#696969" font-family="sans-serif" font-size="12" lengthAdjust="spacingAndGlyphs" textLength="106" x="741" y="395.1357">wealth and passive</text><text fill="#696969" font-family="sans-serif" font-size="12" lengthAdjust="spacingAndGlyphs" textLength="70" x="741" y="410.2295">income expo</text><text fill="#696969" font-family="sans-serif" font-size="12" lengthAdjust="spacingAndGlyphs" textLength="140" x="741" y="425.3232">promo code EXPOEVENT</text></a><rect fill="#FFFFF0" filter="url(#f16m6bi952xvdk)" height="75.2813" rx="12.5" ry="12.5" style="stroke: #6495ED; stroke-width: 1.0;" width="116" x="901" y="360.1318"/><text fill="#696969" font-family="sans-serif" font-size="12" lengthAdjust="spacingAndGlyphs" textLength="96" x="911" y="382.5889">member services</text><line style="stroke: #6495ED; stroke-width: 1.0;" x1="901" x2="1017" y1="390.2256" y2="390.2256"/><path d="M916,399.3193 C913.797,399.3193 912,401.1163 912,403.3193 C912,405.5223 913.797,407.3193 916,407.3193 C918.203,407.3193 920,405.5223 920,403.3193 C920,401.1163 918.203,399.3193 916,399.3193 M916,400.3193 C917.663,400.3193 919,401.6563 919,403.3193 C919,404.9823 917.663,406.3193 916,406.3193 C914.337,406.3193 913,404.9823 913,403.3193 C913,401.6563 914.337,400.3193 916,400.3193 M915.5,401.3193 L915.5,403.5383 L915.656,403.6633 L916.156,404.1633 L916.5,404.5383 L917.219,403.8193 L916.844,403.4753 L916.5,403.1313 L916.5,401.3183 L915.5,401.3183 " fill="#696969" style="stroke: ; stroke-width: 0.0; stroke-dasharray: ;"/><text fill="#696969" font-family="sans-serif" font-size="12" font-style="italic" lengthAdjust="spacingAndGlyphs" textLength="41" x="924" y="407.6826">M-F 9-5</text><path d="M913.188,414.4131 C913.078,414.4131 913,414.4901 913,414.6011 L913,422.2261 C913,422.3361 913.077,422.4141 913.188,422.4141 L917.813,422.4141 C917.923,422.4141 918.001,422.3371 918.001,422.2261 L918.001,414.6011 C918.001,414.4911 917.924,414.4131 917.813,414.4131 L913.188,414.4131 M914.001,415.4131 L917.001,415.4131 L917.001,420.4131 L914.001,420.4131 L914.001,415.4131 M915.501,420.9131 C915.781,420.9131 916.001,421.1331 916.001,421.4131 C916.001,421.6931 915.781,421.9131 915.501,421.9131 C915.221,421.9131 915.001,421.6931 915.001,421.4131 C915.001,421.1331 915.221,420.9131 915.501,420.9131 " fill="#696969" style="stroke: ; stroke-width: 0.0; stroke-dasharray: ;"/><text fill="#696969" font-family="sans-serif" font-size="12" font-style="italic" lengthAdjust="spacingAndGlyphs" textLength="74" x="924" y="422.7764">972-8270208</text><a href="https://luincvendor.com" target="_top" xlink:actuate="onRequest" xlink:show="new" xlink:title="https://luincvendor.com" xlink:type="simple"><rect fill="#87CEFA" filter="url(#f16m6bi952xvdk)" height="35.0938" rx="12.5" ry="12.5" style="stroke: #6495ED; stroke-width: 1.0;" width="120" x="1027" y="380.2256"/><path d="M1042,394.3193 C1039.79,394.3193 1038,396.1093 1038,398.3193 C1038,400.5293 1039.79,402.3193 1042,402.3193 C1044.21,402.3193 1046,400.5293 1046,398.3193 C1046,396.1093 1044.21,394.3193 1042,394.3193 M1042,395.3193 C1042.333,395.3193 1042.637,395.4053 1042.938,395.5073 C1042.724,395.7043 1042.488,395.8903 1042.532,396.0703 C1042.572,396.2503 1043.22,396.2003 1043.22,396.5703 C1043.22,396.8403 1042.795,396.9163 1043.095,397.2263 C1043.445,397.5763 1042.459,398.2043 1042.439,398.6643 C1042.409,399.4943 1043.28,399.6333 1043.97,399.6333 C1044.394,399.6333 1044.473,399.8283 1044.439,400.0713 C1043.893,400.8293 1043.001,401.3213 1042.001,401.3213 C1041.623,401.3213 1041.272,401.2313 1040.938,401.1023 C1041.162,400.6603 1040.625,399.7583 1040.157,399.4773 C1039.931,399.2513 1039.468,399.3633 1039.188,399.2583 C1039.096,398.9873 1039.01,398.7133 1039,398.4143 C1039.031,398.3643 1039.081,398.3203 1039.156,398.3203 C1039.346,398.3203 1039.61,398.6943 1039.75,398.6643 C1039.93,398.6243 1039.008,397.3513 1039.437,397.1013 C1039.637,396.9813 1040.046,397.4953 1039.906,396.9453 C1039.786,396.4353 1040.272,396.6693 1040.562,396.5393 C1040.822,396.4293 1041.017,396.1253 1040.687,395.9453 L1040.468,395.7573 C1040.918,395.4873 1041.44,395.3193 1041.999,395.3193 M1044.312,396.4133 C1044.496,396.6353 1044.635,396.8943 1044.75,397.1633 L1044.562,397.3823 C1044.272,397.6523 1044.235,397.1703 1044.124,397.0693 C1043.994,396.9593 1043.486,397.0943 1043.436,396.9443 C1043.359,396.7633 1043.935,396.5263 1044.311,396.4133 " fill="#696969" style="stroke: ; stroke-width: 0.0; stroke-dasharray: ;"/><text fill="#696969" font-family="sans-serif" font-size="12" lengthAdjust="spacingAndGlyphs" textLength="87" x="1050" y="402.6826">vendor program</text></a><rect fill="#CCFFCC" filter="url(#f16m6bi952xvdk)" height="35.0938" style="stroke: #6495ED; stroke-width: 1.0;" width="94" x="1157" y="380.2256"/><path d="M1171,394.3193 L1171,395.3193 L1170.25,395.3193 C1169.564,395.3193 1169,395.8833 1169,396.5693 L1169,397.0693 C1169,397.7473 1169.437,398.3113 1170.094,398.4753 L1172.657,399.1313 C1172.8,399.1673 1173.001,399.4273 1173.001,399.5693 L1173.001,400.0693 C1173.001,400.2033 1172.885,400.3193 1172.751,400.3193 L1170.251,400.3193 C1170.135,400.3193 1170.039,400.2823 1170.001,400.2563 L1170.001,399.3183 L1169.001,399.3183 L1169.001,400.3183 C1169.001,400.6603 1169.204,400.9453 1169.439,401.0993 C1169.673,401.2543 1169.957,401.3183 1170.252,401.3183 L1171.002,401.3183 L1171.002,402.3183 L1172.002,402.3183 L1172.002,401.3183 L1172.752,401.3183 C1173.438,401.3183 1174.002,400.7543 1174.002,400.0683 L1174.002,399.5683 C1174.002,398.8903 1173.565,398.3263 1172.908,398.1623 L1170.345,397.5063 C1170.202,397.4703 1170.001,397.2103 1170.001,397.0683 L1170.001,396.5683 C1170.001,396.4343 1170.117,396.3183 1170.251,396.3183 L1172.751,396.3183 C1172.867,396.3183 1172.963,396.3553 1173.001,396.3813 L1173.001,397.3193 L1174.001,397.3193 L1174.001,396.3193 C1174.001,395.9773 1173.798,395.6923 1173.563,395.5383 C1173.329,395.3833 1173.045,395.3193 1172.75,395.3193 L1172,395.3193 L1172,394.3193 L1171,394.3193 " fill="#696969" style="stroke: ; stroke-width: 0.0; stroke-dasharray: ;"/><text fill="#696969" font-family="sans-serif" font-size="12" lengthAdjust="spacingAndGlyphs" textLength="61" x="1180" y="402.6826">tax write-off</text><polygon fill="#FFFFF0" filter="url(#f16m6bi952xvdk)" points="1261,380.2256,1327,380.2256,1337,397.7725,1327,415.3193,1261,415.3193" style="stroke: #6495ED; stroke-width: 1.0;"/><path d="M1276,394.3193 C1273.797,394.3193 1272,396.1163 1272,398.3193 C1272,400.5223 1273.797,402.3193 1276,402.3193 C1278.203,402.3193 1280,400.5223 1280,398.3193 C1280,396.1163 1278.203,394.3193 1276,394.3193 M1276,395.3193 C1277.663,395.3193 1279,396.6563 1279,398.3193 C1279,399.9823 1277.663,401.3193 1276,401.3193 C1274.337,401.3193 1273,399.9823 1273,398.3193 C1273,396.6563 1274.337,395.3193 1276,395.3193 M1275.5,396.3193 L1275.5,398.5383 L1275.656,398.6633 L1276.156,399.1633 L1276.5,399.5383 L1277.219,398.8193 L1276.844,398.4753 L1276.5,398.1313 L1276.5,396.3183 L1275.5,396.3183 " fill="#696969" style="stroke: ; stroke-width: 0.0; stroke-dasharray: ;"/><text fill="#696969" font-family="sans-serif" font-size="12" lengthAdjust="spacingAndGlyphs" textLength="33" x="1284" y="402.6826">1 year</text><rect fill="#000000" filter="url(#f16m6bi952xvdk)" height="6" rx="2.5" ry="2.5" style="stroke: #000000; stroke-width: 1.0;" width="1331" x="10" y="457.96"/><rect fill="#FFFFF0" filter="url(#f16m6bi952xvdk)" height="35.0938" rx="12.5" ry="12.5" style="stroke: #6495ED; stroke-width: 1.0;" width="61" x="644" y="483.96"/><text fill="#696969" font-family="sans-serif" font-size="12" lengthAdjust="spacingAndGlyphs" textLength="41" x="654" y="506.417">inactive</text><rect fill="#CCFFCC" filter="url(#f16m6bi952xvdk)" height="35.0938" style="stroke: #6495ED; stroke-width: 1.0;" width="54" x="647.5" y="539.0537"/><path d="M661.5,553.1475 L661.5,554.1475 L660.75,554.1475 C660.064,554.1475 659.5,554.7115 659.5,555.3975 L659.5,555.8975 C659.5,556.5755 659.937,557.1395 660.594,557.3035 L663.157,557.9595 C663.3,557.9955 663.501,558.2555 663.501,558.3975 L663.501,558.8975 C663.501,559.0315 663.385,559.1475 663.251,559.1475 L660.751,559.1475 C660.635,559.1475 660.539,559.1105 660.501,559.0845 L660.501,558.1465 L659.501,558.1465 L659.501,559.1465 C659.501,559.4885 659.704,559.7735 659.939,559.9275 C660.173,560.0825 660.457,560.1465 660.752,560.1465 L661.502,560.1465 L661.502,561.1465 L662.502,561.1465 L662.502,560.1465 L663.252,560.1465 C663.938,560.1465 664.502,559.5825 664.502,558.8965 L664.502,558.3965 C664.502,557.7185 664.065,557.1545 663.408,556.9905 L660.845,556.3345 C660.702,556.2985 660.501,556.0385 660.501,555.8965 L660.501,555.3965 C660.501,555.2625 660.617,555.1465 660.751,555.1465 L663.251,555.1465 C663.367,555.1465 663.463,555.1835 663.501,555.2095 L663.501,556.1475 L664.501,556.1475 L664.501,555.1475 C664.501,554.8055 664.298,554.5205 664.063,554.3665 C663.829,554.2115 663.545,554.1475 663.25,554.1475 L662.5,554.1475 L662.5,553.1475 L661.5,553.1475 " fill="#696969" style="stroke: ; stroke-width: 0.0; stroke-dasharray: ;"/><text fill="#696969" font-family="sans-serif" font-size="12" lengthAdjust="spacingAndGlyphs" textLength="21" x="670.5" y="561.5107">200</text><polygon fill="#FFFFF0" filter="url(#f16m6bi952xvdk)" points="674.5,210.6563,686.5,222.6563,674.5,234.6563,662.5,222.6563,674.5,210.6563" style="stroke: #6495ED; stroke-width: 1.0;"/><polygon fill="#FFFFF0" filter="url(#f16m6bi952xvdk)" points="674.5,594.1475,674.5,594.1475,686.5,606.1475,674.5,618.1475,674.5,618.1475,662.5,606.1475,674.5,594.1475" style="stroke: #6495ED; stroke-width: 1.0;"/><line style="stroke: #696969; stroke-width: 1.5;" x1="674.5" x2="674.5" y1="135.5625" y2="155.5625"/><polygon fill="#696969" points="670.5,145.5625,674.5,155.5625,678.5,145.5625,674.5,149.5625" style="stroke: #696969; stroke-width: 1.0;"/><line style="stroke: #696969; stroke-width: 1.5;" x1="107.5" x2="107.5" y1="337.585" y2="372.6787"/><polygon fill="#696969" points="103.5,362.6787,107.5,372.6787,111.5,362.6787,107.5,366.6787" style="stroke: #696969; stroke-width: 1.0;"/><line style="stroke: #696969; stroke-width: 1.5;" x1="255.5" x2="255.5" y1="337.585" y2="360.1318"/><polygon fill="#696969" points="251.5,350.1318,255.5,360.1318,259.5,350.1318,255.5,354.1318" style="stroke: #696969; stroke-width: 1.0;"/><line style="stroke: #696969; stroke-width: 1.5;" x1="359" x2="359" y1="337.585" y2="360.1318"/><polygon fill="#696969" points="355,350.1318,359,360.1318,363,350.1318,359,354.1318" style="stroke: #696969; stroke-width: 1.0;"/><line style="stroke: #696969; stroke-width: 1.5;" x1="460.5" x2="460.5" y1="337.585" y2="380.2256"/><polygon fill="#696969" points="456.5,370.2256,460.5,380.2256,464.5,370.2256,460.5,374.2256" style="stroke: #696969; stroke-width: 1.0;"/><line style="stroke: #696969; stroke-width: 1.5;" x1="570.5" x2="570.5" y1="337.585" y2="380.2256"/><polygon fill="#696969" points="566.5,370.2256,570.5,380.2256,574.5,370.2256,570.5,374.2256" style="stroke: #696969; stroke-width: 1.0;"/><line style="stroke: #696969; stroke-width: 1.5;" x1="675.5" x2="675.5" y1="337.585" y2="380.2256"/><polygon fill="#696969" points="671.5,370.2256,675.5,380.2256,679.5,370.2256,675.5,374.2256" style="stroke: #696969; stroke-width: 1.0;"/><line style="stroke: #696969; stroke-width: 1.5;" x1="811" x2="811" y1="337.585" y2="357.585"/><polygon fill="#696969" points="807,347.585,811,357.585,815,347.585,811,351.585" style="stroke: #696969; stroke-width: 1.0;"/><line style="stroke: #696969; stroke-width: 1.5;" x1="959" x2="959" y1="337.585" y2="360.1318"/><polygon fill="#696969" points="955,350.1318,959,360.1318,963,350.1318,959,354.1318" style="stroke: #696969; stroke-width: 1.0;"/><line style="stroke: #696969; stroke-width: 1.5;" x1="1087" x2="1087" y1="337.585" y2="380.2256"/><polygon fill="#696969" points="1083,370.2256,1087,380.2256,1091,370.2256,1087,374.2256" style="stroke: #696969; stroke-width: 1.0;"/><line style="stroke: #696969; stroke-width: 1.5;" x1="1204" x2="1204" y1="337.585" y2="380.2256"/><polygon fill="#696969" points="1200,370.2256,1204,380.2256,1208,370.2256,1204,374.2256" style="stroke: #696969; stroke-width: 1.0;"/><line style="stroke: #696969; stroke-width: 1.5;" x1="1294" x2="1294" y1="337.585" y2="380.2256"/><polygon fill="#696969" points="1290,370.2256,1294,380.2256,1298,370.2256,1294,374.2256" style="stroke: #696969; stroke-width: 1.0;"/><line style="stroke: #696969; stroke-width: 1.5;" x1="107.5" x2="107.5" y1="422.8662" y2="457.96"/><polygon fill="#696969" points="103.5,447.96,107.5,457.96,111.5,447.96,107.5,451.96" style="stroke: #696969; stroke-width: 1.0;"/><line style="stroke: #696969; stroke-width: 1.5;" x1="255.5" x2="255.5" y1="435.4131" y2="457.96"/><polygon fill="#696969" points="251.5,447.96,255.5,457.96,259.5,447.96,255.5,451.96" style="stroke: #696969; stroke-width: 1.0;"/><line style="stroke: #696969; stroke-width: 1.5;" x1="359" x2="359" y1="435.4131" y2="457.96"/><polygon fill="#696969" points="355,447.96,359,457.96,363,447.96,359,451.96" style="stroke: #696969; stroke-width: 1.0;"/><line style="stroke: #696969; stroke-width: 1.5;" x1="460.5" x2="460.5" y1="415.3193" y2="457.96"/><polygon fill="#696969" points="456.5,447.96,460.5,457.96,464.5,447.96,460.5,451.96" style="stroke: #696969; stroke-width: 1.0;"/><line style="stroke: #696969; stroke-width: 1.5;" x1="570.5" x2="570.5" y1="415.3193" y2="457.96"/><polygon fill="#696969" points="566.5,447.96,570.5,457.96,574.5,447.96,570.5,451.96" style="stroke: #696969; stroke-width: 1.0;"/><line style="stroke: #696969; stroke-width: 1.5;" x1="675.5" x2="675.5" y1="415.3193" y2="457.96"/><polygon fill="#696969" points="671.5,447.96,675.5,457.96,679.5,447.96,675.5,451.96" style="stroke: #696969; stroke-width: 1.0;"/><line style="stroke: #696969; stroke-width: 1.5;" x1="811" x2="811" y1="437.96" y2="457.96"/><polygon fill="#696969" points="807,447.96,811,457.96,815,447.96,811,451.96" style="stroke: #696969; stroke-width: 1.0;"/><line style="stroke: #696969; stroke-width: 1.5;" x1="959" x2="959" y1="435.4131" y2="457.96"/><polygon fill="#696969" points="955,447.96,959,457.96,963,447.96,959,451.96" style="stroke: #696969; stroke-width: 1.0;"/><line style="stroke: #696969; stroke-width: 1.5;" x1="1087" x2="1087" y1="415.3193" y2="457.96"/><polygon fill="#696969" points="1083,447.96,1087,457.96,1091,447.96,1087,451.96" style="stroke: #696969; stroke-width: 1.0;"/><line style="stroke: #696969; stroke-width: 1.5;" x1="1204" x2="1204" y1="415.3193" y2="457.96"/><polygon fill="#696969" points="1200,447.96,1204,457.96,1208,447.96,1204,451.96" style="stroke: #696969; stroke-width: 1.0;"/><line style="stroke: #696969; stroke-width: 1.5;" x1="1294" x2="1294" y1="415.3193" y2="457.96"/><polygon fill="#696969" points="1290,447.96,1294,457.96,1298,447.96,1294,451.96" style="stroke: #696969; stroke-width: 1.0;"/><line style="stroke: #696969; stroke-width: 1.5;" x1="674.5" x2="674.5" y1="311.585" y2="331.585"/><polygon fill="#696969" points="670.5,321.585,674.5,331.585,678.5,321.585,674.5,325.585" style="stroke: #696969; stroke-width: 1.0;"/><line style="stroke: #696969; stroke-width: 1.5;" x1="674.5" x2="674.5" y1="463.96" y2="483.96"/><polygon fill="#696969" points="670.5,473.96,674.5,483.96,678.5,473.96,674.5,477.96" style="stroke: #696969; stroke-width: 1.0;"/><line style="stroke: #696969; stroke-width: 1.5;" x1="674.5" x2="674.5" y1="519.0537" y2="539.0537"/><polygon fill="#696969" points="670.5,529.0537,674.5,539.0537,678.5,529.0537,674.5,533.0537" style="stroke: #696969; stroke-width: 1.0;"/><line style="stroke: #696969; stroke-width: 1.5;" x1="674.5" x2="674.5" y1="234.6563" y2="276.4912"/><polygon fill="#696969" points="670.5,266.4912,674.5,276.4912,678.5,266.4912,674.5,270.4912" style="stroke: #696969; stroke-width: 1.0;"/><text fill="#696969" font-family="sans-serif" font-size="11" lengthAdjust="spacingAndGlyphs" textLength="20" x="678.5" y="256.9922">paid</text><line style="stroke: #696969; stroke-width: 1.5;" x1="686.5" x2="1353" y1="606.1475" y2="606.1475"/><polygon fill="#696969" points="1349,442.8193,1353,432.8193,1357,442.8193,1353,438.8193" style="stroke: #696969; stroke-width: 1.5;"/><line style="stroke: #696969; stroke-width: 1.5;" x1="1353" x2="1353" y1="222.6563" y2="606.1475"/><line style="stroke: #696969; stroke-width: 1.5;" x1="1353" x2="686.5" y1="222.6563" y2="222.6563"/><polygon fill="#696969" points="696.5,218.6563,686.5,222.6563,696.5,226.6563,692.5,222.6563" style="stroke: #696969; stroke-width: 1.0;"/><line style="stroke: #696969; stroke-width: 1.5;" x1="674.5" x2="674.5" y1="574.1475" y2="594.1475"/><polygon fill="#696969" points="670.5,584.1475,674.5,594.1475,678.5,584.1475,674.5,588.1475" style="stroke: #696969; stroke-width: 1.0;"/><line style="stroke: #696969; stroke-width: 1.5;" x1="674.5" x2="674.5" y1="190.6563" y2="210.6563"/><polygon fill="#696969" points="670.5,200.6563,674.5,210.6563,678.5,200.6563,674.5,204.6563" style="stroke: #696969; stroke-width: 1.0;"/><text fill="#000080" font-family="sans-serif" font-size="14" lengthAdjust="spacingAndGlyphs" textLength="42" x="10" y="632.6807">©2019</text><a href="http://www.lifestylesunlimited.com" target="_top" xlink:actuate="onRequest" xlink:show="new" xlink:title="http://www.lifestylesunlimited.com" xlink:type="simple"><text fill="#0000FF" font-family="sans-serif" font-size="14" lengthAdjust="spacingAndGlyphs" text-decoration="underline" textLength="122" x="56" y="632.6807">LifeStyles Unlimited</text></a><text fill="#000080" font-family="sans-serif" font-size="14" lengthAdjust="spacingAndGlyphs" textLength="131" x="182" y="632.6807">| Generated %date%</text><!--
@startuml financial-freedom-program


skinparam {
  BorderColor Red
  PathHoverColor Blue
}

skinparam Title {
  FontColor Navy
  BackgroundColor PaleGoldenRod
  BorderColor Navy
  BorderRoundCorner 20
  FontSize 24
}

skinparam activity {
  BackgroundColor Ivory
  BorderColor CornflowerBlue
  BorderThickness 1
  FontColor DimGray
  

  Arrow {
    Color dimgray
    FontColor dimgray
  }

  Start {
    Color PHYSICAL
  }

  End {
    Color Coral
  }

  Diamond {
    BackgroundColor Ivory
    BorderColor CornflowerBlue
    FontColor DarkGray
  }

  BackgroundColor<< Exception >> Red
	BorderColor<< Exception >> White
}

skinparam Swimlane {
  BorderColor CornflowerBlue 
}

skinparam Partition {
  BackgroundColor Ivory
  BorderColor CornflowerBlue
  BorderThickness 1
  FontColor CornflowerBlue
  FontSize 16
  BorderRoundCorner 20
}

skinparam Note {
  BackgroundColor LightSteelBlue
  BorderColor CornflowerBlue
  FontColor White
}

skinparam Legend {
  BackgroundColor LightSteelBlue
  BorderColor CornflowerBlue
  FontColor White
}

skinparam Footer {
  FontColor Navy
}


left header 
	<font color=Navy size=24>[[../index.svg?sanitize=true ⌂ Home]]</font>
endheader


	Title Financial Freedom Program\n(FFP)

	start

	#PHYSICAL:<&dollar> 500]

	repeat
		->paid;
		:active;
		fork
			:2-day\nfinancial freedom seminars;
		fork again
			[[https://www.lifestyleshub.com]]#LightSkyBlue:<&globe> lifestyles hub\n- - - -\ncalendar\ndocuments;
		fork again
			[[https://ffp-lifestylesunlimited.bridgeapp.com]]#LightSkyBlue:<&globe> bridge\n- - - -\ncalendar\ndocuments;
		fork again
		[[http://www.lifestylesunlimited.com/category/radio_shows]]#LightSkyBlue:<&globe> radio shows;
		fork again
			:special events;
		fork again
			:case studies;
		fork again
			[[http://wealthandpassiveincomeexpo.com]]#LightSkyBlue:<&globe> annual\nwealth and passive\nincome expo\npromo code EXPOEVENT;
		fork again
			:member services
			- - - -
			<i><&clock> M-F 9-5
			<i><&phone> 972-8270208;
		fork again
			[[https://luincvendor.com]]#LightSkyBlue:<&globe> vendor program;
		fork again
			#PHYSICAL:<&dollar> tax write-off]
		fork again
			:<&clock> 1 year>
		end fork

		:inactive;

		#PHYSICAL:<&dollar> 200]
	repeat while ()
	


left footer 
	<font size=14>©2019 [[http://www.lifestylesunlimited.com LifeStyles Unlimited]] | Generated %date%</font>
endfooter


@enduml

PlantUML version 1.2019.06(Fri May 24 12:10:25 CDT 2019)
(GPL source distribution)
Java Runtime: Java(TM) SE Runtime Environment
JVM: Java HotSpot(TM) Client VM
Java Version: 1.8.0_211-b12
Operating System: Windows 10
OS Version: 10.0
Default Encoding: Cp1252
Language: en
Country: US
--></g></svg>