<?xml version="1.0" encoding="UTF-8" standalone="no"?><svg xmlns="http://www.w3.org/2000/svg" xmlns:xlink="http://www.w3.org/1999/xlink" contentScriptType="application/ecmascript" contentStyleType="text/css" height="646px" preserveAspectRatio="none" style="width:1561px;height:646px;" version="1.1" viewBox="0 0 1561 646" width="1561px" zoomAndPan="magnify"><defs><style type="text/css"><![CDATA[path:hover { stroke: #0000FF !important;}]]></style><filter height="300%" id="f1xzx3g2ozluxq" width="300%" x="-1" y="-1"><feGaussianBlur result="blurOut" stdDeviation="2.0"/><feColorMatrix in="blurOut" result="blurOut2" type="matrix" values="0 0 0 0 0 0 0 0 0 0 0 0 0 0 0 0 0 0 .4 0"/><feOffset dx="4.0" dy="4.0" in="blurOut2" result="blurOut3"/><feBlend in="SourceGraphic" in2="blurOut3" mode="normal"/></filter></defs><g><a target="_top" xlink:actuate="onRequest" xlink:href="../index.svg?sanitize=true" xlink:show="new" xlink:title="../index.svg?sanitize=true" xlink:type="simple"><text fill="#0000FF" font-family="sans-serif" font-size="24" lengthAdjust="spacingAndGlyphs" text-decoration="underline" textLength="90" x="10" y="34.9141">⌂ Home</text><line style="stroke: #0000FF; stroke-width: 1.0;" x1="10" x2="100" y1="36.9141" y2="36.9141"/></a><rect fill="#EEE8AA" height="70.375" rx="10" ry="10" style="stroke: #000080; stroke-width: 1.5;" width="315" x="621.5" y="42.1875"/><text fill="#000080" font-family="sans-serif" font-size="24" lengthAdjust="spacingAndGlyphs" textLength="299" x="629.5" y="72.1016">Financial Freedom Program</text><text fill="#000080" font-family="sans-serif" font-size="24" lengthAdjust="spacingAndGlyphs" textLength="62" x="748" y="102.2891">(FFP)</text><ellipse cx="766.5" cy="125.5625" fill="#CCFFCC" filter="url(#f1xzx3g2ozluxq)" rx="10" ry="10" style="stroke: none; stroke-width: 1.0;"/><rect fill="#CCFFCC" filter="url(#f1xzx3g2ozluxq)" height="35.0938" style="stroke: #6495ED; stroke-width: 1.0;" width="54" x="739.5" y="155.5625"/><path d="M753.5,169.6563 L753.5,170.6563 L752.75,170.6563 C752.064,170.6563 751.5,171.2203 751.5,171.9063 L751.5,172.4063 C751.5,173.0843 751.937,173.6483 752.594,173.8123 L755.157,174.4683 C755.3,174.5043 755.501,174.7643 755.501,174.9063 L755.501,175.4063 C755.501,175.5403 755.385,175.6563 755.251,175.6563 L752.751,175.6563 C752.635,175.6563 752.539,175.6193 752.501,175.5933 L752.501,174.6553 L751.501,174.6553 L751.501,175.6553 C751.501,175.9973 751.704,176.2823 751.939,176.4363 C752.173,176.5913 752.457,176.6553 752.752,176.6553 L753.502,176.6553 L753.502,177.6553 L754.502,177.6553 L754.502,176.6553 L755.252,176.6553 C755.938,176.6553 756.502,176.0913 756.502,175.4053 L756.502,174.9053 C756.502,174.2273 756.065,173.6633 755.408,173.4993 L752.845,172.8433 C752.702,172.8073 752.501,172.5473 752.501,172.4053 L752.501,171.9053 C752.501,171.7713 752.617,171.6553 752.751,171.6553 L755.251,171.6553 C755.367,171.6553 755.463,171.6923 755.501,171.7183 L755.501,172.6563 L756.501,172.6563 L756.501,171.6563 C756.501,171.3143 756.298,171.0293 756.063,170.8753 C755.829,170.7203 755.545,170.6563 755.25,170.6563 L754.5,170.6563 L754.5,169.6563 L753.5,169.6563 " fill="#696969" style="stroke: ; stroke-width: 0.0; stroke-dasharray: ;"/><text fill="#696969" font-family="sans-serif" font-size="12" lengthAdjust="spacingAndGlyphs" textLength="21" x="762.5" y="178.0195">500</text><rect fill="#FFFFF0" filter="url(#f1xzx3g2ozluxq)" height="35.0938" rx="12.5" ry="12.5" style="stroke: #6495ED; stroke-width: 1.0;" width="51" x="741" y="276.4912"/><text fill="#696969" font-family="sans-serif" font-size="12" lengthAdjust="spacingAndGlyphs" textLength="31" x="751" y="298.9482">active</text><rect fill="#000000" filter="url(#f1xzx3g2ozluxq)" height="6" rx="2.5" ry="2.5" style="stroke: #000000; stroke-width: 1.0;" width="1513" x="10" y="331.585"/><rect fill="#FFFFF0" filter="url(#f1xzx3g2ozluxq)" height="50.1875" rx="12.5" ry="12.5" style="stroke: #6495ED; stroke-width: 1.0;" width="171" x="24" y="372.6787"/><text fill="#696969" font-family="sans-serif" font-size="12" lengthAdjust="spacingAndGlyphs" textLength="30" x="34" y="395.1357">2-day</text><text fill="#696969" font-family="sans-serif" font-size="12" lengthAdjust="spacingAndGlyphs" textLength="151" x="34" y="410.2295">financial freedom seminars</text><a target="_top" xlink:actuate="onRequest" xlink:href="https://www.lifestyleshub.com" xlink:show="new" xlink:title="https://www.lifestyleshub.com" xlink:type="simple"><rect fill="#87CEFA" filter="url(#f1xzx3g2ozluxq)" height="75.2813" rx="12.5" ry="12.5" style="stroke: #6495ED; stroke-width: 1.0;" width="105" x="223" y="360.1318"/><path d="M238,374.2256 C235.79,374.2256 234,376.0156 234,378.2256 C234,380.4356 235.79,382.2256 238,382.2256 C240.21,382.2256 242,380.4356 242,378.2256 C242,376.0156 240.21,374.2256 238,374.2256 M238,375.2256 C238.333,375.2256 238.637,375.3116 238.938,375.4136 C238.724,375.6106 238.488,375.7966 238.532,375.9766 C238.572,376.1566 239.22,376.1066 239.22,376.4766 C239.22,376.7466 238.795,376.8226 239.095,377.1326 C239.445,377.4826 238.459,378.1106 238.439,378.5706 C238.409,379.4006 239.28,379.5396 239.97,379.5396 C240.394,379.5396 240.473,379.7346 240.439,379.9776 C239.893,380.7356 239.001,381.2276 238.001,381.2276 C237.623,381.2276 237.272,381.1376 236.938,381.0086 C237.162,380.5666 236.625,379.6646 236.157,379.3836 C235.931,379.1576 235.468,379.2696 235.188,379.1646 C235.096,378.8936 235.01,378.6196 235,378.3206 C235.031,378.2706 235.081,378.2266 235.156,378.2266 C235.346,378.2266 235.61,378.6006 235.75,378.5706 C235.93,378.5306 235.008,377.2576 235.437,377.0076 C235.637,376.8876 236.046,377.4016 235.906,376.8516 C235.786,376.3416 236.272,376.5756 236.562,376.4456 C236.822,376.3356 237.017,376.0316 236.687,375.8516 L236.468,375.6636 C236.918,375.3936 237.44,375.2256 237.999,375.2256 M240.312,376.3196 C240.496,376.5416 240.635,376.8006 240.75,377.0696 L240.562,377.2886 C240.272,377.5586 240.235,377.0766 240.124,376.9756 C239.994,376.8656 239.486,377.0006 239.436,376.8506 C239.359,376.6696 239.935,376.4326 240.311,376.3196 " fill="#696969" style="stroke: ; stroke-width: 0.0; stroke-dasharray: ;"/><text fill="#696969" font-family="sans-serif" font-size="12" lengthAdjust="spacingAndGlyphs" textLength="72" x="246" y="382.5889">lifestyles hub</text><line style="stroke: #6495ED; stroke-width: 1.0;" x1="223" x2="328" y1="390.2256" y2="390.2256"/><text fill="#696969" font-family="sans-serif" font-size="12" lengthAdjust="spacingAndGlyphs" textLength="48" x="233" y="407.6826">calendar</text><text fill="#696969" font-family="sans-serif" font-size="12" lengthAdjust="spacingAndGlyphs" textLength="62" x="233" y="422.7764">documents</text></a><a target="_top" xlink:actuate="onRequest" xlink:href="https://ffp-lifestylesunlimited.bridgeapp.com" xlink:show="new" xlink:title="https://ffp-lifestylesunlimited.bridgeapp.com" xlink:type="simple"><rect fill="#87CEFA" filter="url(#f1xzx3g2ozluxq)" height="75.2813" rx="12.5" ry="12.5" style="stroke: #6495ED; stroke-width: 1.0;" width="82" x="356" y="360.1318"/><path d="M371,374.2256 C368.79,374.2256 367,376.0156 367,378.2256 C367,380.4356 368.79,382.2256 371,382.2256 C373.21,382.2256 375,380.4356 375,378.2256 C375,376.0156 373.21,374.2256 371,374.2256 M371,375.2256 C371.333,375.2256 371.637,375.3116 371.938,375.4136 C371.724,375.6106 371.488,375.7966 371.532,375.9766 C371.572,376.1566 372.22,376.1066 372.22,376.4766 C372.22,376.7466 371.795,376.8226 372.095,377.1326 C372.445,377.4826 371.459,378.1106 371.439,378.5706 C371.409,379.4006 372.28,379.5396 372.97,379.5396 C373.394,379.5396 373.473,379.7346 373.439,379.9776 C372.893,380.7356 372.001,381.2276 371.001,381.2276 C370.623,381.2276 370.272,381.1376 369.938,381.0086 C370.162,380.5666 369.625,379.6646 369.157,379.3836 C368.931,379.1576 368.468,379.2696 368.188,379.1646 C368.096,378.8936 368.01,378.6196 368,378.3206 C368.031,378.2706 368.081,378.2266 368.156,378.2266 C368.346,378.2266 368.61,378.6006 368.75,378.5706 C368.93,378.5306 368.008,377.2576 368.437,377.0076 C368.637,376.8876 369.046,377.4016 368.906,376.8516 C368.786,376.3416 369.272,376.5756 369.562,376.4456 C369.822,376.3356 370.017,376.0316 369.687,375.8516 L369.468,375.6636 C369.918,375.3936 370.44,375.2256 370.999,375.2256 M373.312,376.3196 C373.496,376.5416 373.635,376.8006 373.75,377.0696 L373.562,377.2886 C373.272,377.5586 373.235,377.0766 373.124,376.9756 C372.994,376.8656 372.486,377.0006 372.436,376.8506 C372.359,376.6696 372.935,376.4326 373.311,376.3196 " fill="#696969" style="stroke: ; stroke-width: 0.0; stroke-dasharray: ;"/><text fill="#696969" font-family="sans-serif" font-size="12" lengthAdjust="spacingAndGlyphs" textLength="35" x="379" y="382.5889">bridge</text><line style="stroke: #6495ED; stroke-width: 1.0;" x1="356" x2="438" y1="390.2256" y2="390.2256"/><text fill="#696969" font-family="sans-serif" font-size="12" lengthAdjust="spacingAndGlyphs" textLength="48" x="366" y="407.6826">calendar</text><text fill="#696969" font-family="sans-serif" font-size="12" lengthAdjust="spacingAndGlyphs" textLength="62" x="366" y="422.7764">documents</text></a><a target="_top" xlink:actuate="onRequest" xlink:href="http://www.lifestylesunlimited.com/category/radio_shows" xlink:show="new" xlink:title="http://www.lifestylesunlimited.com/category/radio_shows" xlink:type="simple"><rect fill="#87CEFA" filter="url(#f1xzx3g2ozluxq)" height="35.0938" rx="12.5" ry="12.5" style="stroke: #6495ED; stroke-width: 1.0;" width="101" x="466" y="380.2256"/><path d="M481,394.3193 C478.79,394.3193 477,396.1093 477,398.3193 C477,400.5293 478.79,402.3193 481,402.3193 C483.21,402.3193 485,400.5293 485,398.3193 C485,396.1093 483.21,394.3193 481,394.3193 M481,395.3193 C481.333,395.3193 481.637,395.4053 481.938,395.5073 C481.724,395.7043 481.488,395.8903 481.532,396.0703 C481.572,396.2503 482.22,396.2003 482.22,396.5703 C482.22,396.8403 481.795,396.9163 482.095,397.2263 C482.445,397.5763 481.459,398.2043 481.439,398.6643 C481.409,399.4943 482.28,399.6333 482.97,399.6333 C483.394,399.6333 483.473,399.8283 483.439,400.0713 C482.893,400.8293 482.001,401.3213 481.001,401.3213 C480.623,401.3213 480.272,401.2313 479.938,401.1023 C480.162,400.6603 479.625,399.7583 479.157,399.4773 C478.931,399.2513 478.468,399.3633 478.188,399.2583 C478.096,398.9873 478.01,398.7133 478,398.4143 C478.031,398.3643 478.081,398.3203 478.156,398.3203 C478.346,398.3203 478.61,398.6943 478.75,398.6643 C478.93,398.6243 478.008,397.3513 478.437,397.1013 C478.637,396.9813 479.046,397.4953 478.906,396.9453 C478.786,396.4353 479.272,396.6693 479.562,396.5393 C479.822,396.4293 480.017,396.1253 479.687,395.9453 L479.468,395.7573 C479.918,395.4873 480.44,395.3193 480.999,395.3193 M483.312,396.4133 C483.496,396.6353 483.635,396.8943 483.75,397.1633 L483.562,397.3823 C483.272,397.6523 483.235,397.1703 483.124,397.0693 C482.994,396.9593 482.486,397.0943 482.436,396.9443 C482.359,396.7633 482.935,396.5263 483.311,396.4133 " fill="#696969" style="stroke: ; stroke-width: 0.0; stroke-dasharray: ;"/><text fill="#696969" font-family="sans-serif" font-size="12" lengthAdjust="spacingAndGlyphs" textLength="68" x="489" y="402.6826">radio shows</text></a><rect fill="#FFFFF0" filter="url(#f1xzx3g2ozluxq)" height="35.0938" rx="12.5" ry="12.5" style="stroke: #6495ED; stroke-width: 1.0;" width="99" x="595" y="380.2256"/><text fill="#696969" font-family="sans-serif" font-size="12" lengthAdjust="spacingAndGlyphs" textLength="79" x="605" y="402.6826">special events</text><rect fill="#FFFFF0" filter="url(#f1xzx3g2ozluxq)" height="35.0938" rx="12.5" ry="12.5" style="stroke: #6495ED; stroke-width: 1.0;" width="91" x="722" y="380.2256"/><text fill="#696969" font-family="sans-serif" font-size="12" lengthAdjust="spacingAndGlyphs" textLength="71" x="732" y="402.6826">case studies</text><a target="_top" xlink:actuate="onRequest" xlink:href="http://wealthandpassiveincomeexpo.com" xlink:show="new" xlink:title="http://wealthandpassiveincomeexpo.com" xlink:type="simple"><rect fill="#87CEFA" filter="url(#f1xzx3g2ozluxq)" height="80.375" rx="12.5" ry="12.5" style="stroke: #6495ED; stroke-width: 1.0;" width="160" x="841" y="357.585"/><path d="M856,371.6787 C853.79,371.6787 852,373.4687 852,375.6787 C852,377.8887 853.79,379.6787 856,379.6787 C858.21,379.6787 860,377.8887 860,375.6787 C860,373.4687 858.21,371.6787 856,371.6787 M856,372.6787 C856.333,372.6787 856.637,372.7647 856.938,372.8667 C856.724,373.0637 856.488,373.2497 856.532,373.4297 C856.572,373.6097 857.22,373.5597 857.22,373.9297 C857.22,374.1997 856.795,374.2757 857.095,374.5857 C857.445,374.9357 856.459,375.5637 856.439,376.0237 C856.409,376.8537 857.28,376.9927 857.97,376.9927 C858.394,376.9927 858.473,377.1877 858.439,377.4307 C857.893,378.1887 857.001,378.6807 856.001,378.6807 C855.623,378.6807 855.272,378.5907 854.938,378.4617 C855.162,378.0197 854.625,377.1177 854.157,376.8367 C853.931,376.6107 853.468,376.7227 853.188,376.6177 C853.096,376.3467 853.01,376.0727 853,375.7737 C853.031,375.7237 853.081,375.6797 853.156,375.6797 C853.346,375.6797 853.61,376.0537 853.75,376.0237 C853.93,375.9837 853.008,374.7107 853.437,374.4607 C853.637,374.3407 854.046,374.8547 853.906,374.3047 C853.786,373.7947 854.272,374.0287 854.562,373.8987 C854.822,373.7887 855.017,373.4847 854.687,373.3047 L854.468,373.1167 C854.918,372.8467 855.44,372.6787 855.999,372.6787 M858.312,373.7727 C858.496,373.9947 858.635,374.2537 858.75,374.5227 L858.562,374.7417 C858.272,375.0117 858.235,374.5297 858.124,374.4287 C857.994,374.3187 857.486,374.4537 857.436,374.3037 C857.359,374.1227 857.935,373.8857 858.311,373.7727 " fill="#696969" style="stroke: ; stroke-width: 0.0; stroke-dasharray: ;"/><text fill="#696969" font-family="sans-serif" font-size="12" lengthAdjust="spacingAndGlyphs" textLength="38" x="864" y="380.042">annual</text><text fill="#696969" font-family="sans-serif" font-size="12" lengthAdjust="spacingAndGlyphs" textLength="106" x="851" y="395.1357">wealth and passive</text><text fill="#696969" font-family="sans-serif" font-size="12" lengthAdjust="spacingAndGlyphs" textLength="70" x="851" y="410.2295">income expo</text><text fill="#696969" font-family="sans-serif" font-size="12" lengthAdjust="spacingAndGlyphs" textLength="140" x="851" y="425.3232">promo code EXPOEVENT</text></a><rect fill="#FFFFF0" filter="url(#f1xzx3g2ozluxq)" height="75.2813" rx="12.5" ry="12.5" style="stroke: #6495ED; stroke-width: 1.0;" width="116" x="1029" y="360.1318"/><text fill="#696969" font-family="sans-serif" font-size="12" lengthAdjust="spacingAndGlyphs" textLength="96" x="1039" y="382.5889">member services</text><line style="stroke: #6495ED; stroke-width: 1.0;" x1="1029" x2="1145" y1="390.2256" y2="390.2256"/><path d="M1044,399.3193 C1041.797,399.3193 1040,401.1163 1040,403.3193 C1040,405.5223 1041.797,407.3193 1044,407.3193 C1046.203,407.3193 1048,405.5223 1048,403.3193 C1048,401.1163 1046.203,399.3193 1044,399.3193 M1044,400.3193 C1045.663,400.3193 1047,401.6563 1047,403.3193 C1047,404.9823 1045.663,406.3193 1044,406.3193 C1042.337,406.3193 1041,404.9823 1041,403.3193 C1041,401.6563 1042.337,400.3193 1044,400.3193 M1043.5,401.3193 L1043.5,403.5383 L1043.656,403.6633 L1044.156,404.1633 L1044.5,404.5383 L1045.219,403.8193 L1044.844,403.4753 L1044.5,403.1313 L1044.5,401.3183 L1043.5,401.3183 " fill="#696969" style="stroke: ; stroke-width: 0.0; stroke-dasharray: ;"/><text fill="#696969" font-family="sans-serif" font-size="12" font-style="italic" lengthAdjust="spacingAndGlyphs" textLength="41" x="1052" y="407.6826">M-F 9-5</text><path d="M1041.188,414.4131 C1041.078,414.4131 1041,414.4901 1041,414.6011 L1041,422.2261 C1041,422.3361 1041.077,422.4141 1041.188,422.4141 L1045.813,422.4141 C1045.923,422.4141 1046.001,422.3371 1046.001,422.2261 L1046.001,414.6011 C1046.001,414.4911 1045.924,414.4131 1045.813,414.4131 L1041.188,414.4131 M1042.001,415.4131 L1045.001,415.4131 L1045.001,420.4131 L1042.001,420.4131 L1042.001,415.4131 M1043.501,420.9131 C1043.781,420.9131 1044.001,421.1331 1044.001,421.4131 C1044.001,421.6931 1043.781,421.9131 1043.501,421.9131 C1043.221,421.9131 1043.001,421.6931 1043.001,421.4131 C1043.001,421.1331 1043.221,420.9131 1043.501,420.9131 " fill="#696969" style="stroke: ; stroke-width: 0.0; stroke-dasharray: ;"/><text fill="#696969" font-family="sans-serif" font-size="12" font-style="italic" lengthAdjust="spacingAndGlyphs" textLength="74" x="1052" y="422.7764">972-8270208</text><a target="_top" xlink:actuate="onRequest" xlink:href="https://luincvendor.com" xlink:show="new" xlink:title="https://luincvendor.com" xlink:type="simple"><rect fill="#87CEFA" filter="url(#f1xzx3g2ozluxq)" height="35.0938" rx="12.5" ry="12.5" style="stroke: #6495ED; stroke-width: 1.0;" width="120" x="1173" y="380.2256"/><path d="M1188,394.3193 C1185.79,394.3193 1184,396.1093 1184,398.3193 C1184,400.5293 1185.79,402.3193 1188,402.3193 C1190.21,402.3193 1192,400.5293 1192,398.3193 C1192,396.1093 1190.21,394.3193 1188,394.3193 M1188,395.3193 C1188.333,395.3193 1188.637,395.4053 1188.938,395.5073 C1188.724,395.7043 1188.488,395.8903 1188.532,396.0703 C1188.572,396.2503 1189.22,396.2003 1189.22,396.5703 C1189.22,396.8403 1188.795,396.9163 1189.095,397.2263 C1189.445,397.5763 1188.459,398.2043 1188.439,398.6643 C1188.409,399.4943 1189.28,399.6333 1189.97,399.6333 C1190.394,399.6333 1190.473,399.8283 1190.439,400.0713 C1189.893,400.8293 1189.001,401.3213 1188.001,401.3213 C1187.623,401.3213 1187.272,401.2313 1186.938,401.1023 C1187.162,400.6603 1186.625,399.7583 1186.157,399.4773 C1185.931,399.2513 1185.468,399.3633 1185.188,399.2583 C1185.096,398.9873 1185.01,398.7133 1185,398.4143 C1185.031,398.3643 1185.081,398.3203 1185.156,398.3203 C1185.346,398.3203 1185.61,398.6943 1185.75,398.6643 C1185.93,398.6243 1185.008,397.3513 1185.437,397.1013 C1185.637,396.9813 1186.046,397.4953 1185.906,396.9453 C1185.786,396.4353 1186.272,396.6693 1186.562,396.5393 C1186.822,396.4293 1187.017,396.1253 1186.687,395.9453 L1186.468,395.7573 C1186.918,395.4873 1187.44,395.3193 1187.999,395.3193 M1190.312,396.4133 C1190.496,396.6353 1190.635,396.8943 1190.75,397.1633 L1190.562,397.3823 C1190.272,397.6523 1190.235,397.1703 1190.124,397.0693 C1189.994,396.9593 1189.486,397.0943 1189.436,396.9443 C1189.359,396.7633 1189.935,396.5263 1190.311,396.4133 " fill="#696969" style="stroke: ; stroke-width: 0.0; stroke-dasharray: ;"/><text fill="#696969" font-family="sans-serif" font-size="12" lengthAdjust="spacingAndGlyphs" textLength="87" x="1196" y="402.6826">vendor program</text></a><rect fill="#CCFFCC" filter="url(#f1xzx3g2ozluxq)" height="35.0938" style="stroke: #6495ED; stroke-width: 1.0;" width="94" x="1321" y="380.2256"/><path d="M1335,394.3193 L1335,395.3193 L1334.25,395.3193 C1333.564,395.3193 1333,395.8833 1333,396.5693 L1333,397.0693 C1333,397.7473 1333.437,398.3113 1334.094,398.4753 L1336.657,399.1313 C1336.8,399.1673 1337.001,399.4273 1337.001,399.5693 L1337.001,400.0693 C1337.001,400.2033 1336.885,400.3193 1336.751,400.3193 L1334.251,400.3193 C1334.135,400.3193 1334.039,400.2823 1334.001,400.2563 L1334.001,399.3183 L1333.001,399.3183 L1333.001,400.3183 C1333.001,400.6603 1333.204,400.9453 1333.439,401.0993 C1333.673,401.2543 1333.957,401.3183 1334.252,401.3183 L1335.002,401.3183 L1335.002,402.3183 L1336.002,402.3183 L1336.002,401.3183 L1336.752,401.3183 C1337.438,401.3183 1338.002,400.7543 1338.002,400.0683 L1338.002,399.5683 C1338.002,398.8903 1337.565,398.3263 1336.908,398.1623 L1334.345,397.5063 C1334.202,397.4703 1334.001,397.2103 1334.001,397.0683 L1334.001,396.5683 C1334.001,396.4343 1334.117,396.3183 1334.251,396.3183 L1336.751,396.3183 C1336.867,396.3183 1336.963,396.3553 1337.001,396.3813 L1337.001,397.3193 L1338.001,397.3193 L1338.001,396.3193 C1338.001,395.9773 1337.798,395.6923 1337.563,395.5383 C1337.329,395.3833 1337.045,395.3193 1336.75,395.3193 L1336,395.3193 L1336,394.3193 L1335,394.3193 " fill="#696969" style="stroke: ; stroke-width: 0.0; stroke-dasharray: ;"/><text fill="#696969" font-family="sans-serif" font-size="12" lengthAdjust="spacingAndGlyphs" textLength="61" x="1344" y="402.6826">tax write-off</text><polygon fill="#FFFFF0" filter="url(#f1xzx3g2ozluxq)" points="1443,380.2256,1509,380.2256,1519,397.7725,1509,415.3193,1443,415.3193" style="stroke: #6495ED; stroke-width: 1.0;"/><path d="M1458,394.3193 C1455.797,394.3193 1454,396.1163 1454,398.3193 C1454,400.5223 1455.797,402.3193 1458,402.3193 C1460.203,402.3193 1462,400.5223 1462,398.3193 C1462,396.1163 1460.203,394.3193 1458,394.3193 M1458,395.3193 C1459.663,395.3193 1461,396.6563 1461,398.3193 C1461,399.9823 1459.663,401.3193 1458,401.3193 C1456.337,401.3193 1455,399.9823 1455,398.3193 C1455,396.6563 1456.337,395.3193 1458,395.3193 M1457.5,396.3193 L1457.5,398.5383 L1457.656,398.6633 L1458.156,399.1633 L1458.5,399.5383 L1459.219,398.8193 L1458.844,398.4753 L1458.5,398.1313 L1458.5,396.3183 L1457.5,396.3183 " fill="#696969" style="stroke: ; stroke-width: 0.0; stroke-dasharray: ;"/><text fill="#696969" font-family="sans-serif" font-size="12" lengthAdjust="spacingAndGlyphs" textLength="33" x="1466" y="402.6826">1 year</text><rect fill="#000000" filter="url(#f1xzx3g2ozluxq)" height="6" rx="2.5" ry="2.5" style="stroke: #000000; stroke-width: 1.0;" width="1513" x="10" y="457.96"/><rect fill="#FFFFF0" filter="url(#f1xzx3g2ozluxq)" height="35.0938" rx="12.5" ry="12.5" style="stroke: #6495ED; stroke-width: 1.0;" width="61" x="736" y="483.96"/><text fill="#696969" font-family="sans-serif" font-size="12" lengthAdjust="spacingAndGlyphs" textLength="41" x="746" y="506.417">inactive</text><rect fill="#CCFFCC" filter="url(#f1xzx3g2ozluxq)" height="35.0938" style="stroke: #6495ED; stroke-width: 1.0;" width="54" x="739.5" y="539.0537"/><path d="M753.5,553.1475 L753.5,554.1475 L752.75,554.1475 C752.064,554.1475 751.5,554.7115 751.5,555.3975 L751.5,555.8975 C751.5,556.5755 751.937,557.1395 752.594,557.3035 L755.157,557.9595 C755.3,557.9955 755.501,558.2555 755.501,558.3975 L755.501,558.8975 C755.501,559.0315 755.385,559.1475 755.251,559.1475 L752.751,559.1475 C752.635,559.1475 752.539,559.1105 752.501,559.0845 L752.501,558.1465 L751.501,558.1465 L751.501,559.1465 C751.501,559.4885 751.704,559.7735 751.939,559.9275 C752.173,560.0825 752.457,560.1465 752.752,560.1465 L753.502,560.1465 L753.502,561.1465 L754.502,561.1465 L754.502,560.1465 L755.252,560.1465 C755.938,560.1465 756.502,559.5825 756.502,558.8965 L756.502,558.3965 C756.502,557.7185 756.065,557.1545 755.408,556.9905 L752.845,556.3345 C752.702,556.2985 752.501,556.0385 752.501,555.8965 L752.501,555.3965 C752.501,555.2625 752.617,555.1465 752.751,555.1465 L755.251,555.1465 C755.367,555.1465 755.463,555.1835 755.501,555.2095 L755.501,556.1475 L756.501,556.1475 L756.501,555.1475 C756.501,554.8055 756.298,554.5205 756.063,554.3665 C755.829,554.2115 755.545,554.1475 755.25,554.1475 L754.5,554.1475 L754.5,553.1475 L753.5,553.1475 " fill="#696969" style="stroke: ; stroke-width: 0.0; stroke-dasharray: ;"/><text fill="#696969" font-family="sans-serif" font-size="12" lengthAdjust="spacingAndGlyphs" textLength="21" x="762.5" y="561.5107">200</text><polygon fill="#FFFFF0" filter="url(#f1xzx3g2ozluxq)" points="766.5,210.6563,778.5,222.6563,766.5,234.6563,754.5,222.6563,766.5,210.6563" style="stroke: #6495ED; stroke-width: 1.0;"/><polygon fill="#FFFFF0" filter="url(#f1xzx3g2ozluxq)" points="766.5,594.1475,766.5,594.1475,778.5,606.1475,766.5,618.1475,766.5,618.1475,754.5,606.1475,766.5,594.1475" style="stroke: #6495ED; stroke-width: 1.0;"/><line style="stroke: #696969; stroke-width: 1.5;" x1="766.5" x2="766.5" y1="135.5625" y2="155.5625"/><polygon fill="#696969" points="762.5,145.5625,766.5,155.5625,770.5,145.5625,766.5,149.5625" style="stroke: #696969; stroke-width: 1.0;"/><line style="stroke: #696969; stroke-width: 1.5;" x1="109.5" x2="109.5" y1="337.585" y2="372.6787"/><polygon fill="#696969" points="105.5,362.6787,109.5,372.6787,113.5,362.6787,109.5,366.6787" style="stroke: #696969; stroke-width: 1.0;"/><line style="stroke: #696969; stroke-width: 1.5;" x1="275.5" x2="275.5" y1="337.585" y2="360.1318"/><polygon fill="#696969" points="271.5,350.1318,275.5,360.1318,279.5,350.1318,275.5,354.1318" style="stroke: #696969; stroke-width: 1.0;"/><line style="stroke: #696969; stroke-width: 1.5;" x1="397" x2="397" y1="337.585" y2="360.1318"/><polygon fill="#696969" points="393,350.1318,397,360.1318,401,350.1318,397,354.1318" style="stroke: #696969; stroke-width: 1.0;"/><line style="stroke: #696969; stroke-width: 1.5;" x1="516.5" x2="516.5" y1="337.585" y2="380.2256"/><polygon fill="#696969" points="512.5,370.2256,516.5,380.2256,520.5,370.2256,516.5,374.2256" style="stroke: #696969; stroke-width: 1.0;"/><line style="stroke: #696969; stroke-width: 1.5;" x1="644.5" x2="644.5" y1="337.585" y2="380.2256"/><polygon fill="#696969" points="640.5,370.2256,644.5,380.2256,648.5,370.2256,644.5,374.2256" style="stroke: #696969; stroke-width: 1.0;"/><line style="stroke: #696969; stroke-width: 1.5;" x1="767.5" x2="767.5" y1="337.585" y2="380.2256"/><polygon fill="#696969" points="763.5,370.2256,767.5,380.2256,771.5,370.2256,767.5,374.2256" style="stroke: #696969; stroke-width: 1.0;"/><line style="stroke: #696969; stroke-width: 1.5;" x1="921" x2="921" y1="337.585" y2="357.585"/><polygon fill="#696969" points="917,347.585,921,357.585,925,347.585,921,351.585" style="stroke: #696969; stroke-width: 1.0;"/><line style="stroke: #696969; stroke-width: 1.5;" x1="1087" x2="1087" y1="337.585" y2="360.1318"/><polygon fill="#696969" points="1083,350.1318,1087,360.1318,1091,350.1318,1087,354.1318" style="stroke: #696969; stroke-width: 1.0;"/><line style="stroke: #696969; stroke-width: 1.5;" x1="1233" x2="1233" y1="337.585" y2="380.2256"/><polygon fill="#696969" points="1229,370.2256,1233,380.2256,1237,370.2256,1233,374.2256" style="stroke: #696969; stroke-width: 1.0;"/><line style="stroke: #696969; stroke-width: 1.5;" x1="1368" x2="1368" y1="337.585" y2="380.2256"/><polygon fill="#696969" points="1364,370.2256,1368,380.2256,1372,370.2256,1368,374.2256" style="stroke: #696969; stroke-width: 1.0;"/><line style="stroke: #696969; stroke-width: 1.5;" x1="1476" x2="1476" y1="337.585" y2="380.2256"/><polygon fill="#696969" points="1472,370.2256,1476,380.2256,1480,370.2256,1476,374.2256" style="stroke: #696969; stroke-width: 1.0;"/><line style="stroke: #696969; stroke-width: 1.5;" x1="109.5" x2="109.5" y1="422.8662" y2="457.96"/><polygon fill="#696969" points="105.5,447.96,109.5,457.96,113.5,447.96,109.5,451.96" style="stroke: #696969; stroke-width: 1.0;"/><line style="stroke: #696969; stroke-width: 1.5;" x1="275.5" x2="275.5" y1="435.4131" y2="457.96"/><polygon fill="#696969" points="271.5,447.96,275.5,457.96,279.5,447.96,275.5,451.96" style="stroke: #696969; stroke-width: 1.0;"/><line style="stroke: #696969; stroke-width: 1.5;" x1="397" x2="397" y1="435.4131" y2="457.96"/><polygon fill="#696969" points="393,447.96,397,457.96,401,447.96,397,451.96" style="stroke: #696969; stroke-width: 1.0;"/><line style="stroke: #696969; stroke-width: 1.5;" x1="516.5" x2="516.5" y1="415.3193" y2="457.96"/><polygon fill="#696969" points="512.5,447.96,516.5,457.96,520.5,447.96,516.5,451.96" style="stroke: #696969; stroke-width: 1.0;"/><line style="stroke: #696969; stroke-width: 1.5;" x1="644.5" x2="644.5" y1="415.3193" y2="457.96"/><polygon fill="#696969" points="640.5,447.96,644.5,457.96,648.5,447.96,644.5,451.96" style="stroke: #696969; stroke-width: 1.0;"/><line style="stroke: #696969; stroke-width: 1.5;" x1="767.5" x2="767.5" y1="415.3193" y2="457.96"/><polygon fill="#696969" points="763.5,447.96,767.5,457.96,771.5,447.96,767.5,451.96" style="stroke: #696969; stroke-width: 1.0;"/><line style="stroke: #696969; stroke-width: 1.5;" x1="921" x2="921" y1="437.96" y2="457.96"/><polygon fill="#696969" points="917,447.96,921,457.96,925,447.96,921,451.96" style="stroke: #696969; stroke-width: 1.0;"/><line style="stroke: #696969; stroke-width: 1.5;" x1="1087" x2="1087" y1="435.4131" y2="457.96"/><polygon fill="#696969" points="1083,447.96,1087,457.96,1091,447.96,1087,451.96" style="stroke: #696969; stroke-width: 1.0;"/><line style="stroke: #696969; stroke-width: 1.5;" x1="1233" x2="1233" y1="415.3193" y2="457.96"/><polygon fill="#696969" points="1229,447.96,1233,457.96,1237,447.96,1233,451.96" style="stroke: #696969; stroke-width: 1.0;"/><line style="stroke: #696969; stroke-width: 1.5;" x1="1368" x2="1368" y1="415.3193" y2="457.96"/><polygon fill="#696969" points="1364,447.96,1368,457.96,1372,447.96,1368,451.96" style="stroke: #696969; stroke-width: 1.0;"/><line style="stroke: #696969; stroke-width: 1.5;" x1="1476" x2="1476" y1="415.3193" y2="457.96"/><polygon fill="#696969" points="1472,447.96,1476,457.96,1480,447.96,1476,451.96" style="stroke: #696969; stroke-width: 1.0;"/><line style="stroke: #696969; stroke-width: 1.5;" x1="766.5" x2="766.5" y1="311.585" y2="331.585"/><polygon fill="#696969" points="762.5,321.585,766.5,331.585,770.5,321.585,766.5,325.585" style="stroke: #696969; stroke-width: 1.0;"/><line style="stroke: #696969; stroke-width: 1.5;" x1="766.5" x2="766.5" y1="463.96" y2="483.96"/><polygon fill="#696969" points="762.5,473.96,766.5,483.96,770.5,473.96,766.5,477.96" style="stroke: #696969; stroke-width: 1.0;"/><line style="stroke: #696969; stroke-width: 1.5;" x1="766.5" x2="766.5" y1="519.0537" y2="539.0537"/><polygon fill="#696969" points="762.5,529.0537,766.5,539.0537,770.5,529.0537,766.5,533.0537" style="stroke: #696969; stroke-width: 1.0;"/><line style="stroke: #696969; stroke-width: 1.5;" x1="766.5" x2="766.5" y1="234.6563" y2="276.4912"/><polygon fill="#696969" points="762.5,266.4912,766.5,276.4912,770.5,266.4912,766.5,270.4912" style="stroke: #696969; stroke-width: 1.0;"/><text fill="#696969" font-family="sans-serif" font-size="11" lengthAdjust="spacingAndGlyphs" textLength="20" x="770.5" y="256.9922">paid</text><line style="stroke: #696969; stroke-width: 1.5;" x1="778.5" x2="1535" y1="606.1475" y2="606.1475"/><polygon fill="#696969" points="1531,442.8193,1535,432.8193,1539,442.8193,1535,438.8193" style="stroke: #696969; stroke-width: 1.5;"/><line style="stroke: #696969; stroke-width: 1.5;" x1="1535" x2="1535" y1="222.6563" y2="606.1475"/><line style="stroke: #696969; stroke-width: 1.5;" x1="1535" x2="778.5" y1="222.6563" y2="222.6563"/><polygon fill="#696969" points="788.5,218.6563,778.5,222.6563,788.5,226.6563,784.5,222.6563" style="stroke: #696969; stroke-width: 1.0;"/><line style="stroke: #696969; stroke-width: 1.5;" x1="766.5" x2="766.5" y1="574.1475" y2="594.1475"/><polygon fill="#696969" points="762.5,584.1475,766.5,594.1475,770.5,584.1475,766.5,588.1475" style="stroke: #696969; stroke-width: 1.0;"/><line style="stroke: #696969; stroke-width: 1.5;" x1="766.5" x2="766.5" y1="190.6563" y2="210.6563"/><polygon fill="#696969" points="762.5,200.6563,766.5,210.6563,770.5,200.6563,766.5,204.6563" style="stroke: #696969; stroke-width: 1.0;"/><text fill="#000080" font-family="sans-serif" font-size="14" lengthAdjust="spacingAndGlyphs" textLength="42" x="10" y="632.6807">©2019</text><a target="_top" xlink:actuate="onRequest" xlink:href="http://www.lifestylesunlimited.com" xlink:show="new" xlink:title="http://www.lifestylesunlimited.com" xlink:type="simple"><text fill="#0000FF" font-family="sans-serif" font-size="14" lengthAdjust="spacingAndGlyphs" text-decoration="underline" textLength="122" x="56" y="632.6807">LifeStyles Unlimited</text><line style="stroke: #0000FF; stroke-width: 1.0;" x1="56" x2="178" y1="634.6807" y2="634.6807"/></a><text fill="#000080" font-family="sans-serif" font-size="14" lengthAdjust="spacingAndGlyphs" textLength="279" x="182" y="632.6807">| Generated Sat May 18 14:00:59 CDT 2019</text><!--
@startuml financial-freedom-program


skinparam {
  BorderColor Red
  PathHoverColor Blue
}

skinparam Title {
  FontColor Navy
  BackgroundColor PaleGoldenRod
  BorderColor Navy
  BorderRoundCorner 20
  FontSize 24
}

skinparam activity {
  BackgroundColor Ivory
  BorderColor CornflowerBlue
  BorderThickness 1
  FontColor DimGray
  

  Arrow {
    Color dimgray
    FontColor dimgray
  }

  Start {
    Color PHYSICAL
  }

  End {
    Color Coral
  }

  Diamond {
    BackgroundColor Ivory
    BorderColor CornflowerBlue
    FontColor DarkGray
  }

  BackgroundColor<< Exception >> Red
	BorderColor<< Exception >> White
}

skinparam Swimlane {
  BorderColor CornflowerBlue 
}

skinparam Partition {
  BackgroundColor Ivory
  BorderColor CornflowerBlue
  BorderThickness 1
  FontColor CornflowerBlue
  FontSize 16
  BorderRoundCorner 20
}

skinparam Note {
  BackgroundColor LightSteelBlue
  BorderColor CornflowerBlue
  FontColor White
}

skinparam Legend {
  BackgroundColor LightSteelBlue
  BorderColor CornflowerBlue
  FontColor White
}

skinparam Footer {
  FontColor Navy
}


left header 
	<font color=Navy size=24>[[../index.svg?sanitize=true ⌂ Home]]</font>
endheader


	Title Financial Freedom Program\n(FFP)

	start

	#PHYSICAL:<&dollar> 500]

	repeat
		->paid;
		:active;
		fork
			:2-day\nfinancial freedom seminars;
		fork again
			[[https://www.lifestyleshub.com]]#LightSkyBlue:<&globe> lifestyles hub\n- - - -\ncalendar\ndocuments;
		fork again
			[[https://ffp-lifestylesunlimited.bridgeapp.com]]#LightSkyBlue:<&globe> bridge\n- - - -\ncalendar\ndocuments;
		fork again
		[[http://www.lifestylesunlimited.com/category/radio_shows]]#LightSkyBlue:<&globe> radio shows;
		fork again
			:special events;
		fork again
			:case studies;
		fork again
			[[http://wealthandpassiveincomeexpo.com]]#LightSkyBlue:<&globe> annual\nwealth and passive\nincome expo\npromo code EXPOEVENT;
		fork again
			:member services
			- - - -
			<i><&clock> M-F 9-5
			<i><&phone> 972-8270208;
		fork again
			[[https://luincvendor.com]]#LightSkyBlue:<&globe> vendor program;
		fork again
			#PHYSICAL:<&dollar> tax write-off]
		fork again
			:<&clock> 1 year>
		end fork

		:inactive;

		#PHYSICAL:<&dollar> 200]
	repeat while ()
	


left footer 
	<font size=14>©2019 [[http://www.lifestylesunlimited.com LifeStyles Unlimited]] | Generated Sat May 18 14:00:59 CDT 2019</font>
endfooter


@enduml

PlantUML version 1.2019.03(Sun Mar 10 06:04:44 CDT 2019)
(GPL source distribution)
Java Runtime: Java(TM) SE Runtime Environment
JVM: Java HotSpot(TM) 64-Bit Server VM
Java Version: 1.8.0_111-b14
Operating System: Windows 10
OS Version: 10.0
Default Encoding: Cp1252
Language: en
Country: US
--></g></svg>