<?xml version="1.0" encoding="UTF-8" standalone="no"?><svg xmlns="http://www.w3.org/2000/svg" xmlns:xlink="http://www.w3.org/1999/xlink" contentScriptType="application/ecmascript" contentStyleType="text/css" height="572px" preserveAspectRatio="none" style="width:653px;height:572px;" version="1.1" viewBox="0 0 653 572" width="653px" zoomAndPan="magnify"><defs><style type="text/css"><![CDATA[path:hover { stroke: #0000FF !important;}]]></style><filter height="300%" id="f1mdmw8pf5m0uy" width="300%" x="-1" y="-1"><feGaussianBlur result="blurOut" stdDeviation="2.0"/><feColorMatrix in="blurOut" result="blurOut2" type="matrix" values="0 0 0 0 0 0 0 0 0 0 0 0 0 0 0 0 0 0 .4 0"/><feOffset dx="4.0" dy="4.0" in="blurOut2" result="blurOut3"/><feBlend in="SourceGraphic" in2="blurOut3" mode="normal"/></filter></defs><g><a target="_top" xlink:actuate="onRequest" xlink:href="../index.svg" xlink:show="new" xlink:title="../index.svg" xlink:type="simple"><text fill="#0000FF" font-family="sans-serif" font-size="24" lengthAdjust="spacingAndGlyphs" text-decoration="underline" textLength="90" x="10" y="34.9141">⌂ Home</text><line style="stroke: #0000FF; stroke-width: 1.0;" x1="10" x2="100" y1="36.9141" y2="36.9141"/></a><rect fill="#EEE8AA" height="40.1875" rx="10" ry="10" style="stroke: #000080; stroke-width: 1.5;" width="315" x="167.5" y="42.1875"/><text fill="#000080" font-family="sans-serif" font-size="24" lengthAdjust="spacingAndGlyphs" textLength="299" x="175.5" y="72.1016">Financial Freedom Program</text><ellipse cx="312.5" cy="95.375" fill="#CCFFCC" filter="url(#f1mdmw8pf5m0uy)" rx="10" ry="10" style="stroke: none; stroke-width: 1.0;"/><rect fill="#CCFFCC" filter="url(#f1mdmw8pf5m0uy)" height="35.0938" style="stroke: #6495ED; stroke-width: 1.0;" width="54" x="285.5" y="125.375"/><path d="M299.5,139.4688 L299.5,140.4688 L298.75,140.4688 C298.064,140.4688 297.5,141.0328 297.5,141.7188 L297.5,142.2188 C297.5,142.8968 297.937,143.4608 298.594,143.6248 L301.157,144.2808 C301.3,144.3168 301.501,144.5768 301.501,144.7188 L301.501,145.2188 C301.501,145.3528 301.385,145.4688 301.251,145.4688 L298.751,145.4688 C298.635,145.4688 298.539,145.4318 298.501,145.4058 L298.501,144.4678 L297.501,144.4678 L297.501,145.4678 C297.501,145.8098 297.704,146.0948 297.939,146.2488 C298.173,146.4038 298.457,146.4678 298.752,146.4678 L299.502,146.4678 L299.502,147.4678 L300.502,147.4678 L300.502,146.4678 L301.252,146.4678 C301.938,146.4678 302.502,145.9038 302.502,145.2178 L302.502,144.7178 C302.502,144.0398 302.065,143.4758 301.408,143.3118 L298.845,142.6558 C298.702,142.6198 298.501,142.3598 298.501,142.2178 L298.501,141.7178 C298.501,141.5838 298.617,141.4678 298.751,141.4678 L301.251,141.4678 C301.367,141.4678 301.463,141.5048 301.501,141.5308 L301.501,142.4688 L302.501,142.4688 L302.501,141.4688 C302.501,141.1268 302.298,140.8418 302.063,140.6878 C301.829,140.5328 301.545,140.4688 301.25,140.4688 L300.5,140.4688 L300.5,139.4688 L299.5,139.4688 " fill="#696969" style="stroke: ; stroke-width: 0.0; stroke-dasharray: ;"/><text fill="#696969" font-family="sans-serif" font-size="12" lengthAdjust="spacingAndGlyphs" textLength="21" x="308.5" y="147.832">500</text><rect fill="#FFFFF0" filter="url(#f1mdmw8pf5m0uy)" height="35.0938" rx="12.5" ry="12.5" style="stroke: #6495ED; stroke-width: 1.0;" width="51" x="287" y="246.3037"/><text fill="#696969" font-family="sans-serif" font-size="12" lengthAdjust="spacingAndGlyphs" textLength="31" x="297" y="268.7607">active</text><rect fill="#000000" filter="url(#f1mdmw8pf5m0uy)" height="6" rx="2.5" ry="2.5" style="stroke: #000000; stroke-width: 1.0;" width="605" x="10" y="301.3975"/><rect fill="#FFFFF0" filter="url(#f1mdmw8pf5m0uy)" height="35.0938" rx="12.5" ry="12.5" style="stroke: #6495ED; stroke-width: 1.0;" width="106" x="24" y="327.3975"/><text fill="#696969" font-family="sans-serif" font-size="12" lengthAdjust="spacingAndGlyphs" textLength="86" x="34" y="349.8545">2-day seminars</text><rect fill="#FFFFF0" filter="url(#f1mdmw8pf5m0uy)" height="35.0938" rx="12.5" ry="12.5" style="stroke: #6495ED; stroke-width: 1.0;" width="99" x="158" y="327.3975"/><text fill="#696969" font-family="sans-serif" font-size="12" lengthAdjust="spacingAndGlyphs" textLength="79" x="168" y="349.8545">special events</text><rect fill="#FFFFF0" filter="url(#f1mdmw8pf5m0uy)" height="35.0938" rx="12.5" ry="12.5" style="stroke: #6495ED; stroke-width: 1.0;" width="91" x="285" y="327.3975"/><text fill="#696969" font-family="sans-serif" font-size="12" lengthAdjust="spacingAndGlyphs" textLength="71" x="295" y="349.8545">case studies</text><rect fill="#FFFFF0" filter="url(#f1mdmw8pf5m0uy)" height="35.0938" rx="12.5" ry="12.5" style="stroke: #6495ED; stroke-width: 1.0;" width="116" x="404" y="327.3975"/><text fill="#696969" font-family="sans-serif" font-size="12" lengthAdjust="spacingAndGlyphs" textLength="96" x="414" y="349.8545">member services</text><polygon fill="#FFFFF0" filter="url(#f1mdmw8pf5m0uy)" points="548,327.3975,601,327.3975,611,344.9443,601,362.4912,548,362.4912" style="stroke: #6495ED; stroke-width: 1.0;"/><text fill="#696969" font-family="sans-serif" font-size="12" lengthAdjust="spacingAndGlyphs" textLength="33" x="558" y="349.8545">1 year</text><rect fill="#000000" filter="url(#f1mdmw8pf5m0uy)" height="6" rx="2.5" ry="2.5" style="stroke: #000000; stroke-width: 1.0;" width="605" x="10" y="382.4912"/><rect fill="#FFFFF0" filter="url(#f1mdmw8pf5m0uy)" height="35.0938" rx="12.5" ry="12.5" style="stroke: #6495ED; stroke-width: 1.0;" width="61" x="282" y="409.9912"/><text fill="#696969" font-family="sans-serif" font-size="12" lengthAdjust="spacingAndGlyphs" textLength="41" x="292" y="432.4482">inactive</text><rect fill="#CCFFCC" filter="url(#f1mdmw8pf5m0uy)" height="35.0938" style="stroke: #6495ED; stroke-width: 1.0;" width="54" x="285.5" y="465.085"/><path d="M299.5,479.1787 L299.5,480.1787 L298.75,480.1787 C298.064,480.1787 297.5,480.7427 297.5,481.4287 L297.5,481.9287 C297.5,482.6067 297.937,483.1707 298.594,483.3347 L301.157,483.9907 C301.3,484.0267 301.501,484.2867 301.501,484.4287 L301.501,484.9287 C301.501,485.0627 301.385,485.1787 301.251,485.1787 L298.751,485.1787 C298.635,485.1787 298.539,485.1417 298.501,485.1157 L298.501,484.1777 L297.501,484.1777 L297.501,485.1777 C297.501,485.5197 297.704,485.8047 297.939,485.9587 C298.173,486.1137 298.457,486.1777 298.752,486.1777 L299.502,486.1777 L299.502,487.1777 L300.502,487.1777 L300.502,486.1777 L301.252,486.1777 C301.938,486.1777 302.502,485.6137 302.502,484.9277 L302.502,484.4277 C302.502,483.7497 302.065,483.1857 301.408,483.0217 L298.845,482.3657 C298.702,482.3297 298.501,482.0697 298.501,481.9277 L298.501,481.4277 C298.501,481.2937 298.617,481.1777 298.751,481.1777 L301.251,481.1777 C301.367,481.1777 301.463,481.2147 301.501,481.2407 L301.501,482.1787 L302.501,482.1787 L302.501,481.1787 C302.501,480.8367 302.298,480.5517 302.063,480.3977 C301.829,480.2427 301.545,480.1787 301.25,480.1787 L300.5,480.1787 L300.5,479.1787 L299.5,479.1787 " fill="#696969" style="stroke: ; stroke-width: 0.0; stroke-dasharray: ;"/><text fill="#696969" font-family="sans-serif" font-size="12" lengthAdjust="spacingAndGlyphs" textLength="21" x="308.5" y="487.542">200</text><polygon fill="#FFFFF0" filter="url(#f1mdmw8pf5m0uy)" points="312.5,180.4688,324.5,192.4688,312.5,204.4688,300.5,192.4688,312.5,180.4688" style="stroke: #6495ED; stroke-width: 1.0;"/><polygon fill="#FFFFF0" filter="url(#f1mdmw8pf5m0uy)" points="312.5,520.1787,312.5,520.1787,324.5,532.1787,312.5,544.1787,312.5,544.1787,300.5,532.1787,312.5,520.1787" style="stroke: #6495ED; stroke-width: 1.0;"/><line style="stroke: #696969; stroke-width: 1.5;" x1="312.5" x2="312.5" y1="105.375" y2="125.375"/><polygon fill="#696969" points="308.5,115.375,312.5,125.375,316.5,115.375,312.5,119.375" style="stroke: #696969; stroke-width: 1.0;"/><line style="stroke: #696969; stroke-width: 1.5;" x1="77" x2="77" y1="307.3975" y2="327.3975"/><polygon fill="#696969" points="73,317.3975,77,327.3975,81,317.3975,77,321.3975" style="stroke: #696969; stroke-width: 1.0;"/><line style="stroke: #696969; stroke-width: 1.5;" x1="207.5" x2="207.5" y1="307.3975" y2="327.3975"/><polygon fill="#696969" points="203.5,317.3975,207.5,327.3975,211.5,317.3975,207.5,321.3975" style="stroke: #696969; stroke-width: 1.0;"/><line style="stroke: #696969; stroke-width: 1.5;" x1="330.5" x2="330.5" y1="307.3975" y2="327.3975"/><polygon fill="#696969" points="326.5,317.3975,330.5,327.3975,334.5,317.3975,330.5,321.3975" style="stroke: #696969; stroke-width: 1.0;"/><line style="stroke: #696969; stroke-width: 1.5;" x1="462" x2="462" y1="307.3975" y2="327.3975"/><polygon fill="#696969" points="458,317.3975,462,327.3975,466,317.3975,462,321.3975" style="stroke: #696969; stroke-width: 1.0;"/><line style="stroke: #696969; stroke-width: 1.5;" x1="574.5" x2="574.5" y1="307.3975" y2="327.3975"/><polygon fill="#696969" points="570.5,317.3975,574.5,327.3975,578.5,317.3975,574.5,321.3975" style="stroke: #696969; stroke-width: 1.0;"/><line style="stroke: #696969; stroke-width: 1.5;" x1="77" x2="77" y1="362.4912" y2="382.4912"/><polygon fill="#696969" points="73,372.4912,77,382.4912,81,372.4912,77,376.4912" style="stroke: #696969; stroke-width: 1.0;"/><line style="stroke: #696969; stroke-width: 1.5;" x1="207.5" x2="207.5" y1="362.4912" y2="382.4912"/><polygon fill="#696969" points="203.5,372.4912,207.5,382.4912,211.5,372.4912,207.5,376.4912" style="stroke: #696969; stroke-width: 1.0;"/><line style="stroke: #696969; stroke-width: 1.5;" x1="330.5" x2="330.5" y1="362.4912" y2="382.4912"/><polygon fill="#696969" points="326.5,372.4912,330.5,382.4912,334.5,372.4912,330.5,376.4912" style="stroke: #696969; stroke-width: 1.0;"/><line style="stroke: #696969; stroke-width: 1.5;" x1="462" x2="462" y1="362.4912" y2="382.4912"/><polygon fill="#696969" points="458,372.4912,462,382.4912,466,372.4912,462,376.4912" style="stroke: #696969; stroke-width: 1.0;"/><line style="stroke: #696969; stroke-width: 1.5;" x1="574.5" x2="574.5" y1="362.4912" y2="382.4912"/><polygon fill="#696969" points="570.5,372.4912,574.5,382.4912,578.5,372.4912,574.5,376.4912" style="stroke: #696969; stroke-width: 1.0;"/><line style="stroke: #696969; stroke-width: 1.5;" x1="312.5" x2="312.5" y1="281.3975" y2="301.3975"/><polygon fill="#696969" points="308.5,291.3975,312.5,301.3975,316.5,291.3975,312.5,295.3975" style="stroke: #696969; stroke-width: 1.0;"/><line style="stroke: #696969; stroke-width: 1.5;" x1="312.5" x2="312.5" y1="388.4912" y2="409.9912"/><polygon fill="#696969" points="308.5,399.9912,312.5,409.9912,316.5,399.9912,312.5,403.9912" style="stroke: #696969; stroke-width: 1.0;"/><line style="stroke: #696969; stroke-width: 1.5;" x1="312.5" x2="312.5" y1="445.085" y2="465.085"/><polygon fill="#696969" points="308.5,455.085,312.5,465.085,316.5,455.085,312.5,459.085" style="stroke: #696969; stroke-width: 1.0;"/><line style="stroke: #696969; stroke-width: 1.5;" x1="312.5" x2="312.5" y1="204.4688" y2="246.3037"/><polygon fill="#696969" points="308.5,236.3037,312.5,246.3037,316.5,236.3037,312.5,240.3037" style="stroke: #696969; stroke-width: 1.0;"/><text fill="#696969" font-family="sans-serif" font-size="11" lengthAdjust="spacingAndGlyphs" textLength="20" x="316.5" y="226.8047">paid</text><line style="stroke: #696969; stroke-width: 1.5;" x1="324.5" x2="627" y1="532.1787" y2="532.1787"/><polygon fill="#696969" points="623,389.9912,627,379.9912,631,389.9912,627,385.9912" style="stroke: #696969; stroke-width: 1.5;"/><line style="stroke: #696969; stroke-width: 1.5;" x1="627" x2="627" y1="192.4688" y2="532.1787"/><line style="stroke: #696969; stroke-width: 1.5;" x1="627" x2="324.5" y1="192.4688" y2="192.4688"/><polygon fill="#696969" points="334.5,188.4688,324.5,192.4688,334.5,196.4688,330.5,192.4688" style="stroke: #696969; stroke-width: 1.0;"/><line style="stroke: #696969; stroke-width: 1.5;" x1="312.5" x2="312.5" y1="500.1787" y2="520.1787"/><polygon fill="#696969" points="308.5,510.1787,312.5,520.1787,316.5,510.1787,312.5,514.1787" style="stroke: #696969; stroke-width: 1.0;"/><line style="stroke: #696969; stroke-width: 1.5;" x1="312.5" x2="312.5" y1="160.4688" y2="180.4688"/><polygon fill="#696969" points="308.5,170.4688,312.5,180.4688,316.5,170.4688,312.5,174.4688" style="stroke: #696969; stroke-width: 1.0;"/><text fill="#000080" font-family="sans-serif" font-size="14" lengthAdjust="spacingAndGlyphs" textLength="42" x="10" y="558.7119">©2019</text><a target="_top" xlink:actuate="onRequest" xlink:href="http://www.lifestylesunlimited.com" xlink:show="new" xlink:title="http://www.lifestylesunlimited.com" xlink:type="simple"><text fill="#0000FF" font-family="sans-serif" font-size="14" lengthAdjust="spacingAndGlyphs" text-decoration="underline" textLength="122" x="56" y="558.7119">LifeStyles Unlimited</text><line style="stroke: #0000FF; stroke-width: 1.0;" x1="56" x2="178" y1="560.7119" y2="560.7119"/></a><text fill="#000080" font-family="sans-serif" font-size="14" lengthAdjust="spacingAndGlyphs" textLength="279" x="182" y="558.7119">| Generated Sun Apr 28 19:55:44 CDT 2019</text><!--
@startuml financial-freedom-program


skinparam {
  BorderColor Red
  PathHoverColor Blue
}

skinparam Title {
  FontColor Navy
  BackgroundColor PaleGoldenRod
  BorderColor Navy
  BorderRoundCorner 20
  FontSize 24
}

skinparam activity {
  BackgroundColor Ivory
  BorderColor CornflowerBlue
  BorderThickness 1
  FontColor DimGray
  

  Arrow {
    Color dimgray
    FontColor dimgray
  }

  Start {
    Color PHYSICAL
  }

  End {
    Color Coral
  }

  Diamond {
    BackgroundColor Ivory
    BorderColor CornflowerBlue
    FontColor DarkGray
  }

  BackgroundColor<< Exception >> Red
	BorderColor<< Exception >> White
}

skinparam Swimlane {
  BorderColor CornflowerBlue 
}

skinparam Partition {
  BackgroundColor Ivory
  BorderColor CornflowerBlue
  BorderThickness 1
  FontColor CornflowerBlue
  FontSize 16
  BorderRoundCorner 20
}

skinparam Note {
  BackgroundColor LightSteelBlue
  BorderColor CornflowerBlue
  FontColor White
}

skinparam Legend {
  BackgroundColor LightSteelBlue
  BorderColor CornflowerBlue
  FontColor White
}

skinparam Footer {
  FontColor Navy
}


left header 
	<font color=Navy size=24>[[../index.svg ⌂ Home]]</font>
endheader


	Title Financial Freedom Program

	start

	#PHYSICAL:<&dollar> 500]

	repeat
		->paid;
		:active;
		fork
			:2-day seminars;
		fork again
			:special events;
		fork again
			:case studies;
		fork again
			:member services;

		fork again
			:1 year>
		end fork

		:inactive;

		#PHYSICAL:<&dollar> 200]
	repeat while ()
	


left footer 
	<font size=14>©2019 [[http://www.lifestylesunlimited.com LifeStyles Unlimited]] | Generated Sun Apr 28 19:55:44 CDT 2019</font>
endfooter


@enduml

PlantUML version 1.2019.03(Sun Mar 10 06:04:44 CDT 2019)
(GPL source distribution)
Java Runtime: Java(TM) SE Runtime Environment
JVM: Java HotSpot(TM) 64-Bit Server VM
Java Version: 1.8.0_111-b14
Operating System: Windows 10
OS Version: 10.0
Default Encoding: Cp1252
Language: en
Country: US
--></g></svg>