<?xml version="1.0" encoding="UTF-8" standalone="no"?><svg xmlns="http://www.w3.org/2000/svg" xmlns:xlink="http://www.w3.org/1999/xlink" contentScriptType="application/ecmascript" contentStyleType="text/css" height="1214px" preserveAspectRatio="none" style="width:1559px;height:1214px;" version="1.1" viewBox="0 0 1559 1214" width="1559px" zoomAndPan="magnify"><defs><style type="text/css"><![CDATA[path:hover { stroke: #0000FF !important;}]]></style><filter height="300%" id="fi6aqhsuzbnpy" width="300%" x="-1" y="-1"><feGaussianBlur result="blurOut" stdDeviation="2.0"/><feColorMatrix in="blurOut" result="blurOut2" type="matrix" values="0 0 0 0 0 0 0 0 0 0 0 0 0 0 0 0 0 0 .4 0"/><feOffset dx="4.0" dy="4.0" in="blurOut2" result="blurOut3"/><feBlend in="SourceGraphic" in2="blurOut3" mode="normal"/></filter></defs><g><a href="../index.svg?sanitize=true" target="_top" xlink:actuate="onRequest" xlink:show="new" xlink:title="../index.svg?sanitize=true" xlink:type="simple"><text fill="#0000FF" font-family="sans-serif" font-size="24" lengthAdjust="spacingAndGlyphs" text-decoration="underline" textLength="90" x="10" y="34.9141">⌂ Home</text></a><rect fill="#EEE8AA" height="40.1875" rx="10" ry="10" style="stroke: #000080; stroke-width: 1.5;" width="212" x="672.25" y="42.1875"/><text fill="#000080" font-family="sans-serif" font-size="24" lengthAdjust="spacingAndGlyphs" textLength="196" x="680.25" y="72.1016">Unlimited Lifestyle</text><ellipse cx="742" cy="95.375" fill="#CCFFCC" filter="url(#fi6aqhsuzbnpy)" rx="10" ry="10" style="stroke: none; stroke-width: 1.0;"/><rect fill="#000000" filter="url(#fi6aqhsuzbnpy)" height="6" rx="2.5" ry="2.5" style="stroke: #000000; stroke-width: 1.0;" width="1511.5" x="10" y="169.375"/><rect fill="#FFFFF0" filter="url(#fi6aqhsuzbnpy)" height="361.3125" style="stroke: #6495ED; stroke-width: 1.0;" width="415" x="22" y="228.9844"/><path d="M87,229.9844 L87,242.1094 L77,252.1094 L22,252.1094 " fill="none" style="stroke: #6495ED; stroke-width: 1.0;"/><text fill="#6495ED" font-family="sans-serif" font-size="16" lengthAdjust="spacingAndGlyphs" textLength="55" x="25" y="246.5938">learning</text><rect fill="#000000" filter="url(#fi6aqhsuzbnpy)" height="6" rx="2.5" ry="2.5" style="stroke: #000000; stroke-width: 1.0;" width="377" x="32" y="341.1094"/><rect fill="#FFFFF0" filter="url(#fi6aqhsuzbnpy)" height="35.0938" rx="12.5" ry="12.5" style="stroke: #6495ED; stroke-width: 1.0;" width="84" x="46" y="367.1094"/><text fill="#696969" font-family="sans-serif" font-size="12" lengthAdjust="spacingAndGlyphs" textLength="64" x="56" y="389.5664">watch video</text><rect fill="#FFFFF0" filter="url(#fi6aqhsuzbnpy)" height="35.0938" rx="12.5" ry="12.5" style="stroke: #6495ED; stroke-width: 1.0;" width="86" x="140" y="367.1094"/><text fill="#696969" font-family="sans-serif" font-size="12" lengthAdjust="spacingAndGlyphs" textLength="66" x="150" y="389.5664">attend event</text><rect fill="#FFFFF0" filter="url(#fi6aqhsuzbnpy)" height="35.0938" rx="12.5" ry="12.5" style="stroke: #6495ED; stroke-width: 1.0;" width="143" x="254" y="367.1094"/><text fill="#696969" font-family="sans-serif" font-size="12" lengthAdjust="spacingAndGlyphs" textLength="123" x="264" y="389.5664">member services Q&amp;A</text><rect fill="#000000" filter="url(#fi6aqhsuzbnpy)" height="6" rx="2.5" ry="2.5" style="stroke: #000000; stroke-width: 1.0;" width="377" x="32" y="422.2031"/><rect fill="#FFFFF0" filter="url(#fi6aqhsuzbnpy)" height="35.0938" rx="12.5" ry="12.5" style="stroke: #6495ED; stroke-width: 1.0;" width="123" x="151" y="463.2031"/><text fill="#696969" font-family="sans-serif" font-size="12" lengthAdjust="spacingAndGlyphs" textLength="103" x="161" y="485.6602">document process</text><polygon fill="#FFFFF0" filter="url(#fi6aqhsuzbnpy)" points="212.5,269.1094,224.5,281.1094,212.5,293.1094,200.5,281.1094,212.5,269.1094" style="stroke: #6495ED; stroke-width: 1.0;"/><polygon fill="#FFFFF0" filter="url(#fi6aqhsuzbnpy)" points="212.5,546.2969,212.5,546.2969,224.5,558.2969,212.5,570.2969,212.5,570.2969,200.5,558.2969,212.5,546.2969" style="stroke: #6495ED; stroke-width: 1.0;"/><a href="../single-family/pre-qualification.svg?sanitize=true" target="_top" xlink:actuate="onRequest" xlink:show="new" xlink:title="../single-family/pre-qualification.svg?sanitize=true" xlink:type="simple"><rect fill="#87CEFA" filter="url(#fi6aqhsuzbnpy)" height="35.0938" rx="12.5" ry="12.5" style="stroke: #6495ED; stroke-width: 1.0;" width="108" x="447" y="392.0938"/><text fill="#696969" font-family="sans-serif" font-size="12" lengthAdjust="spacingAndGlyphs" textLength="88" x="457" y="414.5508">pre-qualification</text></a><a href="../single-family/team-building.svg?sanitize=true" target="_top" xlink:actuate="onRequest" xlink:show="new" xlink:title="../single-family/team-building.svg?sanitize=true" xlink:type="simple"><rect fill="#87CEFA" filter="url(#fi6aqhsuzbnpy)" height="35.0938" rx="12.5" ry="12.5" style="stroke: #6495ED; stroke-width: 1.0;" width="78" x="565" y="392.0938"/><text fill="#696969" font-family="sans-serif" font-size="12" lengthAdjust="spacingAndGlyphs" textLength="58" x="575" y="414.5508">build team</text></a><a href="credit-cards.svg?sanitize=true" target="_top" xlink:actuate="onRequest" xlink:show="new" xlink:title="credit-cards.svg?sanitize=true" xlink:type="simple"><rect fill="#87CEFA" filter="url(#fi6aqhsuzbnpy)" height="35.0938" rx="12.5" ry="12.5" style="stroke: #6495ED; stroke-width: 1.0;" width="121" x="671" y="392.0938"/><text fill="#696969" font-family="sans-serif" font-size="12" lengthAdjust="spacingAndGlyphs" textLength="101" x="681" y="414.5508">repair / build credit</text></a><rect fill="#FFFFF0" filter="url(#fi6aqhsuzbnpy)" height="75.2813" rx="12.5" ry="12.5" style="stroke: #6495ED; stroke-width: 1.0;" width="136" x="820" y="372"/><text fill="#696969" font-family="sans-serif" font-size="12" lengthAdjust="spacingAndGlyphs" textLength="116" x="830" y="394.457">get your money liquid</text><line style="stroke: #6495ED; stroke-width: 1.0;" x1="820" x2="956" y1="402.0938" y2="402.0938"/><text fill="#696969" font-family="sans-serif" font-size="12" lengthAdjust="spacingAndGlyphs" textLength="29" x="830" y="419.5508">401K</text><text fill="#696969" font-family="sans-serif" font-size="12" lengthAdjust="spacingAndGlyphs" textLength="67" x="830" y="434.6445">Investments</text><rect fill="#FFFFF0" filter="url(#fi6aqhsuzbnpy)" height="444.335" style="stroke: #6495ED; stroke-width: 1.0;" width="525.5" x="984" y="186.3906"/><path d="M1039,187.3906 L1039,199.5156 L1029,209.5156 L984,209.5156 " fill="none" style="stroke: #6495ED; stroke-width: 1.0;"/><text fill="#6495ED" font-family="sans-serif" font-size="16" lengthAdjust="spacingAndGlyphs" textLength="45" x="987" y="204">saving</text><rect fill="#FFFFF0" filter="url(#fi6aqhsuzbnpy)" height="35.0938" rx="12.5" ry="12.5" style="stroke: #6495ED; stroke-width: 1.0;" width="46" x="1212.5" y="298.5156"/><text fill="#696969" font-family="sans-serif" font-size="12" lengthAdjust="spacingAndGlyphs" textLength="26" x="1222.5" y="320.9727">work</text><rect fill="#FFFFF0" filter="url(#fi6aqhsuzbnpy)" height="35.0938" rx="12.5" ry="12.5" style="stroke: #6495ED; stroke-width: 1.0;" width="71" x="1200" y="368.6094"/><text fill="#696969" font-family="sans-serif" font-size="12" lengthAdjust="spacingAndGlyphs" textLength="51" x="1210" y="391.0664">paycheck</text><rect fill="#000000" filter="url(#fi6aqhsuzbnpy)" height="6" rx="2.5" ry="2.5" style="stroke: #000000; stroke-width: 1.0;" width="487.5" x="994" y="438.7031"/><rect fill="#FFFFF0" filter="url(#fi6aqhsuzbnpy)" height="50.1875" rx="12.5" ry="12.5" style="stroke: #6495ED; stroke-width: 1.0;" width="156" x="1008" y="464.7031"/><text fill="#696969" font-family="sans-serif" font-size="12" lengthAdjust="spacingAndGlyphs" textLength="136" x="1018" y="487.1602">save &gt;= 60% of earnings</text><text fill="#696969" font-family="sans-serif" font-size="12" font-style="italic" lengthAdjust="spacingAndGlyphs" textLength="61" x="1018" y="502.2539">2% interest</text><path d="M1185.5,476.6211 L1185.5,502.9727 L1285.5,502.9727 L1285.5,486.6211 L1275.5,476.6211 L1185.5,476.6211 " fill="#B0C4DE" filter="url(#fi6aqhsuzbnpy)" style="stroke: #6495ED; stroke-width: 1.0;"/><path d="M1275.5,476.6211 L1275.5,486.6211 L1285.5,486.6211 L1275.5,476.6211 " fill="#B0C4DE" style="stroke: #6495ED; stroke-width: 1.0;"/><text fill="#FFFFFF" font-family="sans-serif" font-size="13" font-style="italic" lengthAdjust="spacingAndGlyphs" textLength="79" x="1191.5" y="495.1162">act your wage</text><rect fill="#FFFFF0" filter="url(#fi6aqhsuzbnpy)" height="35.0938" rx="12.5" ry="12.5" style="stroke: #6495ED; stroke-width: 1.0;" width="164" x="1305.5" y="472.25"/><text fill="#696969" font-family="sans-serif" font-size="12" lengthAdjust="spacingAndGlyphs" textLength="144" x="1315.5" y="494.707">live off &lt;= 40% of earnings</text><rect fill="#000000" filter="url(#fi6aqhsuzbnpy)" height="6" rx="2.5" ry="2.5" style="stroke: #000000; stroke-width: 1.0;" width="487.5" x="994" y="534.8906"/><polygon fill="#FFFFF0" filter="url(#fi6aqhsuzbnpy)" points="1235.5,226.5156,1247.5,238.5156,1235.5,250.5156,1223.5,238.5156,1235.5,226.5156" style="stroke: #6495ED; stroke-width: 1.0;"/><polygon fill="#FFFFF0" filter="url(#fi6aqhsuzbnpy)" points="1186,588.8906,1285,588.8906,1297,600.8906,1285,612.8906,1186,612.8906,1174,600.8906,1186,588.8906" style="stroke: #6495ED; stroke-width: 1.0;"/><text fill="#A9A9A9" font-family="sans-serif" font-size="11" lengthAdjust="spacingAndGlyphs" textLength="99" x="1186" y="605.3916">have money for deal</text><rect fill="#000000" filter="url(#fi6aqhsuzbnpy)" height="6" rx="2.5" ry="2.5" style="stroke: #000000; stroke-width: 1.0;" width="1511.5" x="10" y="650.7256"/><rect fill="#CCFFCC" filter="url(#fi6aqhsuzbnpy)" height="35.0938" style="stroke: #6495ED; stroke-width: 1.0;" width="158" x="663" y="676.7256"/><path d="M677,690.8193 L677,691.8193 L676.25,691.8193 C675.564,691.8193 675,692.3833 675,693.0693 L675,693.5693 C675,694.2473 675.437,694.8113 676.094,694.9753 L678.657,695.6313 C678.8,695.6673 679.001,695.9273 679.001,696.0693 L679.001,696.5693 C679.001,696.7033 678.885,696.8193 678.751,696.8193 L676.251,696.8193 C676.135,696.8193 676.039,696.7823 676.001,696.7563 L676.001,695.8183 L675.001,695.8183 L675.001,696.8183 C675.001,697.1603 675.204,697.4453 675.439,697.5993 C675.673,697.7543 675.957,697.8183 676.252,697.8183 L677.002,697.8183 L677.002,698.8183 L678.002,698.8183 L678.002,697.8183 L678.752,697.8183 C679.438,697.8183 680.002,697.2543 680.002,696.5683 L680.002,696.0683 C680.002,695.3903 679.565,694.8263 678.908,694.6623 L676.345,694.0063 C676.202,693.9703 676.001,693.7103 676.001,693.5683 L676.001,693.0683 C676.001,692.9343 676.117,692.8183 676.251,692.8183 L678.751,692.8183 C678.867,692.8183 678.963,692.8553 679.001,692.8813 L679.001,693.8193 L680.001,693.8193 L680.001,692.8193 C680.001,692.4773 679.798,692.1923 679.563,692.0383 C679.329,691.8833 679.045,691.8193 678.75,691.8193 L678,691.8193 L678,690.8193 L677,690.8193 " fill="#696969" style="stroke: ; stroke-width: 0.0; stroke-dasharray: ;"/><text fill="#696969" font-family="sans-serif" font-size="12" lengthAdjust="spacingAndGlyphs" textLength="125" x="686" y="699.1826">separate bank account</text><polygon fill="#FFFFF0" filter="url(#fi6aqhsuzbnpy)" points="707.5,731.8193,776.5,731.8193,788.5,743.8193,776.5,755.8193,707.5,755.8193,695.5,743.8193,707.5,731.8193" style="stroke: #6495ED; stroke-width: 1.0;"/><text fill="#A9A9A9" font-family="sans-serif" font-size="11" lengthAdjust="spacingAndGlyphs" textLength="69" x="707.5" y="748.3203">have &gt; 50,000</text><text fill="#696969" font-family="sans-serif" font-size="11" lengthAdjust="spacingAndGlyphs" textLength="18" x="677.5" y="741.4023">yes</text><text fill="#696969" font-family="sans-serif" font-size="11" lengthAdjust="spacingAndGlyphs" textLength="12" x="788.5" y="741.4023">no</text><a href="legal.svg?sanitize=true" target="_top" xlink:actuate="onRequest" xlink:show="new" xlink:title="legal.svg?sanitize=true" xlink:type="simple"><rect fill="#87CEFA" filter="url(#fi6aqhsuzbnpy)" height="35.0938" rx="12.5" ry="12.5" style="stroke: #6495ED; stroke-width: 1.0;" width="98" x="626.25" y="765.8193"/><text fill="#696969" font-family="sans-serif" font-size="12" lengthAdjust="spacingAndGlyphs" textLength="78" x="636.25" y="788.2764">structure legal</text></a><a href="../multi-family/multi-family-deal.svg?sanitize=true" target="_top" xlink:actuate="onRequest" xlink:show="new" xlink:title="../multi-family/multi-family-deal.svg?sanitize=true" xlink:type="simple"><rect fill="#87CEFA" filter="url(#fi6aqhsuzbnpy)" height="50.1875" rx="12.5" ry="12.5" style="stroke: #6495ED; stroke-width: 1.0;" width="110" x="620.25" y="835.9131"/><text fill="#696969" font-family="sans-serif" font-size="12" lengthAdjust="spacingAndGlyphs" textLength="67" x="630.25" y="858.3701">do (another)</text><text fill="#696969" font-family="sans-serif" font-size="12" lengthAdjust="spacingAndGlyphs" textLength="90" x="630.25" y="873.4639">multi-family deal</text></a><path d="M887.25,765.8193 L887.25,801.5225 L867.25,805.5225 L887.25,809.5225 L887.25,845.2256 A0,0 0 0 0 887.25,845.2256 L1012.25,845.2256 A0,0 0 0 0 1012.25,845.2256 L1012.25,775.8193 L1002.25,765.8193 L887.25,765.8193 A0,0 0 0 0 887.25,765.8193 " fill="#B0C4DE" filter="url(#fi6aqhsuzbnpy)" style="stroke: #6495ED; stroke-width: 1.0;"/><path d="M1002.25,765.8193 L1002.25,775.8193 L1012.25,775.8193 L1002.25,765.8193 " fill="#B0C4DE" style="stroke: #6495ED; stroke-width: 1.0;"/><text fill="#FFFFFF" font-family="sans-serif" font-size="13" font-weight="bold" lengthAdjust="spacingAndGlyphs" textLength="24" x="893.25" y="786.3145">City</text><text fill="#FFFFFF" font-family="sans-serif" font-size="13" font-weight="bold" lengthAdjust="spacingAndGlyphs" textLength="33" x="964.25" y="786.3145">All In</text><text fill="#FFFFFF" font-family="sans-serif" font-size="13" lengthAdjust="spacingAndGlyphs" textLength="36" x="893.25" y="802.666">Dallas</text><text fill="#FFFFFF" font-family="sans-serif" font-size="13" lengthAdjust="spacingAndGlyphs" textLength="21" x="964.25" y="802.666">40k</text><text fill="#FFFFFF" font-family="sans-serif" font-size="13" lengthAdjust="spacingAndGlyphs" textLength="48" x="893.25" y="819.0176">Houston</text><text fill="#FFFFFF" font-family="sans-serif" font-size="13" lengthAdjust="spacingAndGlyphs" textLength="21" x="964.25" y="819.0176">??k</text><text fill="#FFFFFF" font-family="sans-serif" font-size="13" lengthAdjust="spacingAndGlyphs" textLength="71" x="893.25" y="835.3691">San Antonio</text><text fill="#FFFFFF" font-family="sans-serif" font-size="13" lengthAdjust="spacingAndGlyphs" textLength="21" x="964.25" y="835.3691">??k</text><line style="stroke: #FFFFFF; stroke-width: 1.0;" x1="893.25" x2="997.25" y1="772.8193" y2="772.8193"/><line style="stroke: #FFFFFF; stroke-width: 1.0;" x1="893.25" x2="997.25" y1="789.1709" y2="789.1709"/><line style="stroke: #FFFFFF; stroke-width: 1.0;" x1="893.25" x2="997.25" y1="805.5225" y2="805.5225"/><line style="stroke: #FFFFFF; stroke-width: 1.0;" x1="893.25" x2="997.25" y1="821.874" y2="821.874"/><line style="stroke: #FFFFFF; stroke-width: 1.0;" x1="893.25" x2="997.25" y1="838.2256" y2="838.2256"/><line style="stroke: #FFFFFF; stroke-width: 1.0;" x1="893.25" x2="893.25" y1="772.8193" y2="838.2256"/><line style="stroke: #FFFFFF; stroke-width: 1.0;" x1="964.25" x2="964.25" y1="772.8193" y2="838.2256"/><line style="stroke: #FFFFFF; stroke-width: 1.0;" x1="997.25" x2="997.25" y1="772.8193" y2="838.2256"/><a href="../single-family/single-family-deal.svg?sanitize=true" target="_top" xlink:actuate="onRequest" xlink:show="new" xlink:title="../single-family/single-family-deal.svg?sanitize=true" xlink:type="simple"><rect fill="#87CEFA" filter="url(#fi6aqhsuzbnpy)" height="50.1875" rx="12.5" ry="12.5" style="stroke: #6495ED; stroke-width: 1.0;" width="117" x="750.25" y="780.4287"/><text fill="#696969" font-family="sans-serif" font-size="12" lengthAdjust="spacingAndGlyphs" textLength="67" x="760.25" y="802.8857">do (another)</text><text fill="#696969" font-family="sans-serif" font-size="12" lengthAdjust="spacingAndGlyphs" textLength="97" x="760.25" y="817.9795">single-family deal</text></a><polygon fill="#FFFFF0" filter="url(#fi6aqhsuzbnpy)" points="742,892.1006,754,904.1006,742,916.1006,730,904.1006,742,892.1006" style="stroke: #6495ED; stroke-width: 1.0;"/><rect fill="#FFFFF0" filter="url(#fi6aqhsuzbnpy)" height="35.0938" rx="12.5" ry="12.5" style="stroke: #6495ED; stroke-width: 1.0;" width="99" x="692.5" y="936.1006"/><text fill="#696969" font-family="sans-serif" font-size="12" lengthAdjust="spacingAndGlyphs" textLength="79" x="702.5" y="958.5576">refine process</text><polygon fill="#FFFFF0" filter="url(#fi6aqhsuzbnpy)" points="742,125.375,754,137.375,742,149.375,730,137.375,742,125.375" style="stroke: #6495ED; stroke-width: 1.0;"/><polygon fill="#FFFFF0" filter="url(#fi6aqhsuzbnpy)" points="676,991.1943,808,991.1943,820,1003.1943,808,1015.1943,676,1015.1943,664,1003.1943,676,991.1943" style="stroke: #6495ED; stroke-width: 1.0;"/><text fill="#A9A9A9" font-family="sans-serif" font-size="11" lengthAdjust="spacingAndGlyphs" textLength="132" x="676" y="1007.6953">can live off passive income</text><rect fill="#FFFFF0" filter="url(#fi6aqhsuzbnpy)" height="35.0938" rx="12.5" ry="12.5" style="stroke: #6495ED; stroke-width: 1.0;" width="60" x="712" y="1057.4473"/><text fill="#696969" font-family="sans-serif" font-size="12" lengthAdjust="spacingAndGlyphs" textLength="40" x="722" y="1079.9043">quit job</text><a href="taxes.svg?sanitize=true" target="_top" xlink:actuate="onRequest" xlink:show="new" xlink:title="taxes.svg?sanitize=true" xlink:type="simple"><rect fill="#87CEFA" filter="url(#fi6aqhsuzbnpy)" height="35.0938" rx="12.5" ry="12.5" style="stroke: #6495ED; stroke-width: 1.0;" width="71" x="706.5" y="1112.541"/><text fill="#696969" font-family="sans-serif" font-size="12" lengthAdjust="spacingAndGlyphs" textLength="51" x="716.5" y="1134.998">pay taxes</text></a><ellipse cx="742" cy="1177.6348" fill="#FFFFFF" filter="url(#fi6aqhsuzbnpy)" rx="10" ry="10" style="stroke: #FF7F50; stroke-width: 1.5;"/><line style="stroke: #FF7F50; stroke-width: 2.5;" x1="735.8128" x2="748.1872" y1="1171.4476" y2="1183.8219"/><line style="stroke: #FF7F50; stroke-width: 2.5;" x1="748.1872" x2="735.8128" y1="1171.4476" y2="1183.8219"/><line style="stroke: #696969; stroke-width: 1.5;" x1="88" x2="88" y1="347.1094" y2="367.1094"/><polygon fill="#696969" points="84,357.1094,88,367.1094,92,357.1094,88,361.1094" style="stroke: #696969; stroke-width: 1.0;"/><line style="stroke: #696969; stroke-width: 1.5;" x1="183" x2="183" y1="347.1094" y2="367.1094"/><polygon fill="#696969" points="179,357.1094,183,367.1094,187,357.1094,183,361.1094" style="stroke: #696969; stroke-width: 1.0;"/><line style="stroke: #696969; stroke-width: 1.5;" x1="325.5" x2="325.5" y1="347.1094" y2="367.1094"/><polygon fill="#696969" points="321.5,357.1094,325.5,367.1094,329.5,357.1094,325.5,361.1094" style="stroke: #696969; stroke-width: 1.0;"/><line style="stroke: #696969; stroke-width: 1.5;" x1="88" x2="88" y1="402.2031" y2="422.2031"/><polygon fill="#696969" points="84,412.2031,88,422.2031,92,412.2031,88,416.2031" style="stroke: #696969; stroke-width: 1.0;"/><line style="stroke: #696969; stroke-width: 1.5;" x1="183" x2="183" y1="402.2031" y2="422.2031"/><polygon fill="#696969" points="179,412.2031,183,422.2031,187,412.2031,183,416.2031" style="stroke: #696969; stroke-width: 1.0;"/><line style="stroke: #696969; stroke-width: 1.5;" x1="325.5" x2="325.5" y1="402.2031" y2="422.2031"/><polygon fill="#696969" points="321.5,412.2031,325.5,422.2031,329.5,412.2031,325.5,416.2031" style="stroke: #696969; stroke-width: 1.0;"/><line style="stroke: #696969; stroke-width: 1.5;" x1="212.5" x2="212.5" y1="428.2031" y2="463.2031"/><polygon fill="#696969" points="208.5,453.2031,212.5,463.2031,216.5,453.2031,212.5,457.2031" style="stroke: #696969; stroke-width: 1.0;"/><line style="stroke: #696969; stroke-width: 1.5;" x1="212.5" x2="212.5" y1="293.1094" y2="341.1094"/><polygon fill="#696969" points="208.5,331.1094,212.5,341.1094,216.5,331.1094,212.5,335.1094" style="stroke: #696969; stroke-width: 1.0;"/><line style="stroke: #696969; stroke-width: 1.5;" x1="224.5" x2="421" y1="558.2969" y2="558.2969"/><polygon fill="#696969" points="417,429.7031,421,419.7031,425,429.7031,421,425.7031" style="stroke: #696969; stroke-width: 1.5;"/><line style="stroke: #696969; stroke-width: 1.5;" x1="421" x2="421" y1="281.1094" y2="558.2969"/><line style="stroke: #696969; stroke-width: 1.5;" x1="421" x2="224.5" y1="281.1094" y2="281.1094"/><polygon fill="#696969" points="234.5,277.1094,224.5,281.1094,234.5,285.1094,230.5,281.1094" style="stroke: #696969; stroke-width: 1.0;"/><line style="stroke: #696969; stroke-width: 1.5;" x1="212.5" x2="212.5" y1="498.2969" y2="546.2969"/><polygon fill="#696969" points="208.5,536.2969,212.5,546.2969,216.5,536.2969,212.5,540.2969" style="stroke: #696969; stroke-width: 1.0;"/><line style="stroke: #696969; stroke-width: 1.5;" x1="1235.5" x2="1235.5" y1="333.6094" y2="368.6094"/><polygon fill="#696969" points="1231.5,358.6094,1235.5,368.6094,1239.5,358.6094,1235.5,362.6094" style="stroke: #696969; stroke-width: 1.0;"/><line style="stroke: #696969; stroke-width: 1.5;" x1="1086" x2="1086" y1="444.7031" y2="464.7031"/><polygon fill="#696969" points="1082,454.7031,1086,464.7031,1090,454.7031,1086,458.7031" style="stroke: #696969; stroke-width: 1.0;"/><line style="stroke: #696969; stroke-width: 1.5;" x1="1387.5" x2="1387.5" y1="444.7031" y2="472.25"/><polygon fill="#696969" points="1383.5,462.25,1387.5,472.25,1391.5,462.25,1387.5,466.25" style="stroke: #696969; stroke-width: 1.0;"/><line style="stroke: #696969; stroke-width: 1.5;" x1="1086" x2="1086" y1="514.8906" y2="534.8906"/><polygon fill="#696969" points="1082,524.8906,1086,534.8906,1090,524.8906,1086,528.8906" style="stroke: #696969; stroke-width: 1.0;"/><line style="stroke: #696969; stroke-width: 1.5;" x1="1387.5" x2="1387.5" y1="507.3438" y2="534.8906"/><polygon fill="#696969" points="1383.5,524.8906,1387.5,534.8906,1391.5,524.8906,1387.5,528.8906" style="stroke: #696969; stroke-width: 1.0;"/><line style="stroke: #696969; stroke-width: 1.5;" x1="1235.5" x2="1235.5" y1="403.7031" y2="438.7031"/><polygon fill="#696969" points="1231.5,428.7031,1235.5,438.7031,1239.5,428.7031,1235.5,432.7031" style="stroke: #696969; stroke-width: 1.0;"/><line style="stroke: #696969; stroke-width: 1.5;" x1="1235.5" x2="1235.5" y1="250.5156" y2="298.5156"/><polygon fill="#696969" points="1231.5,288.5156,1235.5,298.5156,1239.5,288.5156,1235.5,292.5156" style="stroke: #696969; stroke-width: 1.0;"/><line style="stroke: #696969; stroke-width: 1.5;" x1="1297" x2="1493.5" y1="600.8906" y2="600.8906"/><polygon fill="#696969" points="1489.5,429.7031,1493.5,419.7031,1497.5,429.7031,1493.5,425.7031" style="stroke: #696969; stroke-width: 1.5;"/><line style="stroke: #696969; stroke-width: 1.5;" x1="1493.5" x2="1493.5" y1="238.5156" y2="600.8906"/><line style="stroke: #696969; stroke-width: 1.5;" x1="1493.5" x2="1247.5" y1="238.5156" y2="238.5156"/><polygon fill="#696969" points="1257.5,234.5156,1247.5,238.5156,1257.5,242.5156,1253.5,238.5156" style="stroke: #696969; stroke-width: 1.0;"/><line style="stroke: #696969; stroke-width: 1.5;" x1="1235.5" x2="1235.5" y1="540.8906" y2="588.8906"/><polygon fill="#696969" points="1231.5,578.8906,1235.5,588.8906,1239.5,578.8906,1235.5,582.8906" style="stroke: #696969; stroke-width: 1.0;"/><line style="stroke: #696969; stroke-width: 1.5;" x1="212.5" x2="212.5" y1="175.375" y2="269.1094"/><polygon fill="#696969" points="208.5,259.1094,212.5,269.1094,216.5,259.1094,212.5,263.1094" style="stroke: #696969; stroke-width: 1.0;"/><line style="stroke: #696969; stroke-width: 1.5;" x1="501" x2="501" y1="175.375" y2="392.0938"/><polygon fill="#696969" points="497,382.0938,501,392.0938,505,382.0938,501,386.0938" style="stroke: #696969; stroke-width: 1.0;"/><line style="stroke: #696969; stroke-width: 1.5;" x1="604" x2="604" y1="175.375" y2="392.0938"/><polygon fill="#696969" points="600,382.0938,604,392.0938,608,382.0938,604,386.0938" style="stroke: #696969; stroke-width: 1.0;"/><line style="stroke: #696969; stroke-width: 1.5;" x1="731.5" x2="731.5" y1="175.375" y2="392.0938"/><polygon fill="#696969" points="727.5,382.0938,731.5,392.0938,735.5,382.0938,731.5,386.0938" style="stroke: #696969; stroke-width: 1.0;"/><line style="stroke: #696969; stroke-width: 1.5;" x1="888" x2="888" y1="175.375" y2="372"/><polygon fill="#696969" points="884,362,888,372,892,362,888,366" style="stroke: #696969; stroke-width: 1.0;"/><line style="stroke: #696969; stroke-width: 1.5;" x1="1235.5" x2="1235.5" y1="175.375" y2="226.5156"/><polygon fill="#696969" points="1231.5,216.5156,1235.5,226.5156,1239.5,216.5156,1235.5,220.5156" style="stroke: #696969; stroke-width: 1.0;"/><line style="stroke: #696969; stroke-width: 1.5;" x1="212.5" x2="212.5" y1="570.2969" y2="650.7256"/><polygon fill="#696969" points="208.5,640.7256,212.5,650.7256,216.5,640.7256,212.5,644.7256" style="stroke: #696969; stroke-width: 1.0;"/><line style="stroke: #696969; stroke-width: 1.5;" x1="501" x2="501" y1="427.1875" y2="650.7256"/><polygon fill="#696969" points="497,640.7256,501,650.7256,505,640.7256,501,644.7256" style="stroke: #696969; stroke-width: 1.0;"/><line style="stroke: #696969; stroke-width: 1.5;" x1="604" x2="604" y1="427.1875" y2="650.7256"/><polygon fill="#696969" points="600,640.7256,604,650.7256,608,640.7256,604,644.7256" style="stroke: #696969; stroke-width: 1.0;"/><line style="stroke: #696969; stroke-width: 1.5;" x1="731.5" x2="731.5" y1="427.1875" y2="650.7256"/><polygon fill="#696969" points="727.5,640.7256,731.5,650.7256,735.5,640.7256,731.5,644.7256" style="stroke: #696969; stroke-width: 1.0;"/><line style="stroke: #696969; stroke-width: 1.5;" x1="888" x2="888" y1="447.2813" y2="650.7256"/><polygon fill="#696969" points="884,640.7256,888,650.7256,892,640.7256,888,644.7256" style="stroke: #696969; stroke-width: 1.0;"/><line style="stroke: #696969; stroke-width: 1.5;" x1="1235.5" x2="1235.5" y1="612.8906" y2="650.7256"/><polygon fill="#696969" points="1231.5,640.7256,1235.5,650.7256,1239.5,640.7256,1235.5,644.7256" style="stroke: #696969; stroke-width: 1.0;"/><text fill="#696969" font-family="sans-serif" font-size="11" lengthAdjust="spacingAndGlyphs" textLength="18" x="1239.5" y="635.2266">yes</text><line style="stroke: #696969; stroke-width: 1.5;" x1="742" x2="742" y1="656.7256" y2="676.7256"/><polygon fill="#696969" points="738,666.7256,742,676.7256,746,666.7256,742,670.7256" style="stroke: #696969; stroke-width: 1.0;"/><line style="stroke: #696969; stroke-width: 1.5;" x1="675.25" x2="675.25" y1="800.9131" y2="835.9131"/><polygon fill="#696969" points="671.25,825.9131,675.25,835.9131,679.25,825.9131,675.25,829.9131" style="stroke: #696969; stroke-width: 1.0;"/><line style="stroke: #696969; stroke-width: 1.5;" x1="695.5" x2="675.25" y1="743.8193" y2="743.8193"/><line style="stroke: #696969; stroke-width: 1.5;" x1="675.25" x2="675.25" y1="743.8193" y2="765.8193"/><polygon fill="#696969" points="671.25,755.8193,675.25,765.8193,679.25,755.8193,675.25,759.8193" style="stroke: #696969; stroke-width: 1.0;"/><line style="stroke: #696969; stroke-width: 1.5;" x1="788.5" x2="808.75" y1="743.8193" y2="743.8193"/><line style="stroke: #696969; stroke-width: 1.5;" x1="808.75" x2="808.75" y1="743.8193" y2="780.4287"/><polygon fill="#696969" points="804.75,770.4287,808.75,780.4287,812.75,770.4287,808.75,774.4287" style="stroke: #696969; stroke-width: 1.0;"/><line style="stroke: #696969; stroke-width: 1.5;" x1="675.25" x2="675.25" y1="886.1006" y2="904.1006"/><line style="stroke: #696969; stroke-width: 1.5;" x1="675.25" x2="730" y1="904.1006" y2="904.1006"/><polygon fill="#696969" points="720,900.1006,730,904.1006,720,908.1006,724,904.1006" style="stroke: #696969; stroke-width: 1.0;"/><line style="stroke: #696969; stroke-width: 1.5;" x1="808.75" x2="808.75" y1="830.6162" y2="904.1006"/><line style="stroke: #696969; stroke-width: 1.5;" x1="808.75" x2="754" y1="904.1006" y2="904.1006"/><polygon fill="#696969" points="764,900.1006,754,904.1006,764,908.1006,760,904.1006" style="stroke: #696969; stroke-width: 1.0;"/><line style="stroke: #696969; stroke-width: 1.5;" x1="742" x2="742" y1="711.8193" y2="731.8193"/><polygon fill="#696969" points="738,721.8193,742,731.8193,746,721.8193,742,725.8193" style="stroke: #696969; stroke-width: 1.0;"/><line style="stroke: #696969; stroke-width: 1.5;" x1="742" x2="742" y1="916.1006" y2="936.1006"/><polygon fill="#696969" points="738,926.1006,742,936.1006,746,926.1006,742,930.1006" style="stroke: #696969; stroke-width: 1.0;"/><line style="stroke: #696969; stroke-width: 1.5;" x1="742" x2="742" y1="149.375" y2="169.375"/><polygon fill="#696969" points="738,159.375,742,169.375,746,159.375,742,163.375" style="stroke: #696969; stroke-width: 1.0;"/><line style="stroke: #696969; stroke-width: 1.5;" x1="820" x2="1533.5" y1="1003.1943" y2="1003.1943"/><polygon fill="#696969" points="1529.5,599.375,1533.5,589.375,1537.5,599.375,1533.5,595.375" style="stroke: #696969; stroke-width: 1.5;"/><line style="stroke: #696969; stroke-width: 1.5;" x1="1533.5" x2="1533.5" y1="137.375" y2="1003.1943"/><line style="stroke: #696969; stroke-width: 1.5;" x1="1533.5" x2="754" y1="137.375" y2="137.375"/><polygon fill="#696969" points="764,133.375,754,137.375,764,141.375,760,137.375" style="stroke: #696969; stroke-width: 1.0;"/><line style="stroke: #696969; stroke-width: 1.5;" x1="742" x2="742" y1="971.1943" y2="991.1943"/><polygon fill="#696969" points="738,981.1943,742,991.1943,746,981.1943,742,985.1943" style="stroke: #696969; stroke-width: 1.0;"/><line style="stroke: #696969; stroke-width: 1.5;" x1="742" x2="742" y1="105.375" y2="125.375"/><polygon fill="#696969" points="738,115.375,742,125.375,746,115.375,742,119.375" style="stroke: #696969; stroke-width: 1.0;"/><line style="stroke: #696969; stroke-width: 1.5;" x1="742" x2="742" y1="1015.1943" y2="1057.4473"/><polygon fill="#696969" points="738,1047.4473,742,1057.4473,746,1047.4473,742,1051.4473" style="stroke: #696969; stroke-width: 1.0;"/><text fill="#696969" font-family="sans-serif" font-size="11" lengthAdjust="spacingAndGlyphs" textLength="18" x="746" y="1037.5303">yes</text><line style="stroke: #696969; stroke-width: 1.5;" x1="742" x2="742" y1="1092.541" y2="1112.541"/><polygon fill="#696969" points="738,1102.541,742,1112.541,746,1102.541,742,1106.541" style="stroke: #696969; stroke-width: 1.0;"/><line style="stroke: #696969; stroke-width: 1.5;" x1="742" x2="742" y1="1147.6348" y2="1167.6348"/><polygon fill="#696969" points="738,1157.6348,742,1167.6348,746,1157.6348,742,1161.6348" style="stroke: #696969; stroke-width: 1.0;"/><text fill="#000080" font-family="sans-serif" font-size="14" lengthAdjust="spacingAndGlyphs" textLength="42" x="10" y="1201.168">©2019</text><a href="http://www.lifestylesunlimited.com" target="_top" xlink:actuate="onRequest" xlink:show="new" xlink:title="http://www.lifestylesunlimited.com" xlink:type="simple"><text fill="#0000FF" font-family="sans-serif" font-size="14" lengthAdjust="spacingAndGlyphs" text-decoration="underline" textLength="122" x="56" y="1201.168">LifeStyles Unlimited</text></a><text fill="#000080" font-family="sans-serif" font-size="14" lengthAdjust="spacingAndGlyphs" textLength="131" x="182" y="1201.168">| Generated %date%</text><!--
@startuml index


skinparam {
  BorderColor Red
  PathHoverColor Blue
}

skinparam Title {
  FontColor Navy
  BackgroundColor PaleGoldenRod
  BorderColor Navy
  BorderRoundCorner 20
  FontSize 24
}

skinparam activity {
  BackgroundColor Ivory
  BorderColor CornflowerBlue
  BorderThickness 1
  FontColor DimGray
  

  Arrow {
    Color dimgray
    FontColor dimgray
  }

  Start {
    Color PHYSICAL
  }

  End {
    Color Coral
  }

  Diamond {
    BackgroundColor Ivory
    BorderColor CornflowerBlue
    FontColor DarkGray
  }

  BackgroundColor<< Exception >> Red
	BorderColor<< Exception >> White
}

skinparam Swimlane {
  BorderColor CornflowerBlue 
}

skinparam Partition {
  BackgroundColor Ivory
  BorderColor CornflowerBlue
  BorderThickness 1
  FontColor CornflowerBlue
  FontSize 16
  BorderRoundCorner 20
}

skinparam Note {
  BackgroundColor LightSteelBlue
  BorderColor CornflowerBlue
  FontColor White
}

skinparam Legend {
  BackgroundColor LightSteelBlue
  BorderColor CornflowerBlue
  FontColor White
}

skinparam Footer {
  FontColor Navy
}


left header 
	<font color=Navy size=24>[[../index.svg?sanitize=true ⌂ Home]]</font>
endheader


	Title Unlimited Lifestyle

	start

		repeat

			fork
				partition learning {
					repeat
						fork
							:watch video;
						fork again
							:attend event;
						fork again
							:member services Q&A;
						end fork
						:document process;
					repeat while ()
				}
			fork again
				[[../single-family/pre-qualification.svg?sanitize=true]]#LightSkyBlue:pre-qualification;

			fork again
				[[../single-family/team-building.svg?sanitize=true]]#LightSkyBlue:build team;
			fork again
				[[credit-cards.svg?sanitize=true]]#LightSkyBlue:repair / build credit;
			fork again
				:get your money liquid
				- - - -
				401K
				Investments;
			fork again
				partition saving {
					repeat
						:work;
						:paycheck;
						fork
							:save >= 60% of earnings\n<i>2% interest;
						fork again
							:live off <= 40% of earnings;
							floating note left:<i>act your wage
						end fork

					repeat while (have money for deal)
					->yes;
				}
			end fork
			#PHYSICAL:<&dollar> separate bank account]
			if(have > 50,000) then (yes)
				[[legal.svg?sanitize=true]]#LightSkyBlue:structure legal;
				[[../multi-family/multi-family-deal.svg?sanitize=true]]#LightSkyBlue:do (another)\nmulti-family deal;
			else (no)
				[[../single-family/single-family-deal.svg?sanitize=true]]#LightSkyBlue:do (another)\nsingle-family deal;
				note right
					||City||All In||
					|Dallas|40k|
					|Houston|??k|
					|San Antonio|??k|
				end note
			endif
			:refine process;
		repeat while (can live off passive income)
		->yes;
		:quit job;

		[[taxes.svg?sanitize=true]]#LightSkyBlue:pay taxes;


	end


left footer 
	<font size=14>©2019 [[http://www.lifestylesunlimited.com LifeStyles Unlimited]] | Generated %date%</font>
endfooter


@enduml

PlantUML version 1.2019.06(Fri May 24 12:10:25 CDT 2019)
(GPL source distribution)
Java Runtime: Java(TM) SE Runtime Environment
JVM: Java HotSpot(TM) Client VM
Java Version: 1.8.0_211-b12
Operating System: Windows 10
OS Version: 10.0
Default Encoding: Cp1252
Language: en
Country: US
--></g></svg>