<?xml version="1.0" encoding="UTF-8" standalone="no"?><svg xmlns="http://www.w3.org/2000/svg" xmlns:xlink="http://www.w3.org/1999/xlink" contentScriptType="application/ecmascript" contentStyleType="text/css" height="940px" preserveAspectRatio="none" style="width:1435px;height:940px;" version="1.1" viewBox="0 0 1435 940" width="1435px" zoomAndPan="magnify"><defs><style type="text/css"><![CDATA[path:hover { stroke: #0000FF !important;}]]></style><filter height="300%" id="f1w0kz0mytzf1w" width="300%" x="-1" y="-1"><feGaussianBlur result="blurOut" stdDeviation="2.0"/><feColorMatrix in="blurOut" result="blurOut2" type="matrix" values="0 0 0 0 0 0 0 0 0 0 0 0 0 0 0 0 0 0 .4 0"/><feOffset dx="4.0" dy="4.0" in="blurOut2" result="blurOut3"/><feBlend in="SourceGraphic" in2="blurOut3" mode="normal"/></filter></defs><g><a target="_top" xlink:actuate="onRequest" xlink:href="../index.svg?sanitize=true" xlink:show="new" xlink:title="../index.svg?sanitize=true" xlink:type="simple"><text fill="#0000FF" font-family="sans-serif" font-size="24" lengthAdjust="spacingAndGlyphs" text-decoration="underline" textLength="90" x="10" y="34.9141">⌂ Home</text><line style="stroke: #0000FF; stroke-width: 1.0;" x1="10" x2="100" y1="36.9141" y2="36.9141"/></a><rect fill="#EEE8AA" height="40.1875" rx="10" ry="10" style="stroke: #000080; stroke-width: 1.5;" width="212" x="610" y="42.1875"/><text fill="#000080" font-family="sans-serif" font-size="24" lengthAdjust="spacingAndGlyphs" textLength="196" x="618" y="72.1016">Unlimited Lifestyle</text><ellipse cx="703.5" cy="95.375" fill="#CCFFCC" filter="url(#f1w0kz0mytzf1w)" rx="10" ry="10" style="stroke: none; stroke-width: 1.0;"/><rect fill="#000000" filter="url(#f1w0kz0mytzf1w)" height="6" rx="2.5" ry="2.5" style="stroke: #000000; stroke-width: 1.0;" width="1387" x="10" y="169.375"/><rect fill="#FFFFF0" filter="url(#f1w0kz0mytzf1w)" height="361.3125" style="stroke: #6495ED; stroke-width: 1.0;" width="441" x="24" y="221.4375"/><path d="M89,222.4375 L89,234.5625 L79,244.5625 L24,244.5625 " fill="none" style="stroke: #6495ED; stroke-width: 1.0;"/><text fill="#6495ED" font-family="sans-serif" font-size="16" lengthAdjust="spacingAndGlyphs" textLength="55" x="27" y="239.0469">learning</text><rect fill="#000000" filter="url(#f1w0kz0mytzf1w)" height="6" rx="2.5" ry="2.5" style="stroke: #000000; stroke-width: 1.0;" width="397" x="34" y="333.5625"/><rect fill="#FFFFF0" filter="url(#f1w0kz0mytzf1w)" height="35.0938" rx="12.5" ry="12.5" style="stroke: #6495ED; stroke-width: 1.0;" width="84" x="48" y="359.5625"/><text fill="#696969" font-family="sans-serif" font-size="12" lengthAdjust="spacingAndGlyphs" textLength="64" x="58" y="382.0195">watch video</text><rect fill="#FFFFF0" filter="url(#f1w0kz0mytzf1w)" height="35.0938" rx="12.5" ry="12.5" style="stroke: #6495ED; stroke-width: 1.0;" width="86" x="160" y="359.5625"/><text fill="#696969" font-family="sans-serif" font-size="12" lengthAdjust="spacingAndGlyphs" textLength="66" x="170" y="382.0195">attend event</text><rect fill="#FFFFF0" filter="url(#f1w0kz0mytzf1w)" height="35.0938" rx="12.5" ry="12.5" style="stroke: #6495ED; stroke-width: 1.0;" width="143" x="274" y="359.5625"/><text fill="#696969" font-family="sans-serif" font-size="12" lengthAdjust="spacingAndGlyphs" textLength="123" x="284" y="382.0195">member services Q&amp;A</text><rect fill="#000000" filter="url(#f1w0kz0mytzf1w)" height="6" rx="2.5" ry="2.5" style="stroke: #000000; stroke-width: 1.0;" width="397" x="34" y="414.6563"/><rect fill="#FFFFF0" filter="url(#f1w0kz0mytzf1w)" height="35.0938" rx="12.5" ry="12.5" style="stroke: #6495ED; stroke-width: 1.0;" width="123" x="171" y="455.6563"/><text fill="#696969" font-family="sans-serif" font-size="12" lengthAdjust="spacingAndGlyphs" textLength="103" x="181" y="478.1133">document process</text><polygon fill="#FFFFF0" filter="url(#f1w0kz0mytzf1w)" points="232.5,261.5625,244.5,273.5625,232.5,285.5625,220.5,273.5625,232.5,261.5625" style="stroke: #6495ED; stroke-width: 1.0;"/><polygon fill="#FFFFF0" filter="url(#f1w0kz0mytzf1w)" points="232.5,538.75,232.5,538.75,244.5,550.75,232.5,562.75,232.5,562.75,220.5,550.75,232.5,538.75" style="stroke: #6495ED; stroke-width: 1.0;"/><a target="_top" xlink:actuate="onRequest" xlink:href="../single-family/pre-qualification.svg?sanitize=true" xlink:show="new" xlink:title="../single-family/pre-qualification.svg?sanitize=true" xlink:type="simple"><rect fill="#87CEFA" filter="url(#f1w0kz0mytzf1w)" height="35.0938" rx="12.5" ry="12.5" style="stroke: #6495ED; stroke-width: 1.0;" width="108" x="493" y="384.5469"/><text fill="#696969" font-family="sans-serif" font-size="12" lengthAdjust="spacingAndGlyphs" textLength="88" x="503" y="407.0039">pre-qualification</text></a><a target="_top" xlink:actuate="onRequest" xlink:href="../single-family/team-building.svg?sanitize=true" xlink:show="new" xlink:title="../single-family/team-building.svg?sanitize=true" xlink:type="simple"><rect fill="#87CEFA" filter="url(#f1w0kz0mytzf1w)" height="35.0938" rx="12.5" ry="12.5" style="stroke: #6495ED; stroke-width: 1.0;" width="78" x="629" y="384.5469"/><text fill="#696969" font-family="sans-serif" font-size="12" lengthAdjust="spacingAndGlyphs" textLength="58" x="639" y="407.0039">build team</text></a><a target="_top" xlink:actuate="onRequest" xlink:href="credit-cards.svg?sanitize=true" xlink:show="new" xlink:title="credit-cards.svg?sanitize=true" xlink:type="simple"><rect fill="#87CEFA" filter="url(#f1w0kz0mytzf1w)" height="35.0938" rx="12.5" ry="12.5" style="stroke: #6495ED; stroke-width: 1.0;" width="80" x="735" y="384.5469"/><text fill="#696969" font-family="sans-serif" font-size="12" lengthAdjust="spacingAndGlyphs" textLength="60" x="745" y="407.0039">build credit</text></a><rect fill="#FFFFF0" filter="url(#f1w0kz0mytzf1w)" height="429.2412" style="stroke: #6495ED; stroke-width: 1.0;" width="540" x="843" y="186.3906"/><path d="M898,187.3906 L898,199.5156 L888,209.5156 L843,209.5156 " fill="none" style="stroke: #6495ED; stroke-width: 1.0;"/><text fill="#6495ED" font-family="sans-serif" font-size="16" lengthAdjust="spacingAndGlyphs" textLength="45" x="846" y="204">saving</text><rect fill="#FFFFF0" filter="url(#f1w0kz0mytzf1w)" height="35.0938" rx="12.5" ry="12.5" style="stroke: #6495ED; stroke-width: 1.0;" width="46" x="1078" y="298.5156"/><text fill="#696969" font-family="sans-serif" font-size="12" lengthAdjust="spacingAndGlyphs" textLength="26" x="1088" y="320.9727">work</text><rect fill="#FFFFF0" filter="url(#f1w0kz0mytzf1w)" height="35.0938" rx="12.5" ry="12.5" style="stroke: #6495ED; stroke-width: 1.0;" width="71" x="1065.5" y="368.6094"/><text fill="#696969" font-family="sans-serif" font-size="12" lengthAdjust="spacingAndGlyphs" textLength="51" x="1075.5" y="391.0664">paycheck</text><rect fill="#000000" filter="url(#f1w0kz0mytzf1w)" height="6" rx="2.5" ry="2.5" style="stroke: #000000; stroke-width: 1.0;" width="496" x="853" y="438.7031"/><rect fill="#FFFFF0" filter="url(#f1w0kz0mytzf1w)" height="35.0938" rx="12.5" ry="12.5" style="stroke: #6495ED; stroke-width: 1.0;" width="156" x="867" y="464.7031"/><text fill="#696969" font-family="sans-serif" font-size="12" lengthAdjust="spacingAndGlyphs" textLength="136" x="877" y="487.1602">save &gt;= 60% of earnings</text><path d="M1051,469.0742 L1051,495.4258 L1151,495.4258 L1151,479.0742 L1141,469.0742 L1051,469.0742 " fill="#B0C4DE" filter="url(#f1w0kz0mytzf1w)" style="stroke: #6495ED; stroke-width: 1.0;"/><path d="M1141,469.0742 L1141,479.0742 L1151,479.0742 L1141,469.0742 " fill="#B0C4DE" style="stroke: #6495ED; stroke-width: 1.0;"/><text fill="#FFFFFF" font-family="sans-serif" font-size="13" font-style="italic" lengthAdjust="spacingAndGlyphs" textLength="79" x="1057" y="487.5693">act your wage</text><rect fill="#FFFFF0" filter="url(#f1w0kz0mytzf1w)" height="35.0938" rx="12.5" ry="12.5" style="stroke: #6495ED; stroke-width: 1.0;" width="164" x="1171" y="464.7031"/><text fill="#696969" font-family="sans-serif" font-size="12" lengthAdjust="spacingAndGlyphs" textLength="144" x="1181" y="487.1602">live off &lt;= 40% of earnings</text><rect fill="#000000" filter="url(#f1w0kz0mytzf1w)" height="6" rx="2.5" ry="2.5" style="stroke: #000000; stroke-width: 1.0;" width="496" x="853" y="519.7969"/><polygon fill="#FFFFF0" filter="url(#f1w0kz0mytzf1w)" points="1101,226.5156,1113,238.5156,1101,250.5156,1089,238.5156,1101,226.5156" style="stroke: #6495ED; stroke-width: 1.0;"/><polygon fill="#FFFFF0" filter="url(#f1w0kz0mytzf1w)" points="1051.5,573.7969,1150.5,573.7969,1162.5,585.7969,1150.5,597.7969,1051.5,597.7969,1039.5,585.7969,1051.5,573.7969" style="stroke: #6495ED; stroke-width: 1.0;"/><text fill="#A9A9A9" font-family="sans-serif" font-size="11" lengthAdjust="spacingAndGlyphs" textLength="99" x="1051.5" y="590.2979">have money for deal</text><rect fill="#000000" filter="url(#f1w0kz0mytzf1w)" height="6" rx="2.5" ry="2.5" style="stroke: #000000; stroke-width: 1.0;" width="1387" x="10" y="635.6318"/><a target="_top" xlink:actuate="onRequest" xlink:href="../single-family/single-family-deal.svg?sanitize=true" xlink:show="new" xlink:title="../single-family/single-family-deal.svg?sanitize=true" xlink:type="simple"><rect fill="#87CEFA" filter="url(#f1w0kz0mytzf1w)" height="35.0938" rx="12.5" ry="12.5" style="stroke: #6495ED; stroke-width: 1.0;" width="114" x="646.5" y="661.6318"/><text fill="#696969" font-family="sans-serif" font-size="12" lengthAdjust="spacingAndGlyphs" textLength="94" x="656.5" y="684.0889">do (another) deal</text></a><rect fill="#FFFFF0" filter="url(#f1w0kz0mytzf1w)" height="35.0938" rx="12.5" ry="12.5" style="stroke: #6495ED; stroke-width: 1.0;" width="99" x="654" y="716.7256"/><text fill="#696969" font-family="sans-serif" font-size="12" lengthAdjust="spacingAndGlyphs" textLength="79" x="664" y="739.1826">refine process</text><polygon fill="#FFFFF0" filter="url(#f1w0kz0mytzf1w)" points="703.5,125.375,715.5,137.375,703.5,149.375,691.5,137.375,703.5,125.375" style="stroke: #6495ED; stroke-width: 1.0;"/><polygon fill="#FFFFF0" filter="url(#f1w0kz0mytzf1w)" points="637.5,771.8193,769.5,771.8193,781.5,783.8193,769.5,795.8193,637.5,795.8193,625.5,783.8193,637.5,771.8193" style="stroke: #6495ED; stroke-width: 1.0;"/><text fill="#A9A9A9" font-family="sans-serif" font-size="11" lengthAdjust="spacingAndGlyphs" textLength="132" x="637.5" y="788.3203">can live off passive income</text><rect fill="#FFFFF0" filter="url(#f1w0kz0mytzf1w)" height="35.0938" rx="12.5" ry="12.5" style="stroke: #6495ED; stroke-width: 1.0;" width="60" x="673.5" y="838.0723"/><text fill="#696969" font-family="sans-serif" font-size="12" lengthAdjust="spacingAndGlyphs" textLength="40" x="683.5" y="860.5293">quit job</text><ellipse cx="703.5" cy="903.166" fill="#FFFFFF" filter="url(#f1w0kz0mytzf1w)" rx="10" ry="10" style="stroke: #FF7F50; stroke-width: 1.5;"/><line style="stroke: #FF7F50; stroke-width: 2.5;" x1="697.3128" x2="709.6872" y1="896.9788" y2="909.3532"/><line style="stroke: #FF7F50; stroke-width: 2.5;" x1="709.6872" x2="697.3128" y1="896.9788" y2="909.3532"/><line style="stroke: #696969; stroke-width: 1.5;" x1="90" x2="90" y1="339.5625" y2="359.5625"/><polygon fill="#696969" points="86,349.5625,90,359.5625,94,349.5625,90,353.5625" style="stroke: #696969; stroke-width: 1.0;"/><line style="stroke: #696969; stroke-width: 1.5;" x1="203" x2="203" y1="339.5625" y2="359.5625"/><polygon fill="#696969" points="199,349.5625,203,359.5625,207,349.5625,203,353.5625" style="stroke: #696969; stroke-width: 1.0;"/><line style="stroke: #696969; stroke-width: 1.5;" x1="345.5" x2="345.5" y1="339.5625" y2="359.5625"/><polygon fill="#696969" points="341.5,349.5625,345.5,359.5625,349.5,349.5625,345.5,353.5625" style="stroke: #696969; stroke-width: 1.0;"/><line style="stroke: #696969; stroke-width: 1.5;" x1="90" x2="90" y1="394.6563" y2="414.6563"/><polygon fill="#696969" points="86,404.6563,90,414.6563,94,404.6563,90,408.6563" style="stroke: #696969; stroke-width: 1.0;"/><line style="stroke: #696969; stroke-width: 1.5;" x1="203" x2="203" y1="394.6563" y2="414.6563"/><polygon fill="#696969" points="199,404.6563,203,414.6563,207,404.6563,203,408.6563" style="stroke: #696969; stroke-width: 1.0;"/><line style="stroke: #696969; stroke-width: 1.5;" x1="345.5" x2="345.5" y1="394.6563" y2="414.6563"/><polygon fill="#696969" points="341.5,404.6563,345.5,414.6563,349.5,404.6563,345.5,408.6563" style="stroke: #696969; stroke-width: 1.0;"/><line style="stroke: #696969; stroke-width: 1.5;" x1="232.5" x2="232.5" y1="420.6563" y2="455.6563"/><polygon fill="#696969" points="228.5,445.6563,232.5,455.6563,236.5,445.6563,232.5,449.6563" style="stroke: #696969; stroke-width: 1.0;"/><line style="stroke: #696969; stroke-width: 1.5;" x1="232.5" x2="232.5" y1="285.5625" y2="333.5625"/><polygon fill="#696969" points="228.5,323.5625,232.5,333.5625,236.5,323.5625,232.5,327.5625" style="stroke: #696969; stroke-width: 1.0;"/><line style="stroke: #696969; stroke-width: 1.5;" x1="244.5" x2="443" y1="550.75" y2="550.75"/><polygon fill="#696969" points="439,422.1563,443,412.1563,447,422.1563,443,418.1563" style="stroke: #696969; stroke-width: 1.5;"/><line style="stroke: #696969; stroke-width: 1.5;" x1="443" x2="443" y1="273.5625" y2="550.75"/><line style="stroke: #696969; stroke-width: 1.5;" x1="443" x2="244.5" y1="273.5625" y2="273.5625"/><polygon fill="#696969" points="254.5,269.5625,244.5,273.5625,254.5,277.5625,250.5,273.5625" style="stroke: #696969; stroke-width: 1.0;"/><line style="stroke: #696969; stroke-width: 1.5;" x1="232.5" x2="232.5" y1="490.75" y2="538.75"/><polygon fill="#696969" points="228.5,528.75,232.5,538.75,236.5,528.75,232.5,532.75" style="stroke: #696969; stroke-width: 1.0;"/><line style="stroke: #696969; stroke-width: 1.5;" x1="1101" x2="1101" y1="333.6094" y2="368.6094"/><polygon fill="#696969" points="1097,358.6094,1101,368.6094,1105,358.6094,1101,362.6094" style="stroke: #696969; stroke-width: 1.0;"/><line style="stroke: #696969; stroke-width: 1.5;" x1="945" x2="945" y1="444.7031" y2="464.7031"/><polygon fill="#696969" points="941,454.7031,945,464.7031,949,454.7031,945,458.7031" style="stroke: #696969; stroke-width: 1.0;"/><line style="stroke: #696969; stroke-width: 1.5;" x1="1253" x2="1253" y1="444.7031" y2="464.7031"/><polygon fill="#696969" points="1249,454.7031,1253,464.7031,1257,454.7031,1253,458.7031" style="stroke: #696969; stroke-width: 1.0;"/><line style="stroke: #696969; stroke-width: 1.5;" x1="945" x2="945" y1="499.7969" y2="519.7969"/><polygon fill="#696969" points="941,509.7969,945,519.7969,949,509.7969,945,513.7969" style="stroke: #696969; stroke-width: 1.0;"/><line style="stroke: #696969; stroke-width: 1.5;" x1="1253" x2="1253" y1="499.7969" y2="519.7969"/><polygon fill="#696969" points="1249,509.7969,1253,519.7969,1257,509.7969,1253,513.7969" style="stroke: #696969; stroke-width: 1.0;"/><line style="stroke: #696969; stroke-width: 1.5;" x1="1101" x2="1101" y1="403.7031" y2="438.7031"/><polygon fill="#696969" points="1097,428.7031,1101,438.7031,1105,428.7031,1101,432.7031" style="stroke: #696969; stroke-width: 1.0;"/><line style="stroke: #696969; stroke-width: 1.5;" x1="1101" x2="1101" y1="250.5156" y2="298.5156"/><polygon fill="#696969" points="1097,288.5156,1101,298.5156,1105,288.5156,1101,292.5156" style="stroke: #696969; stroke-width: 1.0;"/><line style="stroke: #696969; stroke-width: 1.5;" x1="1162.5" x2="1361" y1="585.7969" y2="585.7969"/><polygon fill="#696969" points="1357,422.1563,1361,412.1563,1365,422.1563,1361,418.1563" style="stroke: #696969; stroke-width: 1.5;"/><line style="stroke: #696969; stroke-width: 1.5;" x1="1361" x2="1361" y1="238.5156" y2="585.7969"/><line style="stroke: #696969; stroke-width: 1.5;" x1="1361" x2="1113" y1="238.5156" y2="238.5156"/><polygon fill="#696969" points="1123,234.5156,1113,238.5156,1123,242.5156,1119,238.5156" style="stroke: #696969; stroke-width: 1.0;"/><line style="stroke: #696969; stroke-width: 1.5;" x1="1101" x2="1101" y1="525.7969" y2="573.7969"/><polygon fill="#696969" points="1097,563.7969,1101,573.7969,1105,563.7969,1101,567.7969" style="stroke: #696969; stroke-width: 1.0;"/><line style="stroke: #696969; stroke-width: 1.5;" x1="232.5" x2="232.5" y1="175.375" y2="261.5625"/><polygon fill="#696969" points="228.5,251.5625,232.5,261.5625,236.5,251.5625,232.5,255.5625" style="stroke: #696969; stroke-width: 1.0;"/><line style="stroke: #696969; stroke-width: 1.5;" x1="547" x2="547" y1="175.375" y2="384.5469"/><polygon fill="#696969" points="543,374.5469,547,384.5469,551,374.5469,547,378.5469" style="stroke: #696969; stroke-width: 1.0;"/><line style="stroke: #696969; stroke-width: 1.5;" x1="668" x2="668" y1="175.375" y2="384.5469"/><polygon fill="#696969" points="664,374.5469,668,384.5469,672,374.5469,668,378.5469" style="stroke: #696969; stroke-width: 1.0;"/><line style="stroke: #696969; stroke-width: 1.5;" x1="775" x2="775" y1="175.375" y2="384.5469"/><polygon fill="#696969" points="771,374.5469,775,384.5469,779,374.5469,775,378.5469" style="stroke: #696969; stroke-width: 1.0;"/><line style="stroke: #696969; stroke-width: 1.5;" x1="1101" x2="1101" y1="175.375" y2="226.5156"/><polygon fill="#696969" points="1097,216.5156,1101,226.5156,1105,216.5156,1101,220.5156" style="stroke: #696969; stroke-width: 1.0;"/><line style="stroke: #696969; stroke-width: 1.5;" x1="232.5" x2="232.5" y1="562.75" y2="635.6318"/><polygon fill="#696969" points="228.5,625.6318,232.5,635.6318,236.5,625.6318,232.5,629.6318" style="stroke: #696969; stroke-width: 1.0;"/><line style="stroke: #696969; stroke-width: 1.5;" x1="547" x2="547" y1="419.6406" y2="635.6318"/><polygon fill="#696969" points="543,625.6318,547,635.6318,551,625.6318,547,629.6318" style="stroke: #696969; stroke-width: 1.0;"/><line style="stroke: #696969; stroke-width: 1.5;" x1="668" x2="668" y1="419.6406" y2="635.6318"/><polygon fill="#696969" points="664,625.6318,668,635.6318,672,625.6318,668,629.6318" style="stroke: #696969; stroke-width: 1.0;"/><line style="stroke: #696969; stroke-width: 1.5;" x1="775" x2="775" y1="419.6406" y2="635.6318"/><polygon fill="#696969" points="771,625.6318,775,635.6318,779,625.6318,775,629.6318" style="stroke: #696969; stroke-width: 1.0;"/><line style="stroke: #696969; stroke-width: 1.5;" x1="1101" x2="1101" y1="597.7969" y2="635.6318"/><polygon fill="#696969" points="1097,625.6318,1101,635.6318,1105,625.6318,1101,629.6318" style="stroke: #696969; stroke-width: 1.0;"/><text fill="#696969" font-family="sans-serif" font-size="11" lengthAdjust="spacingAndGlyphs" textLength="18" x="1105" y="620.1328">yes</text><line style="stroke: #696969; stroke-width: 1.5;" x1="703.5" x2="703.5" y1="641.6318" y2="661.6318"/><polygon fill="#696969" points="699.5,651.6318,703.5,661.6318,707.5,651.6318,703.5,655.6318" style="stroke: #696969; stroke-width: 1.0;"/><line style="stroke: #696969; stroke-width: 1.5;" x1="703.5" x2="703.5" y1="696.7256" y2="716.7256"/><polygon fill="#696969" points="699.5,706.7256,703.5,716.7256,707.5,706.7256,703.5,710.7256" style="stroke: #696969; stroke-width: 1.0;"/><line style="stroke: #696969; stroke-width: 1.5;" x1="703.5" x2="703.5" y1="149.375" y2="169.375"/><polygon fill="#696969" points="699.5,159.375,703.5,169.375,707.5,159.375,703.5,163.375" style="stroke: #696969; stroke-width: 1.0;"/><line style="stroke: #696969; stroke-width: 1.5;" x1="781.5" x2="1409" y1="783.8193" y2="783.8193"/><polygon fill="#696969" points="1405,482.1875,1409,472.1875,1413,482.1875,1409,478.1875" style="stroke: #696969; stroke-width: 1.5;"/><line style="stroke: #696969; stroke-width: 1.5;" x1="1409" x2="1409" y1="137.375" y2="783.8193"/><line style="stroke: #696969; stroke-width: 1.5;" x1="1409" x2="715.5" y1="137.375" y2="137.375"/><polygon fill="#696969" points="725.5,133.375,715.5,137.375,725.5,141.375,721.5,137.375" style="stroke: #696969; stroke-width: 1.0;"/><line style="stroke: #696969; stroke-width: 1.5;" x1="703.5" x2="703.5" y1="751.8193" y2="771.8193"/><polygon fill="#696969" points="699.5,761.8193,703.5,771.8193,707.5,761.8193,703.5,765.8193" style="stroke: #696969; stroke-width: 1.0;"/><line style="stroke: #696969; stroke-width: 1.5;" x1="703.5" x2="703.5" y1="105.375" y2="125.375"/><polygon fill="#696969" points="699.5,115.375,703.5,125.375,707.5,115.375,703.5,119.375" style="stroke: #696969; stroke-width: 1.0;"/><line style="stroke: #696969; stroke-width: 1.5;" x1="703.5" x2="703.5" y1="795.8193" y2="838.0723"/><polygon fill="#696969" points="699.5,828.0723,703.5,838.0723,707.5,828.0723,703.5,832.0723" style="stroke: #696969; stroke-width: 1.0;"/><text fill="#696969" font-family="sans-serif" font-size="11" lengthAdjust="spacingAndGlyphs" textLength="18" x="707.5" y="818.1553">yes</text><line style="stroke: #696969; stroke-width: 1.5;" x1="703.5" x2="703.5" y1="873.166" y2="893.166"/><polygon fill="#696969" points="699.5,883.166,703.5,893.166,707.5,883.166,703.5,887.166" style="stroke: #696969; stroke-width: 1.0;"/><text fill="#000080" font-family="sans-serif" font-size="14" lengthAdjust="spacingAndGlyphs" textLength="42" x="10" y="926.6992">©2019</text><a target="_top" xlink:actuate="onRequest" xlink:href="http://www.lifestylesunlimited.com" xlink:show="new" xlink:title="http://www.lifestylesunlimited.com" xlink:type="simple"><text fill="#0000FF" font-family="sans-serif" font-size="14" lengthAdjust="spacingAndGlyphs" text-decoration="underline" textLength="122" x="56" y="926.6992">LifeStyles Unlimited</text><line style="stroke: #0000FF; stroke-width: 1.0;" x1="56" x2="178" y1="928.6992" y2="928.6992"/></a><text fill="#000080" font-family="sans-serif" font-size="14" lengthAdjust="spacingAndGlyphs" textLength="279" x="182" y="926.6992">| Generated Sun Apr 28 21:11:18 CDT 2019</text><!--
@startuml index


skinparam {
  BorderColor Red
  PathHoverColor Blue
}

skinparam Title {
  FontColor Navy
  BackgroundColor PaleGoldenRod
  BorderColor Navy
  BorderRoundCorner 20
  FontSize 24
}

skinparam activity {
  BackgroundColor Ivory
  BorderColor CornflowerBlue
  BorderThickness 1
  FontColor DimGray
  

  Arrow {
    Color dimgray
    FontColor dimgray
  }

  Start {
    Color PHYSICAL
  }

  End {
    Color Coral
  }

  Diamond {
    BackgroundColor Ivory
    BorderColor CornflowerBlue
    FontColor DarkGray
  }

  BackgroundColor<< Exception >> Red
	BorderColor<< Exception >> White
}

skinparam Swimlane {
  BorderColor CornflowerBlue 
}

skinparam Partition {
  BackgroundColor Ivory
  BorderColor CornflowerBlue
  BorderThickness 1
  FontColor CornflowerBlue
  FontSize 16
  BorderRoundCorner 20
}

skinparam Note {
  BackgroundColor LightSteelBlue
  BorderColor CornflowerBlue
  FontColor White
}

skinparam Legend {
  BackgroundColor LightSteelBlue
  BorderColor CornflowerBlue
  FontColor White
}

skinparam Footer {
  FontColor Navy
}


left header 
	<font color=Navy size=24>[[../index.svg?sanitize=true ⌂ Home]]</font>
endheader


	Title Unlimited Lifestyle

	start

		repeat

			fork
				partition learning {
					repeat
						fork
							:watch video;
						fork again
							:attend event;
						fork again
							:member services Q&A;
						end fork
						:document process;
					repeat while ()
				}
			fork again
				[[../single-family/pre-qualification.svg?sanitize=true]]#LightSkyBlue:pre-qualification;

			fork again
				[[../single-family/team-building.svg?sanitize=true]]#LightSkyBlue:build team;
			fork again
				[[credit-cards.svg?sanitize=true]]#LightSkyBlue:build credit;
			fork again
				partition saving {
					repeat
						:work;
						:paycheck;
						fork
							:save >= 60% of earnings;
						fork again
							:live off <= 40% of earnings;
							floating note left:<i>act your wage
						end fork

					repeat while (have money for deal)
					->yes;
				}
			end fork
			[[../single-family/single-family-deal.svg?sanitize=true]]#LightSkyBlue:do (another) deal;
			:refine process;
		repeat while (can live off passive income)
		->yes;
		:quit job;



	end


left footer 
	<font size=14>©2019 [[http://www.lifestylesunlimited.com LifeStyles Unlimited]] | Generated Sun Apr 28 21:11:18 CDT 2019</font>
endfooter


@enduml

PlantUML version 1.2019.03(Sun Mar 10 06:04:44 CDT 2019)
(GPL source distribution)
Java Runtime: Java(TM) SE Runtime Environment
JVM: Java HotSpot(TM) 64-Bit Server VM
Java Version: 1.8.0_111-b14
Operating System: Windows 10
OS Version: 10.0
Default Encoding: Cp1252
Language: en
Country: US
--></g></svg>