<?xml version="1.0" encoding="UTF-8" standalone="no"?><svg xmlns="http://www.w3.org/2000/svg" xmlns:xlink="http://www.w3.org/1999/xlink" contentScriptType="application/ecmascript" contentStyleType="text/css" height="910px" preserveAspectRatio="none" style="width:1435px;height:910px;" version="1.1" viewBox="0 0 1435 910" width="1435px" zoomAndPan="magnify"><defs><style type="text/css"><![CDATA[path:hover { stroke: #0000FF !important;}]]></style><filter height="300%" id="f6p4fo8zyeqcm" width="300%" x="-1" y="-1"><feGaussianBlur result="blurOut" stdDeviation="2.0"/><feColorMatrix in="blurOut" result="blurOut2" type="matrix" values="0 0 0 0 0 0 0 0 0 0 0 0 0 0 0 0 0 0 .4 0"/><feOffset dx="4.0" dy="4.0" in="blurOut2" result="blurOut3"/><feBlend in="SourceGraphic" in2="blurOut3" mode="normal"/></filter></defs><g><a target="_top" xlink:actuate="onRequest" xlink:href="../index.svg" xlink:show="new" xlink:title="../index.svg" xlink:type="simple"><text fill="#0000FF" font-family="sans-serif" font-size="10" lengthAdjust="spacingAndGlyphs" text-decoration="underline" textLength="39" x="10" y="20.3809">⌂ Home</text><line style="stroke: #0000FF; stroke-width: 1.0;" x1="10" x2="49" y1="22.3809" y2="22.3809"/></a><rect fill="#EEE8AA" height="32.6406" rx="10" ry="10" style="stroke: #000080; stroke-width: 1.5;" width="161" x="635.5" y="24.5781"/><text fill="#000080" font-family="sans-serif" font-size="18" lengthAdjust="spacingAndGlyphs" textLength="145" x="643.5" y="48.2637">Unlimited Lifestyle</text><ellipse cx="703.5" cy="70.2188" fill="#CCFFCC" filter="url(#f6p4fo8zyeqcm)" rx="10" ry="10" style="stroke: none; stroke-width: 1.0;"/><rect fill="#000000" filter="url(#f6p4fo8zyeqcm)" height="6" rx="2.5" ry="2.5" style="stroke: #000000; stroke-width: 1.0;" width="1387" x="10" y="144.2188"/><rect fill="#FFFFF0" filter="url(#f6p4fo8zyeqcm)" height="361.3125" style="stroke: #6495ED; stroke-width: 1.0;" width="441" x="24" y="196.2813"/><path d="M89,197.2813 L89,209.4063 L79,219.4063 L24,219.4063 " fill="none" style="stroke: #6495ED; stroke-width: 1.0;"/><text fill="#6495ED" font-family="sans-serif" font-size="16" lengthAdjust="spacingAndGlyphs" textLength="55" x="27" y="213.8906">learning</text><rect fill="#000000" filter="url(#f6p4fo8zyeqcm)" height="6" rx="2.5" ry="2.5" style="stroke: #000000; stroke-width: 1.0;" width="397" x="34" y="308.4063"/><rect fill="#FFFFF0" filter="url(#f6p4fo8zyeqcm)" height="35.0938" rx="12.5" ry="12.5" style="stroke: #6495ED; stroke-width: 1.5;" width="84" x="48" y="334.4063"/><text fill="#696969" font-family="sans-serif" font-size="12" lengthAdjust="spacingAndGlyphs" textLength="64" x="58" y="356.8633">watch video</text><rect fill="#FFFFF0" filter="url(#f6p4fo8zyeqcm)" height="35.0938" rx="12.5" ry="12.5" style="stroke: #6495ED; stroke-width: 1.5;" width="86" x="160" y="334.4063"/><text fill="#696969" font-family="sans-serif" font-size="12" lengthAdjust="spacingAndGlyphs" textLength="66" x="170" y="356.8633">attend event</text><rect fill="#FFFFF0" filter="url(#f6p4fo8zyeqcm)" height="35.0938" rx="12.5" ry="12.5" style="stroke: #6495ED; stroke-width: 1.5;" width="143" x="274" y="334.4063"/><text fill="#696969" font-family="sans-serif" font-size="12" lengthAdjust="spacingAndGlyphs" textLength="123" x="284" y="356.8633">member services Q&amp;A</text><rect fill="#000000" filter="url(#f6p4fo8zyeqcm)" height="6" rx="2.5" ry="2.5" style="stroke: #000000; stroke-width: 1.0;" width="397" x="34" y="389.5"/><rect fill="#FFFFF0" filter="url(#f6p4fo8zyeqcm)" height="35.0938" rx="12.5" ry="12.5" style="stroke: #6495ED; stroke-width: 1.5;" width="123" x="171" y="430.5"/><text fill="#696969" font-family="sans-serif" font-size="12" lengthAdjust="spacingAndGlyphs" textLength="103" x="181" y="452.957">document process</text><polygon fill="#FFFFF0" filter="url(#f6p4fo8zyeqcm)" points="232.5,236.4063,244.5,248.4063,232.5,260.4063,220.5,248.4063,232.5,236.4063" style="stroke: #6495ED; stroke-width: 1.5;"/><polygon fill="#FFFFF0" filter="url(#f6p4fo8zyeqcm)" points="232.5,513.5938,232.5,513.5938,244.5,525.5938,232.5,537.5938,232.5,537.5938,220.5,525.5938,232.5,513.5938" style="stroke: #6495ED; stroke-width: 1.5;"/><a target="_top" xlink:actuate="onRequest" xlink:href="../single-family/pre-qualification.svg?sanitize=true" xlink:show="new" xlink:title="../single-family/pre-qualification.svg?sanitize=true" xlink:type="simple"><rect fill="#87CEFA" filter="url(#f6p4fo8zyeqcm)" height="35.0938" rx="12.5" ry="12.5" style="stroke: #6495ED; stroke-width: 1.5;" width="108" x="493" y="359.3906"/><text fill="#696969" font-family="sans-serif" font-size="12" lengthAdjust="spacingAndGlyphs" textLength="88" x="503" y="381.8477">pre-qualification</text></a><a target="_top" xlink:actuate="onRequest" xlink:href="../single-family/team-building.svg?sanitize=true" xlink:show="new" xlink:title="../single-family/team-building.svg?sanitize=true" xlink:type="simple"><rect fill="#87CEFA" filter="url(#f6p4fo8zyeqcm)" height="35.0938" rx="12.5" ry="12.5" style="stroke: #6495ED; stroke-width: 1.5;" width="78" x="629" y="359.3906"/><text fill="#696969" font-family="sans-serif" font-size="12" lengthAdjust="spacingAndGlyphs" textLength="58" x="639" y="381.8477">build team</text></a><a target="_top" xlink:actuate="onRequest" xlink:href="credit-cards.svg?sanitize=true" xlink:show="new" xlink:title="credit-cards.svg?sanitize=true" xlink:type="simple"><rect fill="#87CEFA" filter="url(#f6p4fo8zyeqcm)" height="35.0938" rx="12.5" ry="12.5" style="stroke: #6495ED; stroke-width: 1.5;" width="80" x="735" y="359.3906"/><text fill="#696969" font-family="sans-serif" font-size="12" lengthAdjust="spacingAndGlyphs" textLength="60" x="745" y="381.8477">build credit</text></a><rect fill="#FFFFF0" filter="url(#f6p4fo8zyeqcm)" height="429.2412" style="stroke: #6495ED; stroke-width: 1.0;" width="540" x="843" y="161.2344"/><path d="M898,162.2344 L898,174.3594 L888,184.3594 L843,184.3594 " fill="none" style="stroke: #6495ED; stroke-width: 1.0;"/><text fill="#6495ED" font-family="sans-serif" font-size="16" lengthAdjust="spacingAndGlyphs" textLength="45" x="846" y="178.8438">saving</text><rect fill="#FFFFF0" filter="url(#f6p4fo8zyeqcm)" height="35.0938" rx="12.5" ry="12.5" style="stroke: #6495ED; stroke-width: 1.5;" width="46" x="1078" y="273.3594"/><text fill="#696969" font-family="sans-serif" font-size="12" lengthAdjust="spacingAndGlyphs" textLength="26" x="1088" y="295.8164">work</text><rect fill="#FFFFF0" filter="url(#f6p4fo8zyeqcm)" height="35.0938" rx="12.5" ry="12.5" style="stroke: #6495ED; stroke-width: 1.5;" width="71" x="1065.5" y="343.4531"/><text fill="#696969" font-family="sans-serif" font-size="12" lengthAdjust="spacingAndGlyphs" textLength="51" x="1075.5" y="365.9102">paycheck</text><rect fill="#000000" filter="url(#f6p4fo8zyeqcm)" height="6" rx="2.5" ry="2.5" style="stroke: #000000; stroke-width: 1.0;" width="496" x="853" y="413.5469"/><rect fill="#FFFFF0" filter="url(#f6p4fo8zyeqcm)" height="35.0938" rx="12.5" ry="12.5" style="stroke: #6495ED; stroke-width: 1.5;" width="156" x="867" y="439.5469"/><text fill="#696969" font-family="sans-serif" font-size="12" lengthAdjust="spacingAndGlyphs" textLength="136" x="877" y="462.0039">save &gt;= 60% of earnings</text><path d="M1051,443.918 L1051,470.2695 L1151,470.2695 L1151,453.918 L1141,443.918 L1051,443.918 " fill="#B0C4DE" filter="url(#f6p4fo8zyeqcm)" style="stroke: #6495ED; stroke-width: 1.0;"/><path d="M1141,443.918 L1141,453.918 L1151,453.918 L1141,443.918 " fill="#B0C4DE" style="stroke: #6495ED; stroke-width: 1.0;"/><text fill="#FFFFFF" font-family="sans-serif" font-size="13" font-style="italic" lengthAdjust="spacingAndGlyphs" textLength="79" x="1057" y="462.4131">act your wage</text><rect fill="#FFFFF0" filter="url(#f6p4fo8zyeqcm)" height="35.0938" rx="12.5" ry="12.5" style="stroke: #6495ED; stroke-width: 1.5;" width="164" x="1171" y="439.5469"/><text fill="#696969" font-family="sans-serif" font-size="12" lengthAdjust="spacingAndGlyphs" textLength="144" x="1181" y="462.0039">live off &lt;= 40% of earnings</text><rect fill="#000000" filter="url(#f6p4fo8zyeqcm)" height="6" rx="2.5" ry="2.5" style="stroke: #000000; stroke-width: 1.0;" width="496" x="853" y="494.6406"/><polygon fill="#FFFFF0" filter="url(#f6p4fo8zyeqcm)" points="1101,201.3594,1113,213.3594,1101,225.3594,1089,213.3594,1101,201.3594" style="stroke: #6495ED; stroke-width: 1.5;"/><polygon fill="#FFFFF0" filter="url(#f6p4fo8zyeqcm)" points="1051.5,548.6406,1150.5,548.6406,1162.5,560.6406,1150.5,572.6406,1051.5,572.6406,1039.5,560.6406,1051.5,548.6406" style="stroke: #6495ED; stroke-width: 1.5;"/><text fill="#A9A9A9" font-family="sans-serif" font-size="11" lengthAdjust="spacingAndGlyphs" textLength="99" x="1051.5" y="565.1416">have money for deal</text><rect fill="#000000" filter="url(#f6p4fo8zyeqcm)" height="6" rx="2.5" ry="2.5" style="stroke: #000000; stroke-width: 1.0;" width="1387" x="10" y="610.4756"/><a target="_top" xlink:actuate="onRequest" xlink:href="../single-family/single-family-deal.svg?sanitize=true" xlink:show="new" xlink:title="../single-family/single-family-deal.svg?sanitize=true" xlink:type="simple"><rect fill="#87CEFA" filter="url(#f6p4fo8zyeqcm)" height="35.0938" rx="12.5" ry="12.5" style="stroke: #6495ED; stroke-width: 1.5;" width="114" x="646.5" y="636.4756"/><text fill="#696969" font-family="sans-serif" font-size="12" lengthAdjust="spacingAndGlyphs" textLength="94" x="656.5" y="658.9326">do (another) deal</text></a><rect fill="#FFFFF0" filter="url(#f6p4fo8zyeqcm)" height="35.0938" rx="12.5" ry="12.5" style="stroke: #6495ED; stroke-width: 1.5;" width="99" x="654" y="691.5693"/><text fill="#696969" font-family="sans-serif" font-size="12" lengthAdjust="spacingAndGlyphs" textLength="79" x="664" y="714.0264">refine process</text><polygon fill="#FFFFF0" filter="url(#f6p4fo8zyeqcm)" points="703.5,100.2188,715.5,112.2188,703.5,124.2188,691.5,112.2188,703.5,100.2188" style="stroke: #6495ED; stroke-width: 1.5;"/><polygon fill="#FFFFF0" filter="url(#f6p4fo8zyeqcm)" points="637.5,746.6631,769.5,746.6631,781.5,758.6631,769.5,770.6631,637.5,770.6631,625.5,758.6631,637.5,746.6631" style="stroke: #6495ED; stroke-width: 1.5;"/><text fill="#A9A9A9" font-family="sans-serif" font-size="11" lengthAdjust="spacingAndGlyphs" textLength="132" x="637.5" y="763.1641">can live off passive income</text><rect fill="#FFFFF0" filter="url(#f6p4fo8zyeqcm)" height="35.0938" rx="12.5" ry="12.5" style="stroke: #6495ED; stroke-width: 1.5;" width="60" x="673.5" y="812.916"/><text fill="#696969" font-family="sans-serif" font-size="12" lengthAdjust="spacingAndGlyphs" textLength="40" x="683.5" y="835.373">quit job</text><ellipse cx="703.5" cy="878.0098" fill="#FFFFFF" filter="url(#f6p4fo8zyeqcm)" rx="10" ry="10" style="stroke: #FF7F50; stroke-width: 1.5;"/><line style="stroke: #FF7F50; stroke-width: 2.5;" x1="697.3128" x2="709.6872" y1="871.8226" y2="884.1969"/><line style="stroke: #FF7F50; stroke-width: 2.5;" x1="709.6872" x2="697.3128" y1="871.8226" y2="884.1969"/><line style="stroke: #696969; stroke-width: 1.5;" x1="90" x2="90" y1="314.4063" y2="334.4063"/><polygon fill="#696969" points="86,324.4063,90,334.4063,94,324.4063,90,328.4063" style="stroke: #696969; stroke-width: 1.0;"/><line style="stroke: #696969; stroke-width: 1.5;" x1="203" x2="203" y1="314.4063" y2="334.4063"/><polygon fill="#696969" points="199,324.4063,203,334.4063,207,324.4063,203,328.4063" style="stroke: #696969; stroke-width: 1.0;"/><line style="stroke: #696969; stroke-width: 1.5;" x1="345.5" x2="345.5" y1="314.4063" y2="334.4063"/><polygon fill="#696969" points="341.5,324.4063,345.5,334.4063,349.5,324.4063,345.5,328.4063" style="stroke: #696969; stroke-width: 1.0;"/><line style="stroke: #696969; stroke-width: 1.5;" x1="90" x2="90" y1="369.5" y2="389.5"/><polygon fill="#696969" points="86,379.5,90,389.5,94,379.5,90,383.5" style="stroke: #696969; stroke-width: 1.0;"/><line style="stroke: #696969; stroke-width: 1.5;" x1="203" x2="203" y1="369.5" y2="389.5"/><polygon fill="#696969" points="199,379.5,203,389.5,207,379.5,203,383.5" style="stroke: #696969; stroke-width: 1.0;"/><line style="stroke: #696969; stroke-width: 1.5;" x1="345.5" x2="345.5" y1="369.5" y2="389.5"/><polygon fill="#696969" points="341.5,379.5,345.5,389.5,349.5,379.5,345.5,383.5" style="stroke: #696969; stroke-width: 1.0;"/><line style="stroke: #696969; stroke-width: 1.5;" x1="232.5" x2="232.5" y1="395.5" y2="430.5"/><polygon fill="#696969" points="228.5,420.5,232.5,430.5,236.5,420.5,232.5,424.5" style="stroke: #696969; stroke-width: 1.0;"/><line style="stroke: #696969; stroke-width: 1.5;" x1="232.5" x2="232.5" y1="260.4063" y2="308.4063"/><polygon fill="#696969" points="228.5,298.4063,232.5,308.4063,236.5,298.4063,232.5,302.4063" style="stroke: #696969; stroke-width: 1.0;"/><line style="stroke: #696969; stroke-width: 1.5;" x1="244.5" x2="443" y1="525.5938" y2="525.5938"/><polygon fill="#696969" points="439,397,443,387,447,397,443,393" style="stroke: #696969; stroke-width: 1.5;"/><line style="stroke: #696969; stroke-width: 1.5;" x1="443" x2="443" y1="248.4063" y2="525.5938"/><line style="stroke: #696969; stroke-width: 1.5;" x1="443" x2="244.5" y1="248.4063" y2="248.4063"/><polygon fill="#696969" points="254.5,244.4063,244.5,248.4063,254.5,252.4063,250.5,248.4063" style="stroke: #696969; stroke-width: 1.0;"/><line style="stroke: #696969; stroke-width: 1.5;" x1="232.5" x2="232.5" y1="465.5938" y2="513.5938"/><polygon fill="#696969" points="228.5,503.5938,232.5,513.5938,236.5,503.5938,232.5,507.5938" style="stroke: #696969; stroke-width: 1.0;"/><line style="stroke: #696969; stroke-width: 1.5;" x1="1101" x2="1101" y1="308.4531" y2="343.4531"/><polygon fill="#696969" points="1097,333.4531,1101,343.4531,1105,333.4531,1101,337.4531" style="stroke: #696969; stroke-width: 1.0;"/><line style="stroke: #696969; stroke-width: 1.5;" x1="945" x2="945" y1="419.5469" y2="439.5469"/><polygon fill="#696969" points="941,429.5469,945,439.5469,949,429.5469,945,433.5469" style="stroke: #696969; stroke-width: 1.0;"/><line style="stroke: #696969; stroke-width: 1.5;" x1="1253" x2="1253" y1="419.5469" y2="439.5469"/><polygon fill="#696969" points="1249,429.5469,1253,439.5469,1257,429.5469,1253,433.5469" style="stroke: #696969; stroke-width: 1.0;"/><line style="stroke: #696969; stroke-width: 1.5;" x1="945" x2="945" y1="474.6406" y2="494.6406"/><polygon fill="#696969" points="941,484.6406,945,494.6406,949,484.6406,945,488.6406" style="stroke: #696969; stroke-width: 1.0;"/><line style="stroke: #696969; stroke-width: 1.5;" x1="1253" x2="1253" y1="474.6406" y2="494.6406"/><polygon fill="#696969" points="1249,484.6406,1253,494.6406,1257,484.6406,1253,488.6406" style="stroke: #696969; stroke-width: 1.0;"/><line style="stroke: #696969; stroke-width: 1.5;" x1="1101" x2="1101" y1="378.5469" y2="413.5469"/><polygon fill="#696969" points="1097,403.5469,1101,413.5469,1105,403.5469,1101,407.5469" style="stroke: #696969; stroke-width: 1.0;"/><line style="stroke: #696969; stroke-width: 1.5;" x1="1101" x2="1101" y1="225.3594" y2="273.3594"/><polygon fill="#696969" points="1097,263.3594,1101,273.3594,1105,263.3594,1101,267.3594" style="stroke: #696969; stroke-width: 1.0;"/><line style="stroke: #696969; stroke-width: 1.5;" x1="1162.5" x2="1361" y1="560.6406" y2="560.6406"/><polygon fill="#696969" points="1357,397,1361,387,1365,397,1361,393" style="stroke: #696969; stroke-width: 1.5;"/><line style="stroke: #696969; stroke-width: 1.5;" x1="1361" x2="1361" y1="213.3594" y2="560.6406"/><line style="stroke: #696969; stroke-width: 1.5;" x1="1361" x2="1113" y1="213.3594" y2="213.3594"/><polygon fill="#696969" points="1123,209.3594,1113,213.3594,1123,217.3594,1119,213.3594" style="stroke: #696969; stroke-width: 1.0;"/><line style="stroke: #696969; stroke-width: 1.5;" x1="1101" x2="1101" y1="500.6406" y2="548.6406"/><polygon fill="#696969" points="1097,538.6406,1101,548.6406,1105,538.6406,1101,542.6406" style="stroke: #696969; stroke-width: 1.0;"/><line style="stroke: #696969; stroke-width: 1.5;" x1="232.5" x2="232.5" y1="150.2188" y2="236.4063"/><polygon fill="#696969" points="228.5,226.4063,232.5,236.4063,236.5,226.4063,232.5,230.4063" style="stroke: #696969; stroke-width: 1.0;"/><line style="stroke: #696969; stroke-width: 1.5;" x1="547" x2="547" y1="150.2188" y2="359.3906"/><polygon fill="#696969" points="543,349.3906,547,359.3906,551,349.3906,547,353.3906" style="stroke: #696969; stroke-width: 1.0;"/><line style="stroke: #696969; stroke-width: 1.5;" x1="668" x2="668" y1="150.2188" y2="359.3906"/><polygon fill="#696969" points="664,349.3906,668,359.3906,672,349.3906,668,353.3906" style="stroke: #696969; stroke-width: 1.0;"/><line style="stroke: #696969; stroke-width: 1.5;" x1="775" x2="775" y1="150.2188" y2="359.3906"/><polygon fill="#696969" points="771,349.3906,775,359.3906,779,349.3906,775,353.3906" style="stroke: #696969; stroke-width: 1.0;"/><line style="stroke: #696969; stroke-width: 1.5;" x1="1101" x2="1101" y1="150.2188" y2="201.3594"/><polygon fill="#696969" points="1097,191.3594,1101,201.3594,1105,191.3594,1101,195.3594" style="stroke: #696969; stroke-width: 1.0;"/><line style="stroke: #696969; stroke-width: 1.5;" x1="232.5" x2="232.5" y1="537.5938" y2="610.4756"/><polygon fill="#696969" points="228.5,600.4756,232.5,610.4756,236.5,600.4756,232.5,604.4756" style="stroke: #696969; stroke-width: 1.0;"/><line style="stroke: #696969; stroke-width: 1.5;" x1="547" x2="547" y1="394.4844" y2="610.4756"/><polygon fill="#696969" points="543,600.4756,547,610.4756,551,600.4756,547,604.4756" style="stroke: #696969; stroke-width: 1.0;"/><line style="stroke: #696969; stroke-width: 1.5;" x1="668" x2="668" y1="394.4844" y2="610.4756"/><polygon fill="#696969" points="664,600.4756,668,610.4756,672,600.4756,668,604.4756" style="stroke: #696969; stroke-width: 1.0;"/><line style="stroke: #696969; stroke-width: 1.5;" x1="775" x2="775" y1="394.4844" y2="610.4756"/><polygon fill="#696969" points="771,600.4756,775,610.4756,779,600.4756,775,604.4756" style="stroke: #696969; stroke-width: 1.0;"/><line style="stroke: #696969; stroke-width: 1.5;" x1="1101" x2="1101" y1="572.6406" y2="610.4756"/><polygon fill="#696969" points="1097,600.4756,1101,610.4756,1105,600.4756,1101,604.4756" style="stroke: #696969; stroke-width: 1.0;"/><text fill="#696969" font-family="sans-serif" font-size="11" lengthAdjust="spacingAndGlyphs" textLength="18" x="1105" y="594.9766">yes</text><line style="stroke: #696969; stroke-width: 1.5;" x1="703.5" x2="703.5" y1="616.4756" y2="636.4756"/><polygon fill="#696969" points="699.5,626.4756,703.5,636.4756,707.5,626.4756,703.5,630.4756" style="stroke: #696969; stroke-width: 1.0;"/><line style="stroke: #696969; stroke-width: 1.5;" x1="703.5" x2="703.5" y1="671.5693" y2="691.5693"/><polygon fill="#696969" points="699.5,681.5693,703.5,691.5693,707.5,681.5693,703.5,685.5693" style="stroke: #696969; stroke-width: 1.0;"/><line style="stroke: #696969; stroke-width: 1.5;" x1="703.5" x2="703.5" y1="124.2188" y2="144.2188"/><polygon fill="#696969" points="699.5,134.2188,703.5,144.2188,707.5,134.2188,703.5,138.2188" style="stroke: #696969; stroke-width: 1.0;"/><line style="stroke: #696969; stroke-width: 1.5;" x1="781.5" x2="1409" y1="758.6631" y2="758.6631"/><polygon fill="#696969" points="1405,457.0313,1409,447.0313,1413,457.0313,1409,453.0313" style="stroke: #696969; stroke-width: 1.5;"/><line style="stroke: #696969; stroke-width: 1.5;" x1="1409" x2="1409" y1="112.2188" y2="758.6631"/><line style="stroke: #696969; stroke-width: 1.5;" x1="1409" x2="715.5" y1="112.2188" y2="112.2188"/><polygon fill="#696969" points="725.5,108.2188,715.5,112.2188,725.5,116.2188,721.5,112.2188" style="stroke: #696969; stroke-width: 1.0;"/><line style="stroke: #696969; stroke-width: 1.5;" x1="703.5" x2="703.5" y1="726.6631" y2="746.6631"/><polygon fill="#696969" points="699.5,736.6631,703.5,746.6631,707.5,736.6631,703.5,740.6631" style="stroke: #696969; stroke-width: 1.0;"/><line style="stroke: #696969; stroke-width: 1.5;" x1="703.5" x2="703.5" y1="80.2188" y2="100.2188"/><polygon fill="#696969" points="699.5,90.2188,703.5,100.2188,707.5,90.2188,703.5,94.2188" style="stroke: #696969; stroke-width: 1.0;"/><line style="stroke: #696969; stroke-width: 1.5;" x1="703.5" x2="703.5" y1="770.6631" y2="812.916"/><polygon fill="#696969" points="699.5,802.916,703.5,812.916,707.5,802.916,703.5,806.916" style="stroke: #696969; stroke-width: 1.0;"/><text fill="#696969" font-family="sans-serif" font-size="11" lengthAdjust="spacingAndGlyphs" textLength="18" x="707.5" y="792.999">yes</text><line style="stroke: #696969; stroke-width: 1.5;" x1="703.5" x2="703.5" y1="848.0098" y2="868.0098"/><polygon fill="#696969" points="699.5,858.0098,703.5,868.0098,707.5,858.0098,703.5,862.0098" style="stroke: #696969; stroke-width: 1.0;"/><text fill="#000080" font-family="sans-serif" font-size="10" lengthAdjust="spacingAndGlyphs" textLength="31" x="10" y="897.3906">©2019</text><a target="_top" xlink:actuate="onRequest" xlink:href="http://www.lifestylesunlimited.com" xlink:show="new" xlink:title="http://www.lifestylesunlimited.com" xlink:type="simple"><text fill="#0000FF" font-family="sans-serif" font-size="10" lengthAdjust="spacingAndGlyphs" text-decoration="underline" textLength="95" x="44" y="897.3906">LifeStyles Unlimited</text><line style="stroke: #0000FF; stroke-width: 1.0;" x1="44" x2="139" y1="899.3906" y2="899.3906"/></a><text fill="#000080" font-family="sans-serif" font-size="10" lengthAdjust="spacingAndGlyphs" textLength="205" x="142" y="897.3906">| Generated Sat Apr 20 19:28:28 CDT 2019</text><!--
@startuml index


skinparam {
  BorderColor Red
  PathHoverColor Blue
}

skinparam Title {
  FontColor Navy
  BackgroundColor PaleGoldenRod
  BorderColor Navy
  BorderRoundCorner 20
}

skinparam activity {
  BackgroundColor Ivory
  BorderColor CornflowerBlue
  FontColor DimGray
  

  Arrow {
    Color dimgray
    FontColor dimgray
  }

  Start {
    Color PHYSICAL
  }

  End {
    Color Coral
  }

  Diamond {
    BackgroundColor Ivory
    BorderColor CornflowerBlue
    FontColor DarkGray
  }

  BackgroundColor<< Exception >> Red
	BorderColor<< Exception >> White
}

skinparam Swimlane {
  BorderColor CornflowerBlue 
}

skinparam Partition {
  BackgroundColor Ivory
  BorderColor CornflowerBlue
  BorderThickness 1
  FontColor CornflowerBlue
  FontSize 16
  BorderRoundCorner 20
}

skinparam Note {
  BackgroundColor LightSteelBlue
  BorderColor CornflowerBlue
  FontColor White
}

skinparam Legend {
  BackgroundColor LightSteelBlue
  BorderColor CornflowerBlue
  FontColor White
}

skinparam Footer {
  FontColor Navy
}


left header 
	<font color=Navy>[[../index.svg ⌂ Home]]</font>
endheader


	Title Unlimited Lifestyle

	start

		repeat

			fork
				partition learning {
					repeat
						fork
							:watch video;
						fork again
							:attend event;
						fork again
							:member services Q&A;
						end fork
						:document process;
					repeat while ()
				}
			fork again
				[[../single-family/pre-qualification.svg?sanitize=true]]#LightSkyBlue:pre-qualification;

			fork again
				[[../single-family/team-building.svg?sanitize=true]]#LightSkyBlue:build team;
			fork again
				[[credit-cards.svg?sanitize=true]]#LightSkyBlue:build credit;
			fork again
				partition saving {
					repeat
						:work;
						:paycheck;
						fork
							:save >= 60% of earnings;
						fork again
							:live off <= 40% of earnings;
							floating note left:<i>act your wage
						end fork

					repeat while (have money for deal)
					->yes;
				}
			end fork
			[[../single-family/single-family-deal.svg?sanitize=true]]#LightSkyBlue:do (another) deal;
			:refine process;
		repeat while (can live off passive income)
		->yes;
		:quit job;



	end


left footer 
	©2019 [[http://www.lifestylesunlimited.com LifeStyles Unlimited]] | Generated Sat Apr 20 19:28:28 CDT 2019
endfooter


@enduml

PlantUML version 1.2019.03(Sun Mar 10 06:04:44 CDT 2019)
(GPL source distribution)
Java Runtime: Java(TM) SE Runtime Environment
JVM: Java HotSpot(TM) 64-Bit Server VM
Java Version: 1.8.0_111-b14
Operating System: Windows 10
OS Version: 10.0
Default Encoding: Cp1252
Language: en
Country: US
--></g></svg>