<?xml version="1.0" encoding="UTF-8" standalone="no"?><svg xmlns="http://www.w3.org/2000/svg" xmlns:xlink="http://www.w3.org/1999/xlink" contentScriptType="application/ecmascript" contentStyleType="text/css" height="925px" preserveAspectRatio="none" style="width:1435px;height:925px;" version="1.1" viewBox="0 0 1435 925" width="1435px" zoomAndPan="magnify"><defs><style type="text/css"><![CDATA[path:hover { stroke: #0000FF !important;}]]></style><filter height="300%" id="f1khvkwii4i11l" width="300%" x="-1" y="-1"><feGaussianBlur result="blurOut" stdDeviation="2.0"/><feColorMatrix in="blurOut" result="blurOut2" type="matrix" values="0 0 0 0 0 0 0 0 0 0 0 0 0 0 0 0 0 0 .4 0"/><feOffset dx="4.0" dy="4.0" in="blurOut2" result="blurOut3"/><feBlend in="SourceGraphic" in2="blurOut3" mode="normal"/></filter></defs><g><a target="_top" xlink:actuate="onRequest" xlink:href="../index.svg" xlink:show="new" xlink:title="../index.svg" xlink:type="simple"><text fill="#0000FF" font-family="sans-serif" font-size="18" lengthAdjust="spacingAndGlyphs" text-decoration="underline" textLength="67" x="10" y="28.6855">⌂ Home</text><line style="stroke: #0000FF; stroke-width: 1.0;" x1="10" x2="77" y1="30.6855" y2="30.6855"/></a><rect fill="#EEE8AA" height="32.6406" rx="10" ry="10" style="stroke: #000080; stroke-width: 1.5;" width="161" x="635.5" y="34.6406"/><text fill="#000080" font-family="sans-serif" font-size="18" lengthAdjust="spacingAndGlyphs" textLength="145" x="643.5" y="58.3262">Unlimited Lifestyle</text><ellipse cx="703.5" cy="80.2813" fill="#CCFFCC" filter="url(#f1khvkwii4i11l)" rx="10" ry="10" style="stroke: none; stroke-width: 1.0;"/><rect fill="#000000" filter="url(#f1khvkwii4i11l)" height="6" rx="2.5" ry="2.5" style="stroke: #000000; stroke-width: 1.0;" width="1387" x="10" y="154.2813"/><rect fill="#FFFFF0" filter="url(#f1khvkwii4i11l)" height="361.3125" style="stroke: #6495ED; stroke-width: 1.0;" width="441" x="24" y="206.3438"/><path d="M89,207.3438 L89,219.4688 L79,229.4688 L24,229.4688 " fill="none" style="stroke: #6495ED; stroke-width: 1.0;"/><text fill="#6495ED" font-family="sans-serif" font-size="16" lengthAdjust="spacingAndGlyphs" textLength="55" x="27" y="223.9531">learning</text><rect fill="#000000" filter="url(#f1khvkwii4i11l)" height="6" rx="2.5" ry="2.5" style="stroke: #000000; stroke-width: 1.0;" width="397" x="34" y="318.4688"/><rect fill="#FFFFF0" filter="url(#f1khvkwii4i11l)" height="35.0938" rx="12.5" ry="12.5" style="stroke: #6495ED; stroke-width: 1.5;" width="84" x="48" y="344.4688"/><text fill="#696969" font-family="sans-serif" font-size="12" lengthAdjust="spacingAndGlyphs" textLength="64" x="58" y="366.9258">watch video</text><rect fill="#FFFFF0" filter="url(#f1khvkwii4i11l)" height="35.0938" rx="12.5" ry="12.5" style="stroke: #6495ED; stroke-width: 1.5;" width="86" x="160" y="344.4688"/><text fill="#696969" font-family="sans-serif" font-size="12" lengthAdjust="spacingAndGlyphs" textLength="66" x="170" y="366.9258">attend event</text><rect fill="#FFFFF0" filter="url(#f1khvkwii4i11l)" height="35.0938" rx="12.5" ry="12.5" style="stroke: #6495ED; stroke-width: 1.5;" width="143" x="274" y="344.4688"/><text fill="#696969" font-family="sans-serif" font-size="12" lengthAdjust="spacingAndGlyphs" textLength="123" x="284" y="366.9258">member services Q&amp;A</text><rect fill="#000000" filter="url(#f1khvkwii4i11l)" height="6" rx="2.5" ry="2.5" style="stroke: #000000; stroke-width: 1.0;" width="397" x="34" y="399.5625"/><rect fill="#FFFFF0" filter="url(#f1khvkwii4i11l)" height="35.0938" rx="12.5" ry="12.5" style="stroke: #6495ED; stroke-width: 1.5;" width="123" x="171" y="440.5625"/><text fill="#696969" font-family="sans-serif" font-size="12" lengthAdjust="spacingAndGlyphs" textLength="103" x="181" y="463.0195">document process</text><polygon fill="#FFFFF0" filter="url(#f1khvkwii4i11l)" points="232.5,246.4688,244.5,258.4688,232.5,270.4688,220.5,258.4688,232.5,246.4688" style="stroke: #6495ED; stroke-width: 1.5;"/><polygon fill="#FFFFF0" filter="url(#f1khvkwii4i11l)" points="232.5,523.6563,232.5,523.6563,244.5,535.6563,232.5,547.6563,232.5,547.6563,220.5,535.6563,232.5,523.6563" style="stroke: #6495ED; stroke-width: 1.5;"/><a target="_top" xlink:actuate="onRequest" xlink:href="../single-family/pre-qualification.svg?sanitize=true" xlink:show="new" xlink:title="../single-family/pre-qualification.svg?sanitize=true" xlink:type="simple"><rect fill="#87CEFA" filter="url(#f1khvkwii4i11l)" height="35.0938" rx="12.5" ry="12.5" style="stroke: #6495ED; stroke-width: 1.5;" width="108" x="493" y="369.4531"/><text fill="#696969" font-family="sans-serif" font-size="12" lengthAdjust="spacingAndGlyphs" textLength="88" x="503" y="391.9102">pre-qualification</text></a><a target="_top" xlink:actuate="onRequest" xlink:href="../single-family/team-building.svg?sanitize=true" xlink:show="new" xlink:title="../single-family/team-building.svg?sanitize=true" xlink:type="simple"><rect fill="#87CEFA" filter="url(#f1khvkwii4i11l)" height="35.0938" rx="12.5" ry="12.5" style="stroke: #6495ED; stroke-width: 1.5;" width="78" x="629" y="369.4531"/><text fill="#696969" font-family="sans-serif" font-size="12" lengthAdjust="spacingAndGlyphs" textLength="58" x="639" y="391.9102">build team</text></a><a target="_top" xlink:actuate="onRequest" xlink:href="credit-cards.svg?sanitize=true" xlink:show="new" xlink:title="credit-cards.svg?sanitize=true" xlink:type="simple"><rect fill="#87CEFA" filter="url(#f1khvkwii4i11l)" height="35.0938" rx="12.5" ry="12.5" style="stroke: #6495ED; stroke-width: 1.5;" width="80" x="735" y="369.4531"/><text fill="#696969" font-family="sans-serif" font-size="12" lengthAdjust="spacingAndGlyphs" textLength="60" x="745" y="391.9102">build credit</text></a><rect fill="#FFFFF0" filter="url(#f1khvkwii4i11l)" height="429.2412" style="stroke: #6495ED; stroke-width: 1.0;" width="540" x="843" y="171.2969"/><path d="M898,172.2969 L898,184.4219 L888,194.4219 L843,194.4219 " fill="none" style="stroke: #6495ED; stroke-width: 1.0;"/><text fill="#6495ED" font-family="sans-serif" font-size="16" lengthAdjust="spacingAndGlyphs" textLength="45" x="846" y="188.9063">saving</text><rect fill="#FFFFF0" filter="url(#f1khvkwii4i11l)" height="35.0938" rx="12.5" ry="12.5" style="stroke: #6495ED; stroke-width: 1.5;" width="46" x="1078" y="283.4219"/><text fill="#696969" font-family="sans-serif" font-size="12" lengthAdjust="spacingAndGlyphs" textLength="26" x="1088" y="305.8789">work</text><rect fill="#FFFFF0" filter="url(#f1khvkwii4i11l)" height="35.0938" rx="12.5" ry="12.5" style="stroke: #6495ED; stroke-width: 1.5;" width="71" x="1065.5" y="353.5156"/><text fill="#696969" font-family="sans-serif" font-size="12" lengthAdjust="spacingAndGlyphs" textLength="51" x="1075.5" y="375.9727">paycheck</text><rect fill="#000000" filter="url(#f1khvkwii4i11l)" height="6" rx="2.5" ry="2.5" style="stroke: #000000; stroke-width: 1.0;" width="496" x="853" y="423.6094"/><rect fill="#FFFFF0" filter="url(#f1khvkwii4i11l)" height="35.0938" rx="12.5" ry="12.5" style="stroke: #6495ED; stroke-width: 1.5;" width="156" x="867" y="449.6094"/><text fill="#696969" font-family="sans-serif" font-size="12" lengthAdjust="spacingAndGlyphs" textLength="136" x="877" y="472.0664">save &gt;= 60% of earnings</text><path d="M1051,453.9805 L1051,480.332 L1151,480.332 L1151,463.9805 L1141,453.9805 L1051,453.9805 " fill="#B0C4DE" filter="url(#f1khvkwii4i11l)" style="stroke: #6495ED; stroke-width: 1.0;"/><path d="M1141,453.9805 L1141,463.9805 L1151,463.9805 L1141,453.9805 " fill="#B0C4DE" style="stroke: #6495ED; stroke-width: 1.0;"/><text fill="#FFFFFF" font-family="sans-serif" font-size="13" font-style="italic" lengthAdjust="spacingAndGlyphs" textLength="79" x="1057" y="472.4756">act your wage</text><rect fill="#FFFFF0" filter="url(#f1khvkwii4i11l)" height="35.0938" rx="12.5" ry="12.5" style="stroke: #6495ED; stroke-width: 1.5;" width="164" x="1171" y="449.6094"/><text fill="#696969" font-family="sans-serif" font-size="12" lengthAdjust="spacingAndGlyphs" textLength="144" x="1181" y="472.0664">live off &lt;= 40% of earnings</text><rect fill="#000000" filter="url(#f1khvkwii4i11l)" height="6" rx="2.5" ry="2.5" style="stroke: #000000; stroke-width: 1.0;" width="496" x="853" y="504.7031"/><polygon fill="#FFFFF0" filter="url(#f1khvkwii4i11l)" points="1101,211.4219,1113,223.4219,1101,235.4219,1089,223.4219,1101,211.4219" style="stroke: #6495ED; stroke-width: 1.5;"/><polygon fill="#FFFFF0" filter="url(#f1khvkwii4i11l)" points="1051.5,558.7031,1150.5,558.7031,1162.5,570.7031,1150.5,582.7031,1051.5,582.7031,1039.5,570.7031,1051.5,558.7031" style="stroke: #6495ED; stroke-width: 1.5;"/><text fill="#A9A9A9" font-family="sans-serif" font-size="11" lengthAdjust="spacingAndGlyphs" textLength="99" x="1051.5" y="575.2041">have money for deal</text><rect fill="#000000" filter="url(#f1khvkwii4i11l)" height="6" rx="2.5" ry="2.5" style="stroke: #000000; stroke-width: 1.0;" width="1387" x="10" y="620.5381"/><a target="_top" xlink:actuate="onRequest" xlink:href="../single-family/single-family-deal.svg?sanitize=true" xlink:show="new" xlink:title="../single-family/single-family-deal.svg?sanitize=true" xlink:type="simple"><rect fill="#87CEFA" filter="url(#f1khvkwii4i11l)" height="35.0938" rx="12.5" ry="12.5" style="stroke: #6495ED; stroke-width: 1.5;" width="114" x="646.5" y="646.5381"/><text fill="#696969" font-family="sans-serif" font-size="12" lengthAdjust="spacingAndGlyphs" textLength="94" x="656.5" y="668.9951">do (another) deal</text></a><rect fill="#FFFFF0" filter="url(#f1khvkwii4i11l)" height="35.0938" rx="12.5" ry="12.5" style="stroke: #6495ED; stroke-width: 1.5;" width="99" x="654" y="701.6318"/><text fill="#696969" font-family="sans-serif" font-size="12" lengthAdjust="spacingAndGlyphs" textLength="79" x="664" y="724.0889">refine process</text><polygon fill="#FFFFF0" filter="url(#f1khvkwii4i11l)" points="703.5,110.2813,715.5,122.2813,703.5,134.2813,691.5,122.2813,703.5,110.2813" style="stroke: #6495ED; stroke-width: 1.5;"/><polygon fill="#FFFFF0" filter="url(#f1khvkwii4i11l)" points="637.5,756.7256,769.5,756.7256,781.5,768.7256,769.5,780.7256,637.5,780.7256,625.5,768.7256,637.5,756.7256" style="stroke: #6495ED; stroke-width: 1.5;"/><text fill="#A9A9A9" font-family="sans-serif" font-size="11" lengthAdjust="spacingAndGlyphs" textLength="132" x="637.5" y="773.2266">can live off passive income</text><rect fill="#FFFFF0" filter="url(#f1khvkwii4i11l)" height="35.0938" rx="12.5" ry="12.5" style="stroke: #6495ED; stroke-width: 1.5;" width="60" x="673.5" y="822.9785"/><text fill="#696969" font-family="sans-serif" font-size="12" lengthAdjust="spacingAndGlyphs" textLength="40" x="683.5" y="845.4355">quit job</text><ellipse cx="703.5" cy="888.0723" fill="#FFFFFF" filter="url(#f1khvkwii4i11l)" rx="10" ry="10" style="stroke: #FF7F50; stroke-width: 1.5;"/><line style="stroke: #FF7F50; stroke-width: 2.5;" x1="697.3128" x2="709.6872" y1="881.8851" y2="894.2594"/><line style="stroke: #FF7F50; stroke-width: 2.5;" x1="709.6872" x2="697.3128" y1="881.8851" y2="894.2594"/><line style="stroke: #696969; stroke-width: 1.5;" x1="90" x2="90" y1="324.4688" y2="344.4688"/><polygon fill="#696969" points="86,334.4688,90,344.4688,94,334.4688,90,338.4688" style="stroke: #696969; stroke-width: 1.0;"/><line style="stroke: #696969; stroke-width: 1.5;" x1="203" x2="203" y1="324.4688" y2="344.4688"/><polygon fill="#696969" points="199,334.4688,203,344.4688,207,334.4688,203,338.4688" style="stroke: #696969; stroke-width: 1.0;"/><line style="stroke: #696969; stroke-width: 1.5;" x1="345.5" x2="345.5" y1="324.4688" y2="344.4688"/><polygon fill="#696969" points="341.5,334.4688,345.5,344.4688,349.5,334.4688,345.5,338.4688" style="stroke: #696969; stroke-width: 1.0;"/><line style="stroke: #696969; stroke-width: 1.5;" x1="90" x2="90" y1="379.5625" y2="399.5625"/><polygon fill="#696969" points="86,389.5625,90,399.5625,94,389.5625,90,393.5625" style="stroke: #696969; stroke-width: 1.0;"/><line style="stroke: #696969; stroke-width: 1.5;" x1="203" x2="203" y1="379.5625" y2="399.5625"/><polygon fill="#696969" points="199,389.5625,203,399.5625,207,389.5625,203,393.5625" style="stroke: #696969; stroke-width: 1.0;"/><line style="stroke: #696969; stroke-width: 1.5;" x1="345.5" x2="345.5" y1="379.5625" y2="399.5625"/><polygon fill="#696969" points="341.5,389.5625,345.5,399.5625,349.5,389.5625,345.5,393.5625" style="stroke: #696969; stroke-width: 1.0;"/><line style="stroke: #696969; stroke-width: 1.5;" x1="232.5" x2="232.5" y1="405.5625" y2="440.5625"/><polygon fill="#696969" points="228.5,430.5625,232.5,440.5625,236.5,430.5625,232.5,434.5625" style="stroke: #696969; stroke-width: 1.0;"/><line style="stroke: #696969; stroke-width: 1.5;" x1="232.5" x2="232.5" y1="270.4688" y2="318.4688"/><polygon fill="#696969" points="228.5,308.4688,232.5,318.4688,236.5,308.4688,232.5,312.4688" style="stroke: #696969; stroke-width: 1.0;"/><line style="stroke: #696969; stroke-width: 1.5;" x1="244.5" x2="443" y1="535.6563" y2="535.6563"/><polygon fill="#696969" points="439,407.0625,443,397.0625,447,407.0625,443,403.0625" style="stroke: #696969; stroke-width: 1.5;"/><line style="stroke: #696969; stroke-width: 1.5;" x1="443" x2="443" y1="258.4688" y2="535.6563"/><line style="stroke: #696969; stroke-width: 1.5;" x1="443" x2="244.5" y1="258.4688" y2="258.4688"/><polygon fill="#696969" points="254.5,254.4688,244.5,258.4688,254.5,262.4688,250.5,258.4688" style="stroke: #696969; stroke-width: 1.0;"/><line style="stroke: #696969; stroke-width: 1.5;" x1="232.5" x2="232.5" y1="475.6563" y2="523.6563"/><polygon fill="#696969" points="228.5,513.6563,232.5,523.6563,236.5,513.6563,232.5,517.6563" style="stroke: #696969; stroke-width: 1.0;"/><line style="stroke: #696969; stroke-width: 1.5;" x1="1101" x2="1101" y1="318.5156" y2="353.5156"/><polygon fill="#696969" points="1097,343.5156,1101,353.5156,1105,343.5156,1101,347.5156" style="stroke: #696969; stroke-width: 1.0;"/><line style="stroke: #696969; stroke-width: 1.5;" x1="945" x2="945" y1="429.6094" y2="449.6094"/><polygon fill="#696969" points="941,439.6094,945,449.6094,949,439.6094,945,443.6094" style="stroke: #696969; stroke-width: 1.0;"/><line style="stroke: #696969; stroke-width: 1.5;" x1="1253" x2="1253" y1="429.6094" y2="449.6094"/><polygon fill="#696969" points="1249,439.6094,1253,449.6094,1257,439.6094,1253,443.6094" style="stroke: #696969; stroke-width: 1.0;"/><line style="stroke: #696969; stroke-width: 1.5;" x1="945" x2="945" y1="484.7031" y2="504.7031"/><polygon fill="#696969" points="941,494.7031,945,504.7031,949,494.7031,945,498.7031" style="stroke: #696969; stroke-width: 1.0;"/><line style="stroke: #696969; stroke-width: 1.5;" x1="1253" x2="1253" y1="484.7031" y2="504.7031"/><polygon fill="#696969" points="1249,494.7031,1253,504.7031,1257,494.7031,1253,498.7031" style="stroke: #696969; stroke-width: 1.0;"/><line style="stroke: #696969; stroke-width: 1.5;" x1="1101" x2="1101" y1="388.6094" y2="423.6094"/><polygon fill="#696969" points="1097,413.6094,1101,423.6094,1105,413.6094,1101,417.6094" style="stroke: #696969; stroke-width: 1.0;"/><line style="stroke: #696969; stroke-width: 1.5;" x1="1101" x2="1101" y1="235.4219" y2="283.4219"/><polygon fill="#696969" points="1097,273.4219,1101,283.4219,1105,273.4219,1101,277.4219" style="stroke: #696969; stroke-width: 1.0;"/><line style="stroke: #696969; stroke-width: 1.5;" x1="1162.5" x2="1361" y1="570.7031" y2="570.7031"/><polygon fill="#696969" points="1357,407.0625,1361,397.0625,1365,407.0625,1361,403.0625" style="stroke: #696969; stroke-width: 1.5;"/><line style="stroke: #696969; stroke-width: 1.5;" x1="1361" x2="1361" y1="223.4219" y2="570.7031"/><line style="stroke: #696969; stroke-width: 1.5;" x1="1361" x2="1113" y1="223.4219" y2="223.4219"/><polygon fill="#696969" points="1123,219.4219,1113,223.4219,1123,227.4219,1119,223.4219" style="stroke: #696969; stroke-width: 1.0;"/><line style="stroke: #696969; stroke-width: 1.5;" x1="1101" x2="1101" y1="510.7031" y2="558.7031"/><polygon fill="#696969" points="1097,548.7031,1101,558.7031,1105,548.7031,1101,552.7031" style="stroke: #696969; stroke-width: 1.0;"/><line style="stroke: #696969; stroke-width: 1.5;" x1="232.5" x2="232.5" y1="160.2813" y2="246.4688"/><polygon fill="#696969" points="228.5,236.4688,232.5,246.4688,236.5,236.4688,232.5,240.4688" style="stroke: #696969; stroke-width: 1.0;"/><line style="stroke: #696969; stroke-width: 1.5;" x1="547" x2="547" y1="160.2813" y2="369.4531"/><polygon fill="#696969" points="543,359.4531,547,369.4531,551,359.4531,547,363.4531" style="stroke: #696969; stroke-width: 1.0;"/><line style="stroke: #696969; stroke-width: 1.5;" x1="668" x2="668" y1="160.2813" y2="369.4531"/><polygon fill="#696969" points="664,359.4531,668,369.4531,672,359.4531,668,363.4531" style="stroke: #696969; stroke-width: 1.0;"/><line style="stroke: #696969; stroke-width: 1.5;" x1="775" x2="775" y1="160.2813" y2="369.4531"/><polygon fill="#696969" points="771,359.4531,775,369.4531,779,359.4531,775,363.4531" style="stroke: #696969; stroke-width: 1.0;"/><line style="stroke: #696969; stroke-width: 1.5;" x1="1101" x2="1101" y1="160.2813" y2="211.4219"/><polygon fill="#696969" points="1097,201.4219,1101,211.4219,1105,201.4219,1101,205.4219" style="stroke: #696969; stroke-width: 1.0;"/><line style="stroke: #696969; stroke-width: 1.5;" x1="232.5" x2="232.5" y1="547.6563" y2="620.5381"/><polygon fill="#696969" points="228.5,610.5381,232.5,620.5381,236.5,610.5381,232.5,614.5381" style="stroke: #696969; stroke-width: 1.0;"/><line style="stroke: #696969; stroke-width: 1.5;" x1="547" x2="547" y1="404.5469" y2="620.5381"/><polygon fill="#696969" points="543,610.5381,547,620.5381,551,610.5381,547,614.5381" style="stroke: #696969; stroke-width: 1.0;"/><line style="stroke: #696969; stroke-width: 1.5;" x1="668" x2="668" y1="404.5469" y2="620.5381"/><polygon fill="#696969" points="664,610.5381,668,620.5381,672,610.5381,668,614.5381" style="stroke: #696969; stroke-width: 1.0;"/><line style="stroke: #696969; stroke-width: 1.5;" x1="775" x2="775" y1="404.5469" y2="620.5381"/><polygon fill="#696969" points="771,610.5381,775,620.5381,779,610.5381,775,614.5381" style="stroke: #696969; stroke-width: 1.0;"/><line style="stroke: #696969; stroke-width: 1.5;" x1="1101" x2="1101" y1="582.7031" y2="620.5381"/><polygon fill="#696969" points="1097,610.5381,1101,620.5381,1105,610.5381,1101,614.5381" style="stroke: #696969; stroke-width: 1.0;"/><text fill="#696969" font-family="sans-serif" font-size="11" lengthAdjust="spacingAndGlyphs" textLength="18" x="1105" y="605.0391">yes</text><line style="stroke: #696969; stroke-width: 1.5;" x1="703.5" x2="703.5" y1="626.5381" y2="646.5381"/><polygon fill="#696969" points="699.5,636.5381,703.5,646.5381,707.5,636.5381,703.5,640.5381" style="stroke: #696969; stroke-width: 1.0;"/><line style="stroke: #696969; stroke-width: 1.5;" x1="703.5" x2="703.5" y1="681.6318" y2="701.6318"/><polygon fill="#696969" points="699.5,691.6318,703.5,701.6318,707.5,691.6318,703.5,695.6318" style="stroke: #696969; stroke-width: 1.0;"/><line style="stroke: #696969; stroke-width: 1.5;" x1="703.5" x2="703.5" y1="134.2813" y2="154.2813"/><polygon fill="#696969" points="699.5,144.2813,703.5,154.2813,707.5,144.2813,703.5,148.2813" style="stroke: #696969; stroke-width: 1.0;"/><line style="stroke: #696969; stroke-width: 1.5;" x1="781.5" x2="1409" y1="768.7256" y2="768.7256"/><polygon fill="#696969" points="1405,467.0938,1409,457.0938,1413,467.0938,1409,463.0938" style="stroke: #696969; stroke-width: 1.5;"/><line style="stroke: #696969; stroke-width: 1.5;" x1="1409" x2="1409" y1="122.2813" y2="768.7256"/><line style="stroke: #696969; stroke-width: 1.5;" x1="1409" x2="715.5" y1="122.2813" y2="122.2813"/><polygon fill="#696969" points="725.5,118.2813,715.5,122.2813,725.5,126.2813,721.5,122.2813" style="stroke: #696969; stroke-width: 1.0;"/><line style="stroke: #696969; stroke-width: 1.5;" x1="703.5" x2="703.5" y1="736.7256" y2="756.7256"/><polygon fill="#696969" points="699.5,746.7256,703.5,756.7256,707.5,746.7256,703.5,750.7256" style="stroke: #696969; stroke-width: 1.0;"/><line style="stroke: #696969; stroke-width: 1.5;" x1="703.5" x2="703.5" y1="90.2813" y2="110.2813"/><polygon fill="#696969" points="699.5,100.2813,703.5,110.2813,707.5,100.2813,703.5,104.2813" style="stroke: #696969; stroke-width: 1.0;"/><line style="stroke: #696969; stroke-width: 1.5;" x1="703.5" x2="703.5" y1="780.7256" y2="822.9785"/><polygon fill="#696969" points="699.5,812.9785,703.5,822.9785,707.5,812.9785,703.5,816.9785" style="stroke: #696969; stroke-width: 1.0;"/><text fill="#696969" font-family="sans-serif" font-size="11" lengthAdjust="spacingAndGlyphs" textLength="18" x="707.5" y="803.0615">yes</text><line style="stroke: #696969; stroke-width: 1.5;" x1="703.5" x2="703.5" y1="858.0723" y2="878.0723"/><polygon fill="#696969" points="699.5,868.0723,703.5,878.0723,707.5,868.0723,703.5,872.0723" style="stroke: #696969; stroke-width: 1.0;"/><text fill="#000080" font-family="sans-serif" font-size="14" lengthAdjust="spacingAndGlyphs" textLength="42" x="10" y="911.6055">©2019</text><a target="_top" xlink:actuate="onRequest" xlink:href="http://www.lifestylesunlimited.com" xlink:show="new" xlink:title="http://www.lifestylesunlimited.com" xlink:type="simple"><text fill="#0000FF" font-family="sans-serif" font-size="14" lengthAdjust="spacingAndGlyphs" text-decoration="underline" textLength="122" x="56" y="911.6055">LifeStyles Unlimited</text><line style="stroke: #0000FF; stroke-width: 1.0;" x1="56" x2="178" y1="913.6055" y2="913.6055"/></a><text fill="#000080" font-family="sans-serif" font-size="14" lengthAdjust="spacingAndGlyphs" textLength="281" x="182" y="911.6055">| Generated Mon Apr 22 08:26:06 CDT 2019</text><!--
@startuml index


skinparam {
  BorderColor Red
  PathHoverColor Blue
}

skinparam Title {
  FontColor Navy
  BackgroundColor PaleGoldenRod
  BorderColor Navy
  BorderRoundCorner 20
}

skinparam activity {
  BackgroundColor Ivory
  BorderColor CornflowerBlue
  FontColor DimGray
  

  Arrow {
    Color dimgray
    FontColor dimgray
  }

  Start {
    Color PHYSICAL
  }

  End {
    Color Coral
  }

  Diamond {
    BackgroundColor Ivory
    BorderColor CornflowerBlue
    FontColor DarkGray
  }

  BackgroundColor<< Exception >> Red
	BorderColor<< Exception >> White
}

skinparam Swimlane {
  BorderColor CornflowerBlue 
}

skinparam Partition {
  BackgroundColor Ivory
  BorderColor CornflowerBlue
  BorderThickness 1
  FontColor CornflowerBlue
  FontSize 16
  BorderRoundCorner 20
}

skinparam Note {
  BackgroundColor LightSteelBlue
  BorderColor CornflowerBlue
  FontColor White
}

skinparam Legend {
  BackgroundColor LightSteelBlue
  BorderColor CornflowerBlue
  FontColor White
}

skinparam Footer {
  FontColor Navy
}


left header 
	<font color=Navy size=18>[[../index.svg ⌂ Home]]</font>
endheader


	Title Unlimited Lifestyle

	start

		repeat

			fork
				partition learning {
					repeat
						fork
							:watch video;
						fork again
							:attend event;
						fork again
							:member services Q&A;
						end fork
						:document process;
					repeat while ()
				}
			fork again
				[[../single-family/pre-qualification.svg?sanitize=true]]#LightSkyBlue:pre-qualification;

			fork again
				[[../single-family/team-building.svg?sanitize=true]]#LightSkyBlue:build team;
			fork again
				[[credit-cards.svg?sanitize=true]]#LightSkyBlue:build credit;
			fork again
				partition saving {
					repeat
						:work;
						:paycheck;
						fork
							:save >= 60% of earnings;
						fork again
							:live off <= 40% of earnings;
							floating note left:<i>act your wage
						end fork

					repeat while (have money for deal)
					->yes;
				}
			end fork
			[[../single-family/single-family-deal.svg?sanitize=true]]#LightSkyBlue:do (another) deal;
			:refine process;
		repeat while (can live off passive income)
		->yes;
		:quit job;



	end


left footer 
	<font size=14>©2019 [[http://www.lifestylesunlimited.com LifeStyles Unlimited]] | Generated Mon Apr 22 08:26:06 CDT 2019</font>
endfooter


@enduml

PlantUML version 1.2019.03(Sun Mar 10 06:04:44 CDT 2019)
(GPL source distribution)
Java Runtime: Java(TM) SE Runtime Environment
JVM: Java HotSpot(TM) 64-Bit Server VM
Java Version: 1.8.0_111-b14
Operating System: Windows 10
OS Version: 10.0
Default Encoding: Cp1252
Language: en
Country: US
--></g></svg>