<?xml version="1.0" encoding="UTF-8" standalone="no"?><svg xmlns="http://www.w3.org/2000/svg" xmlns:xlink="http://www.w3.org/1999/xlink" contentScriptType="application/ecmascript" contentStyleType="text/css" height="1173px" preserveAspectRatio="none" style="width:1435px;height:1173px;" version="1.1" viewBox="0 0 1435 1173" width="1435px" zoomAndPan="magnify"><defs><style type="text/css"><![CDATA[path:hover { stroke: #0000FF !important;}]]></style><filter height="300%" id="flmvk85nyta2n" width="300%" x="-1" y="-1"><feGaussianBlur result="blurOut" stdDeviation="2.0"/><feColorMatrix in="blurOut" result="blurOut2" type="matrix" values="0 0 0 0 0 0 0 0 0 0 0 0 0 0 0 0 0 0 .4 0"/><feOffset dx="4.0" dy="4.0" in="blurOut2" result="blurOut3"/><feBlend in="SourceGraphic" in2="blurOut3" mode="normal"/></filter></defs><g><a target="_top" xlink:actuate="onRequest" xlink:href="../index.svg?sanitize=true" xlink:show="new" xlink:title="../index.svg?sanitize=true" xlink:type="simple"><text fill="#0000FF" font-family="sans-serif" font-size="24" lengthAdjust="spacingAndGlyphs" text-decoration="underline" textLength="90" x="10" y="34.9141">⌂ Home</text><line style="stroke: #0000FF; stroke-width: 1.0;" x1="10" x2="100" y1="36.9141" y2="36.9141"/></a><rect fill="#EEE8AA" height="40.1875" rx="10" ry="10" style="stroke: #000080; stroke-width: 1.5;" width="212" x="610" y="42.1875"/><text fill="#000080" font-family="sans-serif" font-size="24" lengthAdjust="spacingAndGlyphs" textLength="196" x="618" y="72.1016">Unlimited Lifestyle</text><ellipse cx="703.5" cy="95.375" fill="#CCFFCC" filter="url(#flmvk85nyta2n)" rx="10" ry="10" style="stroke: none; stroke-width: 1.0;"/><rect fill="#000000" filter="url(#flmvk85nyta2n)" height="6" rx="2.5" ry="2.5" style="stroke: #000000; stroke-width: 1.0;" width="1387" x="10" y="169.375"/><rect fill="#FFFFF0" filter="url(#flmvk85nyta2n)" height="361.3125" style="stroke: #6495ED; stroke-width: 1.0;" width="441" x="24" y="228.9844"/><path d="M89,229.9844 L89,242.1094 L79,252.1094 L24,252.1094 " fill="none" style="stroke: #6495ED; stroke-width: 1.0;"/><text fill="#6495ED" font-family="sans-serif" font-size="16" lengthAdjust="spacingAndGlyphs" textLength="55" x="27" y="246.5938">learning</text><rect fill="#000000" filter="url(#flmvk85nyta2n)" height="6" rx="2.5" ry="2.5" style="stroke: #000000; stroke-width: 1.0;" width="397" x="34" y="341.1094"/><rect fill="#FFFFF0" filter="url(#flmvk85nyta2n)" height="35.0938" rx="12.5" ry="12.5" style="stroke: #6495ED; stroke-width: 1.0;" width="84" x="48" y="367.1094"/><text fill="#696969" font-family="sans-serif" font-size="12" lengthAdjust="spacingAndGlyphs" textLength="64" x="58" y="389.5664">watch video</text><rect fill="#FFFFF0" filter="url(#flmvk85nyta2n)" height="35.0938" rx="12.5" ry="12.5" style="stroke: #6495ED; stroke-width: 1.0;" width="86" x="160" y="367.1094"/><text fill="#696969" font-family="sans-serif" font-size="12" lengthAdjust="spacingAndGlyphs" textLength="66" x="170" y="389.5664">attend event</text><rect fill="#FFFFF0" filter="url(#flmvk85nyta2n)" height="35.0938" rx="12.5" ry="12.5" style="stroke: #6495ED; stroke-width: 1.0;" width="143" x="274" y="367.1094"/><text fill="#696969" font-family="sans-serif" font-size="12" lengthAdjust="spacingAndGlyphs" textLength="123" x="284" y="389.5664">member services Q&amp;A</text><rect fill="#000000" filter="url(#flmvk85nyta2n)" height="6" rx="2.5" ry="2.5" style="stroke: #000000; stroke-width: 1.0;" width="397" x="34" y="422.2031"/><rect fill="#FFFFF0" filter="url(#flmvk85nyta2n)" height="35.0938" rx="12.5" ry="12.5" style="stroke: #6495ED; stroke-width: 1.0;" width="123" x="171" y="463.2031"/><text fill="#696969" font-family="sans-serif" font-size="12" lengthAdjust="spacingAndGlyphs" textLength="103" x="181" y="485.6602">document process</text><polygon fill="#FFFFF0" filter="url(#flmvk85nyta2n)" points="232.5,269.1094,244.5,281.1094,232.5,293.1094,220.5,281.1094,232.5,269.1094" style="stroke: #6495ED; stroke-width: 1.0;"/><polygon fill="#FFFFF0" filter="url(#flmvk85nyta2n)" points="232.5,546.2969,232.5,546.2969,244.5,558.2969,232.5,570.2969,232.5,570.2969,220.5,558.2969,232.5,546.2969" style="stroke: #6495ED; stroke-width: 1.0;"/><a target="_top" xlink:actuate="onRequest" xlink:href="../single-family/pre-qualification.svg?sanitize=true" xlink:show="new" xlink:title="../single-family/pre-qualification.svg?sanitize=true" xlink:type="simple"><rect fill="#87CEFA" filter="url(#flmvk85nyta2n)" height="35.0938" rx="12.5" ry="12.5" style="stroke: #6495ED; stroke-width: 1.0;" width="108" x="493" y="392.0938"/><text fill="#696969" font-family="sans-serif" font-size="12" lengthAdjust="spacingAndGlyphs" textLength="88" x="503" y="414.5508">pre-qualification</text></a><a target="_top" xlink:actuate="onRequest" xlink:href="../single-family/team-building.svg?sanitize=true" xlink:show="new" xlink:title="../single-family/team-building.svg?sanitize=true" xlink:type="simple"><rect fill="#87CEFA" filter="url(#flmvk85nyta2n)" height="35.0938" rx="12.5" ry="12.5" style="stroke: #6495ED; stroke-width: 1.0;" width="78" x="629" y="392.0938"/><text fill="#696969" font-family="sans-serif" font-size="12" lengthAdjust="spacingAndGlyphs" textLength="58" x="639" y="414.5508">build team</text></a><a target="_top" xlink:actuate="onRequest" xlink:href="credit-cards.svg?sanitize=true" xlink:show="new" xlink:title="credit-cards.svg?sanitize=true" xlink:type="simple"><rect fill="#87CEFA" filter="url(#flmvk85nyta2n)" height="35.0938" rx="12.5" ry="12.5" style="stroke: #6495ED; stroke-width: 1.0;" width="80" x="735" y="392.0938"/><text fill="#696969" font-family="sans-serif" font-size="12" lengthAdjust="spacingAndGlyphs" textLength="60" x="745" y="414.5508">build credit</text></a><rect fill="#FFFFF0" filter="url(#flmvk85nyta2n)" height="444.335" style="stroke: #6495ED; stroke-width: 1.0;" width="540" x="843" y="186.3906"/><path d="M898,187.3906 L898,199.5156 L888,209.5156 L843,209.5156 " fill="none" style="stroke: #6495ED; stroke-width: 1.0;"/><text fill="#6495ED" font-family="sans-serif" font-size="16" lengthAdjust="spacingAndGlyphs" textLength="45" x="846" y="204">saving</text><rect fill="#FFFFF0" filter="url(#flmvk85nyta2n)" height="35.0938" rx="12.5" ry="12.5" style="stroke: #6495ED; stroke-width: 1.0;" width="46" x="1078" y="298.5156"/><text fill="#696969" font-family="sans-serif" font-size="12" lengthAdjust="spacingAndGlyphs" textLength="26" x="1088" y="320.9727">work</text><rect fill="#FFFFF0" filter="url(#flmvk85nyta2n)" height="35.0938" rx="12.5" ry="12.5" style="stroke: #6495ED; stroke-width: 1.0;" width="71" x="1065.5" y="368.6094"/><text fill="#696969" font-family="sans-serif" font-size="12" lengthAdjust="spacingAndGlyphs" textLength="51" x="1075.5" y="391.0664">paycheck</text><rect fill="#000000" filter="url(#flmvk85nyta2n)" height="6" rx="2.5" ry="2.5" style="stroke: #000000; stroke-width: 1.0;" width="496" x="853" y="438.7031"/><rect fill="#FFFFF0" filter="url(#flmvk85nyta2n)" height="50.1875" rx="12.5" ry="12.5" style="stroke: #6495ED; stroke-width: 1.0;" width="156" x="867" y="464.7031"/><text fill="#696969" font-family="sans-serif" font-size="12" lengthAdjust="spacingAndGlyphs" textLength="136" x="877" y="487.1602">save &gt;= 60% of earnings</text><text fill="#696969" font-family="sans-serif" font-size="12" font-style="italic" lengthAdjust="spacingAndGlyphs" textLength="61" x="877" y="502.2539">2% interest</text><path d="M1051,476.6211 L1051,502.9727 L1151,502.9727 L1151,486.6211 L1141,476.6211 L1051,476.6211 " fill="#B0C4DE" filter="url(#flmvk85nyta2n)" style="stroke: #6495ED; stroke-width: 1.0;"/><path d="M1141,476.6211 L1141,486.6211 L1151,486.6211 L1141,476.6211 " fill="#B0C4DE" style="stroke: #6495ED; stroke-width: 1.0;"/><text fill="#FFFFFF" font-family="sans-serif" font-size="13" font-style="italic" lengthAdjust="spacingAndGlyphs" textLength="79" x="1057" y="495.1162">act your wage</text><rect fill="#FFFFF0" filter="url(#flmvk85nyta2n)" height="35.0938" rx="12.5" ry="12.5" style="stroke: #6495ED; stroke-width: 1.0;" width="164" x="1171" y="472.25"/><text fill="#696969" font-family="sans-serif" font-size="12" lengthAdjust="spacingAndGlyphs" textLength="144" x="1181" y="494.707">live off &lt;= 40% of earnings</text><rect fill="#000000" filter="url(#flmvk85nyta2n)" height="6" rx="2.5" ry="2.5" style="stroke: #000000; stroke-width: 1.0;" width="496" x="853" y="534.8906"/><polygon fill="#FFFFF0" filter="url(#flmvk85nyta2n)" points="1101,226.5156,1113,238.5156,1101,250.5156,1089,238.5156,1101,226.5156" style="stroke: #6495ED; stroke-width: 1.0;"/><polygon fill="#FFFFF0" filter="url(#flmvk85nyta2n)" points="1051.5,588.8906,1150.5,588.8906,1162.5,600.8906,1150.5,612.8906,1051.5,612.8906,1039.5,600.8906,1051.5,588.8906" style="stroke: #6495ED; stroke-width: 1.0;"/><text fill="#A9A9A9" font-family="sans-serif" font-size="11" lengthAdjust="spacingAndGlyphs" textLength="99" x="1051.5" y="605.3916">have money for deal</text><rect fill="#000000" filter="url(#flmvk85nyta2n)" height="6" rx="2.5" ry="2.5" style="stroke: #000000; stroke-width: 1.0;" width="1387" x="10" y="650.7256"/><a target="_top" xlink:actuate="onRequest" xlink:href="legal.svg?sanitize=true" xlink:show="new" xlink:title="legal.svg?sanitize=true" xlink:type="simple"><rect fill="#87CEFA" filter="url(#flmvk85nyta2n)" height="35.0938" rx="12.5" ry="12.5" style="stroke: #6495ED; stroke-width: 1.0;" width="98" x="654.5" y="676.7256"/><text fill="#696969" font-family="sans-serif" font-size="12" lengthAdjust="spacingAndGlyphs" textLength="78" x="664.5" y="699.1826">structure legal</text></a><polygon fill="#FFFFF0" filter="url(#flmvk85nyta2n)" points="669,731.8193,738,731.8193,750,743.8193,738,755.8193,669,755.8193,657,743.8193,669,731.8193" style="stroke: #6495ED; stroke-width: 1.0;"/><text fill="#A9A9A9" font-family="sans-serif" font-size="11" lengthAdjust="spacingAndGlyphs" textLength="69" x="669" y="748.3203">have &gt; 50,000</text><text fill="#696969" font-family="sans-serif" font-size="11" lengthAdjust="spacingAndGlyphs" textLength="18" x="639" y="741.4023">yes</text><text fill="#696969" font-family="sans-serif" font-size="11" lengthAdjust="spacingAndGlyphs" textLength="12" x="750" y="741.4023">no</text><a target="_top" xlink:actuate="onRequest" xlink:href="../multi-family/multi-family-deal.svg?sanitize=true" xlink:show="new" xlink:title="../multi-family/multi-family-deal.svg?sanitize=true" xlink:type="simple"><rect fill="#87CEFA" filter="url(#flmvk85nyta2n)" height="50.1875" rx="12.5" ry="12.5" style="stroke: #6495ED; stroke-width: 1.0;" width="110" x="581.75" y="765.8193"/><text fill="#696969" font-family="sans-serif" font-size="12" lengthAdjust="spacingAndGlyphs" textLength="67" x="591.75" y="788.2764">do (another)</text><text fill="#696969" font-family="sans-serif" font-size="12" lengthAdjust="spacingAndGlyphs" textLength="90" x="591.75" y="803.3701">multi-family deal</text></a><path d="M848.75,765.8193 L848.75,801.5225 L828.75,805.5225 L848.75,809.5225 L848.75,845.2256 A0,0 0 0 0 848.75,845.2256 L973.75,845.2256 A0,0 0 0 0 973.75,845.2256 L973.75,775.8193 L963.75,765.8193 L848.75,765.8193 A0,0 0 0 0 848.75,765.8193 " fill="#B0C4DE" filter="url(#flmvk85nyta2n)" style="stroke: #6495ED; stroke-width: 1.0;"/><path d="M963.75,765.8193 L963.75,775.8193 L973.75,775.8193 L963.75,765.8193 " fill="#B0C4DE" style="stroke: #6495ED; stroke-width: 1.0;"/><text fill="#FFFFFF" font-family="sans-serif" font-size="13" font-weight="bold" lengthAdjust="spacingAndGlyphs" textLength="24" x="854.75" y="786.3145">City</text><text fill="#FFFFFF" font-family="sans-serif" font-size="13" font-weight="bold" lengthAdjust="spacingAndGlyphs" textLength="33" x="925.75" y="786.3145">All In</text><text fill="#FFFFFF" font-family="sans-serif" font-size="13" lengthAdjust="spacingAndGlyphs" textLength="36" x="854.75" y="802.666">Dallas</text><text fill="#FFFFFF" font-family="sans-serif" font-size="13" lengthAdjust="spacingAndGlyphs" textLength="21" x="925.75" y="802.666">40k</text><text fill="#FFFFFF" font-family="sans-serif" font-size="13" lengthAdjust="spacingAndGlyphs" textLength="48" x="854.75" y="819.0176">Houston</text><text fill="#FFFFFF" font-family="sans-serif" font-size="13" lengthAdjust="spacingAndGlyphs" textLength="21" x="925.75" y="819.0176">??k</text><text fill="#FFFFFF" font-family="sans-serif" font-size="13" lengthAdjust="spacingAndGlyphs" textLength="71" x="854.75" y="835.3691">San Antonio</text><text fill="#FFFFFF" font-family="sans-serif" font-size="13" lengthAdjust="spacingAndGlyphs" textLength="21" x="925.75" y="835.3691">??k</text><line style="stroke: #FFFFFF; stroke-width: 1.0;" x1="854.75" x2="958.75" y1="772.8193" y2="772.8193"/><line style="stroke: #FFFFFF; stroke-width: 1.0;" x1="854.75" x2="958.75" y1="789.1709" y2="789.1709"/><line style="stroke: #FFFFFF; stroke-width: 1.0;" x1="854.75" x2="958.75" y1="805.5225" y2="805.5225"/><line style="stroke: #FFFFFF; stroke-width: 1.0;" x1="854.75" x2="958.75" y1="821.874" y2="821.874"/><line style="stroke: #FFFFFF; stroke-width: 1.0;" x1="854.75" x2="958.75" y1="838.2256" y2="838.2256"/><line style="stroke: #FFFFFF; stroke-width: 1.0;" x1="854.75" x2="854.75" y1="772.8193" y2="838.2256"/><line style="stroke: #FFFFFF; stroke-width: 1.0;" x1="925.75" x2="925.75" y1="772.8193" y2="838.2256"/><line style="stroke: #FFFFFF; stroke-width: 1.0;" x1="958.75" x2="958.75" y1="772.8193" y2="838.2256"/><a target="_top" xlink:actuate="onRequest" xlink:href="../single-family/single-family-deal.svg?sanitize=true" xlink:show="new" xlink:title="../single-family/single-family-deal.svg?sanitize=true" xlink:type="simple"><rect fill="#87CEFA" filter="url(#flmvk85nyta2n)" height="50.1875" rx="12.5" ry="12.5" style="stroke: #6495ED; stroke-width: 1.0;" width="117" x="711.75" y="780.4287"/><text fill="#696969" font-family="sans-serif" font-size="12" lengthAdjust="spacingAndGlyphs" textLength="67" x="721.75" y="802.8857">do (another)</text><text fill="#696969" font-family="sans-serif" font-size="12" lengthAdjust="spacingAndGlyphs" textLength="97" x="721.75" y="817.9795">single-family deal</text></a><polygon fill="#FFFFF0" filter="url(#flmvk85nyta2n)" points="703.5,851.2256,715.5,863.2256,703.5,875.2256,691.5,863.2256,703.5,851.2256" style="stroke: #6495ED; stroke-width: 1.0;"/><rect fill="#FFFFF0" filter="url(#flmvk85nyta2n)" height="35.0938" rx="12.5" ry="12.5" style="stroke: #6495ED; stroke-width: 1.0;" width="99" x="654" y="895.2256"/><text fill="#696969" font-family="sans-serif" font-size="12" lengthAdjust="spacingAndGlyphs" textLength="79" x="664" y="917.6826">refine process</text><polygon fill="#FFFFF0" filter="url(#flmvk85nyta2n)" points="703.5,125.375,715.5,137.375,703.5,149.375,691.5,137.375,703.5,125.375" style="stroke: #6495ED; stroke-width: 1.0;"/><polygon fill="#FFFFF0" filter="url(#flmvk85nyta2n)" points="637.5,950.3193,769.5,950.3193,781.5,962.3193,769.5,974.3193,637.5,974.3193,625.5,962.3193,637.5,950.3193" style="stroke: #6495ED; stroke-width: 1.0;"/><text fill="#A9A9A9" font-family="sans-serif" font-size="11" lengthAdjust="spacingAndGlyphs" textLength="132" x="637.5" y="966.8203">can live off passive income</text><rect fill="#FFFFF0" filter="url(#flmvk85nyta2n)" height="35.0938" rx="12.5" ry="12.5" style="stroke: #6495ED; stroke-width: 1.0;" width="60" x="673.5" y="1016.5723"/><text fill="#696969" font-family="sans-serif" font-size="12" lengthAdjust="spacingAndGlyphs" textLength="40" x="683.5" y="1039.0293">quit job</text><a target="_top" xlink:actuate="onRequest" xlink:href="taxes.svg?sanitize=true" xlink:show="new" xlink:title="taxes.svg?sanitize=true" xlink:type="simple"><rect fill="#87CEFA" filter="url(#flmvk85nyta2n)" height="35.0938" rx="12.5" ry="12.5" style="stroke: #6495ED; stroke-width: 1.0;" width="71" x="668" y="1071.666"/><text fill="#696969" font-family="sans-serif" font-size="12" lengthAdjust="spacingAndGlyphs" textLength="51" x="678" y="1094.123">pay taxes</text></a><ellipse cx="703.5" cy="1136.7598" fill="#FFFFFF" filter="url(#flmvk85nyta2n)" rx="10" ry="10" style="stroke: #FF7F50; stroke-width: 1.5;"/><line style="stroke: #FF7F50; stroke-width: 2.5;" x1="697.3128" x2="709.6872" y1="1130.5726" y2="1142.9469"/><line style="stroke: #FF7F50; stroke-width: 2.5;" x1="709.6872" x2="697.3128" y1="1130.5726" y2="1142.9469"/><line style="stroke: #696969; stroke-width: 1.5;" x1="90" x2="90" y1="347.1094" y2="367.1094"/><polygon fill="#696969" points="86,357.1094,90,367.1094,94,357.1094,90,361.1094" style="stroke: #696969; stroke-width: 1.0;"/><line style="stroke: #696969; stroke-width: 1.5;" x1="203" x2="203" y1="347.1094" y2="367.1094"/><polygon fill="#696969" points="199,357.1094,203,367.1094,207,357.1094,203,361.1094" style="stroke: #696969; stroke-width: 1.0;"/><line style="stroke: #696969; stroke-width: 1.5;" x1="345.5" x2="345.5" y1="347.1094" y2="367.1094"/><polygon fill="#696969" points="341.5,357.1094,345.5,367.1094,349.5,357.1094,345.5,361.1094" style="stroke: #696969; stroke-width: 1.0;"/><line style="stroke: #696969; stroke-width: 1.5;" x1="90" x2="90" y1="402.2031" y2="422.2031"/><polygon fill="#696969" points="86,412.2031,90,422.2031,94,412.2031,90,416.2031" style="stroke: #696969; stroke-width: 1.0;"/><line style="stroke: #696969; stroke-width: 1.5;" x1="203" x2="203" y1="402.2031" y2="422.2031"/><polygon fill="#696969" points="199,412.2031,203,422.2031,207,412.2031,203,416.2031" style="stroke: #696969; stroke-width: 1.0;"/><line style="stroke: #696969; stroke-width: 1.5;" x1="345.5" x2="345.5" y1="402.2031" y2="422.2031"/><polygon fill="#696969" points="341.5,412.2031,345.5,422.2031,349.5,412.2031,345.5,416.2031" style="stroke: #696969; stroke-width: 1.0;"/><line style="stroke: #696969; stroke-width: 1.5;" x1="232.5" x2="232.5" y1="428.2031" y2="463.2031"/><polygon fill="#696969" points="228.5,453.2031,232.5,463.2031,236.5,453.2031,232.5,457.2031" style="stroke: #696969; stroke-width: 1.0;"/><line style="stroke: #696969; stroke-width: 1.5;" x1="232.5" x2="232.5" y1="293.1094" y2="341.1094"/><polygon fill="#696969" points="228.5,331.1094,232.5,341.1094,236.5,331.1094,232.5,335.1094" style="stroke: #696969; stroke-width: 1.0;"/><line style="stroke: #696969; stroke-width: 1.5;" x1="244.5" x2="443" y1="558.2969" y2="558.2969"/><polygon fill="#696969" points="439,429.7031,443,419.7031,447,429.7031,443,425.7031" style="stroke: #696969; stroke-width: 1.5;"/><line style="stroke: #696969; stroke-width: 1.5;" x1="443" x2="443" y1="281.1094" y2="558.2969"/><line style="stroke: #696969; stroke-width: 1.5;" x1="443" x2="244.5" y1="281.1094" y2="281.1094"/><polygon fill="#696969" points="254.5,277.1094,244.5,281.1094,254.5,285.1094,250.5,281.1094" style="stroke: #696969; stroke-width: 1.0;"/><line style="stroke: #696969; stroke-width: 1.5;" x1="232.5" x2="232.5" y1="498.2969" y2="546.2969"/><polygon fill="#696969" points="228.5,536.2969,232.5,546.2969,236.5,536.2969,232.5,540.2969" style="stroke: #696969; stroke-width: 1.0;"/><line style="stroke: #696969; stroke-width: 1.5;" x1="1101" x2="1101" y1="333.6094" y2="368.6094"/><polygon fill="#696969" points="1097,358.6094,1101,368.6094,1105,358.6094,1101,362.6094" style="stroke: #696969; stroke-width: 1.0;"/><line style="stroke: #696969; stroke-width: 1.5;" x1="945" x2="945" y1="444.7031" y2="464.7031"/><polygon fill="#696969" points="941,454.7031,945,464.7031,949,454.7031,945,458.7031" style="stroke: #696969; stroke-width: 1.0;"/><line style="stroke: #696969; stroke-width: 1.5;" x1="1253" x2="1253" y1="444.7031" y2="472.25"/><polygon fill="#696969" points="1249,462.25,1253,472.25,1257,462.25,1253,466.25" style="stroke: #696969; stroke-width: 1.0;"/><line style="stroke: #696969; stroke-width: 1.5;" x1="945" x2="945" y1="514.8906" y2="534.8906"/><polygon fill="#696969" points="941,524.8906,945,534.8906,949,524.8906,945,528.8906" style="stroke: #696969; stroke-width: 1.0;"/><line style="stroke: #696969; stroke-width: 1.5;" x1="1253" x2="1253" y1="507.3438" y2="534.8906"/><polygon fill="#696969" points="1249,524.8906,1253,534.8906,1257,524.8906,1253,528.8906" style="stroke: #696969; stroke-width: 1.0;"/><line style="stroke: #696969; stroke-width: 1.5;" x1="1101" x2="1101" y1="403.7031" y2="438.7031"/><polygon fill="#696969" points="1097,428.7031,1101,438.7031,1105,428.7031,1101,432.7031" style="stroke: #696969; stroke-width: 1.0;"/><line style="stroke: #696969; stroke-width: 1.5;" x1="1101" x2="1101" y1="250.5156" y2="298.5156"/><polygon fill="#696969" points="1097,288.5156,1101,298.5156,1105,288.5156,1101,292.5156" style="stroke: #696969; stroke-width: 1.0;"/><line style="stroke: #696969; stroke-width: 1.5;" x1="1162.5" x2="1361" y1="600.8906" y2="600.8906"/><polygon fill="#696969" points="1357,429.7031,1361,419.7031,1365,429.7031,1361,425.7031" style="stroke: #696969; stroke-width: 1.5;"/><line style="stroke: #696969; stroke-width: 1.5;" x1="1361" x2="1361" y1="238.5156" y2="600.8906"/><line style="stroke: #696969; stroke-width: 1.5;" x1="1361" x2="1113" y1="238.5156" y2="238.5156"/><polygon fill="#696969" points="1123,234.5156,1113,238.5156,1123,242.5156,1119,238.5156" style="stroke: #696969; stroke-width: 1.0;"/><line style="stroke: #696969; stroke-width: 1.5;" x1="1101" x2="1101" y1="540.8906" y2="588.8906"/><polygon fill="#696969" points="1097,578.8906,1101,588.8906,1105,578.8906,1101,582.8906" style="stroke: #696969; stroke-width: 1.0;"/><line style="stroke: #696969; stroke-width: 1.5;" x1="232.5" x2="232.5" y1="175.375" y2="269.1094"/><polygon fill="#696969" points="228.5,259.1094,232.5,269.1094,236.5,259.1094,232.5,263.1094" style="stroke: #696969; stroke-width: 1.0;"/><line style="stroke: #696969; stroke-width: 1.5;" x1="547" x2="547" y1="175.375" y2="392.0938"/><polygon fill="#696969" points="543,382.0938,547,392.0938,551,382.0938,547,386.0938" style="stroke: #696969; stroke-width: 1.0;"/><line style="stroke: #696969; stroke-width: 1.5;" x1="668" x2="668" y1="175.375" y2="392.0938"/><polygon fill="#696969" points="664,382.0938,668,392.0938,672,382.0938,668,386.0938" style="stroke: #696969; stroke-width: 1.0;"/><line style="stroke: #696969; stroke-width: 1.5;" x1="775" x2="775" y1="175.375" y2="392.0938"/><polygon fill="#696969" points="771,382.0938,775,392.0938,779,382.0938,775,386.0938" style="stroke: #696969; stroke-width: 1.0;"/><line style="stroke: #696969; stroke-width: 1.5;" x1="1101" x2="1101" y1="175.375" y2="226.5156"/><polygon fill="#696969" points="1097,216.5156,1101,226.5156,1105,216.5156,1101,220.5156" style="stroke: #696969; stroke-width: 1.0;"/><line style="stroke: #696969; stroke-width: 1.5;" x1="232.5" x2="232.5" y1="570.2969" y2="650.7256"/><polygon fill="#696969" points="228.5,640.7256,232.5,650.7256,236.5,640.7256,232.5,644.7256" style="stroke: #696969; stroke-width: 1.0;"/><line style="stroke: #696969; stroke-width: 1.5;" x1="547" x2="547" y1="427.1875" y2="650.7256"/><polygon fill="#696969" points="543,640.7256,547,650.7256,551,640.7256,547,644.7256" style="stroke: #696969; stroke-width: 1.0;"/><line style="stroke: #696969; stroke-width: 1.5;" x1="668" x2="668" y1="427.1875" y2="650.7256"/><polygon fill="#696969" points="664,640.7256,668,650.7256,672,640.7256,668,644.7256" style="stroke: #696969; stroke-width: 1.0;"/><line style="stroke: #696969; stroke-width: 1.5;" x1="775" x2="775" y1="427.1875" y2="650.7256"/><polygon fill="#696969" points="771,640.7256,775,650.7256,779,640.7256,775,644.7256" style="stroke: #696969; stroke-width: 1.0;"/><line style="stroke: #696969; stroke-width: 1.5;" x1="1101" x2="1101" y1="612.8906" y2="650.7256"/><polygon fill="#696969" points="1097,640.7256,1101,650.7256,1105,640.7256,1101,644.7256" style="stroke: #696969; stroke-width: 1.0;"/><text fill="#696969" font-family="sans-serif" font-size="11" lengthAdjust="spacingAndGlyphs" textLength="18" x="1105" y="635.2266">yes</text><line style="stroke: #696969; stroke-width: 1.5;" x1="703.5" x2="703.5" y1="656.7256" y2="676.7256"/><polygon fill="#696969" points="699.5,666.7256,703.5,676.7256,707.5,666.7256,703.5,670.7256" style="stroke: #696969; stroke-width: 1.0;"/><line style="stroke: #696969; stroke-width: 1.5;" x1="657" x2="636.75" y1="743.8193" y2="743.8193"/><line style="stroke: #696969; stroke-width: 1.5;" x1="636.75" x2="636.75" y1="743.8193" y2="765.8193"/><polygon fill="#696969" points="632.75,755.8193,636.75,765.8193,640.75,755.8193,636.75,759.8193" style="stroke: #696969; stroke-width: 1.0;"/><line style="stroke: #696969; stroke-width: 1.5;" x1="750" x2="770.25" y1="743.8193" y2="743.8193"/><line style="stroke: #696969; stroke-width: 1.5;" x1="770.25" x2="770.25" y1="743.8193" y2="780.4287"/><polygon fill="#696969" points="766.25,770.4287,770.25,780.4287,774.25,770.4287,770.25,774.4287" style="stroke: #696969; stroke-width: 1.0;"/><line style="stroke: #696969; stroke-width: 1.5;" x1="636.75" x2="636.75" y1="816.0068" y2="863.2256"/><line style="stroke: #696969; stroke-width: 1.5;" x1="636.75" x2="691.5" y1="863.2256" y2="863.2256"/><polygon fill="#696969" points="681.5,859.2256,691.5,863.2256,681.5,867.2256,685.5,863.2256" style="stroke: #696969; stroke-width: 1.0;"/><line style="stroke: #696969; stroke-width: 1.5;" x1="770.25" x2="770.25" y1="830.6162" y2="863.2256"/><line style="stroke: #696969; stroke-width: 1.5;" x1="770.25" x2="715.5" y1="863.2256" y2="863.2256"/><polygon fill="#696969" points="725.5,859.2256,715.5,863.2256,725.5,867.2256,721.5,863.2256" style="stroke: #696969; stroke-width: 1.0;"/><line style="stroke: #696969; stroke-width: 1.5;" x1="703.5" x2="703.5" y1="711.8193" y2="731.8193"/><polygon fill="#696969" points="699.5,721.8193,703.5,731.8193,707.5,721.8193,703.5,725.8193" style="stroke: #696969; stroke-width: 1.0;"/><line style="stroke: #696969; stroke-width: 1.5;" x1="703.5" x2="703.5" y1="875.2256" y2="895.2256"/><polygon fill="#696969" points="699.5,885.2256,703.5,895.2256,707.5,885.2256,703.5,889.2256" style="stroke: #696969; stroke-width: 1.0;"/><line style="stroke: #696969; stroke-width: 1.5;" x1="703.5" x2="703.5" y1="149.375" y2="169.375"/><polygon fill="#696969" points="699.5,159.375,703.5,169.375,707.5,159.375,703.5,163.375" style="stroke: #696969; stroke-width: 1.0;"/><line style="stroke: #696969; stroke-width: 1.5;" x1="781.5" x2="1409" y1="962.3193" y2="962.3193"/><polygon fill="#696969" points="1405,578.9375,1409,568.9375,1413,578.9375,1409,574.9375" style="stroke: #696969; stroke-width: 1.5;"/><line style="stroke: #696969; stroke-width: 1.5;" x1="1409" x2="1409" y1="137.375" y2="962.3193"/><line style="stroke: #696969; stroke-width: 1.5;" x1="1409" x2="715.5" y1="137.375" y2="137.375"/><polygon fill="#696969" points="725.5,133.375,715.5,137.375,725.5,141.375,721.5,137.375" style="stroke: #696969; stroke-width: 1.0;"/><line style="stroke: #696969; stroke-width: 1.5;" x1="703.5" x2="703.5" y1="930.3193" y2="950.3193"/><polygon fill="#696969" points="699.5,940.3193,703.5,950.3193,707.5,940.3193,703.5,944.3193" style="stroke: #696969; stroke-width: 1.0;"/><line style="stroke: #696969; stroke-width: 1.5;" x1="703.5" x2="703.5" y1="105.375" y2="125.375"/><polygon fill="#696969" points="699.5,115.375,703.5,125.375,707.5,115.375,703.5,119.375" style="stroke: #696969; stroke-width: 1.0;"/><line style="stroke: #696969; stroke-width: 1.5;" x1="703.5" x2="703.5" y1="974.3193" y2="1016.5723"/><polygon fill="#696969" points="699.5,1006.5723,703.5,1016.5723,707.5,1006.5723,703.5,1010.5723" style="stroke: #696969; stroke-width: 1.0;"/><text fill="#696969" font-family="sans-serif" font-size="11" lengthAdjust="spacingAndGlyphs" textLength="18" x="707.5" y="996.6553">yes</text><line style="stroke: #696969; stroke-width: 1.5;" x1="703.5" x2="703.5" y1="1051.666" y2="1071.666"/><polygon fill="#696969" points="699.5,1061.666,703.5,1071.666,707.5,1061.666,703.5,1065.666" style="stroke: #696969; stroke-width: 1.0;"/><line style="stroke: #696969; stroke-width: 1.5;" x1="703.5" x2="703.5" y1="1106.7598" y2="1126.7598"/><polygon fill="#696969" points="699.5,1116.7598,703.5,1126.7598,707.5,1116.7598,703.5,1120.7598" style="stroke: #696969; stroke-width: 1.0;"/><text fill="#000080" font-family="sans-serif" font-size="14" lengthAdjust="spacingAndGlyphs" textLength="42" x="10" y="1160.293">©2019</text><a target="_top" xlink:actuate="onRequest" xlink:href="http://www.lifestylesunlimited.com" xlink:show="new" xlink:title="http://www.lifestylesunlimited.com" xlink:type="simple"><text fill="#0000FF" font-family="sans-serif" font-size="14" lengthAdjust="spacingAndGlyphs" text-decoration="underline" textLength="122" x="56" y="1160.293">LifeStyles Unlimited</text><line style="stroke: #0000FF; stroke-width: 1.0;" x1="56" x2="178" y1="1162.293" y2="1162.293"/></a><text fill="#000080" font-family="sans-serif" font-size="14" lengthAdjust="spacingAndGlyphs" textLength="283" x="182" y="1160.293">| Generated Sun May 12 17:24:39 CDT 2019</text><!--
@startuml index


skinparam {
  BorderColor Red
  PathHoverColor Blue
}

skinparam Title {
  FontColor Navy
  BackgroundColor PaleGoldenRod
  BorderColor Navy
  BorderRoundCorner 20
  FontSize 24
}

skinparam activity {
  BackgroundColor Ivory
  BorderColor CornflowerBlue
  BorderThickness 1
  FontColor DimGray
  

  Arrow {
    Color dimgray
    FontColor dimgray
  }

  Start {
    Color PHYSICAL
  }

  End {
    Color Coral
  }

  Diamond {
    BackgroundColor Ivory
    BorderColor CornflowerBlue
    FontColor DarkGray
  }

  BackgroundColor<< Exception >> Red
	BorderColor<< Exception >> White
}

skinparam Swimlane {
  BorderColor CornflowerBlue 
}

skinparam Partition {
  BackgroundColor Ivory
  BorderColor CornflowerBlue
  BorderThickness 1
  FontColor CornflowerBlue
  FontSize 16
  BorderRoundCorner 20
}

skinparam Note {
  BackgroundColor LightSteelBlue
  BorderColor CornflowerBlue
  FontColor White
}

skinparam Legend {
  BackgroundColor LightSteelBlue
  BorderColor CornflowerBlue
  FontColor White
}

skinparam Footer {
  FontColor Navy
}


left header 
	<font color=Navy size=24>[[../index.svg?sanitize=true ⌂ Home]]</font>
endheader


	Title Unlimited Lifestyle

	start

		repeat

			fork
				partition learning {
					repeat
						fork
							:watch video;
						fork again
							:attend event;
						fork again
							:member services Q&A;
						end fork
						:document process;
					repeat while ()
				}
			fork again
				[[../single-family/pre-qualification.svg?sanitize=true]]#LightSkyBlue:pre-qualification;

			fork again
				[[../single-family/team-building.svg?sanitize=true]]#LightSkyBlue:build team;
			fork again
				[[credit-cards.svg?sanitize=true]]#LightSkyBlue:build credit;
			fork again
				partition saving {
					repeat
						:work;
						:paycheck;
						fork
							:save >= 60% of earnings\n<i>2% interest;
						fork again
							:live off <= 40% of earnings;
							floating note left:<i>act your wage
						end fork

					repeat while (have money for deal)
					->yes;
				}
			end fork
			[[legal.svg?sanitize=true]]#LightSkyBlue:structure legal;
			if(have > 50,000) then (yes)
				[[../multi-family/multi-family-deal.svg?sanitize=true]]#LightSkyBlue:do (another)\nmulti-family deal;
			else (no)
				[[../single-family/single-family-deal.svg?sanitize=true]]#LightSkyBlue:do (another)\nsingle-family deal;
				note right
					||City||All In||
					|Dallas|40k|
					|Houston|??k|
					|San Antonio|??k|
				end note
			endif
			:refine process;
		repeat while (can live off passive income)
		->yes;
		:quit job;

		[[taxes.svg?sanitize=true]]#LightSkyBlue:pay taxes;


	end


left footer 
	<font size=14>©2019 [[http://www.lifestylesunlimited.com LifeStyles Unlimited]] | Generated Sun May 12 17:24:39 CDT 2019</font>
endfooter


@enduml

PlantUML version 1.2019.03(Sun Mar 10 06:04:44 CDT 2019)
(GPL source distribution)
Java Runtime: Java(TM) SE Runtime Environment
JVM: Java HotSpot(TM) 64-Bit Server VM
Java Version: 1.8.0_111-b14
Operating System: Windows 10
OS Version: 10.0
Default Encoding: Cp1252
Language: en
Country: US
--></g></svg>