<?xml version="1.0" encoding="UTF-8" standalone="no"?><svg xmlns="http://www.w3.org/2000/svg" xmlns:xlink="http://www.w3.org/1999/xlink" contentScriptType="application/ecmascript" contentStyleType="text/css" height="799px" preserveAspectRatio="none" style="width:1081px;height:799px;" version="1.1" viewBox="0 0 1081 799" width="1081px" zoomAndPan="magnify"><defs><style type="text/css"><![CDATA[path:hover { stroke: #0000FF !important;}]]></style><filter height="300%" id="f1wkp3p7ku0wuj" width="300%" x="-1" y="-1"><feGaussianBlur result="blurOut" stdDeviation="2.0"/><feColorMatrix in="blurOut" result="blurOut2" type="matrix" values="0 0 0 0 0 0 0 0 0 0 0 0 0 0 0 0 0 0 .4 0"/><feOffset dx="4.0" dy="4.0" in="blurOut2" result="blurOut3"/><feBlend in="SourceGraphic" in2="blurOut3" mode="normal"/></filter></defs><g><a target="_top" xlink:actuate="onRequest" xlink:href="../index.svg" xlink:show="new" xlink:title="../index.svg" xlink:type="simple"><text fill="#0000FF" font-family="sans-serif" font-size="10" lengthAdjust="spacingAndGlyphs" text-decoration="underline" textLength="39" x="10" y="20.3809">⌂ Home</text><line style="stroke: #0000FF; stroke-width: 1.0;" x1="10" x2="49" y1="22.3809" y2="22.3809"/></a><rect fill="#EEE8AA" height="32.6406" rx="10" ry="10" style="stroke: #000080; stroke-width: 1.5;" width="161" x="458.5" y="24.5781"/><text fill="#000080" font-family="sans-serif" font-size="18" lengthAdjust="spacingAndGlyphs" textLength="145" x="466.5" y="48.2637">Unlimited Lifestyle</text><ellipse cx="526.5" cy="70.2188" fill="#000080" filter="url(#f1wkp3p7ku0wuj)" rx="10" ry="10" style="stroke: none; stroke-width: 1.0;"/><rect fill="#000000" filter="url(#f1wkp3p7ku0wuj)" height="6" rx="2.5" ry="2.5" style="stroke: #000000; stroke-width: 1.0;" width="1033" x="10" y="144.2188"/><rect fill="#FFFFF0" filter="url(#f1wkp3p7ku0wuj)" height="35.0938" rx="12.5" ry="12.5" style="stroke: #6495ED; stroke-width: 1.5;" width="96" x="24" y="304.3594"/><text fill="#A9A9A9" font-family="sans-serif" font-size="12" lengthAdjust="spacingAndGlyphs" textLength="76" x="34" y="326.8164">learn process</text><rect fill="#FFFFF0" filter="url(#f1wkp3p7ku0wuj)" height="35.0938" rx="12.5" ry="12.5" style="stroke: #6495ED; stroke-width: 1.5;" width="176" x="148" y="269.3125"/><text fill="#A9A9A9" font-family="sans-serif" font-size="12" lengthAdjust="spacingAndGlyphs" textLength="156" x="158" y="291.7695">conventional prequalification</text><rect fill="#FFFFF0" filter="url(#f1wkp3p7ku0wuj)" height="35.0938" rx="12.5" ry="12.5" style="stroke: #6495ED; stroke-width: 1.5;" width="172" x="150" y="339.4063"/><text fill="#A9A9A9" font-family="sans-serif" font-size="12" lengthAdjust="spacingAndGlyphs" textLength="152" x="160" y="361.8633">hard money prequalification</text><rect fill="#FFFFF0" filter="url(#f1wkp3p7ku0wuj)" height="35.0938" rx="12.5" ry="12.5" style="stroke: #6495ED; stroke-width: 1.5;" width="78" x="377.5" y="269.3125"/><text fill="#A9A9A9" font-family="sans-serif" font-size="12" lengthAdjust="spacingAndGlyphs" textLength="58" x="387.5" y="291.7695">build team</text><rect fill="#FFFFF0" filter="url(#f1wkp3p7ku0wuj)" height="35.0938" rx="12.5" ry="12.5" style="stroke: #6495ED; stroke-width: 1.5;" width="129" x="352" y="339.4063"/><text fill="#A9A9A9" font-family="sans-serif" font-size="12" lengthAdjust="spacingAndGlyphs" textLength="109" x="362" y="361.8633">build alternate team</text><rect fill="#FFFFF0" filter="url(#f1wkp3p7ku0wuj)" height="35.0938" rx="12.5" ry="12.5" style="stroke: #6495ED; stroke-width: 1.5;" width="46" x="734" y="214.2188"/><text fill="#A9A9A9" font-family="sans-serif" font-size="12" lengthAdjust="spacingAndGlyphs" textLength="26" x="744" y="236.6758">work</text><rect fill="#FFFFF0" filter="url(#f1wkp3p7ku0wuj)" height="35.0938" rx="12.5" ry="12.5" style="stroke: #6495ED; stroke-width: 1.5;" width="71" x="721.5" y="278.3594"/><text fill="#A9A9A9" font-family="sans-serif" font-size="12" lengthAdjust="spacingAndGlyphs" textLength="51" x="731.5" y="300.8164">paycheck</text><rect fill="#000000" filter="url(#f1wkp3p7ku0wuj)" height="6" rx="2.5" ry="2.5" style="stroke: #000000; stroke-width: 1.0;" width="496" x="509" y="348.4531"/><rect fill="#FFFFF0" filter="url(#f1wkp3p7ku0wuj)" height="35.0938" rx="12.5" ry="12.5" style="stroke: #6495ED; stroke-width: 1.5;" width="156" x="523" y="374.4531"/><text fill="#A9A9A9" font-family="sans-serif" font-size="12" lengthAdjust="spacingAndGlyphs" textLength="136" x="533" y="396.9102">save &gt;= 60% of earnings</text><path d="M707,378.8242 L707,405.1758 L807,405.1758 L807,388.8242 L797,378.8242 L707,378.8242 " fill="#B0C4DE" filter="url(#f1wkp3p7ku0wuj)" style="stroke: #6495ED; stroke-width: 1.0;"/><path d="M797,378.8242 L797,388.8242 L807,388.8242 L797,378.8242 " fill="#B0C4DE" style="stroke: #6495ED; stroke-width: 1.0;"/><text fill="#FFFFFF" font-family="sans-serif" font-size="13" font-style="italic" lengthAdjust="spacingAndGlyphs" textLength="79" x="713" y="397.3193">act your wage</text><rect fill="#FFFFF0" filter="url(#f1wkp3p7ku0wuj)" height="35.0938" rx="12.5" ry="12.5" style="stroke: #6495ED; stroke-width: 1.5;" width="164" x="827" y="374.4531"/><text fill="#A9A9A9" font-family="sans-serif" font-size="12" lengthAdjust="spacingAndGlyphs" textLength="144" x="837" y="396.9102">live off &lt;= 40% of earnings</text><rect fill="#000000" filter="url(#f1wkp3p7ku0wuj)" height="6" rx="2.5" ry="2.5" style="stroke: #000000; stroke-width: 1.0;" width="496" x="509" y="429.5469"/><polygon fill="#FFFFF0" filter="url(#f1wkp3p7ku0wuj)" points="757,170.2188,769,182.2188,757,194.2188,745,182.2188,757,170.2188" style="stroke: #6495ED; stroke-width: 1.5;"/><polygon fill="#FFFFF0" filter="url(#f1wkp3p7ku0wuj)" points="707.5,455.5469,806.5,455.5469,818.5,467.5469,806.5,479.5469,707.5,479.5469,695.5,467.5469,707.5,455.5469" style="stroke: #6495ED; stroke-width: 1.5;"/><text fill="#A9A9A9" font-family="sans-serif" font-size="11" lengthAdjust="spacingAndGlyphs" textLength="99" x="707.5" y="472.0479">have money for deal</text><rect fill="#000000" filter="url(#f1wkp3p7ku0wuj)" height="6" rx="2.5" ry="2.5" style="stroke: #000000; stroke-width: 1.0;" width="1033" x="10" y="499.5469"/><rect fill="#FFFFF0" filter="url(#f1wkp3p7ku0wuj)" height="35.0938" rx="12.5" ry="12.5" style="stroke: #6495ED; stroke-width: 1.5;" width="114" x="469.5" y="525.5469"/><text fill="#A9A9A9" font-family="sans-serif" font-size="12" lengthAdjust="spacingAndGlyphs" textLength="94" x="479.5" y="548.0039">do (another) deal</text><rect fill="#FFFFF0" filter="url(#f1wkp3p7ku0wuj)" height="35.0938" rx="12.5" ry="12.5" style="stroke: #6495ED; stroke-width: 1.5;" width="103" x="475" y="580.6406"/><text fill="#A9A9A9" font-family="sans-serif" font-size="12" lengthAdjust="spacingAndGlyphs" textLength="83" x="485" y="603.0977">review process</text><polygon fill="#FFFFF0" filter="url(#f1wkp3p7ku0wuj)" points="526.5,100.2188,538.5,112.2188,526.5,124.2188,514.5,112.2188,526.5,100.2188" style="stroke: #6495ED; stroke-width: 1.5;"/><polygon fill="#FFFFF0" filter="url(#f1wkp3p7ku0wuj)" points="460.5,635.7344,592.5,635.7344,604.5,647.7344,592.5,659.7344,460.5,659.7344,448.5,647.7344,460.5,635.7344" style="stroke: #6495ED; stroke-width: 1.5;"/><text fill="#A9A9A9" font-family="sans-serif" font-size="11" lengthAdjust="spacingAndGlyphs" textLength="132" x="460.5" y="652.2354">can live off passive income</text><rect fill="#FFFFF0" filter="url(#f1wkp3p7ku0wuj)" height="35.0938" rx="12.5" ry="12.5" style="stroke: #6495ED; stroke-width: 1.5;" width="60" x="496.5" y="701.9873"/><text fill="#A9A9A9" font-family="sans-serif" font-size="12" lengthAdjust="spacingAndGlyphs" textLength="40" x="506.5" y="724.4443">quit job</text><ellipse cx="526.5" cy="767.0811" fill="#FFFFFF" filter="url(#f1wkp3p7ku0wuj)" rx="10" ry="10" style="stroke: #FF0000; stroke-width: 1.5;"/><line style="stroke: #FF0000; stroke-width: 2.5;" x1="520.3128" x2="532.6872" y1="760.8939" y2="773.2682"/><line style="stroke: #FF0000; stroke-width: 2.5;" x1="532.6872" x2="520.3128" y1="760.8939" y2="773.2682"/><line style="stroke: #696969; stroke-width: 1.5;" x1="236" x2="236" y1="304.4063" y2="339.4063"/><polygon fill="#696969" points="232,329.4063,236,339.4063,240,329.4063,236,333.4063" style="stroke: #696969; stroke-width: 1.0;"/><line style="stroke: #696969; stroke-width: 1.5;" x1="416.5" x2="416.5" y1="304.4063" y2="339.4063"/><polygon fill="#696969" points="412.5,329.4063,416.5,339.4063,420.5,329.4063,416.5,333.4063" style="stroke: #696969; stroke-width: 1.0;"/><line style="stroke: #696969; stroke-width: 1.5;" x1="757" x2="757" y1="249.3125" y2="278.3594"/><polygon fill="#696969" points="753,268.3594,757,278.3594,761,268.3594,757,272.3594" style="stroke: #696969; stroke-width: 1.0;"/><line style="stroke: #696969; stroke-width: 1.5;" x1="601" x2="601" y1="354.4531" y2="374.4531"/><polygon fill="#696969" points="597,364.4531,601,374.4531,605,364.4531,601,368.4531" style="stroke: #696969; stroke-width: 1.0;"/><line style="stroke: #696969; stroke-width: 1.5;" x1="909" x2="909" y1="354.4531" y2="374.4531"/><polygon fill="#696969" points="905,364.4531,909,374.4531,913,364.4531,909,368.4531" style="stroke: #696969; stroke-width: 1.0;"/><line style="stroke: #696969; stroke-width: 1.5;" x1="601" x2="601" y1="409.5469" y2="429.5469"/><polygon fill="#696969" points="597,419.5469,601,429.5469,605,419.5469,601,423.5469" style="stroke: #696969; stroke-width: 1.0;"/><line style="stroke: #696969; stroke-width: 1.5;" x1="909" x2="909" y1="409.5469" y2="429.5469"/><polygon fill="#696969" points="905,419.5469,909,429.5469,913,419.5469,909,423.5469" style="stroke: #696969; stroke-width: 1.0;"/><line style="stroke: #696969; stroke-width: 1.5;" x1="757" x2="757" y1="313.4531" y2="348.4531"/><polygon fill="#696969" points="753,338.4531,757,348.4531,761,338.4531,757,342.4531" style="stroke: #696969; stroke-width: 1.0;"/><line style="stroke: #696969; stroke-width: 1.5;" x1="757" x2="757" y1="194.2188" y2="214.2188"/><polygon fill="#696969" points="753,204.2188,757,214.2188,761,204.2188,757,208.2188" style="stroke: #696969; stroke-width: 1.0;"/><line style="stroke: #696969; stroke-width: 1.5;" x1="818.5" x2="1017" y1="467.5469" y2="467.5469"/><polygon fill="#696969" points="1013,331.9063,1017,321.9063,1021,331.9063,1017,327.9063" style="stroke: #696969; stroke-width: 1.5;"/><line style="stroke: #696969; stroke-width: 1.5;" x1="1017" x2="1017" y1="182.2188" y2="467.5469"/><line style="stroke: #696969; stroke-width: 1.5;" x1="1017" x2="769" y1="182.2188" y2="182.2188"/><polygon fill="#696969" points="779,178.2188,769,182.2188,779,186.2188,775,182.2188" style="stroke: #696969; stroke-width: 1.0;"/><line style="stroke: #696969; stroke-width: 1.5;" x1="757" x2="757" y1="435.5469" y2="455.5469"/><polygon fill="#696969" points="753,445.5469,757,455.5469,761,445.5469,757,449.5469" style="stroke: #696969; stroke-width: 1.0;"/><line style="stroke: #696969; stroke-width: 1.5;" x1="72" x2="72" y1="150.2188" y2="304.3594"/><polygon fill="#696969" points="68,294.3594,72,304.3594,76,294.3594,72,298.3594" style="stroke: #696969; stroke-width: 1.0;"/><line style="stroke: #696969; stroke-width: 1.5;" x1="236" x2="236" y1="150.2188" y2="269.3125"/><polygon fill="#696969" points="232,259.3125,236,269.3125,240,259.3125,236,263.3125" style="stroke: #696969; stroke-width: 1.0;"/><line style="stroke: #696969; stroke-width: 1.5;" x1="416.5" x2="416.5" y1="150.2188" y2="269.3125"/><polygon fill="#696969" points="412.5,259.3125,416.5,269.3125,420.5,259.3125,416.5,263.3125" style="stroke: #696969; stroke-width: 1.0;"/><line style="stroke: #696969; stroke-width: 1.5;" x1="757" x2="757" y1="150.2188" y2="170.2188"/><polygon fill="#696969" points="753,160.2188,757,170.2188,761,160.2188,757,164.2188" style="stroke: #696969; stroke-width: 1.0;"/><line style="stroke: #696969; stroke-width: 1.5;" x1="72" x2="72" y1="339.4531" y2="499.5469"/><polygon fill="#696969" points="68,489.5469,72,499.5469,76,489.5469,72,493.5469" style="stroke: #696969; stroke-width: 1.0;"/><line style="stroke: #696969; stroke-width: 1.5;" x1="236" x2="236" y1="374.5" y2="499.5469"/><polygon fill="#696969" points="232,489.5469,236,499.5469,240,489.5469,236,493.5469" style="stroke: #696969; stroke-width: 1.0;"/><line style="stroke: #696969; stroke-width: 1.5;" x1="416.5" x2="416.5" y1="374.5" y2="499.5469"/><polygon fill="#696969" points="412.5,489.5469,416.5,499.5469,420.5,489.5469,416.5,493.5469" style="stroke: #696969; stroke-width: 1.0;"/><line style="stroke: #696969; stroke-width: 1.5;" x1="757" x2="757" y1="479.5469" y2="499.5469"/><polygon fill="#696969" points="753,489.5469,757,499.5469,761,489.5469,757,493.5469" style="stroke: #696969; stroke-width: 1.0;"/><text fill="#696969" font-family="sans-serif" font-size="11" lengthAdjust="spacingAndGlyphs" textLength="18" x="761" y="494.0479">yes</text><line style="stroke: #696969; stroke-width: 1.5;" x1="526.5" x2="526.5" y1="505.5469" y2="525.5469"/><polygon fill="#696969" points="522.5,515.5469,526.5,525.5469,530.5,515.5469,526.5,519.5469" style="stroke: #696969; stroke-width: 1.0;"/><line style="stroke: #696969; stroke-width: 1.5;" x1="526.5" x2="526.5" y1="560.6406" y2="580.6406"/><polygon fill="#696969" points="522.5,570.6406,526.5,580.6406,530.5,570.6406,526.5,574.6406" style="stroke: #696969; stroke-width: 1.0;"/><line style="stroke: #696969; stroke-width: 1.5;" x1="526.5" x2="526.5" y1="124.2188" y2="144.2188"/><polygon fill="#696969" points="522.5,134.2188,526.5,144.2188,530.5,134.2188,526.5,138.2188" style="stroke: #696969; stroke-width: 1.0;"/><line style="stroke: #696969; stroke-width: 1.5;" x1="604.5" x2="1055" y1="647.7344" y2="647.7344"/><polygon fill="#696969" points="1051,402,1055,392,1059,402,1055,398" style="stroke: #696969; stroke-width: 1.5;"/><line style="stroke: #696969; stroke-width: 1.5;" x1="1055" x2="1055" y1="112.2188" y2="647.7344"/><line style="stroke: #696969; stroke-width: 1.5;" x1="1055" x2="538.5" y1="112.2188" y2="112.2188"/><polygon fill="#696969" points="548.5,108.2188,538.5,112.2188,548.5,116.2188,544.5,112.2188" style="stroke: #696969; stroke-width: 1.0;"/><line style="stroke: #696969; stroke-width: 1.5;" x1="526.5" x2="526.5" y1="615.7344" y2="635.7344"/><polygon fill="#696969" points="522.5,625.7344,526.5,635.7344,530.5,625.7344,526.5,629.7344" style="stroke: #696969; stroke-width: 1.0;"/><line style="stroke: #696969; stroke-width: 1.5;" x1="526.5" x2="526.5" y1="80.2188" y2="100.2188"/><polygon fill="#696969" points="522.5,90.2188,526.5,100.2188,530.5,90.2188,526.5,94.2188" style="stroke: #696969; stroke-width: 1.0;"/><line style="stroke: #696969; stroke-width: 1.5;" x1="526.5" x2="526.5" y1="659.7344" y2="701.9873"/><polygon fill="#696969" points="522.5,691.9873,526.5,701.9873,530.5,691.9873,526.5,695.9873" style="stroke: #696969; stroke-width: 1.0;"/><text fill="#696969" font-family="sans-serif" font-size="11" lengthAdjust="spacingAndGlyphs" textLength="18" x="530.5" y="682.0703">yes</text><line style="stroke: #696969; stroke-width: 1.5;" x1="526.5" x2="526.5" y1="737.0811" y2="757.0811"/><polygon fill="#696969" points="522.5,747.0811,526.5,757.0811,530.5,747.0811,526.5,751.0811" style="stroke: #696969; stroke-width: 1.0;"/><text fill="#000080" font-family="sans-serif" font-size="10" lengthAdjust="spacingAndGlyphs" textLength="31" x="10" y="786.4619">©2019</text><a target="_top" xlink:actuate="onRequest" xlink:href="http://www.lifestylesunlimited.com" xlink:show="new" xlink:title="http://www.lifestylesunlimited.com" xlink:type="simple"><text fill="#0000FF" font-family="sans-serif" font-size="10" lengthAdjust="spacingAndGlyphs" text-decoration="underline" textLength="95" x="44" y="786.4619">LifeStyles Unlimited</text><line style="stroke: #0000FF; stroke-width: 1.0;" x1="44" x2="139" y1="788.4619" y2="788.4619"/></a><text fill="#000080" font-family="sans-serif" font-size="10" lengthAdjust="spacingAndGlyphs" textLength="208" x="142" y="786.4619">| Generated Sun Apr 14 12:09:52 CDT 2019</text><!--
@startuml index


skinparam {
  BorderColor Red
  PathHoverColor Blue
}

skinparam Title {
  FontColor Navy
  BackgroundColor PaleGoldenRod
  BorderColor Navy
  BorderRoundCorner 20
}

skinparam activity {
  BackgroundColor Ivory
  BorderColor CornflowerBlue
  FontColor DarkGray

  Arrow {
    Color dimgray
    FontColor dimgray
  }

  Start {
    Color Navy
  }

  End {
    Color Red
  }

  Diamond {
    BackgroundColor Ivory
    BorderColor CornflowerBlue
    FontColor DarkGray
  }

  BackgroundColor<< Exception >> Red
	BorderColor<< Exception >> White
}

skinparam Swimlane {
  BorderColor CornflowerBlue 
}

skinparam Partition {
  BackgroundColor DarkSeaGreen
  BorderColor CornflowerBlue
  BorderThickness 1
  FontColor White
  FontSize 16
}
skinparam Note {
  BackgroundColor LightSteelBlue
  BorderColor CornflowerBlue
  FontColor White
}

skinparam Footer {
  FontColor Navy
}


left header 
	<font color=Navy>[[../index.svg ⌂ Home]]</font>
endheader


	Title Unlimited Lifestyle

	start

		repeat

			fork
				:learn process;
			fork again
				:conventional prequalification;
				:hard money prequalification;
			fork again
				:build team;
				:build alternate team;
			fork again
				repeat
					:work;
					:paycheck;
					fork
					:save >= 60% of earnings;
					fork again
					:live off <= 40% of earnings;
					floating note left:<i>act your wage
					end fork

				repeat while (have money for deal)
				->yes;
			end fork
			:do (another) deal;
			:review process;
		repeat while (can live off passive income)
		->yes;
		:quit job;



	end

left footer 
	©2019 [[http://www.lifestylesunlimited.com LifeStyles Unlimited]] | Generated Sun Apr 14 12:09:52 CDT 2019
endfooter


@enduml

PlantUML version 1.2019.03(Sun Mar 10 06:04:44 CDT 2019)
(GPL source distribution)
Java Runtime: Java(TM) SE Runtime Environment
JVM: Java HotSpot(TM) 64-Bit Server VM
Java Version: 1.8.0_111-b14
Operating System: Windows 10
OS Version: 10.0
Default Encoding: Cp1252
Language: en
Country: US
--></g></svg>