<?xml version="1.0" encoding="UTF-8" standalone="no"?><svg xmlns="http://www.w3.org/2000/svg" xmlns:xlink="http://www.w3.org/1999/xlink" contentScriptType="application/ecmascript" contentStyleType="text/css" height="660px" preserveAspectRatio="none" style="width:372px;height:660px;" version="1.1" viewBox="0 0 372 660" width="372px" zoomAndPan="magnify"><defs><style type="text/css"><![CDATA[path:hover { stroke: #0000FF !important;}]]></style><filter height="300%" id="f153ijxymwc499" width="300%" x="-1" y="-1"><feGaussianBlur result="blurOut" stdDeviation="2.0"/><feColorMatrix in="blurOut" result="blurOut2" type="matrix" values="0 0 0 0 0 0 0 0 0 0 0 0 0 0 0 0 0 0 .4 0"/><feOffset dx="4.0" dy="4.0" in="blurOut2" result="blurOut3"/><feBlend in="SourceGraphic" in2="blurOut3" mode="normal"/></filter></defs><g><a href="../index.svg?sanitize=true" target="_top" xlink:actuate="onRequest" xlink:show="new" xlink:title="../index.svg?sanitize=true" xlink:type="simple"><text fill="#0000FF" font-family="sans-serif" font-size="24" lengthAdjust="spacingAndGlyphs" text-decoration="underline" textLength="90" x="10" y="34.9141">⌂ Home</text></a><rect fill="#EEE8AA" height="40.1875" rx="10" ry="10" style="stroke: #000080; stroke-width: 1.5;" width="75" x="147" y="42.1875"/><text fill="#000080" font-family="sans-serif" font-size="24" lengthAdjust="spacingAndGlyphs" textLength="59" x="155" y="72.1016">Legal</text><ellipse cx="124" cy="95.375" fill="#CCFFCC" filter="url(#f153ijxymwc499)" rx="10" ry="10" style="stroke: none; stroke-width: 1.0;"/><polygon fill="#FFFFF0" filter="url(#f153ijxymwc499)" points="79,125.375,169,125.375,181,137.375,169,149.375,79,149.375,67,137.375,79,125.375" style="stroke: #6495ED; stroke-width: 1.0;"/><text fill="#A9A9A9" font-family="sans-serif" font-size="11" lengthAdjust="spacingAndGlyphs" textLength="90" x="79" y="141.876">can buy it yourself</text><text fill="#696969" font-family="sans-serif" font-size="11" lengthAdjust="spacingAndGlyphs" textLength="18" x="49" y="134.958">yes</text><text fill="#696969" font-family="sans-serif" font-size="11" lengthAdjust="spacingAndGlyphs" textLength="12" x="181" y="134.958">no</text><rect fill="#FFFFF0" filter="url(#f153ijxymwc499)" height="35.0938" rx="12.5" ry="12.5" style="stroke: #6495ED; stroke-width: 1.0;" width="94" x="10" y="159.375"/><text fill="#696969" font-family="sans-serif" font-size="12" lengthAdjust="spacingAndGlyphs" textLength="74" x="20" y="181.832">buy it yourself</text><rect fill="#FFFFF0" filter="url(#f153ijxymwc499)" height="35.0938" rx="12.5" ry="12.5" style="stroke: #6495ED; stroke-width: 1.0;" width="110" x="136" y="159.375"/><text fill="#696969" font-family="sans-serif" font-size="12" lengthAdjust="spacingAndGlyphs" textLength="90" x="146" y="181.832">bring in partners</text><polygon fill="#FFFFF0" filter="url(#f153ijxymwc499)" points="124,200.4688,136,212.4688,124,224.4688,112,212.4688,124,200.4688" style="stroke: #6495ED; stroke-width: 1.0;"/><rect fill="#FFFFF0" filter="url(#f153ijxymwc499)" height="60.1875" rx="12.5" ry="12.5" style="stroke: #6495ED; stroke-width: 1.0;" width="112" x="68" y="293.3867"/><text fill="#696969" font-family="sans-serif" font-size="12" lengthAdjust="spacingAndGlyphs" textLength="92" x="78" y="315.8438">form simple LLC</text><line style="stroke: #6495ED; stroke-width: 1.0;" x1="68" x2="180" y1="323.4805" y2="323.4805"/><text fill="#696969" font-family="sans-serif" font-size="12" lengthAdjust="spacingAndGlyphs" textLength="63" x="78" y="340.9375">partnership</text><polygon fill="#FFFFF0" filter="url(#f153ijxymwc499)" points="97.5,244.4688,150.5,244.4688,162.5,256.4688,150.5,268.4688,97.5,268.4688,85.5,256.4688,97.5,244.4688" style="stroke: #6495ED; stroke-width: 1.0;"/><text fill="#696969" font-family="sans-serif" font-size="11" lengthAdjust="spacingAndGlyphs" textLength="18" x="128" y="279.8877">yes</text><text fill="#A9A9A9" font-family="sans-serif" font-size="11" lengthAdjust="spacingAndGlyphs" textLength="53" x="97.5" y="260.9697">multi-family</text><polygon fill="#FFFFF0" filter="url(#f153ijxymwc499)" points="124,373.5742,136,385.5742,124,397.5742,112,385.5742,124,373.5742" style="stroke: #6495ED; stroke-width: 1.0;"/><rect fill="#FFFFF0" filter="url(#f153ijxymwc499)" height="35.0938" rx="12.5" ry="12.5" style="stroke: #6495ED; stroke-width: 1.0;" width="176" x="36" y="417.5742"/><text fill="#696969" font-family="sans-serif" font-size="12" lengthAdjust="spacingAndGlyphs" textLength="156" x="46" y="440.0313">300 series for PIG members</text><path d="M194,477.0391 L194,486.2148 L174,490.2148 L194,494.2148 L194,503.3906 A0,0 0 0 0 194,503.3906 L360,503.3906 A0,0 0 0 0 360,503.3906 L360,487.0391 L350,477.0391 L194,477.0391 A0,0 0 0 0 194,477.0391 " fill="#B0C4DE" filter="url(#f153ijxymwc499)" style="stroke: #6495ED; stroke-width: 1.0;"/><path d="M350,477.0391 L350,487.0391 L360,487.0391 L350,477.0391 " fill="#B0C4DE" style="stroke: #6495ED; stroke-width: 1.0;"/><text fill="#FFFFFF" font-family="sans-serif" font-size="13" lengthAdjust="spacingAndGlyphs" textLength="145" x="200" y="495.5342">all leads that are certified</text><rect fill="#FFFFF0" filter="url(#f153ijxymwc499)" height="35.0938" style="stroke: #6495ED; stroke-width: 1.0;" width="100" x="74" y="472.668"/><text fill="#696969" font-family="sans-serif" font-size="12" lengthAdjust="spacingAndGlyphs" textLength="80" x="84" y="495.125">celebration list</text><path d="M243.5,517.7617 L243.5,551.4648 L223.5,555.4648 L243.5,559.4648 L243.5,593.168 A0,0 0 0 0 243.5,593.168 L344.5,593.168 A0,0 0 0 0 344.5,593.168 L344.5,527.7617 L334.5,517.7617 L243.5,517.7617 A0,0 0 0 0 243.5,517.7617 " fill="#B0C4DE" filter="url(#f153ijxymwc499)" style="stroke: #6495ED; stroke-width: 1.0;"/><path d="M334.5,517.7617 L334.5,527.7617 L344.5,527.7617 L334.5,517.7617 " fill="#B0C4DE" style="stroke: #6495ED; stroke-width: 1.0;"/><text fill="#FFFFFF" font-family="sans-serif" font-size="13" lengthAdjust="spacingAndGlyphs" textLength="75" x="249.5" y="536.2568">must contain</text><ellipse cx="255" cy="547.9648" fill="#FFFFFF" rx="2.5" ry="2.5" style="stroke: #FFFFFF; stroke-width: 0.0;"/><text fill="#FFFFFF" font-family="sans-serif" font-size="13" lengthAdjust="spacingAndGlyphs" textLength="65" x="262.5" y="552.6084">who is lead</text><ellipse cx="255" cy="564.3164" fill="#FFFFFF" rx="2.5" ry="2.5" style="stroke: #FFFFFF; stroke-width: 0.0;"/><text fill="#FFFFFF" font-family="sans-serif" font-size="13" lengthAdjust="spacingAndGlyphs" textLength="67" x="262.5" y="568.96">background</text><ellipse cx="255" cy="580.668" fill="#FFFFFF" rx="2.5" ry="2.5" style="stroke: #FFFFFF; stroke-width: 0.0;"/><text fill="#FFFFFF" font-family="sans-serif" font-size="13" lengthAdjust="spacingAndGlyphs" textLength="53" x="262.5" y="585.3115">exposure</text><rect fill="#FFFFF0" filter="url(#f153ijxymwc499)" height="35.0938" style="stroke: #6495ED; stroke-width: 1.0;" width="199" x="24.5" y="537.918"/><text fill="#696969" font-family="sans-serif" font-size="12" lengthAdjust="spacingAndGlyphs" textLength="179" x="34.5" y="560.375">private placement memorandum</text><ellipse cx="124" cy="623.168" fill="#FFFFFF" filter="url(#f153ijxymwc499)" rx="10" ry="10" style="stroke: #FF7F50; stroke-width: 1.5;"/><line style="stroke: #FF7F50; stroke-width: 2.5;" x1="117.8128" x2="130.1872" y1="616.9808" y2="629.3552"/><line style="stroke: #FF7F50; stroke-width: 2.5;" x1="130.1872" x2="117.8128" y1="616.9808" y2="629.3552"/><line style="stroke: #696969; stroke-width: 1.5;" x1="67" x2="57" y1="137.375" y2="137.375"/><line style="stroke: #696969; stroke-width: 1.5;" x1="57" x2="57" y1="137.375" y2="159.375"/><polygon fill="#696969" points="53,149.375,57,159.375,61,149.375,57,153.375" style="stroke: #696969; stroke-width: 1.0;"/><line style="stroke: #696969; stroke-width: 1.5;" x1="181" x2="191" y1="137.375" y2="137.375"/><line style="stroke: #696969; stroke-width: 1.5;" x1="191" x2="191" y1="137.375" y2="159.375"/><polygon fill="#696969" points="187,149.375,191,159.375,195,149.375,191,153.375" style="stroke: #696969; stroke-width: 1.0;"/><line style="stroke: #696969; stroke-width: 1.5;" x1="57" x2="57" y1="194.4688" y2="212.4688"/><line style="stroke: #696969; stroke-width: 1.5;" x1="57" x2="112" y1="212.4688" y2="212.4688"/><polygon fill="#696969" points="102,208.4688,112,212.4688,102,216.4688,106,212.4688" style="stroke: #696969; stroke-width: 1.0;"/><line style="stroke: #696969; stroke-width: 1.5;" x1="191" x2="191" y1="194.4688" y2="212.4688"/><line style="stroke: #696969; stroke-width: 1.5;" x1="191" x2="136" y1="212.4688" y2="212.4688"/><polygon fill="#696969" points="146,208.4688,136,212.4688,146,216.4688,142,212.4688" style="stroke: #696969; stroke-width: 1.0;"/><line style="stroke: #696969; stroke-width: 1.5;" x1="124" x2="124" y1="105.375" y2="125.375"/><polygon fill="#696969" points="120,115.375,124,125.375,128,115.375,124,119.375" style="stroke: #696969; stroke-width: 1.0;"/><line style="stroke: #696969; stroke-width: 1.5;" x1="124" x2="124" y1="268.4688" y2="293.3867"/><polygon fill="#696969" points="120,283.3867,124,293.3867,128,283.3867,124,287.3867" style="stroke: #696969; stroke-width: 1.0;"/><line style="stroke: #696969; stroke-width: 1.5;" x1="162.5" x2="190" y1="256.4688" y2="256.4688"/><polygon fill="#696969" points="186,313.4805,190,323.4805,194,313.4805,190,317.4805" style="stroke: #696969; stroke-width: 1.5;"/><line style="stroke: #696969; stroke-width: 1.5;" x1="190" x2="190" y1="256.4688" y2="385.5742"/><line style="stroke: #696969; stroke-width: 1.5;" x1="190" x2="136" y1="385.5742" y2="385.5742"/><polygon fill="#696969" points="146,381.5742,136,385.5742,146,389.5742,142,385.5742" style="stroke: #696969; stroke-width: 1.0;"/><line style="stroke: #696969; stroke-width: 1.5;" x1="124" x2="124" y1="353.5742" y2="373.5742"/><polygon fill="#696969" points="120,363.5742,124,373.5742,128,363.5742,124,367.5742" style="stroke: #696969; stroke-width: 1.0;"/><line style="stroke: #696969; stroke-width: 1.5;" x1="124" x2="124" y1="224.4688" y2="244.4688"/><polygon fill="#696969" points="120,234.4688,124,244.4688,128,234.4688,124,238.4688" style="stroke: #696969; stroke-width: 1.0;"/><line style="stroke: #696969; stroke-width: 1.5;" x1="124" x2="124" y1="397.5742" y2="417.5742"/><polygon fill="#696969" points="120,407.5742,124,417.5742,128,407.5742,124,411.5742" style="stroke: #696969; stroke-width: 1.0;"/><line style="stroke: #696969; stroke-width: 1.5;" x1="124" x2="124" y1="452.668" y2="472.668"/><polygon fill="#696969" points="120,462.668,124,472.668,128,462.668,124,466.668" style="stroke: #696969; stroke-width: 1.0;"/><line style="stroke: #696969; stroke-width: 1.5;" x1="124" x2="124" y1="507.7617" y2="537.918"/><polygon fill="#696969" points="120,527.918,124,537.918,128,527.918,124,531.918" style="stroke: #696969; stroke-width: 1.0;"/><line style="stroke: #696969; stroke-width: 1.5;" x1="124" x2="124" y1="573.0117" y2="613.168"/><polygon fill="#696969" points="120,603.168,124,613.168,128,603.168,124,607.168" style="stroke: #696969; stroke-width: 1.0;"/><text fill="#000080" font-family="sans-serif" font-size="14" lengthAdjust="spacingAndGlyphs" textLength="42" x="10" y="646.7012">©2019</text><a href="http://www.lifestylesunlimited.com" target="_top" xlink:actuate="onRequest" xlink:show="new" xlink:title="http://www.lifestylesunlimited.com" xlink:type="simple"><text fill="#0000FF" font-family="sans-serif" font-size="14" lengthAdjust="spacingAndGlyphs" text-decoration="underline" textLength="122" x="56" y="646.7012">LifeStyles Unlimited</text></a><text fill="#000080" font-family="sans-serif" font-size="14" lengthAdjust="spacingAndGlyphs" textLength="131" x="182" y="646.7012">| Generated %date%</text><!--
@startuml legal


skinparam {
  BorderColor Red
  PathHoverColor Blue
}

skinparam Title {
  FontColor Navy
  BackgroundColor PaleGoldenRod
  BorderColor Navy
  BorderRoundCorner 20
  FontSize 24
}

skinparam activity {
  BackgroundColor Ivory
  BorderColor CornflowerBlue
  BorderThickness 1
  FontColor DimGray
  

  Arrow {
    Color dimgray
    FontColor dimgray
  }

  Start {
    Color PHYSICAL
  }

  End {
    Color Coral
  }

  Diamond {
    BackgroundColor Ivory
    BorderColor CornflowerBlue
    FontColor DarkGray
  }

  BackgroundColor<< Exception >> Red
	BorderColor<< Exception >> White
}

skinparam Swimlane {
  BorderColor CornflowerBlue 
}

skinparam Partition {
  BackgroundColor Ivory
  BorderColor CornflowerBlue
  BorderThickness 1
  FontColor CornflowerBlue
  FontSize 16
  BorderRoundCorner 20
}

skinparam Note {
  BackgroundColor LightSteelBlue
  BorderColor CornflowerBlue
  FontColor White
}

skinparam Legend {
  BackgroundColor LightSteelBlue
  BorderColor CornflowerBlue
  FontColor White
}

skinparam Footer {
  FontColor Navy
}


left header 
	<font color=Navy size=24>[[../index.svg?sanitize=true ⌂ Home]]</font>
endheader


	Title Legal

	start

	if(can buy it yourself) then (yes)
		:buy it yourself;
	else (no)
		:bring in partners;
	endif


	if(multi-family) then (yes)
		:form simple LLC
		- - - -
		partnership;
	endif
	:300 series for PIG members;
	:celebration list]
	note right
		all leads that are certified
	end note

	:private placement memorandum]
	note right
		must contain
		* who is lead
		* background
		* exposure
	end note


	end


left footer 
	<font size=14>©2019 [[http://www.lifestylesunlimited.com LifeStyles Unlimited]] | Generated %date%</font>
endfooter


@enduml

PlantUML version 1.2019.06(Fri May 24 12:10:25 CDT 2019)
(GPL source distribution)
Java Runtime: Java(TM) SE Runtime Environment
JVM: Java HotSpot(TM) Client VM
Java Version: 1.8.0_211-b12
Operating System: Windows 10
OS Version: 10.0
Default Encoding: Cp1252
Language: en
Country: US
--></g></svg>