<?xml version="1.0" encoding="UTF-8" standalone="no"?><svg xmlns="http://www.w3.org/2000/svg" xmlns:xlink="http://www.w3.org/1999/xlink" contentScriptType="application/ecmascript" contentStyleType="text/css" height="660px" preserveAspectRatio="none" style="width:473px;height:660px;" version="1.1" viewBox="0 0 473 660" width="473px" zoomAndPan="magnify"><defs><style type="text/css"><![CDATA[path:hover { stroke: #0000FF !important;}]]></style><filter height="300%" id="fgo9pcwk20iuz" width="300%" x="-1" y="-1"><feGaussianBlur result="blurOut" stdDeviation="2.0"/><feColorMatrix in="blurOut" result="blurOut2" type="matrix" values="0 0 0 0 0 0 0 0 0 0 0 0 0 0 0 0 0 0 .4 0"/><feOffset dx="4.0" dy="4.0" in="blurOut2" result="blurOut3"/><feBlend in="SourceGraphic" in2="blurOut3" mode="normal"/></filter></defs><g><a target="_top" xlink:actuate="onRequest" xlink:href="../index.svg?sanitize=true" xlink:show="new" xlink:title="../index.svg?sanitize=true" xlink:type="simple"><text fill="#0000FF" font-family="sans-serif" font-size="24" lengthAdjust="spacingAndGlyphs" text-decoration="underline" textLength="90" x="10" y="34.9141">⌂ Home</text><line style="stroke: #0000FF; stroke-width: 1.0;" x1="10" x2="100" y1="36.9141" y2="36.9141"/></a><rect fill="#EEE8AA" height="40.1875" rx="10" ry="10" style="stroke: #000080; stroke-width: 1.5;" width="75" x="197.5" y="42.1875"/><text fill="#000080" font-family="sans-serif" font-size="24" lengthAdjust="spacingAndGlyphs" textLength="59" x="205.5" y="72.1016">Legal</text><ellipse cx="174.5" cy="95.375" fill="#CCFFCC" filter="url(#fgo9pcwk20iuz)" rx="10" ry="10" style="stroke: none; stroke-width: 1.0;"/><polygon fill="#FFFFF0" filter="url(#fgo9pcwk20iuz)" points="129.5,125.375,219.5,125.375,231.5,137.375,219.5,149.375,129.5,149.375,117.5,137.375,129.5,125.375" style="stroke: #6495ED; stroke-width: 1.0;"/><text fill="#A9A9A9" font-family="sans-serif" font-size="11" lengthAdjust="spacingAndGlyphs" textLength="90" x="129.5" y="141.876">can buy it yourself</text><text fill="#696969" font-family="sans-serif" font-size="11" lengthAdjust="spacingAndGlyphs" textLength="18" x="99.5" y="134.958">yes</text><text fill="#696969" font-family="sans-serif" font-size="11" lengthAdjust="spacingAndGlyphs" textLength="12" x="231.5" y="134.958">no</text><rect fill="#FFFFF0" filter="url(#fgo9pcwk20iuz)" height="35.0938" rx="12.5" ry="12.5" style="stroke: #6495ED; stroke-width: 1.0;" width="94" x="60.5" y="159.375"/><text fill="#696969" font-family="sans-serif" font-size="12" lengthAdjust="spacingAndGlyphs" textLength="74" x="70.5" y="181.832">buy it yourself</text><rect fill="#FFFFF0" filter="url(#fgo9pcwk20iuz)" height="35.0938" rx="12.5" ry="12.5" style="stroke: #6495ED; stroke-width: 1.0;" width="110" x="186.5" y="159.375"/><text fill="#696969" font-family="sans-serif" font-size="12" lengthAdjust="spacingAndGlyphs" textLength="90" x="196.5" y="181.832">bring in partners</text><polygon fill="#FFFFF0" filter="url(#fgo9pcwk20iuz)" points="174.5,200.4688,186.5,212.4688,174.5,224.4688,162.5,212.4688,174.5,200.4688" style="stroke: #6495ED; stroke-width: 1.0;"/><rect fill="#FFFFF0" filter="url(#fgo9pcwk20iuz)" height="60.1875" rx="12.5" ry="12.5" style="stroke: #6495ED; stroke-width: 1.0;" width="112" x="118.5" y="293.3867"/><text fill="#696969" font-family="sans-serif" font-size="12" lengthAdjust="spacingAndGlyphs" textLength="92" x="128.5" y="315.8438">form simple LLC</text><line style="stroke: #6495ED; stroke-width: 1.0;" x1="118.5" x2="230.5" y1="323.4805" y2="323.4805"/><text fill="#696969" font-family="sans-serif" font-size="12" lengthAdjust="spacingAndGlyphs" textLength="63" x="128.5" y="340.9375">partnership</text><polygon fill="#FFFFF0" filter="url(#fgo9pcwk20iuz)" points="148,244.4688,201,244.4688,213,256.4688,201,268.4688,148,268.4688,136,256.4688,148,244.4688" style="stroke: #6495ED; stroke-width: 1.0;"/><text fill="#696969" font-family="sans-serif" font-size="11" lengthAdjust="spacingAndGlyphs" textLength="18" x="178.5" y="279.8877">yes</text><text fill="#A9A9A9" font-family="sans-serif" font-size="11" lengthAdjust="spacingAndGlyphs" textLength="53" x="148" y="260.9697">multi-family</text><polygon fill="#FFFFF0" filter="url(#fgo9pcwk20iuz)" points="174.5,373.5742,186.5,385.5742,174.5,397.5742,162.5,385.5742,174.5,373.5742" style="stroke: #6495ED; stroke-width: 1.0;"/><rect fill="#FFFFF0" filter="url(#fgo9pcwk20iuz)" height="35.0938" rx="12.5" ry="12.5" style="stroke: #6495ED; stroke-width: 1.0;" width="176" x="86.5" y="417.5742"/><text fill="#696969" font-family="sans-serif" font-size="12" lengthAdjust="spacingAndGlyphs" textLength="156" x="96.5" y="440.0313">300 series for PIG members</text><path d="M244.5,477.0391 L244.5,486.2148 L224.5,490.2148 L244.5,494.2148 L244.5,503.3906 A0,0 0 0 0 244.5,503.3906 L410.5,503.3906 A0,0 0 0 0 410.5,503.3906 L410.5,487.0391 L400.5,477.0391 L244.5,477.0391 A0,0 0 0 0 244.5,477.0391 " fill="#B0C4DE" filter="url(#fgo9pcwk20iuz)" style="stroke: #6495ED; stroke-width: 1.0;"/><path d="M400.5,477.0391 L400.5,487.0391 L410.5,487.0391 L400.5,477.0391 " fill="#B0C4DE" style="stroke: #6495ED; stroke-width: 1.0;"/><text fill="#FFFFFF" font-family="sans-serif" font-size="13" lengthAdjust="spacingAndGlyphs" textLength="145" x="250.5" y="495.5342">all leads that are certified</text><rect fill="#FFFFF0" filter="url(#fgo9pcwk20iuz)" height="35.0938" style="stroke: #6495ED; stroke-width: 1.0;" width="100" x="124.5" y="472.668"/><text fill="#696969" font-family="sans-serif" font-size="12" lengthAdjust="spacingAndGlyphs" textLength="80" x="134.5" y="495.125">celebration list</text><path d="M294,517.7617 L294,551.4648 L274,555.4648 L294,559.4648 L294,593.168 A0,0 0 0 0 294,593.168 L395,593.168 A0,0 0 0 0 395,593.168 L395,527.7617 L385,517.7617 L294,517.7617 A0,0 0 0 0 294,517.7617 " fill="#B0C4DE" filter="url(#fgo9pcwk20iuz)" style="stroke: #6495ED; stroke-width: 1.0;"/><path d="M385,517.7617 L385,527.7617 L395,527.7617 L385,517.7617 " fill="#B0C4DE" style="stroke: #6495ED; stroke-width: 1.0;"/><text fill="#FFFFFF" font-family="sans-serif" font-size="13" lengthAdjust="spacingAndGlyphs" textLength="75" x="300" y="536.2568">must contain</text><ellipse cx="305.5" cy="547.9648" fill="#FFFFFF" rx="2.5" ry="2.5" style="stroke: #FFFFFF; stroke-width: 0.0;"/><text fill="#FFFFFF" font-family="sans-serif" font-size="13" lengthAdjust="spacingAndGlyphs" textLength="65" x="313" y="552.6084">who is lead</text><ellipse cx="305.5" cy="564.3164" fill="#FFFFFF" rx="2.5" ry="2.5" style="stroke: #FFFFFF; stroke-width: 0.0;"/><text fill="#FFFFFF" font-family="sans-serif" font-size="13" lengthAdjust="spacingAndGlyphs" textLength="67" x="313" y="568.96">background</text><ellipse cx="305.5" cy="580.668" fill="#FFFFFF" rx="2.5" ry="2.5" style="stroke: #FFFFFF; stroke-width: 0.0;"/><text fill="#FFFFFF" font-family="sans-serif" font-size="13" lengthAdjust="spacingAndGlyphs" textLength="53" x="313" y="585.3115">exposure</text><rect fill="#FFFFF0" filter="url(#fgo9pcwk20iuz)" height="35.0938" style="stroke: #6495ED; stroke-width: 1.0;" width="199" x="75" y="537.918"/><text fill="#696969" font-family="sans-serif" font-size="12" lengthAdjust="spacingAndGlyphs" textLength="179" x="85" y="560.375">private placement memorandum</text><ellipse cx="174.5" cy="623.168" fill="#FFFFFF" filter="url(#fgo9pcwk20iuz)" rx="10" ry="10" style="stroke: #FF7F50; stroke-width: 1.5;"/><line style="stroke: #FF7F50; stroke-width: 2.5;" x1="168.3128" x2="180.6872" y1="616.9808" y2="629.3552"/><line style="stroke: #FF7F50; stroke-width: 2.5;" x1="180.6872" x2="168.3128" y1="616.9808" y2="629.3552"/><line style="stroke: #696969; stroke-width: 1.5;" x1="117.5" x2="107.5" y1="137.375" y2="137.375"/><line style="stroke: #696969; stroke-width: 1.5;" x1="107.5" x2="107.5" y1="137.375" y2="159.375"/><polygon fill="#696969" points="103.5,149.375,107.5,159.375,111.5,149.375,107.5,153.375" style="stroke: #696969; stroke-width: 1.0;"/><line style="stroke: #696969; stroke-width: 1.5;" x1="231.5" x2="241.5" y1="137.375" y2="137.375"/><line style="stroke: #696969; stroke-width: 1.5;" x1="241.5" x2="241.5" y1="137.375" y2="159.375"/><polygon fill="#696969" points="237.5,149.375,241.5,159.375,245.5,149.375,241.5,153.375" style="stroke: #696969; stroke-width: 1.0;"/><line style="stroke: #696969; stroke-width: 1.5;" x1="107.5" x2="107.5" y1="194.4688" y2="212.4688"/><line style="stroke: #696969; stroke-width: 1.5;" x1="107.5" x2="162.5" y1="212.4688" y2="212.4688"/><polygon fill="#696969" points="152.5,208.4688,162.5,212.4688,152.5,216.4688,156.5,212.4688" style="stroke: #696969; stroke-width: 1.0;"/><line style="stroke: #696969; stroke-width: 1.5;" x1="241.5" x2="241.5" y1="194.4688" y2="212.4688"/><line style="stroke: #696969; stroke-width: 1.5;" x1="241.5" x2="186.5" y1="212.4688" y2="212.4688"/><polygon fill="#696969" points="196.5,208.4688,186.5,212.4688,196.5,216.4688,192.5,212.4688" style="stroke: #696969; stroke-width: 1.0;"/><line style="stroke: #696969; stroke-width: 1.5;" x1="174.5" x2="174.5" y1="105.375" y2="125.375"/><polygon fill="#696969" points="170.5,115.375,174.5,125.375,178.5,115.375,174.5,119.375" style="stroke: #696969; stroke-width: 1.0;"/><line style="stroke: #696969; stroke-width: 1.5;" x1="174.5" x2="174.5" y1="268.4688" y2="293.3867"/><polygon fill="#696969" points="170.5,283.3867,174.5,293.3867,178.5,283.3867,174.5,287.3867" style="stroke: #696969; stroke-width: 1.0;"/><line style="stroke: #696969; stroke-width: 1.5;" x1="213" x2="240.5" y1="256.4688" y2="256.4688"/><polygon fill="#696969" points="236.5,313.4805,240.5,323.4805,244.5,313.4805,240.5,317.4805" style="stroke: #696969; stroke-width: 1.5;"/><line style="stroke: #696969; stroke-width: 1.5;" x1="240.5" x2="240.5" y1="256.4688" y2="385.5742"/><line style="stroke: #696969; stroke-width: 1.5;" x1="240.5" x2="186.5" y1="385.5742" y2="385.5742"/><polygon fill="#696969" points="196.5,381.5742,186.5,385.5742,196.5,389.5742,192.5,385.5742" style="stroke: #696969; stroke-width: 1.0;"/><line style="stroke: #696969; stroke-width: 1.5;" x1="174.5" x2="174.5" y1="353.5742" y2="373.5742"/><polygon fill="#696969" points="170.5,363.5742,174.5,373.5742,178.5,363.5742,174.5,367.5742" style="stroke: #696969; stroke-width: 1.0;"/><line style="stroke: #696969; stroke-width: 1.5;" x1="174.5" x2="174.5" y1="224.4688" y2="244.4688"/><polygon fill="#696969" points="170.5,234.4688,174.5,244.4688,178.5,234.4688,174.5,238.4688" style="stroke: #696969; stroke-width: 1.0;"/><line style="stroke: #696969; stroke-width: 1.5;" x1="174.5" x2="174.5" y1="397.5742" y2="417.5742"/><polygon fill="#696969" points="170.5,407.5742,174.5,417.5742,178.5,407.5742,174.5,411.5742" style="stroke: #696969; stroke-width: 1.0;"/><line style="stroke: #696969; stroke-width: 1.5;" x1="174.5" x2="174.5" y1="452.668" y2="472.668"/><polygon fill="#696969" points="170.5,462.668,174.5,472.668,178.5,462.668,174.5,466.668" style="stroke: #696969; stroke-width: 1.0;"/><line style="stroke: #696969; stroke-width: 1.5;" x1="174.5" x2="174.5" y1="507.7617" y2="537.918"/><polygon fill="#696969" points="170.5,527.918,174.5,537.918,178.5,527.918,174.5,531.918" style="stroke: #696969; stroke-width: 1.0;"/><line style="stroke: #696969; stroke-width: 1.5;" x1="174.5" x2="174.5" y1="573.0117" y2="613.168"/><polygon fill="#696969" points="170.5,603.168,174.5,613.168,178.5,603.168,174.5,607.168" style="stroke: #696969; stroke-width: 1.0;"/><text fill="#000080" font-family="sans-serif" font-size="14" lengthAdjust="spacingAndGlyphs" textLength="42" x="10" y="646.7012">©2019</text><a target="_top" xlink:actuate="onRequest" xlink:href="http://www.lifestylesunlimited.com" xlink:show="new" xlink:title="http://www.lifestylesunlimited.com" xlink:type="simple"><text fill="#0000FF" font-family="sans-serif" font-size="14" lengthAdjust="spacingAndGlyphs" text-decoration="underline" textLength="122" x="56" y="646.7012">LifeStyles Unlimited</text><line style="stroke: #0000FF; stroke-width: 1.0;" x1="56" x2="178" y1="648.7012" y2="648.7012"/></a><text fill="#000080" font-family="sans-serif" font-size="14" lengthAdjust="spacingAndGlyphs" textLength="279" x="182" y="646.7012">| Generated Sat May 18 14:01:03 CDT 2019</text><!--
@startuml legal


skinparam {
  BorderColor Red
  PathHoverColor Blue
}

skinparam Title {
  FontColor Navy
  BackgroundColor PaleGoldenRod
  BorderColor Navy
  BorderRoundCorner 20
  FontSize 24
}

skinparam activity {
  BackgroundColor Ivory
  BorderColor CornflowerBlue
  BorderThickness 1
  FontColor DimGray
  

  Arrow {
    Color dimgray
    FontColor dimgray
  }

  Start {
    Color PHYSICAL
  }

  End {
    Color Coral
  }

  Diamond {
    BackgroundColor Ivory
    BorderColor CornflowerBlue
    FontColor DarkGray
  }

  BackgroundColor<< Exception >> Red
	BorderColor<< Exception >> White
}

skinparam Swimlane {
  BorderColor CornflowerBlue 
}

skinparam Partition {
  BackgroundColor Ivory
  BorderColor CornflowerBlue
  BorderThickness 1
  FontColor CornflowerBlue
  FontSize 16
  BorderRoundCorner 20
}

skinparam Note {
  BackgroundColor LightSteelBlue
  BorderColor CornflowerBlue
  FontColor White
}

skinparam Legend {
  BackgroundColor LightSteelBlue
  BorderColor CornflowerBlue
  FontColor White
}

skinparam Footer {
  FontColor Navy
}


left header 
	<font color=Navy size=24>[[../index.svg?sanitize=true ⌂ Home]]</font>
endheader


	Title Legal

	start

	if(can buy it yourself) then (yes)
		:buy it yourself;
	else (no)
		:bring in partners;
	endif


	if(multi-family) then (yes)
		:form simple LLC
		- - - -
		partnership;
	endif
	:300 series for PIG members;
	:celebration list]
	note right
		all leads that are certified
	end note

	:private placement memorandum]
	note right
		must contain
		* who is lead
		* background
		* exposure
	end note


	end


left footer 
	<font size=14>©2019 [[http://www.lifestylesunlimited.com LifeStyles Unlimited]] | Generated Sat May 18 14:01:03 CDT 2019</font>
endfooter


@enduml

PlantUML version 1.2019.03(Sun Mar 10 06:04:44 CDT 2019)
(GPL source distribution)
Java Runtime: Java(TM) SE Runtime Environment
JVM: Java HotSpot(TM) 64-Bit Server VM
Java Version: 1.8.0_111-b14
Operating System: Windows 10
OS Version: 10.0
Default Encoding: Cp1252
Language: en
Country: US
--></g></svg>