<?xml version="1.0" encoding="UTF-8" standalone="no"?><svg xmlns="http://www.w3.org/2000/svg" xmlns:xlink="http://www.w3.org/1999/xlink" contentScriptType="application/ecmascript" contentStyleType="text/css" height="426px" preserveAspectRatio="none" style="width:477px;height:426px;" version="1.1" viewBox="0 0 477 426" width="477px" zoomAndPan="magnify"><defs><style type="text/css"><![CDATA[path:hover { stroke: #0000FF !important;}]]></style><filter height="300%" id="f1ednkfy88j1e1" width="300%" x="-1" y="-1"><feGaussianBlur result="blurOut" stdDeviation="2.0"/><feColorMatrix in="blurOut" result="blurOut2" type="matrix" values="0 0 0 0 0 0 0 0 0 0 0 0 0 0 0 0 0 0 .4 0"/><feOffset dx="4.0" dy="4.0" in="blurOut2" result="blurOut3"/><feBlend in="SourceGraphic" in2="blurOut3" mode="normal"/></filter></defs><g><a target="_top" xlink:actuate="onRequest" xlink:href="../index.svg?sanitize=true" xlink:show="new" xlink:title="../index.svg?sanitize=true" xlink:type="simple"><text fill="#0000FF" font-family="sans-serif" font-size="24" lengthAdjust="spacingAndGlyphs" text-decoration="underline" textLength="90" x="10" y="34.9141">⌂ Home</text><line style="stroke: #0000FF; stroke-width: 1.0;" x1="10" x2="100" y1="36.9141" y2="36.9141"/></a><rect fill="#EEE8AA" height="40.1875" rx="10" ry="10" style="stroke: #000080; stroke-width: 1.5;" width="79" x="197.5" y="42.1875"/><text fill="#000080" font-family="sans-serif" font-size="24" lengthAdjust="spacingAndGlyphs" textLength="63" x="205.5" y="72.1016">Taxes</text><ellipse cx="154" cy="95.375" fill="#CCFFCC" filter="url(#f1ednkfy88j1e1)" rx="10" ry="10" style="stroke: none; stroke-width: 1.0;"/><path d="M251.5,129.7461 L251.5,138.9219 L231.5,142.9219 L251.5,146.9219 L251.5,156.0977 A0,0 0 0 0 251.5,156.0977 L336.5,156.0977 A0,0 0 0 0 336.5,156.0977 L336.5,139.7461 L326.5,129.7461 L251.5,129.7461 A0,0 0 0 0 251.5,129.7461 " fill="#B0C4DE" filter="url(#f1ednkfy88j1e1)" style="stroke: #6495ED; stroke-width: 1.0;"/><path d="M326.5,129.7461 L326.5,139.7461 L336.5,139.7461 L326.5,129.7461 " fill="#B0C4DE" style="stroke: #6495ED; stroke-width: 1.0;"/><text fill="#FFFFFF" font-family="sans-serif" font-size="13" lengthAdjust="spacingAndGlyphs" textLength="64" x="257.5" y="148.2412">tax deferral</text><rect fill="#FFFFF0" filter="url(#f1ednkfy88j1e1)" height="35.0938" style="stroke: #6495ED; stroke-width: 1.0;" width="155" x="76.5" y="125.375"/><text fill="#696969" font-family="sans-serif" font-size="12" lengthAdjust="spacingAndGlyphs" textLength="135" x="86.5" y="147.832">1031 Tax Free Exchange</text><path d="M273,184.8398 L273,194.0156 L253,198.0156 L273,202.0156 L273,211.1914 A0,0 0 0 0 273,211.1914 L420,211.1914 A0,0 0 0 0 420,211.1914 L420,194.8398 L410,184.8398 L273,184.8398 A0,0 0 0 0 273,184.8398 " fill="#B0C4DE" filter="url(#f1ednkfy88j1e1)" style="stroke: #6495ED; stroke-width: 1.0;"/><path d="M410,184.8398 L410,194.8398 L420,194.8398 L410,184.8398 " fill="#B0C4DE" style="stroke: #6495ED; stroke-width: 1.0;"/><text fill="#FFFFFF" font-family="sans-serif" font-size="13" lengthAdjust="spacingAndGlyphs" textLength="126" x="279" y="203.335">removes tax limitation</text><rect fill="#FFFFF0" filter="url(#f1ednkfy88j1e1)" height="35.0938" rx="12.5" ry="12.5" style="stroke: #6495ED; stroke-width: 1.0;" width="198" x="55" y="180.4688"/><text fill="#696969" font-family="sans-serif" font-size="12" lengthAdjust="spacingAndGlyphs" textLength="178" x="65" y="202.9258">become real estate professional</text><path d="M217.5,225.5625 L217.5,259.2656 L197.5,263.2656 L217.5,267.2656 L217.5,300.9688 A0,0 0 0 0 217.5,300.9688 L371.5,300.9688 A0,0 0 0 0 371.5,300.9688 L371.5,235.5625 L361.5,225.5625 L217.5,225.5625 A0,0 0 0 0 217.5,225.5625 " fill="#B0C4DE" filter="url(#f1ednkfy88j1e1)" style="stroke: #6495ED; stroke-width: 1.0;"/><path d="M361.5,225.5625 L361.5,235.5625 L371.5,235.5625 L361.5,225.5625 " fill="#B0C4DE" style="stroke: #6495ED; stroke-width: 1.0;"/><text fill="#FFFFFF" font-family="sans-serif" font-size="13" lengthAdjust="spacingAndGlyphs" textLength="107" x="223.5" y="244.0576">can target multiple</text><text fill="#FFFFFF" font-family="sans-serif" font-size="13" lengthAdjust="spacingAndGlyphs" textLength="128" x="223.5" y="260.4092">within 45 days - target</text><text fill="#FFFFFF" font-family="sans-serif" font-size="13" lengthAdjust="spacingAndGlyphs" textLength="133" x="223.5" y="276.7607">within 180 days - close</text><text fill="#FFFFFF" font-family="sans-serif" font-size="13" lengthAdjust="spacingAndGlyphs" textLength="86" x="223.5" y="293.1123">sale price + $1</text><rect fill="#FFFFF0" filter="url(#f1ednkfy88j1e1)" height="35.0938" rx="12.5" ry="12.5" style="stroke: #6495ED; stroke-width: 1.0;" width="87" x="110.5" y="245.7188"/><text fill="#696969" font-family="sans-serif" font-size="12" lengthAdjust="spacingAndGlyphs" textLength="67" x="120.5" y="268.1758">sell property</text><path d="M192.5,317.1641 L192.5,334.5156 L172.5,338.5156 L192.5,342.5156 L192.5,359.8672 A0,0 0 0 0 192.5,359.8672 L312.5,359.8672 A0,0 0 0 0 312.5,359.8672 L312.5,327.1641 L302.5,317.1641 L192.5,317.1641 A0,0 0 0 0 192.5,317.1641 " fill="#B0C4DE" filter="url(#f1ednkfy88j1e1)" style="stroke: #6495ED; stroke-width: 1.0;"/><path d="M302.5,317.1641 L302.5,327.1641 L312.5,327.1641 L302.5,317.1641 " fill="#B0C4DE" style="stroke: #6495ED; stroke-width: 1.0;"/><text fill="#FFFFFF" font-family="sans-serif" font-size="13" lengthAdjust="spacingAndGlyphs" textLength="89" x="198.5" y="335.6592">kids pay no tax</text><text fill="#FFFFFF" font-family="sans-serif" font-size="13" lengthAdjust="spacingAndGlyphs" textLength="99" x="198.5" y="352.0107">stepped up basis</text><rect fill="#FFFFF0" filter="url(#f1ednkfy88j1e1)" height="35.0938" rx="12.5" ry="12.5" style="stroke: #6495ED; stroke-width: 1.0;" width="37" x="135.5" y="320.9688"/><text fill="#696969" font-family="sans-serif" font-size="12" lengthAdjust="spacingAndGlyphs" textLength="17" x="145.5" y="343.4258">die</text><ellipse cx="154" cy="389.8672" fill="#FFFFFF" filter="url(#f1ednkfy88j1e1)" rx="10" ry="10" style="stroke: #FF7F50; stroke-width: 1.5;"/><line style="stroke: #FF7F50; stroke-width: 2.5;" x1="147.8128" x2="160.1872" y1="383.68" y2="396.0544"/><line style="stroke: #FF7F50; stroke-width: 2.5;" x1="160.1872" x2="147.8128" y1="383.68" y2="396.0544"/><line style="stroke: #696969; stroke-width: 1.5;" x1="154" x2="154" y1="105.375" y2="125.375"/><polygon fill="#696969" points="150,115.375,154,125.375,158,115.375,154,119.375" style="stroke: #696969; stroke-width: 1.0;"/><line style="stroke: #696969; stroke-width: 1.5;" x1="154" x2="154" y1="160.4688" y2="180.4688"/><polygon fill="#696969" points="150,170.4688,154,180.4688,158,170.4688,154,174.4688" style="stroke: #696969; stroke-width: 1.0;"/><line style="stroke: #696969; stroke-width: 1.5;" x1="154" x2="154" y1="215.5625" y2="245.7188"/><polygon fill="#696969" points="150,235.7188,154,245.7188,158,235.7188,154,239.7188" style="stroke: #696969; stroke-width: 1.0;"/><line style="stroke: #696969; stroke-width: 1.5;" x1="154" x2="154" y1="280.8125" y2="320.9688"/><polygon fill="#696969" points="150,310.9688,154,320.9688,158,310.9688,154,314.9688" style="stroke: #696969; stroke-width: 1.0;"/><line style="stroke: #696969; stroke-width: 1.5;" x1="154" x2="154" y1="356.0625" y2="379.8672"/><polygon fill="#696969" points="150,369.8672,154,379.8672,158,369.8672,154,373.8672" style="stroke: #696969; stroke-width: 1.0;"/><text fill="#000080" font-family="sans-serif" font-size="14" lengthAdjust="spacingAndGlyphs" textLength="42" x="10" y="413.4004">©2019</text><a target="_top" xlink:actuate="onRequest" xlink:href="http://www.lifestylesunlimited.com" xlink:show="new" xlink:title="http://www.lifestylesunlimited.com" xlink:type="simple"><text fill="#0000FF" font-family="sans-serif" font-size="14" lengthAdjust="spacingAndGlyphs" text-decoration="underline" textLength="122" x="56" y="413.4004">LifeStyles Unlimited</text><line style="stroke: #0000FF; stroke-width: 1.0;" x1="56" x2="178" y1="415.4004" y2="415.4004"/></a><text fill="#000080" font-family="sans-serif" font-size="14" lengthAdjust="spacingAndGlyphs" textLength="283" x="182" y="413.4004">| Generated Sun May 12 17:24:42 CDT 2019</text><!--
@startuml taxes


skinparam {
  BorderColor Red
  PathHoverColor Blue
}

skinparam Title {
  FontColor Navy
  BackgroundColor PaleGoldenRod
  BorderColor Navy
  BorderRoundCorner 20
  FontSize 24
}

skinparam activity {
  BackgroundColor Ivory
  BorderColor CornflowerBlue
  BorderThickness 1
  FontColor DimGray
  

  Arrow {
    Color dimgray
    FontColor dimgray
  }

  Start {
    Color PHYSICAL
  }

  End {
    Color Coral
  }

  Diamond {
    BackgroundColor Ivory
    BorderColor CornflowerBlue
    FontColor DarkGray
  }

  BackgroundColor<< Exception >> Red
	BorderColor<< Exception >> White
}

skinparam Swimlane {
  BorderColor CornflowerBlue 
}

skinparam Partition {
  BackgroundColor Ivory
  BorderColor CornflowerBlue
  BorderThickness 1
  FontColor CornflowerBlue
  FontSize 16
  BorderRoundCorner 20
}

skinparam Note {
  BackgroundColor LightSteelBlue
  BorderColor CornflowerBlue
  FontColor White
}

skinparam Legend {
  BackgroundColor LightSteelBlue
  BorderColor CornflowerBlue
  FontColor White
}

skinparam Footer {
  FontColor Navy
}


left header 
	<font color=Navy size=24>[[../index.svg?sanitize=true ⌂ Home]]</font>
endheader


	Title Taxes

	start
	
	:1031 Tax Free Exchange]
	note right
		tax deferral
	end note

	:become real estate professional;
	note right
		removes tax limitation
	end note

	:sell property;
	note right
		can target multiple
		within 45 days - target
		within 180 days - close
		sale price + $1
	end note

	:die;
	note right
		kids pay no tax
		stepped up basis
	end note
	end


left footer 
	<font size=14>©2019 [[http://www.lifestylesunlimited.com LifeStyles Unlimited]] | Generated Sun May 12 17:24:42 CDT 2019</font>
endfooter


@enduml

PlantUML version 1.2019.03(Sun Mar 10 06:04:44 CDT 2019)
(GPL source distribution)
Java Runtime: Java(TM) SE Runtime Environment
JVM: Java HotSpot(TM) 64-Bit Server VM
Java Version: 1.8.0_111-b14
Operating System: Windows 10
OS Version: 10.0
Default Encoding: Cp1252
Language: en
Country: US
--></g></svg>