<?xml version="1.0" encoding="UTF-8" standalone="no"?><svg xmlns="http://www.w3.org/2000/svg" xmlns:xlink="http://www.w3.org/1999/xlink" contentScriptType="application/ecmascript" contentStyleType="text/css" height="552px" preserveAspectRatio="none" style="width:473px;height:552px;" version="1.1" viewBox="0 0 473 552" width="473px" zoomAndPan="magnify"><defs><style type="text/css"><![CDATA[path:hover { stroke: #0000FF !important;}]]></style><filter height="300%" id="f1gqdaqrr2j274" width="300%" x="-1" y="-1"><feGaussianBlur result="blurOut" stdDeviation="2.0"/><feColorMatrix in="blurOut" result="blurOut2" type="matrix" values="0 0 0 0 0 0 0 0 0 0 0 0 0 0 0 0 0 0 .4 0"/><feOffset dx="4.0" dy="4.0" in="blurOut2" result="blurOut3"/><feBlend in="SourceGraphic" in2="blurOut3" mode="normal"/></filter></defs><g><a target="_top" xlink:actuate="onRequest" xlink:href="../index.svg?sanitize=true" xlink:show="new" xlink:title="../index.svg?sanitize=true" xlink:type="simple"><text fill="#0000FF" font-family="sans-serif" font-size="24" lengthAdjust="spacingAndGlyphs" text-decoration="underline" textLength="90" x="10" y="34.9141">⌂ Home</text><line style="stroke: #0000FF; stroke-width: 1.0;" x1="10" x2="100" y1="36.9141" y2="36.9141"/></a><rect fill="#EEE8AA" height="40.1875" rx="10" ry="10" style="stroke: #000080; stroke-width: 1.5;" width="79" x="195.5" y="42.1875"/><text fill="#000080" font-family="sans-serif" font-size="24" lengthAdjust="spacingAndGlyphs" textLength="63" x="203.5" y="72.1016">Taxes</text><path d="M142.5,85.375 L142.5,94.5508 L122.5,98.5508 L142.5,102.5508 L142.5,111.7266 A0,0 0 0 0 142.5,111.7266 L346.5,111.7266 A0,0 0 0 0 346.5,111.7266 L346.5,95.375 L336.5,85.375 L142.5,85.375 A0,0 0 0 0 142.5,85.375 " fill="#B0C4DE" filter="url(#f1gqdaqrr2j274)" style="stroke: #6495ED; stroke-width: 1.0;"/><path d="M336.5,85.375 L336.5,95.375 L346.5,95.375 L336.5,85.375 " fill="#B0C4DE" style="stroke: #6495ED; stroke-width: 1.0;"/><text fill="#FFFFFF" font-family="sans-serif" font-size="13" lengthAdjust="spacingAndGlyphs" textLength="183" x="148.5" y="103.8701">property = land + improvements</text><ellipse cx="112.5" cy="98.5508" fill="#CCFFCC" filter="url(#f1gqdaqrr2j274)" rx="10" ry="10" style="stroke: none; stroke-width: 1.0;"/><path d="M212.5,121.7266 L212.5,155.4297 L192.5,159.4297 L212.5,163.4297 L212.5,197.1328 A0,0 0 0 0 212.5,197.1328 L457.5,197.1328 A0,0 0 0 0 457.5,197.1328 L457.5,131.7266 L447.5,121.7266 L212.5,121.7266 A0,0 0 0 0 212.5,121.7266 " fill="#B0C4DE" filter="url(#f1gqdaqrr2j274)" style="stroke: #6495ED; stroke-width: 1.0;"/><path d="M447.5,121.7266 L447.5,131.7266 L457.5,131.7266 L447.5,121.7266 " fill="#B0C4DE" style="stroke: #6495ED; stroke-width: 1.0;"/><text fill="#FFFFFF" font-family="sans-serif" font-size="13" lengthAdjust="spacingAndGlyphs" textLength="224" x="218.5" y="140.2217">passive income - depreciation expense</text><text fill="#FFFFFF" font-family="sans-serif" font-size="13" lengthAdjust="spacingAndGlyphs" textLength="136" x="218.5" y="156.5732">write off against income</text><text fill="#FFFFFF" font-family="sans-serif" font-size="13" lengthAdjust="spacingAndGlyphs" textLength="161" x="218.5" y="172.9248">25,000 cap, or carry forward</text><text fill="#FFFFFF" font-family="sans-serif" font-size="13" lengthAdjust="spacingAndGlyphs" textLength="80" x="218.5" y="189.2764">to other years</text><rect fill="#FFFFF0" filter="url(#f1gqdaqrr2j274)" height="35.0938" rx="12.5" ry="12.5" style="stroke: #6495ED; stroke-width: 1.0;" width="160" x="32.5" y="141.8828"/><text fill="#696969" font-family="sans-serif" font-size="12" lengthAdjust="spacingAndGlyphs" textLength="140" x="42.5" y="164.3398">depreciate improvements</text><path d="M231.5,207.1328 L231.5,240.8359 L211.5,244.8359 L231.5,248.8359 L231.5,282.5391 A0,0 0 0 0 231.5,282.5391 L408.5,282.5391 A0,0 0 0 0 408.5,282.5391 L408.5,217.1328 L398.5,207.1328 L231.5,207.1328 A0,0 0 0 0 231.5,207.1328 " fill="#B0C4DE" filter="url(#f1gqdaqrr2j274)" style="stroke: #6495ED; stroke-width: 1.0;"/><path d="M398.5,207.1328 L398.5,217.1328 L408.5,217.1328 L398.5,207.1328 " fill="#B0C4DE" style="stroke: #6495ED; stroke-width: 1.0;"/><text fill="#FFFFFF" font-family="sans-serif" font-size="13" lengthAdjust="spacingAndGlyphs" textLength="115" x="237.5" y="225.6279">ex: owner / operator</text><text fill="#FFFFFF" font-family="sans-serif" font-size="13" lengthAdjust="spacingAndGlyphs" textLength="126" x="237.5" y="241.9795">removes tax limitation</text><text fill="#FFFFFF" font-family="sans-serif" font-size="13" lengthAdjust="spacingAndGlyphs" textLength="156" x="237.5" y="258.3311">must work ____ hrs / week</text><text fill="#FFFFFF" font-family="sans-serif" font-size="13" lengthAdjust="spacingAndGlyphs" textLength="96" x="237.5" y="274.6826">cost segregation</text><rect fill="#FFFFF0" filter="url(#f1gqdaqrr2j274)" height="35.0938" rx="12.5" ry="12.5" style="stroke: #6495ED; stroke-width: 1.0;" width="198" x="13.5" y="227.2891"/><text fill="#696969" font-family="sans-serif" font-size="12" lengthAdjust="spacingAndGlyphs" textLength="178" x="23.5" y="249.7461">become real estate professional</text><path d="M176,292.5391 L176,326.2422 L156,330.2422 L176,334.2422 L176,367.9453 A0,0 0 0 0 176,367.9453 L365,367.9453 A0,0 0 0 0 365,367.9453 L365,302.5391 L355,292.5391 L176,292.5391 A0,0 0 0 0 176,292.5391 " fill="#B0C4DE" filter="url(#f1gqdaqrr2j274)" style="stroke: #6495ED; stroke-width: 1.0;"/><path d="M355,292.5391 L355,302.5391 L365,302.5391 L355,292.5391 " fill="#B0C4DE" style="stroke: #6495ED; stroke-width: 1.0;"/><text fill="#FFFFFF" font-family="sans-serif" font-size="13" lengthAdjust="spacingAndGlyphs" textLength="107" x="182" y="311.0342">can target multiple</text><text fill="#FFFFFF" font-family="sans-serif" font-size="13" lengthAdjust="spacingAndGlyphs" textLength="128" x="182" y="327.3857">target - within 45 days</text><text fill="#FFFFFF" font-family="sans-serif" font-size="13" lengthAdjust="spacingAndGlyphs" textLength="168" x="182" y="343.7373">close again - within 180 days</text><text fill="#FFFFFF" font-family="sans-serif" font-size="13" lengthAdjust="spacingAndGlyphs" textLength="86" x="182" y="360.0889">sale price + $1</text><rect fill="#FFFFF0" filter="url(#f1gqdaqrr2j274)" height="35.0938" rx="12.5" ry="12.5" style="stroke: #6495ED; stroke-width: 1.0;" width="87" x="69" y="312.6953"/><text fill="#696969" font-family="sans-serif" font-size="12" lengthAdjust="spacingAndGlyphs" textLength="67" x="79" y="335.1523">sell property</text><path d="M210,384.1406 L210,401.4922 L190,405.4922 L210,409.4922 L210,426.8438 A0,0 0 0 0 210,426.8438 L295,426.8438 A0,0 0 0 0 295,426.8438 L295,394.1406 L285,384.1406 L210,384.1406 A0,0 0 0 0 210,384.1406 " fill="#B0C4DE" filter="url(#f1gqdaqrr2j274)" style="stroke: #6495ED; stroke-width: 1.0;"/><path d="M285,384.1406 L285,394.1406 L295,394.1406 L285,384.1406 " fill="#B0C4DE" style="stroke: #6495ED; stroke-width: 1.0;"/><text fill="#FFFFFF" font-family="sans-serif" font-size="13" lengthAdjust="spacingAndGlyphs" textLength="64" x="216" y="402.6357">tax deferral</text><text fill="#FFFFFF" font-family="sans-serif" font-size="13" lengthAdjust="spacingAndGlyphs" textLength="0" x="220" y="418.9873"/><rect fill="#FFFFF0" filter="url(#f1gqdaqrr2j274)" height="35.0938" style="stroke: #6495ED; stroke-width: 1.0;" width="155" x="35" y="387.9453"/><text fill="#696969" font-family="sans-serif" font-size="12" lengthAdjust="spacingAndGlyphs" textLength="135" x="45" y="410.4023">1031 Tax Free Exchange</text><path d="M151,443.0391 L151,460.3906 L131,464.3906 L151,468.3906 L151,485.7422 A0,0 0 0 0 151,485.7422 L271,485.7422 A0,0 0 0 0 271,485.7422 L271,453.0391 L261,443.0391 L151,443.0391 A0,0 0 0 0 151,443.0391 " fill="#B0C4DE" filter="url(#f1gqdaqrr2j274)" style="stroke: #6495ED; stroke-width: 1.0;"/><path d="M261,443.0391 L261,453.0391 L271,453.0391 L261,443.0391 " fill="#B0C4DE" style="stroke: #6495ED; stroke-width: 1.0;"/><text fill="#FFFFFF" font-family="sans-serif" font-size="13" lengthAdjust="spacingAndGlyphs" textLength="89" x="157" y="461.5342">kids pay no tax</text><text fill="#FFFFFF" font-family="sans-serif" font-size="13" lengthAdjust="spacingAndGlyphs" textLength="99" x="157" y="477.8857">stepped up basis</text><rect fill="#FFFFF0" filter="url(#f1gqdaqrr2j274)" height="35.0938" rx="12.5" ry="12.5" style="stroke: #6495ED; stroke-width: 1.0;" width="37" x="94" y="446.8438"/><text fill="#696969" font-family="sans-serif" font-size="12" lengthAdjust="spacingAndGlyphs" textLength="17" x="104" y="469.3008">die</text><ellipse cx="112.5" cy="515.7422" fill="#FFFFFF" filter="url(#f1gqdaqrr2j274)" rx="10" ry="10" style="stroke: #FF7F50; stroke-width: 1.5;"/><line style="stroke: #FF7F50; stroke-width: 2.5;" x1="106.3128" x2="118.6872" y1="509.555" y2="521.9294"/><line style="stroke: #FF7F50; stroke-width: 2.5;" x1="118.6872" x2="106.3128" y1="509.555" y2="521.9294"/><line style="stroke: #696969; stroke-width: 1.5;" x1="112.5" x2="112.5" y1="108.5508" y2="141.8828"/><polygon fill="#696969" points="108.5,131.8828,112.5,141.8828,116.5,131.8828,112.5,135.8828" style="stroke: #696969; stroke-width: 1.0;"/><line style="stroke: #696969; stroke-width: 1.5;" x1="112.5" x2="112.5" y1="176.9766" y2="227.2891"/><polygon fill="#696969" points="108.5,217.2891,112.5,227.2891,116.5,217.2891,112.5,221.2891" style="stroke: #696969; stroke-width: 1.0;"/><line style="stroke: #696969; stroke-width: 1.5;" x1="112.5" x2="112.5" y1="262.3828" y2="312.6953"/><polygon fill="#696969" points="108.5,302.6953,112.5,312.6953,116.5,302.6953,112.5,306.6953" style="stroke: #696969; stroke-width: 1.0;"/><line style="stroke: #696969; stroke-width: 1.5;" x1="112.5" x2="112.5" y1="347.7891" y2="387.9453"/><polygon fill="#696969" points="108.5,377.9453,112.5,387.9453,116.5,377.9453,112.5,381.9453" style="stroke: #696969; stroke-width: 1.0;"/><line style="stroke: #696969; stroke-width: 1.5;" x1="112.5" x2="112.5" y1="423.0391" y2="446.8438"/><polygon fill="#696969" points="108.5,436.8438,112.5,446.8438,116.5,436.8438,112.5,440.8438" style="stroke: #696969; stroke-width: 1.0;"/><line style="stroke: #696969; stroke-width: 1.5;" x1="112.5" x2="112.5" y1="481.9375" y2="505.7422"/><polygon fill="#696969" points="108.5,495.7422,112.5,505.7422,116.5,495.7422,112.5,499.7422" style="stroke: #696969; stroke-width: 1.0;"/><text fill="#000080" font-family="sans-serif" font-size="14" lengthAdjust="spacingAndGlyphs" textLength="42" x="10" y="539.2754">©2019</text><a target="_top" xlink:actuate="onRequest" xlink:href="http://www.lifestylesunlimited.com" xlink:show="new" xlink:title="http://www.lifestylesunlimited.com" xlink:type="simple"><text fill="#0000FF" font-family="sans-serif" font-size="14" lengthAdjust="spacingAndGlyphs" text-decoration="underline" textLength="122" x="56" y="539.2754">LifeStyles Unlimited</text><line style="stroke: #0000FF; stroke-width: 1.0;" x1="56" x2="178" y1="541.2754" y2="541.2754"/></a><text fill="#000080" font-family="sans-serif" font-size="14" lengthAdjust="spacingAndGlyphs" textLength="279" x="182" y="539.2754">| Generated Sat May 18 14:01:04 CDT 2019</text><!--
@startuml taxes


skinparam {
  BorderColor Red
  PathHoverColor Blue
}

skinparam Title {
  FontColor Navy
  BackgroundColor PaleGoldenRod
  BorderColor Navy
  BorderRoundCorner 20
  FontSize 24
}

skinparam activity {
  BackgroundColor Ivory
  BorderColor CornflowerBlue
  BorderThickness 1
  FontColor DimGray
  

  Arrow {
    Color dimgray
    FontColor dimgray
  }

  Start {
    Color PHYSICAL
  }

  End {
    Color Coral
  }

  Diamond {
    BackgroundColor Ivory
    BorderColor CornflowerBlue
    FontColor DarkGray
  }

  BackgroundColor<< Exception >> Red
	BorderColor<< Exception >> White
}

skinparam Swimlane {
  BorderColor CornflowerBlue 
}

skinparam Partition {
  BackgroundColor Ivory
  BorderColor CornflowerBlue
  BorderThickness 1
  FontColor CornflowerBlue
  FontSize 16
  BorderRoundCorner 20
}

skinparam Note {
  BackgroundColor LightSteelBlue
  BorderColor CornflowerBlue
  FontColor White
}

skinparam Legend {
  BackgroundColor LightSteelBlue
  BorderColor CornflowerBlue
  FontColor White
}

skinparam Footer {
  FontColor Navy
}


left header 
	<font color=Navy size=24>[[../index.svg?sanitize=true ⌂ Home]]</font>
endheader


	Title Taxes

	start

	note right
		property = land + improvements
	end note

	:depreciate improvements;
	note right
		passive income - depreciation expense
		write off against income
		25,000 cap, or carry forward
		to other years
	end note
	
	:become real estate professional;
	note right
		ex: owner / operator
		removes tax limitation
		must work ____ hrs / week
		cost segregation
	end note

	:sell property;
	note right
		can target multiple
		target - within 45 days
		close again - within 180 days
		sale price + $1
	end note

	:1031 Tax Free Exchange]
	note right
		tax deferral

	end note

	:die;
	note right
		kids pay no tax
		stepped up basis
	end note
	end


left footer 
	<font size=14>©2019 [[http://www.lifestylesunlimited.com LifeStyles Unlimited]] | Generated Sat May 18 14:01:04 CDT 2019</font>
endfooter


@enduml

PlantUML version 1.2019.03(Sun Mar 10 06:04:44 CDT 2019)
(GPL source distribution)
Java Runtime: Java(TM) SE Runtime Environment
JVM: Java HotSpot(TM) 64-Bit Server VM
Java Version: 1.8.0_111-b14
Operating System: Windows 10
OS Version: 10.0
Default Encoding: Cp1252
Language: en
Country: US
--></g></svg>